<?xml version='1.0' encoding='UTF-8'?>
<svg xmlns="http://www.w3.org/2000/svg" xmlns:xlink="http://www.w3.org/1999/xlink" version="1.1" width="100px" height="93px" viewBox="0.0 6.45 100.0 93.14999999999999"><defs><g id="c1"><path fill="#ffffff" stroke="none" d="M47.6 33.5 Q48.65 35.4 51.7 36.55 L52.15 36.3 Q52.4 35.8 52.95 36.0 53.65 37.25 54.25 39.85 L55.3 43.9 Q55.25 45.25 54.3 47.4 53.4 49.5 53.35 51.05 54.8 51.9 56.1 51.25 L58.5 49.95 60.3 49.75 61.9 49.6 Q62.85 49.3 64.05 47.55 65.45 45.55 66.0 45.15 66.6 44.75 67.85 44.5 L69.6 44.05 Q71.6 43.05 70.9 41.2 L69.95 38.5 70.55 37.75 71.35 36.9 Q69.6 35.1 70.85 32.25 72.45 31.65 74.8 30.15 L78.7 27.65 78.9 26.95 Q78.85 26.55 79.4 26.35 80.55 26.9 81.5 28.3 L83.0 30.85 80.2 33.0 Q78.35 34.2 78.0 35.65 80.45 39.35 80.5 42.3 79.4 44.15 76.55 45.15 L74.75 48.55 73.1 50.95 71.85 52.6 69.85 54.4 67.85 56.1 65.4 59.0 64.1 60.35 Q63.25 61.3 62.95 61.95 62.6 62.85 63.1 64.2 L63.85 66.55 Q63.95 67.55 63.5 69.45 62.9 71.75 62.8 72.65 62.6 74.8 62.85 78.3 L63.15 83.7 65.75 85.3 68.35 86.95 Q69.85 88.2 72.4 92.05 74.9 95.85 76.35 96.95 L78.2 98.2 79.65 99.6 58.2 99.6 56.05 98.1 54.05 96.75 52.55 95.2 Q51.9 94.75 50.45 95.85 L49.05 96.95 48.15 98.3 47.15 99.6 25.15 99.6 Q25.3 98.8 26.3 97.55 27.2 96.4 27.25 95.35 L28.2 94.6 Q28.75 94.15 29.4 94.1 30.1 92.75 31.55 91.4 L34.2 89.1 37.0 86.85 Q38.9 85.2 39.2 84.25 39.6 83.05 39.0 81.6 L38.15 79.45 Q38.05 78.8 38.25 77.55 L38.5 75.5 Q38.7 70.75 36.55 64.05 L36.65 63.3 36.7 62.45 Q34.8 61.4 33.05 59.1 L30.1 54.95 Q28.4 54.8 26.55 53.15 25.95 51.55 24.45 49.0 L22.25 44.95 Q18.45 44.3 18.55 40.95 18.6 38.3 20.8 35.3 20.35 34.0 18.45 32.75 16.35 31.45 15.8 30.5 L17.45 27.95 Q18.4 26.4 19.55 26.35 20.1 26.45 19.95 26.85 19.75 27.3 20.1 27.45 L24.15 30.0 28.15 32.25 Q28.6 33.75 28.45 34.75 28.3 35.8 27.4 36.75 L28.35 37.6 Q29.0 38.05 29.05 38.5 29.1 38.95 28.35 39.95 27.6 41.0 27.6 41.55 27.65 43.25 29.55 43.8 32.45 44.6 32.95 44.95 L34.75 47.35 Q35.85 49.1 36.9 49.4 L39.5 49.95 41.45 50.85 Q42.6 51.4 43.5 51.2 43.55 49.85 42.4 47.3 41.25 44.75 41.35 42.8 42.15 42.25 42.4 40.8 L42.8 38.5 44.05 36.9 45.55 34.85 Q46.35 34.0 47.6 33.5"/><path fill="#ffffff" fill-opacity="0.8" d="M0.0 29.9 L0.0 27.65 5.65 26.25 9.35 25.95 0.6 12.2 Q1.45 8.9 3.3 6.45 L19.75 19.7 21.55 14.1 25.7 11.0 26.05 20.45 30.35 19.0 26.8 26.0 Q26.45 26.95 26.0 27.15 L24.7 27.0 23.2 26.45 22.0 26.2 Q21.45 26.05 20.65 25.6 L19.35 24.9 18.25 24.45 17.45 24.5 Q16.45 25.0 15.35 26.55 L13.9 29.05 Q13.4 30.1 13.7 30.7 14.2 31.85 14.7 32.15 L16.35 33.05 17.4 34.05 Q18.05 34.8 17.55 35.2 L16.3 35.5 13.6 35.9 5.9 37.1 9.45 31.5 0.0 29.9"/><path fill="#ffffff" fill-opacity="0.8" d="M79.4 12.65 L80.7 19.95 97.75 7.3 Q99.1 9.85 99.6 12.75 L89.35 25.7 94.3 25.95 100.0 27.85 100.0 30.0 90.15 30.9 93.25 36.75 89.5 35.9 86.55 35.3 Q84.2 34.65 84.45 33.9 L84.85 33.3 85.3 32.75 85.8 31.6 Q86.25 30.55 85.65 29.75 L84.25 27.6 82.75 25.5 Q81.5 23.8 80.15 23.95 79.05 24.1 77.8 24.95 L76.05 26.15 74.75 26.6 74.2 26.25 73.9 25.65 70.25 16.85 74.4 18.6 75.45 9.2 79.4 12.65"/></g></defs><g><g><use transform="matrix(1.0,0.0,0.0,1.0,0.0,0.0)" xlink:href="#c1"/></g></g></svg>