<?xml version='1.0' encoding='UTF-8'?>
<svg xmlns="http://www.w3.org/2000/svg" xmlns:xlink="http://www.w3.org/1999/xlink" version="1.1" width="75px" height="79px" viewBox="13.65 10.2 74.6 78.64999999999999"><defs><g id="c1"><path fill="#ffffff" stroke="none" d="M60.45 36.85 Q58.9 34.25 56.3 32.3 L49.25 32.1 Q45.55 33.3 42.85 36.3 L43.6 36.05 48.1 35.75 Q50.4 36.1 52.3 37.3 L54.05 38.7 54.8 39.5 55.45 40.35 Q56.7 42.2 56.95 44.4 57.2 46.6 56.45 48.6 55.7 50.6 54.15 52.0 55.45 50.45 55.95 48.45 56.4 46.5 55.9 44.6 55.55 42.8 54.3 41.3 L53.6 40.55 52.9 40.0 51.35 39.0 Q50.0 38.3 48.15 38.15 46.4 38.5 45.35 39.35 43.9 40.5 43.1 41.95 41.3 45.0 42.1 48.35 42.4 50.0 43.3 51.2 L44.35 52.5 45.55 53.55 Q48.05 55.55 51.4 55.55 54.65 55.55 57.05 53.65 59.55 51.75 60.95 48.8 62.3 45.8 62.15 42.7 62.05 39.65 60.45 36.85 M16.25 41.15 Q18.85 32.5 25.5 26.1 32.55 19.35 42.05 18.45 46.7 18.05 51.25 19.2 55.85 20.35 59.7 22.9 63.75 25.5 66.5 29.15 69.4 32.95 70.6 37.55 72.1 43.2 70.75 49.2 L71.9 47.2 Q73.95 43.3 74.3 39.15 L74.45 37.1 74.35 34.95 Q74.2 32.6 73.7 30.65 72.65 26.4 70.25 22.7 67.7 18.95 64.05 16.4 60.5 13.8 55.85 12.55 51.35 11.4 46.45 11.65 51.1 10.2 56.15 10.65 61.35 11.15 65.85 13.5 70.45 15.95 73.85 19.95 77.2 23.95 78.9 29.15 L80.15 34.25 80.4 36.85 80.4 39.6 Q80.1 44.9 77.85 50.05 75.55 55.0 71.65 58.85 67.7 62.7 62.7 64.9 57.1 67.2 51.85 67.0 45.75 66.75 41.1 63.3 L38.45 60.85 38.4 60.8 36.95 59.05 36.9 59.05 36.6 58.5 Q35.1 56.25 34.35 54.2 32.35 48.5 33.65 43.1 L34.0 41.95 Q33.9 39.05 34.8 36.35 L34.55 36.65 Q30.7 41.9 30.45 48.65 30.35 51.85 31.2 55.05 32.1 58.25 33.8 60.8 37.55 66.45 43.6 69.45 49.8 72.6 56.5 72.05 63.25 71.65 69.0 67.8 74.8 63.9 78.75 57.85 82.65 51.85 84.05 44.75 85.55 37.7 84.2 30.4 82.8 23.0 78.8 16.7 83.75 22.35 86.05 29.95 88.25 37.5 87.4 45.3 86.55 53.05 82.65 60.2 78.85 67.1 72.25 72.15 65.65 77.25 57.0 78.15 48.4 79.0 40.75 75.4 33.3 72.0 28.2 64.7 23.25 57.35 23.5 48.45 23.8 39.6 29.1 32.6 L31.05 30.25 30.25 30.95 Q24.9 36.05 22.55 43.15 20.15 50.1 21.35 57.65 22.55 65.25 27.0 71.2 31.65 77.2 38.45 80.95 45.4 84.8 53.05 85.4 60.8 86.1 68.5 83.45 76.15 80.75 82.2 75.25 77.0 81.6 69.2 85.2 61.4 88.85 52.9 88.8 44.35 88.8 36.4 85.05 28.35 81.25 22.75 74.55 17.05 67.85 15.35 58.75 13.65 49.8 16.25 41.15"/></g></defs><g><g><use transform="matrix(1.0,0.0,0.0,1.0,0.0,0.0)" xlink:href="#c1"/></g></g></svg>