<?xml version='1.0' encoding='UTF-8'?>
<svg xmlns="http://www.w3.org/2000/svg" xmlns:xlink="http://www.w3.org/1999/xlink" version="1.1" width="100px" height="90px" viewBox="0.05 10.3 99.95 89.7"><defs><g id="c1"><path fill="#ffffff" stroke="none" d="M10.0 10.3 L27.75 25.8 32.0 34.9 25.5 29.3 9.6 10.9 9.6 10.3 10.0 10.3"/><path fill="#ffffff" fill-opacity="0.8" d="M10.5 27.5 L24.7 41.7 25.3 43.5 0.05 29.15 0.05 16.05 10.5 27.5"/><path fill="#ffffff" stroke="none" d="M2.75 67.6 L2.9 67.3 14.7 72.25 19.35 75.9 14.35 74.3 2.75 67.6"/><path fill="#ffffff" fill-opacity="0.8" d="M0.05 57.0 L0.05 49.15 5.35 53.05 20.05 65.2 0.05 57.0"/><path fill="#ffffff" stroke="none" d="M90.05 10.3 L90.45 10.3 90.45 10.9 74.55 29.3 68.05 34.9 72.3 25.8 90.05 10.3"/><path fill="#ffffff" stroke="none" d="M97.25 39.2 L97.2 39.7 82.25 52.5 76.35 56.25 80.85 49.45 96.95 39.15 97.25 39.2"/><path fill="#ffffff" stroke="none" d="M3.6 39.45 L3.9 39.4 20.0 49.7 24.5 56.5 18.6 52.75 3.65 39.95 3.6 39.45"/><path fill="#ffffff" fill-opacity="0.8" d="M100.0 16.05 L100.0 29.15 Q87.4 36.35 74.75 43.5 L75.35 41.7 100.0 16.05"/><path fill="#ffffff" stroke="none" d="M97.3 67.6 L85.7 74.3 81.05 75.1 85.35 72.25 97.15 67.3 97.3 67.6"/><path fill="#ffffff" fill-opacity="0.8" d="M100.0 49.15 L100.0 57.0 80.0 65.2 94.7 53.05 100.0 49.15"/><path fill="#ffffff" stroke="none" d="M54.2 13.55 Q56.1 14.75 57.25 16.55 59.6 20.2 57.7 28.6 L56.55 31.05 Q55.8 32.25 55.9 33.6 63.65 33.7 66.95 39.55 67.85 41.25 71.35 53.35 72.15 56.1 72.8 61.2 73.55 66.65 74.1 68.85 74.4 70.2 75.25 72.55 L76.35 75.9 76.6 78.05 76.8 79.9 78.85 84.0 Q80.2 86.85 79.3 89.0 78.7 90.35 76.35 90.85 74.05 91.35 72.5 90.55 71.8 89.4 71.75 87.5 L71.6 84.2 Q71.1 81.3 68.2 72.2 L65.05 62.0 64.0 57.95 Q63.25 55.6 62.05 54.05 61.35 64.1 64.05 83.05 L66.85 100.0 33.5 100.0 36.3 83.05 Q39.0 64.1 38.3 54.05 37.05 55.6 36.3 57.95 35.8 59.35 35.25 62.0 L32.1 72.2 Q29.25 81.25 28.75 84.2 L28.6 87.5 Q28.55 89.45 27.85 90.55 L23.95 90.85 Q21.6 90.35 21.0 89.0 20.1 86.85 21.45 84.0 L23.5 79.9 23.7 78.05 Q23.75 76.85 23.95 75.9 L25.05 72.55 26.25 68.85 27.5 61.2 Q28.15 56.15 28.95 53.35 32.5 41.15 33.4 39.55 36.65 33.7 44.45 33.6 44.55 32.25 43.75 31.05 42.8 29.5 42.6 28.6 41.85 25.2 41.85 22.25 41.8 18.55 43.05 16.55 44.2 14.75 46.1 13.55 48.15 12.3 50.15 12.35 52.15 12.3 54.2 13.55"/></g></defs><g><g><use transform="matrix(1.0,0.0,0.0,1.0,0.0,0.0)" xlink:href="#c1"/></g></g></svg>