<?xml version='1.0' encoding='UTF-8'?>
<svg xmlns="http://www.w3.org/2000/svg" xmlns:xlink="http://www.w3.org/1999/xlink" version="1.1" width="91px" height="91px" viewBox="0.1 7.1 90.65 90.95"><defs><g id="c1"><path fill="#ffffff" stroke="none" d="M44.2 26.3 Q43.55 26.9 42.75 28.3 41.2 31.05 40.65 34.9 40.1 38.8 41.15 41.7 41.65 43.15 42.25 43.8 L46.05 45.35 Q44.15 43.5 43.3 39.8 41.55 32.35 46.65 23.15 L44.2 26.3 M48.55 12.2 L49.65 7.7 Q50.05 7.1 50.4 7.7 L51.45 12.2 Q53.45 18.05 58.0 24.85 65.6 36.2 61.35 45.1 59.65 48.6 56.45 50.75 53.45 52.75 50.4 52.75 L49.65 52.75 Q46.6 52.75 43.6 50.75 40.4 48.65 38.7 45.1 34.45 36.2 42.05 24.85 46.6 18.05 48.55 12.2"/><path fill="#ffffff" stroke="none" d="M83.05 82.2 Q85.05 82.1 86.4 82.9 87.7 83.65 87.7 84.8 87.7 85.5 89.4 86.4 90.75 87.2 90.0 87.7 89.3 88.2 85.6 88.35 81.7 88.45 80.4 89.15 77.8 90.55 68.85 92.4 58.2 94.65 51.5 94.25 46.5 93.95 34.25 94.25 23.2 94.5 20.1 94.1 18.35 93.9 9.25 98.05 6.5 96.75 4.65 94.9 0.35 90.6 0.1 83.35 L9.35 80.2 Q13.85 78.75 19.25 77.85 L21.8 75.4 Q24.8 72.7 27.1 71.7 28.35 71.15 31.45 70.25 33.7 69.55 35.8 68.25 L42.3 64.25 48.15 60.1 Q50.2 58.15 52.8 57.05 55.35 55.95 56.45 56.6 57.55 57.3 57.85 59.4 58.15 61.55 57.15 62.85 L52.1 66.9 46.55 70.7 Q45.25 71.7 44.8 74.1 44.35 76.3 44.95 77.4 45.65 78.65 46.25 79.0 47.25 79.65 49.3 79.55 52.35 79.45 54.4 78.1 63.0 70.35 64.3 68.0 65.3 66.2 66.65 67.8 68.0 69.35 66.9 71.0 61.4 79.3 59.65 80.6 58.6 81.3 61.75 81.25 L66.75 80.6 Q68.2 80.15 71.5 77.75 L75.5 74.95 Q76.9 74.25 78.5 74.0 80.55 73.7 81.6 74.5 83.85 76.15 78.95 78.55 76.65 79.7 74.7 81.5 72.7 83.3 74.05 83.2 L78.2 82.7 83.05 82.2"/></g></defs><g><g><use transform="matrix(1.0,0.0,0.0,1.0,0.0,0.0)" xlink:href="#c1"/></g></g></svg>