<?xml version='1.0' encoding='UTF-8'?>
<svg xmlns="http://www.w3.org/2000/svg" xmlns:xlink="http://www.w3.org/1999/xlink" version="1.1" width="100px" height="99px" viewBox="0.1 0.45 100.0 99.2"><defs><g id="c1"><path fill="#ffffff" stroke="none" d="M47.9 9.7 Q44.7 7.4 44.15 9.75 43.9 10.95 44.25 12.6 L31.3 1.6 41.25 2.55 Q53.15 4.6 63.15 9.95 69.6 13.4 81.05 21.85 L91.2 29.6 Q94.3 32.15 96.95 35.5 L99.0 38.35 97.05 36.35 Q94.3 33.95 90.35 32.2 88.05 31.2 89.15 34.4 89.65 35.95 90.65 37.75 L85.9 31.95 Q80.55 25.95 77.55 24.8 74.6 23.7 76.15 27.4 76.95 29.25 78.3 31.35 L67.55 19.15 Q65.55 16.95 63.2 15.5 60.5 13.85 58.1 13.75 56.65 13.7 58.95 18.0 L61.55 22.35 Q58.55 18.25 55.15 15.25 L47.9 9.7"/><path fill="#ffffff" stroke="none" d="M31.9 45.2 Q33.3 45.05 44.4 45.0 L40.55 45.9 32.95 47.6 Q29.95 48.6 25.95 53.45 23.95 55.9 22.55 58.1 23.3 56.6 23.35 55.2 23.45 52.45 20.15 53.15 16.5 53.9 13.9 58.85 12.6 61.3 12.0 63.6 L12.45 60.8 Q12.65 58.05 11.7 58.35 10.0 58.95 6.4 63.95 4.6 66.45 3.15 68.85 3.35 67.65 3.1 66.95 2.55 65.55 0.1 68.2 L0.1 63.9 Q8.95 53.6 18.25 49.35 26.0 45.85 31.9 45.2"/><path fill="#ffffff" stroke="none" d="M64.45 56.65 L59.8 58.7 Q54.85 60.95 53.45 62.15 L44.85 69.55 Q46.0 67.75 46.6 66.1 47.8 62.8 45.15 63.6 38.95 65.55 33.45 71.15 L26.25 78.45 Q29.65 74.0 30.45 72.35 31.8 69.45 30.35 69.15 28.85 68.85 24.8 71.45 21.3 73.7 15.65 79.95 12.85 83.05 10.7 85.7 12.35 83.15 13.3 80.85 15.25 76.25 11.7 77.4 7.7 78.7 0.95 88.4 0.1 85.6 0.1 82.5 L0.1 81.2 Q12.35 71.2 16.95 69.15 27.05 64.6 46.75 60.15 56.6 57.95 64.45 56.65"/><path fill="#ffffff" stroke="none" d="M18.65 99.65 Q20.5 97.55 21.6 96.6 30.15 89.0 42.4 86.0 48.6 84.45 54.0 84.05 58.15 82.35 49.9 87.45 45.3 88.95 38.9 99.65 L38.65 99.65 Q41.75 92.1 36.85 95.45 33.8 97.55 31.65 99.65 L18.65 99.65"/><path fill="#ffffff" stroke="none" d="M78.55 5.45 Q75.25 4.8 76.3 7.25 76.8 8.5 78.0 9.85 L68.7 0.45 81.25 0.45 Q85.1 2.2 88.3 4.45 93.0 7.7 99.9 14.35 L100.1 17.6 100.1 18.45 Q96.05 13.15 95.75 15.4 95.65 16.5 96.3 18.7 95.45 16.55 93.9 14.3 90.85 9.75 87.6 9.1 86.55 8.9 87.5 11.55 L88.6 14.2 84.95 10.1 Q80.85 5.9 78.55 5.45"/><path fill="#ffffff" stroke="none" d="M89.45 46.85 Q94.85 49.95 100.1 55.0 L100.1 60.0 Q98.0 57.95 97.2 58.45 96.1 59.05 97.3 64.0 L94.85 59.65 Q91.35 54.1 87.15 51.95 82.9 49.75 82.4 52.85 82.15 54.4 82.75 56.4 L79.7 52.4 Q75.8 47.85 71.6 45.1 67.4 42.4 67.7 45.95 67.9 47.75 68.9 50.1 67.6 47.5 64.6 44.25 58.55 37.8 49.9 34.8 L64.5 37.85 Q80.8 41.9 89.45 46.85"/></g></defs><g><g><use transform="matrix(1.0,0.0,0.0,1.0,0.0,0.0)" xlink:href="#c1"/></g></g></svg>