<?xml version='1.0' encoding='UTF-8'?>
<svg xmlns="http://www.w3.org/2000/svg" xmlns:xlink="http://www.w3.org/1999/xlink" version="1.1" width="95px" height="95px" viewBox="3.35 4.1 94.55000000000001 94.60000000000001"><defs><g id="c1"><path fill="#ffffff" stroke="none" d="M65.6 51.3 Q65.6 47.85 64.1 44.75 62.65 41.8 60.1 39.65 65.65 41.65 71.1 45.5 74.9 48.2 77.9 51.25 68.55 60.15 59.45 63.4 62.3 61.3 63.9 58.2 65.6 54.95 65.6 51.3"/><path fill="#ffffff" stroke="none" d="M83.45 49.65 Q79.55 45.05 73.55 40.9 61.75 32.65 49.65 32.65 40.1 32.65 28.4 40.8 22.5 44.95 18.05 49.5 L16.3 51.3 18.05 53.05 21.05 55.95 28.25 61.65 Q40.05 69.8 50.4 70.15 L51.2 70.15 Q61.45 70.15 73.15 61.85 76.9 59.2 80.4 56.0 L83.4 53.05 84.95 51.35 83.45 49.65 M17.25 17.9 L35.85 24.3 Q38.65 22.75 41.95 21.75 L50.7 4.1 59.35 21.8 Q62.5 22.7 65.4 24.3 L84.1 18.0 77.75 36.6 Q79.3 39.55 80.25 42.7 L97.9 51.45 80.25 60.1 Q79.35 63.15 77.75 66.15 L84.1 84.75 65.4 78.5 Q62.8 79.95 59.35 81.0 L50.7 98.7 41.95 81.0 Q38.75 80.1 35.85 78.5 L17.25 84.9 23.55 66.2 Q21.95 63.2 21.0 60.1 L3.35 51.45 21.0 42.7 Q22.0 39.4 23.55 36.6 L17.25 17.9"/><path fill="#ffffff" stroke="none" d="M35.4 51.3 Q35.4 54.6 36.75 57.55 38.1 60.45 40.45 62.55 32.0 59.0 23.6 51.3 32.4 43.2 40.75 39.8 38.25 41.9 36.85 44.85 35.4 47.9 35.4 51.3"/><path fill="#ffffff" stroke="none" d="M50.5 40.35 Q55.05 40.35 58.25 43.55 61.45 46.75 61.45 51.3 61.45 55.85 58.25 59.05 55.05 62.25 50.5 62.25 45.95 62.25 42.75 59.05 39.5 55.85 39.5 51.3 39.5 46.75 42.75 43.55 45.95 40.35 50.5 40.35"/></g></defs><g><g><use transform="matrix(1.0,0.0,0.0,1.0,0.0,0.0)" xlink:href="#c1"/></g></g></svg>