<?xml version='1.0' encoding='UTF-8'?>
<svg xmlns="http://www.w3.org/2000/svg" xmlns:xlink="http://www.w3.org/1999/xlink" version="1.1" width="100px" height="91px" viewBox="0.0 8.85 100.0 90.75"><defs><g id="c1"><path fill="#ffffff" stroke="none" d="M92.25 50.75 Q92.45 50.15 92.2 49.75 L91.8 49.05 Q91.35 49.15 91.2 49.8 L90.8 50.85 89.35 50.5 88.15 50.4 Q88.35 51.5 90.0 51.4 L92.25 50.75 M100.0 47.35 L100.0 52.7 Q98.85 52.35 97.05 51.4 L94.2 50.1 Q93.6 50.15 93.25 50.9 L92.55 52.05 90.4 52.1 88.25 51.65 88.3 53.3 Q87.8 54.15 86.75 54.0 87.1 54.5 86.85 55.2 L86.15 56.05 Q85.5 56.0 85.7 56.5 85.95 57.1 85.45 57.2 84.95 57.7 83.8 57.4 L82.3 57.15 80.65 59.05 Q79.55 60.3 78.5 60.35 77.4 60.35 75.85 59.25 L73.75 57.8 72.4 57.6 70.85 57.35 68.5 56.45 66.65 55.95 Q66.15 56.0 65.55 56.45 L64.45 57.2 63.55 57.3 62.55 57.45 61.9 57.95 61.4 58.35 60.1 58.3 Q59.25 58.2 58.7 58.55 L52.9 56.8 46.6 56.4 Q44.55 54.95 43.5 54.25 41.65 53.0 39.9 52.5 40.3 55.8 38.9 61.35 L38.15 67.25 Q37.75 70.75 36.45 72.35 L35.0 85.45 33.1 99.6 17.25 99.6 Q9.4 99.6 4.6 94.8 0.0 90.3 0.0 82.45 L0.0 25.45 Q12.4 26.55 14.65 25.65 15.05 20.35 16.25 18.25 18.0 15.15 22.2 15.95 23.45 13.1 24.8 11.5 26.5 9.5 28.85 8.85 33.8 9.0 36.55 9.95 39.9 11.1 41.3 13.7 42.4 15.65 42.35 17.5 42.3 18.95 41.45 21.65 L40.9 23.45 40.3 24.85 39.15 25.85 38.05 26.75 Q37.85 28.25 38.0 29.65 L36.0 30.65 Q34.75 31.25 34.25 32.0 35.9 33.2 39.85 34.9 43.1 36.65 43.35 39.5 43.95 39.55 44.4 39.95 L45.15 40.7 46.85 40.85 48.65 41.0 51.1 41.85 53.7 42.7 56.95 43.05 60.05 43.5 61.45 44.15 Q62.35 44.7 62.85 44.8 66.8 45.75 72.2 45.0 72.7 44.85 72.75 45.2 72.8 45.65 72.95 45.7 L76.65 45.45 81.1 45.2 Q81.25 44.55 82.35 43.15 83.35 41.75 83.55 41.05 L85.25 41.45 86.7 41.1 Q88.95 42.85 92.95 44.55 L100.0 47.35"/></g></defs><g><g><use transform="matrix(1.0,0.0,0.0,1.0,0.0,0.0)" xlink:href="#c1"/></g></g></svg>