<?xml version='1.0' encoding='UTF-8'?>
<svg xmlns="http://www.w3.org/2000/svg" xmlns:xlink="http://www.w3.org/1999/xlink" version="1.1" width="70px" height="68px" viewBox="14.95 16.0 70.3 68.0"><defs><g id="c1"><path fill="#ffffff" stroke="none" d="M74.6 43.7 L73.4 43.45 72.35 43.45 Q71.5 44.0 72.8 46.85 73.7 48.9 75.2 49.75 75.8 50.1 76.95 50.3 79.05 50.5 77.1 46.6 76.0 44.4 74.6 43.7 M65.05 42.0 Q63.95 39.75 62.55 39.05 L61.35 38.8 60.3 38.8 Q59.45 39.35 60.75 42.25 61.65 44.3 63.15 45.15 L64.9 45.65 Q65.65 45.8 65.9 45.2 66.2 44.3 65.05 42.0 M58.5 30.85 Q59.25 30.9 59.45 30.35 59.8 29.5 58.65 27.15 57.55 24.95 56.1 24.25 L54.9 24.0 53.85 24.0 Q53.05 24.55 54.35 27.4 55.3 29.45 56.75 30.3 57.35 30.65 58.5 30.85 M68.55 25.0 L70.1 26.2 72.3 28.9 84.1 55.25 Q85.25 57.5 84.45 58.1 L82.35 58.2 71.5 54.35 Q61.9 51.0 59.8 49.4 58.35 48.3 55.45 40.45 L50.5 27.95 46.35 17.8 Q46.2 16.9 46.6 16.35 46.85 16.0 47.35 16.05 L47.8 16.2 68.55 25.0 M67.75 29.2 L66.55 28.95 65.5 28.95 Q64.65 29.5 65.95 32.4 66.9 34.45 68.4 35.3 L70.1 35.8 Q72.2 35.95 70.3 32.15 69.2 29.9 67.75 29.2"/><path fill="#ffffff" stroke="none" d="M46.8 72.1 L47.25 70.95 Q47.65 70.35 47.45 69.9 L44.0 69.75 Q41.8 70.3 40.75 71.65 40.3 72.15 39.9 73.25 39.65 73.95 40.2 74.3 L43.5 74.05 Q45.9 73.35 46.8 72.1 M59.15 75.0 Q59.55 74.4 59.35 73.95 L55.9 73.85 Q52.55 74.65 51.8 77.35 51.55 78.05 52.05 78.35 L55.35 78.15 Q57.75 77.45 58.7 76.15 L59.15 75.0 M72.75 64.2 Q73.15 63.6 72.95 63.15 L69.45 63.0 Q66.1 63.85 65.4 66.5 65.15 67.2 65.65 67.55 L68.95 67.3 Q71.35 66.6 72.3 65.3 L72.75 64.2 M60.3 66.65 L56.85 66.5 Q54.65 67.05 53.6 68.4 53.15 68.9 52.75 70.0 52.2 72.05 56.35 70.8 58.75 70.1 59.65 68.8 L60.1 67.7 Q60.5 67.1 60.3 66.65 M61.1 59.85 Q61.5 59.25 61.3 58.8 L57.85 58.7 Q54.5 59.5 53.75 62.2 53.5 62.9 54.05 63.25 L57.3 63.0 Q59.7 62.3 60.65 61.0 L61.1 59.85 M81.25 60.0 L82.25 60.85 Q82.65 61.6 82.4 62.65 L57.35 82.6 Q56.3 83.7 53.1 84.0 L49.9 83.5 30.5 77.0 Q29.75 76.55 29.75 75.5 29.75 74.85 30.35 74.0 L30.95 73.3 55.45 53.6 56.35 53.1 58.1 52.3 60.8 52.4 62.65 52.7 80.55 59.65 81.25 60.0"/><path fill="#ffffff" stroke="none" d="M30.65 56.15 Q30.25 55.25 29.6 55.15 28.3 54.9 27.1 58.85 26.2 61.7 26.95 63.85 L28.25 66.0 Q28.9 66.8 29.65 66.45 30.8 65.95 31.65 62.7 32.5 59.5 31.65 57.5 L30.65 56.15 M39.5 33.45 Q40.65 32.95 41.5 29.7 42.35 26.55 41.5 24.55 L40.5 23.2 Q40.1 22.3 39.45 22.15 38.15 21.9 36.9 25.85 36.05 28.7 36.8 30.85 L38.1 33.0 Q38.75 33.8 39.5 33.45 M41.4 17.3 Q41.9 17.45 42.3 18.3 L50.3 36.1 Q56.1 49.25 55.8 50.45 55.5 51.8 45.35 59.75 L33.25 69.1 Q30.75 71.1 29.25 71.75 27.25 72.6 26.4 71.3 24.6 68.45 20.25 57.25 L15.85 45.4 Q14.95 43.1 15.3 40.8 15.65 38.6 16.9 37.4 L26.65 28.85 Q35.65 21.15 39.7 18.05 L40.5 17.45 41.4 17.3"/></g></defs><g><g><use transform="matrix(1.0,0.0,0.0,1.0,0.0,0.0)" xlink:href="#c1"/></g></g></svg>