<?xml version='1.0' encoding='UTF-8'?>
<svg xmlns="http://www.w3.org/2000/svg" xmlns:xlink="http://www.w3.org/1999/xlink" version="1.1" width="100px" height="86px" viewBox="0.0 11.45 99.9 85.75"><defs><g id="c1"><path fill="#ffffff" stroke="none" d="M40.35 82.6 Q40.15 83.95 41.45 84.4 42.8 84.85 44.1 83.65 L45.15 82.35 Q42.7 81.95 40.8 81.35 L40.85 81.4 40.35 82.6 M56.3 76.85 L55.9 75.65 54.35 74.95 55.3 71.7 51.9 75.2 48.85 76.7 48.25 79.45 51.85 79.6 Q55.6 79.55 56.35 78.5 56.65 78.15 56.3 76.85 M53.95 56.25 L52.6 54.45 51.65 53.6 49.95 55.3 46.4 58.15 44.2 59.85 Q43.8 60.65 44.45 63.45 L45.45 67.9 Q45.55 69.5 44.0 70.6 42.2 71.95 41.0 73.75 39.7 75.55 40.15 76.4 40.6 77.2 42.9 78.0 45.2 78.8 45.35 78.3 45.7 77.3 48.4 75.45 51.1 73.6 51.3 72.7 51.6 71.55 52.55 70.9 L53.95 70.0 Q54.5 69.45 54.7 63.7 54.85 57.7 53.95 56.25 M61.35 54.8 Q60.75 53.7 59.2 53.7 57.6 53.65 57.7 54.8 L57.8 55.45 57.7 57.85 Q57.5 59.0 56.85 59.95 56.35 60.6 56.6 61.05 56.9 61.5 56.9 64.9 56.9 68.25 57.15 68.5 L57.8 69.45 58.15 73.15 58.05 76.85 Q58.0 77.5 58.5 77.55 59.3 77.6 62.25 76.1 65.5 74.4 67.55 72.7 69.45 71.15 73.3 65.4 L76.8 59.95 72.9 60.2 69.55 57.75 Q69.35 56.85 67.45 56.5 L63.95 56.05 Q61.8 55.65 61.35 54.8 M52.5 52.0 L55.25 53.05 58.15 52.35 55.25 49.5 52.5 52.0 M35.75 31.65 L32.95 31.75 Q31.05 31.6 30.4 30.95 L32.55 33.4 33.1 36.3 34.05 36.55 35.75 37.2 38.15 39.05 Q39.8 40.55 40.1 41.5 40.5 42.75 41.65 44.45 42.95 46.4 43.75 46.65 44.25 46.8 45.3 48.3 46.25 49.6 47.05 49.45 48.4 49.25 48.75 48.15 49.2 46.7 47.7 43.9 46.35 41.35 46.25 40.3 L46.4 39.75 Q44.6 37.3 42.85 36.6 41.95 36.25 41.75 35.4 41.55 34.55 40.7 34.15 L38.2 32.55 Q36.65 31.55 35.75 31.65 M33.65 39.3 Q33.65 38.85 32.45 38.25 31.1 37.6 30.9 36.6 30.55 34.9 29.35 33.1 L28.25 31.65 24.5 36.6 Q23.1 38.6 21.9 42.7 20.45 47.85 21.05 51.85 21.65 56.05 23.2 59.55 24.4 62.15 27.0 66.15 29.35 69.65 35.7 74.05 L35.75 73.2 Q35.95 72.25 36.75 71.7 L39.2 70.05 Q40.6 68.85 40.4 67.35 L39.7 63.75 39.25 61.9 39.55 59.9 Q40.0 57.7 41.0 57.0 L44.3 54.1 46.4 52.05 Q43.15 49.95 42.4 48.3 41.65 46.75 37.9 43.25 33.5 41.5 33.65 39.3 M25.85 26.1 Q24.7 26.15 25.0 26.65 25.8 27.8 23.8 29.4 21.1 31.5 20.95 31.8 20.65 32.35 22.25 33.6 24.85 29.35 28.4 26.15 L25.85 26.1 M83.45 53.2 L82.45 52.75 82.0 56.35 Q82.35 56.4 83.7 59.4 85.15 61.85 86.35 59.6 87.75 56.95 86.7 55.2 85.8 53.65 83.45 53.2 M76.05 38.15 L72.15 31.7 70.45 29.25 Q70.55 30.5 69.05 31.8 67.45 33.1 67.45 33.7 L66.55 36.45 Q65.7 38.5 65.7 39.6 65.7 40.75 63.85 41.25 60.9 42.15 60.2 42.55 L57.55 43.8 Q56.55 44.15 56.1 44.9 55.65 45.6 56.7 46.1 58.05 46.7 58.3 47.25 58.65 48.05 59.4 48.0 L62.1 47.85 Q63.95 47.9 66.5 49.65 68.9 51.2 69.25 52.2 69.65 53.35 72.15 54.2 L74.6 54.15 Q77.15 54.25 77.6 54.95 78.5 56.4 78.4 49.45 78.35 42.45 76.05 38.15 M68.7 21.95 Q68.2 20.5 67.05 21.05 L65.95 21.9 69.55 24.25 68.7 21.95 M68.15 28.5 Q68.15 26.2 62.3 24.05 57.35 22.25 50.95 21.35 46.25 20.7 40.65 23.0 34.75 25.4 36.85 25.4 L37.8 25.25 38.9 26.05 Q39.65 26.65 39.7 27.25 39.7 27.6 40.8 27.85 42.85 28.3 43.6 29.55 L43.3 30.55 Q43.35 31.75 44.8 32.65 46.2 33.5 46.6 34.8 46.9 35.9 47.1 35.9 47.65 35.9 48.75 36.55 49.9 37.15 50.1 37.6 50.25 37.9 49.8 39.55 49.7 41.05 51.45 41.2 53.2 41.35 53.7 42.95 L53.8 44.55 Q54.05 43.7 54.55 42.8 55.45 41.05 56.45 41.0 L59.15 41.25 Q60.7 41.3 60.75 40.4 60.8 39.5 62.05 39.0 L63.9 38.35 Q64.45 38.05 64.85 36.55 L65.45 33.4 Q65.6 32.45 66.95 31.35 68.15 30.35 68.15 28.5 M97.9 12.75 L99.4 11.45 Q99.9 13.8 99.9 16.95 L99.9 21.4 Q99.35 22.2 98.25 22.2 L93.9 22.75 Q91.5 23.1 91.2 22.15 90.85 19.15 90.1 17.4 88.75 14.1 85.35 15.25 84.05 15.7 84.25 18.2 84.45 21.5 83.6 23.2 82.4 25.6 80.65 25.9 79.55 26.05 77.35 25.25 76.0 24.8 77.1 29.55 77.65 31.95 78.5 34.45 L78.4 34.3 Q82.2 41.1 82.55 48.75 L86.05 49.05 Q88.95 49.95 88.8 53.05 88.75 54.9 89.8 59.0 90.25 62.3 87.6 62.65 86.65 62.8 83.8 65.1 81.95 66.55 79.35 64.45 L79.35 64.4 Q77.45 68.3 74.55 71.65 70.25 80.95 72.2 80.65 74.5 80.25 75.55 80.6 77.25 81.15 78.0 83.7 78.55 85.55 77.75 88.75 77.2 91.2 78.35 91.8 81.55 93.55 83.45 90.55 L85.35 86.05 88.1 85.9 92.3 87.2 Q93.8 87.4 94.2 89.6 L95.1 94.2 Q93.35 95.95 90.95 97.2 L90.35 96.45 Q89.8 95.9 90.35 93.75 90.95 91.65 90.35 91.05 89.65 90.35 88.45 90.6 L86.5 91.05 Q85.8 91.05 83.35 93.2 L81.1 95.3 Q77.6 93.75 74.9 93.75 73.2 93.75 73.7 91.25 L74.5 88.75 74.9 83.7 69.5 85.65 Q68.65 85.35 67.9 84.9 66.45 83.9 67.2 82.95 68.1 81.7 65.8 78.65 58.55 82.7 50.1 82.7 L48.25 82.65 48.6 82.95 Q47.55 86.75 43.75 87.6 L40.15 87.4 Q39.0 86.9 37.85 87.6 36.0 88.65 34.4 86.4 32.8 84.2 34.45 82.7 35.9 81.5 36.2 80.45 L36.25 79.65 36.45 79.7 Q33.25 78.15 30.5 76.1 28.45 76.3 27.95 77.5 27.6 78.25 27.65 80.5 27.7 81.95 25.85 82.9 25.2 83.25 21.1 85.75 18.5 87.35 17.75 87.15 16.05 86.2 14.5 85.95 11.55 85.5 8.1 88.0 6.8 88.95 8.05 89.8 9.65 90.95 9.4 92.15 8.95 94.2 6.1 95.5 L4.5 94.15 4.45 94.1 5.65 93.8 4.15 91.55 Q3.2 91.25 2.6 90.75 1.45 89.8 3.5 88.9 6.75 87.5 10.65 84.9 16.65 84.7 18.05 84.1 L20.45 83.25 Q22.0 82.75 22.7 82.05 23.3 81.45 22.15 80.75 21.0 80.0 21.55 79.4 L23.05 77.6 Q23.95 76.55 25.1 76.05 26.6 75.4 29.1 75.0 24.55 71.1 21.65 65.85 18.7 60.45 17.9 54.3 16.85 52.25 14.95 51.95 12.6 51.55 11.95 50.9 11.2 50.15 10.25 46.6 9.55 44.2 8.5 45.5 7.4 46.8 6.5 46.9 L3.1 47.4 Q1.4 47.9 0.7 44.45 L0.0 37.75 1.45 40.25 Q3.4 42.65 5.8 42.4 L9.35 41.3 Q10.3 40.95 11.2 42.8 11.7 43.8 12.25 46.2 12.6 47.55 13.9 48.2 15.8 49.15 18.45 43.15 19.15 39.75 20.75 36.45 19.3 35.6 19.0 32.45 18.75 29.3 20.3 28.9 22.15 28.45 22.4 27.45 22.45 26.05 22.9 24.95 23.45 23.65 27.35 23.4 L31.15 23.45 31.7 23.55 Q40.1 17.8 50.1 17.8 56.9 17.8 63.1 20.55 L62.9 20.45 65.15 19.4 Q67.8 18.5 70.1 18.95 71.9 19.3 72.25 21.55 72.55 23.05 72.15 25.15 73.4 23.35 72.8 22.1 72.25 21.05 73.85 20.35 L75.55 19.85 80.55 22.65 81.0 17.65 Q80.65 16.3 80.6 15.05 80.55 12.45 82.25 12.75 L88.6 12.3 90.45 14.8 Q92.5 17.3 93.2 17.4 93.8 17.5 95.05 18.15 L97.0 18.05 Q97.7 17.55 97.45 15.4 97.25 13.2 97.9 12.75"/></g></defs><g><g><use transform="matrix(1.0,0.0,0.0,1.0,0.0,0.0)" xlink:href="#c1"/></g></g></svg>