<?xml version='1.0' encoding='UTF-8'?>
<svg xmlns="http://www.w3.org/2000/svg" xmlns:xlink="http://www.w3.org/1999/xlink" version="1.1" width="91px" height="94px" viewBox="2.75 5.3 90.6 94.3"><defs><g id="c1"><path fill="#ffffff" stroke="none" d="M36.5 42.4 Q37.9 39.45 40.4 37.35 31.95 40.75 23.3 48.85 31.65 56.5 40.15 60.1 37.75 57.95 36.45 55.1 35.05 52.1 35.05 48.85 35.05 45.45 36.5 42.4 M50.85 67.7 L50.05 67.65 Q39.7 67.35 27.95 59.2 L20.7 53.5 17.7 50.6 16.0 48.8 17.7 47.05 Q22.15 42.5 28.1 38.35 39.8 30.15 49.35 30.15 61.45 30.15 73.25 38.4 79.2 42.55 83.15 47.15 L84.6 48.9 83.1 50.6 80.1 53.55 72.85 59.4 Q61.1 67.7 50.85 67.7 M50.15 37.85 Q45.6 37.85 42.4 41.1 39.2 44.3 39.2 48.85 39.2 53.4 42.4 56.6 45.6 59.8 50.15 59.8 54.7 59.8 57.9 56.6 61.15 53.4 61.15 48.85 61.15 44.3 57.9 41.1 54.7 37.85 50.15 37.85 M63.75 42.3 Q65.25 45.4 65.25 48.85 65.25 52.5 63.6 55.75 62.0 58.85 59.15 60.95 68.35 57.6 77.6 48.8 69.45 40.65 59.8 37.2 62.35 39.35 63.75 42.3"/><path fill="#ffffff" fill-opacity="0.8" d="M74.75 12.45 Q80.05 16.0 84.05 20.95 87.95 25.8 90.35 31.85 91.5 34.9 92.15 37.9 92.85 41.15 93.0 44.2 93.35 50.7 91.15 56.95 89.0 63.2 84.75 68.0 80.6 72.8 74.75 75.85 68.8 78.8 62.55 79.3 56.05 79.85 49.85 77.3 43.7 74.75 39.65 69.8 L52.55 70.4 Q57.0 72.0 61.7 71.35 66.45 70.7 70.65 68.25 74.85 65.85 77.8 62.15 L84.0 55.2 Q87.15 51.15 86.85 47.3 86.8 46.5 84.8 43.7 82.7 40.8 82.55 40.1 81.8 37.25 81.05 35.55 79.25 31.05 76.15 27.35 73.15 23.65 69.1 20.95 65.05 18.25 60.45 16.95 55.8 15.6 51.0 15.65 46.6 15.7 41.35 17.2 31.9 19.8 24.35 26.95 16.85 33.9 13.6 43.55 10.25 53.2 11.7 63.45 13.05 73.45 19.25 83.35 25.2 92.8 33.85 99.6 L25.5 99.6 Q20.75 96.45 18.3 93.95 16.05 91.6 12.7 86.6 6.25 77.0 3.8 64.8 L3.0 58.8 Q2.75 55.6 2.9 52.75 3.2 46.8 5.05 40.75 8.75 28.8 17.55 20.0 26.3 11.2 38.5 7.45 41.3 6.6 44.5 6.05 L50.8 5.45 Q57.2 5.3 63.3 7.1 69.4 8.85 74.75 12.45"/></g></defs><g><g><use transform="matrix(1.0,0.0,0.0,1.0,0.0,0.0)" xlink:href="#c1"/></g></g></svg>