<?xml version='1.0' encoding='UTF-8'?>
<svg xmlns="http://www.w3.org/2000/svg" xmlns:xlink="http://www.w3.org/1999/xlink" version="1.1" width="87px" height="66px" viewBox="0.0 20.75 86.7 66.15"><defs><g id="c1"><path fill="#ffffff" stroke="none" d="M62.3 33.95 Q60.45 39.0 62.1 44.9 63.8 50.85 67.95 54.2 72.1 57.55 76.35 56.4 80.6 55.2 82.4 50.15 84.25 45.15 82.6 39.2 80.95 33.3 76.75 29.9 72.6 26.55 68.35 27.7 64.1 28.9 62.3 33.95 M41.7 32.85 L45.15 32.25 Q49.15 32.0 52.15 33.7 53.25 34.5 50.45 25.7 L0.0 41.3 0.0 38.8 53.6 20.75 57.6 23.5 60.65 31.25 Q61.1 27.65 66.0 25.35 L67.55 24.8 Q72.65 23.35 77.7 27.4 82.7 31.45 84.7 38.6 86.7 45.75 84.5 51.85 82.3 57.95 77.2 59.35 74.95 60.0 72.3 59.4 L59.4 64.25 Q56.75 69.05 52.15 70.3 L0.45 86.9 Q0.0 84.8 0.0 82.45 L0.0 60.1 Q6.7 58.55 9.65 58.5 16.85 58.5 20.5 59.85 21.55 60.2 25.4 63.3 29.55 66.65 30.2 67.0 33.55 68.85 36.9 68.2 L33.95 66.0 Q27.7 61.05 26.5 52.0 25.9 47.45 26.55 43.5 23.25 44.85 0.0 51.6 L0.0 46.3 41.7 32.85 M42.5 35.8 Q37.65 37.15 35.5 42.75 33.35 48.35 35.2 54.85 37.05 61.4 41.75 65.1 46.5 68.75 51.35 67.4 56.2 66.0 58.35 60.45 60.5 54.85 58.65 48.3 56.8 41.75 52.1 38.1 47.35 34.45 42.5 35.8"/></g></defs><g><g><use transform="matrix(1.0,0.0,0.0,1.0,0.0,0.0)" xlink:href="#c1"/></g></g></svg>