<?xml version='1.0' encoding='UTF-8'?>
<svg xmlns="http://www.w3.org/2000/svg" xmlns:xlink="http://www.w3.org/1999/xlink" version="1.1" width="76px" height="76px" viewBox="12.2 12.2 75.64999999999999 75.6"><defs><g id="c1"><path fill="#ffffff" stroke="none" d="M26.1 26.05 Q16.15 36.0 16.15 50.0 16.15 64.0 26.1 73.9 36.05 83.85 50.05 83.85 64.05 83.85 73.95 73.9 83.9 64.0 83.9 50.0 83.9 36.0 73.95 26.05 64.05 16.15 50.05 16.15 36.0 16.15 26.1 26.05 M50.05 12.2 Q65.7 12.2 76.75 23.3 87.85 34.35 87.85 50.0 87.85 65.65 76.75 76.7 65.7 87.8 50.05 87.8 34.4 87.8 23.3 76.7 12.2 65.65 12.2 50.0 12.2 34.35 23.3 23.3 34.4 12.2 50.05 12.2"/><path fill="#ffffff" stroke="none" d="M25.4 38.65 Q28.25 32.1 33.4 27.4 46.45 15.65 62.75 24.45 60.85 23.5 56.85 23.2 51.35 22.85 46.45 24.55 32.05 29.6 29.5 50.0 L33.7 50.0 26.8 60.15 19.45 50.0 23.4 50.0 Q22.7 45.0 25.4 38.65"/><path fill="#ffffff" stroke="none" d="M37.35 75.55 Q39.2 76.45 43.2 76.8 48.7 77.15 53.6 75.45 68.05 70.4 70.6 50.0 L66.4 50.0 73.25 39.85 80.6 50.0 76.65 50.0 Q77.35 55.05 74.65 61.35 71.85 67.9 66.65 72.6 53.65 84.35 37.35 75.55"/><path fill="#ffffff" stroke="none" d="M60.7 32.7 Q62.25 34.25 62.25 36.5 62.25 38.7 60.7 40.3 59.1 41.9 56.85 41.9 54.6 41.9 53.05 40.3 51.45 38.7 51.45 36.5 51.45 34.25 53.05 32.7 54.6 31.1 56.85 31.1 59.1 31.1 60.7 32.7"/><path fill="#ffffff" stroke="none" d="M47.65 39.85 Q49.25 41.4 49.25 43.65 49.25 45.85 47.65 47.45 46.05 49.05 43.85 49.05 41.6 49.05 40.05 47.45 38.45 45.85 38.45 43.65 38.45 41.4 40.05 39.85 41.6 38.25 43.85 38.25 46.05 38.25 47.65 39.85"/><path fill="#ffffff" stroke="none" d="M60.7 49.95 Q62.25 51.5 62.25 53.75 62.25 55.95 60.7 57.55 59.1 59.15 56.85 59.15 54.6 59.15 53.05 57.55 51.45 55.95 51.45 53.75 51.45 51.5 53.05 49.95 54.6 48.35 56.85 48.35 59.1 48.35 60.7 49.95"/><path fill="#ffffff" stroke="none" d="M49.5 62.45 Q49.5 64.7 47.95 66.3 46.35 67.85 44.1 67.85 41.9 67.85 40.3 66.3 38.7 64.7 38.7 62.45 38.7 60.2 40.3 58.65 41.9 57.05 44.1 57.05 46.35 57.05 47.95 58.65 49.5 60.2 49.5 62.45"/></g></defs><g><g><use transform="matrix(1.0,0.0,0.0,1.0,0.0,0.0)" xlink:href="#c1"/></g></g></svg>