<?xml version='1.0' encoding='UTF-8'?>
<svg xmlns="http://www.w3.org/2000/svg" xmlns:xlink="http://www.w3.org/1999/xlink" version="1.1" width="100px" height="95px" viewBox="0.0 5.05 100.0 94.95"><defs><g id="c1"><path fill="#ffffff" stroke="none" d="M41.8 83.25 L49.5 86.8 36.3 100.0 25.1 100.0 41.8 83.25 12.25 69.85 29.05 68.45 0.0 45.95 0.0 45.3 31.35 56.8 12.7 35.8 36.5 40.95 8.2 7.85 42.1 28.35 33.2 5.05 57.95 28.8 57.45 17.15 70.55 29.75 71.0 5.95 100.0 75.9 100.0 82.8 Q100.0 90.6 95.15 95.2 90.5 100.0 82.7 100.0 L78.55 100.0 49.5 86.8 50.95 85.35 57.3 79.8 64.15 74.1 65.85 73.9 75.6 82.3 86.3 71.6 Q86.0 70.7 77.9 61.35 L77.9 59.8 77.4 59.3 77.95 58.75 Q78.4 58.25 75.45 55.2 72.35 52.2 71.85 52.7 L71.35 53.25 70.8 52.7 69.25 52.7 Q59.9 44.65 59.0 44.35 L48.3 55.05 56.7 64.75 56.5 66.5 45.35 79.7 41.8 83.25 M63.5 65.05 Q64.1 65.05 64.55 65.45 65.0 65.9 65.0 66.5 65.0 67.15 64.55 67.55 64.1 68.0 63.5 68.0 62.85 68.0 62.45 67.55 62.0 67.15 62.0 66.5 62.0 65.9 62.45 65.45 62.85 65.05 63.5 65.05 M70.85 60.6 Q70.85 61.25 70.45 61.65 70.0 62.1 69.4 62.1 68.75 62.1 68.35 61.65 67.9 61.25 67.9 60.6 67.9 60.0 68.35 59.55 68.75 59.15 69.4 59.15 70.0 59.15 70.45 59.55 70.85 60.0 70.85 60.6"/></g></defs><g><g><use transform="matrix(1.0,0.0,0.0,1.0,0.0,0.0)" xlink:href="#c1"/></g></g></svg>