<?xml version='1.0' encoding='UTF-8'?>
<svg xmlns="http://www.w3.org/2000/svg" xmlns:xlink="http://www.w3.org/1999/xlink" version="1.1" width="83px" height="65px" viewBox="10.4 15.5 83.44999999999999 64.9"><defs><g id="c1"><path fill="#ffffff" stroke="none" d="M76.6 50.3 L76.6 57.95 55.2 60.05 55.2 50.45 76.6 50.3 M40.05 77.25 L40.05 67.15 65.1 64.5 65.0 72.55 45.8 76.15 40.05 77.25 M11.5 50.5 L18.4 50.5 18.4 63.0 11.65 61.65 11.5 50.5 M11.6 67.15 L18.5 68.6 18.55 80.0 11.7 77.25 11.65 74.0 11.6 67.15 M23.35 68.9 L34.7 67.65 34.65 78.25 23.5 80.4 23.35 68.9 M23.45 63.15 L23.4 61.0 23.4 50.7 50.05 50.5 50.05 60.55 23.45 63.15 M23.25 33.35 L34.5 34.3 34.65 45.05 23.3 45.0 23.25 33.35 M11.4 19.1 L18.2 16.3 18.3 27.75 11.4 29.1 11.4 19.1 M49.8 20.3 L49.8 30.1 23.3 27.65 23.15 15.5 49.8 20.3 M65.05 39.4 L65.05 45.15 40.1 45.05 Q39.95 41.75 39.95 34.75 L65.05 36.9 65.05 39.4 M55.0 30.6 L55.05 26.85 55.1 21.25 77.15 25.2 77.15 32.7 68.65 31.95 55.0 30.6 M91.05 61.75 L93.6 61.5 93.6 67.05 91.1 67.55 91.05 61.75 M86.35 62.25 L86.25 68.5 70.0 71.55 70.0 64.0 86.35 62.25 M93.75 50.15 L93.6 56.35 81.45 57.55 81.45 50.25 93.75 50.15 M86.4 38.8 L86.3 45.1 70.15 45.1 70.15 37.4 70.8 37.45 86.4 38.8 M91.1 45.1 L91.1 39.15 93.8 39.4 93.7 45.1 91.1 45.1 M93.85 28.2 L93.85 34.25 81.95 33.15 81.95 26.1 93.85 28.2"/><path fill="#ffffff" stroke="none" d="M19.25 32.3 L19.35 39.95 19.4 46.25 10.45 46.25 10.45 42.1 10.4 34.05 19.25 32.3"/></g></defs><g><g><use transform="matrix(1.0,0.0,0.0,1.0,0.0,0.0)" xlink:href="#c1"/></g></g></svg>