<?xml version='1.0' encoding='UTF-8'?>
<svg xmlns="http://www.w3.org/2000/svg" xmlns:xlink="http://www.w3.org/1999/xlink" version="1.1" width="83px" height="89px" viewBox="11.2 6.75 82.89999999999999 88.85"><defs><g id="c1"><path fill="#ffffff" stroke="none" d="M58.35 10.1 Q54.2 14.75 53.75 15.7 52.8 17.75 53.65 18.3 L54.75 18.45 46.5 28.8 47.55 26.15 Q48.0 23.85 44.7 25.75 41.1 27.85 40.6 31.2 40.4 32.85 40.85 34.1 L38.15 34.55 Q35.25 35.1 34.35 35.8 32.75 37.0 33.0 39.7 33.15 41.0 33.6 42.1 32.95 41.0 31.45 40.95 28.5 40.9 24.35 46.1 23.25 47.5 18.85 49.35 L24.35 39.75 23.75 37.95 Q26.7 36.25 32.8 30.95 35.6 28.5 35.45 26.65 L34.75 25.25 Q38.2 24.85 39.35 25.2 L44.95 18.3 Q46.8 16.1 45.75 15.65 L44.35 15.65 47.5 14.6 Q50.65 13.3 50.95 11.9 51.0 11.6 50.5 11.15 L50.05 10.75 53.0 11.2 Q56.9 10.85 61.35 6.75 L58.35 10.1"/><path fill="#ffffff" stroke="none" d="M73.6 32.85 Q72.65 34.4 72.1 38.65 L62.95 41.45 60.7 43.3 Q57.8 45.95 54.4 50.2 51.0 54.45 48.85 58.45 L47.4 61.6 Q47.55 60.95 46.85 60.85 45.55 60.65 41.65 63.55 37.8 66.45 34.2 70.85 L31.4 74.7 Q31.8 73.85 31.15 73.85 29.9 73.8 24.75 77.95 16.5 84.6 11.2 89.85 L14.1 85.1 Q17.3 79.25 18.65 73.9 L18.65 73.15 22.9 72.75 Q28.15 71.2 33.25 65.6 38.45 59.95 39.55 56.2 L39.65 53.05 40.6 53.05 Q42.6 52.75 46.95 49.65 51.4 46.45 54.0 40.45 L55.65 35.1 61.55 33.0 63.25 26.15 66.45 26.85 Q70.35 26.95 74.15 23.65 77.95 20.35 78.2 18.05 L77.7 16.4 94.1 7.75 87.5 20.1 85.55 20.05 Q82.9 20.95 79.2 25.65 L73.6 32.85"/><path fill="#ffffff" stroke="none" d="M71.95 59.25 Q74.85 58.1 77.95 55.8 L80.45 53.75 Q75.0 59.05 74.05 64.15 73.6 66.75 74.2 68.25 L71.6 68.1 Q68.5 68.65 65.85 72.3 63.15 75.9 63.75 77.15 64.05 77.75 64.9 77.65 L61.35 79.95 Q57.2 82.9 54.4 86.05 51.75 89.05 51.2 91.5 L50.8 92.8 Q47.8 90.15 44.8 92.6 43.3 93.85 42.4 95.6 L43.85 92.1 Q44.75 90.0 44.3 87.5 43.7 85.45 43.85 85.3 L47.4 84.6 Q50.9 83.6 52.0 81.3 53.05 79.0 52.95 77.5 L52.65 76.4 56.6 75.3 Q60.75 73.9 61.85 72.3 62.8 70.85 62.45 67.15 L62.3 65.55 Q62.3 65.2 62.75 66.2 63.65 68.2 65.35 66.7 66.75 65.45 67.95 62.65 68.8 60.7 68.25 60.45 L67.55 60.6 71.95 59.25"/></g></defs><g><g><use transform="matrix(1.0,0.0,0.0,1.0,0.0,0.0)" xlink:href="#c1"/></g></g></svg>