<?xml version='1.0' encoding='UTF-8'?>
<svg xmlns="http://www.w3.org/2000/svg" xmlns:xlink="http://www.w3.org/1999/xlink" version="1.1" width="93px" height="86px" viewBox="2.1 6.85 93.30000000000001 85.7"><defs><g id="c1"><path fill="#ffffff" stroke="none" d="M16.2 38.05 Q16.65 38.55 15.95 38.8 15.1 38.95 12.15 40.0 9.85 40.85 8.3 40.75 12.4 38.45 16.2 38.05"/><path fill="#ffffff" stroke="none" d="M17.9 44.35 Q16.7 45.35 14.9 45.65 L11.75 45.85 7.0 47.3 2.1 48.0 Q3.2 46.9 5.3 46.1 L9.05 44.9 Q10.6 44.45 12.9 44.1 L16.65 43.5 17.0 43.45 17.35 43.4 17.9 44.35"/><path fill="#ffffff" stroke="none" d="M43.8 38.3 L42.85 39.35 41.85 40.25 31.55 42.1 21.25 44.25 Q20.95 44.2 20.85 44.7 20.75 45.25 20.35 45.15 19.35 44.05 18.95 41.45 L18.35 37.1 18.4 37.1 18.4 36.9 18.35 36.65 18.35 36.55 Q18.35 36.1 18.85 36.1 19.35 36.05 19.35 36.5 L19.45 36.85 Q23.45 35.8 30.35 34.5 L41.25 32.3 42.25 32.85 43.2 33.05 Q49.2 31.85 57.5 32.0 L57.6 32.1 57.7 32.1 58.0 32.25 58.35 32.65 Q58.4 33.0 58.15 33.15 L57.3 33.65 56.3 34.25 56.05 34.35 53.7 35.4 51.25 36.2 Q47.5 37.6 43.8 38.3 M40.6 35.05 L40.4 35.05 40.3 35.0 40.0 35.05 Q36.5 35.15 30.9 36.65 L21.9 38.8 21.8 38.8 21.2 39.1 Q20.7 39.5 21.15 39.95 21.55 40.45 22.0 40.05 L22.1 40.05 24.0 39.65 30.25 38.05 32.8 37.4 37.1 36.55 40.5 36.3 Q41.1 36.3 41.15 35.7 41.2 35.05 40.6 35.05"/><path fill="#ffffff" stroke="none" d="M53.1 46.95 Q53.4 47.55 52.7 47.65 L48.75 47.95 44.75 47.85 Q49.35 46.55 53.1 46.95"/><path fill="#ffffff" stroke="none" d="M53.35 53.5 Q51.95 54.2 50.15 54.05 L47.0 53.55 42.05 53.95 37.15 53.5 Q38.45 52.7 40.7 52.4 L44.6 52.05 48.55 52.1 52.35 52.4 52.7 52.45 53.05 52.4 53.35 53.5"/><path fill="#ffffff" stroke="none" d="M56.55 46.15 L56.5 46.5 Q60.55 46.4 67.65 46.65 L78.8 46.95 79.65 47.7 80.5 48.1 Q86.35 48.2 94.7 50.25 L94.8 50.4 94.85 50.45 95.1 50.65 Q95.4 50.8 95.35 51.1 L95.1 51.55 94.1 51.85 93.0 52.2 92.75 52.2 90.25 52.7 87.7 52.95 79.95 53.35 78.8 54.15 77.6 54.85 67.15 54.35 56.65 54.15 Q56.35 54.05 56.15 54.5 55.95 55.0 55.55 54.8 54.8 53.55 55.05 50.85 L55.4 46.5 55.45 46.5 55.5 46.3 55.5 45.95 Q55.6 45.55 56.1 45.6 56.65 45.7 56.55 46.15 M66.8 50.1 L67.65 50.05 69.4 50.0 73.8 50.15 77.2 50.65 Q77.75 50.8 77.95 50.2 78.15 49.6 77.55 49.5 L77.35 49.45 77.3 49.35 76.95 49.35 67.75 48.85 Q60.65 49.1 58.5 48.95 L58.4 48.95 Q58.0 48.95 57.75 49.1 57.2 49.35 57.5 49.95 57.75 50.5 58.3 50.2 L58.25 50.25 60.3 50.25 60.35 50.25 66.8 50.1"/><path fill="#ffffff" stroke="none" d="M40.9 14.2 Q41.35 14.7 40.7 14.95 39.75 15.15 36.9 16.25 34.6 17.2 33.05 17.15 37.2 14.7 40.9 14.2"/><path fill="#ffffff" stroke="none" d="M42.8 20.45 Q41.6 21.45 39.85 21.8 L36.65 22.15 31.95 23.75 27.1 24.55 Q28.2 23.45 30.25 22.6 L33.95 21.3 41.55 19.65 41.9 19.6 42.2 19.5 42.8 20.45"/><path fill="#ffffff" stroke="none" d="M66.75 8.2 L67.7 8.35 Q73.6 6.95 81.95 6.85 L82.1 6.95 82.15 6.95 82.5 7.1 82.85 7.5 82.7 8.0 80.85 9.15 80.6 9.25 78.3 10.35 75.9 11.25 Q71.55 12.95 68.5 13.55 L67.55 14.65 66.6 15.6 Q62.8 16.1 56.35 17.8 L46.15 20.25 Q45.85 20.2 45.8 20.7 45.7 21.25 45.3 21.15 44.25 20.1 43.75 17.5 L43.0 13.2 43.1 13.15 43.0 12.75 43.0 12.6 Q42.95 12.15 43.45 12.1 43.95 12.1 44.0 12.5 L44.1 12.85 Q48.05 11.75 54.9 10.2 L65.75 7.7 Q66.2 8.05 66.75 8.2 M54.95 13.75 L57.45 13.0 61.75 12.05 65.15 11.7 Q65.75 11.65 65.8 11.05 65.8 10.4 65.2 10.45 L65.0 10.45 64.9 10.4 64.6 10.45 Q61.05 10.65 55.55 12.3 L46.65 14.75 46.5 14.8 Q46.1 14.9 45.9 15.1 45.45 15.5 45.9 15.95 L46.75 16.0 46.7 16.05 46.85 16.0 48.7 15.55 48.75 15.55 54.95 13.75"/><path fill="#ffffff" stroke="none" d="M40.9 85.6 Q37.25 85.15 33.05 82.7 34.6 82.65 36.9 83.55 L40.7 84.8 Q41.4 85.05 40.9 85.6"/><path fill="#ffffff" stroke="none" d="M30.2 77.3 Q28.15 76.4 27.05 75.3 30.4 75.4 36.6 77.7 L39.8 78.0 Q41.55 78.3 42.75 79.3 L42.15 80.3 41.85 80.2 41.5 80.15 37.75 79.5 33.9 78.55 30.2 77.3"/><path fill="#ffffff" stroke="none" d="M43.7 82.3 Q44.15 79.65 45.2 78.6 45.6 78.5 45.7 79.05 45.8 79.55 46.1 79.5 49.1 80.0 56.3 81.85 62.8 83.5 66.55 83.95 L67.55 84.9 68.5 85.95 Q72.3 86.75 75.9 88.25 L78.35 89.1 Q79.8 89.65 80.65 90.2 L80.9 90.25 81.85 90.9 Q82.3 91.0 82.75 91.4 L82.9 91.9 82.55 92.3 82.25 92.45 82.2 92.45 82.05 92.55 Q73.75 92.55 67.75 91.2 L66.8 91.4 65.8 91.85 54.95 89.45 44.1 86.85 44.05 87.2 43.5 87.6 Q43.0 87.55 43.0 87.15 L43.05 87.0 43.0 87.0 43.1 86.6 43.0 86.55 43.7 82.3 M48.7 84.15 L46.8 83.7 46.75 83.7 45.9 83.75 Q45.45 84.25 45.9 84.65 L46.5 84.95 46.65 85.0 Q48.8 85.35 55.55 87.35 61.1 88.95 64.6 89.1 L64.95 89.15 65.0 89.1 65.2 89.15 Q65.85 89.15 65.8 88.55 65.75 87.9 65.15 87.9 L61.75 87.55 Q59.85 86.85 57.45 86.6 L54.95 85.9 48.75 84.15 48.7 84.15"/><path fill="#ffffff" stroke="none" d="M17.95 58.5 Q17.85 60.15 13.7 58.5 14.55 57.85 15.85 58.2 L17.95 58.5"/><path fill="#ffffff" stroke="none" d="M18.1 61.1 L11.15 60.65 4.2 58.85 11.15 59.55 18.1 61.1"/><path fill="#ffffff" stroke="none" d="M50.95 65.9 L49.25 65.85 52.6 66.35 50.95 65.9 M23.1 60.15 Q22.5 60.15 22.5 60.8 22.5 61.45 23.1 61.45 L26.6 61.7 40.25 64.15 42.0 64.65 Q42.55 64.85 42.75 64.25 42.9 63.65 42.3 63.45 L37.75 62.35 33.05 61.65 28.1 60.7 23.1 60.15 M20.75 65.15 L20.15 65.3 19.55 65.7 Q19.8 61.55 20.95 57.6 L21.0 57.6 21.1 56.95 Q21.2 56.6 21.6 56.6 22.05 56.6 22.1 56.95 L22.15 57.7 Q26.5 58.1 33.0 59.4 L43.8 61.6 44.35 62.0 44.85 62.3 45.2 62.85 52.25 64.55 Q56.2 65.8 59.3 67.75 L58.05 68.5 57.0 68.7 54.35 68.95 51.9 68.85 48.05 68.55 44.35 67.95 43.4 68.35 42.4 68.85 20.75 65.15"/></g></defs><g><g><use transform="matrix(1.0,0.0,0.0,1.0,0.0,0.0)" xlink:href="#c1"/></g></g></svg>