<?xml version='1.0' encoding='UTF-8'?>
<svg xmlns="http://www.w3.org/2000/svg" xmlns:xlink="http://www.w3.org/1999/xlink" version="1.1" width="97px" height="99px" viewBox="0.3 0.4 97.2 99.19999999999999"><defs><g id="c1"><path fill="#ffffff" fill-opacity="0.8" d="M85.8 41.15 L85.6 40.75 56.35 32.0 1.05 32.0 1.1 25.1 55.4 25.1 18.45 0.4 20.8 0.4 60.4 17.75 50.85 0.4 51.4 0.4 97.5 45.1 85.8 41.15"/><path fill="#ffffff" fill-opacity="0.8" d="M85.6 59.4 L85.8 59.0 97.5 55.05 51.5 99.6 50.9 99.6 60.4 82.4 21.05 99.6 18.6 99.6 55.4 75.05 1.1 75.05 1.05 68.1 56.35 68.1 85.6 59.4"/><path fill="#ffffff" stroke="none" d="M90.9 51.85 L85.6 54.3 56.35 63.0 0.3 63.0 0.3 51.85 90.9 51.85"/><path fill="#ffffff" stroke="none" d="M85.6 46.4 L90.9 48.85 0.3 48.85 0.3 37.65 56.35 37.65 85.6 46.4"/></g></defs><g><g><use transform="matrix(1.0,0.0,0.0,1.0,0.0,0.0)" xlink:href="#c1"/></g></g></svg>