<?xml version='1.0' encoding='UTF-8'?>
<svg xmlns="http://www.w3.org/2000/svg" xmlns:xlink="http://www.w3.org/1999/xlink" version="1.1" width="54px" height="90px" viewBox="22.55 4.9 53.55 90.25"><defs><g id="c1"><path fill="#ffffff" stroke="none" d="M72.7 67.05 L75.35 64.85 Q76.1 78.05 67.65 87.1 60.1 95.15 50.75 95.15 L49.25 95.15 Q39.05 95.15 31.3 85.85 22.55 75.4 25.2 60.5 31.1 62.4 31.8 67.8 32.5 73.15 35.25 74.75 37.5 76.1 39.55 74.35 L41.75 71.1 Q43.0 69.35 46.05 69.6 47.3 69.7 50.45 72.1 53.25 74.2 54.55 73.65 55.85 73.1 55.55 71.15 55.15 68.85 55.9 67.9 56.9 66.6 59.75 67.4 62.3 68.1 63.05 65.9 64.3 62.45 66.55 63.0 68.5 63.45 70.0 66.15 71.05 68.05 72.7 67.05"/><path fill="#ffffff" stroke="none" d="M47.5 23.75 Q46.55 23.75 45.85 23.05 45.15 22.4 45.15 21.4 45.15 20.45 45.85 19.75 46.55 19.05 47.5 19.05 48.45 19.05 49.1 19.75 49.8 20.45 49.8 21.4 49.8 22.35 49.1 23.05 48.45 23.75 47.5 23.75"/><path fill="#ffffff" stroke="none" d="M31.4 44.9 Q32.1 44.25 33.05 44.25 34.05 44.25 34.7 44.9 35.4 45.6 35.4 46.55 35.4 47.55 34.7 48.2 34.05 48.9 33.05 48.9 32.1 48.9 31.4 48.2 30.75 47.55 30.75 46.55 30.75 45.6 31.4 44.9"/><path fill="#ffffff" stroke="none" d="M46.75 33.05 Q45.5 33.05 44.55 32.15 43.65 31.25 43.65 29.95 43.65 28.65 44.55 27.7 45.45 26.8 46.75 26.8 48.05 26.8 49.0 27.7 49.9 28.65 49.9 29.95 49.9 31.25 49.0 32.15 48.05 33.05 46.75 33.05"/><path fill="#ffffff" stroke="none" d="M51.4 26.15 Q51.4 24.95 52.25 24.1 53.1 23.25 54.3 23.25 55.5 23.25 56.4 24.1 57.25 24.95 57.25 26.15 57.25 27.35 56.4 28.2 55.5 29.05 54.3 29.05 53.1 29.05 52.25 28.2 51.4 27.35 51.4 26.15"/><path fill="#ffffff" stroke="none" d="M41.6 35.5 Q43.55 35.5 44.95 36.9 46.3 38.25 46.3 40.2 46.3 42.15 44.95 43.55 43.55 44.9 41.6 44.9 39.65 44.9 38.3 43.55 36.9 42.15 36.9 40.2 36.9 38.25 38.3 36.9 39.65 35.5 41.6 35.5 M38.55 40.5 Q38.95 39.0 39.7 38.55 L41.05 37.35 41.5 36.7 40.2 37.05 Q38.8 37.65 38.4 38.8 37.8 40.7 38.3 41.9 38.35 41.25 38.55 40.5"/><path fill="#ffffff" stroke="none" d="M68.55 56.15 Q67.35 56.15 66.5 55.3 65.65 54.45 65.65 53.25 65.65 52.0 66.5 51.15 67.35 50.3 68.55 50.3 69.75 50.3 70.65 51.15 71.5 52.0 71.5 53.25 71.5 54.45 70.65 55.3 69.75 56.15 68.55 56.15"/><path fill="#ffffff" stroke="none" d="M48.9 41.65 Q48.9 38.9 50.85 36.95 52.8 35.0 55.55 35.0 58.35 35.0 60.3 36.95 62.25 38.9 62.25 41.65 62.25 44.4 60.3 46.35 58.35 48.3 55.55 48.3 52.8 48.3 50.85 46.35 48.9 44.4 48.9 41.65 M54.6 37.35 L55.25 36.35 53.3 36.85 Q51.25 37.75 50.7 39.45 50.15 41.2 50.3 42.8 50.35 43.55 50.55 44.0 L50.9 41.95 Q51.45 39.75 52.55 39.1 L54.6 37.35"/><path fill="#ffffff" stroke="none" d="M55.85 57.05 L57.35 55.75 57.85 55.0 56.4 55.4 Q54.9 56.0 54.5 57.3 53.85 59.35 54.35 60.65 L54.65 59.15 Q55.05 57.5 55.85 57.05 M62.65 58.9 Q62.65 60.85 61.25 62.25 59.85 63.65 57.9 63.65 55.9 63.65 54.55 62.25 53.15 60.85 53.15 58.9 53.15 56.9 54.55 55.55 55.9 54.15 57.9 54.15 59.85 54.15 61.25 55.55 62.65 56.9 62.65 58.9"/><path fill="#ffffff" stroke="none" d="M35.15 55.5 Q36.45 54.3 37.35 52.55 L38.0 51.05 35.5 52.3 Q33.0 54.0 32.7 56.5 32.4 58.95 33.05 61.05 L33.7 62.6 Q33.55 61.3 33.65 59.75 33.85 56.7 35.15 55.5 M40.0 49.4 Q43.6 49.4 46.15 51.9 48.65 54.45 48.65 58.0 48.65 61.6 46.15 64.15 43.6 66.65 40.0 66.65 36.45 66.65 33.9 64.15 31.4 61.6 31.4 58.0 31.4 54.45 33.9 51.9 36.45 49.4 40.0 49.4"/><path fill="#ffffff" stroke="none" d="M49.4 14.3 Q49.4 13.65 49.9 13.15 50.4 12.65 51.05 12.65 51.75 12.65 52.25 13.15 52.75 13.6 52.75 14.3 52.75 15.0 52.25 15.5 51.75 16.0 51.05 16.0 50.35 16.0 49.9 15.5 49.4 15.0 49.4 14.3"/><path fill="#ffffff" stroke="none" d="M50.0 6.75 Q49.6 6.75 49.3 6.45 49.05 6.2 49.05 5.8 49.05 4.9 50.0 4.9 50.4 4.9 50.65 5.15 L50.9 5.8 50.65 6.45 50.0 6.75"/><path fill="#ffffff" stroke="none" d="M28.55 50.5 L29.2 51.1 Q29.65 52.05 28.95 53.75 28.25 55.45 27.05 55.75 L26.05 55.7 28.55 50.5"/><path fill="#ffffff" stroke="none" d="M42.6 26.0 L43.0 27.55 Q43.25 29.4 42.2 30.8 41.15 32.25 39.65 32.7 L38.4 32.8 40.95 29.75 42.6 26.0"/><path fill="#ffffff" stroke="none" d="M61.9 34.8 L60.35 34.25 Q58.7 33.4 58.15 31.75 57.55 30.05 58.05 28.55 L58.7 27.45 59.05 29.1 Q59.45 30.9 59.75 31.35 L61.9 34.8"/><path fill="#ffffff" stroke="none" d="M65.35 42.5 L66.9 44.8 68.85 48.1 Q69.3 49.25 66.65 48.8 64.0 48.35 63.65 46.45 63.3 44.3 63.9 42.75 64.5 41.2 65.35 42.5"/></g></defs><g><g><use transform="matrix(1.0,0.0,0.0,1.0,0.0,0.0)" xlink:href="#c1"/></g></g></svg>