<?xml version='1.0' encoding='UTF-8'?>
<svg xmlns="http://www.w3.org/2000/svg" xmlns:xlink="http://www.w3.org/1999/xlink" version="1.1" width="97px" height="94px" viewBox="2.65 0.0 97.35 94.25"><defs><g id="c1"><path fill="#ffffff" fill-opacity="0.8" d="M47.95 0.0 L52.2 0.05 31.75 13.25 90.65 13.15 44.05 50.15 67.95 56.7 56.45 68.6 52.0 82.5 6.65 49.85 70.55 21.15 2.65 21.15 47.95 0.0"/><path fill="#ffffff" stroke="none" d="M100.0 29.9 L100.0 43.15 67.4 75.75 65.95 81.45 71.65 79.9 100.0 51.55 100.0 64.15 Q80.05 84.6 76.4 87.05 74.2 88.55 64.65 91.4 54.8 94.25 53.15 93.6 52.5 91.95 55.35 82.1 58.15 72.6 59.65 70.3 62.6 65.9 100.0 29.9"/></g></defs><g><g><use transform="matrix(1.0,0.0,0.0,1.0,0.0,0.0)" xlink:href="#c1"/></g></g></svg>