<?xml version='1.0' encoding='UTF-8'?>
<svg xmlns="http://www.w3.org/2000/svg" xmlns:xlink="http://www.w3.org/1999/xlink" version="1.1" width="100px" height="99px" viewBox="0.0 0.4 100.0 99.19999999999999"><defs><g id="c1"><path fill="#ffffff" stroke="none" d="M19.45 17.5 Q22.15 19.3 23.85 21.2 31.05 24.45 38.5 32.0 L25.6 30.3 12.25 29.15 0.0 28.75 0.1 15.05 Q3.6 16.3 8.65 18.9 15.05 22.25 16.9 23.05 16.0 21.95 13.85 20.55 L10.6 18.15 Q11.25 16.9 9.45 15.2 7.7 13.5 8.55 12.05 L5.95 10.65 Q4.4 9.75 4.5 8.6 6.7 9.4 9.65 11.3 L14.5 14.5 19.45 17.5"/><path fill="#ffffff" stroke="none" d="M40.5 8.35 L42.35 6.3 Q43.4 5.1 43.75 3.85 44.1 3.8 44.4 4.05 44.25 7.15 46.05 16.95 47.8 26.75 47.65 29.75 L43.05 19.4 Q39.65 11.75 38.9 8.55 L39.8 8.55 40.5 8.35"/><path fill="#ffffff" stroke="none" d="M45.4 40.75 Q43.3 39.5 42.3 36.9 41.15 33.85 43.4 32.4 45.6 33.35 47.75 35.7 L51.35 39.75 48.25 40.0 Q46.6 40.2 45.4 40.75"/><path fill="#ffffff" stroke="none" d="M34.5 51.55 L25.5 58.95 Q25.35 56.9 25.6 55.1 25.75 53.75 26.4 51.4 L34.45 47.25 Q39.25 44.7 43.2 43.8 40.25 47.05 34.5 51.55"/><path fill="#ffffff" stroke="none" d="M60.3 17.2 L56.65 21.7 Q54.4 24.45 52.35 26.0 53.25 23.3 55.5 19.2 L58.9 12.5 Q59.8 14.25 60.3 17.2"/><path fill="#ffffff" stroke="none" d="M48.3 46.9 Q52.55 44.65 55.25 43.65 55.9 44.15 57.2 44.4 L59.1 45.0 Q58.7 43.0 56.5 38.5 54.45 34.3 54.1 31.35 56.5 29.95 61.15 25.85 65.5 22.05 68.5 20.55 70.95 18.15 74.85 15.6 L81.75 11.35 94.55 3.55 96.1 5.0 Q100.0 9.35 100.0 17.55 L100.0 61.05 95.2 65.3 Q91.2 68.55 90.8 69.7 90.45 70.65 90.1 75.7 89.75 80.65 89.85 83.45 L88.35 98.8 Q85.65 99.6 82.7 99.6 L71.5 99.6 71.7 94.6 Q71.7 93.1 72.05 91.0 74.65 60.05 74.25 58.25 L83.6 45.65 92.65 33.2 79.85 42.25 Q70.85 48.65 65.3 49.55 64.25 52.1 61.8 63.95 59.45 75.05 59.3 77.0 59.15 79.6 58.45 82.15 L57.15 86.35 56.2 91.35 Q53.25 92.15 50.15 91.3 48.25 90.75 45.25 89.2 45.65 87.95 45.25 87.5 43.75 86.55 40.25 87.1 L34.85 87.3 Q30.6 86.0 28.85 82.6 26.95 78.9 31.0 76.9 L36.45 77.6 Q39.8 77.95 42.15 76.15 43.6 75.0 45.7 62.45 L48.3 46.9"/><path fill="#ffffff" stroke="none" d="M0.0 35.65 L13.9 37.05 27.7 37.7 28.55 38.1 29.55 38.5 31.7 38.35 34.0 38.1 37.35 38.65 40.35 38.7 20.85 46.95 Q9.15 51.8 0.0 53.85 L0.0 45.4 Q13.4 43.45 17.5 42.35 L9.45 41.8 0.0 41.6 0.0 35.65"/><path fill="#ffffff" stroke="none" d="M39.95 24.85 Q41.6 27.55 42.55 29.75 41.4 29.05 40.0 27.45 L37.7 24.65 Q33.95 20.9 32.4 20.2 31.35 19.65 30.55 20.0 26.5 15.35 20.2 10.4 L8.7 2.0 Q12.15 0.4 16.65 0.4 L25.25 0.4 Q27.1 3.95 31.2 9.55 35.65 15.7 37.3 18.55 L37.1 19.3 37.05 20.2 39.95 24.85"/></g></defs><g><g><use transform="matrix(1.0,0.0,0.0,1.0,0.0,0.0)" xlink:href="#c1"/></g></g></svg>