<?xml version='1.0' encoding='UTF-8'?>
<svg xmlns="http://www.w3.org/2000/svg" xmlns:xlink="http://www.w3.org/1999/xlink" version="1.1" width="95px" height="96px" viewBox="5.3 1.1 94.7 96.35000000000001"><defs><g id="c1"><path fill="#ffffff" fill-opacity="0.8" d="M90.15 19.95 L89.65 20.0 89.15 19.85 63.85 27.75 66.0 18.45 60.75 23.7 58.3 19.75 55.0 27.45 51.9 24.9 53.15 37.2 56.2 38.3 56.6 42.1 66.3 47.7 65.2 41.95 78.25 44.65 70.0 38.8 77.65 35.85 70.55 34.75 Q88.4 21.85 90.15 19.95 M100.0 17.55 L100.0 18.85 82.3 31.8 96.05 33.9 81.2 39.65 97.2 50.9 71.95 45.7 74.15 56.8 55.4 46.0 54.65 38.65 48.75 36.45 46.35 12.8 52.3 17.75 58.7 2.9 63.45 10.45 73.25 1.1 73.25 1.15 69.4 18.25 98.6 9.1 Q100.0 12.55 100.0 17.55"/><path fill="#ffffff" stroke="none" d="M25.3 75.1 L26.4 73.3 Q26.8 72.2 26.05 70.85 25.4 69.65 23.95 69.65 L22.6 69.95 21.2 70.7 Q21.5 71.3 21.4 72.3 21.3 73.3 21.6 73.9 22.1 74.6 23.05 74.75 L24.65 74.85 Q23.7 76.1 22.1 75.5 20.65 74.95 19.8 73.3 L18.1 73.55 Q17.5 74.65 18.2 76.1 18.85 77.3 19.5 77.65 L20.7 77.65 22.6 77.2 Q23.85 76.75 24.95 75.5 L25.0 75.45 25.3 75.1 M46.35 38.6 L47.45 38.4 Q48.2 38.3 48.8 38.75 L50.05 40.3 50.3 40.65 50.8 41.55 Q51.6 42.75 51.85 43.75 52.1 44.7 52.0 46.2 L30.45 58.65 Q30.7 60.7 30.9 61.4 31.35 62.9 32.5 64.4 L30.8 65.75 28.9 66.8 27.2 67.9 Q26.9 68.2 27.1 68.7 L27.5 69.45 28.2 71.7 28.2 72.3 28.05 72.85 27.95 74.05 26.9 75.8 Q25.55 77.6 23.15 78.7 21.95 79.25 20.8 79.3 L19.45 79.25 18.65 79.05 17.85 79.1 16.05 79.8 Q15.45 80.2 15.3 81.05 15.1 81.8 15.4 82.5 L16.6 85.1 17.6 87.4 18.1 89.5 Q18.2 90.65 17.85 91.55 17.3 92.75 15.7 94.15 12.0 97.45 9.2 96.7 L8.25 96.3 Q5.85 88.1 6.05 76.65 L5.7 75.5 5.3 74.35 5.5 74.0 6.15 73.05 7.0 72.15 8.0 71.1 8.8 69.9 8.95 69.6 9.1 69.4 9.3 69.0 9.3 68.6 8.95 68.35 7.95 68.3 5.9 68.75 Q5.95 67.85 7.2 67.5 L9.05 67.3 Q10.45 64.05 7.75 61.5 8.2 61.05 8.05 60.4 L9.4 60.55 Q10.1 60.05 10.85 59.85 L12.15 59.7 40.35 43.9 44.7 41.3 44.5 40.65 44.05 39.85 45.2 39.2 Q45.9 38.75 46.35 38.6"/></g></defs><g><g><use transform="matrix(1.0,0.0,0.0,1.0,0.0,0.0)" xlink:href="#c1"/></g></g></svg>