<?xml version='1.0' encoding='UTF-8'?>
<svg xmlns="http://www.w3.org/2000/svg" xmlns:xlink="http://www.w3.org/1999/xlink" version="1.1" width="73px" height="98px" viewBox="13.65 1.05 72.69999999999999 98.35000000000001"><defs><g id="c1"><path fill="#ffffff" stroke="none" d="M22.0 32.55 L22.4 27.05 13.65 21.15 59.6 8.45 28.65 1.05 72.1 8.6 21.75 22.2 57.55 37.1 45.25 47.7 84.6 65.8 86.35 83.5 46.6 89.8 Q42.5 97.7 36.05 99.4 L16.75 99.05 27.75 92.75 19.85 87.25 58.8 74.65 64.65 66.2 Q51.45 60.75 47.2 58.2 44.95 56.9 38.9 52.15 L33.25 47.7 48.1 39.3 22.0 32.55"/></g></defs><g><g><use transform="matrix(1.0,0.0,0.0,1.0,0.0,0.0)" xlink:href="#c1"/></g></g></svg>