<?xml version='1.0' encoding='UTF-8'?>
<svg xmlns="http://www.w3.org/2000/svg" xmlns:xlink="http://www.w3.org/1999/xlink" version="1.1" width="80px" height="83px" viewBox="13.0 7.6 79.55 83.45"><defs><g id="c1"><path fill="#ffffff" stroke="none" d="M27.9 72.2 L27.8 61.05 25.05 60.9 Q23.45 60.85 22.6 61.35 L22.8 72.25 22.85 83.25 25.4 83.3 27.95 83.35 27.9 72.2 M25.05 57.8 L27.6 57.9 27.6 52.35 Q27.5 48.75 27.65 46.75 24.8 46.7 23.25 50.6 21.85 54.2 22.5 57.75 L25.05 57.8 M47.05 59.85 L47.75 65.45 Q48.05 68.7 47.7 70.75 L47.25 72.2 Q46.9 73.05 46.9 73.6 46.9 74.25 47.25 74.95 L47.75 76.1 47.75 78.1 47.7 80.1 Q47.75 80.55 47.4 81.1 47.0 81.75 46.95 82.1 46.8 82.75 47.25 83.65 L47.8 85.25 47.75 87.85 Q47.55 89.5 47.7 90.3 44.6 90.25 32.45 90.7 23.1 91.05 16.8 90.4 16.6 89.1 16.9 86.85 L17.3 83.2 17.0 81.6 16.65 79.9 Q16.6 78.8 17.0 76.5 17.4 74.3 17.25 73.2 L16.95 72.45 16.55 71.65 Q16.0 69.45 16.45 63.6 16.85 58.3 17.6 54.8 19.15 47.45 22.85 41.95 26.65 36.35 31.7 34.1 44.55 41.35 47.05 59.85"/><path fill="#ffffff" fill-opacity="0.8" d="M92.55 26.6 L92.55 45.85 73.6 45.85 73.6 64.8 54.3 64.8 54.3 45.85 35.4 45.85 35.4 26.6 54.3 26.6 54.3 7.6 73.6 7.6 73.6 26.6 92.55 26.6 M87.9 41.15 L87.9 31.25 71.25 31.25 71.25 30.25 68.9 30.25 68.9 12.3 59.0 12.3 59.0 30.25 56.65 30.25 56.65 31.25 40.05 31.25 40.05 41.15 56.65 41.15 56.65 42.2 59.0 42.2 59.0 60.15 68.9 60.15 68.9 42.2 71.25 42.2 71.25 41.15 87.9 41.15"/><path fill="#ffffff" stroke="none" d="M82.6 83.75 L78.85 83.75 78.85 68.15 82.6 68.15 82.6 83.75"/><path fill="#ffffff" stroke="none" d="M88.55 77.8 L72.9 77.8 72.9 74.1 88.55 74.1 88.55 77.8"/><path fill="#ffffff" stroke="none" d="M22.65 23.9 L18.95 23.9 18.95 8.25 22.65 8.25 22.65 23.9"/><path fill="#ffffff" stroke="none" d="M13.0 17.95 L13.0 14.2 28.6 14.2 28.6 17.95 13.0 17.95"/></g></defs><g><g><use transform="matrix(1.0,0.0,0.0,1.0,0.0,0.0)" xlink:href="#c1"/></g></g></svg>