<?xml version='1.0' encoding='UTF-8'?>
<svg xmlns="http://www.w3.org/2000/svg" xmlns:xlink="http://www.w3.org/1999/xlink" version="1.1" width="65px" height="78px" viewBox="18.25 10.0 65.0 77.7"><defs><g id="c1"><path fill="#ffffff" stroke="none" d="M45.2 10.0 L45.5 10.3 Q54.5 12.45 59.7 17.8 65.4 23.7 65.5 32.6 65.55 37.35 63.7 43.25 L60.05 53.45 Q56.35 64.45 55.6 70.7 54.45 80.85 58.65 87.7 36.85 87.5 30.6 62.3 29.15 66.5 29.7 71.35 30.25 75.85 32.3 79.45 33.0 80.6 35.55 83.0 37.65 84.95 38.05 86.6 29.1 83.7 23.9 77.25 18.35 70.35 18.3 60.6 18.25 54.9 19.85 49.65 21.0 46.0 23.45 41.15 24.4 39.25 28.4 33.75 31.65 29.25 32.6 26.0 33.1 24.3 32.9 20.3 33.85 20.1 34.9 21.1 L36.35 22.85 Q40.05 27.55 41.45 35.25 42.85 43.05 41.45 51.45 40.0 60.0 40.0 61.4 39.85 66.7 43.2 68.55 42.65 61.3 42.9 57.7 43.2 53.3 46.2 45.95 49.2 38.6 49.5 34.6 50.0 28.25 48.65 21.9 47.65 16.9 45.2 10.85 L45.2 10.0"/><path fill="#ffffff" stroke="none" d="M74.1 36.0 L74.95 36.0 Q79.3 40.55 81.1 45.4 83.25 51.1 82.65 58.85 82.05 66.4 75.15 73.55 71.25 77.6 70.0 79.3 67.45 82.8 66.65 86.85 61.85 80.1 61.2 73.15 60.75 67.7 62.6 62.75 63.85 59.55 67.05 54.65 70.65 49.15 71.8 46.65 74.05 41.9 74.1 36.85 L74.1 36.0"/></g></defs><g><g><use transform="matrix(1.0,0.0,0.0,1.0,0.0,0.0)" xlink:href="#c1"/></g></g></svg>