<?xml version='1.0' encoding='UTF-8'?>
<svg xmlns="http://www.w3.org/2000/svg" xmlns:xlink="http://www.w3.org/1999/xlink" version="1.1" width="96px" height="94px" viewBox="1.8 2.8 96.35000000000001 94.45"><defs><g id="c1"><path fill="#ffffff" stroke="none" d="M76.05 63.55 Q80.75 62.85 85.3 65.3 88.65 67.15 91.65 70.55 88.25 78.05 82.45 83.85 75.5 90.8 66.1 94.35 68.2 88.55 68.6 83.6 69.15 75.75 64.9 72.7 58.8 68.4 58.1 63.15 57.85 61.55 58.2 60.0 L58.6 58.8 64.05 61.65 Q70.55 64.35 76.05 63.55"/><path fill="#ffffff" stroke="none" d="M78.55 55.85 Q71.55 57.3 66.35 55.2 63.15 53.9 61.15 51.55 L95.8 51.5 Q95.9 60.85 92.05 69.7 83.65 54.75 78.55 55.85"/><path fill="#ffffff" stroke="none" d="M26.55 71.15 Q29.65 64.3 35.35 62.05 38.2 60.95 40.45 61.2 L37.1 67.65 Q34.15 74.8 36.3 78.1 38.8 81.9 37.35 86.8 36.35 90.3 33.45 94.05 24.55 90.5 17.9 83.85 12.65 78.6 9.25 71.7 23.6 77.55 26.55 71.15"/><path fill="#ffffff" stroke="none" d="M64.3 15.65 Q67.1 13.65 70.2 12.05 72.85 10.7 73.0 10.85 69.85 13.9 66.9 17.7 61.05 25.3 62.2 29.1 63.4 33.0 58.7 39.95 56.35 43.45 53.75 46.15 L62.0 43.35 Q70.85 40.0 73.65 37.2 76.7 34.15 87.7 36.6 93.25 37.8 98.15 39.6 93.6 39.2 88.45 39.75 78.1 40.8 75.15 45.4 73.5 48.0 66.6 50.1 L58.25 52.05 35.95 51.85 Q32.95 52.35 30.45 54.1 26.35 56.95 24.75 62.6 23.35 67.45 18.0 68.95 L8.1 69.25 Q4.55 60.7 4.55 51.6 L32.5 51.55 Q27.35 47.1 14.9 46.65 11.85 46.55 6.5 38.5 L1.8 30.45 6.6 35.55 Q12.5 40.65 17.8 40.6 L27.3 40.9 36.8 43.75 Q37.9 41.85 37.75 39.25 37.5 34.05 31.45 30.65 22.25 25.5 28.15 13.65 30.0 9.9 33.15 6.0 L35.9 2.8 34.5 5.7 Q32.9 9.3 32.1 12.5 29.5 22.8 35.45 25.85 41.5 28.9 44.55 35.6 46.1 38.95 46.4 41.65 48.6 40.5 50.85 38.05 55.35 33.15 55.6 26.7 55.8 21.55 64.3 15.65"/><path fill="#ffffff" stroke="none" d="M58.45 76.65 Q63.95 80.0 65.5 86.15 66.5 90.1 65.75 94.45 58.45 97.1 50.6 97.2 42.8 97.25 35.45 94.75 41.5 91.25 44.45 87.8 48.65 82.9 45.8 78.7 42.1 73.25 45.75 68.85 46.95 67.5 48.7 66.4 L50.2 65.6 51.05 69.1 Q52.95 73.3 58.45 76.65"/></g></defs><g><g><use transform="matrix(1.0,0.0,0.0,1.0,0.0,0.0)" xlink:href="#c1"/></g></g></svg>