<?xml version='1.0' encoding='UTF-8'?>
<svg xmlns="http://www.w3.org/2000/svg" xmlns:xlink="http://www.w3.org/1999/xlink" version="1.1" width="98px" height="71px" viewBox="0.6 14.9 98.2 70.6"><defs><g id="c1"><path fill="#ffffff" stroke="none" d="M15.0 31.85 L10.0 32.6 Q7.85 33.05 5.15 33.9 3.25 34.45 0.6 35.55 2.55 33.2 4.8 31.25 7.15 29.25 9.9 27.65 12.75 26.05 15.9 25.15 19.15 24.2 22.8 24.1 L23.5 24.1 29.45 24.7 Q32.0 25.15 34.7 26.35 37.25 27.6 38.85 29.05 40.7 30.75 41.65 32.7 L41.65 32.75 41.7 32.8 41.7 32.85 41.8 32.95 41.85 33.05 41.95 33.15 46.3 31.5 47.65 33.05 42.05 35.25 44.1 37.65 44.6 37.65 45.8 37.8 Q46.3 37.85 46.8 38.2 47.25 38.45 47.45 38.8 L47.7 39.5 47.65 39.9 47.45 40.25 47.15 40.6 46.8 40.85 46.8 40.9 46.6 40.95 46.45 41.05 46.3 41.1 46.15 41.2 45.95 41.25 42.85 42.5 38.2 36.75 32.4 39.05 31.05 37.35 35.5 35.65 Q33.75 34.5 32.1 33.8 L28.35 32.5 24.25 31.8 20.0 31.55 15.0 31.85"/><path fill="#ffffff" stroke="none" d="M49.25 48.6 L49.55 48.5 52.7 47.2 58.0 53.45 63.9 50.9 65.55 52.75 61.05 54.7 65.0 57.0 69.4 58.55 74.15 59.45 79.0 59.75 84.55 59.4 89.8 58.4 94.6 56.85 98.8 54.85 Q97.85 57.65 96.25 60.15 94.4 62.9 92.05 64.95 89.25 67.25 86.0 68.45 82.25 69.9 78.05 69.95 L77.6 69.95 77.4 70.0 77.2 70.0 69.8 69.1 Q66.25 68.25 63.25 66.7 60.3 65.25 58.0 63.0 55.75 60.9 54.5 58.3 L54.5 58.25 54.5 58.2 54.4 58.1 54.35 58.0 54.25 57.85 54.2 57.75 Q51.8 58.85 49.35 59.9 L47.8 57.9 53.9 55.2 51.6 52.45 51.1 52.45 49.8 52.3 48.75 51.85 48.0 51.15 47.75 50.35 47.8 49.9 48.0 49.55 48.3 49.2 48.7 48.9 48.7 48.85 48.9 48.75 49.05 48.7 49.25 48.6"/><path fill="#ffffff" stroke="none" d="M70.35 19.35 Q72.95 20.9 74.6 22.75 76.4 24.8 76.9 27.15 77.35 29.3 76.75 31.35 76.25 33.45 74.7 35.2 73.3 37.0 70.8 38.45 68.25 39.9 65.2 40.6 L65.2 40.65 64.55 40.85 67.5 44.0 65.1 45.05 61.35 41.0 57.85 42.5 57.95 42.85 57.75 43.7 57.2 44.45 56.35 44.95 55.25 45.1 54.65 45.1 54.1 44.95 53.65 44.75 53.25 44.5 53.2 44.5 52.85 44.15 52.75 44.0 52.7 43.9 50.8 41.75 58.9 38.3 55.35 34.5 57.65 33.55 60.4 36.4 Q63.45 34.2 64.75 31.05 65.85 28.3 65.3 25.2 64.85 22.45 63.05 19.6 61.4 17.05 58.8 14.9 62.2 15.75 64.85 16.75 68.05 17.95 70.35 19.35"/><path fill="#ffffff" stroke="none" d="M39.55 44.8 L39.6 44.8 40.65 44.95 41.15 45.15 41.55 45.45 41.55 45.4 41.7 45.6 42.0 45.9 42.05 46.05 43.9 48.3 35.2 52.0 38.65 56.45 36.0 57.6 33.4 54.2 Q29.65 56.8 27.65 60.75 25.85 64.4 25.75 68.75 25.75 73.1 27.35 77.35 28.95 81.75 32.0 85.5 27.8 84.1 24.3 82.25 20.4 80.15 17.9 77.85 15.05 75.25 13.7 72.4 12.3 69.35 12.5 66.05 12.7 63.1 14.1 60.4 15.4 57.8 17.55 55.6 19.65 53.45 22.55 51.9 25.55 50.25 28.85 49.45 L29.6 49.25 27.1 45.95 29.65 44.85 32.95 49.05 36.7 47.45 36.65 47.1 36.9 46.2 37.55 45.45 38.45 44.95 39.55 44.8"/></g></defs><g><g><use transform="matrix(1.0,0.0,0.0,1.0,0.0,0.0)" xlink:href="#c1"/></g></g></svg>