<?xml version='1.0' encoding='UTF-8'?>
<svg xmlns="http://www.w3.org/2000/svg" xmlns:xlink="http://www.w3.org/1999/xlink" version="1.1" width="92px" height="92px" viewBox="4.0 4.0 92.0 92.05"><defs><g id="c1"><path fill="#ffffff" stroke="none" d="M50.0 4.0 Q69.05 4.0 82.55 17.5 96.0 30.95 96.0 50.0 96.0 69.05 82.55 82.55 69.05 96.05 50.0 96.05 30.95 96.05 17.5 82.55 4.0 69.05 4.0 50.0 4.0 30.95 17.5 17.5 30.95 4.0 50.0 4.0 M52.35 20.0 L50.05 13.2 47.85 19.9 42.9 21.2 47.35 8.1 Q35.65 8.85 26.0 15.55 16.6 22.15 11.85 32.55 L28.8 32.55 27.5 36.65 15.45 36.65 27.65 45.9 30.05 53.2 9.9 37.6 Q8.0 43.6 8.0 50.0 8.0 59.35 11.9 67.7 15.7 75.8 22.5 81.7 L30.55 57.85 30.7 58.8 Q30.95 59.95 31.55 60.85 32.4 62.05 33.45 62.05 L27.0 81.15 37.1 73.35 40.15 76.3 27.85 85.7 Q38.0 92.0 50.0 92.0 62.05 92.0 72.15 85.7 L60.35 76.4 62.95 73.4 73.0 81.15 66.7 62.6 68.35 60.85 69.35 57.5 77.5 81.75 Q84.3 75.85 88.1 67.75 92.0 59.35 92.0 50.0 92.0 43.55 90.1 37.45 L69.8 53.15 71.45 46.7 84.45 36.65 71.8 36.65 70.5 32.55 88.2 32.55 Q83.4 22.15 74.0 15.55 64.35 8.85 52.65 8.1 L56.95 20.75 52.35 20.0"/><path fill="#ffffff" stroke="none" d="M63.55 50.9 L63.65 48.45 63.55 45.95 Q60.9 45.1 59.4 44.95 57.65 44.75 55.1 45.8 52.55 46.8 52.7 47.6 53.0 49.6 54.9 51.4 56.45 52.85 57.5 53.05 59.2 53.4 60.95 52.55 L63.55 50.9 M43.15 52.55 Q45.25 52.75 46.45 51.15 L48.35 48.25 Q48.2 45.15 43.7 44.45 39.45 43.85 36.95 45.6 36.8 46.8 37.4 48.85 37.95 50.85 37.85 51.9 38.45 52.15 39.25 51.9 L40.65 51.65 Q41.15 51.7 41.95 52.1 L43.15 52.55 M48.9 52.15 Q47.2 54.75 47.25 56.85 47.95 57.4 49.4 57.75 L53.8 57.35 Q54.9 55.4 53.4 53.35 L50.9 49.9 Q50.4 49.9 48.9 52.15 M51.4 23.55 Q58.35 24.6 61.1 25.85 67.3 28.7 68.5 35.3 L69.15 40.1 Q69.5 43.75 69.15 45.2 L67.05 49.7 Q65.65 52.5 66.1 55.35 L66.55 56.8 Q66.75 57.95 66.1 58.9 65.4 59.9 63.35 60.0 L59.9 60.4 Q59.5 60.55 59.05 61.2 L58.1 62.3 Q57.8 62.5 57.2 62.7 56.55 62.9 56.2 63.2 L56.05 64.45 55.85 65.7 Q55.15 65.75 54.85 64.9 54.55 64.1 54.05 64.1 53.35 64.05 53.25 64.85 L53.2 66.5 52.05 66.6 Q51.75 66.6 51.8 65.9 51.85 65.25 51.4 65.35 50.8 65.45 50.6 66.05 50.45 66.6 49.9 66.5 49.4 66.4 49.2 65.95 L48.6 64.95 Q48.1 64.85 47.6 65.35 L46.45 65.6 Q46.1 65.25 46.3 63.7 46.45 62.3 45.85 62.05 45.45 62.3 45.35 63.45 45.3 64.45 44.55 64.6 43.8 64.7 43.5 63.9 L42.8 62.45 Q42.5 62.4 42.55 62.95 42.55 63.45 42.15 63.3 L40.75 60.65 Q39.5 58.55 38.25 59.0 L35.55 58.95 Q34.4 58.4 34.7 57.85 35.8 55.3 32.65 48.6 30.45 44.05 30.7 39.2 31.0 34.45 33.55 30.1 38.35 26.35 39.85 25.65 44.2 23.55 51.4 23.55"/><path fill="#ffffff" stroke="none" d="M42.75 67.25 L42.65 68.5 43.25 68.65 43.95 68.65 43.95 67.0 44.55 66.85 Q45.0 66.95 45.25 67.75 45.5 68.6 45.95 68.65 L46.35 68.25 Q46.4 67.8 46.6 67.75 47.4 67.6 47.8 68.65 48.15 69.7 49.0 69.5 49.35 69.35 49.3 68.9 L49.4 68.15 Q50.2 68.1 50.65 68.7 L51.4 69.8 Q52.1 69.85 52.35 69.1 L52.95 68.0 Q53.45 67.9 53.8 68.25 54.25 68.65 54.6 68.65 L55.0 68.0 Q55.15 67.5 55.7 67.5 55.95 68.6 56.35 69.4 L57.35 68.5 Q56.85 67.2 57.1 66.6 L57.85 66.5 58.4 66.75 59.35 64.15 Q59.9 62.6 60.9 62.2 L60.6 65.1 Q60.2 67.05 60.3 68.15 L60.6 69.9 Q60.7 70.75 60.15 71.4 59.3 72.55 56.35 74.4 52.9 76.55 51.05 76.5 48.3 76.45 44.15 74.15 39.65 71.7 39.1 69.25 39.85 67.95 39.6 65.65 L39.0 61.9 Q40.3 62.3 40.6 65.15 40.95 68.1 41.9 68.65 42.25 68.3 42.05 67.6 L41.9 66.1 42.8 66.25 42.75 67.25"/></g></defs><g><g><use transform="matrix(1.0,0.0,0.0,1.0,0.0,0.0)" xlink:href="#c1"/></g></g></svg>