<?xml version='1.0' encoding='UTF-8'?>
<svg xmlns="http://www.w3.org/2000/svg" xmlns:xlink="http://www.w3.org/1999/xlink" version="1.1" width="74px" height="91px" viewBox="11.15 8.9 73.5 90.6"><defs><g id="c1"><path fill="#ffffff" stroke="none" d="M81.8 19.65 L84.65 23.95 84.65 26.8 Q77.9 34.8 75.15 46.55 71.8 60.7 78.2 69.1 75.0 74.9 75.55 83.8 L77.75 99.5 19.85 99.5 13.35 99.1 11.15 98.7 Q13.15 95.8 15.15 93.45 16.15 92.3 20.1 89.45 23.35 87.1 24.45 84.85 26.7 80.25 28.5 70.6 30.45 59.8 32.35 54.75 31.35 53.8 29.05 53.55 L25.4 53.35 Q21.85 53.0 25.2 49.15 31.3 43.65 36.65 40.45 39.65 38.65 43.2 33.8 46.05 29.9 48.1 29.7 L53.15 29.7 Q54.8 27.85 61.3 18.85 66.2 12.1 70.3 8.9 76.45 13.05 75.35 23.25 77.0 21.3 78.0 20.8 78.85 20.3 81.8 19.65"/></g></defs><g><g><use transform="matrix(1.0,0.0,0.0,1.0,0.0,0.0)" xlink:href="#c1"/></g></g></svg>