<?xml version='1.0' encoding='UTF-8'?>
<svg xmlns="http://www.w3.org/2000/svg" xmlns:xlink="http://www.w3.org/1999/xlink" version="1.1" width="99px" height="92px" viewBox="1.4 0.4 98.8 92.19999999999999"><defs><linearGradient gradientUnits="userSpaceOnUse" x1="-819.2" x2="819.2" spreadMethod="pad" gradientTransform="matrix(0.0649261474609375,0.0,0.0,-0.0649261474609375,46.95,46.55)" id="gradient21"><stop offset="0.0" stop-color="#ffffff"/><stop offset="1.0" stop-color="#ffffff"/></linearGradient><g id="c1"><path stroke="none" fill="url(#gradient21)" d="M84.1 0.55 Q92.45 0.4 96.65 5.15 98.5 7.2 99.5 10.3 100.2 13.65 100.1 14.05 99.8 15.8 96.5 16.7 92.3 17.85 88.0 16.05 L84.6 14.0 82.5 17.4 Q79.65 21.15 75.75 22.95 72.05 24.7 67.05 23.8 L69.65 38.65 79.5 27.5 83.7 54.05 90.5 47.75 93.55 79.45 89.2 58.9 80.65 64.4 77.2 40.1 67.6 51.6 58.3 20.8 57.1 20.1 Q56.6 21.65 55.4 22.85 L61.2 55.55 47.15 49.4 55.45 73.05 45.2 71.95 50.65 92.6 38.85 62.35 47.9 65.05 39.25 38.95 53.35 44.65 47.7 25.85 38.7 25.3 29.3 54.4 19.85 42.75 15.4 71.1 6.95 65.5 2.3 85.95 5.75 54.3 12.45 60.7 17.75 30.15 27.45 41.4 31.25 22.9 Q24.4 20.15 20.55 16.15 L18.05 12.7 Q16.45 13.65 13.6 13.95 7.85 14.55 1.4 11.5 2.45 7.9 4.95 5.25 9.35 0.55 17.2 0.55 L84.1 0.55"/></g></defs><g><g><use transform="matrix(1.0,0.0,0.0,1.0,0.0,0.0)" xlink:href="#c1"/></g></g></svg>