<?xml version='1.0' encoding='UTF-8'?>
<svg xmlns="http://www.w3.org/2000/svg" xmlns:xlink="http://www.w3.org/1999/xlink" version="1.1" width="95px" height="87px" viewBox="3.3 12.65 94.9 86.94999999999999"><defs><g id="c1"><path fill="#ffffff" stroke="none" d="M15.75 87.9 L13.15 93.8 17.2 95.15 10.5 98.55 Q7.1 97.35 4.55 94.8 L3.3 93.35 15.75 87.9 M17.0 92.0 L19.35 86.75 23.1 84.2 25.7 82.85 Q27.3 82.05 28.15 81.05 L30.8 77.35 Q32.5 74.85 32.95 74.6 L33.8 74.15 Q33.3 75.05 33.0 77.4 32.5 82.1 33.8 89.4 L35.45 99.6 17.25 99.6 15.05 99.5 15.0 99.45 Q23.35 93.85 24.2 93.5 L17.0 92.0 M72.7 30.05 L73.85 38.8 Q74.7 38.25 75.3 39.0 76.45 40.45 75.25 46.95 74.45 51.25 73.7 53.35 L72.55 55.75 Q72.1 56.5 71.0 56.8 L69.95 56.9 67.2 66.1 Q66.2 69.65 61.95 74.1 58.55 77.7 56.65 78.7 54.5 79.85 45.6 79.4 41.85 79.2 32.95 65.05 31.3 62.4 30.2 55.6 29.1 55.65 28.35 54.2 L27.05 51.3 Q26.35 50.05 26.05 45.45 25.8 41.95 25.85 39.15 25.9 37.6 27.15 37.6 L28.4 37.9 29.3 29.8 Q31.1 21.1 35.45 18.15 43.55 12.65 53.85 13.5 62.5 14.25 68.0 18.55 70.95 20.85 72.7 30.05 M45.4 48.3 Q46.45 46.85 48.05 41.65 48.45 40.3 50.85 40.5 L52.15 40.65 Q52.7 40.9 52.95 42.3 53.15 43.7 54.9 46.6 L57.3 50.4 Q58.1 51.6 60.2 53.05 62.4 54.6 63.75 54.75 68.9 55.2 71.55 52.0 73.1 50.05 73.55 46.9 73.9 44.6 73.6 42.4 73.2 38.95 68.25 37.2 66.1 36.5 62.75 36.25 L49.3 36.2 35.6 36.4 Q33.85 36.45 31.7 37.4 L29.9 38.3 Q28.3 39.7 27.8 42.45 27.35 44.6 27.7 46.4 28.25 49.1 29.6 51.15 31.85 54.5 35.7 54.35 39.55 54.25 42.35 51.85 L45.4 48.3 M50.35 39.1 L48.7 39.4 47.75 38.1 Q46.8 37.1 45.6 37.05 L55.1 37.05 Q52.65 38.0 52.45 39.0 52.35 39.55 52.05 39.4 L50.35 39.1 M84.3 91.5 L88.1 89.8 85.05 84.45 98.2 90.7 Q97.05 92.95 95.15 94.8 92.7 97.4 89.0 98.65 L90.7 95.5 84.3 91.5 M82.25 92.85 L86.85 95.9 85.45 99.45 82.7 99.6 65.9 99.6 68.1 85.85 Q69.4 78.6 68.85 73.9 68.6 71.5 68.1 70.6 L68.9 71.05 71.05 73.8 73.7 77.5 Q74.55 78.5 76.15 79.3 L78.8 80.7 82.5 83.2 84.85 88.5 77.65 89.95 82.25 92.85 M40.3 93.5 Q37.1 92.7 35.9 90.85 L39.2 89.85 44.1 90.0 Q45.45 91.05 45.75 92.05 L45.75 92.85 57.65 92.65 57.85 91.85 58.4 90.35 Q59.3 88.85 62.35 90.3 65.35 91.7 65.1 92.65 64.9 93.6 62.35 93.55 59.6 93.5 59.25 94.05 L55.75 99.6 47.55 99.6 43.35 94.25 40.3 93.5"/><path fill="#ffffff" fill-opacity="0.8" d="M35.1 76.45 Q35.55 78.2 36.15 79.3 37.5 81.75 39.1 83.05 40.85 84.5 45.3 86.65 L51.9 90.55 55.65 87.75 Q59.85 84.4 61.95 81.95 65.25 78.1 66.4 73.9 66.95 71.8 66.85 70.45 68.05 72.9 68.2 75.85 68.3 77.7 67.35 84.45 L66.35 90.85 64.3 89.25 Q61.85 87.7 60.15 87.9 58.4 88.05 56.9 89.45 L55.7 90.8 47.5 90.85 47.15 90.2 Q46.35 89.25 44.2 87.85 L38.15 87.7 34.7 89.25 33.8 79.35 Q33.75 76.7 34.6 73.25 34.6 74.6 35.1 76.45"/></g></defs><g><g><use transform="matrix(1.0,0.0,0.0,1.0,0.0,0.0)" xlink:href="#c1"/></g></g></svg>