<?xml version='1.0' encoding='UTF-8'?>
<svg xmlns="http://www.w3.org/2000/svg" xmlns:xlink="http://www.w3.org/1999/xlink" version="1.1" width="97px" height="99px" viewBox="-0.15 0.55 97.35000000000001 99.05"><defs><g id="c1"><path fill="#ffffff" stroke="none" d="M14.3 0.55 Q18.4 2.95 22.25 6.7 26.2 10.6 28.2 11.8 31.55 13.8 31.35 15.8 31.15 17.85 32.95 19.0 35.45 20.55 40.4 22.55 L46.45 25.05 Q48.05 25.8 46.7 29.4 45.45 32.75 44.05 33.7 43.1 34.35 44.45 35.7 L46.6 37.5 Q47.65 38.45 47.15 40.15 46.9 41.15 48.55 43.65 48.1 45.1 47.45 45.0 46.75 44.9 43.8 45.95 41.65 46.8 40.2 49.0 38.4 51.8 39.15 55.35 40.45 61.65 43.7 63.4 45.3 64.3 46.65 63.9 L47.55 63.6 49.3 63.4 49.05 66.1 49.65 66.25 Q50.35 66.65 50.7 67.7 51.0 68.6 50.55 69.65 50.05 70.85 50.15 71.5 L51.9 76.45 Q53.4 80.5 52.9 81.65 51.9 84.1 50.75 85.2 48.55 87.3 44.65 87.2 39.55 87.05 35.05 88.15 29.75 89.5 27.05 92.35 24.2 95.45 21.95 99.6 L17.15 99.6 12.45 99.1 9.4 99.1 9.75 98.25 9.25 98.05 Q6.6 96.95 4.45 94.8 -0.15 90.2 -0.15 82.45 L-0.15 17.6 Q-0.15 9.85 4.25 5.15 8.0 1.15 14.3 0.55"/><path fill="#ffffff" stroke="none" d="M62.5 72.55 Q62.7 70.75 63.05 68.95 63.25 67.85 64.8 65.9 66.4 68.8 70.25 70.65 78.05 74.35 75.0 83.85 73.2 89.45 68.45 95.45 L68.35 95.0 Q70.6 89.4 71.05 84.85 71.75 77.3 66.9 75.25 64.5 74.25 62.5 72.55"/><path fill="#ffffff" stroke="none" d="M84.35 55.1 Q87.15 55.0 92.45 62.0 95.1 65.55 97.2 69.05 95.35 66.85 92.55 64.7 86.9 60.4 82.05 60.75 L74.1 61.1 67.6 59.75 68.35 55.85 69.1 52.35 Q74.15 55.35 84.35 55.1"/><path fill="#ffffff" stroke="none" d="M59.4 16.1 Q62.95 12.55 68.7 9.35 L68.95 9.55 Q66.0 13.15 64.7 16.6 62.5 22.45 65.55 26.5 68.35 30.2 64.15 39.5 60.85 34.25 58.75 32.8 59.45 29.85 56.9 26.55 53.45 22.1 59.4 16.1"/><path fill="#ffffff" stroke="none" d="M74.85 32.3 Q76.45 28.15 83.5 29.05 88.25 29.65 94.8 32.35 L96.15 33.45 85.4 33.15 Q78.2 34.35 77.0 39.95 75.5 47.1 69.35 49.3 69.2 47.9 68.6 47.05 L65.5 41.8 Q72.0 39.9 74.85 32.3"/></g></defs><g><g><use transform="matrix(1.0,0.0,0.0,1.0,0.0,0.0)" xlink:href="#c1"/></g></g></svg>