<?xml version='1.0' encoding='UTF-8'?>
<svg xmlns="http://www.w3.org/2000/svg" xmlns:xlink="http://www.w3.org/1999/xlink" version="1.1" width="100px" height="99px" viewBox="0.05 0.45 99.95 99.1"><defs><g id="c1"><path fill="#ffffff" stroke="none" d="M89.6 41.15 Q90.4 44.3 90.4 48.7 90.4 53.1 89.6 56.25 88.8 59.4 87.65 59.4 86.5 59.4 85.65 56.25 84.85 53.15 84.85 48.7 84.85 44.25 85.65 41.15 86.5 38.0 87.65 38.0 88.8 38.0 89.6 41.15"/><path fill="#ffffff" stroke="none" d="M33.8 30.35 Q29.75 30.35 26.9 35.7 24.0 41.1 24.0 48.7 24.0 56.3 26.9 61.7 29.75 67.05 33.8 67.05 35.95 67.05 37.95 65.3 L36.3 65.3 Q31.85 65.3 29.3 60.15 27.05 55.5 27.1 48.8 27.15 42.1 29.45 37.4 32.05 32.25 36.3 32.25 L38.1 32.25 Q36.05 30.35 33.8 30.35 M48.35 39.45 Q49.85 35.6 51.95 35.35 L36.55 35.35 Q33.45 35.35 31.6 39.5 29.95 43.3 29.9 48.7 29.9 54.15 31.55 57.9 33.35 62.05 36.55 62.05 L51.95 62.05 Q49.8 61.8 48.35 57.95 46.85 54.05 46.85 48.7 46.85 43.35 48.35 39.45 M98.8 9.8 Q99.55 11.85 99.75 13.85 L85.0 20.15 Q76.35 23.95 73.85 25.7 75.8 26.5 86.85 23.6 L100.0 20.3 100.0 74.15 99.8 74.15 Q97.55 74.5 86.7 72.35 76.15 70.3 73.85 70.85 75.9 73.0 94.0 80.45 96.05 81.25 99.95 83.35 99.85 85.9 99.3 87.9 L41.45 70.45 77.15 99.55 46.7 99.55 8.3 59.45 20.35 82.5 Q19.5 81.25 13.0 76.45 L0.05 67.35 0.05 32.0 Q8.9 27.7 16.05 23.8 23.65 19.7 25.0 18.3 L8.3 38.15 60.45 0.45 78.0 0.45 40.15 27.3 98.8 9.8 M91.15 39.25 Q89.6 35.35 87.4 35.35 L54.25 35.35 Q52.1 35.6 50.65 39.45 49.15 43.3 49.15 48.7 49.15 54.05 50.65 57.95 52.1 61.8 54.25 62.05 L87.4 62.05 Q89.6 62.05 91.15 58.15 92.7 54.25 92.7 48.7 92.7 43.2 91.15 39.25"/><path fill="#ffffff" stroke="none" d="M81.2 43.75 L33.6 43.75 35.55 39.45 83.1 39.45 81.2 43.75"/></g></defs><g><g><use transform="matrix(1.0,0.0,0.0,1.0,0.0,0.0)" xlink:href="#c1"/></g></g></svg>