<?xml version='1.0' encoding='UTF-8'?>
<svg xmlns="http://www.w3.org/2000/svg" xmlns:xlink="http://www.w3.org/1999/xlink" version="1.1" width="95px" height="95px" viewBox="2.7 2.7 94.55 94.6"><defs><g id="c1"><path fill="#ffffff" stroke="none" d="M26.05 30.2 L23.4 36.8 16.6 16.5 36.8 23.45 30.15 26.1 47.1 43.0 47.1 19.05 40.55 21.85 50.05 2.7 59.45 21.85 52.9 19.05 52.9 43.0 69.8 26.1 63.2 23.45 83.45 16.6 76.55 36.8 73.9 30.2 57.0 47.1 80.9 47.1 78.1 40.55 97.25 50.05 78.1 59.45 80.9 52.9 57.0 52.9 73.9 69.8 76.55 63.2 83.45 83.35 63.2 76.55 69.8 73.9 52.9 57.0 52.9 80.9 59.45 78.1 50.05 97.3 40.55 78.1 47.1 80.9 47.1 57.0 30.15 73.9 36.75 76.55 16.6 83.5 23.4 63.2 26.05 69.8 43.0 52.9 19.05 52.9 21.85 59.45 2.7 50.05 21.85 40.55 19.05 47.1 43.0 47.1 26.05 30.2"/></g></defs><g><g><use transform="matrix(1.0,0.0,0.0,1.0,0.0,0.0)" xlink:href="#c1"/></g></g></svg>