<?xml version='1.0' encoding='UTF-8'?>
<svg xmlns="http://www.w3.org/2000/svg" xmlns:xlink="http://www.w3.org/1999/xlink" version="1.1" width="84px" height="78px" viewBox="7.25 9.75 84.2 78.2"><defs><g id="c1"><path fill="#ffffff" stroke="none" d="M68.75 17.65 L69.3 19.95 74.25 18.55 79.2 17.15 Q78.55 14.6 74.7 14.25 71.15 13.9 68.1 15.4 L68.75 17.65 M45.55 22.1 L46.15 24.4 46.75 26.65 56.65 23.8 66.55 20.9 66.0 18.4 Q65.6 17.0 64.95 16.35 L55.35 19.3 45.55 22.1 M69.5 10.25 Q76.45 9.75 82.3 11.7 88.15 13.65 91.45 17.55 88.25 30.95 72.45 37.75 L67.7 39.75 63.0 41.1 61.55 41.05 60.2 41.1 Q59.65 41.25 59.15 41.75 L58.25 42.5 56.45 43.0 54.65 43.45 53.7 43.45 52.7 43.25 Q52.1 43.35 51.4 43.95 L50.1 44.85 47.8 45.45 Q46.25 45.7 45.55 46.05 L41.4 32.55 Q38.7 24.3 37.7 18.55 L40.9 17.75 44.2 17.15 45.55 16.5 46.95 15.8 50.1 15.2 53.1 14.6 53.7 14.15 54.25 13.6 Q56.15 12.55 61.45 11.45 L69.5 10.25"/><path fill="#ffffff" stroke="none" d="M33.2 32.15 Q31.75 34.0 24.3 38.8 20.6 41.2 18.25 45.0 15.9 48.75 15.5 52.8 14.5 63.85 23.3 73.75 30.25 81.6 41.9 87.35 37.7 85.35 39.5 86.6 41.5 87.9 43.1 87.95 33.85 87.9 23.45 79.7 13.35 71.7 10.65 63.05 7.25 52.0 14.4 40.45 20.6 30.35 32.35 23.3 36.15 28.35 33.2 32.15"/><path fill="#ffffff" stroke="none" d="M59.4 87.85 Q57.85 87.2 57.75 87.55 57.65 87.9 59.1 87.95 49.3 87.8 40.3 82.6 31.4 77.55 26.85 69.75 22.05 61.6 24.15 53.95 26.5 45.4 37.1 39.9 42.35 42.8 38.7 46.2 36.65 48.1 31.55 51.45 27.9 55.15 28.4 60.7 28.75 65.45 31.95 70.05 35.95 75.75 44.45 80.6 L59.4 87.85"/></g></defs><g><g><use transform="matrix(1.0,0.0,0.0,1.0,0.0,0.0)" xlink:href="#c1"/></g></g></svg>