<?xml version='1.0' encoding='UTF-8'?>
<svg xmlns="http://www.w3.org/2000/svg" xmlns:xlink="http://www.w3.org/1999/xlink" version="1.1" width="57px" height="79px" viewBox="21.2 10.35 56.8 79.25"><defs><g id="c1"><path fill="#ffffff" stroke="none" d="M56.45 14.45 Q55.7 16.3 55.6 17.5 58.3 20.1 59.85 23.2 61.5 26.45 62.1 30.85 L59.05 30.85 56.5 30.55 Q55.6 30.2 54.3 28.85 L52.4 27.05 Q51.45 27.1 50.35 27.6 49.25 28.1 48.7 28.75 L47.3 30.85 Q46.5 32.4 46.55 33.5 46.55 34.3 47.3 36.5 47.95 38.4 47.75 39.45 47.55 40.7 46.75 42.0 45.8 43.45 45.55 44.4 48.05 42.85 49.6 40.85 L50.55 39.75 51.2 38.35 Q51.25 37.8 50.7 36.7 50.05 35.5 50.0 34.85 49.85 33.2 50.2 32.55 50.4 32.1 51.7 31.15 52.55 31.1 53.35 31.95 L54.8 33.3 Q55.95 33.9 60.6 34.3 66.6 34.85 77.15 30.85 77.7 31.2 77.9 32.2 L78.0 34.15 73.55 35.05 76.15 36.9 Q77.75 38.1 76.95 39.25 71.3 37.5 66.6 37.2 60.3 36.8 57.85 39.3 57.15 40.05 56.3 41.95 55.5 43.75 55.4 44.7 55.15 46.7 56.55 50.1 58.0 53.55 57.85 55.5 57.8 56.65 56.9 58.95 56.0 61.2 55.95 62.9 55.9 64.9 56.3 67.3 56.75 69.7 57.4 71.1 L58.9 73.55 Q59.6 75.05 59.3 77.35 58.9 79.95 56.7 82.55 L52.5 86.9 Q55.25 86.8 56.8 85.55 L59.5 83.25 61.5 81.0 Q62.0 79.95 62.1 77.25 63.8 78.85 65.3 79.2 L68.95 79.35 Q67.2 78.6 66.35 77.4 L65.1 75.7 Q62.4 73.65 61.15 71.55 59.5 68.85 59.45 65.1 L59.4 61.7 Q59.4 60.75 59.9 58.5 L61.2 58.9 62.3 59.9 Q63.05 60.7 63.5 61.9 L64.2 64.35 Q65.7 69.5 71.4 69.25 71.2 68.55 70.0 67.55 L68.25 66.2 Q67.65 64.95 67.1 62.65 66.65 60.5 65.95 59.35 65.2 58.05 63.35 56.8 L60.35 54.65 59.95 51.7 Q59.6 50.1 58.9 49.35 59.65 49.3 61.25 50.3 63.05 51.4 64.25 51.6 L68.85 51.5 Q71.0 51.05 72.25 49.95 72.3 51.15 73.85 52.9 75.55 54.85 75.75 55.7 76.25 58.2 76.15 65.35 76.85 81.1 70.4 86.1 69.75 86.6 66.3 88.15 L64.05 89.1 Q62.8 89.55 61.75 89.6 L59.1 89.25 56.45 88.75 50.9 87.95 49.45 87.2 Q48.55 86.65 48.0 86.5 L43.7 85.45 Q40.25 84.3 38.3 83.35 35.45 81.95 34.05 80.35 L33.15 80.05 32.2 79.7 Q30.1 76.85 29.3 73.85 28.2 69.9 29.95 67.4 L31.0 69.1 Q32.15 71.6 32.65 72.25 32.45 73.65 33.05 75.3 33.7 77.25 34.95 77.55 34.65 76.5 34.65 75.15 L34.7 72.4 Q35.8 73.0 37.05 75.35 38.6 78.35 39.05 78.85 39.2 78.3 38.75 76.05 L37.95 73.2 Q41.05 73.3 43.3 74.4 42.25 72.55 38.5 71.6 35.0 70.7 33.05 67.75 31.0 64.75 32.55 62.35 33.55 64.5 36.65 67.1 40.1 70.05 41.1 71.55 41.55 70.4 40.55 68.85 39.4 67.2 39.4 66.9 41.35 66.6 44.3 68.65 44.05 66.8 41.95 65.95 L38.25 64.75 Q37.1 64.25 36.0 62.85 34.95 61.45 34.75 60.3 34.4 57.75 35.6 55.8 36.35 54.55 38.55 52.6 L39.7 54.75 Q40.55 56.05 40.7 57.2 L40.9 59.25 Q40.95 62.9 43.7 65.35 44.25 64.4 43.85 63.35 L43.05 61.65 Q42.7 60.8 42.7 59.8 L42.75 57.45 Q43.5 58.5 46.0 59.35 48.35 60.2 49.05 61.45 48.35 58.45 43.5 56.15 L41.5 53.7 Q40.05 51.95 40.1 50.55 40.15 50.15 41.75 47.35 42.85 45.45 41.3 44.0 40.25 44.9 39.3 46.3 L36.8 49.6 34.1 53.0 Q30.05 58.75 29.1 64.0 27.3 65.55 26.7 66.85 25.85 68.6 26.25 71.25 26.5 72.8 27.55 75.0 28.35 76.8 29.25 78.1 28.45 78.2 27.9 77.05 L27.0 75.15 25.75 72.9 24.8 70.05 Q21.2 60.65 22.35 53.25 22.9 49.6 26.0 44.6 29.0 39.7 29.3 37.2 L29.45 33.5 29.5 29.8 30.35 25.3 Q30.9 22.3 31.2 21.6 31.9 19.8 33.4 19.55 36.15 19.05 38.65 21.35 38.55 22.9 36.95 26.6 35.3 30.35 35.1 32.4 34.9 34.9 35.75 37.75 36.7 40.8 38.15 41.75 L38.0 37.95 Q37.8 35.45 37.95 33.6 38.25 29.6 40.45 25.9 41.95 23.4 41.25 20.55 40.9 19.3 39.5 17.05 38.15 14.9 37.75 13.2 38.85 13.3 40.1 12.25 41.3 11.25 42.05 11.35 43.1 11.5 45.1 15.9 47.2 20.55 48.0 21.0 49.5 20.35 50.15 16.35 L50.7 10.5 Q51.4 10.35 51.65 11.15 51.95 12.05 52.5 12.15 L54.9 12.0 57.25 11.35 Q57.2 12.6 56.45 14.45 M32.45 21.0 Q32.65 23.1 34.6 23.35 36.45 23.6 37.4 22.25 37.45 21.55 36.6 21.45 L34.95 21.4 Q33.35 20.15 32.45 21.0"/><path fill="#ffffff" stroke="none" d="M67.85 39.45 Q68.1 40.95 69.5 43.0 70.95 45.05 71.2 46.5 69.75 49.9 64.8 48.75 60.0 47.65 58.95 44.65 59.55 41.8 61.95 40.35 64.4 38.95 67.85 39.45"/></g></defs><g><g><use transform="matrix(1.0,0.0,0.0,1.0,0.0,0.0)" xlink:href="#c1"/></g></g></svg>