<?xml version='1.0' encoding='UTF-8'?>
<svg xmlns="http://www.w3.org/2000/svg" xmlns:xlink="http://www.w3.org/1999/xlink" version="1.1" width="100px" height="89px" viewBox="0.05 10.8 100.0 88.7"><defs><g id="c1"><path fill="#ffffff" stroke="none" d="M13.05 72.3 L22.9 71.9 21.6 75.05 13.8 75.3 Q5.6 76.15 0.05 74.2 L0.05 70.4 Q6.25 73.15 13.05 72.3"/><path fill="#ffffff" stroke="none" d="M0.5 86.65 L0.25 85.15 Q6.65 84.65 10.3 83.35 L18.55 80.5 26.25 78.9 42.9 80.0 57.75 80.15 Q64.35 79.75 67.15 78.25 72.6 80.3 84.05 79.65 92.05 79.15 100.05 83.05 L99.95 84.6 Q91.5 82.3 81.7 83.15 73.25 83.85 67.4 83.1 L63.3 82.2 62.6 83.0 Q62.0 83.95 62.2 84.8 62.8 87.55 71.55 88.15 80.35 88.75 78.8 93.8 77.95 96.6 74.8 99.5 L74.7 99.5 Q74.85 97.35 73.1 95.4 70.0 91.8 62.0 91.15 56.75 90.8 52.75 87.35 L49.8 84.0 45.75 86.05 Q42.45 88.75 46.05 92.15 48.75 94.7 36.4 97.1 L19.55 99.5 19.05 99.5 Q26.65 98.05 31.75 96.2 40.85 92.85 36.15 89.85 31.65 87.0 34.5 84.3 L38.25 82.2 Q36.2 81.85 32.0 82.2 23.7 82.95 13.25 86.4 10.45 87.3 0.5 86.65"/><path fill="#ffffff" stroke="none" d="M54.95 61.4 Q55.0 60.0 54.35 59.95 54.15 60.25 51.65 60.55 49.25 60.9 49.15 61.4 51.45 63.8 53.75 69.35 L54.55 65.95 Q55.0 64.2 54.9 63.6 L54.95 61.4 M63.15 10.85 Q63.95 10.8 64.8 11.3 66.2 11.75 67.95 13.85 70.1 16.3 69.85 18.6 69.8 19.3 68.5 20.8 67.35 22.2 67.45 25.1 65.65 24.0 64.7 24.8 L63.1 26.45 Q62.45 26.6 61.65 25.75 61.0 25.05 60.3 25.6 59.95 25.95 60.2 27.05 60.4 28.1 60.85 28.45 L60.5 29.25 60.0 29.85 Q60.4 31.0 60.3 32.75 60.15 34.75 60.3 35.45 60.65 37.45 56.55 51.25 L61.7 50.2 Q66.9 49.6 67.0 51.65 67.3 56.5 66.4 60.9 65.25 66.4 62.7 67.25 L60.35 68.0 Q59.8 68.75 61.55 72.45 L64.05 73.0 Q66.4 73.75 65.9 75.7 65.8 76.2 65.05 76.25 L58.8 76.6 Q54.4 76.55 53.6 75.0 53.35 75.05 53.55 75.75 53.75 76.5 53.55 76.55 L43.95 76.55 Q42.35 76.55 37.55 73.45 L33.1 70.3 30.5 74.7 Q29.7 75.6 28.45 75.55 L26.15 75.15 Q25.8 74.45 26.95 71.7 L28.55 67.9 Q28.7 67.2 28.1 66.8 27.5 66.5 27.75 66.1 L28.9 64.1 Q29.45 62.7 30.2 62.3 31.3 62.0 32.1 63.3 33.15 64.95 33.85 65.3 L37.8 65.8 Q41.0 66.05 43.35 67.45 43.15 66.85 40.25 64.1 37.3 61.3 36.95 60.25 L33.65 58.9 Q32.15 58.0 31.85 56.55 31.35 54.0 32.15 51.2 32.8 49.1 34.7 45.6 36.5 40.05 39.0 34.8 43.85 24.5 49.55 21.45 51.0 20.7 52.35 20.65 L54.35 20.8 Q54.9 20.85 55.9 19.85 56.95 18.8 57.45 18.85 58.5 12.5 61.7 11.3 L63.15 10.85"/></g></defs><g><g><use transform="matrix(1.0,0.0,0.0,1.0,0.0,0.0)" xlink:href="#c1"/></g></g></svg>