<?xml version='1.0' encoding='UTF-8'?>
<svg xmlns="http://www.w3.org/2000/svg" xmlns:xlink="http://www.w3.org/1999/xlink" version="1.1" width="100px" height="84px" viewBox="0.1 15.25 100.0 84.2"><defs><g id="c1"><path fill="#ffffff" stroke="none" d="M50.95 15.25 Q64.5 15.25 74.05 24.8 83.65 34.35 83.65 47.9 83.65 56.4 79.55 63.8 75.6 70.9 68.7 75.35 L90.35 75.35 Q94.2 75.9 100.1 80.65 L100.1 82.3 Q100.1 90.1 95.3 94.65 90.65 99.45 82.85 99.45 L17.4 99.45 12.7 98.95 10.9 98.65 Q9.9 98.35 10.0 98.1 L9.5 97.9 Q6.85 96.8 4.7 94.65 0.1 90.05 0.1 82.3 L0.1 80.95 Q5.6 75.65 9.05 75.35 L33.25 75.35 Q26.35 70.9 22.4 63.8 18.3 56.4 18.3 47.9 18.3 34.35 27.9 24.8 37.45 15.25 50.95 15.25 M69.9 29.0 Q62.55 21.65 52.1 21.2 L52.1 43.2 Q52.1 43.7 51.75 44.0 51.45 44.35 50.95 44.35 50.5 44.35 50.2 44.0 49.85 43.7 49.85 43.2 L49.85 21.2 Q39.45 21.65 32.05 29.0 24.7 36.35 24.25 46.75 L45.2 46.75 Q45.65 46.75 46.0 47.1 L46.35 47.9 46.0 48.7 Q45.65 49.05 45.2 49.05 L24.25 49.05 Q24.7 59.45 32.05 66.8 39.45 74.2 49.85 74.6 L49.85 54.1 Q49.85 53.6 50.2 53.3 50.5 52.95 50.95 52.95 51.45 52.95 51.75 53.3 52.1 53.6 52.1 54.1 L52.1 74.6 Q62.5 74.2 69.9 66.8 77.25 59.45 77.65 49.05 L56.5 49.05 55.7 48.7 Q55.35 48.4 55.35 47.9 55.35 47.45 55.7 47.1 56.0 46.75 56.5 46.75 L77.65 46.75 Q77.25 36.35 69.9 29.0"/></g></defs><g><g><use transform="matrix(1.0,0.0,0.0,1.0,0.0,0.0)" xlink:href="#c1"/></g></g></svg>