<?xml version='1.0' encoding='UTF-8'?>
<svg xmlns="http://www.w3.org/2000/svg" xmlns:xlink="http://www.w3.org/1999/xlink" version="1.1" width="80px" height="78px" viewBox="8.95 13.35 79.85 78.35000000000001"><defs><g id="c1"><path fill="#ffffff" stroke="none" d="M27.25 76.65 Q25.55 74.95 23.15 74.95 20.7 74.95 19.0 76.65 17.3 78.35 17.3 80.75 17.3 83.2 19.0 84.9 20.7 86.6 23.15 86.6 25.55 86.6 27.25 84.9 28.95 83.2 28.95 80.75 28.95 78.35 27.25 76.65 M41.7 72.9 L78.55 72.9 Q84.0 73.0 85.85 78.0 86.8 80.5 86.65 82.95 L86.65 88.1 87.7 89.25 Q88.7 90.5 88.75 91.1 88.8 91.7 86.3 91.45 L10.75 91.45 9.1 91.1 8.95 90.8 12.55 88.1 12.65 82.0 Q12.45 79.75 13.45 77.45 15.5 72.9 21.7 72.9 L41.7 72.9 M45.8 76.65 Q44.1 74.95 41.65 74.95 39.25 74.95 37.55 76.65 35.85 78.35 35.85 80.75 35.85 83.2 37.55 84.9 39.25 86.6 41.65 86.6 44.1 86.6 45.8 84.9 47.5 83.2 47.5 80.75 47.5 78.35 45.8 76.65 M71.05 80.55 Q71.05 83.0 72.8 84.7 74.5 86.4 76.9 86.4 79.3 86.4 81.05 84.7 82.75 83.0 82.75 80.55 82.75 78.15 81.05 76.45 79.3 74.75 76.9 74.75 74.5 74.75 72.8 76.45 71.05 78.15 71.05 80.55 M64.55 80.55 Q64.55 78.15 62.85 76.45 61.1 74.75 58.7 74.75 56.3 74.75 54.6 76.45 52.85 78.15 52.85 80.55 52.85 83.0 54.6 84.7 56.3 86.4 58.7 86.4 61.1 86.4 62.85 84.7 64.55 83.0 64.55 80.55"/><path fill="#ffffff" stroke="none" d="M21.8 14.2 L22.05 13.9 22.05 13.85 Q22.25 13.35 22.9 13.4 L23.7 13.9 24.5 16.15 25.0 18.05 Q25.65 19.75 26.05 22.6 L26.6 27.25 Q27.85 35.05 27.7 41.3 28.55 42.05 29.2 43.4 29.9 44.85 30.55 45.5 30.05 50.6 30.05 57.3 L30.3 69.1 22.75 69.1 22.45 65.3 22.35 63.75 22.2 60.55 Q22.7 56.65 22.25 52.55 22.4 49.05 23.0 46.4 23.25 45.35 22.15 45.05 21.05 44.7 20.8 45.8 L20.75 46.15 20.6 46.3 20.65 46.9 Q19.75 51.7 19.9 58.0 L20.5 69.15 20.2 69.15 Q18.05 69.2 16.15 70.25 L16.2 43.7 17.5 42.1 18.15 40.5 Q18.1 29.45 21.35 14.7 L21.65 14.5 21.8 14.2"/><path fill="#ffffff" stroke="none" d="M39.85 14.7 L40.1 14.5 40.25 14.2 40.5 13.9 40.5 13.85 Q40.75 13.35 41.35 13.4 41.9 13.45 42.15 13.9 L43.5 18.05 Q44.15 19.75 44.55 22.6 L45.1 27.25 Q46.3 34.8 46.15 41.3 47.0 42.05 47.65 43.4 48.35 44.85 49.0 45.5 48.5 50.65 48.5 57.3 L48.8 69.15 41.2 69.1 40.65 60.55 Q41.25 56.65 40.7 52.55 40.85 49.5 41.45 46.4 41.7 45.35 40.6 45.05 39.5 44.7 39.3 45.8 L39.2 46.15 39.05 46.3 39.1 46.9 Q38.2 51.7 38.35 58.0 38.4 60.35 39.0 69.1 L34.65 69.1 34.75 56.4 34.65 43.7 35.95 42.1 36.6 40.5 Q36.55 29.7 39.85 14.7"/><path fill="#ffffff" stroke="none" d="M60.3 18.05 Q60.95 19.75 61.35 22.6 L61.9 27.25 Q63.1 34.8 62.95 41.3 63.8 42.05 64.45 43.4 65.15 44.85 65.8 45.5 65.3 50.65 65.3 57.3 L65.6 69.1 58.0 69.15 57.45 60.55 Q58.05 56.65 57.5 52.55 57.65 49.5 58.25 46.4 58.5 45.35 57.4 45.05 56.3 44.7 56.1 45.8 L56.0 46.15 55.9 46.3 55.9 46.9 Q55.0 51.75 55.15 58.0 55.2 60.3 55.8 69.15 L51.45 69.15 51.55 56.4 51.45 43.7 Q52.25 43.05 52.75 42.1 L53.4 40.5 Q53.35 29.7 56.65 14.7 L56.9 14.5 57.3 13.9 57.3 13.85 Q57.55 13.35 58.15 13.4 L58.95 13.9 60.3 18.05"/><path fill="#ffffff" stroke="none" d="M79.8 22.6 L80.35 27.25 Q81.55 34.65 81.45 41.3 82.3 42.05 82.95 43.4 83.65 44.85 84.25 45.5 83.7 51.0 83.8 58.4 L84.1 71.3 81.1 69.65 Q79.85 69.2 78.35 69.1 L76.5 69.1 76.2 65.3 76.1 63.75 75.95 60.55 Q76.5 56.55 75.95 52.55 76.25 48.8 76.75 46.4 77.0 45.35 75.9 45.05 74.8 44.7 74.55 45.8 L74.5 46.15 74.35 46.3 74.35 46.9 Q73.5 51.7 73.65 57.95 L74.25 69.1 69.9 69.1 70.0 56.4 69.9 43.7 71.2 42.1 71.9 40.5 Q71.85 29.45 75.1 14.7 L75.4 14.5 75.5 14.2 75.75 13.9 75.75 13.85 Q76.0 13.35 76.6 13.4 77.15 13.45 77.4 13.9 L78.75 18.05 Q79.4 19.75 79.8 22.6"/></g></defs><g><g><use transform="matrix(1.0,0.0,0.0,1.0,0.0,0.0)" xlink:href="#c1"/></g></g></svg>