<?xml version='1.0' encoding='UTF-8'?>
<svg xmlns="http://www.w3.org/2000/svg" xmlns:xlink="http://www.w3.org/1999/xlink" version="1.1" width="87px" height="94px" viewBox="9.55 3.35 86.75 94.30000000000001"><defs><g id="c1"><path fill="#ffffff" stroke="none" d="M30.15 84.4 Q29.1 91.25 26.75 97.65 L18.7 97.65 Q17.45 87.8 16.0 82.7 16.8 81.15 18.95 80.55 L22.9 79.8 Q25.1 79.3 29.05 77.15 34.15 74.4 34.55 74.2 L32.05 78.9 Q30.55 81.9 30.15 84.4"/><path fill="#ffffff" stroke="none" d="M68.6 88.95 Q68.8 90.1 67.25 93.3 65.5 96.95 65.4 97.65 L49.6 97.65 50.65 95.3 Q51.3 93.9 51.35 92.7 54.05 90.05 55.6 87.55 57.55 84.45 58.25 80.8 59.15 81.9 63.15 84.25 66.5 86.2 67.3 88.4 68.4 88.65 68.6 88.95"/><path fill="#ffffff" stroke="none" d="M60.5 15.9 Q64.5 7.75 67.4 3.35 L62.6 25.45 Q66.15 23.3 71.2 23.65 77.15 24.0 77.2 28.7 86.0 21.35 94.3 13.55 L85.35 27.7 76.05 41.95 77.85 44.95 Q78.75 46.8 78.75 48.9 86.35 46.3 96.2 45.25 96.3 45.65 95.55 46.45 L94.1 47.75 74.7 65.0 76.05 66.85 Q76.6 68.05 76.4 69.65 L78.4 71.1 80.25 72.7 87.35 71.05 95.05 70.4 Q87.75 74.8 75.05 83.3 72.9 82.1 71.25 80.1 L68.15 75.8 64.8 71.55 63.5 69.5 62.0 67.6 Q58.5 64.5 55.65 65.25 55.55 64.0 56.45 62.6 L57.8 60.25 Q58.2 59.0 56.4 56.0 57.5 55.6 58.35 54.85 59.6 53.7 59.9 51.9 60.2 50.05 59.4 48.5 L58.9 47.1 Q58.55 46.25 57.95 46.2 L56.7 46.35 55.35 46.6 55.25 46.6 Q56.55 45.3 56.6 42.55 L56.4 40.05 51.9 42.85 Q51.45 43.4 50.5 46.4 49.6 49.3 49.0 49.85 49.2 50.3 50.9 48.95 52.8 47.45 53.15 47.5 53.6 47.8 53.3 48.35 52.9 49.1 53.0 49.5 53.15 50.1 50.75 52.0 48.25 54.05 48.15 54.45 47.1 53.05 45.95 50.0 45.25 48.2 44.9 49.25 L44.9 50.25 44.9 51.4 Q44.75 52.35 43.85 54.25 L42.4 57.35 41.7 59.05 Q41.25 60.3 41.45 61.55 41.55 62.2 42.2 63.15 L43.0 64.65 40.85 64.75 38.95 64.25 Q35.55 63.9 31.6 65.85 L25.3 68.85 Q20.65 72.95 14.75 74.45 13.4 72.9 12.65 69.7 12.2 67.85 11.5 63.85 10.4 59.5 9.55 52.15 10.3 52.55 10.8 53.7 L11.65 55.6 Q14.4 60.0 15.3 63.85 L17.3 60.3 Q18.55 58.3 20.1 57.55 L18.4 31.0 Q21.2 36.25 24.55 44.25 L28.75 41.2 Q31.3 39.5 33.75 38.9 37.75 27.8 41.25 16.4 41.85 18.6 42.25 22.5 L43.0 28.9 Q44.6 27.05 48.35 27.0 52.05 27.0 53.95 28.7 L60.5 15.9"/></g></defs><g><g><use transform="matrix(1.0,0.0,0.0,1.0,0.0,0.0)" xlink:href="#c1"/></g></g></svg>