<?xml version='1.0' encoding='UTF-8'?>
<svg xmlns="http://www.w3.org/2000/svg" xmlns:xlink="http://www.w3.org/1999/xlink" version="1.1" width="71px" height="87px" viewBox="14.9 5.35 70.8 86.85000000000001"><defs><g id="c1"><path fill="#ffffff" fill-opacity="0.8" d="M85.3 34.25 L82.7 45.55 69.05 66.65 84.7 58.0 65.5 77.75 65.75 60.7 66.0 32.3 Q66.0 24.95 50.3 25.6 34.6 24.95 34.6 32.3 L34.85 60.7 35.05 77.75 15.9 58.0 31.15 65.0 17.9 45.55 15.3 34.25 27.7 41.55 14.9 10.35 33.75 23.25 38.3 5.35 54.1 19.8 64.3 6.5 67.2 19.75 73.95 17.0 85.7 10.35 71.15 45.5 85.3 34.25"/><path fill="#ffffff" stroke="none" d="M40.2 87.2 Q44.45 89.35 50.55 89.4 56.65 89.45 60.85 87.35 65.55 85.05 65.55 81.0 L65.55 79.45 Q67.2 81.35 67.2 83.3 67.2 87.0 62.3 89.6 57.4 92.2 50.45 92.2 43.55 92.2 38.65 89.6 33.75 87.0 33.75 83.3 33.75 81.25 35.5 79.35 L35.5 81.0 Q35.5 84.9 40.2 87.2"/><path fill="#ffffff" stroke="none" d="M41.85 31.0 Q45.45 29.55 50.45 29.55 55.5 29.55 59.1 31.0 62.65 32.4 62.65 34.4 L62.65 64.6 Q62.4 66.55 58.9 67.9 55.35 69.25 50.45 69.25 L45.95 68.9 45.95 40.05 42.05 38.3 42.05 67.9 Q38.55 66.55 38.3 64.6 L38.3 34.4 Q38.3 32.4 41.85 31.0 M43.6 36.0 L50.45 36.7 57.35 36.0 Q60.2 35.25 60.2 34.2 60.2 33.15 57.35 32.4 L50.45 31.65 Q46.45 31.65 43.6 32.4 40.75 33.15 40.75 34.2 40.75 35.25 43.6 36.0"/><path fill="#ffffff" stroke="none" d="M58.9 70.0 Q62.4 68.65 62.65 66.7 L62.65 80.75 Q62.65 83.65 58.85 85.35 55.45 86.85 50.5 86.8 45.55 86.75 42.1 85.25 38.3 83.55 38.3 80.75 L38.3 66.65 Q38.55 68.6 42.05 69.95 L42.05 81.65 45.95 83.45 45.95 70.95 50.45 71.3 Q55.35 71.3 58.9 70.0"/></g></defs><g><g><use transform="matrix(1.0,0.0,0.0,1.0,0.0,0.0)" xlink:href="#c1"/></g></g></svg>