<?xml version='1.0' encoding='UTF-8'?>
<svg xmlns="http://www.w3.org/2000/svg" xmlns:xlink="http://www.w3.org/1999/xlink" version="1.1" width="66px" height="86px" viewBox="17.1 6.5 65.75 86.0"><defs><g id="c1"><path fill="#ffffff" stroke="none" d="M17.25 29.7 Q17.35 18.9 18.2 17.4 18.9 16.3 33.8 11.4 48.85 6.5 50.7 6.8 53.3 7.2 66.85 11.6 80.9 16.25 81.65 17.2 82.8 18.7 82.85 29.85 L82.65 43.3 Q82.0 61.7 66.75 78.7 61.55 84.5 55.85 88.85 51.1 92.5 50.05 92.4 49.0 92.4 44.35 89.05 38.65 84.8 33.75 79.4 18.85 62.9 17.4 43.3 17.1 37.75 17.25 29.7 M34.75 13.85 Q20.85 18.4 20.15 19.55 19.65 20.4 19.35 29.35 L19.2 40.15 Q18.9 59.15 33.9 76.6 38.8 82.3 44.5 86.9 49.15 90.55 49.95 90.55 50.7 90.65 55.15 87.0 60.4 82.75 65.15 77.4 79.45 61.6 80.5 47.0 81.05 39.5 80.5 25.85 L80.4 22.2 Q80.25 20.15 79.7 19.35 79.15 18.6 64.9 14.0 L50.7 9.55 Q48.65 9.25 34.75 13.85"/><path fill="#ffffff" stroke="none" d="M45.0 59.7 Q45.8 63.1 47.55 64.8 L44.05 63.4 Q43.5 62.8 43.05 61.45 42.1 58.75 42.6 55.2 43.1 51.65 44.55 49.1 45.25 47.85 45.85 47.3 L48.1 44.4 Q43.4 52.85 45.0 59.7"/><path fill="#ffffff" stroke="none" d="M51.35 33.2 L50.35 29.05 Q50.05 28.5 49.7 29.05 L48.7 33.2 Q46.85 38.6 42.7 44.8 35.7 55.25 39.65 63.4 41.2 66.6 44.15 68.55 46.9 70.4 49.7 70.4 L50.35 70.4 Q53.15 70.4 55.9 68.55 58.85 66.6 60.4 63.4 64.35 55.25 57.35 44.8 53.2 38.6 51.35 33.2 M24.6 38.9 Q23.95 27.75 24.25 26.5 24.45 25.6 25.4 24.95 27.0 23.55 37.0 20.1 48.8 16.05 50.55 16.3 L62.55 20.1 Q74.6 23.9 75.05 24.75 75.6 25.65 75.5 32.65 L75.35 39.05 Q75.0 51.95 74.35 52.75 74.0 54.4 71.45 59.55 68.8 64.9 66.65 67.55 L66.6 67.75 Q63.85 72.4 57.5 78.45 51.45 84.2 50.15 84.2 34.05 73.4 28.75 59.95 L26.55 55.3 Q25.2 49.65 24.6 38.9"/></g></defs><g><g><use transform="matrix(1.0,0.0,0.0,1.0,0.0,0.0)" xlink:href="#c1"/></g></g></svg>