<?xml version='1.0' encoding='UTF-8'?>
<svg xmlns="http://www.w3.org/2000/svg" xmlns:xlink="http://www.w3.org/1999/xlink" version="1.1" width="87px" height="86px" viewBox="6.2 6.15 86.85 86.0"><defs><g id="c1"><path fill="#ffffff" fill-opacity="0.8" d="M86.15 34.9 Q86.2 33.65 85.0 32.4 82.6 29.85 76.2 29.85 69.4 29.85 66.6 32.4 65.7 33.15 65.35 34.1 L65.15 34.9 65.25 61.15 62.25 64.85 62.2 38.65 Q62.1 37.95 60.55 37.25 57.4 35.85 49.95 35.85 42.75 35.85 39.3 37.5 L37.3 39.1 37.3 65.4 34.4 61.5 34.2 34.6 Q33.95 33.6 32.45 32.55 29.45 30.5 23.3 30.5 19.15 30.5 16.05 32.4 L13.8 34.25 12.85 58.65 10.5 48.1 6.2 19.75 21.95 26.1 17.5 10.75 39.3 29.55 37.7 6.15 53.35 27.0 64.05 6.15 63.75 23.4 79.85 6.95 76.6 25.5 93.05 14.8 88.6 52.7 87.1 60.35 86.15 34.9"/><path fill="#ffffff" stroke="none" d="M40.9 87.95 Q44.45 89.7 49.65 89.75 54.8 89.8 58.35 88.05 62.35 86.05 62.35 82.65 L62.35 81.35 Q63.75 82.9 63.75 84.6 63.75 87.7 59.6 89.95 55.45 92.15 49.6 92.15 43.75 92.15 39.6 89.95 35.45 87.7 35.45 84.6 35.45 82.95 36.9 81.25 L36.9 82.65 Q36.9 85.95 40.9 87.95"/><path fill="#ffffff" stroke="none" d="M24.0 75.7 Q19.35 75.7 16.1 73.95 12.85 72.25 12.85 69.75 12.85 68.35 14.0 67.1 L14.0 68.2 Q14.0 70.8 17.15 72.4 19.95 73.8 24.05 73.85 28.1 73.85 30.9 72.45 34.05 70.9 34.05 68.2 L34.05 67.2 Q35.15 68.4 35.15 69.75 35.15 72.2 31.9 73.95 28.6 75.7 24.0 75.7"/><path fill="#ffffff" stroke="none" d="M67.4 73.65 Q64.05 71.85 64.05 69.35 64.05 67.95 65.25 66.65 L65.25 67.75 Q65.25 70.4 68.45 72.0 71.4 73.45 75.55 73.5 79.75 73.5 82.65 72.1 85.85 70.5 85.85 67.75 L85.85 66.7 Q86.95 67.95 86.95 69.35 86.95 71.85 83.6 73.65 80.25 75.45 75.5 75.45 70.8 75.45 67.4 73.65"/><path fill="#ffffff" stroke="none" d="M49.6 39.15 Q53.85 39.15 56.9 40.35 59.9 41.55 59.9 43.25 L59.9 68.8 Q59.7 70.45 56.7 71.6 53.75 72.7 49.6 72.7 L46.15 72.45 46.15 49.75 43.2 48.45 43.2 71.8 Q39.55 70.65 39.3 68.8 L39.3 43.25 Q39.3 41.55 42.3 40.35 45.35 39.15 49.6 39.15 M57.85 43.05 Q57.85 42.2 55.45 41.55 L49.6 40.9 43.75 41.55 Q41.35 42.2 41.35 43.05 41.35 43.95 43.75 44.6 L49.6 45.2 55.45 44.6 Q57.85 43.95 57.85 43.05"/><path fill="#ffffff" stroke="none" d="M43.2 73.6 L43.2 81.5 46.15 82.85 46.15 74.25 49.6 74.5 Q53.7 74.5 56.7 73.35 59.7 72.2 59.9 70.55 L59.9 82.45 Q59.9 84.9 56.7 86.3 53.8 87.6 49.6 87.55 45.45 87.55 42.5 86.25 39.3 84.85 39.3 82.45 L39.3 70.55 Q39.55 72.4 43.2 73.6"/><path fill="#ffffff" stroke="none" d="M15.85 37.15 Q15.85 35.8 18.25 34.85 20.6 33.9 24.0 33.9 27.35 33.9 29.7 34.85 32.1 35.8 32.1 37.15 L32.1 57.3 Q31.95 58.6 29.6 59.45 27.25 60.35 24.0 60.35 L20.95 60.15 20.95 40.9 18.35 39.75 18.35 59.45 Q16.0 58.55 15.85 57.25 L15.85 37.15 M19.4 35.8 Q17.5 36.3 17.5 37.0 17.5 37.7 19.4 38.15 L24.0 38.65 28.6 38.15 Q30.5 37.7 30.5 37.0 30.5 36.3 28.6 35.8 L24.0 35.3 19.4 35.8"/><path fill="#ffffff" stroke="none" d="M24.0 61.75 Q27.25 61.75 29.6 60.85 31.95 60.0 32.1 58.7 L32.1 68.05 Q32.1 72.15 24.0 72.1 20.7 72.1 18.4 71.05 15.85 69.95 15.85 68.05 L15.85 58.65 Q16.0 59.95 18.35 60.85 L18.35 68.65 20.95 69.85 20.95 61.55 24.0 61.75"/><path fill="#ffffff" stroke="none" d="M75.5 32.55 Q78.95 32.55 81.4 33.55 83.85 34.5 83.85 35.9 L83.85 56.55 Q83.65 57.85 81.25 58.8 78.85 59.7 75.5 59.7 L72.4 59.5 72.4 39.75 69.75 38.55 69.75 58.8 Q67.35 57.85 67.2 56.55 L67.2 35.9 Q67.2 34.5 69.65 33.55 72.05 32.55 75.5 32.55 M75.5 37.45 L80.2 36.95 Q82.15 36.45 82.15 35.75 82.15 35.05 80.2 34.5 L75.5 34.0 70.8 34.5 Q68.85 35.05 68.85 35.75 68.85 36.45 70.8 36.95 L75.5 37.45"/><path fill="#ffffff" stroke="none" d="M67.2 67.6 L67.2 57.95 Q67.35 59.3 69.75 60.2 L69.75 68.2 72.4 69.45 72.4 60.9 75.5 61.15 Q78.85 61.15 81.25 60.25 83.65 59.3 83.85 58.0 L83.85 67.6 Q83.85 69.6 81.25 70.75 78.9 71.75 75.55 71.75 72.15 71.7 69.8 70.65 67.2 69.5 67.2 67.6"/></g></defs><g><g><use transform="matrix(1.0,0.0,0.0,1.0,0.0,0.0)" xlink:href="#c1"/></g></g></svg>