<?xml version='1.0' encoding='UTF-8'?>
<svg xmlns="http://www.w3.org/2000/svg" xmlns:xlink="http://www.w3.org/1999/xlink" version="1.1" width="101px" height="99px" viewBox="0.45 0.35 100.8 99.2"><defs><g id="c1"><path fill="#ffffff" fill-opacity="0.8" d="M63.15 23.5 L59.55 16.8 Q64.95 18.4 69.45 21.85 74.0 25.4 77.2 30.5 81.95 38.1 81.45 46.0 80.85 54.85 73.25 56.8 79.2 49.15 75.4 38.45 71.8 28.5 63.15 23.5"/><path fill="#ffffff" fill-opacity="0.8" d="M95.3 59.4 Q91.65 68.8 83.8 75.15 76.35 81.2 66.75 83.1 L66.95 71.95 Q73.65 70.85 78.75 67.8 84.25 64.5 87.15 59.4 92.4 50.05 89.6 37.15 87.1 25.8 79.75 16.55 71.3 5.9 59.1 3.4 47.6 1.0 34.7 6.25 23.5 10.8 17.25 21.05 11.45 30.55 11.0 42.75 10.55 54.65 15.3 65.5 20.25 76.85 29.45 83.6 14.0 81.65 6.7 66.05 0.45 52.65 2.55 36.25 4.1 23.95 11.0 14.5 17.55 5.5 27.85 0.35 L72.85 0.35 Q87.65 8.8 94.4 26.35 101.25 44.05 95.3 59.4"/><path fill="#ffffff" fill-opacity="0.8" d="M43.9 16.25 L43.95 16.25 42.0 19.65 38.95 25.6 Q34.6 28.45 31.5 32.45 28.3 36.55 27.1 41.0 25.1 48.65 27.75 55.15 30.15 61.05 36.1 65.35 L36.3 76.7 Q28.65 71.2 24.05 62.85 19.25 54.1 19.45 45.15 19.7 34.75 26.75 26.55 33.7 18.5 43.9 16.25"/><path fill="#ffffff" stroke="none" d="M45.35 21.5 Q50.05 12.95 51.6 12.3 53.15 12.95 57.85 21.5 62.35 29.8 62.85 32.3 63.6 36.2 63.3 61.95 L62.85 90.25 Q64.25 91.3 65.1 91.3 65.95 91.3 66.65 90.1 67.5 88.55 68.0 88.25 L71.15 90.3 Q73.5 91.95 73.15 92.5 73.0 96.15 68.45 99.55 L34.7 99.55 Q30.15 96.15 30.0 92.5 29.65 91.95 32.0 90.3 33.25 89.4 35.15 88.25 35.7 88.55 36.55 90.1 37.2 91.3 38.05 91.3 38.9 91.3 40.3 90.25 L39.85 61.95 Q39.55 36.2 40.3 32.3 40.85 29.75 45.35 21.5 M54.65 33.8 L51.85 29.1 49.1 33.9 49.1 91.15 54.65 91.15 54.65 33.8"/></g></defs><g><g><use transform="matrix(1.0,0.0,0.0,1.0,0.0,0.0)" xlink:href="#c1"/></g></g></svg>