<?xml version='1.0' encoding='UTF-8'?>
<svg xmlns="http://www.w3.org/2000/svg" xmlns:xlink="http://www.w3.org/1999/xlink" version="1.1" width="100px" height="94px" viewBox="0.0 3.2 100.0 93.55"><defs><g id="c1"><path fill="#ffffff" stroke="none" d="M3.95 5.8 L4.4 5.25 6.5 3.45 22.8 15.55 Q20.5 16.3 17.25 17.85 L21.45 20.45 Q21.0 21.85 20.9 23.05 20.9 23.45 20.5 23.25 L10.75 17.35 Q12.8 16.1 16.0 14.55 11.15 10.85 3.95 5.8"/><path fill="#ffffff" stroke="none" d="M82.75 18.15 L80.2 16.7 Q78.65 15.75 77.55 15.35 L93.95 3.2 96.15 5.15 96.45 5.55 90.2 9.95 Q86.45 12.55 84.0 14.4 L89.3 17.15 79.85 23.65 79.75 20.4 82.75 18.15"/><path fill="#ffffff" stroke="none" d="M0.0 18.3 L0.1 15.95 10.4 21.0 Q17.85 24.55 20.5 25.7 L20.5 28.15 11.0 23.55 0.0 18.3"/><path fill="#ffffff" stroke="none" d="M80.3 29.0 L80.3 26.3 99.95 15.65 100.0 18.5 80.3 29.0"/><path fill="#ffffff" stroke="none" d="M25.05 74.1 L22.3 72.1 Q17.6 74.45 11.1 78.05 L0.1 84.2 0.0 81.4 9.25 76.4 18.25 71.1 12.0 71.1 30.3 60.8 26.8 60.55 34.4 56.3 35.15 57.15 36.85 59.35 28.5 63.7 Q23.0 66.6 20.5 68.35 L26.8 68.35 38.1 63.25 27.55 70.35 30.6 72.95 Q28.6 74.6 23.95 77.45 19.25 80.3 17.25 81.9 L22.8 84.4 Q19.6 87.25 14.85 90.7 L6.6 96.6 4.6 94.9 3.95 94.2 16.0 85.65 13.4 84.25 10.75 82.9 Q15.4 79.85 25.05 74.1"/><path fill="#ffffff" stroke="none" d="M69.7 73.35 Q71.05 71.7 72.5 70.6 60.8 63.05 60.65 62.6 L66.85 65.5 73.0 68.35 79.25 68.35 61.35 58.6 61.35 54.55 Q63.1 55.7 73.25 60.55 L69.4 60.7 Q79.45 65.9 88.05 70.85 L82.0 71.1 Q85.2 73.35 90.55 76.3 L100.0 81.4 99.95 84.2 Q97.8 82.8 96.55 82.15 L78.0 72.1 75.0 73.85 Q82.55 78.75 89.6 82.75 86.05 84.3 84.0 85.4 88.45 89.0 95.95 94.15 L95.2 94.9 93.05 96.75 77.25 84.4 Q80.45 82.95 82.75 82.15 L76.2 77.7 69.7 73.35"/><path fill="#ffffff" stroke="none" d="M24.6 24.85 L24.55 21.35 Q24.5 19.35 24.6 18.35 L29.85 13.25 Q34.2 13.05 40.2 13.25 L40.25 11.05 Q40.25 9.35 40.9 9.15 L59.65 9.15 Q60.45 9.15 60.1 13.15 L70.7 13.3 75.45 18.35 75.5 23.15 75.4 34.15 75.15 44.05 69.95 49.15 55.6 49.15 55.65 52.6 54.7 53.75 Q54.0 54.4 53.95 54.7 53.7 58.65 53.65 68.15 53.6 78.0 53.85 80.95 54.05 83.05 54.8 86.35 55.0 88.9 52.5 90.45 51.7 91.05 49.15 90.9 47.25 90.5 46.4 90.0 44.85 89.1 44.8 87.45 44.75 86.0 45.25 83.9 L46.0 79.9 46.0 73.2 45.75 66.45 45.5 54.5 44.75 53.35 Q44.2 52.8 44.2 52.5 L44.2 49.15 37.4 49.15 29.95 49.1 24.6 44.05 24.6 24.85"/></g></defs><g><g><use transform="matrix(1.0,0.0,0.0,1.0,0.0,0.0)" xlink:href="#c1"/></g></g></svg>