<?xml version='1.0' encoding='UTF-8'?>
<svg xmlns="http://www.w3.org/2000/svg" xmlns:xlink="http://www.w3.org/1999/xlink" version="1.1" width="92px" height="94px" viewBox="4.55 3.15 91.60000000000001 93.5"><defs><g id="c1"><path fill="#ffffff" stroke="none" d="M70.9 46.15 L70.7 43.65 60.2 43.65 59.3 51.0 41.75 51.0 40.85 43.95 29.85 43.95 30.05 51.4 Q31.35 59.6 36.65 63.45 L36.75 63.5 Q42.7 67.1 50.0 67.1 54.3 67.1 58.6 65.95 L62.95 64.4 Q69.35 61.1 70.65 52.05 71.05 49.2 70.9 46.15 M22.7 25.9 Q25.05 29.6 28.4 31.5 L31.55 32.95 34.65 34.25 Q36.85 35.3 40.25 36.25 45.9 37.75 51.45 37.75 58.7 37.75 66.0 34.95 68.35 33.45 72.3 31.5 78.9 27.75 81.35 17.95 L83.55 8.4 84.65 3.15 85.95 6.2 Q87.1 9.7 86.65 12.2 L84.9 20.55 Q84.1 23.2 82.2 25.55 L85.45 23.15 Q88.55 20.85 91.0 10.2 L91.85 13.3 Q92.5 17.25 91.2 21.6 L88.35 30.35 Q87.55 33.25 90.25 30.3 L91.4 29.1 92.95 27.2 94.3 24.5 Q95.0 22.8 94.85 22.1 96.15 26.7 94.65 29.85 92.8 33.9 90.25 36.3 88.15 39.0 86.7 40.0 85.5 40.9 87.55 40.15 L90.6 38.45 95.05 34.05 Q93.5 37.95 92.2 39.75 L89.65 42.95 88.45 44.25 Q83.6 49.45 82.85 49.7 L86.1 48.65 Q89.9 47.2 92.35 45.25 93.0 44.75 92.5 46.0 92.0 47.4 90.5 49.2 86.05 54.75 77.55 58.85 L81.5 58.1 Q85.65 57.1 86.9 55.9 84.9 60.9 77.75 62.15 L84.75 61.55 Q83.3 62.45 81.45 63.2 77.8 64.7 74.55 64.55 L80.6 65.05 75.6 67.9 Q69.85 70.85 66.05 71.2 L63.8 71.6 Q60.4 75.85 60.1 78.45 59.9 80.4 60.2 81.55 L60.85 84.2 Q61.1 86.25 59.8 86.45 58.45 86.65 58.25 84.3 58.15 82.4 58.35 81.35 L58.75 78.65 Q59.05 75.55 57.15 74.1 56.1 73.3 55.0 73.5 53.95 73.65 53.65 74.5 53.35 75.4 52.95 77.95 52.55 80.8 52.55 83.0 L52.75 85.9 53.55 89.1 Q54.05 91.6 52.75 94.15 51.45 96.65 50.7 95.4 50.1 94.3 50.05 91.75 50.05 89.3 50.55 87.6 50.95 86.2 50.8 83.35 L50.35 79.1 50.45 76.85 Q50.55 75.55 50.1 74.25 49.65 72.75 47.8 72.8 46.25 72.85 45.0 73.65 L43.9 74.3 43.45 76.8 Q43.15 78.95 43.5 81.35 L44.4 85.75 Q44.85 88.05 43.85 89.85 42.9 91.6 42.2 90.45 41.6 89.45 41.45 88.05 41.3 86.8 41.6 85.75 41.9 84.75 41.8 80.65 41.7 76.45 41.25 73.7 L40.8 72.05 Q35.35 71.25 30.65 69.45 27.45 68.75 23.45 66.8 L20.1 65.05 26.2 64.55 Q22.9 64.7 19.25 63.2 L16.0 61.6 19.65 61.95 23.0 62.15 Q18.45 61.35 14.95 57.9 13.8 56.75 13.4 55.95 13.0 55.15 13.8 55.9 15.05 57.1 19.25 58.1 L23.15 58.85 Q14.65 54.75 10.2 49.2 8.7 47.4 8.2 46.0 7.75 44.75 8.35 45.25 10.8 47.2 14.6 48.65 L17.85 49.7 14.75 46.9 12.25 44.25 Q10.3 42.25 8.5 39.75 7.7 38.65 6.6 36.25 L5.65 34.05 10.1 38.45 Q11.2 39.45 13.2 40.15 15.2 40.9 14.0 40.0 13.1 39.4 11.7 37.8 L10.45 36.3 Q7.9 33.9 6.05 29.85 4.55 26.7 5.85 22.1 5.7 22.8 6.4 24.5 7.05 26.2 7.75 27.2 L10.45 30.3 Q13.2 33.25 12.4 30.35 L9.5 21.6 Q8.2 17.25 8.85 13.3 L9.7 10.3 Q9.55 11.1 11.25 15.95 13.25 21.7 15.25 23.15 L18.55 25.55 Q16.65 23.15 15.85 20.55 L14.05 12.2 Q13.6 9.7 14.75 6.2 L16.05 3.15 17.15 8.4 19.35 17.95 Q20.5 22.5 22.7 25.9"/></g></defs><g><g><use transform="matrix(1.0,0.0,0.0,1.0,0.0,0.0)" xlink:href="#c1"/></g></g></svg>