<?xml version='1.0' encoding='UTF-8'?>
<svg xmlns="http://www.w3.org/2000/svg" xmlns:xlink="http://www.w3.org/1999/xlink" version="1.1" width="95px" height="95px" viewBox="0.0 5.7 94.95 94.55"><defs><g id="c1"><path fill="#ffffff" stroke="none" d="M47.7 41.35 L44.25 41.1 Q44.95 42.85 44.25 43.15 L43.05 43.55 43.25 43.7 Q43.35 43.95 42.9 44.35 L41.55 45.2 Q41.55 46.15 40.45 46.55 39.35 46.95 33.75 46.4 L33.55 46.75 Q33.4 47.25 33.75 48.2 34.3 49.7 34.15 50.5 L38.1 55.15 39.3 54.0 Q40.65 52.85 41.25 52.7 41.85 52.5 42.05 52.15 L42.5 50.9 Q42.85 50.15 44.15 48.5 L45.35 46.95 47.7 41.35 M28.3 38.2 Q27.9 39.05 27.2 39.45 26.75 39.7 27.05 40.85 L27.45 41.9 29.1 42.45 Q32.0 40.65 32.4 40.0 32.65 39.55 34.6 38.65 36.15 37.95 37.45 37.55 38.4 37.2 38.8 36.65 39.25 36.1 38.55 35.9 37.25 35.55 32.65 36.85 L28.3 38.2 M44.7 27.15 Q44.0 27.25 44.05 28.0 L44.25 29.05 47.75 29.25 51.9 28.8 53.9 28.65 55.5 28.65 Q55.85 28.45 55.75 27.8 55.65 27.15 55.35 27.15 45.8 27.0 44.7 27.15 M74.2 30.95 L78.0 26.2 79.0 26.45 79.1 32.05 94.85 31.95 94.95 33.85 79.55 33.85 79.4 34.65 78.45 34.95 77.75 33.7 75.95 34.25 75.3 35.2 73.4 35.05 73.4 36.05 58.05 35.9 58.05 39.15 57.9 41.85 Q57.55 43.45 57.0 43.95 56.15 44.65 54.95 44.65 L56.15 49.15 51.1 50.8 50.85 52.0 50.3 54.05 49.4 57.95 Q48.55 61.45 47.55 63.1 46.4 64.95 43.9 67.15 41.55 69.1 40.7 69.25 L37.7 68.65 34.55 67.6 32.1 65.8 29.95 63.65 Q29.5 63.05 26.45 60.7 L23.5 58.45 21.95 63.35 Q20.35 68.5 20.1 69.8 L18.55 75.8 Q17.4 80.5 17.75 81.4 18.05 82.2 17.8 82.9 17.45 83.7 17.5 84.25 17.8 86.9 17.2 89.2 16.9 90.5 16.9 91.1 16.9 91.65 17.2 92.05 L22.0 98.75 23.2 100.25 17.25 100.25 Q9.35 100.25 4.55 95.4 0.0 90.8 0.0 82.95 L0.0 28.15 5.05 26.2 7.9 26.0 9.7 25.8 10.6 24.6 11.75 23.2 Q12.45 22.5 12.75 20.7 13.1 18.95 12.55 18.95 12.15 18.95 11.8 18.6 L11.5 18.25 Q11.5 17.0 11.8 15.35 12.4 12.15 13.95 10.35 15.55 8.45 20.45 6.95 24.65 5.7 26.35 5.85 31.25 6.15 34.15 9.4 36.0 11.45 37.55 14.45 38.95 17.25 38.95 18.65 L38.4 24.7 35.8 25.35 34.85 27.0 35.1 29.45 Q34.85 30.15 34.3 30.15 L32.65 30.15 37.45 30.85 39.2 28.9 39.75 27.15 Q40.4 25.35 40.85 25.35 L56.0 27.15 56.1 28.2 Q56.25 29.3 56.7 29.75 57.4 30.4 58.05 30.15 L58.05 29.2 73.5 29.6 73.5 30.85 74.2 30.95"/></g></defs><g><g><use transform="matrix(1.0,0.0,0.0,1.0,0.0,0.0)" xlink:href="#c1"/></g></g></svg>