<?xml version='1.0' encoding='UTF-8'?>
<svg xmlns="http://www.w3.org/2000/svg" xmlns:xlink="http://www.w3.org/1999/xlink" version="1.1" width="89px" height="90px" viewBox="11.75 4.4 88.8 90.35"><defs><g id="c1"><path fill="#ffffff" fill-opacity="0.8" d="M89.0 30.8 L89.0 40.55 80.1 40.55 80.1 49.45 70.35 49.45 70.35 40.55 61.45 40.55 61.45 30.8 70.35 30.8 70.35 21.9 80.1 21.9 80.1 30.8 89.0 30.8"/><path fill="#ffffff" stroke="none" d="M40.05 36.7 L37.55 36.8 Q37.05 38.35 37.35 39.9 L37.95 40.3 38.55 40.7 Q40.8 39.65 42.05 36.05 L40.25 36.1 40.05 36.7 M18.05 33.0 Q17.95 31.55 18.9 31.7 17.8 28.8 18.95 26.75 19.95 24.95 22.25 24.4 24.5 23.85 26.55 24.8 28.8 25.85 29.5 28.15 L28.8 29.1 27.95 29.9 28.05 31.6 Q28.1 32.55 28.4 33.0 L33.25 32.9 33.45 32.2 33.75 32.4 43.05 32.45 43.2 33.0 44.25 33.05 47.25 32.9 48.75 34.5 51.75 34.2 52.4 32.05 53.65 32.05 53.7 34.0 54.05 34.3 54.25 34.9 53.1 36.0 44.35 36.05 44.25 36.2 Q45.0 36.5 45.15 37.8 L45.2 40.3 44.45 40.95 Q44.05 41.4 43.45 41.3 43.7 42.6 42.3 45.0 40.85 47.45 39.5 47.8 37.7 48.25 35.65 46.7 33.5 44.7 32.45 44.05 32.25 44.8 32.75 45.15 L33.45 45.8 Q33.15 48.4 33.25 51.7 L31.85 52.5 Q32.65 53.95 31.85 56.2 33.5 57.75 34.15 61.7 L35.2 68.4 35.1 68.75 34.6 68.6 35.35 75.15 Q35.65 78.85 34.6 81.35 35.5 84.6 34.6 88.05 34.85 89.2 36.7 90.25 38.5 91.3 38.75 92.55 36.85 94.05 33.9 93.0 L29.5 90.8 Q29.95 89.8 29.9 88.2 L29.7 85.3 30.1 84.3 29.25 82.65 Q28.55 81.55 28.5 80.35 L28.7 79.5 28.9 78.6 28.75 76.75 28.5 74.65 Q28.9 72.5 28.7 71.75 28.6 71.15 27.95 70.5 L26.95 69.35 26.95 68.9 26.95 68.4 Q26.7 67.75 25.7 66.85 24.6 65.95 24.4 65.45 23.0 67.75 22.05 75.4 21.15 82.75 19.3 85.3 19.5 86.5 19.1 89.65 18.7 92.45 19.3 94.1 18.75 94.7 17.15 94.75 L14.8 94.3 Q14.45 93.4 14.85 92.2 L15.55 90.2 Q14.7 89.25 14.85 86.85 L15.0 82.7 14.7 81.75 14.4 80.75 Q14.15 78.65 15.25 75.7 16.4 72.55 16.35 71.15 L15.9 69.1 15.35 66.8 Q15.0 63.55 15.95 56.0 L16.4 55.85 Q16.7 55.85 16.75 55.65 16.45 54.15 16.55 53.3 16.4 53.1 15.8 53.05 L15.0 52.9 13.1 48.1 Q12.4 44.95 14.8 43.85 L14.4 43.05 Q14.3 42.9 13.5 43.05 L12.4 42.85 Q11.75 36.05 18.1 34.8 L18.05 33.0"/><path fill="#ffffff" stroke="none" d="M96.0 4.4 L96.65 5.05 Q100.55 9.5 100.55 17.65 L100.55 18.3 71.0 18.3 Q62.35 18.3 55.8 21.5 49.5 24.55 48.1 27.8 L47.75 28.7 Q46.1 26.9 45.9 23.4 L45.75 18.9 Q45.85 16.15 46.95 14.7 L48.35 13.4 49.9 12.2 Q49.5 12.65 49.3 14.3 49.15 15.95 49.4 16.55 49.8 17.55 50.7 17.6 51.5 17.65 52.05 16.95 L52.95 15.6 Q55.95 12.25 60.6 9.35 63.95 7.3 67.65 5.65 L69.15 4.9 Q70.15 4.4 70.7 4.4 L96.0 4.4"/><path fill="#ffffff" stroke="none" d="M47.75 43.3 L48.1 44.2 Q49.5 47.45 55.8 50.5 62.35 53.7 71.0 53.7 L100.55 53.7 100.55 67.6 70.7 67.6 69.15 67.1 67.65 66.35 Q63.95 64.75 60.6 62.65 55.95 59.75 52.95 56.4 L52.05 55.05 Q51.5 54.35 50.7 54.4 49.8 54.45 49.4 55.45 49.15 56.05 49.3 57.7 49.5 59.4 49.9 59.8 L48.35 58.6 46.95 57.3 Q45.85 55.85 45.75 53.1 L45.9 48.6 Q46.1 45.1 47.75 43.3"/></g></defs><g><g><use transform="matrix(1.0,0.0,0.0,1.0,0.0,0.0)" xlink:href="#c1"/></g></g></svg>