<?xml version='1.0' encoding='UTF-8'?>
<svg xmlns="http://www.w3.org/2000/svg" xmlns:xlink="http://www.w3.org/1999/xlink" version="1.1" width="73px" height="94px" viewBox="13.45 5.8 73.35 94.2"><defs><g id="c1"><path fill="#ffffff" stroke="none" d="M72.7 93.95 Q73.1 92.3 73.15 89.25 73.25 85.75 73.45 84.5 74.2 85.1 74.75 87.0 L75.45 89.9 76.1 92.95 76.9 96.0 77.8 97.95 78.85 99.85 75.15 99.9 71.15 100.0 70.35 100.0 70.65 98.8 71.85 95.7 72.7 93.95 M49.8 82.15 Q50.05 81.3 50.4 80.9 51.05 83.95 50.85 88.2 L50.2 95.45 50.15 99.15 50.1 100.0 42.35 100.0 42.7 99.45 Q43.45 98.1 43.7 95.95 L44.05 92.3 Q44.3 90.8 45.2 89.35 L47.15 86.8 49.35 83.6 49.8 82.15 M56.7 81.8 L58.0 83.3 59.45 83.95 60.85 84.5 Q61.45 84.9 61.7 85.6 L62.1 87.15 62.7 88.45 62.95 89.95 62.45 91.4 61.8 92.85 61.25 94.25 59.7 94.55 57.95 94.55 56.35 94.2 Q55.2 93.5 54.45 91.95 L53.15 89.25 53.4 88.55 53.65 87.15 Q53.15 86.1 53.8 83.95 54.3 82.35 55.15 80.9 55.8 80.75 56.7 81.8 M57.95 66.7 L58.2 66.45 57.5 65.75 Q57.35 64.4 58.15 63.95 L60.25 63.4 Q63.5 62.8 63.05 65.9 L60.05 66.15 59.0 66.5 57.95 66.7 M66.7 71.5 L67.8 72.3 68.9 73.05 Q69.15 74.4 67.85 75.5 L65.4 77.05 Q64.35 77.9 62.95 78.15 L60.0 78.35 60.0 77.5 59.5 76.4 58.9 75.25 Q58.55 74.1 58.85 72.5 59.05 71.5 60.15 70.4 L61.55 68.45 61.9 68.4 Q62.2 67.75 64.4 69.3 66.55 70.75 66.7 71.5 M69.75 66.9 Q69.7 65.9 70.6 65.2 L72.45 63.95 Q73.55 64.75 74.5 67.3 75.25 69.4 75.45 71.1 75.05 71.95 74.9 72.75 L73.35 72.05 71.85 71.2 71.45 71.2 Q69.9 69.65 69.75 66.9 M77.8 52.35 Q78.15 53.75 78.55 54.05 L79.25 55.75 Q79.5 56.75 78.85 57.35 77.2 57.85 76.35 58.7 L75.75 59.8 75.35 60.9 Q74.7 61.75 72.85 61.8 L69.9 61.7 69.65 61.7 Q67.95 61.15 67.2 60.2 66.8 59.65 66.85 59.15 L67.0 57.95 66.45 55.25 Q66.1 53.65 66.6 52.65 L67.65 51.55 Q68.0 51.05 69.1 51.2 L71.0 51.6 73.0 51.65 74.95 51.1 76.75 50.8 Q77.5 51.05 77.8 52.35 M32.25 96.1 Q34.85 94.4 36.3 95.65 37.1 96.35 37.3 97.75 37.5 99.1 36.95 100.0 L28.65 100.0 Q29.95 97.6 32.25 96.1 M37.6 83.15 Q37.65 82.0 37.8 81.6 L38.2 80.35 Q38.45 79.6 38.9 79.2 L40.25 78.7 Q40.95 78.4 40.85 77.55 41.2 77.3 41.55 75.85 L41.95 75.55 Q42.05 74.8 42.5 74.15 42.6 75.15 42.85 75.95 L44.65 77.45 Q44.9 77.95 44.75 78.75 L44.5 80.05 44.25 82.5 Q44.0 83.65 43.2 84.6 L41.25 85.85 39.05 86.75 Q37.8 87.35 36.95 88.15 L35.4 90.05 34.7 90.05 Q34.85 88.8 35.7 87.45 L35.95 87.4 Q36.05 86.75 36.6 85.95 L37.3 84.75 37.6 83.15 M21.15 72.25 Q21.45 73.05 21.3 73.9 L20.7 75.35 19.75 76.6 Q19.0 77.85 18.9 79.85 L18.5 80.1 18.1 78.25 18.25 78.15 18.05 77.1 18.0 76.15 17.6 75.15 17.15 74.15 Q16.8 72.9 16.9 72.4 L17.45 71.6 Q17.75 71.2 17.4 70.7 L17.15 69.5 17.3 69.2 Q17.05 68.75 17.05 68.2 L17.9 69.1 19.5 69.3 Q19.85 69.5 20.05 70.0 L20.35 70.8 21.15 72.25 M22.5 57.9 Q21.95 57.15 22.2 56.6 L23.2 55.5 Q24.8 54.0 25.7 55.9 L24.1 57.15 23.65 57.75 23.1 58.25 23.15 58.05 22.5 57.9 M31.7 57.8 Q32.35 58.5 31.95 59.6 L31.15 61.4 Q30.85 62.25 30.15 62.9 29.65 63.4 28.55 64.1 L28.25 63.65 27.55 63.2 26.8 62.8 Q26.25 62.3 25.75 61.2 25.5 60.55 25.7 59.55 25.95 58.4 25.8 57.9 L26.0 57.75 Q25.95 57.25 27.7 57.3 L29.85 57.75 30.8 57.8 31.7 57.8 M27.95 42.3 Q28.45 42.15 29.1 42.75 L30.15 43.45 31.15 44.15 Q31.7 44.65 31.55 45.25 30.75 46.05 30.6 46.9 30.5 47.25 30.7 47.8 L30.85 48.55 Q30.8 49.3 29.75 50.0 L28.05 51.0 27.9 51.1 26.0 51.15 25.35 50.7 25.0 49.95 23.7 48.6 Q22.9 47.85 22.85 47.1 L23.0 46.05 Q23.05 45.65 23.75 45.35 L24.95 44.85 26.1 44.15 27.0 43.1 27.95 42.3 M26.1 38.75 Q26.7 39.0 26.8 40.2 L26.6 41.95 25.35 43.25 Q24.4 44.05 24.35 44.4 L24.3 44.2 Q23.05 43.65 22.2 42.7 21.15 41.5 21.75 40.4 L22.55 39.5 23.55 38.7 24.85 38.8 26.1 38.75 M19.25 29.35 L19.55 29.5 Q20.15 29.9 20.65 31.15 21.05 31.8 22.2 32.85 23.0 33.65 23.05 34.2 L23.5 33.9 Q23.2 33.45 23.0 32.5 L22.25 31.0 Q22.05 30.6 22.15 29.75 L21.6 29.2 20.9 28.8 Q20.65 28.45 20.75 27.85 L20.65 26.85 19.95 26.3 19.05 26.05 19.15 26.8 19.15 27.95 19.45 29.05 19.25 29.35 M21.25 21.95 L22.1 22.7 23.0 23.6 23.55 24.8 24.35 26.0 25.0 26.25 25.6 26.5 26.45 27.7 26.9 29.05 26.75 29.15 28.6 31.7 29.7 33.35 30.1 35.25 31.0 37.1 32.15 38.85 32.85 40.55 33.0 41.3 34.65 43.8 35.9 45.25 37.05 46.75 38.2 48.15 Q38.8 48.9 38.85 49.7 38.9 50.8 39.2 51.65 L40.1 53.45 Q38.8 54.3 38.6 55.25 L37.95 57.15 37.0 54.7 36.0 52.3 Q34.9 52.7 34.7 51.85 34.5 51.05 35.05 50.3 35.85 49.2 35.75 48.45 L34.75 46.55 Q34.35 45.85 34.1 44.85 L33.65 43.15 33.15 42.0 32.5 41.35 Q32.1 40.95 31.8 40.9 L30.85 41.1 29.9 41.15 29.1 40.4 28.45 39.45 28.5 38.65 28.55 37.85 Q28.35 36.95 27.0 36.85 L25.0 36.6 24.85 36.5 24.25 37.45 Q22.45 40.0 20.0 38.75 L20.25 38.8 Q19.3 37.3 19.05 36.15 18.55 36.65 17.75 36.8 18.85 37.25 19.1 37.75 L19.35 38.55 19.6 39.35 20.0 40.15 20.05 40.95 Q19.85 42.3 18.45 43.55 L19.85 44.8 20.7 45.25 21.4 45.95 Q21.6 46.5 21.25 47.75 21.25 48.65 21.8 49.55 L22.75 51.2 Q23.15 52.25 20.65 53.9 L20.15 54.1 Q19.1 52.55 17.15 51.45 L16.9 51.3 Q17.85 52.7 17.95 53.7 18.25 55.65 19.3 57.1 L20.5 58.65 21.5 60.2 Q21.95 61.25 21.5 61.9 L20.05 63.45 Q20.2 64.2 19.15 65.05 18.1 65.9 17.3 65.9 L17.05 65.85 Q17.45 65.1 17.25 63.85 17.05 62.55 16.45 61.95 L15.65 61.25 15.0 60.3 Q14.8 59.75 15.0 59.35 L15.55 58.45 Q15.9 57.75 15.9 56.7 L15.85 54.9 15.95 54.1 15.65 53.3 Q15.4 52.25 15.65 51.3 L15.85 50.65 Q14.3 49.65 14.35 49.0 L14.85 48.25 15.45 47.6 15.75 46.65 15.75 45.7 Q15.85 44.8 16.55 43.35 15.2 42.25 14.6 39.3 L15.65 38.05 Q15.8 37.1 16.05 36.75 15.1 36.55 14.45 35.95 13.5 35.1 13.55 33.45 L13.55 30.85 13.65 30.75 Q13.45 30.3 13.5 29.55 L13.5 28.4 14.85 27.25 Q13.7 26.0 14.1 24.7 L14.05 24.05 14.1 23.4 14.0 21.85 14.1 20.45 Q14.05 19.7 13.65 19.05 15.35 17.15 14.6 15.5 L14.8 15.25 Q14.65 14.9 15.0 14.55 15.75 13.85 16.9 14.95 L18.35 16.7 19.9 18.15 Q20.7 18.95 21.0 19.95 L21.25 21.95 M69.35 46.75 Q68.95 44.4 70.6 43.55 L72.3 43.05 74.25 42.85 Q74.95 42.9 75.75 44.05 76.5 45.1 77.3 44.95 77.85 45.75 76.95 47.35 L75.35 49.3 72.8 49.95 Q70.95 50.15 70.6 50.55 L70.75 50.25 Q69.6 48.55 69.35 46.75 M75.2 29.6 L74.75 28.8 74.4 27.9 73.95 27.45 73.35 29.15 72.7 30.75 Q72.35 31.6 72.3 32.5 L72.25 33.75 73.75 32.35 75.1 30.7 75.85 29.8 75.2 29.6 M82.05 79.6 L82.65 78.4 83.45 77.5 83.6 80.4 83.75 83.25 83.6 81.7 83.2 86.3 83.0 88.4 Q82.85 89.8 82.35 90.1 L82.0 90.9 81.8 93.7 Q81.7 95.45 81.25 96.35 81.35 95.1 80.8 94.0 L79.65 92.1 Q78.65 90.45 78.95 87.25 L78.8 84.85 Q78.75 83.75 79.7 82.95 L80.6 82.4 81.35 81.65 81.5 80.5 Q81.55 79.8 82.05 79.6 M82.65 28.9 Q83.35 28.15 83.35 27.65 83.35 27.0 82.85 26.35 L82.0 25.35 81.5 26.35 80.6 27.8 Q80.2 28.55 80.1 29.4 L79.6 29.55 79.85 30.0 Q80.1 30.6 80.0 31.45 L79.85 32.95 Q79.85 33.75 80.4 36.3 80.75 37.95 80.4 38.65 L81.2 38.65 Q81.2 38.2 81.7 36.45 L81.85 35.25 81.95 34.05 Q82.0 33.4 82.85 32.45 L82.6 31.3 82.1 30.25 Q82.0 29.6 82.65 28.9 M85.0 8.1 L85.45 11.4 86.25 14.5 Q86.55 16.15 86.1 17.55 L84.85 20.3 85.3 21.9 85.6 23.75 85.4 25.65 Q85.15 27.0 85.4 27.75 L86.0 28.6 86.55 29.45 Q86.8 30.2 86.65 31.6 L86.1 33.6 85.9 33.6 86.1 38.25 86.2 39.75 86.1 41.2 85.1 43.85 Q84.75 45.0 84.75 46.9 L84.7 50.0 Q84.65 51.6 84.25 52.6 L83.8 53.7 83.9 58.1 Q83.9 58.95 84.25 60.9 L84.45 63.65 84.75 66.35 Q84.95 67.8 84.35 68.75 83.5 70.2 83.2 71.45 83.0 72.35 82.9 74.4 80.6 74.5 79.55 75.4 L78.5 76.45 77.2 77.25 77.95 73.45 78.7 69.7 Q77.0 69.3 77.45 68.1 77.8 66.95 79.15 66.45 81.0 65.75 81.45 64.75 L81.8 61.6 Q81.85 60.35 82.35 58.95 L83.15 56.5 83.5 54.65 Q83.2 52.75 82.65 52.2 82.3 51.9 81.3 51.7 80.45 51.55 80.1 50.95 79.85 50.45 79.7 49.4 79.55 48.25 79.7 47.75 L80.4 46.8 81.1 45.8 Q81.55 44.55 80.0 43.35 L77.75 41.45 77.65 41.2 76.05 41.9 Q74.1 42.7 72.55 42.3 70.8 41.85 69.75 40.05 L70.05 40.35 Q70.05 37.75 70.7 36.1 L68.55 35.85 Q69.6 37.35 69.5 38.1 L69.15 39.25 68.8 40.5 68.65 41.8 68.05 42.85 Q66.65 44.5 63.95 44.75 L64.75 47.45 65.5 48.7 Q65.9 49.5 65.75 50.15 L65.0 51.2 64.05 52.2 Q63.4 53.3 63.35 54.9 L63.2 57.65 Q62.95 58.75 61.35 59.1 L58.45 59.35 57.6 59.2 Q57.6 56.6 56.1 53.45 L55.9 53.1 Q55.9 55.45 55.25 56.95 54.0 59.75 54.15 62.25 L54.4 65.05 Q54.55 66.8 54.35 67.85 L54.0 69.15 53.05 69.95 51.55 70.3 50.0 70.65 Q49.6 71.7 47.55 71.9 45.6 72.15 44.6 71.5 L44.35 71.2 Q45.45 70.6 46.2 68.85 46.95 67.15 46.7 65.9 L46.35 64.4 Q46.1 63.4 46.3 62.7 46.5 61.9 47.05 61.5 L48.4 60.9 Q49.45 60.35 50.25 59.0 L51.65 56.7 52.45 55.85 52.6 55.2 52.7 54.6 Q53.25 53.2 54.3 52.1 L55.1 51.45 Q53.95 48.85 54.55 48.15 54.8 47.85 55.7 47.7 L57.1 47.35 58.15 46.45 58.9 45.25 Q59.75 44.25 61.8 42.95 61.35 41.7 61.8 39.5 62.05 37.95 62.65 36.45 L65.0 35.7 65.65 35.05 66.45 34.4 Q65.45 33.3 65.15 32.1 64.7 30.3 66.1 28.4 67.9 25.85 68.1 25.15 L68.35 25.1 Q68.5 24.35 69.15 23.5 L70.1 22.05 72.65 21.7 Q72.2 19.2 73.8 17.95 73.85 17.5 74.25 17.05 L74.85 16.3 Q75.4 15.0 75.9 14.35 L77.2 12.7 Q77.7 11.75 77.75 10.6 79.25 10.15 80.3 9.3 81.6 8.3 81.8 6.95 L82.2 6.8 Q82.4 6.25 83.05 6.1 84.5 5.8 85.0 8.1"/></g></defs><g><g><use transform="matrix(1.0,0.0,0.0,1.0,0.0,0.0)" xlink:href="#c1"/></g></g></svg>