<?xml version='1.0' encoding='UTF-8'?>
<svg xmlns="http://www.w3.org/2000/svg" xmlns:xlink="http://www.w3.org/1999/xlink" version="1.1" width="87px" height="93px" viewBox="6.8 7.05 87.05 92.7"><defs><g id="c1"><path fill="#ffffff" stroke="none" d="M25.35 70.2 Q25.5 67.8 25.9 67.3 L27.55 64.85 28.35 63.4 26.45 65.1 Q24.35 66.85 23.4 66.95 22.55 67.0 19.35 65.95 23.2 67.65 24.25 69.65 25.3 71.45 25.35 70.2 M77.8 22.8 Q78.75 22.1 80.5 21.7 L83.2 21.6 84.75 21.75 Q85.55 21.7 85.9 22.3 86.3 22.9 86.85 23.1 L88.45 23.8 Q89.25 24.25 89.3 24.95 89.35 25.6 89.8 25.85 L91.4 26.1 Q92.3 26.2 92.5 27.0 L92.85 29.0 Q93.0 30.1 93.35 30.4 93.85 30.9 93.5 31.75 L93.2 35.25 92.65 40.5 Q92.4 42.05 91.15 44.05 90.15 45.75 89.45 46.25 88.95 46.6 87.8 50.95 86.75 55.15 86.6 56.7 86.1 61.4 84.55 63.15 83.9 63.9 81.95 65.05 80.2 66.05 79.85 66.65 77.0 71.5 75.45 72.25 L72.8 73.65 70.45 74.75 69.75 74.6 68.85 74.1 Q67.35 71.6 64.0 68.85 L62.55 67.75 Q63.6 68.6 65.2 71.45 L67.3 75.75 Q67.3 77.65 68.0 81.55 68.5 84.2 69.55 99.75 L31.4 99.6 Q29.35 94.0 29.2 92.65 29.1 91.9 27.3 90.65 L22.25 86.75 Q19.55 84.35 17.35 80.7 L15.7 77.5 12.15 73.95 Q8.5 70.05 8.1 68.0 7.65 66.0 8.4 61.75 L9.25 57.9 8.0 54.8 Q6.8 51.4 7.25 49.8 L7.7 46.8 Q7.85 45.25 8.75 43.55 11.15 39.15 11.3 38.3 L12.3 26.85 9.75 24.2 Q7.1 21.2 6.9 19.75 L7.75 14.0 Q7.75 13.15 9.1 12.8 L10.45 12.65 13.8 9.8 Q17.25 7.05 17.9 7.25 L19.0 8.3 Q19.65 9.25 20.6 9.6 L23.15 9.85 Q24.55 9.8 24.8 10.45 L25.3 11.95 Q25.55 12.65 26.15 12.85 L27.8 13.1 Q28.7 13.3 28.7 14.0 28.7 15.45 30.55 16.2 31.2 16.45 31.5 17.5 31.8 18.55 31.4 19.05 31.25 19.25 30.65 22.55 30.05 25.6 29.35 26.0 28.0 26.75 28.0 31.25 28.0 37.3 29.2 37.45 L29.8 38.35 30.65 44.3 31.2 48.7 Q31.2 50.55 31.65 52.5 32.1 54.65 32.55 54.2 33.25 53.5 33.3 49.15 33.35 44.15 31.95 40.3 31.45 39.05 31.3 37.2 L36.0 36.8 Q39.85 37.25 42.25 40.4 43.85 42.6 44.3 46.05 44.9 50.3 42.85 53.0 41.65 54.55 41.7 56.4 L45.9 56.05 Q47.0 55.65 49.0 55.2 L51.95 54.7 56.05 55.25 Q59.3 55.85 59.75 56.4 L62.8 56.45 65.8 56.2 Q66.2 56.4 67.1 54.3 L68.5 51.3 71.5 48.75 73.9 46.9 77.45 39.0 76.45 36.65 74.55 34.15 Q72.9 32.35 72.75 31.4 L72.2 28.85 Q72.0 27.5 72.55 26.85 L73.85 25.5 Q74.55 24.85 75.1 25.0 75.65 25.1 76.45 25.55 L77.15 26.0 Q76.6 23.65 77.8 22.8"/></g></defs><g><g><use transform="matrix(1.0,0.0,0.0,1.0,0.0,0.0)" xlink:href="#c1"/></g></g></svg>