<?xml version='1.0' encoding='UTF-8'?>
<svg xmlns="http://www.w3.org/2000/svg" xmlns:xlink="http://www.w3.org/1999/xlink" version="1.1" width="96px" height="69px" viewBox="0.5 7.8 96.3 69.25"><defs><g id="c1"><path fill="#ffffff" fill-opacity="0.8" d="M0.5 75.25 L0.5 68.9 Q27.95 71.0 27.95 71.65 27.95 72.2 0.5 75.25 M0.5 65.9 L0.5 60.6 Q22.2 62.4 22.2 62.9 22.2 63.3 0.5 65.9 M10.85 51.25 Q17.7 52.3 17.7 52.65 17.7 53.1 0.5 56.4 L0.5 49.8 10.85 51.25 M47.1 17.8 L47.1 7.8 58.05 7.8 58.05 17.8 68.0 17.8 68.0 28.75 58.05 28.75 58.05 38.7 47.1 38.7 47.1 28.75 37.15 28.75 37.15 17.8 47.1 17.8"/><path fill="#ffffff" stroke="none" d="M37.2 58.7 L28.45 58.85 23.2 58.75 23.0 58.7 Q22.7 58.7 22.5 59.3 L21.95 59.9 21.6 59.8 Q20.4 57.9 20.6 53.8 21.05 49.2 20.95 47.15 20.85 46.65 21.25 46.3 21.6 46.0 22.1 46.0 22.75 46.0 22.7 46.5 L22.65 47.05 34.15 46.8 56.75 46.85 Q57.3 47.55 58.1 47.9 L59.4 48.5 59.85 48.5 Q68.75 48.5 81.2 51.2 L81.35 51.45 81.85 51.8 81.9 51.8 Q82.3 52.0 82.25 52.5 82.25 52.95 81.85 53.15 L80.0 53.8 78.35 54.3 74.5 55.15 70.6 55.65 59.65 56.55 58.8 56.55 57.05 57.85 Q55.8 58.45 55.25 58.95 L45.95 58.5 37.2 58.7"/><path fill="#ffffff" stroke="none" d="M44.45 67.2 L35.7 67.35 30.45 67.25 30.25 67.2 Q29.95 67.2 29.75 67.8 L29.2 68.4 28.85 68.3 Q27.65 66.4 27.85 61.85 L37.3 61.7 45.95 61.5 54.95 61.9 56.3 62.05 57.3 61.1 58.2 60.55 59.9 59.55 71.1 58.6 73.2 58.35 77.3 57.7 88.45 59.7 88.6 59.95 Q88.85 59.95 89.1 60.3 L89.15 60.3 Q89.55 60.5 89.5 61.0 89.5 61.45 89.1 61.65 L87.25 62.3 85.6 62.8 81.75 63.65 77.9 64.15 66.9 65.05 66.05 65.05 Q65.4 65.75 64.3 66.35 63.05 66.95 62.5 67.45 L53.2 67.0 44.45 67.2"/><path fill="#ffffff" stroke="none" d="M42.95 76.05 L37.7 75.9 37.5 75.9 Q37.2 75.9 37.0 76.5 L36.45 77.05 36.1 76.95 Q34.85 74.9 35.1 70.35 L35.7 70.35 44.55 70.2 53.2 70.0 62.2 70.4 63.55 70.55 64.55 69.6 65.45 69.05 Q66.4 68.65 67.15 68.05 L78.35 67.1 80.45 66.85 84.05 66.3 95.7 68.35 95.85 68.6 Q96.1 68.6 96.35 68.95 L96.4 68.95 Q96.8 69.15 96.75 69.65 96.75 70.1 96.35 70.35 L92.85 71.45 89.0 72.3 85.15 72.8 74.15 73.7 73.3 73.7 71.55 75.0 69.75 76.1 60.45 75.7 51.7 75.9 42.95 76.05"/></g></defs><g><g><use transform="matrix(1.0,0.0,0.0,1.0,0.0,0.0)" xlink:href="#c1"/></g></g></svg>