<?xml version='1.0' encoding='UTF-8'?>
<svg xmlns="http://www.w3.org/2000/svg" xmlns:xlink="http://www.w3.org/1999/xlink" version="1.1" width="97px" height="66px" viewBox="2.4 14.0 97.1 66.0"><defs><linearGradient gradientUnits="userSpaceOnUse" x1="-819.2" x2="819.2" spreadMethod="pad" gradientTransform="matrix(0.027099609375,0.0,0.0,-0.027099609375,52.2,28.8)" id="gradient17"><stop offset="0.0" stop-color="#ffffff" stop-opacity="0.0"/><stop offset="1.0" stop-color="#ffffff"/></linearGradient><linearGradient gradientUnits="userSpaceOnUse" x1="-819.2" x2="819.2" spreadMethod="pad" gradientTransform="matrix(0.027099609375,0.0,0.0,-0.027099609375,77.3,51.4)" id="gradient18"><stop offset="0.0" stop-color="#ffffff" stop-opacity="0.0"/><stop offset="1.0" stop-color="#ffffff"/></linearGradient><linearGradient gradientUnits="userSpaceOnUse" x1="-819.2" x2="819.2" spreadMethod="pad" gradientTransform="matrix(0.027099609375,0.0,0.0,-0.027099609375,31.25,65.2)" id="gradient19"><stop offset="0.0" stop-color="#ffffff" stop-opacity="0.0"/><stop offset="1.0" stop-color="#ffffff"/></linearGradient><g id="c1"><path fill="#ffffff" stroke="none" d="M26.7 27.55 L26.55 27.55 25.95 27.7 Q25.45 27.95 25.7 28.5 26.0 29.0 26.5 28.75 L28.5 28.75 34.65 28.4 35.45 28.35 37.15 28.25 Q39.15 28.55 41.35 28.3 L44.55 28.7 Q45.1 28.8 45.3 28.25 45.45 27.65 44.9 27.55 L44.7 27.5 44.65 27.4 44.3 27.45 35.5 27.2 26.7 27.55 M24.75 24.9 L24.7 25.25 Q28.55 25.05 35.35 25.1 L46.0 25.1 46.85 25.8 47.65 26.15 Q53.55 26.1 61.25 27.8 L61.7 28.2 61.95 28.65 61.7 29.05 59.5 29.75 57.1 30.3 54.65 30.6 47.25 31.15 46.15 31.95 45.05 32.65 Q41.35 32.25 35.05 32.45 L25.05 32.55 Q24.75 32.45 24.6 32.9 24.4 33.35 24.05 33.2 23.3 32.0 23.4 29.45 L23.65 25.3 23.7 25.3 23.75 25.1 23.75 24.75 Q23.85 24.35 24.3 24.4 24.8 24.5 24.75 24.9"/><path stroke="none" fill="url(#gradient17)" d="M33.15 17.2 L30.0 14.0 59.6 14.0 74.4 28.8 59.6 43.65 30.0 43.65 33.15 40.45 57.3 40.5 69.7 28.6 57.45 17.2 33.15 17.2"/><path fill="#ffffff" stroke="none" d="M71.1 47.7 L71.95 48.4 72.75 48.75 Q78.8 48.7 86.35 50.45 L86.5 50.6 86.8 50.8 87.05 51.25 86.8 51.65 84.6 52.35 82.2 52.9 79.75 53.2 72.35 53.75 71.25 54.55 70.15 55.25 Q66.5 54.9 60.15 55.05 L50.15 55.15 Q49.85 55.05 49.7 55.5 49.5 55.95 49.15 55.8 48.4 54.6 48.5 52.05 L48.75 47.9 48.85 47.9 48.85 47.35 Q48.95 46.95 49.4 47.0 49.9 47.1 49.85 47.5 L49.8 47.85 Q53.65 47.65 60.45 47.7 L71.1 47.7 M69.75 50.05 L69.4 50.05 60.6 49.8 51.8 50.15 51.65 50.15 51.05 50.3 Q50.55 50.55 50.85 51.1 51.1 51.6 51.6 51.35 L53.6 51.35 59.75 51.0 60.55 50.95 62.25 50.85 Q64.25 51.15 66.45 50.9 L69.65 51.3 Q70.2 51.4 70.4 50.85 70.55 50.25 70.0 50.15 L69.8 50.1 69.75 50.05"/><path stroke="none" fill="url(#gradient18)" d="M82.55 39.8 L58.25 39.8 55.1 36.6 84.7 36.6 99.5 51.4 84.7 66.25 55.1 66.25 58.25 63.05 82.4 63.1 94.8 51.2 82.55 39.8"/><path fill="#ffffff" stroke="none" d="M2.8 61.65 L2.8 61.15 Q2.9 60.75 3.35 60.8 3.85 60.85 3.8 61.25 L3.75 61.6 Q7.65 61.4 14.4 61.45 L25.05 61.45 26.75 62.5 Q32.35 62.45 40.3 64.2 L40.45 64.35 40.75 64.55 41.0 65.0 40.75 65.4 39.55 65.85 38.55 66.1 36.15 66.65 33.7 66.95 26.3 67.55 25.2 68.3 24.1 69.0 Q20.5 68.65 14.1 68.85 L4.1 68.9 Q3.8 68.8 3.65 69.3 3.45 69.75 3.1 69.55 2.4 68.35 2.5 65.85 L2.7 61.65 2.8 61.65 M13.7 64.8 L14.5 64.7 16.2 64.65 Q18.3 64.95 20.4 64.65 L23.65 65.05 Q24.2 65.15 24.35 64.6 24.5 64.0 23.95 63.9 L23.75 63.85 23.7 63.8 23.35 63.8 14.6 63.55 5.75 63.9 5.65 63.9 5.0 64.05 Q4.5 64.35 4.8 64.9 5.05 65.35 5.5 65.15 L5.65 65.15 7.55 65.1 13.7 64.8"/><path stroke="none" fill="url(#gradient19)" d="M36.5 53.55 L12.25 53.55 9.05 50.35 38.65 50.35 53.45 65.2 38.65 80.0 9.05 80.0 12.25 76.85 36.35 76.85 48.75 65.0 36.5 53.55"/></g></defs><g><g><use transform="matrix(1.0,0.0,0.0,1.0,0.0,0.0)" xlink:href="#c1"/></g></g></svg>