<?xml version='1.0' encoding='UTF-8'?>
<svg xmlns="http://www.w3.org/2000/svg" xmlns:xlink="http://www.w3.org/1999/xlink" version="1.1" width="83px" height="92px" viewBox="7.8 3.2 83.0 91.6"><defs><g id="c1"><path fill="#ffffff" stroke="none" d="M8.85 26.5 Q9.45 23.6 11.8 19.0 14.45 13.8 15.1 11.6 14.55 14.35 15.15 19.5 L15.9 23.6 Q16.45 26.05 16.35 27.75 16.25 29.75 13.65 34.6 11.4 38.85 12.1 41.5 L11.35 42.25 Q11.5 40.65 10.7 38.65 L9.1 35.25 Q7.8 32.05 8.85 26.5"/><path fill="#ffffff" stroke="none" d="M79.4 16.0 L75.7 11.5 Q76.8 11.65 78.2 12.6 79.55 13.5 80.15 14.45 81.2 14.8 82.6 16.25 84.05 17.8 84.4 18.95 87.4 20.75 86.65 27.75 L85.6 32.3 Q84.9 35.1 85.15 36.7 83.95 35.2 83.85 33.0 L84.6 32.0 Q84.1 31.05 84.05 29.15 L83.85 26.25 Q83.05 22.85 81.65 21.2 81.3 18.6 79.4 16.0"/><path fill="#ffffff" stroke="none" d="M46.7 43.75 Q46.1 42.35 45.0 41.35 42.3 38.8 38.15 39.35 34.0 39.85 30.9 43.2 27.75 46.55 27.45 50.7 27.1 54.85 29.85 57.45 30.95 58.45 32.4 59.0 L38.75 68.25 39.65 68.5 40.1 69.95 48.45 79.9 Q51.55 83.1 54.6 84.2 68.65 89.3 73.95 83.65 78.85 78.45 73.1 64.55 71.8 61.55 68.45 58.65 L58.0 50.85 56.55 50.5 56.25 49.6 46.7 43.75 M53.65 20.85 Q51.35 27.25 59.55 32.5 59.95 26.1 60.65 23.95 62.1 19.4 66.75 17.2 63.2 20.9 63.0 26.85 62.8 32.3 65.35 36.85 67.1 39.95 70.65 44.4 73.25 48.35 72.9 52.75 74.2 49.55 74.8 46.8 75.85 41.8 75.6 33.65 L78.35 44.65 Q81.1 57.6 81.1 67.4 83.15 64.55 83.35 62.25 L83.45 58.6 Q83.5 56.55 84.15 55.05 85.7 51.75 88.3 50.0 87.15 51.1 87.2 55.6 87.25 59.3 87.85 61.75 L89.7 66.9 Q90.8 69.95 90.6 72.5 90.3 77.1 86.8 81.05 84.8 83.35 79.55 87.2 L74.15 90.8 Q70.55 92.75 68.15 92.55 67.35 93.55 64.4 93.95 61.8 94.3 58.75 94.05 L51.55 94.8 Q47.3 94.8 43.2 93.8 39.95 93.55 35.75 92.2 L28.7 89.7 Q24.45 88.2 21.3 85.45 17.95 82.5 16.5 78.75 16.6 77.7 16.2 75.8 L15.6 72.75 15.35 66.35 Q16.05 67.9 16.75 70.7 17.55 73.05 19.3 74.55 L22.9 77.0 Q17.05 63.5 19.7 45.3 20.5 39.6 22.1 34.15 L23.5 29.8 Q24.05 37.0 24.85 39.65 L26.4 43.65 Q25.95 38.65 28.95 34.15 33.05 29.05 35.05 25.55 37.95 20.4 37.75 14.2 37.5 7.4 33.45 3.2 38.7 5.7 40.4 10.85 41.15 13.2 41.65 20.65 51.0 14.65 48.35 7.35 52.35 12.1 50.3 20.35 49.15 25.0 49.05 26.8 48.8 30.45 50.55 33.4 L50.65 34.05 51.35 34.9 52.05 35.75 52.1 36.25 52.85 36.35 Q51.5 31.25 51.25 28.7 50.75 24.25 53.65 20.85"/><path fill="#ffffff" stroke="none" d="M51.25 62.45 Q48.55 65.3 47.1 68.7 45.75 72.0 45.85 75.05 43.75 71.85 44.45 67.55 45.15 63.2 48.4 59.75 51.65 56.3 55.95 55.35 60.2 54.4 63.5 56.35 60.5 56.4 57.25 57.95 53.95 59.6 51.25 62.45"/><path fill="#ffffff" stroke="none" d="M51.4 53.7 Q48.5 55.1 46.15 57.65 43.8 60.15 42.55 63.15 41.35 66.0 41.45 68.65 39.6 65.85 40.2 62.1 40.8 58.3 43.65 55.3 46.5 52.25 50.3 51.4 54.0 50.6 56.9 52.3 54.2 52.35 51.4 53.7"/><path fill="#ffffff" stroke="none" d="M35.25 47.35 Q37.5 44.95 40.55 44.3 43.5 43.65 45.8 45.0 43.65 45.05 41.45 46.1 39.1 47.25 37.25 49.25 35.4 51.25 34.4 53.6 33.4 55.9 33.5 58.0 32.05 55.75 32.5 52.8 33.0 49.75 35.25 47.35"/></g></defs><g><g><use transform="matrix(1.0,0.0,0.0,1.0,0.0,0.0)" xlink:href="#c1"/></g></g></svg>