<?xml version='1.0' encoding='UTF-8'?>
<svg xmlns="http://www.w3.org/2000/svg" xmlns:xlink="http://www.w3.org/1999/xlink" version="1.1" width="80px" height="69px" viewBox="10.55 15.55 80.0 69.15"><defs><g id="c1"><path fill="#ffffff" stroke="none" d="M50.2 66.65 Q47.85 66.65 45.8 65.85 43.8 65.1 42.55 63.8 43.1 66.05 45.2 67.5 47.4 69.0 50.2 69.0 53.05 69.0 55.2 67.55 57.35 66.1 57.9 63.85 55.1 66.65 50.2 66.65 M56.5 57.3 Q59.2 55.45 59.9 52.65 58.3 54.3 55.8 55.25 53.2 56.2 50.25 56.2 47.3 56.15 44.7 55.2 42.2 54.25 40.65 52.6 41.3 55.4 43.95 57.25 46.7 59.1 50.25 59.1 53.8 59.15 56.5 57.3 M57.6 27.85 Q59.75 30.55 61.9 35.35 63.0 37.9 62.8 41.7 L62.4 45.0 61.45 52.75 60.8 53.85 61.2 54.6 59.15 63.95 Q59.65 65.1 59.65 66.5 59.65 69.7 56.9 71.9 54.1 74.15 50.2 74.15 46.3 74.15 43.5 71.85 40.75 69.6 40.75 66.4 40.75 65.3 41.25 63.95 L39.3 54.6 39.7 53.85 39.1 52.75 38.2 45.0 Q37.9 43.6 37.85 41.7 37.7 37.9 38.8 35.35 40.85 30.7 43.15 27.8 46.55 23.6 50.2 23.6 54.2 23.65 57.6 27.85 M61.25 46.15 Q59.45 48.0 56.6 49.1 53.65 50.2 50.25 50.2 46.9 50.2 43.95 49.05 41.1 48.0 39.25 46.1 40.0 49.3 43.1 51.4 46.2 53.55 50.25 53.55 54.3 53.55 57.4 51.45 60.5 49.35 61.25 46.15"/><path fill="#ffffff" stroke="none" d="M16.3 50.1 L33.75 79.7 67.55 79.7 85.1 49.75 67.75 20.2 33.75 20.2 16.3 50.1 M10.55 50.3 L30.8 15.55 70.35 15.55 90.55 49.9 70.1 84.7 30.8 84.7 10.55 50.3"/></g></defs><g><g><use transform="matrix(1.0,0.0,0.0,1.0,0.0,0.0)" xlink:href="#c1"/></g></g></svg>