<?xml version='1.0' encoding='UTF-8'?>
<svg xmlns="http://www.w3.org/2000/svg" xmlns:xlink="http://www.w3.org/1999/xlink" version="1.1" width="92px" height="91px" viewBox="4.65 8.15 92.39999999999999 91.39999999999999"><defs><g id="c1"><path fill="#ffffff" fill-opacity="0.8" d="M97.05 56.45 L86.5 79.5 Q84.75 77.65 80.15 75.5 70.9 71.25 56.65 69.85 56.3 69.85 56.15 67.95 56.0 66.05 55.6 66.0 L48.8 65.75 42.9 65.95 Q42.35 66.0 42.35 67.85 L42.45 69.7 Q28.3 70.85 19.7 75.05 15.4 77.2 13.95 79.05 14.2 79.05 4.65 61.35 L13.75 67.85 5.95 19.85 27.0 59.3 27.5 34.65 39.2 58.0 48.5 8.15 56.55 59.55 70.05 37.5 68.75 65.75 89.5 18.55 84.35 68.9 97.05 56.45"/><path fill="#ffffff" stroke="none" d="M47.2 65.75 L45.1 65.8 43.0 65.95 Q42.9 65.95 42.75 67.85 L42.45 69.7 38.8 70.0 48.25 37.5 52.25 65.8 47.2 65.75"/><path fill="#ffffff" stroke="none" d="M80.15 71.2 L80.05 75.55 Q75.1 73.25 68.9 71.75 L83.05 43.95 80.15 71.2"/><path fill="#ffffff" stroke="none" d="M15.8 50.45 L30.3 71.6 Q27.0 72.3 23.9 73.4 21.0 74.4 19.45 75.25 L15.8 50.45"/><path fill="#ffffff" stroke="none" d="M66.15 50.4 L65.55 71.1 56.4 69.85 55.75 66.35 Q55.15 65.95 54.75 65.9 L66.15 50.4"/><path fill="#ffffff" stroke="none" d="M31.65 54.85 L38.8 70.0 34.2 70.8 29.9 71.7 31.65 54.85"/><path fill="#ffffff" stroke="none" d="M92.35 63.95 L85.3 78.35 80.05 75.55 92.35 63.95"/><path fill="#ffffff" stroke="none" d="M17.05 83.4 Q18.15 79.35 26.55 76.5 34.95 73.65 46.8 73.25 L46.8 69.5 52.85 69.55 52.85 73.25 Q63.85 73.55 72.05 76.1 L77.05 78.75 Q82.2 81.8 82.65 83.7 L93.35 83.7 93.35 85.7 82.65 85.7 Q81.55 89.75 73.15 92.6 64.7 95.5 52.85 95.85 L52.85 99.25 52.75 99.25 52.75 99.55 46.8 99.55 46.8 95.85 Q35.9 95.55 27.6 93.0 25.15 91.85 22.6 90.35 17.5 87.3 17.0 85.4 L6.3 85.4 6.3 83.4 17.05 83.4 M49.75 75.25 L35.85 76.3 Q29.75 77.25 26.0 79.55 22.25 81.85 22.25 84.45 22.25 88.35 30.35 91.1 38.45 93.85 49.9 93.85 L62.75 92.8 Q69.0 91.35 72.9 89.35 77.45 87.05 77.45 84.65 77.45 80.75 69.35 78.0 61.25 75.25 49.75 75.25"/></g></defs><g><g><use transform="matrix(1.0,0.0,0.0,1.0,0.0,0.0)" xlink:href="#c1"/></g></g></svg>