<?xml version='1.0' encoding='UTF-8'?>
<svg xmlns="http://www.w3.org/2000/svg" xmlns:xlink="http://www.w3.org/1999/xlink" version="1.1" width="96px" height="93px" viewBox="0.0 3.2 96.15 92.95"><defs><g id="c1"><path fill="#ffffff" stroke="none" d="M93.5 25.8 Q94.15 27.55 96.15 26.8 93.75 28.1 93.4 30.75 93.15 32.3 93.35 35.65 93.25 39.5 92.5 41.15 91.45 43.3 88.35 44.65 L83.85 46.4 Q81.85 47.5 80.85 50.1 80.1 52.1 79.3 55.55 L78.0 61.15 Q77.65 60.9 76.8 60.7 L75.6 60.2 Q75.8 63.6 73.4 64.25 L67.75 63.85 61.6 62.85 Q58.55 62.8 57.9 65.0 L56.15 69.45 Q54.9 72.55 55.1 74.15 55.3 75.95 51.35 76.2 47.55 76.4 46.4 75.2 L49.4 73.45 Q51.65 72.1 51.75 71.35 L53.15 62.65 Q53.75 58.95 55.85 57.45 57.15 56.5 61.7 55.2 57.0 52.45 54.75 51.75 L47.15 52.05 Q44.6 53.1 43.3 49.3 L41.7 42.95 Q43.55 43.0 45.05 45.1 46.6 47.3 47.6 47.45 47.95 47.55 49.05 46.65 50.2 45.7 50.7 45.65 L51.6 45.85 52.4 45.9 56.4 44.9 Q57.95 44.75 60.15 45.85 L63.6 47.85 66.6 50.45 68.25 47.05 Q69.25 44.7 68.85 43.45 68.45 42.2 66.2 41.05 64.0 39.9 63.9 39.35 63.7 38.3 62.55 36.7 61.2 34.85 60.9 34.0 60.75 33.7 61.0 32.7 61.2 31.75 60.7 31.05 60.3 30.45 58.8 29.8 L56.65 28.9 57.7 28.65 58.7 28.4 57.6 27.65 Q56.85 27.05 56.45 26.9 L57.4 26.8 58.45 26.85 56.45 25.8 Q57.45 25.65 57.45 25.15 L57.55 24.2 Q59.55 25.05 62.35 28.9 L66.5 34.7 Q67.5 35.95 71.0 36.35 74.75 36.75 75.9 37.75 76.1 37.3 75.5 34.75 75.05 32.75 76.5 32.15 77.35 31.85 77.7 30.55 78.0 29.4 79.35 29.2 L80.8 28.95 82.45 29.2 84.25 33.6 Q84.7 36.05 82.4 37.8 83.8 39.65 86.25 39.45 88.75 39.3 89.35 37.05 90.55 33.5 90.9 31.15 91.5 26.75 88.65 26.85 89.5 26.2 90.65 26.05 88.45 25.05 89.65 24.1 90.8 23.15 92.25 24.75 L91.6 23.1 Q92.7 23.45 93.5 25.8 M29.85 47.0 Q29.2 47.65 29.2 48.6 29.25 49.55 29.9 50.2 30.55 50.85 31.5 50.85 32.45 50.85 33.1 50.15 33.75 49.5 33.75 48.55 33.7 47.6 33.05 46.95 32.4 46.3 31.45 46.35 30.5 46.35 29.85 47.0 M24.1 48.7 Q24.1 47.75 23.45 47.1 22.8 46.45 21.85 46.45 20.9 46.45 20.25 47.15 19.6 47.8 19.6 48.75 19.6 49.7 20.3 50.35 20.95 51.0 21.9 50.95 22.85 50.95 23.5 50.3 24.15 49.65 24.1 48.7 M16.1 30.95 Q16.9 30.25 18.0 29.95 L26.55 28.9 34.6 29.2 36.4 44.4 38.2 44.4 Q38.6 44.4 38.6 45.85 L38.7 51.7 Q38.8 53.15 38.4 53.15 L36.6 53.2 35.35 68.45 Q35.0 70.05 18.75 68.35 17.6 68.15 16.8 67.45 L15.5 54.3 0.0 54.75 0.0 44.3 15.3 44.15 16.1 30.95"/><path fill="#ffffff" fill-opacity="0.8" d="M0.0 18.05 Q0.1 14.15 1.15 11.3 L84.7 18.7 0.0 18.05 M4.4 5.95 Q5.95 4.25 8.0 3.2 L63.0 13.4 3.25 7.3 4.4 5.95 M0.0 83.25 L0.0 79.45 91.95 78.8 0.3 86.9 Q0.0 85.2 0.0 83.25 M4.6 95.6 Q2.6 93.6 1.5 91.1 L70.25 84.1 5.15 96.15 4.6 95.6"/></g></defs><g><g><use transform="matrix(1.0,0.0,0.0,1.0,0.0,0.0)" xlink:href="#c1"/></g></g></svg>