<?xml version='1.0' encoding='UTF-8'?>
<svg xmlns="http://www.w3.org/2000/svg" xmlns:xlink="http://www.w3.org/1999/xlink" version="1.1" width="93px" height="100px" viewBox="2.85 0.0 92.75 100.0"><defs><g id="c1"><path fill="#ffffff" stroke="none" d="M36.65 71.8 Q35.65 69.45 35.5 67.0 35.35 64.6 38.25 61.9 L41.15 59.65 40.3 62.15 Q39.55 64.95 40.0 66.5 40.45 68.05 44.25 68.75 L47.9 69.15 37.65 73.65 36.65 71.8"/><path fill="#ffffff" fill-opacity="0.8" d="M11.3 11.0 Q9.2 11.75 7.95 11.4 8.1 9.8 8.9 6.25 L9.85 0.85 Q12.8 0.0 16.15 0.05 L32.6 0.05 Q32.25 1.4 30.9 2.75 29.35 4.35 28.95 5.15 L32.35 7.6 Q31.5 8.25 28.7 13.15 26.0 17.95 24.7 18.8 L31.4 17.85 37.9 16.55 37.05 23.15 Q36.3 27.4 35.0 29.2 L44.35 28.75 Q44.05 31.4 42.35 35.0 L39.45 40.9 40.6 41.25 40.7 41.65 40.8 41.7 35.7 41.65 36.85 38.0 Q37.65 35.7 37.6 34.2 35.7 33.9 32.35 35.05 28.8 36.25 26.95 36.15 30.65 29.45 30.8 25.2 24.4 27.8 18.4 31.7 12.4 35.55 9.05 36.9 L6.05 38.4 Q4.15 39.25 2.85 39.2 5.25 37.7 8.3 32.15 L12.7 23.6 Q14.3 20.7 17.25 15.95 L21.85 8.45 Q20.55 9.15 18.35 9.45 L14.65 9.9 11.3 11.0"/><path fill="#ffffff" fill-opacity="0.8" d="M80.05 8.85 Q78.4 8.1 76.1 6.15 L72.4 3.0 69.2 0.05 83.05 0.05 Q87.85 0.05 91.45 1.85 L95.6 13.65 Q89.65 18.4 80.4 20.0 L85.1 23.3 Q88.45 25.6 90.05 25.65 L87.3 27.35 Q86.3 27.85 84.4 28.9 83.35 29.5 80.75 30.3 78.3 31.1 77.2 31.75 L79.45 34.9 Q80.9 36.95 81.05 38.4 L71.6 39.65 66.3 39.45 61.2 39.2 Q60.95 40.65 61.8 43.45 58.15 44.35 51.75 44.45 53.95 42.45 57.3 41.7 L56.65 40.15 Q56.25 39.25 56.45 38.45 L59.65 37.55 62.7 36.25 66.7 35.5 Q69.3 35.15 70.15 34.2 L68.65 32.7 66.95 31.35 Q69.6 28.1 76.15 25.35 L68.85 22.2 Q63.05 19.5 63.35 18.1 63.55 17.2 66.15 15.65 L69.65 13.75 Q73.45 11.35 80.05 8.85"/><path fill="#ffffff" stroke="none" d="M58.55 67.9 Q65.5 64.3 63.5 60.4 61.75 56.9 54.8 54.25 47.55 51.5 46.75 50.4 45.35 48.45 46.75 45.95 L48.4 43.9 48.45 44.7 Q48.65 45.75 49.5 47.15 49.85 47.7 59.8 50.85 69.7 53.95 71.9 57.9 74.55 62.65 71.85 68.15 69.55 72.9 63.65 77.65 57.35 82.7 54.45 86.15 50.7 90.65 51.4 93.75 52.25 97.75 55.6 100.0 L21.1 100.0 Q22.1 94.1 25.15 88.8 29.95 80.35 38.75 76.4 47.1 72.65 58.55 67.9"/><path fill="#ffffff" stroke="none" d="M66.5 79.25 L70.95 82.25 Q75.55 86.25 76.25 91.25 77.15 97.4 76.2 100.0 L58.7 100.0 Q62.4 97.35 62.15 94.65 62.0 92.7 59.8 90.4 L57.65 88.5 66.5 79.25"/></g></defs><g><g><use transform="matrix(1.0,0.0,0.0,1.0,0.0,0.0)" xlink:href="#c1"/></g></g></svg>