<?xml version='1.0' encoding='UTF-8'?>
<svg xmlns="http://www.w3.org/2000/svg" xmlns:xlink="http://www.w3.org/1999/xlink" version="1.1" width="93px" height="99px" viewBox="3.4 0.45 93.25 99.14999999999999"><defs><g id="c1"><path fill="#ffffff" stroke="none" d="M48.55 41.7 Q49.25 41.1 50.15 41.15 51.05 41.2 51.7 41.9 52.3 42.55 52.25 43.5 52.2 44.4 51.5 45.0 50.8 45.6 49.9 45.55 49.0 45.5 48.4 44.85 47.8 44.15 47.85 43.25 47.9 42.35 48.55 41.7"/><path fill="#ffffff" stroke="none" d="M48.4 54.6 Q49.05 54.0 50.0 54.05 50.9 54.1 51.5 54.8 52.15 55.45 52.1 56.4 52.05 57.3 51.35 57.9 50.65 58.5 49.75 58.45 48.85 58.4 48.25 57.7 47.65 57.0 47.7 56.1 47.75 55.2 48.4 54.6"/><path fill="#ffffff" stroke="none" d="M84.75 27.0 Q86.25 29.95 86.35 32.6 86.5 35.6 85.25 38.95 L82.55 44.85 Q83.5 45.9 85.8 45.85 87.8 45.85 89.25 45.1 89.3 46.35 87.9 48.4 L85.7 51.35 Q84.4 53.1 84.55 54.75 84.6 55.75 85.6 58.25 87.25 62.35 86.75 66.15 86.5 67.95 85.45 69.05 L83.15 70.9 78.3 72.9 Q73.7 74.8 72.0 76.25 L71.9 76.25 71.4 76.95 Q68.5 81.35 73.1 82.1 77.45 82.8 80.55 80.45 L82.35 78.8 Q81.45 83.65 75.25 85.35 L69.8 86.25 Q65.95 87.15 66.1 88.9 L69.05 89.5 Q68.6 90.5 66.5 92.15 64.05 94.05 63.45 94.8 61.65 97.1 61.5 99.6 L55.45 99.6 55.8 62.25 66.25 60.85 72.0 59.85 Q72.6 59.4 72.95 51.25 L73.15 41.7 Q73.05 40.5 72.25 39.8 L71.45 39.35 56.2 38.3 56.2 36.2 Q56.2 35.75 54.5 35.75 L46.8 35.8 Q45.1 35.8 45.1 36.2 L45.1 38.25 27.45 40.05 Q25.6 40.5 27.95 59.3 28.2 60.6 29.0 61.5 L44.3 62.75 44.15 99.6 37.1 99.6 Q35.0 96.45 35.05 90.85 35.05 89.9 37.1 85.95 38.6 83.0 37.05 82.6 L32.9 82.45 28.9 82.1 Q25.3 80.75 21.85 78.1 17.65 74.8 17.05 71.8 L16.75 71.35 19.15 73.55 Q20.7 74.8 21.85 75.0 L21.95 75.25 26.75 75.7 Q29.75 75.5 31.55 74.15 L30.0 73.9 Q19.7 68.7 14.45 66.55 9.45 64.5 7.6 59.3 5.85 54.45 7.35 48.65 8.25 45.3 10.4 43.0 L12.5 41.15 Q10.65 44.0 11.0 47.05 11.45 50.4 14.65 51.25 18.5 52.3 21.25 48.55 23.7 45.05 23.3 40.9 23.1 38.4 20.5 35.15 17.4 31.65 16.25 30.0 14.0 26.8 14.75 23.55 15.4 20.5 18.4 17.95 18.3 21.2 18.45 22.0 18.75 23.95 20.45 25.25 24.65 28.5 28.2 27.15 30.0 26.5 31.5 25.4 33.3 24.05 33.85 22.6 34.5 20.85 34.2 18.35 33.9 16.15 33.05 14.35 31.8 11.7 29.25 9.55 L24.4 6.1 Q28.55 5.75 32.2 7.75 35.9 9.8 37.85 13.55 L41.3 20.75 Q43.8 24.3 48.1 22.4 51.65 20.85 51.5 15.7 51.35 11.75 49.45 7.9 47.65 4.25 49.2 0.45 L56.75 0.45 Q56.9 3.25 57.75 4.7 L59.75 7.8 61.85 10.8 Q63.85 13.9 64.25 18.5 L64.6 22.35 Q64.7 24.8 64.3 26.15 66.1 26.3 67.85 24.55 69.7 22.7 69.35 20.8 69.8 22.7 69.85 25.3 L69.9 29.8 Q69.95 31.85 71.85 32.75 73.4 33.5 75.7 33.35 77.8 33.2 79.25 32.0 80.75 30.8 81.25 28.8 L81.7 25.6 Q81.85 23.3 81.3 22.1 83.45 24.4 84.75 27.0"/><path fill="#ffffff" stroke="none" d="M39.15 3.25 Q37.45 3.05 36.55 0.45 L41.85 0.45 Q42.05 4.45 39.15 4.1 L39.15 3.25"/><path fill="#ffffff" stroke="none" d="M74.8 24.9 Q72.35 23.15 73.75 18.9 75.85 14.25 76.0 12.65 78.1 16.95 78.6 20.35 79.35 25.85 75.15 26.1 L74.8 24.9"/><path fill="#ffffff" stroke="none" d="M90.0 56.9 Q88.75 56.2 89.1 54.85 89.25 54.25 90.15 52.75 L90.5 52.9 Q92.75 51.8 94.1 50.2 L95.35 48.0 Q96.0 46.4 96.45 45.9 L96.65 44.9 96.45 50.4 Q95.95 53.45 94.3 55.1 91.5 57.8 90.0 56.9"/><path fill="#ffffff" stroke="none" d="M5.45 23.95 L7.1 27.1 Q8.1 29.0 7.95 30.55 7.85 31.6 6.8 33.9 L6.0 33.4 Q4.55 31.95 4.1 30.95 3.55 29.7 3.65 27.75 L4.1 24.25 Q4.25 22.05 3.4 21.05 4.4 22.05 5.45 23.95"/><path fill="#ffffff" stroke="none" d="M13.3 77.55 Q13.95 78.4 14.45 80.35 15.0 82.3 15.6 83.1 L17.95 84.85 Q19.6 85.8 20.3 86.75 21.7 88.7 20.8 89.5 20.15 90.0 17.8 90.25 L17.0 90.75 Q14.85 90.7 13.4 89.15 12.0 87.2 11.0 86.2 10.8 82.3 9.3 78.75 8.8 77.45 7.15 75.6 5.35 73.5 4.85 72.6 6.8 73.05 8.2 74.7 12.2 76.05 13.3 77.55"/><path fill="#ffffff" stroke="none" d="M82.3 94.1 L82.15 93.4 Q82.4 91.55 83.45 89.35 84.5 87.15 85.85 85.7 L88.6 83.2 Q90.35 81.55 90.65 80.25 L90.65 84.6 90.55 87.15 Q90.35 88.1 89.25 89.2 L86.15 92.35 Q84.0 94.15 82.3 94.1"/></g></defs><g><g><use transform="matrix(1.0,0.0,0.0,1.0,0.0,0.0)" xlink:href="#c1"/></g></g></svg>