<?xml version='1.0' encoding='UTF-8'?>
<svg xmlns="http://www.w3.org/2000/svg" xmlns:xlink="http://www.w3.org/1999/xlink" version="1.1" width="100px" height="99px" viewBox="0.5 0.45 100.0 99.14999999999999"><defs><g id="c1"><path fill="#ffffff" stroke="none" d="M8.4 97.35 L6.15 95.75 23.15 78.2 8.4 97.35"/><path fill="#ffffff" stroke="none" d="M13.5 99.2 L10.8 98.45 25.6 80.25 13.5 99.2"/><path fill="#ffffff" stroke="none" d="M19.05 99.6 L15.4 99.5 31.75 75.4 19.05 99.6"/><path fill="#ffffff" stroke="none" d="M24.35 99.6 L22.1 99.6 31.0 83.65 24.35 99.6"/><path fill="#ffffff" stroke="none" d="M27.3 99.6 L32.15 88.8 28.7 99.6 27.3 99.6"/><path fill="#ffffff" stroke="none" d="M34.1 99.6 L31.65 99.6 38.65 79.35 34.1 99.6"/><path fill="#ffffff" stroke="none" d="M36.75 99.6 L39.95 86.85 38.25 99.6 36.75 99.6"/><path fill="#ffffff" stroke="none" d="M41.65 99.6 L44.15 83.9 43.45 99.6 41.65 99.6"/><path fill="#ffffff" stroke="none" d="M45.45 99.6 L46.3 87.65 46.8 99.6 45.45 99.6"/><path fill="#ffffff" stroke="none" d="M53.65 99.6 L51.2 99.6 50.85 78.15 53.65 99.6"/><path fill="#ffffff" stroke="none" d="M53.9 99.6 L52.65 87.35 55.35 99.6 53.9 99.6"/><path fill="#ffffff" stroke="none" d="M58.25 99.6 L55.8 86.8 59.8 99.6 58.25 99.6"/><path fill="#ffffff" stroke="none" d="M64.0 99.6 L60.6 87.7 65.5 99.6 64.0 99.6"/><path fill="#ffffff" stroke="none" d="M70.5 99.6 L67.4 99.6 58.7 76.8 70.5 99.6"/><path fill="#ffffff" stroke="none" d="M74.95 99.6 L72.55 99.6 64.7 83.5 74.95 99.6"/><path fill="#ffffff" stroke="none" d="M79.75 99.6 L70.65 84.35 82.3 99.6 79.75 99.6"/><path fill="#ffffff" stroke="none" d="M87.55 99.2 L84.2 99.6 70.05 80.05 87.55 99.2"/><path fill="#ffffff" stroke="none" d="M93.75 96.5 L90.25 98.4 68.3 73.1 93.75 96.5"/><path fill="#ffffff" stroke="none" d="M97.25 93.05 L95.7 94.8 95.05 95.4 74.75 75.75 97.25 93.05"/><path fill="#ffffff" stroke="none" d="M99.35 89.35 L97.55 92.7 71.55 71.55 99.35 89.35"/><path fill="#ffffff" stroke="none" d="M100.5 82.15 L100.5 82.45 100.3 85.35 78.6 70.65 100.5 82.15"/><path fill="#ffffff" stroke="none" d="M100.5 81.1 L81.25 70.35 100.5 78.4 100.5 81.1"/><path fill="#ffffff" stroke="none" d="M100.5 73.5 L81.5 65.0 100.5 71.05 100.5 73.5"/><path fill="#ffffff" stroke="none" d="M100.5 68.9 L84.7 63.4 100.5 66.95 100.5 68.9"/><path fill="#ffffff" stroke="none" d="M100.5 63.25 L83.4 58.95 100.5 61.2 100.5 63.25"/><path fill="#ffffff" stroke="none" d="M100.5 59.25 L74.5 55.1 100.5 56.3 100.5 59.25"/><path fill="#ffffff" stroke="none" d="M100.5 53.8 L84.2 52.6 100.5 51.95 100.5 53.8"/><path fill="#ffffff" stroke="none" d="M100.5 48.55 L88.75 48.75 100.5 47.2 100.5 48.55"/><path fill="#ffffff" stroke="none" d="M100.5 44.55 L83.9 46.25 100.5 42.6 100.5 44.55"/><path fill="#ffffff" stroke="none" d="M100.5 39.8 L83.35 43.15 100.5 37.75 100.5 39.8"/><path fill="#ffffff" stroke="none" d="M100.5 34.95 L82.5 40.05 100.5 32.65 100.5 34.95"/><path fill="#ffffff" stroke="none" d="M100.5 26.55 L100.5 29.85 76.15 39.15 100.5 26.55"/><path fill="#ffffff" stroke="none" d="M100.5 24.25 L80.05 34.2 100.5 21.2 100.5 24.25"/><path fill="#ffffff" stroke="none" d="M100.35 14.7 L100.5 17.6 100.5 18.25 78.45 31.45 100.35 14.7"/><path fill="#ffffff" stroke="none" d="M100.3 14.15 L75.2 32.35 99.5 10.2 Q100.1 12.25 100.3 14.15"/><path fill="#ffffff" stroke="none" d="M97.65 6.4 L74.55 26.4 95.35 3.8 96.65 5.05 97.65 6.4"/><path fill="#ffffff" stroke="none" d="M93.35 2.45 L72.3 24.15 90.05 1.1 93.35 2.45"/><path fill="#ffffff" stroke="none" d="M86.65 0.55 L66.0 25.95 82.35 0.45 84.05 0.45 86.65 0.55"/><path fill="#ffffff" stroke="none" d="M80.7 0.45 L67.25 20.3 77.6 0.45 80.7 0.45"/><path fill="#ffffff" stroke="none" d="M64.45 18.7 L72.1 0.45 74.65 0.45 64.45 18.7"/><path fill="#ffffff" stroke="none" d="M71.15 0.45 L61.2 22.65 68.25 0.45 71.15 0.45"/><path fill="#ffffff" stroke="none" d="M62.15 0.45 L64.05 0.45 58.55 16.3 62.15 0.45"/><path fill="#ffffff" stroke="none" d="M60.15 0.45 L55.15 20.4 57.8 0.45 60.15 0.45"/><path fill="#ffffff" stroke="none" d="M54.7 0.45 L52.35 14.95 53.0 0.45 54.7 0.45"/><path fill="#ffffff" stroke="none" d="M49.2 14.7 L48.6 0.45 50.2 0.45 49.2 14.7"/><path fill="#ffffff" stroke="none" d="M47.25 0.45 L47.4 8.75 46.3 0.45 47.25 0.45"/><path fill="#ffffff" stroke="none" d="M41.3 0.45 L42.8 15.0 39.6 0.45 41.3 0.45"/><path fill="#ffffff" stroke="none" d="M38.75 10.65 L35.85 0.45 36.75 0.45 38.75 10.65"/><path fill="#ffffff" stroke="none" d="M38.75 10.65 L42.6 24.1 32.85 0.45 34.95 0.45 39.7 15.55 38.75 10.65"/><path fill="#ffffff" stroke="none" d="M34.95 0.45 L35.85 0.45 38.75 10.65 39.7 15.55 34.95 0.45"/><path fill="#ffffff" stroke="none" d="M27.1 0.45 L33.6 17.5 24.8 0.45 27.1 0.45"/><path fill="#ffffff" stroke="none" d="M21.8 0.45 L30.75 18.85 19.05 0.45 21.8 0.45"/><path fill="#ffffff" stroke="none" d="M13.0 0.85 L16.05 0.5 28.0 20.45 13.0 0.85"/><path fill="#ffffff" stroke="none" d="M7.05 3.3 Q8.6 2.15 10.75 1.45 L31.7 30.35 7.05 3.3"/><path fill="#ffffff" stroke="none" d="M3.7 6.6 L4.9 5.15 5.7 4.4 22.95 24.35 3.7 6.6"/><path fill="#ffffff" stroke="none" d="M1.3 11.65 Q1.75 10.1 2.35 8.85 L20.7 26.6 1.3 11.65"/><path fill="#ffffff" stroke="none" d="M0.7 14.45 L18.65 29.05 0.5 17.45 0.7 14.45"/><path fill="#ffffff" stroke="none" d="M0.5 24.35 L0.5 20.5 25.3 37.3 0.5 24.35"/><path fill="#ffffff" stroke="none" d="M0.5 28.3 L0.5 26.2 15.25 34.45 0.5 28.3"/><path fill="#ffffff" stroke="none" d="M0.5 33.05 L0.5 31.35 13.95 37.35 0.5 33.05"/><path fill="#ffffff" stroke="none" d="M0.5 35.6 L10.05 38.95 0.5 36.8 0.5 35.6"/><path fill="#ffffff" stroke="none" d="M0.5 40.5 L12.05 43.4 0.5 41.85 0.5 40.5"/><path fill="#ffffff" stroke="none" d="M0.5 44.8 L11.5 46.55 0.5 46.05 0.5 44.8"/><path fill="#ffffff" stroke="none" d="M0.5 48.95 L11.25 49.75 0.5 50.15 0.5 48.95"/><path fill="#ffffff" stroke="none" d="M0.5 53.1 L11.25 52.9 0.5 54.3 0.5 53.1"/><path fill="#ffffff" stroke="none" d="M0.5 57.2 L11.55 56.1 0.5 58.5 0.5 57.2"/><path fill="#ffffff" stroke="none" d="M11.9 64.75 L0.5 69.45 0.5 68.0 11.9 64.75"/><path fill="#ffffff" stroke="none" d="M0.5 70.45 L14.05 65.3 0.5 72.3 0.5 70.45"/><path fill="#ffffff" stroke="none" d="M0.5 78.15 L0.5 74.15 27.35 61.15 0.5 78.15"/><path fill="#ffffff" stroke="none" d="M0.55 83.5 L0.5 80.8 17.0 70.9 0.55 83.5"/><path fill="#ffffff" stroke="none" d="M1.6 89.25 Q1.1 87.85 0.9 86.55 L18.85 73.5 1.6 89.25"/><path fill="#ffffff" stroke="none" d="M3.95 93.5 Q2.85 92.1 1.95 90.1 L27.2 68.25 3.95 93.5"/><path fill="#ffffff" stroke="none" d="M49.85 38.65 Q45.85 38.7 42.85 40.8 39.85 42.85 39.15 45.95 40.9 44.1 43.7 43.05 46.55 41.95 49.85 41.9 53.15 41.9 56.1 42.95 58.9 44.0 60.7 45.8 59.95 42.7 56.9 40.65 53.85 38.6 49.85 38.65 M42.85 49.9 Q46.15 48.65 49.9 48.65 53.7 48.6 57.0 49.85 60.25 51.0 62.25 53.1 61.4 49.5 57.95 47.2 54.45 44.85 49.9 44.85 45.35 44.9 41.9 47.3 38.45 49.65 37.65 53.25 39.7 51.15 42.85 49.9 M49.75 27.6 Q46.6 27.6 44.2 29.3 41.8 30.95 41.25 33.4 42.65 31.95 44.85 31.1 47.15 30.25 49.8 30.2 52.45 30.2 54.7 31.05 56.95 31.85 58.4 33.3 57.8 30.8 55.4 29.2 52.95 27.55 49.75 27.6 M39.8 33.3 Q39.2 31.85 39.2 30.5 39.2 26.95 42.3 24.4 45.35 21.85 49.75 21.8 54.15 21.75 57.25 24.3 60.35 26.8 60.4 30.35 60.4 31.75 59.85 33.15 L62.15 43.6 61.7 44.4 62.4 45.65 63.95 58.0 Q64.15 62.3 62.9 65.15 57.15 78.35 50.3 78.4 42.85 78.45 37.1 65.35 35.8 62.5 36.0 58.25 L37.4 45.9 38.05 44.65 37.6 43.85 39.8 33.3"/></g></defs><g><g><use transform="matrix(1.0,0.0,0.0,1.0,0.0,0.0)" xlink:href="#c1"/></g></g></svg>