<?xml version='1.0' encoding='UTF-8'?>
<svg xmlns="http://www.w3.org/2000/svg" xmlns:xlink="http://www.w3.org/1999/xlink" version="1.1" width="96px" height="92px" viewBox="3.9 3.7 96.05 92.25"><defs><linearGradient gradientUnits="userSpaceOnUse" x1="-819.2" x2="819.2" spreadMethod="pad" gradientTransform="matrix(0.037384033203125,0.03033447265625,0.03033447265625,-0.037384033203125,34.7,58.0)" id="gradient20"><stop offset="0.0" stop-color="#ffffff"/><stop offset="1.0" stop-color="#ffffff"/></linearGradient><g id="c1"><path fill="#ffffff" fill-opacity="0.8" d="M94.1 3.7 L99.95 13.85 99.95 82.35 83.7 94.8 88.2 81.45 64.3 87.9 84.75 59.15 56.65 59.15 86.15 44.3 56.55 30.15 88.2 31.95 70.75 10.5 90.85 20.4 94.1 3.7"/><path stroke="none" fill="url(#gradient20)" d="M59.9 70.35 Q58.9 65.7 54.2 61.25 54.85 67.0 52.9 71.25 50.2 77.3 40.55 85.7 40.05 86.1 39.5 85.45 38.9 84.85 38.4 85.15 38.2 85.45 38.35 86.15 L38.4 87.15 Q36.65 88.35 35.5 89.95 35.0 90.65 34.25 93.0 33.65 95.1 33.45 95.1 32.85 95.2 32.0 94.15 31.3 93.25 31.0 92.25 30.8 91.7 30.9 90.25 L31.2 87.45 Q31.5 84.25 32.35 83.2 34.6 81.95 36.0 82.0 38.4 79.45 41.45 74.45 44.75 69.05 46.6 66.85 46.2 65.95 45.9 63.15 45.6 60.7 44.7 59.4 42.45 55.75 41.95 54.15 40.65 50.75 35.6 43.8 31.85 38.6 29.6 36.1 28.05 38.5 27.8 40.35 L27.15 43.75 Q26.75 45.0 25.9 45.9 L24.0 47.25 22.55 47.3 Q22.2 46.9 23.35 45.15 24.8 42.9 25.05 41.95 25.5 40.5 25.6 37.05 L25.8 32.1 24.55 30.95 21.5 30.85 17.6 31.95 12.2 32.45 Q9.0 32.5 7.7 33.05 7.2 33.25 6.0 34.3 5.05 35.15 4.2 35.2 3.9 34.3 4.75 32.6 5.6 30.95 6.65 30.2 9.0 28.45 15.7 27.55 22.25 26.7 24.8 24.6 24.4 23.75 22.1 22.7 19.8 21.65 19.15 20.1 18.45 18.5 19.35 16.3 20.25 14.15 22.0 13.3 23.95 12.35 26.2 13.95 28.95 15.95 30.3 15.95 29.95 17.1 31.15 18.3 L33.2 20.15 Q33.35 20.9 31.8 21.6 30.05 22.4 29.85 22.9 37.9 27.4 44.95 36.75 L51.15 47.05 51.25 47.55 Q62.05 58.85 64.1 63.25 66.35 68.2 66.45 69.35 66.75 72.15 64.0 76.9 L60.55 84.1 Q57.95 89.25 56.9 88.55 L55.85 87.45 55.8 87.8 Q55.6 88.4 55.9 89.8 56.2 91.3 55.8 92.95 L54.7 95.95 53.75 95.9 Q52.75 94.6 51.7 91.2 50.85 88.35 50.7 86.9 50.55 85.6 53.75 83.85 L53.4 83.1 Q60.3 72.3 59.9 70.35"/></g></defs><g><g><use transform="matrix(1.0,0.0,0.0,1.0,0.0,0.0)" xlink:href="#c1"/></g></g></svg>