<?xml version='1.0' encoding='UTF-8'?>
<svg xmlns="http://www.w3.org/2000/svg" xmlns:xlink="http://www.w3.org/1999/xlink" version="1.1" width="97px" height="78px" viewBox="-0.15 10.35 96.95 78.4"><defs><g id="c1"><path fill="#ffffff" fill-opacity="0.8" d="M52.25 25.8 Q49.5 21.6 47.2 19.75 45.7 18.5 44.5 18.3 L42.4 18.4 Q41.3 18.8 40.15 19.8 39.2 20.55 37.8 22.15 L34.5 26.8 33.6 28.35 Q31.85 31.6 30.7 35.15 28.55 42.0 28.7 50.05 28.85 57.85 31.1 65.1 32.45 69.3 33.95 72.0 L35.75 75.0 37.9 77.35 Q39.05 78.5 40.25 79.15 41.4 79.8 42.35 79.95 43.55 80.05 44.5 79.5 45.75 78.9 47.1 77.55 49.35 75.2 51.75 71.05 L55.7 63.35 Q55.85 68.05 55.15 72.25 54.15 77.55 52.2 81.15 50.75 83.8 48.9 85.4 46.4 87.7 43.25 88.2 40.2 88.75 36.9 87.7 L33.5 86.15 34.25 86.9 33.25 86.05 29.7 83.6 27.75 81.7 27.45 81.3 Q25.55 79.8 23.2 75.05 L19.0 65.95 Q13.5 54.15 8.6 54.3 4.8 54.45 -0.15 54.2 L0.0 47.6 7.9 47.8 Q11.95 47.45 14.4 45.15 16.45 43.25 19.8 34.1 23.35 24.4 24.75 22.65 L28.2 18.1 27.4 19.3 27.7 18.9 31.2 15.45 35.5 12.45 Q38.45 10.85 41.25 10.65 44.7 10.35 47.5 12.05 49.7 13.3 51.55 15.8 54.0 19.4 55.3 24.5 56.4 29.05 56.4 33.3 54.6 29.5 52.25 25.8"/><path fill="#ffffff" stroke="none" d="M32.6 44.7 L32.75 44.7 32.75 44.35 32.8 44.0 32.8 43.8 Q32.95 43.1 33.75 43.2 34.55 43.3 34.45 44.0 L34.4 44.6 Q41.0 44.25 52.25 44.35 L70.1 44.35 Q70.65 45.1 71.5 45.5 L72.9 46.1 Q82.65 46.05 95.65 48.95 L95.85 49.2 96.35 49.5 96.4 49.5 Q96.8 49.7 96.8 50.25 L96.35 51.0 92.7 52.15 Q91.2 52.7 88.7 53.05 L84.6 53.55 72.2 54.5 70.35 55.85 Q69.05 56.45 68.5 57.0 62.35 56.4 51.75 56.7 39.55 57.05 35.0 56.85 34.5 56.65 34.2 57.45 33.9 58.2 33.3 57.95 32.05 55.9 32.25 51.65 32.7 46.85 32.6 44.7 M67.25 48.3 L52.5 47.85 37.7 48.45 37.5 48.45 36.5 48.7 Q35.65 49.15 36.1 50.05 36.6 50.95 37.45 50.45 L37.35 50.55 37.55 50.5 38.65 50.45 40.75 50.45 51.05 49.9 52.35 49.8 55.2 49.65 Q58.65 50.15 62.25 49.7 L67.7 50.35 Q68.65 50.6 68.9 49.6 69.15 48.65 68.2 48.45 L67.9 48.4 67.8 48.25 67.25 48.3"/></g></defs><g><g><use transform="matrix(1.0,0.0,0.0,1.0,0.0,0.0)" xlink:href="#c1"/></g></g></svg>