<?xml version='1.0' encoding='UTF-8'?>
<svg xmlns="http://www.w3.org/2000/svg" xmlns:xlink="http://www.w3.org/1999/xlink" version="1.1" width="84px" height="83px" viewBox="7.8 8.1 83.5 82.65"><defs><g id="c1"><path fill="#ffffff" stroke="none" d="M85.9 33.75 Q80.8 25.5 80.1 27.1 79.9 27.55 79.8 29.0 79.65 30.05 78.9 29.55 L73.45 30.9 75.7 38.95 58.1 40.75 61.9 47.15 Q64.1 50.4 66.05 51.3 62.2 54.05 60.9 58.2 L62.55 62.2 71.3 64.85 75.4 71.2 80.8 67.65 Q82.0 66.85 82.7 67.3 L83.6 68.3 Q84.5 69.05 87.8 62.85 87.9 65.1 90.05 64.35 L91.05 64.2 Q91.3 64.4 90.6 65.9 86.75 74.45 77.55 81.85 67.95 89.6 59.1 90.4 58.4 90.45 60.95 88.45 63.6 86.4 62.8 86.4 71.2 81.25 70.9 80.0 70.85 79.8 70.0 79.3 69.4 78.9 69.9 78.2 L68.5 72.7 60.45 74.95 59.2 62.6 Q52.65 61.45 48.3 66.85 46.95 64.9 44.9 62.9 L41.1 59.65 36.4 61.55 33.65 70.75 26.75 74.1 30.95 79.75 Q32.25 81.7 32.15 83.65 32.9 85.4 39.45 88.9 37.75 89.0 36.1 90.1 35.15 90.75 32.7 89.6 24.15 85.7 16.8 76.55 9.0 66.9 8.2 58.1 8.15 57.4 10.8 61.6 13.55 65.9 13.55 65.1 18.6 73.35 19.25 71.55 L19.55 69.5 Q19.75 68.35 20.45 68.85 L25.9 67.5 23.65 59.45 38.95 57.9 Q34.2 53.85 33.7 50.6 33.0 45.95 38.8 39.35 L39.1 39.0 39.0 38.85 26.3 35.05 24.9 27.35 19.2 32.9 Q16.9 34.45 19.25 28.25 L20.0 26.1 17.75 30.2 Q17.6 27.6 12.2 32.55 L9.0 35.45 Q7.8 36.35 8.5 34.8 12.75 25.5 22.7 17.5 33.15 9.05 42.75 8.2 43.5 8.15 38.6 10.75 33.65 13.45 34.5 13.45 25.55 18.95 27.85 19.95 L30.25 20.45 Q31.6 20.7 31.05 21.5 L32.55 27.45 41.25 24.95 42.4 35.75 Q47.15 31.8 50.95 33.2 53.85 34.25 56.9 38.9 L66.25 34.3 67.05 23.2 72.5 22.75 68.4 18.65 Q67.6 17.45 68.0 16.6 L68.8 15.4 Q69.4 14.15 63.15 10.8 65.4 10.65 64.9 8.95 64.7 8.3 64.85 8.2 65.15 8.1 66.65 8.8 75.2 12.7 82.55 21.85 90.3 31.5 91.15 40.3 91.2 41.0 88.55 37.05 85.9 33.0 85.9 33.75"/></g></defs><g><g><use transform="matrix(1.0,0.0,0.0,1.0,0.0,0.0)" xlink:href="#c1"/></g></g></svg>