<?xml version='1.0' encoding='UTF-8'?>
<svg xmlns="http://www.w3.org/2000/svg" xmlns:xlink="http://www.w3.org/1999/xlink" version="1.1" width="86px" height="77px" viewBox="7.4 11.45 86.19999999999999 77.1"><defs><g id="c1"><path fill="#ffffff" fill-opacity="0.8" d="M43.25 11.45 L57.05 11.45 57.05 24.0 69.55 24.0 69.55 37.8 57.05 37.8 57.05 50.35 43.25 50.35 43.25 37.8 30.7 37.8 30.7 24.0 43.25 24.0 43.25 11.45"/><path fill="#ffffff" stroke="none" d="M36.15 75.3 Q35.45 74.95 36.15 75.55 L37.35 76.0 Q38.0 76.05 38.6 75.5 L39.1 75.0 38.55 74.35 Q36.75 75.6 36.15 75.3 M34.25 72.7 L35.2 74.35 37.15 73.95 Q37.6 73.9 37.75 73.25 L37.85 72.55 37.05 71.55 Q36.15 70.55 35.6 70.75 34.65 71.05 34.25 72.7 M48.65 74.45 L48.3 79.7 44.15 82.75 42.7 80.8 42.4 80.7 Q42.1 80.7 41.95 81.05 40.85 84.0 39.05 86.6 L37.5 88.55 35.25 87.75 Q33.6 86.95 33.4 85.35 33.3 84.4 35.35 80.75 L37.4 77.35 Q35.95 77.4 35.35 76.8 L34.15 75.15 33.1 73.55 Q32.95 73.2 33.4 71.85 L33.9 70.55 31.1 71.6 33.4 69.55 24.6 71.8 Q20.75 71.95 16.05 70.6 13.7 69.9 12.1 69.2 L14.8 62.5 23.2 64.2 Q26.15 64.8 29.05 63.55 L31.4 62.15 30.2 60.45 28.8 60.2 21.7 49.1 22.5 48.1 7.4 26.3 Q7.4 23.8 7.8 23.1 8.1 22.7 9.1 22.8 L10.05 22.95 13.4 20.75 14.8 22.85 12.0 26.45 15.05 31.85 19.55 32.5 23.95 39.45 25.2 39.0 36.4 54.65 37.15 54.9 36.15 56.05 48.65 74.45"/><path fill="#ffffff" stroke="none" d="M63.65 76.0 Q64.35 76.0 64.9 75.55 65.55 75.0 64.85 75.3 64.25 75.6 62.45 74.35 L61.9 75.0 Q62.6 76.05 63.65 76.0 M63.15 72.55 Q63.15 73.9 63.85 73.95 L65.85 74.35 66.75 72.7 66.45 71.85 Q66.0 70.95 65.4 70.75 64.85 70.55 63.95 71.55 L63.15 72.55 M93.2 23.1 Q93.6 23.8 93.6 26.3 L78.5 48.1 79.3 49.1 72.2 60.2 70.85 60.45 69.6 62.15 Q70.5 62.9 71.95 63.55 74.85 64.8 77.8 64.2 L86.25 62.5 88.9 69.2 85.0 70.6 Q80.3 71.95 76.4 71.8 L67.6 69.55 69.9 71.6 67.1 70.55 67.6 71.85 Q68.05 73.2 67.9 73.55 L65.65 76.8 Q65.05 77.4 63.65 77.35 L65.7 80.75 Q67.7 84.4 67.6 85.35 67.4 86.95 65.75 87.75 L63.5 88.55 61.95 86.6 Q60.2 84.0 59.05 81.05 58.95 80.7 58.65 80.7 L58.35 80.8 56.9 82.75 52.75 79.7 52.4 74.45 64.85 56.05 63.85 54.9 64.6 54.65 75.8 39.0 77.05 39.45 81.45 32.5 85.95 31.85 89.05 26.45 86.2 22.85 87.65 20.75 90.95 22.95 91.9 22.8 Q92.9 22.7 93.2 23.1"/></g></defs><g><g><use transform="matrix(1.0,0.0,0.0,1.0,0.0,0.0)" xlink:href="#c1"/></g></g></svg>