<?xml version='1.0' encoding='UTF-8'?>
<svg xmlns="http://www.w3.org/2000/svg" xmlns:xlink="http://www.w3.org/1999/xlink" version="1.1" width="98px" height="84px" viewBox="0.0 11.75 97.75 83.55"><defs><g id="c1"><path fill="#ffffff" stroke="none" d="M34.05 47.25 L34.1 47.3 34.6 48.45 36.4 51.3 39.1 55.7 Q39.85 56.75 40.5 57.15 41.35 57.75 42.65 57.8 44.0 57.85 45.25 56.95 46.55 56.0 46.65 54.75 L46.5 53.35 46.15 51.9 46.15 50.95 45.5 49.3 44.65 47.95 39.05 46.9 38.65 46.9 34.05 47.25 M53.7 60.4 Q55.2 59.6 55.65 58.3 56.2 56.9 56.4 52.55 56.55 50.05 55.7 48.45 L50.35 48.35 45.65 48.05 46.5 49.6 47.3 51.1 Q46.9 51.75 47.15 52.75 47.35 53.65 47.8 54.2 46.75 55.45 46.15 56.85 45.2 58.95 46.15 60.0 L46.95 60.45 47.9 60.85 49.4 60.75 50.75 60.95 Q52.25 61.1 53.7 60.4 M57.0 48.6 Q57.1 50.15 58.2 53.45 59.35 56.85 59.55 58.7 L59.75 62.4 Q59.95 64.65 61.0 65.35 L61.75 65.65 62.6 65.95 63.0 66.35 Q64.55 66.8 66.15 64.9 66.05 64.25 66.5 63.5 L67.1 62.2 Q67.35 60.95 67.2 58.45 67.0 55.65 67.1 54.65 L68.3 54.9 65.8 52.8 Q64.25 51.5 62.9 51.1 L62.85 50.85 60.2 49.7 Q58.5 48.8 57.35 48.6 L57.0 48.6 M69.1 25.5 L66.25 25.0 61.85 23.15 Q59.3 22.0 56.8 22.25 54.25 22.5 49.9 22.25 L43.4 22.05 39.3 21.5 35.95 21.3 35.7 21.15 35.65 20.9 33.4 20.75 30.85 20.6 Q30.2 20.15 29.8 20.4 L19.6 19.45 8.3 19.3 Q4.85 19.1 0.0 19.3 L0.0 17.55 Q0.0 14.4 0.6 11.75 6.9 11.75 9.55 12.55 L6.3 13.75 14.0 14.0 17.25 13.6 20.45 12.95 27.7 12.75 31.6 12.45 Q34.35 12.45 34.85 13.35 L42.25 14.2 Q43.05 15.5 46.35 16.25 L51.15 16.8 61.25 17.0 Q62.5 17.1 63.45 17.75 L65.35 18.95 67.7 19.4 70.15 19.25 Q75.15 18.95 78.6 21.45 L79.4 21.9 79.5 22.25 82.1 22.9 Q83.5 23.35 84.15 24.25 L84.55 25.2 85.05 26.15 Q85.35 26.45 86.15 26.75 87.0 27.05 87.3 27.35 88.25 28.25 89.95 30.95 91.4 33.25 92.95 34.2 93.15 35.8 94.95 36.85 95.0 37.65 96.0 38.2 97.45 38.85 97.6 39.05 L97.4 39.45 Q97.45 39.7 97.75 39.6 L97.4 40.75 97.6 40.65 97.4 42.2 96.3 43.65 Q96.35 44.25 95.9 45.05 L94.9 46.1 Q94.8 48.2 93.7 53.5 92.75 58.25 92.8 61.2 L91.2 55.35 Q90.25 52.05 89.15 49.8 89.0 50.3 89.0 51.25 L88.9 52.7 88.3 53.95 87.35 54.6 Q86.8 55.15 85.05 55.85 83.65 56.55 83.85 57.8 L82.5 58.45 Q81.55 58.95 81.25 59.25 L80.65 60.45 79.7 61.5 Q79.7 62.8 79.1 65.3 L78.25 69.1 78.15 73.4 Q78.15 76.05 77.65 77.25 77.45 75.7 76.3 73.35 L74.55 69.55 73.75 68.55 Q73.25 69.15 72.8 70.95 L71.95 73.55 Q71.25 75.05 70.1 78.4 L69.8 78.45 Q69.35 80.15 68.0 82.85 L65.85 87.05 64.55 91.3 Q63.8 94.05 63.05 95.3 L62.85 91.65 62.5 87.9 61.65 81.3 60.85 74.95 Q60.15 70.7 58.7 69.15 57.5 73.9 54.15 80.8 53.0 79.0 51.95 74.0 L51.25 71.25 50.75 68.55 50.3 68.45 49.8 68.5 48.8 67.5 47.8 65.7 Q47.6 66.75 46.45 68.3 45.3 69.85 45.1 70.9 L43.5 71.2 43.25 74.15 42.7 74.15 Q42.55 73.15 41.6 71.6 L40.2 69.15 38.25 64.7 36.4 60.75 34.55 56.85 Q33.1 53.9 32.6 53.55 31.6 52.9 31.25 54.0 L30.5 55.95 29.95 56.0 29.35 56.0 28.9 56.8 Q28.35 57.45 27.95 59.25 L26.35 63.1 25.45 65.05 Q24.9 66.2 24.7 67.1 L24.35 69.45 Q24.15 71.05 23.7 71.6 23.1 70.5 22.6 68.2 L21.9 64.5 Q21.15 60.3 20.45 58.25 L19.15 53.65 Q18.4 50.85 17.6 49.15 16.8 49.3 15.7 51.2 14.65 53.05 13.2 53.15 12.65 51.8 11.35 51.65 L8.8 51.95 5.9 52.25 Q4.1 52.45 3.15 53.0 L2.2 53.9 1.45 55.0 0.0 56.1 0.0 48.2 Q4.45 47.0 7.9 45.65 L12.5 44.05 14.85 43.15 Q16.2 42.6 17.1 42.5 18.45 42.35 19.7 43.1 L21.8 44.55 22.9 44.75 22.8 44.55 23.35 44.85 26.3 45.5 29.3 45.75 Q30.55 45.45 31.65 44.75 33.3 43.7 35.35 43.65 37.5 43.55 39.05 44.6 L39.25 44.65 Q39.85 44.7 40.05 45.3 41.5 46.3 42.65 46.7 L45.8 47.15 52.8 47.25 Q56.75 47.5 59.4 48.5 62.15 49.45 63.05 50.35 64.2 50.4 65.7 52.05 L68.15 54.45 70.2 55.45 Q72.1 56.0 73.4 55.5 L74.55 54.85 76.5 53.95 Q77.6 53.2 77.45 51.9 77.4 51.15 76.55 50.4 L74.95 49.2 74.4 48.55 73.9 47.85 Q73.35 47.35 72.0 46.6 L70.35 45.5 69.85 44.6 69.3 43.75 Q63.85 40.9 61.85 37.25 63.15 36.3 65.45 36.1 L70.0 36.1 72.85 36.3 74.95 37.15 Q76.6 37.9 77.55 38.1 L79.55 38.8 82.25 40.6 Q84.0 41.75 85.3 41.95 L88.75 41.5 Q90.8 40.65 90.25 38.9 90.05 38.35 89.2 37.9 88.15 36.3 86.2 34.75 L82.7 32.2 79.25 29.5 Q77.15 27.95 75.45 27.2 L72.3 26.6 69.1 25.5"/><path fill="#ffffff" stroke="none" d="M49.75 27.35 Q49.25 27.7 48.9 28.55 48.35 27.75 47.45 27.4 L45.6 26.85 Q45.0 26.7 43.25 26.85 L40.9 26.6 41.0 26.5 Q38.35 25.95 36.9 27.4 L35.45 28.6 Q34.6 29.35 34.45 30.1 33.8 29.75 33.7 28.65 L33.2 28.15 32.75 27.65 31.95 27.6 31.1 27.65 30.3 27.35 29.5 27.15 28.75 27.6 28.0 27.95 Q27.85 27.35 27.85 26.75 25.75 31.25 25.2 33.7 L25.0 32.35 24.95 30.85 24.25 28.35 23.5 26.0 23.2 25.35 22.6 25.15 21.35 24.9 20.5 24.95 Q19.75 25.4 19.4 24.95 18.3 26.8 17.55 29.5 17.3 29.2 17.2 28.5 L16.95 27.35 Q16.25 26.25 16.1 25.55 L15.6 25.05 15.15 24.5 13.75 24.15 12.1 24.0 Q11.0 23.8 10.75 23.3 L8.45 22.85 6.0 22.4 10.75 22.3 16.1 22.25 21.45 22.5 24.2 22.6 27.0 22.85 29.65 23.2 Q31.65 23.55 31.7 24.05 L34.0 24.0 36.4 24.25 39.15 24.75 Q42.75 25.9 44.8 25.25 45.95 24.85 47.6 24.8 L50.5 24.75 55.15 24.95 58.6 25.35 58.15 25.5 Q59.15 25.9 60.9 26.1 L59.0 26.2 57.2 26.3 55.4 26.3 Q53.45 26.0 51.4 26.8 L49.75 27.35"/></g></defs><g><g><use transform="matrix(1.0,0.0,0.0,1.0,0.0,0.0)" xlink:href="#c1"/></g></g></svg>