<?xml version='1.0' encoding='UTF-8'?>
<svg xmlns="http://www.w3.org/2000/svg" xmlns:xlink="http://www.w3.org/1999/xlink" version="1.1" width="97px" height="84px" viewBox="0.0 8.6 96.65 84.10000000000001"><defs><g id="c1"><path fill="#ffffff" stroke="none" d="M89.05 38.45 L94.2 36.4 96.65 38.3 95.95 39.65 96.5 45.45 77.55 53.9 62.5 54.0 75.75 51.95 74.6 50.7 66.1 48.75 72.6 48.5 65.75 41.0 63.75 44.7 56.0 47.6 49.65 53.8 55.05 57.0 57.25 60.35 40.25 60.4 58.55 62.15 62.25 64.5 30.95 64.45 57.4 67.15 42.4 71.55 32.65 71.6 32.95 72.85 20.95 72.65 38.55 77.5 25.7 81.15 35.75 86.8 35.4 88.15 7.0 92.7 11.55 90.3 26.05 86.15 0.0 82.85 0.0 81.0 21.55 78.9 27.25 77.5 11.75 72.5 30.8 67.45 2.8 63.55 35.05 61.2 33.9 57.3 27.1 55.45 33.7 54.85 20.0 49.3 42.85 49.4 38.1 46.3 41.8 38.4 Q42.7 36.45 46.35 32.75 L49.85 29.5 43.1 26.5 29.9 36.25 31.35 38.7 31.6 42.0 26.05 45.6 24.5 44.55 21.0 37.15 22.85 35.2 8.5 34.4 23.9 33.0 35.1 22.85 29.65 22.65 34.75 21.25 31.85 20.5 36.15 19.8 23.45 18.35 41.0 17.65 Q43.0 17.0 50.8 20.95 L61.3 26.25 Q61.25 25.8 62.55 23.15 L63.9 20.05 64.3 17.4 Q63.85 16.85 62.3 16.55 L48.9 15.05 62.15 15.1 54.95 12.6 59.15 11.8 52.4 10.9 42.3 9.4 42.6 8.95 42.7 8.6 74.15 8.6 Q78.15 8.8 80.8 12.4 83.5 16.05 83.25 21.0 83.05 25.95 80.0 29.3 77.0 32.7 73.0 32.5 L72.25 32.45 79.7 44.7 88.95 40.8 89.05 38.45"/></g></defs><g><g><use transform="matrix(1.0,0.0,0.0,1.0,0.0,0.0)" xlink:href="#c1"/></g></g></svg>