<?xml version='1.0' encoding='UTF-8'?>
<svg xmlns="http://www.w3.org/2000/svg" xmlns:xlink="http://www.w3.org/1999/xlink" version="1.1" width="84px" height="96px" viewBox="7.45 4.4 84.1 95.69999999999999"><defs><g id="c1"><path fill="#ffffff" fill-opacity="0.8" d="M27.45 71.2 L35.3 70.5 34.4 75.75 31.4 74.0 27.45 71.2 M37.9 48.9 Q38.85 48.1 40.25 48.1 41.6 48.1 42.6 48.9 43.55 49.7 43.55 50.8 L43.55 51.05 43.0 52.35 Q42.0 53.5 40.25 53.5 38.85 53.5 37.9 52.7 36.9 51.9 36.9 50.8 36.9 49.7 37.9 48.9 M43.15 41.85 L45.3 41.55 45.75 42.95 46.05 44.3 41.75 44.6 Q41.4 44.65 43.15 41.85 M51.45 17.85 L44.0 17.3 Q42.1 17.3 34.85 19.1 30.45 20.2 29.25 17.8 39.85 13.95 52.45 15.55 L52.0 16.75 51.45 17.85 M83.3 46.4 Q83.9 40.8 82.35 36.75 80.7 32.3 76.05 28.3 L75.3 22.95 Q84.05 28.25 87.7 35.15 91.55 42.35 88.7 49.45 L84.6 50.15 83.3 46.4 M9.2 59.35 Q11.35 54.6 16.25 48.75 L17.9 50.5 Q20.0 52.1 22.15 51.4 L18.45 56.75 Q14.85 61.9 14.7 63.75 14.05 71.3 18.05 77.25 21.6 82.6 29.2 87.05 L29.8 91.45 Q13.7 83.25 9.2 69.7 7.45 63.2 9.2 59.35 M43.6 95.4 L44.15 94.0 Q50.1 96.2 56.6 97.85 64.2 98.45 67.95 96.1 69.25 95.25 69.5 95.3 69.95 95.3 70.9 96.85 71.2 98.4 70.95 99.1 70.75 99.7 69.95 100.1 L55.55 100.1 Q49.6 98.85 43.0 96.75 L43.6 95.4 M54.4 85.35 Q56.15 85.35 57.4 86.35 58.65 87.4 58.65 88.8 58.65 90.2 57.4 91.2 56.15 92.2 54.4 92.2 52.7 92.2 51.45 91.2 50.2 90.2 50.2 88.8 50.2 87.4 51.45 86.35 52.65 85.35 54.4 85.35 M53.65 68.45 L55.9 68.05 58.65 71.8 54.85 73.7 51.5 75.2 53.65 68.45 M74.4 63.4 L72.95 61.95 75.55 60.1 77.7 57.95 79.4 60.0 74.4 63.4"/><path fill="#ffffff" stroke="none" d="M59.45 4.4 L63.65 4.4 Q66.6 5.4 66.5 10.85 66.35 16.2 64.7 16.4 63.0 16.6 62.6 17.5 L62.5 19.05 Q68.85 20.25 72.15 21.75 73.7 24.75 73.25 30.25 72.7 36.4 73.4 38.7 73.95 40.65 78.1 45.45 81.9 49.9 82.3 53.1 L84.5 53.0 86.55 52.7 Q87.35 53.4 87.05 53.95 86.55 54.95 86.55 55.65 87.6 56.95 90.75 58.2 90.35 59.15 88.0 59.25 85.45 59.35 84.85 59.9 81.95 58.55 79.45 56.2 L74.65 51.0 70.45 46.05 Q68.35 43.25 67.45 40.0 L66.1 49.0 Q65.3 54.4 65.35 58.6 69.0 60.8 71.65 64.5 73.65 67.25 76.35 73.0 L79.15 78.75 Q80.75 82.15 81.05 84.45 81.4 87.35 80.65 92.05 79.6 98.4 79.5 99.95 L77.15 100.1 74.0 100.1 71.35 90.7 Q69.9 85.3 71.3 81.05 L66.1 75.35 60.7 69.6 Q57.35 65.9 54.35 64.1 52.5 65.45 50.95 68.55 L48.4 74.3 45.6 79.55 Q43.9 82.75 43.35 84.85 43.2 85.45 43.3 86.55 L43.35 88.25 Q43.15 89.85 41.7 92.4 40.2 95.05 39.95 96.3 39.75 97.25 39.85 100.1 L34.95 100.1 35.3 98.85 Q35.45 97.5 34.3 94.25 33.1 90.9 33.15 89.1 33.2 88.3 33.85 87.25 L34.85 85.3 Q35.9 82.5 37.45 75.4 39.0 68.3 39.95 65.8 40.65 64.05 42.6 60.8 L45.45 55.65 47.65 49.9 Q48.95 45.85 48.85 43.8 48.8 42.7 47.35 39.9 46.05 37.4 46.3 36.15 44.7 36.95 42.2 39.8 L38.25 44.65 Q35.95 44.95 32.95 44.75 L29.5 44.95 27.4 45.5 Q26.2 45.65 24.95 46.3 22.2 47.6 18.15 45.2 16.6 44.3 16.4 43.6 16.2 42.9 17.95 43.1 22.2 43.75 22.1 42.55 21.25 41.25 21.75 41.4 L28.05 41.25 33.1 39.2 34.5 38.85 35.55 38.0 35.7 37.45 35.95 36.7 36.15 36.2 Q36.75 34.95 38.5 32.85 40.2 30.8 40.8 29.4 L41.1 27.3 41.2 25.6 Q42.1 23.15 44.6 21.75 L52.15 19.65 Q56.65 18.45 56.9 15.4 56.95 14.7 56.2 13.4 55.5 12.15 55.6 11.6 L56.65 7.35 Q57.55 4.9 59.45 4.4"/></g></defs><g><g><use transform="matrix(1.0,0.0,0.0,1.0,0.0,0.0)" xlink:href="#c1"/></g></g></svg>