<?xml version='1.0' encoding='UTF-8'?>
<svg xmlns="http://www.w3.org/2000/svg" xmlns:xlink="http://www.w3.org/1999/xlink" version="1.1" width="73px" height="94px" viewBox="13.0 5.8 73.0 94.2"><defs><g id="c1"><path fill="#ffffff" fill-opacity="0.8" d="M37.45 35.1 L36.85 26.2 44.05 30.65 45.6 33.65 48.5 5.95 49.5 5.8 50.5 5.95 53.4 33.65 54.95 30.65 62.15 26.2 61.55 35.1 57.0 40.85 86.0 26.9 63.7 44.6 66.75 44.0 74.65 48.3 68.15 51.75 63.55 51.6 85.25 69.15 56.0 55.4 61.85 61.4 61.85 70.6 54.4 65.15 53.4 59.4 49.95 89.95 49.05 89.95 45.6 59.4 44.6 65.15 37.15 70.6 37.15 61.4 43.1 55.3 13.75 69.15 35.4 51.6 30.85 51.75 24.35 48.3 32.25 44.0 35.3 44.6 13.0 26.9 41.95 40.75 37.45 35.1 M49.9 31.1 L49.5 31.05 49.1 31.1 47.95 42.2 46.45 45.05 34.9 39.5 43.8 46.55 43.85 49.4 35.2 56.4 46.95 50.85 47.95 52.5 49.35 64.7 49.65 64.7 51.05 52.5 52.1 50.9 63.8 56.4 55.15 49.4 55.2 46.55 64.1 39.5 52.5 45.05 51.05 42.2 49.9 31.1"/><path fill="#ffffff" stroke="none" d="M37.4 71.75 Q36.4 69.4 36.25 67.0 36.1 64.55 39.0 61.85 L41.9 59.6 41.05 62.1 Q40.3 64.95 40.75 66.5 41.2 68.05 45.0 68.75 L48.65 69.1 38.4 73.6 37.4 71.75"/><path fill="#ffffff" stroke="none" d="M59.3 67.85 Q66.25 64.3 64.25 60.35 62.5 56.9 55.55 54.25 48.3 51.5 47.5 50.35 46.1 48.4 47.5 45.95 L49.15 43.85 49.2 44.65 Q49.4 45.7 50.25 47.1 50.6 47.65 60.55 50.8 70.45 53.9 72.65 57.85 75.3 62.6 72.6 68.1 70.3 72.85 64.4 77.6 58.1 82.65 55.2 86.15 51.45 90.65 52.15 93.75 53.0 97.55 56.35 100.0 L21.85 100.0 Q22.85 94.1 25.9 88.8 30.7 80.35 39.5 76.35 54.8 70.15 59.3 67.85"/><path fill="#ffffff" stroke="none" d="M67.25 79.25 L71.7 82.25 Q76.3 86.25 77.0 91.25 77.9 97.3 76.95 100.0 L59.45 100.0 Q63.05 97.25 62.9 94.6 62.75 92.65 60.55 90.4 L58.4 88.5 67.25 79.25"/></g></defs><g><g><use transform="matrix(1.0,0.0,0.0,1.0,0.0,0.0)" xlink:href="#c1"/></g></g></svg>