<?xml version='1.0' encoding='UTF-8'?>
<svg xmlns="http://www.w3.org/2000/svg" xmlns:xlink="http://www.w3.org/1999/xlink" version="1.1" width="97px" height="99px" viewBox="0.0 0.45 97.3 99.14999999999999"><defs><g id="c1"><path fill="#ffffff" fill-opacity="0.7019607843137254" d="M90.1 36.95 Q90.8 33.0 88.45 28.6 85.95 24.2 79.95 21.55 75.8 19.7 69.05 18.45 54.95 15.8 34.95 15.5 15.6 15.2 0.0 17.15 0.15 9.65 4.4 5.1 8.9 0.45 16.65 0.45 L52.75 0.45 Q55.35 1.2 57.75 2.2 L68.6 6.4 Q75.4 9.15 79.8 11.6 92.35 18.6 94.85 28.75 L94.8 28.65 94.85 28.8 95.0 29.45 Q97.2 40.4 88.75 47.35 93.2 56.85 78.4 66.2 67.65 72.95 56.6 75.4 67.9 69.85 74.5 65.5 86.8 57.35 84.85 50.05 79.15 53.35 70.05 55.65 72.15 54.45 75.25 51.35 78.05 48.55 80.9 47.2 L81.9 46.7 Q77.55 44.4 67.35 43.15 L47.1 42.25 Q36.15 42.4 29.0 43.9 21.15 45.55 20.9 48.25 20.6 51.65 28.5 53.9 L38.35 55.9 Q29.7 56.35 26.25 55.8 17.85 54.55 17.85 48.8 17.85 42.7 27.0 39.25 35.05 36.25 48.0 35.95 60.1 35.7 70.95 37.8 82.25 40.0 86.2 43.65 89.4 40.65 90.1 36.95"/><path fill="#ffffff" stroke="none" d="M76.55 87.55 L75.95 86.6 71.9 83.7 Q69.25 81.9 68.4 80.15 L66.95 80.3 Q66.9 81.8 67.85 84.3 68.85 86.9 68.85 88.3 L68.65 90.55 Q68.55 91.8 68.8 92.75 L70.55 97.15 71.3 97.5 71.25 97.5 71.55 97.65 71.3 97.5 74.7 97.35 78.05 96.9 84.7 96.25 87.1 96.35 89.4 96.15 86.8 94.7 85.05 92.95 83.55 91.05 81.55 90.15 79.05 89.6 77.75 89.4 Q77.3 89.25 76.95 88.6 L76.55 87.55 M63.5 69.5 L62.8 68.15 Q62.5 66.35 61.85 65.75 L60.5 65.35 Q59.6 65.25 59.4 64.8 L59.1 64.75 Q58.75 64.0 58.0 63.65 L56.55 63.75 Q56.3 63.9 55.95 64.55 L55.3 65.5 54.2 66.7 54.2 74.25 55.25 74.8 Q56.65 75.6 58.3 77.25 59.85 78.7 60.85 78.05 L61.9 76.85 62.95 75.55 63.9 74.5 64.8 73.35 64.9 72.0 64.4 70.8 63.5 69.5 M71.15 66.65 L71.25 65.2 Q71.25 64.35 70.9 63.95 69.75 62.65 68.9 62.65 68.65 63.5 67.05 64.3 65.5 65.1 65.3 65.9 65.1 66.95 66.35 68.5 67.6 70.1 68.65 70.2 L68.4 70.55 68.65 71.95 Q70.35 72.15 70.85 73.3 L72.2 73.0 73.45 72.45 73.45 72.4 74.1 72.2 Q72.95 71.6 72.8 71.0 72.45 70.75 72.5 69.8 L72.55 68.45 Q72.4 67.05 71.15 66.65 M63.3 63.5 L66.15 63.25 66.2 63.05 Q66.75 63.0 67.0 61.9 L67.15 60.3 62.7 59.25 60.8 58.75 58.85 58.8 Q58.55 60.05 59.1 61.35 59.7 62.7 60.8 63.15 L61.05 63.5 60.75 63.5 62.0 63.75 63.3 63.5 M51.1 21.2 Q50.65 20.75 50.0 20.75 49.35 20.75 48.9 21.2 48.45 21.65 48.45 22.3 48.45 22.95 48.9 23.4 49.35 23.85 50.0 23.85 50.65 23.85 51.1 23.4 51.55 22.95 51.55 22.3 51.55 21.65 51.1 21.2 M48.9 12.45 Q48.45 12.9 48.45 13.55 48.45 14.2 48.9 14.65 49.35 15.1 50.0 15.1 50.65 15.1 51.1 14.65 51.55 14.2 51.55 13.55 51.55 12.9 51.1 12.45 50.65 12.0 50.0 12.0 49.35 12.0 48.9 12.45 M39.7 81.15 L39.25 79.3 Q38.8 78.1 38.2 78.0 37.85 77.95 36.3 78.75 L35.4 79.0 Q34.85 79.15 34.65 79.5 34.15 80.3 34.7 81.35 L35.55 83.0 36.55 83.15 38.7 82.8 Q39.75 82.65 39.7 81.15 M18.4 97.55 L21.15 97.8 24.35 98.2 27.45 98.5 27.1 97.55 Q26.95 97.15 27.2 96.55 L28.0 95.6 28.95 94.8 Q29.95 94.0 29.95 93.5 L29.35 91.85 Q28.6 90.0 28.5 86.8 L28.4 81.5 27.55 82.25 26.85 83.15 25.25 86.75 Q24.75 87.8 23.1 88.6 21.35 89.4 20.9 90.1 19.8 90.05 19.0 91.3 L18.0 93.55 Q17.35 95.0 15.2 97.65 L15.8 97.75 18.4 97.55 M39.7 63.5 L39.45 63.15 Q38.9 63.1 38.3 63.65 L37.3 64.5 35.05 65.5 Q31.6 67.25 31.45 68.0 31.3 68.7 32.15 69.35 L33.55 70.25 35.2 71.9 Q36.2 73.25 39.4 75.25 40.15 73.2 41.9 70.6 L43.05 69.0 43.8 68.4 Q44.15 68.05 43.6 67.75 L43.55 67.4 Q42.75 67.05 41.7 65.25 40.8 63.65 39.7 63.5 M29.75 27.05 L29.75 11.15 37.0 10.3 43.6 9.75 44.7 8.6 45.5 8.6 45.5 7.8 Q45.5 7.35 47.75 7.15 L50.0 7.05 52.25 7.15 Q54.5 7.35 54.5 7.8 L54.5 8.6 55.25 8.6 56.4 9.75 63.0 10.3 70.25 11.15 70.25 27.05 56.75 28.0 55.65 29.45 54.8 36.6 54.2 43.3 54.2 53.05 57.85 53.5 Q62.85 54.5 63.05 56.1 L60.85 57.15 Q62.05 58.1 64.65 58.85 L68.8 59.9 73.6 61.2 Q76.5 62.2 77.9 63.5 76.65 63.5 74.35 64.4 74.8 65.75 73.95 66.85 L74.0 67.2 73.85 69.15 73.8 69.75 73.95 70.05 75.85 71.65 80.8 74.15 Q81.85 76.35 84.95 78.65 L87.25 80.4 89.7 82.05 89.55 82.35 Q88.55 82.55 88.55 83.35 L88.05 83.75 Q86.8 84.0 86.15 84.65 85.65 85.15 85.65 85.45 L86.05 86.4 Q86.55 87.7 87.35 88.3 L89.55 89.25 92.05 89.9 94.55 90.55 96.75 91.65 97.3 92.35 95.25 94.8 Q90.55 99.6 82.75 99.6 L67.65 99.6 67.45 99.15 Q66.85 98.05 64.8 95.9 L63.0 93.45 Q61.9 91.8 61.05 91.1 60.8 91.45 60.75 92.35 L60.55 93.65 59.75 94.65 Q59.3 95.15 59.35 95.9 L60.05 97.45 60.95 99.0 61.1 99.6 17.3 99.6 Q9.45 99.6 4.65 94.8 L4.05 94.2 5.25 93.4 5.95 92.4 Q7.1 91.95 7.5 89.55 8.05 86.25 8.15 86.1 8.65 85.05 9.5 84.7 L11.55 84.15 13.65 83.7 Q15.2 83.35 15.45 82.9 L15.8 82.85 Q16.15 81.9 16.85 81.45 17.4 81.1 18.7 80.75 L20.5 80.45 Q21.6 80.15 21.55 79.25 L21.25 78.45 20.8 77.65 Q20.7 76.4 20.4 75.9 L19.3 74.6 Q18.75 73.8 18.85 72.8 19.95 72.65 21.45 71.85 23.15 71.0 23.7 70.15 20.95 68.4 24.45 67.3 L29.25 65.25 Q30.7 64.55 33.4 63.8 L37.55 62.5 37.6 62.15 Q38.75 61.85 38.25 60.9 L37.1 59.65 Q38.1 59.05 40.1 58.25 L43.05 56.85 45.85 55.25 45.85 43.3 45.2 36.6 44.35 29.45 43.2 28.05 29.75 27.05"/></g></defs><g><g><use transform="matrix(1.0,0.0,0.0,1.0,0.0,0.0)" xlink:href="#c1"/></g></g></svg>