<?xml version='1.0' encoding='UTF-8'?>
<svg xmlns="http://www.w3.org/2000/svg" xmlns:xlink="http://www.w3.org/1999/xlink" version="1.1" width="85px" height="82px" viewBox="7.95 9.0 84.55 82.2"><defs><g id="c1"><path fill="#ffffff" stroke="none" d="M39.0 66.85 L36.05 67.8 39.4 71.95 39.0 66.85 M43.85 46.65 Q42.85 45.75 42.2 44.6 L42.1 44.7 32.95 50.8 34.55 55.1 35.95 55.55 41.25 54.8 Q46.65 54.25 47.1 55.55 L50.55 68.75 59.6 62.45 Q57.6 60.95 56.4 59.3 54.0 56.1 50.5 52.7 L43.85 46.65 M84.25 45.75 Q84.4 45.6 85.05 46.4 L87.4 49.75 Q88.0 50.55 87.8 50.75 L86.75 51.45 92.05 60.8 Q92.5 61.85 82.4 67.3 L80.95 67.55 74.95 60.45 70.45 63.7 Q71.5 64.7 70.7 65.85 L69.65 66.7 68.8 66.25 67.25 67.2 65.7 67.55 65.85 68.15 64.9 68.7 Q64.55 68.7 64.15 68.25 L52.55 76.65 54.2 83.35 56.3 83.7 Q58.45 84.3 58.4 85.45 58.3 87.0 54.55 89.05 50.55 91.2 47.25 91.0 44.3 90.85 42.15 90.05 L40.6 89.25 40.5 77.75 Q18.85 85.85 16.3 86.35 16.45 89.35 15.3 89.75 14.25 90.1 12.75 88.05 11.3 86.0 10.2 82.75 9.2 79.65 9.15 77.15 9.05 74.7 10.0 74.2 L10.0 74.15 10.05 74.15 10.15 74.1 10.55 74.1 28.0 72.95 25.5 69.45 18.55 65.95 19.4 57.3 19.55 57.25 19.75 55.65 18.7 54.6 Q18.15 54.0 18.1 53.5 L19.85 53.45 Q19.7 52.85 19.0 52.05 L17.8 50.85 16.4 49.4 Q15.5 48.35 15.65 47.65 L17.3 48.2 11.25 41.15 20.1 47.1 19.9 46.6 20.5 46.5 19.65 45.25 18.9 43.95 Q20.65 45.0 21.85 44.5 L21.05 43.4 20.25 42.15 19.15 41.1 18.35 39.85 Q18.9 39.85 20.05 40.3 L21.85 40.75 13.85 33.25 13.4 33.2 13.7 33.1 7.95 27.75 20.0 34.65 23.45 35.55 25.25 36.1 Q26.4 36.25 26.0 35.2 L27.0 35.5 26.35 34.4 25.75 33.95 25.3 33.35 26.85 33.85 28.4 34.4 10.35 14.3 36.35 30.6 38.15 30.25 41.95 30.65 41.95 30.6 Q40.35 29.0 40.15 28.35 L41.15 28.65 42.1 28.6 42.25 27.95 Q42.25 27.0 41.9 26.95 L40.0 25.35 Q38.65 24.35 38.1 23.65 39.5 24.45 42.9 24.85 L41.25 23.15 40.1 22.2 39.2 21.1 40.65 21.6 34.25 15.7 32.95 15.0 33.75 15.25 26.95 9.0 53.05 21.75 53.0 21.8 Q54.85 23.1 55.8 25.55 56.8 28.05 56.55 30.9 56.3 34.0 54.7 36.4 53.15 38.75 50.85 39.55 L51.05 40.0 Q52.55 44.2 55.7 48.05 57.25 49.95 60.15 52.5 L64.9 56.65 64.95 56.55 Q65.65 55.65 66.8 55.2 L67.95 56.65 70.85 54.65 66.1 46.65 Q66.3 45.95 66.85 45.35 L71.35 41.35 Q75.6 37.85 76.15 38.35 L83.2 46.45 84.25 45.75"/></g></defs><g><g><use transform="matrix(1.0,0.0,0.0,1.0,0.0,0.0)" xlink:href="#c1"/></g></g></svg>