<?xml version='1.0' encoding='UTF-8'?>
<svg xmlns="http://www.w3.org/2000/svg" xmlns:xlink="http://www.w3.org/1999/xlink" version="1.1" width="89px" height="92px" viewBox="6.55 2.9 89.10000000000001 91.6"><defs><g id="c1"><path fill="#ffffff" stroke="none" d="M21.25 74.0 Q20.5 73.6 20.55 70.85 L19.45 70.75 Q18.9 72.2 19.65 73.3 20.15 74.0 21.0 74.2 22.05 74.45 21.25 74.0 M25.95 73.2 Q26.55 72.1 26.35 71.4 26.15 70.65 24.5 70.4 L22.9 70.3 Q21.5 71.25 21.9 72.0 L22.95 74.35 25.3 74.15 25.95 73.2 M95.4 66.25 Q95.0 67.15 92.4 68.95 L59.1 68.8 58.6 70.35 42.1 70.9 40.85 69.65 38.25 69.6 38.45 73.0 Q39.25 76.9 41.95 79.55 L49.7 87.0 44.65 94.5 40.45 91.45 Q35.7 87.6 33.1 83.45 L29.15 72.8 28.65 76.65 27.8 72.95 26.8 74.4 Q25.65 75.85 25.2 75.9 L22.8 76.0 20.25 75.85 Q19.25 75.7 18.25 74.2 L16.2 78.75 Q13.9 83.4 12.8 84.0 L10.25 84.25 9.0 83.75 6.55 82.05 Q6.8 80.85 7.5 79.05 8.9 75.35 11.2 72.1 11.45 71.75 11.2 71.45 L10.9 71.2 7.9 71.05 8.1 64.6 13.25 60.5 41.15 60.35 41.65 58.5 42.4 59.05 66.55 59.55 67.0 61.1 77.3 60.75 81.2 64.95 89.0 64.3 90.7 58.8 93.9 58.8 93.95 63.8 94.85 64.65 Q95.65 65.65 95.4 66.25"/><path fill="#ffffff" fill-opacity="0.7019607843137254" d="M42.4 44.6 L42.4 70.6 64.95 83.6 87.45 70.6 87.45 44.6 64.95 31.55 42.4 44.6 M64.95 25.65 L92.6 41.6 92.6 73.55 64.95 89.5 37.3 73.55 37.3 41.6 64.95 25.65"/><path fill="#ffffff" fill-opacity="0.5019607843137255" d="M39.2 9.75 L13.35 24.65 13.35 54.55 39.2 69.5 65.05 54.55 65.05 24.65 39.2 9.75 M70.95 21.25 L70.95 57.95 39.2 76.3 7.45 57.95 7.45 21.25 39.2 2.9 70.95 21.25"/><path fill="#ffffff" fill-opacity="0.7019607843137254" d="M50.95 39.55 L67.15 48.9 83.4 39.55 83.4 20.8 67.15 11.45 50.95 20.8 50.95 39.55 M47.25 18.7 L67.15 7.2 87.1 18.7 87.1 41.7 67.15 53.15 47.25 41.7 47.25 18.7"/></g></defs><g><g><use transform="matrix(1.0,0.0,0.0,1.0,0.0,0.0)" xlink:href="#c1"/></g></g></svg>