<?xml version='1.0' encoding='UTF-8'?>
<svg xmlns="http://www.w3.org/2000/svg" xmlns:xlink="http://www.w3.org/1999/xlink" version="1.1" width="83px" height="82px" viewBox="8.7 9.0 82.6 82.05"><defs><g id="c1"><path fill="#ffffff" fill-opacity="0.8" d="M91.3 23.1 L91.3 38.6 77.2 38.6 77.2 52.7 61.7 52.7 61.7 38.6 47.6 38.6 47.6 23.1 61.7 23.1 61.7 9.0 77.2 9.0 77.2 23.1 91.3 23.1"/><path fill="#ffffff" stroke="none" d="M31.0 55.05 Q35.5 53.35 39.95 53.35 44.3 53.35 47.65 54.95 45.9 52.3 42.75 50.8 39.65 49.35 35.95 49.35 32.6 49.35 29.3 50.6 23.9 52.6 20.85 57.0 17.8 61.35 18.35 65.95 19.85 62.55 23.1 59.7 26.5 56.75 31.0 55.05 M38.3 43.4 Q35.6 42.1 32.35 42.1 29.4 42.1 26.55 43.2 21.8 44.95 19.1 48.8 16.4 52.55 16.95 56.6 18.25 53.65 21.1 51.15 24.05 48.6 28.0 47.1 32.0 45.6 35.85 45.6 39.55 45.6 42.6 47.0 41.05 44.7 38.3 43.4 M19.05 23.15 Q21.85 22.1 24.65 22.1 28.4 22.1 31.3 23.85 34.3 25.65 35.45 28.7 36.05 30.25 36.05 32.25 L43.35 43.7 43.2 44.85 44.55 46.05 51.85 60.1 Q53.95 65.1 53.7 69.05 52.65 87.35 44.45 90.4 L40.75 91.05 Q36.2 91.05 30.8 87.4 27.3 85.0 23.0 80.65 20.25 77.8 18.6 72.65 L14.85 57.3 15.1 55.5 14.2 54.75 12.25 41.2 Q11.0 39.95 10.3 38.15 8.7 33.9 11.25 29.5 13.85 25.1 19.05 23.15 M21.6 30.05 Q17.85 31.45 15.7 34.5 13.6 37.5 14.0 40.7 15.05 38.35 17.3 36.4 19.65 34.35 22.8 33.15 25.95 31.95 29.0 31.95 31.95 31.95 34.4 33.05 33.15 31.2 30.95 30.2 28.8 29.2 26.25 29.2 23.8 29.2 21.6 30.05"/></g></defs><g><g><use transform="matrix(1.0,0.0,0.0,1.0,0.0,0.0)" xlink:href="#c1"/></g></g></svg>