<?xml version='1.0' encoding='UTF-8'?>
<svg xmlns="http://www.w3.org/2000/svg" xmlns:xlink="http://www.w3.org/1999/xlink" version="1.1" width="61px" height="98px" viewBox="19.3 1.85 61.05 97.85000000000001"><defs><g id="c1"><path fill="#ffffff" stroke="none" d="M48.05 66.65 Q48.05 67.45 48.6 68.0 49.2 68.6 50.0 68.6 50.8 68.6 51.4 68.0 51.95 67.45 51.95 66.65 51.95 65.8 51.4 65.25 50.8 64.65 50.0 64.65 49.2 64.65 48.6 65.25 48.05 65.8 48.05 66.65 M48.05 55.7 Q48.05 56.5 48.6 57.05 49.2 57.65 50.0 57.65 50.8 57.65 51.4 57.05 51.95 56.5 51.95 55.7 51.95 54.9 51.4 54.3 50.85 53.75 50.0 53.75 49.2 53.75 48.6 54.3 48.05 54.9 48.05 55.7 M24.65 52.7 L33.75 51.6 41.95 50.95 43.4 49.5 44.35 49.5 44.35 48.5 Q44.35 47.95 47.2 47.7 L50.0 47.55 52.8 47.7 Q55.6 47.95 55.6 48.5 L55.6 49.5 56.6 49.5 58.0 50.95 66.25 51.6 75.35 52.7 75.35 72.6 58.45 73.8 57.1 75.6 56.05 84.55 Q55.25 91.0 55.25 92.9 L55.3 99.7 44.85 99.7 44.85 92.9 Q44.85 91.0 44.05 84.55 L42.9 75.6 41.5 73.8 24.65 72.6 24.65 52.7"/><path fill="#ffffff" fill-opacity="0.8" d="M71.9 20.15 Q73.85 15.65 78.0 14.65 75.15 16.75 73.7 20.05 72.2 23.3 72.5 26.8 72.8 29.95 75.45 33.95 78.7 38.9 79.35 40.65 80.3 43.15 80.35 45.8 80.35 48.25 79.6 50.4 L79.35 50.95 Q78.4 53.45 76.35 54.8 78.85 50.9 76.35 45.15 72.9 38.95 72.0 35.95 73.85 42.65 69.5 46.35 68.5 47.25 66.1 49.0 64.25 50.75 64.2 52.7 L63.4 51.35 62.4 49.85 Q61.75 48.2 61.75 46.0 61.7 41.75 63.45 33.8 61.3 40.4 55.55 44.55 52.7 46.6 50.3 47.45 50.15 46.6 48.4 45.6 L44.5 43.5 Q38.6 39.8 37.0 32.65 36.05 35.9 38.25 42.2 40.2 47.75 38.4 50.0 L36.9 51.35 Q35.75 52.4 35.75 52.7 35.7 50.65 33.65 48.8 L30.05 45.95 Q26.3 42.4 27.95 36.05 27.05 39.05 23.65 45.15 21.15 50.9 23.65 54.8 21.15 53.1 20.15 49.7 19.3 46.7 19.85 43.4 20.3 40.8 22.1 37.85 L25.35 32.8 Q28.15 28.3 27.2 23.05 26.25 17.8 22.0 14.65 26.25 15.7 28.25 20.4 29.55 23.55 30.0 29.2 30.6 36.4 31.4 39.35 32.9 44.95 36.7 47.8 34.4 43.55 33.55 40.2 32.4 35.75 33.4 32.05 34.05 29.75 36.55 25.7 39.05 21.65 39.7 19.35 L38.7 24.3 Q38.25 27.15 38.75 29.25 39.3 31.65 41.2 32.35 43.2 33.1 45.15 31.55 46.25 30.75 45.65 29.0 L44.3 26.25 Q42.8 23.1 42.5 21.1 42.05 18.3 43.25 15.25 44.05 13.05 46.1 9.95 44.2 15.2 45.5 18.9 46.15 20.75 47.95 20.8 49.65 20.85 50.65 19.25 52.6 16.2 52.6 9.9 L52.5 5.95 Q52.2 3.65 51.2 2.25 55.8 1.85 57.35 9.75 58.05 13.4 57.4 16.85 56.9 19.4 55.25 23.65 53.6 27.85 54.9 30.5 55.6 32.0 57.1 32.45 58.65 32.95 59.9 31.85 61.95 30.1 61.55 25.85 L60.3 19.35 Q60.95 21.7 63.7 26.15 66.3 30.35 66.8 33.0 67.95 39.2 63.3 47.8 67.2 44.9 68.65 39.05 69.25 36.65 70.05 28.55 70.55 23.2 71.9 20.15"/></g></defs><g><g><use transform="matrix(1.0,0.0,0.0,1.0,0.0,0.0)" xlink:href="#c1"/></g></g></svg>