<?xml version='1.0' encoding='UTF-8'?>
<svg xmlns="http://www.w3.org/2000/svg" xmlns:xlink="http://www.w3.org/1999/xlink" version="1.1" width="94px" height="77px" viewBox="0.0 3.7 94.35 77.0"><defs><g id="c1"><path fill="#ffffff" stroke="none" d="M44.15 57.65 Q44.95 58.25 46.05 57.95 47.15 57.7 47.85 56.7 48.55 55.7 48.45 54.55 48.4 53.4 47.55 52.8 46.75 52.2 45.7 52.5 44.6 52.8 43.9 53.8 43.2 54.8 43.25 55.95 43.35 57.1 44.15 57.65 M56.35 55.2 Q57.45 54.95 58.15 53.95 58.85 52.95 58.75 51.8 58.7 50.65 57.85 50.05 57.05 49.45 56.0 49.75 54.9 50.05 54.2 51.05 53.5 52.05 53.55 53.2 53.65 54.35 54.45 54.9 55.25 55.5 56.35 55.2 M43.1 32.5 L57.7 27.2 41.7 30.2 35.65 27.5 40.15 32.05 41.1 39.8 43.1 32.5 M52.9 21.9 Q54.65 22.55 56.55 23.7 59.2 25.35 59.2 26.5 L59.2 26.85 Q59.25 28.25 59.8 30.8 L60.6 34.65 60.95 38.85 Q61.25 41.95 62.05 42.5 L64.0 44.0 64.9 45.25 Q65.45 46.0 65.6 54.75 L64.85 55.1 64.0 55.3 64.05 56.05 64.0 56.75 63.55 57.45 63.05 58.1 Q62.75 58.45 62.8 59.25 L62.85 60.5 62.65 74.3 62.65 75.05 62.5 75.5 56.4 77.3 52.35 78.3 47.35 79.9 Q44.35 80.7 42.45 79.8 37.3 77.45 36.15 72.65 35.7 70.85 35.5 68.35 L35.25 64.0 24.75 66.0 Q18.3 67.2 14.25 68.3 L0.0 72.25 0.0 61.65 9.95 58.7 Q14.1 57.4 23.05 53.75 32.25 49.95 31.8 49.65 31.65 49.55 27.35 50.6 L21.55 52.15 8.1 56.15 4.05 57.15 0.0 58.15 0.0 55.85 7.95 53.4 Q17.15 50.75 25.3 47.75 L29.3 46.45 Q31.7 45.55 32.7 44.2 L33.35 43.4 33.55 42.4 33.4 40.9 33.2 39.4 Q33.05 37.55 33.25 33.85 L33.6 29.65 Q33.45 26.9 33.7 26.45 33.7 26.1 39.6 24.65 L45.95 23.1 49.4 22.0 52.9 21.9"/><path fill="#ffffff" fill-opacity="0.8" d="M94.35 41.75 L69.8 77.5 83.1 44.6 94.35 41.75 M91.3 66.8 L71.95 79.7 85.7 64.2 91.3 66.8 M72.5 18.65 L70.2 41.85 66.95 21.35 72.5 18.65 M79.95 3.7 L89.2 15.15 67.8 74.85 79.95 3.7"/></g></defs><g><g><use transform="matrix(1.0,0.0,0.0,1.0,0.0,0.0)" xlink:href="#c1"/></g></g></svg>