<?xml version='1.0' encoding='UTF-8'?>
<svg xmlns="http://www.w3.org/2000/svg" xmlns:xlink="http://www.w3.org/1999/xlink" version="1.1" width="92px" height="94px" viewBox="4.6 6.45 91.65 93.64999999999999"><defs><g id="c1"><path fill="#ffffff" fill-opacity="0.8" d="M4.6 32.6 L23.95 6.95 15.65 27.25 24.6 27.3 17.25 36.95 26.95 36.95 10.6 59.3 17.25 42.65 4.95 42.65 12.5 32.6 4.6 32.6"/><path fill="#ffffff" stroke="none" d="M44.85 20.55 Q46.1 18.25 49.2 18.45 52.35 18.3 53.6 20.55 L54.25 22.75 Q54.6 24.45 54.4 24.95 55.6 24.9 54.9 27.2 L53.95 29.9 54.25 30.45 54.75 30.85 55.35 31.95 Q55.8 32.95 56.9 33.1 L58.95 33.25 Q61.75 33.6 63.7 35.1 64.55 35.8 65.0 38.05 L65.5 39.75 65.9 41.4 66.8 46.6 67.3 48.1 67.95 49.55 68.8 51.9 69.6 52.9 70.5 53.8 72.65 56.8 73.8 58.2 74.95 59.6 75.6 61.0 76.15 62.45 76.65 63.55 77.35 64.55 78.5 65.0 79.8 65.15 Q80.7 65.35 81.85 66.3 83.15 67.35 81.65 67.6 L80.85 67.85 Q80.65 68.0 80.8 68.65 80.95 69.2 81.75 70.1 L83.05 71.15 84.35 72.15 Q85.15 72.95 83.85 72.95 L83.05 72.8 82.35 72.8 81.6 73.05 80.85 72.9 Q80.55 72.9 80.15 73.15 L79.45 73.4 78.75 73.1 78.1 72.65 76.5 72.2 76.05 71.45 75.6 70.6 74.65 69.4 74.25 68.65 73.5 68.45 72.7 68.4 72.3 67.7 Q71.85 66.75 69.95 65.25 L68.9 64.15 67.95 62.9 65.8 60.55 Q64.8 59.55 61.95 55.75 L61.25 54.6 60.6 53.4 59.6 53.45 Q59.0 54.1 59.2 54.85 L59.4 57.8 59.05 60.65 Q58.85 61.7 58.95 63.15 L59.1 65.65 58.95 67.1 Q58.85 68.0 59.05 68.35 L59.9 69.55 62.05 72.45 62.6 74.2 63.55 75.7 65.25 79.1 Q65.9 80.7 67.15 82.55 L68.25 84.05 69.05 85.7 Q69.35 86.6 69.15 87.55 L68.75 88.25 Q68.45 88.7 68.5 89.05 68.55 89.4 69.1 89.85 L69.8 90.6 70.25 92.35 Q70.5 93.4 71.0 93.95 L71.95 95.75 72.65 97.8 73.25 100.1 59.9 100.1 59.75 99.8 58.85 98.5 58.1 97.1 Q57.95 96.55 57.95 95.3 L57.8 93.5 56.95 91.75 56.0 90.0 54.75 86.6 52.75 83.4 Q51.45 81.5 51.15 80.05 L50.8 78.35 Q50.6 77.5 50.0 76.85 L49.2 76.1 48.45 76.85 Q47.85 77.5 47.65 78.35 L47.3 80.05 Q47.0 81.5 45.7 83.4 L43.7 86.6 42.45 90.0 41.5 91.75 Q40.85 92.85 40.65 93.5 40.45 94.1 40.5 95.3 L40.35 97.1 39.6 98.5 38.7 99.8 38.55 100.1 25.2 100.1 25.8 97.8 26.5 95.75 27.45 93.95 28.2 92.35 Q28.45 91.0 28.65 90.6 L29.4 89.85 29.95 89.05 29.7 88.25 29.3 87.55 Q29.1 86.6 29.4 85.7 29.55 85.0 30.2 84.05 L31.3 82.55 Q32.45 80.9 33.15 79.1 L34.9 75.7 35.85 74.2 Q36.05 73.0 36.4 72.45 L38.55 69.55 39.4 68.35 Q39.65 67.9 39.35 67.1 L38.95 65.8 39.05 64.5 39.25 63.15 39.1 59.0 Q38.95 56.45 39.25 54.85 39.4 54.1 38.8 53.45 L37.85 53.4 37.2 54.6 36.5 55.75 32.65 60.55 30.5 62.9 29.6 64.15 28.5 65.25 Q26.65 66.75 26.15 67.7 L25.75 68.4 24.95 68.45 24.2 68.65 23.8 69.4 22.8 70.6 22.4 71.45 21.95 72.2 Q21.45 72.65 20.35 72.65 L19.7 73.1 19.0 73.4 18.3 73.15 17.6 72.9 16.85 73.05 16.1 72.8 14.6 72.95 Q13.3 72.95 14.1 72.15 L15.4 71.15 16.7 70.1 17.65 68.65 Q17.8 68.0 17.6 67.85 17.5 67.75 16.8 67.6 14.45 67.25 18.65 65.15 L19.9 65.0 21.1 64.55 21.8 63.55 22.3 62.45 22.85 61.0 23.5 59.6 24.6 58.2 25.8 56.8 Q27.05 54.7 27.95 53.8 L28.9 52.9 29.65 51.9 30.5 49.55 31.65 46.6 32.55 41.4 32.95 39.75 33.45 38.05 Q33.9 35.8 34.75 35.1 36.6 33.6 39.45 33.25 L41.55 33.1 Q42.6 32.95 43.05 31.95 L43.7 30.85 44.2 30.45 44.45 29.9 43.55 27.2 Q42.85 24.9 44.05 24.95 43.85 24.45 44.2 22.75 44.55 21.2 44.85 20.55"/><path fill="#ffffff" fill-opacity="0.8" d="M75.95 6.75 Q75.35 9.05 76.3 11.35 76.85 12.7 76.85 13.55 76.8 14.35 76.15 15.6 73.35 21.1 74.9 24.6 L76.75 26.3 Q77.9 27.25 79.2 26.75 80.25 26.35 80.6 24.7 81.1 22.55 81.4 22.1 L81.75 22.1 81.8 21.75 82.0 21.7 Q83.0 18.85 83.15 17.25 83.25 16.05 83.0 15.05 L84.4 18.4 Q85.35 21.4 84.35 23.85 L83.15 26.35 82.15 28.85 Q81.85 30.15 82.3 31.75 L83.0 34.5 82.75 37.45 82.25 40.2 Q82.2 41.85 83.6 42.9 84.9 43.85 86.65 43.75 88.7 43.55 89.65 39.25 90.0 37.5 89.5 36.2 L88.0 33.5 Q86.8 31.25 87.25 28.75 87.7 26.15 89.75 24.7 L90.0 22.75 Q90.45 23.8 90.35 25.75 L90.05 28.85 Q89.8 31.45 92.0 34.5 L95.0 39.05 Q96.25 41.65 95.45 44.35 94.85 46.4 91.65 47.65 88.25 48.95 87.5 50.35 86.9 51.5 87.35 52.85 L88.4 55.25 Q89.1 56.65 88.7 57.8 88.45 58.65 87.3 59.9 86.0 61.25 85.75 63.0 L85.75 65.05 85.35 65.9 85.0 66.7 Q85.25 65.0 84.25 64.6 L84.5 63.75 Q84.2 63.25 84.25 62.3 L84.45 60.75 84.25 59.45 83.25 58.4 81.65 57.25 Q80.65 56.55 80.35 55.85 L80.0 54.55 79.55 53.2 Q78.95 52.25 77.45 51.45 75.65 50.45 75.15 49.95 73.55 48.45 73.0 44.85 72.75 42.6 74.3 40.75 L75.95 39.35 Q77.1 38.4 77.05 37.75 77.8 37.1 77.0 35.0 76.35 33.35 75.5 32.35 L73.45 30.35 71.4 28.15 Q69.4 25.3 69.35 22.05 69.35 18.9 71.2 15.85 L72.7 13.95 74.2 12.0 Q74.5 11.4 74.8 9.25 75.0 7.5 75.95 6.75"/><path fill="#ffffff" fill-opacity="0.8" d="M90.05 6.45 Q90.45 7.45 91.3 8.65 L93.6 12.15 Q94.35 14.1 93.15 16.5 91.85 19.0 89.75 18.85 L90.0 18.6 89.5 18.5 Q90.2 17.85 89.7 17.0 L88.75 15.6 Q88.15 14.5 88.4 11.6 L89.6 8.15 90.05 6.45"/></g></defs><g><g><use transform="matrix(1.0,0.0,0.0,1.0,0.0,0.0)" xlink:href="#c1"/></g></g></svg>