<?xml version='1.0' encoding='UTF-8'?>
<svg xmlns="http://www.w3.org/2000/svg" xmlns:xlink="http://www.w3.org/1999/xlink" version="1.1" width="96px" height="96px" viewBox="1.45 0.05 95.5 96.15"><defs><g id="c1"><path fill="#ffffff" stroke="none" d="M96.5 6.0 L96.25 6.1 Q95.95 6.05 95.6 5.15 L94.55 3.2 96.2 4.7 96.95 5.7 96.5 6.0"/><path fill="#ffffff" stroke="none" d="M2.1 16.25 Q1.9 11.8 1.55 10.0 L1.45 9.6 Q2.6 6.9 4.4 4.85 4.25 6.85 3.55 9.3 3.0 11.35 3.2 12.1 3.35 12.8 2.1 16.25"/><path fill="#ffffff" stroke="none" d="M10.1 5.55 L9.6 4.15 9.55 3.6 6.1 3.35 Q10.3 0.05 16.7 0.05 L83.6 0.05 Q88.75 0.05 92.3 1.75 L92.05 2.1 91.6 2.5 Q91.2 2.8 91.6 4.2 L92.0 6.0 91.55 6.65 Q91.15 7.0 91.05 7.5 90.9 8.5 90.9 12.5 90.9 16.15 90.35 16.4 90.0 16.6 90.05 15.65 L90.15 13.9 89.8 11.65 88.9 9.2 Q88.35 8.3 88.25 7.7 L88.35 6.1 Q88.6 4.55 86.15 3.5 L85.1 3.55 84.35 4.3 Q83.9 4.75 83.85 5.25 83.75 5.85 84.0 7.1 84.2 7.95 83.55 8.6 82.9 9.15 83.1 9.75 83.3 10.5 83.15 11.4 L82.9 12.4 83.1 15.0 Q83.1 16.95 83.25 18.1 L83.1 19.85 82.55 21.15 Q82.2 21.5 81.45 20.05 81.05 19.15 81.65 16.7 81.85 15.65 81.6 15.15 L80.9 14.05 Q80.5 13.25 80.45 12.65 L80.55 11.0 80.5 9.8 79.65 9.3 Q79.1 9.05 79.15 8.25 L79.1 6.95 Q78.85 6.45 77.85 6.25 L76.35 6.1 Q75.6 6.25 74.35 7.05 72.85 8.0 72.75 8.75 72.65 9.4 73.15 10.15 L74.55 11.95 Q75.2 12.95 74.55 14.05 L73.45 16.0 73.1 17.2 73.25 18.35 Q73.5 19.25 73.05 20.55 L72.35 22.55 72.3 23.9 72.35 25.45 72.0 27.3 Q71.65 28.35 71.65 28.95 L71.6 30.8 Q71.65 31.85 72.0 32.55 72.35 33.2 72.1 34.25 L71.8 35.6 72.0 40.2 71.85 42.15 Q71.8 43.0 72.0 43.4 L72.3 44.75 72.2 46.05 71.95 48.95 71.8 52.0 71.4 55.15 Q70.9 57.75 70.55 57.85 70.0 58.0 69.1 52.15 L68.75 50.95 Q68.45 50.0 68.55 49.25 68.75 48.1 68.0 46.3 67.7 45.65 67.55 44.55 67.35 43.45 67.45 42.95 67.65 42.25 67.65 40.05 67.65 37.55 67.1 37.0 66.75 36.65 67.0 35.95 L67.3 35.3 66.75 31.0 Q66.6 30.7 66.6 29.65 L66.9 27.8 Q67.2 27.15 66.85 26.3 L65.85 24.5 Q65.3 23.65 65.65 22.85 L66.2 21.85 Q66.2 20.7 64.9 19.75 64.0 19.05 66.0 16.4 66.2 14.3 65.65 13.65 65.1 12.95 65.45 11.7 L65.85 10.6 Q66.0 9.8 65.3 9.2 64.55 8.55 63.4 8.55 62.4 8.55 62.0 8.9 61.7 9.25 61.45 9.9 61.2 10.6 61.45 10.85 61.65 11.05 61.65 12.35 L61.65 14.2 61.75 15.7 Q61.85 16.85 62.4 17.95 62.9 18.95 62.0 19.6 60.95 20.3 60.95 20.7 L60.6 22.4 Q60.2 23.6 60.2 24.5 60.2 25.35 59.5 26.7 58.65 28.35 58.4 29.5 L57.8 31.65 Q57.7 32.15 58.0 32.95 58.55 34.2 58.0 35.75 57.5 38.95 58.0 39.5 58.35 39.85 58.3 42.6 L58.2 46.05 57.85 50.0 57.65 53.95 57.35 55.6 Q57.0 56.6 57.3 56.9 57.65 57.25 57.25 58.55 L56.75 59.8 57.3 64.1 Q57.7 66.4 57.3 67.85 L57.05 70.4 56.95 72.85 Q56.95 74.8 56.55 75.8 56.4 76.3 56.2 78.45 L55.85 81.05 Q55.65 81.65 55.7 84.55 L55.85 88.3 55.65 93.45 Q55.65 94.1 54.75 95.15 53.85 96.2 53.85 95.8 54.2 92.05 53.3 90.65 52.75 89.85 52.45 86.95 L52.05 83.45 Q51.8 82.75 52.15 78.05 L52.55 72.85 52.25 69.95 Q52.05 67.4 52.4 66.45 52.75 65.5 52.2 63.75 L51.5 61.75 Q51.2 60.9 49.3 58.95 48.25 57.9 48.8 57.3 L49.5 56.9 Q49.5 55.2 49.65 54.1 L49.85 51.85 49.1 49.25 Q48.8 48.4 49.1 47.95 L49.5 47.7 Q49.5 47.0 49.1 46.6 48.9 46.35 49.0 45.95 L49.5 44.5 Q49.75 43.45 49.6 42.95 L49.1 42.25 48.5 40.85 48.2 39.1 48.25 37.4 Q48.2 36.2 47.5 35.3 46.8 34.45 47.1 33.4 L47.5 32.55 47.9 32.05 Q48.2 31.4 47.5 30.6 46.8 29.8 46.9 28.9 L47.15 28.1 Q46.95 26.15 47.3 24.9 47.5 24.1 48.1 23.75 L48.6 23.5 47.85 23.0 Q47.2 22.3 47.65 21.15 L49.1 18.2 Q48.2 17.65 48.2 16.4 48.2 13.05 47.85 12.25 L46.4 7.5 44.6 10.55 Q43.25 12.8 43.65 14.05 44.05 15.15 44.05 17.65 L44.05 19.6 44.05 21.85 Q44.2 23.8 43.3 28.95 43.0 30.5 42.55 31.3 42.2 31.85 42.2 32.8 L42.25 34.65 42.05 35.75 Q41.15 38.2 41.15 39.75 41.15 40.4 40.7 40.6 40.15 40.8 40.05 41.15 39.95 41.65 40.2 42.4 L40.6 43.65 Q40.9 45.4 40.6 47.4 L40.0 48.55 Q39.6 49.15 39.7 49.5 L39.85 50.5 Q39.9 51.15 40.25 52.0 40.55 52.85 40.15 53.3 L39.7 53.95 39.35 56.1 Q39.1 58.05 39.3 58.8 L39.55 61.5 39.5 63.85 39.05 68.6 Q38.65 73.05 38.75 74.1 38.95 75.95 37.3 78.0 L36.4 75.65 Q36.05 68.4 35.3 66.9 34.85 65.9 35.25 64.3 L35.85 62.6 35.9 60.45 35.5 58.25 35.0 56.25 34.8 54.1 Q35.15 50.35 34.95 49.5 L34.25 45.75 Q33.5 43.7 33.5 42.4 L33.85 40.6 Q34.15 39.35 34.05 38.8 33.75 37.25 32.95 35.9 32.55 35.2 32.75 34.0 L33.5 31.15 33.95 29.3 33.85 29.05 Q32.95 27.0 32.8 25.75 32.7 24.95 33.0 24.7 L33.35 24.6 32.25 22.55 Q31.9 21.75 32.4 20.95 L32.95 20.3 Q32.8 19.6 31.85 18.1 31.3 17.15 31.5 16.55 L31.85 16.15 Q32.4 15.6 31.7 14.3 31.3 13.6 31.3 12.5 L31.15 10.7 30.75 8.1 30.6 6.4 29.9 7.35 28.8 8.6 Q28.4 8.95 27.9 12.1 27.7 13.05 26.95 13.75 L27.5 14.7 Q28.05 15.8 28.05 16.4 28.05 17.4 27.35 17.8 L27.25 19.2 26.95 20.85 26.7 23.35 26.6 26.85 Q26.6 28.65 25.35 30.2 L24.95 24.2 24.3 21.75 23.5 19.05 Q22.75 16.15 22.25 15.7 21.8 15.4 21.45 14.3 21.1 13.15 21.35 12.65 21.6 12.15 21.2 11.25 L20.25 9.75 Q19.75 9.2 19.7 8.65 L19.7 7.35 Q19.7 6.65 20.25 5.85 L20.8 5.15 17.55 4.85 16.8 6.2 Q16.05 7.7 16.05 8.5 L16.05 9.05 Q16.0 8.85 15.9 9.2 L15.45 10.25 Q15.15 10.95 15.15 11.55 L14.8 15.6 Q14.8 19.05 14.6 20.05 14.45 21.0 13.55 22.55 13.15 20.15 13.55 19.2 13.75 18.6 13.45 17.95 L12.8 16.85 12.5 14.95 12.1 12.95 Q11.9 12.6 11.65 11.25 11.45 10.05 10.8 9.2 10.2 8.3 10.25 7.25 L10.1 5.55"/></g></defs><g><g><use transform="matrix(1.0,0.0,0.0,1.0,0.0,0.0)" xlink:href="#c1"/></g></g></svg>