<?xml version='1.0' encoding='UTF-8'?>
<svg xmlns="http://www.w3.org/2000/svg" xmlns:xlink="http://www.w3.org/1999/xlink" version="1.1" width="95px" height="83px" viewBox="3.9 15.9 95.05 83.25"><defs><g id="c1"><path fill="#ffffff" stroke="none" d="M37.75 23.3 L44.25 18.8 Q44.1 16.65 44.85 15.9 L45.25 15.9 Q45.65 16.25 45.5 18.1 L45.05 20.7 Q44.65 21.75 40.85 25.9 38.15 28.8 39.65 31.5 L43.45 31.4 Q44.95 30.2 45.05 27.75 46.4 29.35 46.7 31.65 47.0 33.9 46.1 36.1 L44.35 38.3 Q43.1 39.6 43.0 40.45 42.85 41.45 43.25 43.05 L43.8 45.65 Q43.85 48.45 42.1 52.15 40.4 55.65 38.6 57.1 36.3 58.55 35.5 59.15 34.2 60.15 34.25 61.9 34.25 63.7 36.3 65.2 38.55 65.15 39.6 63.2 L40.9 59.2 Q42.95 61.3 42.35 65.65 41.95 68.65 39.85 72.5 L34.95 78.45 Q32.25 81.9 34.05 85.2 L34.75 86.2 35.3 87.3 Q39.15 90.2 42.85 86.05 45.5 83.1 47.35 77.7 49.35 72.1 48.4 66.45 L47.45 63.65 46.3 60.85 Q45.1 57.05 45.25 53.45 45.4 49.05 47.55 46.9 51.85 42.6 55.25 43.35 54.9 44.2 52.25 46.55 50.1 48.45 50.25 50.85 50.35 52.1 51.1 53.0 51.9 54.0 52.95 54.0 54.9 53.95 57.65 49.0 60.25 44.35 60.45 41.7 L60.3 38.5 Q60.0 36.35 60.05 35.45 60.15 32.85 61.15 30.25 L63.15 25.9 Q69.15 21.0 70.0 20.5 74.55 17.75 79.0 18.8 L70.05 24.2 Q65.4 28.1 64.85 34.4 64.6 37.0 65.05 39.15 65.55 41.85 66.9 41.9 68.55 41.95 68.85 39.4 68.9 36.4 69.2 35.45 72.55 36.9 71.25 41.8 70.1 46.0 67.55 48.15 L65.95 49.2 64.2 50.25 Q62.85 51.3 61.0 53.55 L57.95 57.5 55.15 61.35 Q53.8 63.9 54.2 67.1 55.4 69.8 58.45 70.95 61.7 72.2 64.65 70.4 66.3 69.4 67.75 66.75 69.25 64.0 69.6 61.25 L69.7 54.2 Q69.65 50.0 70.85 47.95 73.6 43.25 79.2 42.1 79.35 43.3 76.85 45.45 74.35 47.6 74.6 49.6 74.95 51.9 77.3 51.45 79.1 51.1 80.65 49.8 85.05 46.4 86.05 41.9 86.6 39.6 86.25 36.5 L85.45 31.1 Q85.1 28.1 86.55 25.95 87.95 23.9 90.45 23.4 L88.7 26.75 Q87.45 28.85 87.95 31.3 L88.55 33.3 89.2 35.45 89.6 37.75 Q89.85 39.0 90.25 39.8 L89.05 47.35 Q88.3 51.0 86.7 53.35 85.4 55.3 82.6 57.9 79.3 60.95 78.35 62.1 76.5 64.25 76.55 67.3 76.55 70.75 80.0 70.4 82.1 70.2 83.8 68.3 85.4 66.45 85.65 64.2 L85.55 62.95 85.45 61.7 Q85.55 57.7 88.5 54.75 91.65 51.65 95.45 52.5 95.05 53.6 93.3 54.35 91.35 55.25 90.85 55.85 89.2 57.85 90.6 62.75 92.2 68.2 91.05 71.05 L89.75 72.85 87.95 74.8 84.8 78.35 78.35 82.05 Q74.4 84.3 73.6 86.65 72.8 88.85 74.15 91.7 75.5 94.5 77.55 95.2 L81.95 95.35 Q84.05 94.8 84.8 93.75 86.0 92.05 85.25 88.35 84.45 83.9 84.8 82.3 85.3 80.4 87.2 78.95 89.1 77.5 91.5 77.1 91.5 77.7 90.8 78.3 L89.6 79.35 88.7 80.6 Q88.2 81.3 87.95 81.05 86.95 83.0 88.45 86.75 89.95 90.55 91.9 90.6 93.0 90.65 93.65 89.35 L94.8 87.05 Q95.6 86.1 96.45 85.8 L98.95 85.4 98.95 86.45 Q98.7 86.45 98.75 86.95 L98.75 87.7 97.4 89.2 Q96.7 90.0 96.45 91.05 96.3 91.7 96.5 93.2 L95.1 94.8 Q91.9 98.1 87.1 99.15 L12.7 99.15 12.5 99.1 10.55 98.6 9.25 98.05 Q6.55 96.95 4.5 94.8 L3.9 94.15 4.9 88.95 Q5.6 88.55 6.15 87.55 L7.2 85.85 Q8.05 84.8 10.4 83.45 L13.45 81.25 Q14.5 80.0 14.45 77.75 14.45 74.5 14.65 73.55 16.15 74.0 16.9 76.95 17.6 79.8 17.15 82.7 L16.6 85.6 Q16.55 87.1 18.0 87.5 20.6 88.15 22.1 84.85 23.25 82.25 23.2 78.95 23.15 75.65 19.8 66.1 16.95 58.1 18.4 52.1 18.95 49.9 21.95 46.35 24.75 43.0 25.1 40.45 L25.05 38.1 Q25.0 36.55 25.7 36.3 26.55 36.65 26.85 38.75 27.05 40.55 26.75 42.35 L24.9 47.05 Q23.3 50.55 23.0 52.5 22.5 56.05 23.4 59.2 24.45 62.8 26.75 62.7 28.55 62.65 29.65 59.65 30.7 56.75 30.05 54.0 L29.1 51.85 Q28.45 50.6 28.4 49.8 28.35 48.25 29.0 47.2 29.65 46.0 30.9 45.85 30.6 48.95 30.95 50.45 31.5 52.45 33.4 52.75 37.2 53.3 39.25 46.05 39.85 43.85 39.9 41.4 40.0 38.55 39.25 36.5 L37.7 34.2 Q36.4 32.75 36.1 31.7 34.55 26.6 37.75 23.3"/><path fill="#ffffff" stroke="none" d="M59.4 17.35 L57.95 19.8 Q57.15 21.25 56.95 22.75 L56.95 25.3 56.95 27.95 Q56.55 30.3 54.45 32.5 L50.9 35.65 Q51.25 33.9 50.65 28.75 50.15 24.55 51.5 22.15 52.55 20.4 54.8 19.0 57.05 17.7 59.4 17.35"/><path fill="#ffffff" stroke="none" d="M13.65 53.55 Q12.45 55.45 13.65 58.7 15.0 62.45 14.45 64.4 13.85 64.85 13.2 66.85 12.6 68.65 11.55 68.95 12.05 67.55 10.85 65.0 9.35 61.85 9.25 60.85 8.85 57.0 13.65 53.55"/></g></defs><g><g><use transform="matrix(1.0,0.0,0.0,1.0,0.0,0.0)" xlink:href="#c1"/></g></g></svg>