<?xml version='1.0' encoding='UTF-8'?>
<svg xmlns="http://www.w3.org/2000/svg" xmlns:xlink="http://www.w3.org/1999/xlink" version="1.1" width="100px" height="90px" viewBox="0.05 4.2 99.95 90.45"><defs><g id="c1"><path fill="#ffffff" stroke="none" d="M56.6 20.3 L54.25 27.9 62.4 22.45 53.4 35.75 100.0 31.55 100.0 48.35 51.85 44.65 55.7 53.35 47.35 46.65 48.0 58.75 36.25 41.8 26.75 40.4 36.9 37.1 45.25 23.9 44.55 35.25 56.6 20.3"/><path fill="#ffffff" fill-opacity="0.8" d="M50.95 10.1 L47.7 29.15 59.35 14.6 57.45 23.95 76.05 8.3 58.15 32.75 100.0 25.85 100.0 56.05 58.2 50.0 67.5 65.35 49.75 52.1 58.85 76.65 44.6 60.65 40.9 52.1 32.75 43.35 25.95 42.45 21.15 40.45 26.75 37.85 33.2 36.65 50.95 10.1"/><path fill="#ffffff" stroke="none" d="M28.85 20.2 L30.5 22.85 33.95 30.1 31.4 33.95 25.8 35.0 13.8 40.55 25.15 45.4 31.3 46.15 38.35 53.75 38.85 54.85 34.1 54.9 31.3 60.0 22.4 59.8 20.85 69.5 26.15 73.0 25.45 78.35 25.75 81.4 21.05 84.85 9.45 82.25 4.45 94.65 Q0.5 90.55 0.05 84.0 L0.05 16.0 Q0.3 13.05 1.1 10.65 L10.95 10.2 Q18.95 10.8 23.7 14.7 26.6 17.05 28.85 20.2"/><path fill="#ffffff" stroke="none" d="M74.35 81.65 L67.1 80.45 54.55 59.8 74.35 81.65"/><path fill="#ffffff" stroke="none" d="M86.8 9.65 L85.4 16.85 64.45 28.9 86.8 9.65"/><path fill="#ffffff" stroke="none" d="M79.9 63.45 L74.45 65.45 65.7 55.05 79.9 63.45"/><path fill="#ffffff" stroke="none" d="M56.4 4.2 L59.65 9.05 51.55 19.95 56.4 4.2"/></g></defs><g><g><use transform="matrix(1.0,0.0,0.0,1.0,0.0,0.0)" xlink:href="#c1"/></g></g></svg>