<?xml version='1.0' encoding='UTF-8'?>
<svg xmlns="http://www.w3.org/2000/svg" xmlns:xlink="http://www.w3.org/1999/xlink" version="1.1" width="85px" height="91px" viewBox="8.75 9.4 84.55 90.6"><defs><g id="c1"><path fill="#ffffff" stroke="none" d="M86.9 18.25 Q85.45 16.0 82.0 13.75 79.55 12.25 75.55 10.35 L75.75 9.4 Q79.5 9.55 83.35 11.2 85.1 12.0 86.85 13.3 88.7 14.8 89.7 16.45 91.55 19.5 92.5 23.9 93.3 27.95 93.15 31.55 L92.15 31.7 89.8 24.65 Q88.15 20.15 86.9 18.25 M93.15 42.9 Q93.3 46.55 92.5 50.6 91.55 55.0 89.7 58.05 88.65 59.75 86.85 61.2 85.1 62.5 83.35 63.3 79.5 64.95 75.75 65.1 L75.55 64.15 82.0 60.7 Q85.45 58.55 86.9 56.25 88.15 54.35 89.8 49.85 L92.15 42.8 93.15 42.9 M48.75 44.05 Q48.75 43.0 49.5 42.3 50.2 41.55 51.25 41.55 52.25 41.55 53.0 42.3 53.75 43.0 53.75 44.05 53.75 45.05 53.0 45.8 52.25 46.55 51.25 46.55 50.2 46.55 49.5 45.8 48.75 45.05 48.75 44.05 M53.75 31.9 Q53.75 32.95 53.0 33.7 52.25 34.4 51.25 34.4 50.2 34.4 49.5 33.7 48.75 32.95 48.75 31.9 48.75 30.9 49.5 30.15 50.2 29.45 51.25 29.45 52.25 29.45 53.0 30.15 53.75 30.9 53.75 31.9 M48.0 20.8 L54.15 20.8 Q57.95 20.8 59.05 23.35 L72.55 24.8 Q75.15 25.4 75.8 28.6 76.3 30.95 75.85 37.0 75.4 43.85 74.85 46.55 74.4 48.5 73.05 50.2 L60.1 52.3 60.45 100.0 56.8 100.0 56.45 48.95 70.3 47.8 Q71.05 47.0 71.3 45.8 71.75 43.55 72.25 36.75 72.8 28.55 71.75 28.3 L55.7 26.7 55.7 24.8 Q55.7 24.45 54.15 24.45 L48.0 24.45 Q46.45 24.45 46.45 24.8 L46.45 26.7 30.45 28.3 Q28.75 28.7 30.9 45.8 31.15 47.0 31.85 47.8 L45.75 48.95 45.35 100.0 41.75 100.0 42.1 52.3 29.15 50.2 Q27.8 48.85 27.35 46.55 26.9 44.8 26.3 37.0 25.9 30.9 26.35 28.6 27.0 25.4 29.6 24.8 L43.15 23.35 Q44.25 20.8 48.0 20.8 M26.55 10.35 Q22.6 12.2 20.05 13.75 16.6 16.0 15.15 18.25 13.9 20.15 12.25 24.65 L9.9 31.7 8.9 31.55 Q8.75 27.95 9.55 23.9 10.5 19.5 12.35 16.45 13.35 14.8 15.2 13.3 16.95 12.0 18.7 11.2 22.55 9.55 26.3 9.4 L26.55 10.35 M9.9 42.8 L12.25 49.85 Q13.9 54.35 15.15 56.25 16.65 58.55 20.05 60.7 L26.55 64.15 26.3 65.1 Q22.55 64.95 18.7 63.3 16.95 62.5 15.2 61.2 13.4 59.75 12.35 58.05 10.5 55.0 9.55 50.6 8.75 46.55 8.9 42.9 L9.9 42.8"/><path fill="#ffffff" fill-opacity="0.8" d="M84.0 37.55 Q83.5 45.15 82.85 48.3 81.95 52.45 79.15 55.6 L68.35 59.8 68.6 100.0 64.55 100.0 64.2 56.05 76.1 52.9 Q78.15 50.7 78.85 47.4 79.45 44.65 79.95 37.3 80.25 33.55 80.15 30.75 80.0 26.0 77.8 23.4 76.15 21.4 73.5 20.8 L61.35 19.45 Q58.7 16.7 54.15 16.7 L48.0 16.7 Q43.45 16.7 40.85 19.45 L28.7 20.8 Q26.05 21.4 24.4 23.4 22.2 26.0 22.05 30.75 21.95 33.55 22.25 37.3 22.75 44.65 23.35 47.4 24.0 50.5 26.05 52.9 L37.95 56.05 37.65 100.0 33.55 100.0 33.85 59.8 23.0 55.6 Q20.2 52.25 19.35 48.3 18.7 45.4 18.15 37.55 17.85 33.6 17.95 30.65 18.2 23.75 21.95 20.0 24.4 17.6 27.8 16.8 L39.1 15.5 Q42.65 12.6 48.0 12.6 L54.15 12.6 Q59.45 12.6 63.1 15.5 L74.4 16.8 Q77.8 17.6 80.25 20.0 83.95 23.75 84.2 30.65 84.35 32.95 84.0 37.55"/></g></defs><g><g><use transform="matrix(1.0,0.0,0.0,1.0,0.0,0.0)" xlink:href="#c1"/></g></g></svg>