<?xml version='1.0' encoding='UTF-8'?>
<svg xmlns="http://www.w3.org/2000/svg" xmlns:xlink="http://www.w3.org/1999/xlink" version="1.1" width="88px" height="91px" viewBox="5.95 8.6 88.1 91.25"><defs><g id="c1"><path fill="#ffffff" stroke="none" d="M41.9 8.8 L60.3 10.75 55.2 35.15 46.45 33.55 Q39.6 32.2 39.15 31.6 38.6 30.95 38.35 28.9 L38.2 27.0 41.9 8.8 M69.5 16.55 Q68.75 15.45 67.45 15.25 66.2 15.05 65.1 15.8 64.05 16.55 63.8 17.8 63.6 19.1 64.35 20.15 65.1 21.25 66.35 21.45 67.65 21.7 68.7 20.95 69.8 20.2 70.0 18.9 70.25 17.6 69.5 16.55 M72.1 9.9 L73.55 11.6 73.65 13.0 73.65 13.05 69.15 37.55 56.8 35.4 62.1 10.9 62.15 10.9 62.5 9.75 64.15 8.6 72.1 9.9 M91.05 35.4 Q90.8 36.85 88.35 40.6 L70.45 38.1 75.1 13.4 94.05 18.15 91.05 35.4 M56.65 37.0 L68.9 39.35 66.35 49.6 64.05 58.75 Q63.4 61.05 56.0 99.85 L46.75 99.85 54.25 57.85 56.65 37.0 M66.05 31.95 Q67.1 31.25 67.3 29.95 67.55 28.7 66.8 27.65 66.1 26.6 64.8 26.35 63.55 26.1 62.5 26.85 61.45 27.6 61.2 28.85 61.0 30.15 61.7 31.2 62.45 32.25 63.7 32.45 64.95 32.7 66.05 31.95"/><path fill="#ffffff" fill-opacity="0.8" d="M47.4 36.35 L48.1 37.55 46.0 58.65 39.85 93.1 41.6 58.45 41.0 37.25 40.2 36.15 Q24.3 35.25 23.3 34.35 22.7 33.75 22.2 31.75 L21.8 29.85 23.15 11.4 32.85 11.15 29.95 27.8 30.1 29.75 Q30.35 31.8 30.9 32.45 31.75 33.5 47.4 36.35 M5.95 17.2 L12.35 16.5 11.2 32.3 11.6 34.2 Q12.15 36.2 12.75 36.75 13.75 37.7 29.65 38.5 L30.45 39.6 31.1 60.8 30.4 99.85 29.6 99.85 28.3 62.5 25.9 41.4 25.0 40.4 Q9.1 40.9 8.05 40.05 6.95 39.2 6.15 35.7 L5.95 17.2"/></g></defs><g><g><use transform="matrix(1.0,0.0,0.0,1.0,0.0,0.0)" xlink:href="#c1"/></g></g></svg>