<?xml version='1.0' encoding='UTF-8'?>
<svg xmlns="http://www.w3.org/2000/svg" xmlns:xlink="http://www.w3.org/1999/xlink" version="1.1" width="91px" height="93px" viewBox="4.7 6.35 90.6 93.25"><defs><g id="c1"><path fill="#ffffff" fill-opacity="0.8" d="M79.2 6.35 L75.7 11.35 12.4 6.35 79.2 6.35"/><path fill="#ffffff" fill-opacity="0.8" d="M58.4 14.0 L55.55 17.65 15.7 14.0 58.4 14.0"/><path fill="#ffffff" stroke="none" d="M69.35 50.65 L65.85 50.5 61.6 50.35 61.4 50.25 61.2 49.65 59.35 49.8 57.45 50.0 55.65 50.25 53.8 50.55 53.45 51.0 53.2 51.55 53.0 51.8 52.55 52.15 52.1 52.5 50.75 52.55 49.35 52.6 48.0 52.4 47.8 52.55 48.3 53.25 48.95 53.9 50.65 54.55 52.55 54.55 54.45 54.4 57.15 54.2 59.85 53.95 Q61.5 53.95 62.8 53.15 L63.45 52.7 67.45 52.6 Q69.75 52.6 72.15 51.65 L74.0 50.8 Q75.2 50.2 75.75 50.1 L69.35 50.65 M79.85 38.65 Q79.35 36.65 78.75 35.65 70.65 39.7 67.1 45.7 L69.05 46.5 75.2 44.85 77.85 43.55 Q79.7 42.6 80.65 42.2 L79.85 38.65 M82.0 19.5 L82.6 18.55 83.05 17.55 82.0 16.8 Q81.35 16.2 81.85 15.9 L81.7 15.4 81.45 16.55 80.9 19.45 80.35 20.75 Q80.05 21.55 80.2 22.05 80.45 22.9 82.15 24.5 L83.2 25.55 84.35 26.45 82.1 21.9 81.75 20.7 Q81.7 20.15 82.0 19.5 M68.8 23.95 L68.35 24.8 67.7 25.45 67.65 25.65 64.6 28.2 Q64.0 28.75 63.8 29.75 L63.3 31.45 Q62.7 32.55 60.7 34.65 L59.35 36.1 58.25 37.65 Q57.9 38.5 57.8 40.35 57.7 42.3 57.4 43.1 L56.65 44.15 55.6 45.05 54.65 46.15 Q54.0 46.85 53.5 46.9 L53.35 47.15 54.65 47.0 55.95 46.7 58.8 46.45 Q58.0 46.15 58.75 42.3 59.15 39.8 59.7 38.55 L61.6 35.45 62.5 33.85 63.3 32.25 63.85 31.45 64.05 31.45 64.8 30.5 65.0 29.95 65.1 29.35 65.65 28.35 66.5 27.65 Q67.15 27.2 68.2 25.75 69.45 24.1 68.8 23.95 L68.85 23.85 68.65 23.95 68.8 23.95 M12.9 50.2 Q13.7 50.2 13.7 49.35 13.7 48.55 12.9 48.55 12.05 48.55 12.05 49.35 12.05 50.2 12.9 50.2 M8.2 50.2 Q9.05 50.2 9.05 49.35 L8.8 48.8 Q8.55 48.55 8.2 48.55 7.35 48.55 7.35 49.35 7.35 50.2 8.2 50.2 M5.55 46.55 L6.2 45.95 6.5 42.45 Q6.8 38.85 6.95 38.55 L15.4 38.55 15.95 45.75 16.7 46.35 24.1 47.1 45.05 46.95 Q45.65 45.95 46.55 45.7 L49.0 45.3 Q49.1 44.65 50.25 43.5 L50.4 43.25 51.8 39.4 52.1 36.7 52.35 33.7 Q52.5 31.8 53.05 30.8 53.35 28.9 54.0 28.0 L56.8 24.25 Q58.25 22.1 58.8 20.15 L59.05 19.7 59.75 18.35 Q60.7 17.0 62.2 16.2 63.25 15.6 65.2 14.95 L65.5 14.9 Q66.75 14.6 67.7 15.4 L75.15 17.05 76.1 16.65 77.3 15.55 78.65 14.35 Q80.5 10.95 81.8 9.75 83.95 7.8 87.2 8.35 90.15 8.8 91.9 10.25 94.1 12.05 95.3 15.8 95.2 17.3 94.45 18.85 93.35 21.25 92.7 23.5 91.15 23.25 89.25 25.25 87.4 27.2 85.95 26.95 86.35 28.35 86.0 30.1 L85.45 32.95 86.4 34.9 86.75 35.4 87.4 37.55 Q87.85 37.7 87.9 38.15 88.35 39.4 88.3 41.6 L88.2 45.15 Q88.25 45.7 87.7 46.0 L87.75 46.25 87.85 46.55 87.85 46.85 Q87.8 47.4 87.35 47.7 L86.45 47.8 85.95 47.95 85.75 48.15 Q84.3 48.9 82.15 49.3 L78.4 49.95 76.35 50.4 79.2 52.45 Q80.2 53.1 82.45 53.95 84.4 54.85 85.1 56.6 85.9 58.75 84.0 62.35 L80.75 67.65 75.55 75.4 Q71.9 81.0 72.4 83.4 73.05 86.55 75.85 88.3 L81.15 90.6 Q80.45 93.75 74.75 92.4 70.7 91.5 62.55 87.9 63.05 83.4 66.3 81.1 67.55 78.35 69.5 71.4 71.25 65.05 73.0 61.8 L62.35 59.8 Q61.6 60.95 60.4 66.05 59.45 70.0 56.95 71.7 55.45 76.5 51.8 81.95 L44.65 91.4 41.8 94.65 Q40.15 96.55 39.6 97.7 L38.8 99.6 29.9 99.6 33.55 97.9 Q35.65 95.45 37.05 90.9 38.8 85.2 39.6 83.6 40.3 82.25 42.45 80.4 44.7 78.4 45.4 77.3 46.6 75.45 46.95 71.65 L47.6 65.5 48.5 61.9 Q48.95 59.9 48.85 58.75 L47.9 55.6 46.8 52.35 45.1 52.6 Q44.2 52.6 44.1 51.65 L24.1 51.6 16.7 52.4 15.95 53.0 15.45 60.2 6.95 60.2 Q6.7 59.7 6.2 52.8 L5.55 52.2 5.55 51.8 5.15 51.8 Q4.75 51.8 4.7 49.35 L4.8 48.15 Q4.9 46.95 5.15 46.95 L5.55 46.95 5.55 46.55"/></g></defs><g><g><use transform="matrix(1.0,0.0,0.0,1.0,0.0,0.0)" xlink:href="#c1"/></g></g></svg>