<?xml version='1.0' encoding='UTF-8'?>
<svg xmlns="http://www.w3.org/2000/svg" xmlns:xlink="http://www.w3.org/1999/xlink" version="1.1" width="97px" height="97px" viewBox="1.45 1.95 97.1 96.8"><defs><g id="c1"><path fill="#ffffff" stroke="none" d="M42.9 9.8 Q44.65 1.95 49.7 2.3 48.6 3.7 48.3 6.0 48.15 7.05 48.15 9.9 48.15 16.1 50.3 19.15 51.4 20.75 53.3 20.7 55.25 20.65 56.0 18.85 57.45 15.15 55.35 9.95 57.55 13.0 58.5 15.15 59.8 18.2 59.35 20.95 59.0 23.1 57.35 26.1 L55.85 28.8 Q55.2 30.5 56.4 31.3 58.55 32.8 60.75 32.1 62.9 31.4 63.5 29.05 64.0 26.95 63.55 24.15 L62.45 19.25 Q63.15 21.55 65.9 25.55 68.65 29.5 69.35 31.8 L68.25 37.4 65.6 47.7 80.2 23.15 85.2 33.6 98.55 21.85 89.1 44.95 82.2 38.55 65.15 53.65 67.4 56.0 Q68.3 57.2 68.4 57.8 L74.75 57.0 80.35 57.15 Q79.5 58.35 77.2 58.95 L73.05 59.8 Q73.7 60.85 75.95 60.1 78.25 59.35 79.05 60.45 78.65 61.6 76.9 62.0 L73.7 62.45 Q74.2 62.6 75.9 63.65 77.15 64.4 78.4 64.45 75.35 66.75 78.6 66.75 L85.7 66.45 Q85.65 68.1 83.35 68.45 L79.7 69.1 82.05 69.55 Q83.45 69.5 84.35 70.45 84.55 71.3 83.85 71.6 83.05 72.0 83.05 72.45 83.9 74.1 86.15 73.65 L89.05 73.8 Q88.75 75.4 86.35 75.1 87.75 78.2 88.7 79.3 90.0 80.65 91.35 83.2 88.5 82.6 86.1 79.3 85.35 78.3 84.6 78.4 83.65 78.55 81.7 80.45 81.55 79.4 81.95 76.75 82.15 75.3 81.05 74.45 80.35 75.0 79.7 76.45 79.4 75.65 78.2 74.75 77.45 74.15 77.7 71.8 76.5 73.35 76.4 77.1 74.2 77.0 74.75 74.05 75.5 69.75 75.05 68.45 73.55 69.95 72.25 69.2 70.9 68.4 71.05 65.8 70.45 66.4 70.05 68.4 69.6 70.45 69.05 71.1 68.2 70.8 68.3 68.85 L68.4 65.8 Q67.55 66.25 67.1 69.2 66.75 71.75 65.05 71.8 L65.75 63.95 Q66.0 59.35 63.75 57.8 61.45 60.7 60.9 62.6 60.45 64.25 60.7 67.6 55.45 64.3 52.45 63.8 50.8 67.55 54.7 70.35 L57.85 72.65 Q59.5 74.1 59.75 75.75 58.1 75.45 56.5 74.4 L53.75 72.45 Q53.0 73.25 54.85 74.5 57.05 76.05 57.1 77.1 55.6 77.3 54.4 76.5 53.2 75.45 52.45 75.1 L52.95 76.8 Q53.2 77.65 53.1 79.75 52.0 79.05 51.1 79.1 51.45 81.1 53.95 82.9 56.6 84.8 57.1 86.4 55.4 86.55 53.95 85.25 52.35 83.8 51.1 83.75 52.9 85.05 53.2 85.7 53.6 86.6 53.1 89.1 52.0 88.4 51.1 88.4 50.7 90.3 52.6 91.25 54.6 92.25 54.45 93.75 53.9 93.8 53.1 93.35 52.4 92.95 51.75 93.05 51.55 94.4 51.1 94.35 50.75 94.35 50.45 97.25 L50.15 98.0 49.85 98.75 49.6 98.0 49.3 97.25 Q49.05 94.35 48.65 94.35 48.2 94.4 48.0 93.05 47.3 92.95 46.6 93.35 45.85 93.8 45.3 93.75 45.15 92.25 47.15 91.25 49.05 90.3 48.65 88.4 47.75 88.4 46.65 89.1 46.15 86.6 46.55 85.7 46.85 85.1 48.65 83.75 47.4 83.8 45.8 85.25 44.35 86.55 42.65 86.4 43.15 84.8 45.8 82.9 48.3 81.1 48.65 79.1 47.75 79.05 46.65 79.75 46.55 77.65 46.8 76.8 L47.3 75.1 Q46.55 75.45 45.35 76.5 44.15 77.3 42.65 77.1 42.7 76.05 44.9 74.5 46.75 73.25 46.0 72.45 L43.25 74.4 Q41.65 75.45 40.0 75.75 40.25 74.1 41.9 72.65 L45.05 70.35 Q48.95 67.55 47.3 63.8 46.25 65.15 43.65 65.95 40.4 66.95 39.45 67.55 40.1 64.9 39.25 62.75 38.55 61.05 36.0 57.8 33.75 59.35 34.0 63.95 L34.65 71.8 Q33.0 71.75 32.65 69.2 32.2 66.25 31.35 65.8 31.25 66.2 31.45 68.85 31.6 70.8 30.7 71.1 30.15 70.45 29.7 68.4 29.3 66.4 28.7 65.8 28.8 68.4 27.5 69.2 26.2 69.95 24.7 68.45 24.25 69.75 25.0 74.05 25.55 77.0 23.35 77.1 23.25 73.35 22.05 71.8 22.3 74.15 21.55 74.75 20.35 75.65 20.05 76.45 19.45 75.05 18.7 74.45 17.6 75.3 17.8 76.75 18.2 79.4 18.05 80.45 14.9 77.45 13.1 79.7 9.95 83.45 7.2 84.0 8.6 81.4 10.45 79.7 12.05 78.15 13.4 75.1 11.0 75.4 10.7 73.8 L13.65 73.65 Q15.85 74.1 16.7 72.45 16.7 72.0 15.9 71.6 15.2 71.3 15.4 70.45 16.3 69.5 17.7 69.55 L20.05 69.1 16.4 68.45 Q14.1 68.15 14.05 66.45 L21.15 66.75 Q24.4 66.75 21.35 64.45 22.6 64.4 23.85 63.65 25.55 62.6 26.0 62.45 L22.85 62.0 Q21.1 61.6 20.7 60.45 21.45 59.35 23.8 60.1 26.05 60.85 26.7 59.8 L22.55 58.95 Q20.2 58.35 19.35 57.15 L25.0 57.0 31.35 57.8 Q31.45 57.1 32.65 55.6 33.95 53.95 35.5 53.0 L19.45 37.7 12.35 43.85 1.45 16.85 16.65 32.65 22.0 22.4 36.15 48.2 Q34.65 43.25 33.5 38.55 32.3 33.6 32.5 32.75 33.05 30.1 35.9 25.95 38.95 21.55 39.65 19.25 L38.25 25.65 Q37.85 29.9 40.1 31.6 41.45 32.7 43.2 32.2 44.85 31.75 45.65 30.3 47.1 27.65 45.25 23.5 43.4 19.3 42.9 16.8 42.15 13.35 42.9 9.8"/></g></defs><g><g><use transform="matrix(1.0,0.0,0.0,1.0,0.0,0.0)" xlink:href="#c1"/></g></g></svg>