<?xml version='1.0' encoding='UTF-8'?>
<svg xmlns="http://www.w3.org/2000/svg" xmlns:xlink="http://www.w3.org/1999/xlink" version="1.1" width="94px" height="95px" viewBox="0.0 5.1 94.0 94.9"><defs><g id="c1"><path fill="#ffffff" stroke="none" d="M11.0 23.9 L0.0 27.75 0.0 23.6 9.1 20.5 Q13.85 18.85 14.3 18.35 14.85 17.7 16.05 17.3 L17.9 16.5 Q18.45 16.1 18.9 16.2 19.3 16.3 19.75 15.95 L21.5 16.05 23.5 15.85 25.25 15.65 28.8 14.1 32.4 12.65 Q33.35 12.25 32.95 10.35 L32.1 7.65 Q31.9 6.8 33.8 6.2 L36.6 5.5 Q37.8 5.1 38.5 6.55 L39.45 9.25 Q39.7 9.85 40.45 10.45 41.15 11.05 41.4 11.75 L41.55 13.3 41.25 14.55 41.9 17.3 Q42.55 19.6 42.25 19.7 L36.95 21.45 Q36.55 21.6 35.75 19.6 L34.85 17.1 Q34.55 16.3 32.25 16.85 31.05 17.1 29.3 17.7 28.25 17.95 26.95 18.55 L24.75 19.4 Q24.1 19.6 24.25 20.5 24.35 21.6 24.0 22.0 L22.1 23.8 Q21.4 24.45 21.35 25.0 L21.65 26.5 Q22.25 29.6 22.8 31.3 22.5 31.6 22.7 32.1 L24.25 36.7 Q25.35 39.25 27.3 39.95 27.7 40.25 29.1 40.75 L30.25 41.3 Q34.45 39.95 36.75 39.5 40.85 38.65 43.05 40.35 L43.1 40.35 43.55 39.85 Q44.35 39.3 43.85 38.55 43.85 37.3 42.7 33.85 L41.75 31.9 Q41.1 30.65 41.1 29.85 41.1 27.65 42.8 25.95 43.95 24.8 46.25 24.1 48.4 23.45 50.15 23.55 50.95 23.65 51.35 24.05 51.85 24.5 52.4 24.25 L52.95 24.15 53.3 24.2 53.5 24.55 Q53.6 24.8 53.85 24.75 53.85 24.35 54.45 24.3 L55.3 24.35 Q56.35 25.25 56.65 27.0 L56.6 28.0 56.6 29.0 57.05 30.5 57.4 32.0 57.2 33.25 Q57.1 33.85 57.6 34.5 L58.2 35.4 Q58.65 35.9 58.35 36.4 L57.75 37.0 Q57.6 37.1 57.6 37.7 L57.1 38.45 56.5 39.15 Q57.0 39.2 56.95 39.55 L56.7 40.1 56.4 40.3 56.1 40.6 Q56.1 41.9 55.85 41.95 L58.8 42.35 Q61.1 42.85 62.5 44.3 63.8 45.7 66.1 46.1 L67.65 46.95 69.3 47.7 73.4 47.5 73.85 47.4 Q76.9 46.0 78.9 40.95 L78.9 40.35 79.05 40.2 Q79.95 38.75 80.5 38.35 L81.05 38.2 Q81.6 37.25 83.0 36.65 L85.45 35.7 Q86.8 34.95 89.65 35.05 L94.0 35.3 Q93.8 35.3 93.8 35.85 93.4 36.55 91.7 36.6 L89.35 36.9 90.2 37.9 Q90.65 38.45 90.15 39.0 L89.95 39.8 89.85 40.75 Q89.25 40.65 88.45 41.25 87.6 41.9 87.05 41.85 L86.9 41.3 Q86.8 40.95 87.05 40.9 86.7 40.2 85.9 41.6 L85.1 43.35 82.95 47.05 81.55 48.95 80.25 50.9 77.65 53.85 Q76.4 55.2 75.05 55.45 L71.85 55.3 65.7 55.05 63.25 54.6 60.9 53.95 Q60.2 53.85 59.95 56.3 59.7 58.75 59.25 58.75 L59.3 63.15 59.15 67.55 58.6 71.4 58.9 72.65 Q59.05 77.5 61.4 84.85 63.9 92.7 64.25 97.0 L64.6 98.55 Q64.95 99.6 64.8 100.0 L50.2 100.0 49.95 98.05 Q49.85 95.95 49.05 92.4 L47.9 86.75 Q46.1 88.6 44.85 92.1 L43.15 98.1 42.85 100.0 29.55 100.0 Q30.2 97.6 30.0 96.7 30.25 96.9 30.15 95.35 L30.6 93.5 32.35 87.6 33.8 81.55 33.8 81.15 Q34.9 78.95 35.2 77.6 L35.15 77.05 35.2 76.85 36.8 69.65 37.0 69.15 37.0 69.0 36.9 68.55 Q37.2 67.2 36.7 63.85 L35.9 59.7 35.85 59.05 35.4 56.85 35.15 56.55 35.05 55.4 35.15 55.15 35.15 52.35 35.35 51.95 35.4 51.5 35.5 51.3 35.0 51.2 Q34.65 50.55 33.9 50.7 29.05 51.7 25.4 49.65 L25.0 49.5 24.95 49.5 23.2 48.75 23.2 48.7 Q21.4 48.0 20.3 47.2 L20.3 44.95 Q18.55 41.1 17.85 36.65 L17.0 31.3 Q16.4 28.25 15.5 26.1 14.6 23.9 13.85 23.55 13.1 23.2 11.0 23.9"/></g></defs><g><g><use transform="matrix(1.0,0.0,0.0,1.0,0.0,0.0)" xlink:href="#c1"/></g></g></svg>