<?xml version='1.0' encoding='UTF-8'?>
<svg xmlns="http://www.w3.org/2000/svg" xmlns:xlink="http://www.w3.org/1999/xlink" version="1.1" width="97px" height="97px" viewBox="1.3 0.55 97.0 97.10000000000001"><defs><g id="c1"><path fill="#ffffff" stroke="none" d="M32.85 41.85 L36.25 45.0 17.35 39.25 35.95 48.1 14.95 44.65 33.25 50.85 17.05 53.95 33.3 54.6 25.55 57.95 38.25 55.2 32.55 63.25 45.05 55.0 42.5 54.45 45.8 52.25 38.5 50.85 46.55 50.15 39.95 46.55 48.75 48.05 34.5 39.9 40.0 44.4 32.85 41.85 M20.15 34.1 L18.65 34.75 17.5 35.2 Q20.95 35.1 23.55 36.45 23.85 36.05 25.05 35.55 L26.5 34.65 24.6 34.25 22.65 34.05 23.15 34.05 20.15 34.1 M32.45 17.95 L32.2 17.65 32.05 18.8 31.9 19.95 32.05 20.8 32.25 22.1 Q32.45 22.8 33.0 22.9 L34.1 22.55 35.05 21.75 Q34.35 21.45 34.05 21.2 33.7 20.9 33.5 20.2 L32.95 19.1 32.45 17.95 M21.65 11.3 L20.55 10.45 19.75 9.5 19.3 10.15 Q19.05 10.7 19.25 10.95 L19.65 11.2 20.15 11.95 19.4 12.35 18.7 12.1 18.4 11.15 17.5 8.6 16.95 7.65 16.85 7.65 16.45 7.3 16.0 6.9 15.8 6.75 15.5 6.85 16.3 9.65 Q17.25 11.75 17.0 12.25 L15.9 10.05 Q15.05 8.25 14.7 8.45 L15.25 10.85 16.25 13.45 16.1 13.5 15.5 12.5 Q15.25 11.6 14.85 11.5 14.7 12.05 15.0 13.55 L15.2 14.75 15.55 15.9 Q15.8 16.35 16.8 17.0 L17.55 17.5 18.05 18.0 18.5 18.4 17.55 18.5 17.95 18.7 Q18.1 19.35 19.05 20.4 L20.4 22.05 Q20.7 22.6 20.2 22.5 19.85 22.4 20.25 22.9 21.05 23.8 21.45 25.3 L23.2 26.95 22.6 24.8 Q24.65 26.85 25.05 28.05 L26.0 28.65 26.0 28.35 26.7 28.5 26.35 27.3 Q26.85 27.65 27.45 27.75 28.0 28.4 28.85 28.4 L28.25 26.8 27.25 25.4 28.5 25.9 Q27.9 24.35 27.9 22.55 L27.35 21.8 26.5 21.05 25.55 20.3 24.25 18.85 23.1 17.4 Q22.35 16.45 22.55 15.8 L22.05 16.35 22.05 16.0 21.95 14.6 21.95 13.2 Q23.2 12.7 21.65 11.3 M41.6 22.1 L41.95 22.45 Q42.15 24.05 43.45 25.4 44.7 26.7 46.35 27.15 L46.35 28.4 44.85 30.35 Q44.6 30.65 44.7 30.9 L43.85 30.7 41.95 29.95 38.2 28.1 Q36.5 27.35 35.35 27.35 L34.65 27.25 34.25 26.8 32.65 25.55 33.15 26.7 31.85 26.35 32.0 26.6 31.85 26.85 Q31.9 27.15 32.25 27.45 L32.7 28.0 31.25 28.45 31.3 28.5 30.15 28.85 31.7 29.6 Q31.5 29.75 31.45 30.05 L31.3 30.5 30.4 31.1 30.65 31.15 Q30.4 31.7 29.15 32.25 L27.35 33.1 31.55 32.8 34.6 32.6 33.8 33.15 35.3 33.25 Q36.4 33.2 36.45 33.6 L36.1 33.65 38.2 33.85 40.3 34.0 Q40.75 34.55 42.05 35.15 L42.05 35.2 42.75 36.1 43.7 36.95 44.45 37.35 46.7 40.45 48.65 43.55 Q47.8 43.95 48.25 44.85 L48.45 45.25 49.5 46.15 Q51.35 47.95 50.85 50.6 L51.0 50.65 51.1 50.75 Q51.45 51.3 52.1 51.15 55.25 50.35 57.2 49.3 57.6 49.1 57.65 48.65 L57.35 47.9 57.15 47.7 Q57.7 47.45 57.6 46.95 57.55 46.45 57.1 46.2 L57.1 46.15 57.4 45.45 57.35 44.0 Q57.35 43.45 56.8 43.2 L55.85 43.3 55.7 43.2 55.8 42.8 56.25 42.05 Q56.1 37.55 54.55 31.6 L54.3 30.0 54.2 29.7 Q54.6 29.25 54.15 28.7 53.85 28.25 53.2 28.3 52.65 28.25 50.75 27.35 L50.7 27.35 50.2 26.2 Q50.9 25.75 51.25 25.0 52.05 23.45 51.7 21.45 51.85 20.0 51.45 18.9 50.75 17.0 49.0 15.9 47.1 14.7 45.3 15.35 L44.7 15.25 Q43.15 15.5 42.3 16.5 41.45 17.5 41.6 18.95 40.7 20.45 41.6 22.1 M81.95 59.9 L82.25 59.15 82.15 60.0 83.65 60.7 82.15 60.2 81.45 68.0 83.5 69.2 Q84.9 70.15 87.85 71.95 L90.0 73.55 Q91.3 74.5 92.25 74.6 L92.8 75.85 Q92.55 76.95 93.3 78.9 L94.5 81.8 Q95.2 83.85 97.05 87.55 L98.3 90.9 Q97.15 93.2 95.3 94.9 93.7 96.5 91.7 97.65 92.3 96.45 92.15 94.8 92.05 93.3 91.4 92.0 L89.85 88.45 88.3 84.9 87.8 83.15 Q87.4 81.9 87.65 81.35 87.65 80.6 87.8 80.3 L86.75 78.8 Q86.7 77.8 85.7 77.15 L83.8 76.2 81.75 75.05 79.65 74.15 78.55 73.9 69.5 76.2 76.0 72.2 70.5 71.05 75.8 70.45 68.5 65.3 78.75 68.2 77.0 64.8 79.65 66.45 81.9 60.1 65.4 54.4 69.9 60.05 62.55 54.65 65.9 66.95 61.25 61.3 61.4 62.15 56.8 77.45 56.55 95.4 25.15 96.05 48.3 92.15 40.65 90.45 42.4 87.35 43.85 82.8 Q44.5 80.35 45.4 78.15 L45.95 75.65 Q46.2 74.05 46.65 73.3 45.75 71.7 45.65 71.0 47.1 70.95 47.6 70.0 48.0 69.25 47.9 67.6 L49.05 66.7 49.75 65.45 50.8 63.95 51.95 62.45 Q53.55 60.1 55.85 57.95 55.45 58.4 55.3 60.2 L56.5 59.5 57.65 58.7 57.25 61.8 58.55 59.7 59.65 57.6 58.3 56.95 Q57.4 56.4 56.8 56.3 L57.5 55.1 Q57.1 54.9 57.1 54.15 L57.15 52.9 Q56.4 53.5 53.75 54.65 51.55 55.6 50.75 56.7 L51.65 54.8 Q52.1 53.65 52.0 52.7 51.35 53.25 50.65 53.05 50.85 52.35 50.25 51.95 49.75 51.55 49.05 51.6 L49.05 51.85 49.55 52.75 49.9 53.8 Q48.75 53.7 47.8 55.55 L46.55 58.35 44.6 61.1 42.75 63.7 41.1 65.85 Q40.15 67.05 40.05 68.1 39.65 71.55 39.05 73.45 L38.0 76.6 Q37.4 78.45 37.15 79.7 36.5 80.2 36.15 82.05 L35.65 84.7 34.15 88.7 6.15 81.95 33.05 78.8 20.05 73.45 32.4 70.8 6.65 60.95 23.05 61.2 2.9 49.45 13.9 47.8 3.05 40.45 18.05 42.15 8.4 35.15 17.25 37.2 1.3 13.95 15.8 22.8 6.5 3.5 Q10.0 1.0 14.7 0.65 L28.55 14.3 27.0 2.55 32.9 8.05 35.65 0.55 41.6 0.55 47.8 11.3 47.8 1.95 53.0 13.4 56.65 0.55 60.1 0.55 59.5 24.55 61.15 20.3 60.4 25.05 60.45 25.05 60.4 25.1 60.3 27.05 68.0 21.8 62.0 28.45 67.15 26.8 64.25 29.05 67.25 30.05 62.3 31.8 67.55 32.05 62.5 33.15 68.0 36.3 60.75 34.9 62.75 38.9 59.2 35.95 58.95 46.15 62.55 44.9 60.5 46.95 76.8 47.2 63.4 48.55 83.0 55.15 64.4 51.3 81.95 59.9 M93.55 7.9 L93.5 9.2 93.35 10.45 93.85 10.7 94.8 9.85 95.3 9.7 95.8 10.15 94.95 11.25 94.5 12.2 94.85 12.45 95.45 12.1 95.7 12.7 94.85 13.45 94.25 13.75 93.8 14.1 93.65 14.55 93.5 14.95 92.45 15.5 92.35 16.35 Q92.9 16.45 93.0 16.65 L92.9 17.5 92.2 19.85 91.15 21.8 Q90.35 23.1 90.1 23.7 88.2 28.2 87.55 31.1 L86.75 33.8 84.6 33.75 82.45 33.7 78.55 34.25 77.55 34.45 Q77.05 34.6 76.65 34.95 L75.3 36.65 73.85 38.85 72.95 40.3 73.8 37.45 74.45 34.55 72.9 36.0 71.15 37.05 72.85 35.05 Q73.75 33.9 74.1 32.85 L72.75 33.75 73.35 33.1 74.0 32.45 71.85 31.65 69.7 30.8 71.7 30.35 67.3 23.0 70.55 25.9 74.4 28.2 77.1 27.85 79.9 27.3 81.1 27.2 82.2 26.95 83.5 27.25 Q83.4 26.5 82.8 25.45 83.4 25.0 84.05 25.1 L84.8 23.35 85.35 21.5 86.55 18.05 87.2 16.25 Q87.75 14.85 88.1 14.75 L88.9 15.0 88.9 14.25 88.7 13.55 87.85 12.05 86.65 10.8 Q86.55 10.55 86.6 10.1 L86.55 9.4 86.95 9.1 Q87.75 10.85 88.15 11.1 88.65 11.4 89.2 11.35 L89.9 10.7 Q90.1 9.95 89.75 8.65 L89.25 6.55 89.6 6.25 Q90.25 6.5 90.65 7.7 91.1 9.0 91.5 9.3 92.0 8.7 92.3 7.35 92.65 5.85 93.0 5.35 93.65 5.45 93.7 6.4 L93.55 7.9"/></g></defs><g><g><use transform="matrix(1.0,0.0,0.0,1.0,0.0,0.0)" xlink:href="#c1"/></g></g></svg>