<?xml version='1.0' encoding='UTF-8'?>
<svg xmlns="http://www.w3.org/2000/svg" xmlns:xlink="http://www.w3.org/1999/xlink" version="1.1" width="59px" height="94px" viewBox="18.95 2.4 58.95 93.85"><defs><g id="c1"><path fill="#ffffff" stroke="none" d="M51.95 78.7 Q51.9 77.25 50.5 74.7 49.05 72.2 48.25 72.25 47.45 72.35 46.8 73.3 46.1 74.3 45.25 76.75 44.55 78.85 44.8 80.7 44.95 81.65 45.25 82.15 45.7 82.9 46.15 82.75 L46.8 82.05 47.6 79.0 Q48.15 76.4 48.45 76.4 49.0 76.4 49.0 82.6 49.0 83.75 49.7 84.05 L51.1 83.95 Q52.2 83.5 51.95 78.7 M44.4 69.55 L43.1 68.2 Q41.4 66.75 39.5 66.1 L34.25 64.45 Q30.95 63.8 29.55 65.35 27.95 67.1 28.45 69.65 28.95 72.1 31.0 73.1 L35.05 75.1 Q37.35 76.0 38.95 75.4 40.8 74.75 42.35 73.05 43.9 71.4 44.4 69.55 M68.25 68.9 Q68.15 66.8 65.7 65.75 63.5 64.8 60.7 65.15 58.55 65.45 55.75 67.75 L53.4 69.95 Q52.7 71.0 53.6 72.35 L54.9 73.5 Q56.2 74.55 57.35 75.05 58.6 75.6 61.7 75.6 L65.6 75.05 Q66.6 74.45 67.45 72.8 68.4 70.9 68.25 68.9 M43.7 12.6 L42.8 16.7 Q42.2 21.25 43.6 23.55 45.35 26.45 47.5 32.1 48.45 34.6 51.35 35.7 53.75 36.65 54.3 35.0 54.8 32.1 55.65 29.95 L58.4 23.8 59.8 20.9 59.3 24.4 Q58.85 28.4 59.3 31.0 59.7 33.65 61.35 37.35 L63.4 41.7 63.85 43.2 Q63.9 43.4 64.1 43.35 64.35 43.3 63.95 41.1 L63.3 37.7 62.5 33.95 Q61.95 30.8 62.15 27.65 62.35 23.0 64.2 19.4 L65.95 16.7 65.1 19.2 Q64.3 22.4 64.6 26.1 64.8 28.4 66.9 34.25 68.85 39.65 68.8 44.35 L68.65 48.9 Q70.0 51.3 70.85 53.6 L70.65 51.4 70.2 47.1 Q70.1 45.45 70.45 42.3 70.75 39.45 71.8 38.3 L72.8 37.7 71.95 40.1 Q71.25 43.05 72.05 46.0 L73.45 49.25 Q74.4 51.5 74.6 54.05 75.15 61.75 73.3 66.9 L72.3 69.65 72.4 73.1 73.1 71.6 75.3 66.35 Q76.6 62.9 76.55 60.7 L76.65 55.5 76.85 52.85 77.45 56.75 Q77.9 61.15 77.45 63.85 76.6 68.3 73.15 75.1 73.5 76.4 73.15 77.45 72.75 78.6 71.6 79.25 L70.3 80.0 69.6 81.45 Q68.95 82.55 68.1 82.8 L65.25 82.6 Q63.4 82.35 63.1 83.2 L62.7 85.2 62.05 87.6 Q61.75 88.1 61.35 87.6 L61.75 91.15 Q61.05 91.55 60.3 91.9 59.85 92.1 59.45 90.8 59.7 91.85 59.25 92.3 L58.15 92.95 Q57.45 93.15 57.15 92.95 L56.75 92.35 Q57.05 93.7 56.6 94.1 L54.45 94.4 54.1 95.0 Q53.9 95.45 52.15 95.55 51.9 95.65 51.2 94.7 L51.25 95.15 50.9 95.85 49.4 96.25 48.15 96.2 48.05 94.7 47.85 95.2 46.9 95.95 44.9 96.05 44.5 94.7 43.05 95.05 42.05 95.0 41.35 94.6 41.35 92.95 41.1 93.65 40.35 94.3 Q39.8 94.3 38.75 93.55 L38.95 92.3 38.75 92.7 Q38.5 93.15 38.05 93.25 37.4 93.45 35.5 92.3 L35.95 90.75 Q35.4 91.55 35.1 91.25 34.8 90.95 34.7 88.65 L34.7 86.05 Q35.0 84.6 34.25 83.65 L32.75 81.4 Q31.55 79.85 30.0 79.85 L26.95 80.0 24.75 79.75 Q21.45 78.15 21.85 75.05 22.1 73.25 22.6 72.95 L23.5 72.85 23.15 69.75 23.1 69.65 21.4 66.75 Q19.65 63.3 19.3 60.4 18.95 57.55 19.15 53.4 L19.4 49.85 20.6 52.5 Q22.15 55.35 23.75 56.5 L24.0 55.95 Q26.85 49.25 29.65 46.4 L29.4 44.95 Q28.4 39.95 30.2 35.7 L32.9 31.2 Q33.55 30.15 34.7 29.0 L35.75 28.05 34.1 33.55 Q32.65 39.75 33.7 43.5 L34.5 43.1 Q37.25 40.65 38.5 37.25 40.5 31.9 37.9 25.8 36.4 22.25 39.9 17.1 L43.7 12.6"/><path fill="#ffffff" stroke="none" d="M55.55 13.15 Q54.8 15.15 53.55 17.15 L50.55 21.3 Q49.2 23.05 49.35 25.7 L49.45 26.75 49.0 26.2 Q48.05 24.6 48.4 20.75 48.75 16.95 50.05 14.45 53.15 8.65 53.7 6.4 53.9 5.6 53.75 3.9 L53.6 2.4 Q55.5 4.2 56.0 7.65 56.45 10.85 55.55 13.15"/></g></defs><g><g><use transform="matrix(1.0,0.0,0.0,1.0,0.0,0.0)" xlink:href="#c1"/></g></g></svg>