<?xml version='1.0' encoding='UTF-8'?>
<svg xmlns="http://www.w3.org/2000/svg" xmlns:xlink="http://www.w3.org/1999/xlink" version="1.1" width="84px" height="99px" viewBox="7.85 0.4 84.45 99.19999999999999"><defs><g id="c1"><path fill="#ffffff" stroke="none" d="M52.35 16.85 Q51.65 15.25 51.45 12.15 L51.05 8.3 51.15 11.95 50.85 16.5 Q50.85 19.1 50.3 21.0 50.0 22.1 50.2 23.05 L50.7 25.1 51.45 25.55 Q51.95 25.7 52.5 26.55 L53.35 27.9 53.2 25.6 53.65 26.15 Q54.15 21.05 52.35 16.85 M32.0 38.8 Q31.9 38.35 31.05 37.75 L28.85 35.95 Q27.95 34.95 27.45 33.35 26.9 34.0 27.55 36.1 L28.35 39.0 27.95 39.05 27.85 39.35 28.9 40.15 Q29.5 40.7 29.55 41.25 L29.7 41.75 30.5 42.8 31.45 43.65 31.8 44.3 32.65 43.6 32.5 41.95 32.05 40.3 32.0 38.8 M36.05 6.45 Q36.7 4.25 36.8 0.4 L57.7 0.4 Q57.95 4.05 59.2 6.55 60.85 9.8 63.6 9.35 64.55 8.05 64.8 5.2 L65.0 0.4 73.75 0.4 73.35 4.4 Q73.1 9.05 76.15 10.75 79.2 12.45 80.6 7.55 80.4 8.3 80.45 11.55 80.45 14.35 79.4 15.15 L79.1 17.4 Q78.9 18.75 79.05 19.7 80.75 20.2 83.05 22.15 85.2 23.9 86.25 25.5 87.6 27.45 86.9 29.65 L85.3 33.7 Q84.2 34.15 83.5 35.2 82.8 36.2 82.75 37.35 91.1 34.5 90.65 25.2 91.75 27.8 91.1 32.9 90.25 39.45 90.3 40.7 89.1 41.65 86.95 44.35 81.0 46.9 77.9 51.1 74.4 55.85 74.75 62.35 76.95 62.8 78.65 61.35 L81.3 58.45 Q80.8 59.1 80.15 62.05 79.55 64.55 78.4 65.15 L75.7 69.75 Q74.15 72.4 75.75 75.0 77.7 78.1 80.8 76.9 83.05 76.1 85.3 73.4 88.0 70.3 88.95 62.65 90.1 53.95 91.7 50.85 92.3 52.85 91.9 56.8 L91.35 63.1 91.55 69.6 91.7 76.1 Q91.65 81.05 91.4 81.95 90.7 84.85 87.6 86.0 85.6 86.7 81.4 86.8 L75.05 87.15 Q74.3 89.4 72.75 91.65 71.0 94.15 69.35 95.15 74.55 98.05 80.4 93.2 78.6 96.45 74.8 99.6 L60.3 99.6 Q60.65 95.3 59.9 88.15 60.3 87.1 61.35 86.95 L61.8 85.7 61.8 84.75 61.8 83.8 62.15 83.05 62.5 82.35 Q63.0 80.9 62.4 79.05 L61.65 77.3 Q61.3 76.3 61.65 75.4 61.9 74.7 62.65 74.3 L64.0 73.45 Q65.15 72.4 65.5 70.55 L65.8 67.0 66.35 63.5 67.0 61.9 67.4 58.85 67.4 56.0 67.05 59.85 66.35 63.5 Q65.5 64.5 63.3 64.25 L63.25 63.6 Q62.9 65.95 61.25 65.75 L61.4 67.85 Q61.25 69.15 60.3 69.5 L59.15 69.55 59.1 68.7 58.1 64.25 Q57.35 61.4 57.25 59.75 57.05 56.8 57.35 54.05 57.35 51.4 56.7 49.0 56.3 47.7 57.5 47.15 58.7 46.65 59.35 47.7 L60.6 45.9 61.9 44.3 61.7 46.15 61.95 46.65 62.25 47.3 62.25 49.2 Q63.35 50.05 63.05 52.55 L62.75 54.95 63.25 52.8 64.0 51.25 Q64.4 50.35 64.3 49.4 L64.0 47.65 64.0 45.85 64.0 42.7 64.75 42.45 Q64.65 39.95 63.9 37.9 63.4 36.5 64.8 36.05 66.25 35.65 66.75 37.05 L67.15 38.25 68.6 37.35 Q69.2 36.65 70.2 34.3 71.3 31.75 72.0 30.7 72.8 29.55 73.95 28.5 L74.5 28.25 Q74.85 28.2 76.45 29.0 77.65 29.6 78.2 28.55 78.6 27.75 77.85 26.6 77.0 25.3 77.15 24.55 L77.95 22.55 Q78.1 21.85 76.45 21.4 L76.15 19.3 Q76.05 17.9 75.6 17.3 76.15 21.75 73.95 22.1 L73.6 23.9 73.65 23.55 Q72.75 24.95 71.7 25.1 71.4 27.3 70.4 29.0 L70.1 28.85 70.2 26.95 70.2 25.1 69.65 25.05 69.75 23.75 69.95 22.55 70.15 22.0 70.05 21.4 Q69.95 21.2 69.5 21.25 L68.9 21.1 68.75 20.75 68.6 16.5 68.55 18.4 68.75 20.75 Q68.85 24.3 68.1 26.15 L67.4 28.0 Q67.3 28.75 68.05 29.8 L68.85 31.1 68.2 31.7 68.3 32.85 68.25 33.25 68.15 33.35 68.25 33.4 Q68.0 34.2 67.15 34.35 66.35 34.55 65.8 33.95 L63.7 36.35 63.2 36.3 63.3 37.15 62.85 38.25 Q62.4 38.75 61.8 38.75 L61.65 38.7 Q61.4 38.4 61.2 37.5 60.6 37.3 60.6 36.8 L60.65 35.75 Q60.95 34.8 60.75 34.45 L60.3 34.1 59.85 34.0 59.55 33.1 59.45 30.35 59.3 27.8 Q59.15 31.6 59.55 33.1 59.45 34.8 58.95 35.65 L58.25 36.2 57.7 36.7 Q57.55 37.2 57.75 37.35 L58.15 37.75 58.4 38.75 56.3 39.65 Q55.7 39.0 54.55 38.6 L52.3 38.0 Q52.2 36.7 52.9 35.8 L54.15 34.35 Q54.85 30.2 52.8 27.8 50.6 25.25 47.1 27.4 45.9 29.75 46.1 32.8 46.25 35.45 47.4 38.0 L45.65 39.05 44.0 40.3 43.05 39.7 42.9 38.75 42.15 37.8 Q41.8 37.35 41.7 36.5 41.4 33.8 41.55 31.9 41.65 30.7 41.0 29.65 40.25 28.45 40.2 27.6 40.05 24.45 39.3 21.8 L39.55 24.8 39.6 27.8 Q39.3 30.6 39.15 33.45 38.15 33.55 38.0 34.7 L37.9 36.75 37.25 36.7 37.25 37.15 Q37.25 38.1 36.5 38.5 35.85 38.85 35.1 38.5 L34.6 36.5 34.5 35.05 34.25 33.55 33.55 32.4 32.95 31.1 Q32.85 29.9 34.0 28.45 33.3 28.2 33.0 26.25 L32.55 23.4 Q32.4 24.1 32.8 26.25 32.9 28.05 31.5 28.1 L30.95 31.35 30.5 30.85 30.45 30.0 30.0 28.8 29.55 27.6 29.6 26.25 29.7 24.8 Q28.55 24.6 28.3 24.15 28.15 23.85 28.25 22.55 28.45 19.8 28.2 18.75 L27.65 18.7 Q27.25 18.1 27.15 16.15 27.1 14.3 26.65 13.8 26.3 15.0 26.3 16.4 L26.3 19.0 25.15 19.85 25.1 21.8 Q25.0 23.0 24.6 23.55 L23.35 24.3 21.9 24.95 Q21.75 25.75 22.3 27.2 22.8 28.65 23.45 29.25 23.9 29.65 24.65 29.75 L25.85 30.05 26.75 30.95 26.6 31.2 27.0 31.6 26.9 31.6 27.05 31.65 31.9 36.4 Q34.4 39.35 35.4 42.6 L36.55 43.25 36.8 43.95 36.9 45.45 Q36.9 46.45 37.05 46.85 L38.0 48.25 38.2 50.8 Q39.25 49.7 38.0 48.25 L38.0 46.7 Q39.05 45.9 38.25 42.9 L37.75 40.15 Q38.0 39.05 39.15 38.95 40.35 38.8 40.6 40.05 41.75 45.55 41.9 47.9 L43.0 49.75 43.2 48.3 Q43.45 46.8 44.9 47.25 46.3 47.65 46.05 49.15 L45.4 54.1 Q45.05 57.05 44.4 58.95 44.25 63.15 43.1 72.6 42.5 72.35 42.55 71.45 41.2 71.0 40.8 73.0 38.4 73.6 39.4 68.95 40.9 63.85 40.8 63.2 39.15 62.55 38.7 60.4 38.25 58.25 39.4 56.65 36.15 58.15 37.35 67.35 37.7 69.65 36.5 72.55 L35.9 73.6 35.35 74.6 Q35.2 75.1 35.55 75.7 L36.1 76.8 36.85 77.6 37.7 78.3 39.35 78.7 Q40.4 78.85 40.9 79.25 42.1 80.1 42.55 81.65 L42.85 84.6 43.0 84.2 Q43.35 87.15 44.65 92.45 45.9 97.5 46.1 99.6 L37.55 99.6 Q37.65 97.45 36.95 96.5 36.1 95.3 33.5 94.85 L29.65 94.1 Q26.9 93.0 23.65 90.4 19.8 87.4 19.15 85.05 L23.25 87.8 Q25.9 89.65 27.95 88.0 27.6 86.4 25.15 83.3 22.7 80.25 22.3 78.15 20.3 77.25 16.45 76.1 13.15 74.9 11.35 72.85 9.2 70.35 8.45 67.3 7.85 64.75 8.05 60.8 L10.0 58.7 Q9.55 62.3 11.25 64.85 L15.05 69.35 Q19.25 70.4 23.0 68.25 27.2 65.85 24.75 61.75 24.05 60.6 21.95 58.75 19.9 56.95 19.25 55.75 18.3 53.95 16.45 47.4 18.5 47.5 20.1 51.4 21.65 55.05 24.65 54.7 24.95 52.3 24.15 48.75 23.3 45.1 21.95 43.4 L18.05 39.45 Q15.75 37.25 14.75 35.05 11.55 27.8 12.7 22.75 13.15 20.65 15.6 17.65 L19.4 13.3 Q18.75 14.2 18.9 16.3 19.1 18.85 20.65 19.1 22.2 19.3 22.95 16.95 L23.6 13.35 Q24.2 10.2 23.75 6.75 23.4 4.15 22.25 0.4 L24.45 0.4 Q25.6 1.5 26.8 3.75 L28.6 7.15 Q30.35 10.2 32.6 10.1 34.9 10.05 36.05 6.45"/><path fill="#ffffff" stroke="none" d="M49.65 84.75 Q49.3 76.0 51.4 70.65 52.3 75.45 53.45 85.4 54.6 95.6 55.3 99.6 L50.55 99.6 Q49.85 89.7 49.65 84.75"/></g></defs><g><g><use transform="matrix(1.0,0.0,0.0,1.0,0.0,0.0)" xlink:href="#c1"/></g></g></svg>