<?xml version='1.0' encoding='UTF-8'?>
<svg xmlns="http://www.w3.org/2000/svg" xmlns:xlink="http://www.w3.org/1999/xlink" version="1.1" width="100px" height="95px" viewBox="0.3 4.8 100.45 94.55"><defs><g id="c1"><path fill="#ffffff" stroke="none" d="M37.75 36.65 L39.15 35.75 Q39.55 35.2 38.85 35.0 37.55 34.65 32.95 35.95 L28.6 37.35 Q28.2 38.15 27.5 38.55 27.1 38.8 27.4 39.95 L27.8 41.0 29.45 41.55 Q32.3 39.8 32.7 39.1 32.95 38.65 34.95 37.75 L37.75 36.65 M43.35 42.65 L43.55 42.8 43.25 43.5 41.85 44.3 Q41.85 45.25 40.75 45.65 39.65 46.05 34.05 45.55 L33.85 45.85 Q33.75 46.35 34.05 47.3 34.6 48.8 34.5 49.65 L38.45 54.25 39.65 53.15 Q41.0 52.0 41.6 51.8 L42.35 51.3 42.8 50.05 Q43.15 49.25 44.45 47.6 L45.7 46.05 48.0 40.45 44.6 40.2 Q45.3 42.0 44.6 42.25 L43.35 42.65 M55.8 27.75 Q56.2 27.55 56.1 26.9 56.0 26.25 55.65 26.25 L45.0 26.25 Q43.95 26.4 44.6 28.15 L48.05 28.35 52.25 27.9 54.25 27.8 55.8 27.75 M100.75 48.45 L100.75 55.2 80.5 55.2 Q76.05 54.7 71.65 52.7 62.75 48.7 62.75 41.2 L63.75 42.35 66.9 44.85 Q72.65 48.45 80.75 48.45 L100.75 48.45 M95.15 31.05 L95.3 32.95 79.85 32.95 79.7 33.8 78.75 34.05 78.05 32.8 76.3 33.35 75.6 34.3 73.7 34.2 73.7 35.15 58.4 35.0 58.35 36.1 Q58.3 37.35 58.4 38.3 58.5 39.5 58.2 41.0 57.85 42.6 57.3 43.05 56.5 43.75 55.25 43.75 L56.5 48.25 51.4 49.9 51.15 51.15 50.6 53.2 49.7 57.05 Q48.85 60.55 47.85 62.2 46.75 64.1 44.2 66.25 41.9 68.2 41.05 68.35 L38.05 67.8 34.9 66.7 Q34.1 66.3 32.45 64.9 L30.25 62.75 26.75 59.8 23.8 57.55 22.25 62.45 Q20.65 67.6 20.4 68.9 L18.9 74.9 Q17.75 79.6 18.1 80.5 18.4 81.35 18.1 82.0 17.75 82.8 17.8 83.4 18.1 85.9 17.55 88.3 17.25 89.6 17.25 90.2 17.25 90.75 17.55 91.15 L22.3 97.85 23.5 99.35 17.55 99.35 Q9.7 99.35 4.9 94.5 0.3 89.9 0.3 82.05 L0.3 27.3 5.4 25.3 8.25 25.1 10.0 24.9 10.9 23.7 12.05 22.3 Q12.8 21.6 13.1 19.8 13.45 18.05 12.9 18.05 12.45 18.05 12.1 17.75 L11.8 17.4 Q11.8 16.15 12.1 14.5 12.7 11.25 14.25 9.45 15.9 7.55 20.8 6.1 25.0 4.8 26.7 4.95 31.7 5.4 34.5 8.5 36.35 10.55 37.85 13.55 39.25 16.4 39.25 17.8 L38.7 23.8 36.1 24.5 35.15 26.15 35.45 28.6 Q35.15 29.25 34.6 29.25 L33.0 29.25 37.75 29.95 39.55 28.05 40.1 26.3 Q40.75 24.5 41.2 24.5 L56.35 26.25 56.45 27.3 Q56.6 28.4 57.05 28.85 57.7 29.55 58.4 29.25 L58.4 28.3 73.85 28.7 73.85 29.95 74.5 30.1 78.35 25.3 79.3 25.6 79.45 31.2 95.15 31.05 M100.75 15.4 L100.75 16.7 80.75 16.7 Q72.65 16.7 66.9 20.35 64.0 22.15 62.75 23.95 62.75 16.45 71.65 12.45 76.05 10.45 80.5 9.95 L100.25 9.95 Q100.75 12.3 100.75 15.4"/></g></defs><g><g><use transform="matrix(1.0,0.0,0.0,1.0,0.0,0.0)" xlink:href="#c1"/></g></g></svg>