<?xml version='1.0' encoding='UTF-8'?>
<svg xmlns="http://www.w3.org/2000/svg" xmlns:xlink="http://www.w3.org/1999/xlink" version="1.1" width="100px" height="100px" viewBox="0.3 0.2 99.85000000000001 99.64999999999999"><defs><g id="c1"><path fill="#ffffff" stroke="none" d="M40.15 13.15 Q39.6 13.65 39.6 14.45 39.55 15.2 40.1 15.75 40.65 16.3 41.45 16.3 42.25 16.3 42.85 15.75 43.4 15.25 43.4 14.45 43.45 13.7 42.9 13.15 42.35 12.6 41.55 12.6 40.75 12.6 40.15 13.15 M80.5 65.05 L76.95 69.6 72.7 74.7 Q69.9 77.9 67.2 79.05 62.75 80.95 54.9 83.5 61.5 87.6 63.4 87.9 64.25 88.05 64.9 86.9 65.8 85.45 67.8 84.75 70.2 83.95 74.4 80.05 L79.8 74.65 Q83.6 70.85 83.6 69.6 83.6 64.25 82.65 63.3 82.1 62.75 80.5 65.05 M48.3 19.9 Q48.35 19.15 47.8 18.6 47.25 18.05 46.45 18.05 45.65 18.0 45.1 18.55 44.5 19.05 44.5 19.85 44.45 20.65 45.0 21.2 45.55 21.75 46.35 21.75 47.15 21.75 47.75 21.2 48.3 20.7 48.3 19.9 M51.9 0.2 L59.95 8.1 Q60.65 8.75 61.7 11.4 L53.2 20.35 62.05 30.75 82.65 51.6 84.05 53.0 84.45 52.15 Q84.75 51.6 85.5 51.3 86.45 50.95 89.1 51.7 L91.5 52.55 93.7 56.65 97.15 61.7 98.75 66.75 100.15 68.05 100.15 77.75 97.25 74.85 97.55 74.7 Q98.2 74.3 98.65 73.3 99.05 72.3 98.55 72.35 L98.3 73.35 97.45 74.35 97.2 74.5 Q94.8 75.85 90.85 77.2 89.65 77.6 88.55 79.0 88.0 79.7 87.7 80.35 L82.35 90.1 79.9 94.45 Q78.4 96.85 76.95 98.3 L75.5 99.85 17.05 99.85 Q9.15 99.85 4.35 95.05 L4.05 94.7 Q3.25 92.05 2.7 88.3 2.05 84.2 2.2 82.25 2.35 80.7 3.2 77.5 3.8 75.15 3.45 74.65 3.05 74.0 4.9 72.55 6.55 71.2 7.55 70.85 L11.35 69.9 7.55 65.5 6.7 66.2 Q5.4 66.25 3.45 63.3 2.3 61.55 3.25 60.2 L4.4 59.2 Q0.85 54.25 0.6 51.95 0.3 48.3 0.5 47.4 1.05 44.15 4.4 40.9 5.7 39.6 8.5 38.9 L12.8 38.35 Q14.65 38.35 18.35 40.7 22.4 43.25 23.95 45.95 24.95 47.65 26.3 52.35 L27.75 57.95 Q28.05 59.4 27.75 61.8 27.45 64.5 26.55 64.95 L24.55 66.05 Q23.75 66.85 25.8 67.45 L31.55 67.9 35.65 67.4 38.35 67.45 42.25 67.7 48.25 67.4 Q52.6 66.95 54.25 66.15 L57.1 64.6 60.25 63.0 Q61.7 62.35 65.95 61.25 L71.6 59.5 Q74.2 58.4 78.0 55.4 L57.8 35.5 47.25 26.7 46.35 26.6 Q38.8 33.7 37.9 33.8 37.0 33.85 35.05 32.6 L26.7 24.0 35.65 14.2 35.2 13.6 35.2 12.3 38.95 8.65 40.45 8.5 41.25 8.95 51.9 0.2"/></g></defs><g><g><use transform="matrix(1.0,0.0,0.0,1.0,0.0,0.0)" xlink:href="#c1"/></g></g></svg>