<?xml version='1.0' encoding='UTF-8'?>
<svg xmlns="http://www.w3.org/2000/svg" xmlns:xlink="http://www.w3.org/1999/xlink" version="1.1" width="97px" height="94px" viewBox="0.0 2.95 96.9 93.89999999999999"><defs><g id="c1"><path fill="#ffffff" stroke="none" d="M29.1 75.05 L29.3 76.85 29.2 77.5 29.3 77.8 29.6 77.25 Q29.65 78.0 30.05 79.15 L30.65 81.0 31.0 83.05 Q31.4 85.0 31.95 86.0 32.6 87.2 33.25 87.65 34.0 88.2 35.2 88.05 39.15 87.55 42.05 86.2 43.85 85.35 46.65 83.1 L39.4 83.8 Q35.2 83.8 33.5 82.95 32.75 82.55 32.05 81.3 L31.05 79.2 29.1 75.05 M50.7 62.7 Q49.2 63.25 48.35 63.85 L45.1 66.15 41.8 67.9 47.05 66.15 49.7 65.55 48.75 66.75 47.8 68.35 46.2 70.9 45.4 71.8 Q44.9 72.45 44.9 72.8 L46.95 71.2 48.95 69.6 Q50.1 68.9 51.25 67.75 L53.3 65.65 Q55.25 64.1 55.8 63.05 L57.15 61.25 59.55 58.65 58.65 58.95 Q58.15 59.15 57.9 58.95 L58.0 59.05 56.6 60.2 54.85 61.0 53.15 61.75 50.7 62.7 M10.6 68.4 L9.1 65.9 Q8.55 65.85 5.55 64.25 L6.8 66.35 Q7.45 67.6 7.55 68.6 7.75 70.8 9.4 72.95 L12.75 76.5 13.95 77.55 Q14.5 77.9 15.35 78.1 L18.75 79.15 23.75 80.25 25.75 80.85 27.75 81.1 26.05 79.55 24.2 78.1 19.35 73.75 Q19.9 74.8 21.35 76.25 L23.55 78.6 20.0 77.05 Q17.85 76.05 16.6 75.15 14.1 73.3 12.25 70.8 L10.6 68.4 M14.65 55.85 L14.45 54.8 Q14.45 54.25 14.85 53.85 15.55 53.05 17.15 52.35 L19.65 51.2 18.75 51.3 13.95 51.85 9.55 51.9 7.15 51.85 4.8 51.5 10.55 56.5 Q11.9 57.75 13.5 59.75 L15.95 62.5 17.7 64.45 Q17.45 62.85 16.25 60.15 15.0 57.2 14.65 55.85 M49.05 19.85 Q48.85 20.55 49.25 21.15 49.65 21.75 50.3 21.9 L51.6 21.7 Q52.2 21.35 52.4 20.65 52.55 19.95 52.2 19.35 51.85 18.75 51.15 18.6 L49.85 18.8 Q49.2 19.15 49.05 19.85 M48.1 13.6 Q48.3 12.9 47.9 12.3 L46.85 11.5 45.55 11.7 Q44.9 12.05 44.75 12.75 44.55 13.45 44.95 14.05 45.3 14.7 46.0 14.85 L47.3 14.65 Q47.95 14.3 48.1 13.6 M64.05 14.2 Q64.3 15.0 64.15 15.8 L55.15 22.5 59.55 29.85 64.55 30.1 Q67.5 30.55 69.1 35.4 L70.7 38.85 Q71.8 41.0 72.0 42.4 L72.1 44.5 Q72.1 45.8 72.25 46.55 L72.7 48.7 72.85 50.85 72.6 51.8 96.9 92.7 95.2 94.7 92.55 96.85 68.95 56.9 68.5 57.35 Q66.9 58.8 65.85 61.5 L64.8 63.45 63.7 65.35 62.8 67.4 61.8 69.4 59.0 73.1 56.35 76.65 54.6 78.35 52.95 80.2 51.1 82.1 48.95 83.7 44.3 87.15 39.75 90.75 38.4 92.25 Q37.5 93.25 36.85 93.35 36.15 93.5 34.4 92.65 L32.1 91.4 26.25 88.15 20.6 84.55 Q9.4 77.45 0.35 66.6 L0.0 66.2 0.0 61.6 3.25 64.9 Q2.8 64.4 2.15 62.5 L1.4 60.9 0.8 59.3 6.05 61.35 11.3 63.25 5.7 58.45 0.15 53.65 0.0 53.55 0.0 41.95 0.85 42.3 Q2.7 43.5 3.5 43.6 L5.5 43.15 7.4 42.3 9.5 41.85 Q13.15 41.5 16.15 43.05 L13.9 41.6 10.7 39.95 8.8 39.25 Q7.6 38.85 7.15 38.25 L6.0 36.5 5.5 35.3 Q5.05 34.55 3.5 33.85 3.85 34.55 3.9 36.05 L4.5 37.55 Q4.8 38.5 4.15 38.9 L0.0 39.4 0.0 30.4 Q3.7 30.2 6.7 31.25 L10.55 33.0 Q14.45 34.75 17.05 37.0 19.8 39.35 21.05 42.85 22.4 46.45 21.6 49.9 L28.0 51.6 Q31.75 53.0 33.15 55.3 33.95 56.7 34.55 58.85 35.2 61.2 35.05 62.6 L34.75 64.5 34.7 66.35 Q34.95 67.15 35.3 67.35 L36.45 67.25 37.85 66.35 39.2 65.35 40.5 64.3 Q41.9 63.15 44.2 62.55 L46.1 62.25 48.0 61.85 49.35 61.0 Q50.35 60.25 50.7 60.05 L54.7 57.7 58.1 55.6 Q60.2 54.15 60.85 52.8 61.4 51.65 60.2 49.7 L58.3 46.65 57.9 45.05 57.45 43.6 57.25 43.35 57.25 44.45 54.05 44.45 52.4 40.85 Q51.65 39.0 51.8 36.75 L52.55 36.5 Q51.95 34.95 52.15 34.25 L52.6 33.55 53.15 32.95 Q53.55 32.6 53.9 32.55 L54.5 32.45 50.4 25.45 40.35 30.05 39.0 29.2 Q31.35 19.4 32.25 18.55 33.05 17.75 41.55 11.6 L40.85 10.4 Q40.7 10.15 41.7 9.6 L45.5 7.3 Q46.45 6.8 46.6 7.0 L47.3 8.15 Q56.3 3.7 57.85 3.2 58.6 2.95 61.25 8.25 63.5 12.6 64.05 14.2"/></g></defs><g><g><use transform="matrix(1.0,0.0,0.0,1.0,0.0,0.0)" xlink:href="#c1"/></g></g></svg>