<?xml version='1.0' encoding='UTF-8'?>
<svg xmlns="http://www.w3.org/2000/svg" xmlns:xlink="http://www.w3.org/1999/xlink" version="1.1" width="95px" height="88px" viewBox="3.0 7.8 95.0 88.35000000000001"><defs><g id="c1"><path fill="#ffffff" stroke="none" d="M55.85 30.2 L51.9 30.2 51.9 26.25 47.55 26.25 47.55 30.2 43.6 30.2 43.6 34.55 47.55 34.55 47.55 38.5 51.9 38.5 51.9 34.55 55.85 34.55 55.85 30.2 M46.7 15.75 Q47.5 14.2 49.7 14.3 51.95 14.2 52.75 15.75 L53.2 17.3 Q53.45 18.45 53.3 18.8 54.15 18.75 53.65 20.35 L53.0 22.25 Q53.05 22.65 53.55 22.9 L54.0 23.65 Q54.3 24.3 55.05 24.45 L56.5 24.55 Q58.5 24.8 59.75 25.85 60.4 26.35 60.65 27.85 L61.0 29.05 61.25 30.2 61.9 33.8 62.7 35.85 63.3 37.45 63.85 38.2 64.5 38.8 65.95 40.85 67.55 42.8 68.0 43.75 68.4 44.75 68.75 45.55 69.2 46.2 70.05 46.55 70.9 46.65 Q71.55 46.8 72.35 47.45 73.25 48.2 72.2 48.35 L71.65 48.5 Q71.5 48.6 71.6 49.05 L72.25 50.05 73.15 50.8 74.05 51.5 Q74.6 52.05 73.7 52.05 L72.7 51.95 72.15 52.1 71.6 52.0 71.15 52.2 70.65 52.35 70.2 52.15 69.75 51.85 68.65 51.55 68.0 50.45 67.35 49.6 67.05 49.05 66.55 48.95 66.0 48.9 65.7 48.4 64.1 46.7 62.7 45.1 61.2 43.5 58.55 40.15 57.6 38.5 56.95 38.55 Q56.5 38.95 56.6 39.5 56.95 41.0 56.5 43.5 L56.55 47.0 56.45 48.0 56.55 48.85 57.1 49.7 58.6 51.7 59.0 52.9 59.65 53.95 60.5 55.55 60.65 55.55 60.95 56.35 61.45 57.55 62.15 58.7 62.9 59.75 63.45 60.85 63.55 62.15 63.4 62.4 63.4 62.55 63.1 63.0 63.1 63.2 63.45 63.75 63.95 64.25 64.3 65.45 Q64.45 66.2 64.8 66.6 L65.45 67.85 65.95 69.25 66.35 70.85 65.65 70.85 Q65.75 71.75 66.0 72.4 66.4 73.15 66.6 74.85 66.7 75.9 67.3 77.4 L67.75 78.55 68.05 79.7 67.45 80.85 66.55 81.85 Q66.25 82.3 66.75 84.25 67.2 85.9 66.15 86.3 L64.85 86.45 63.5 86.35 Q61.9 86.35 61.85 85.1 L61.95 84.15 61.9 83.3 Q61.65 83.0 61.0 82.7 L60.05 82.2 59.25 80.5 58.6 77.9 57.6 75.35 56.8 74.3 56.55 73.1 Q56.5 71.6 56.15 70.95 L55.55 69.95 55.05 68.95 55.05 67.65 55.0 66.35 54.5 65.05 53.9 63.75 53.15 61.3 51.8 58.9 Q50.95 57.5 50.8 56.45 L50.7 55.55 50.75 55.55 50.25 54.75 49.75 54.2 49.2 54.75 Q48.7 55.3 48.55 56.05 L48.5 56.45 48.3 57.25 Q48.05 58.2 47.2 59.4 L46.2 61.3 45.45 63.75 44.3 66.35 Q44.2 66.8 44.25 67.65 L44.25 68.95 Q44.1 69.7 43.15 70.95 42.85 71.6 42.75 73.1 L42.5 74.3 41.7 75.35 Q40.95 76.8 40.7 77.9 L40.05 80.5 39.25 82.2 Q39.05 82.45 38.3 82.7 37.65 83.0 37.4 83.3 37.1 83.65 37.5 85.1 37.45 86.35 35.8 86.35 L34.45 86.45 33.15 86.3 Q32.1 85.9 32.6 84.25 33.1 82.3 32.8 81.85 L31.85 80.85 Q31.25 80.2 31.25 79.7 L31.55 78.55 32.05 77.4 32.7 74.85 Q32.9 73.3 33.3 72.4 L33.7 70.85 33.1 70.85 33.5 69.25 34.0 67.85 Q34.3 67.0 34.65 66.6 L35.15 65.45 35.5 64.25 35.95 63.75 36.35 63.2 35.95 62.55 Q35.75 62.0 35.9 61.25 L35.9 61.2 36.0 60.85 Q36.1 60.3 37.15 58.95 L37.15 58.9 38.35 56.35 38.65 55.55 38.95 55.55 39.8 53.95 40.45 52.9 Q40.6 52.1 40.85 51.7 L42.35 49.7 42.9 48.85 Q43.1 48.55 42.9 48.0 L42.6 47.1 42.7 46.2 42.8 45.25 42.7 42.4 Q42.6 40.6 42.85 39.5 42.95 38.95 42.5 38.55 L41.85 38.5 40.9 40.15 38.25 43.5 36.75 45.1 36.1 45.95 35.4 46.7 Q34.05 47.8 33.75 48.4 L33.5 48.9 32.9 48.95 32.4 49.05 32.1 49.6 31.45 50.45 30.85 51.55 29.7 51.85 29.25 52.15 28.8 52.35 28.3 52.2 27.85 52.0 27.3 52.1 26.75 51.95 25.75 52.05 Q24.85 52.05 25.4 51.5 L26.3 50.8 27.2 50.05 27.85 49.05 27.8 48.5 27.25 48.35 Q25.65 48.1 28.55 46.65 L29.45 46.55 30.25 46.2 30.75 45.55 31.1 44.75 31.9 42.8 33.5 40.85 Q34.4 39.4 35.0 38.8 L35.65 38.2 36.15 37.45 36.75 35.85 37.55 33.8 38.2 30.2 38.8 27.85 Q39.05 26.35 39.7 25.85 40.95 24.8 42.95 24.55 L44.4 24.45 45.45 23.65 45.9 22.9 46.45 22.25 45.8 20.35 Q45.35 18.75 46.15 18.8 46.0 18.45 46.25 17.3 L46.7 15.75"/><path fill="#ffffff" fill-opacity="0.8" d="M98.0 76.15 Q98.0 84.7 84.4 90.45 70.8 96.15 50.5 96.15 30.2 96.15 16.6 90.45 3.0 84.7 3.0 76.15 3.0 69.65 11.25 64.6 19.3 59.6 32.85 57.45 L30.85 62.55 Q19.9 64.4 13.7 68.35 8.0 71.95 8.0 76.15 8.0 81.8 19.85 86.3 32.5 91.15 50.5 91.15 68.5 91.15 81.15 86.3 93.0 81.8 93.0 76.15 93.0 71.9 87.1 68.25 80.7 64.3 69.5 62.45 L67.5 57.35 Q81.25 59.45 89.55 64.45 98.0 69.6 98.0 76.15 M63.85 10.75 Q64.8 15.1 67.15 16.25 70.05 17.7 71.4 20.65 72.65 23.35 72.35 26.75 71.8 25.2 70.1 22.5 L68.9 20.65 67.3 19.1 65.5 17.95 Q64.45 17.2 63.95 16.45 63.45 15.65 63.1 14.4 L62.55 12.2 Q62.3 11.05 61.05 9.8 59.9 8.15 59.0 7.8 L61.9 8.65 Q63.5 9.35 63.85 10.75 M63.3 24.35 L60.8 22.95 Q57.2 21.2 57.2 20.45 57.45 14.0 53.45 11.4 51.55 10.15 49.5 9.85 L49.3 9.85 Q47.15 10.15 45.35 11.4 41.3 14.0 41.6 20.45 41.6 21.2 38.0 22.95 36.0 23.9 35.45 24.35 33.7 25.9 33.0 29.4 L32.05 34.95 Q30.8 39.45 29.5 41.35 30.5 38.55 30.3 34.8 L29.9 30.0 Q29.9 27.65 30.3 26.9 31.2 25.05 32.85 23.65 34.05 22.6 36.25 21.3 L36.4 21.2 37.35 19.95 38.05 17.85 Q39.5 13.35 41.1 11.4 43.95 7.9 49.4 7.9 54.8 7.9 57.7 11.4 59.35 13.4 60.7 17.85 61.55 20.65 62.35 21.2 L62.55 21.3 65.95 23.65 Q67.6 25.05 68.5 26.9 68.9 27.75 68.9 30.0 L68.5 34.8 Q68.25 38.55 69.3 41.35 68.05 39.45 66.75 34.95 L65.8 29.4 Q65.1 25.9 63.3 24.35 M34.45 10.75 Q34.8 9.35 36.35 8.65 L39.3 7.8 Q38.75 8.0 38.15 8.7 L37.25 9.8 Q36.0 11.05 35.7 12.2 L35.2 14.4 34.3 16.45 32.8 17.95 31.0 19.1 Q30.15 19.65 29.4 20.65 L28.15 22.5 Q26.45 25.2 25.95 26.75 25.65 23.35 26.9 20.65 28.25 17.7 31.15 16.25 33.4 15.1 34.45 10.75"/></g></defs><g><g><use transform="matrix(1.0,0.0,0.0,1.0,0.0,0.0)" xlink:href="#c1"/></g></g></svg>