<?xml version='1.0' encoding='UTF-8'?>
<svg xmlns="http://www.w3.org/2000/svg" xmlns:xlink="http://www.w3.org/1999/xlink" version="1.1" width="72px" height="89px" viewBox="15.1 6.15 71.85000000000001 88.6"><defs><g id="c1"><path fill="#ffffff" stroke="none" d="M86.95 29.35 L86.95 54.85 63.8 54.85 63.8 70.35 Q63.85 80.2 66.65 86.95 68.9 92.3 72.3 94.75 69.35 93.7 61.05 91.55 54.0 89.75 50.4 88.1 39.25 83.05 38.3 70.35 L38.3 54.85 15.1 54.85 15.1 29.35 38.3 29.35 38.3 6.15 63.8 6.15 63.8 29.35 86.95 29.35 M81.75 36.8 L83.3 34.8 Q84.15 33.5 84.7 33.15 78.95 36.25 71.25 38.05 62.95 39.95 55.85 39.5 55.7 38.1 57.05 36.55 58.3 35.15 57.75 33.1 56.95 32.85 57.1 31.8 52.55 29.55 50.05 33.05 47.55 36.45 50.05 40.15 42.5 40.0 35.25 37.85 28.85 35.95 24.3 33.1 27.25 37.15 32.8 40.35 36.15 42.25 43.6 45.3 43.05 45.1 42.75 49.6 42.45 54.35 42.75 60.05 43.55 75.85 47.85 79.75 50.45 82.1 55.35 84.45 L64.0 88.35 Q58.0 84.5 56.35 68.55 55.65 61.9 55.8 58.95 56.0 53.25 58.35 49.95 61.05 46.15 68.0 43.25 74.55 40.95 77.65 39.4 L81.75 36.8"/></g></defs><g><g><use transform="matrix(1.0,0.0,0.0,1.0,0.0,0.0)" xlink:href="#c1"/></g></g></svg>