<?xml version='1.0' encoding='UTF-8'?>
<svg xmlns="http://www.w3.org/2000/svg" xmlns:xlink="http://www.w3.org/1999/xlink" version="1.1" width="91px" height="99px" viewBox="2.9 1.1 90.85 98.9"><defs><g id="c1"><path fill="#ffffff" fill-opacity="0.8" d="M24.55 32.35 Q26.7 32.1 27.35 35.1 27.95 35.1 28.0 35.35 L28.0 36.05 27.8 36.35 23.65 37.55 Q21.35 38.2 19.75 36.95 18.75 36.2 17.7 33.25 16.7 30.55 15.15 29.85 L11.0 29.25 Q8.75 29.0 7.85 26.75 L6.15 23.1 Q5.35 21.95 2.9 20.9 4.6 20.2 7.35 20.95 L11.55 22.5 Q12.15 24.75 14.15 25.85 15.85 26.75 18.3 26.75 21.2 26.8 22.15 28.5 L24.55 32.35"/><path fill="#ffffff" fill-opacity="0.8" d="M21.65 5.85 Q24.5 8.6 26.55 9.4 L29.65 10.1 Q31.65 10.5 32.55 11.05 34.3 12.1 34.3 16.1 34.35 20.8 35.25 22.3 35.1 22.65 35.2 22.95 L35.35 23.55 36.1 23.8 Q33.15 23.85 32.05 21.45 L30.8 16.6 Q30.25 14.15 28.3 12.6 26.9 11.5 23.9 10.3 L23.85 9.6 Q23.05 9.2 22.35 7.95 21.7 6.8 21.65 5.85"/><path fill="#ffffff" fill-opacity="0.8" d="M53.65 5.0 Q55.55 7.85 54.85 10.0 53.65 10.9 53.2 11.65 52.7 12.6 52.8 13.9 L53.3 16.15 Q53.45 17.2 52.35 17.8 L51.6 16.55 49.15 12.95 Q47.7 10.85 48.35 9.05 L50.35 5.25 Q51.2 3.35 49.9 1.1 52.15 2.7 53.65 5.0"/><path fill="#ffffff" fill-opacity="0.8" d="M68.05 18.8 Q66.6 18.75 65.7 19.35 L65.35 20.05 64.6 20.55 Q65.0 19.75 65.7 19.35 67.2 16.3 69.55 14.75 70.95 13.8 73.1 13.75 L76.85 13.55 Q78.6 13.25 79.65 12.1 L81.6 9.55 Q82.55 8.5 84.15 7.8 L87.05 6.8 Q84.85 8.05 83.45 11.6 81.85 15.65 80.9 16.6 L80.6 19.0 Q78.95 20.25 76.5 20.25 L72.1 19.55 68.05 18.8"/><path fill="#ffffff" fill-opacity="0.8" d="M76.85 33.8 Q79.45 31.3 84.6 31.05 L88.55 30.65 Q90.4 30.1 90.65 27.85 L91.1 27.75 Q90.45 25.85 91.1 24.85 91.75 23.85 93.75 23.3 93.55 23.9 93.25 31.1 93.05 36.15 90.1 37.05 88.2 37.65 86.45 37.0 85.4 36.65 83.3 35.4 80.4 33.85 76.15 35.4 L76.85 35.05 76.85 33.8"/><path fill="#ffffff" stroke="none" d="M60.85 78.0 L60.15 78.45 59.5 79.0 57.9 79.65 56.3 80.4 52.0 81.05 51.6 80.95 50.6 81.15 51.5 81.4 52.4 81.8 53.05 82.45 Q53.45 82.9 53.75 83.0 L56.05 83.2 58.45 83.1 60.65 83.15 62.75 83.45 Q63.7 83.8 64.3 84.9 64.9 86.0 64.7 86.95 L65.45 85.55 65.35 85.4 66.35 83.75 67.3 82.2 Q68.0 81.55 69.2 81.5 L71.1 81.25 69.05 79.4 Q67.85 78.35 66.7 77.85 L60.85 78.0 M66.55 71.05 L64.35 71.45 59.8 71.3 Q56.25 70.6 52.95 72.55 L47.55 76.75 Q48.3 76.25 48.9 76.1 49.9 75.15 52.35 75.05 L56.4 74.9 58.8 74.95 61.25 75.15 66.2 74.75 Q68.9 74.3 70.35 75.7 72.45 77.55 72.65 79.25 72.95 78.7 72.65 76.3 72.3 73.95 71.9 73.25 70.65 71.05 68.85 70.9 L66.55 71.05 M33.9 80.0 L32.7 79.0 35.7 83.45 38.65 87.7 42.5 91.9 44.05 93.65 Q44.95 94.5 45.95 94.75 L51.6 95.65 57.75 95.7 63.9 95.6 Q66.1 95.55 67.95 94.4 L71.05 91.5 Q72.1 90.35 72.55 88.65 L72.9 85.25 73.1 84.3 72.9 84.7 72.9 85.25 72.2 86.8 71.55 88.0 70.95 89.2 69.85 90.55 68.55 91.75 Q66.4 93.0 65.2 93.05 L60.2 93.1 55.25 93.1 Q53.7 93.2 51.8 92.2 L48.65 90.55 Q47.75 89.2 45.85 87.9 L42.85 85.65 Q40.45 83.75 36.55 82.0 35.25 81.45 33.9 80.0 M30.4 63.55 L30.2 62.9 29.8 62.3 29.8 63.55 29.45 64.0 30.15 66.65 31.15 67.85 Q31.75 68.45 32.65 68.55 L33.95 68.5 35.1 68.0 34.7 68.0 34.85 67.95 35.1 66.95 35.2 65.9 33.7 66.3 Q32.9 66.35 32.3 65.8 L31.3 64.65 30.4 63.55 M29.65 53.1 Q29.45 54.0 29.45 56.85 L29.75 55.0 Q30.05 54.05 30.95 53.8 32.3 53.5 32.65 54.55 L33.15 56.55 33.75 57.25 34.2 58.05 34.2 57.1 Q34.2 56.55 34.45 56.3 L34.3 56.4 Q35.55 55.4 34.45 53.05 33.4 50.7 31.8 50.75 30.1 50.8 29.65 53.1 M56.0 64.95 L54.95 64.8 54.45 64.8 55.65 65.75 57.1 66.3 58.45 67.0 59.8 67.7 62.6 69.55 Q64.85 70.8 65.15 69.25 L65.35 69.2 Q65.45 68.7 65.95 68.4 L66.0 68.15 67.05 67.2 67.8 66.05 67.95 64.4 67.7 62.9 65.55 64.9 63.95 65.2 62.3 64.8 Q61.35 64.0 60.7 63.8 59.8 63.6 58.75 64.3 L58.0 64.85 57.15 65.25 56.0 64.95 M63.5 43.95 Q63.1 44.2 63.35 45.55 63.5 46.55 63.8 47.35 L64.25 49.95 Q64.6 52.15 64.8 52.25 64.85 52.8 66.05 54.5 L67.0 55.45 68.4 55.6 Q69.65 55.35 70.5 54.25 L71.75 52.05 72.25 51.05 Q72.55 50.0 72.75 50.0 L72.3 48.3 Q71.3 47.3 70.05 46.95 L67.3 46.45 64.8 45.85 Q63.45 45.25 63.6 43.85 L63.5 43.95 M60.5 43.95 L59.25 44.95 Q57.2 46.45 55.7 46.95 L53.3 47.35 50.85 47.45 Q48.5 47.7 47.15 48.85 46.6 49.3 45.95 50.4 L44.8 52.0 44.6 54.1 46.55 54.75 48.5 55.5 52.4 55.7 54.15 55.35 Q54.9 55.1 55.5 54.4 56.65 52.95 56.85 51.1 L57.8 48.95 Q58.45 47.1 58.85 46.7 60.2 45.4 60.5 43.95 M69.15 29.95 Q73.0 35.6 73.35 40.15 73.45 42.2 74.75 46.9 L73.95 50.6 74.6 56.95 Q74.75 58.35 73.7 62.05 73.45 63.15 73.5 65.5 73.6 67.9 73.95 68.8 L75.0 72.05 Q75.6 74.5 75.25 75.85 L73.45 83.75 78.45 86.25 84.8 90.25 89.65 95.3 90.05 98.8 Q86.9 100.0 82.95 100.0 L17.5 100.0 Q9.7 100.0 5.0 95.15 L4.2 94.3 Q21.45 75.65 24.55 70.45 26.75 66.75 27.9 62.25 L28.6 58.5 Q28.5 56.65 28.55 54.65 28.65 50.65 29.6 49.95 30.55 49.25 30.75 48.25 L30.75 47.4 Q31.15 42.95 32.5 38.0 35.2 28.15 40.05 25.75 45.8 22.75 47.3 22.15 L52.55 21.65 Q56.85 21.85 61.55 24.05 66.7 26.45 69.15 29.95"/></g></defs><g><g><use transform="matrix(1.0,0.0,0.0,1.0,0.0,0.0)" xlink:href="#c1"/></g></g></svg>