<?xml version='1.0' encoding='UTF-8'?>
<svg xmlns="http://www.w3.org/2000/svg" xmlns:xlink="http://www.w3.org/1999/xlink" version="1.1" width="92px" height="87px" viewBox="2.75 12.1 91.8 87.35000000000001"><defs><g id="c1"><path fill="#ffffff" stroke="none" d="M17.9 47.25 L18.3 25.45 39.6 23.75 38.8 53.4 20.0 52.35 Q18.75 51.35 17.9 47.25"/><path fill="#ffffff" stroke="none" d="M45.9 41.95 Q44.85 43.0 44.85 44.5 44.85 45.95 45.9 47.0 47.0 48.05 48.45 48.05 49.95 48.05 51.0 47.0 52.05 45.95 52.05 44.45 52.05 43.0 51.0 41.95 49.95 40.9 48.45 40.9 46.95 40.9 45.9 41.95 M52.75 31.15 Q52.75 29.65 51.7 28.6 50.6 27.55 49.15 27.55 47.65 27.55 46.6 28.6 45.55 29.65 45.55 31.15 45.55 32.65 46.6 33.7 47.65 34.75 49.15 34.75 50.65 34.75 51.7 33.7 52.75 32.6 52.75 31.15 M43.9 20.5 L53.35 20.25 55.4 21.9 55.75 23.4 56.3 53.65 41.1 53.6 42.05 23.55 42.25 22.15 43.9 20.5"/><path fill="#ffffff" stroke="none" d="M41.15 55.45 L56.05 55.55 54.5 78.35 54.15 99.45 43.05 99.45 43.0 79.4 41.15 55.45"/><path fill="#ffffff" stroke="none" d="M58.4 53.45 L57.9 23.65 80.45 25.15 80.7 45.65 Q80.7 47.35 78.65 52.25 L58.4 53.45"/><path fill="#ffffff" stroke="none" d="M9.15 20.1 Q12.1 14.7 15.4 12.1 13.25 16.05 11.85 21.2 10.6 25.7 10.0 30.55 8.8 39.45 9.2 49.6 9.65 58.95 11.85 68.45 14.15 78.4 17.6 87.1 15.0 84.45 11.65 79.0 9.0 74.4 7.35 69.8 3.7 60.15 3.25 49.85 2.75 39.0 5.4 29.6 6.85 24.3 9.15 20.1"/><path fill="#ffffff" stroke="none" d="M85.5 21.2 Q84.0 15.8 81.95 12.1 85.25 14.7 88.2 20.1 90.45 24.15 92.0 29.6 94.55 38.95 94.15 49.85 93.65 60.15 90.05 69.8 88.3 74.55 85.7 79.0 82.6 84.2 79.75 87.1 83.4 77.9 85.5 68.45 87.7 58.95 88.15 49.6 88.55 39.15 87.4 30.55 86.7 25.5 85.5 21.2"/></g></defs><g><g><use transform="matrix(1.0,0.0,0.0,1.0,0.0,0.0)" xlink:href="#c1"/></g></g></svg>