<?xml version='1.0' encoding='UTF-8'?>
<svg xmlns="http://www.w3.org/2000/svg" xmlns:xlink="http://www.w3.org/1999/xlink" version="1.1" width="95px" height="87px" viewBox="0.0 13.45 94.95 86.55"><defs><g id="c1"><path fill="#ffffff" stroke="none" d="M75.05 38.35 Q75.9 38.4 76.55 37.85 77.2 37.25 77.25 36.35 77.3 35.5 76.75 34.85 76.15 34.2 75.25 34.15 74.4 34.1 73.75 34.65 73.05 35.25 73.0 36.15 72.95 37.0 73.55 37.65 74.15 38.3 75.05 38.35 M89.0 38.0 Q89.7 37.4 89.75 36.5 89.8 35.6 89.2 34.95 88.6 34.3 87.7 34.25 86.85 34.2 86.2 34.8 85.55 35.4 85.5 36.3 85.45 37.15 86.0 37.8 86.6 38.45 87.5 38.5 88.35 38.55 89.0 38.0 M36.8 66.9 L36.45 68.3 36.2 69.7 36.1 72.0 35.7 74.25 Q35.0 76.0 35.2 77.9 L35.75 81.65 36.15 84.05 36.1 85.3 Q36.1 86.2 36.35 86.45 L36.8 84.7 37.0 82.9 37.05 81.9 37.1 80.9 37.45 78.75 37.85 74.4 Q38.25 71.6 38.0 70.4 L37.3 65.75 Q37.4 64.65 37.05 64.0 L36.8 66.9 M38.4 55.5 Q38.5 56.3 38.15 56.8 L37.4 57.85 37.05 57.85 Q36.8 58.75 35.35 59.95 L33.05 61.3 Q33.75 61.35 35.0 60.8 L36.9 59.95 36.9 59.75 38.0 59.55 38.15 59.75 38.65 62.1 39.15 64.5 39.3 63.25 39.4 62.0 Q40.0 60.6 39.95 59.6 L39.55 57.0 39.15 54.4 38.9 55.6 38.4 55.5 M33.3 54.7 L32.2 54.0 31.35 52.9 30.25 50.85 30.6 51.7 30.9 52.6 31.2 55.15 31.45 56.35 31.65 57.55 31.8 60.45 32.1 60.15 Q32.1 59.95 32.25 59.7 32.3 58.45 33.3 57.35 L35.2 55.55 35.6 55.4 33.3 54.7 M24.65 38.0 L24.0 35.65 9.35 38.0 24.65 38.0 M51.65 38.6 Q51.4 38.75 51.0 39.85 L50.25 40.9 Q48.85 42.2 47.65 42.45 L48.4 42.9 45.65 43.25 44.4 42.9 Q43.8 42.7 43.45 43.45 L43.25 43.45 42.65 44.3 41.95 45.05 41.9 45.25 41.7 45.3 41.7 45.5 41.5 45.5 41.4 44.6 40.95 45.6 Q39.55 49.3 40.45 52.5 40.85 54.0 42.15 55.4 43.85 57.25 44.7 57.05 42.1 55.35 42.25 52.35 L43.75 53.15 45.2 53.8 Q44.4 52.1 44.35 51.15 L44.45 49.7 44.9 49.65 45.4 49.9 45.5 49.1 46.3 49.65 Q46.8 50.05 47.15 50.05 46.85 48.05 47.45 46.25 L47.75 45.4 Q47.95 45.05 48.45 45.05 48.8 45.05 49.3 45.35 L50.15 45.65 51.1 46.25 50.8 44.85 Q50.6 44.05 50.7 43.45 L52.8 43.45 53.6 43.25 50.7 42.75 Q51.4 42.05 51.55 40.7 L51.65 38.6 M49.05 25.65 L49.05 27.6 49.05 29.7 48.95 28.45 48.55 29.8 Q48.35 30.65 48.45 31.15 L47.95 32.25 47.4 33.25 47.25 33.3 47.25 33.5 45.9 33.8 44.75 34.4 43.6 35.0 42.25 35.25 40.85 35.0 Q40.5 34.65 40.35 33.65 L40.35 31.95 Q40.35 30.75 40.05 30.4 L40.15 31.75 40.25 33.05 39.95 35.6 Q39.75 35.7 39.45 36.5 L38.6 36.75 36.7 37.2 34.65 37.35 34.0 35.7 33.95 35.1 33.65 33.1 33.65 33.05 33.6 32.65 33.55 30.45 33.25 32.4 Q33.35 33.75 32.9 34.65 L32.0 36.6 Q31.7 37.45 31.15 37.7 30.05 37.7 29.1 37.15 26.9 35.8 27.1 34.6 L27.0 34.6 Q26.9 35.6 27.9 37.4 28.45 38.35 30.0 39.1 L32.6 40.0 33.85 40.55 Q34.7 41.0 34.8 41.4 L36.75 41.25 38.65 40.75 37.45 42.55 36.25 44.3 34.35 47.3 35.6 45.8 36.8 44.25 37.45 43.55 38.5 42.65 Q39.1 42.0 39.65 41.85 L41.4 41.95 43.15 42.05 41.75 41.45 Q40.95 41.0 40.7 40.45 39.5 39.75 40.65 37.6 41.5 37.05 42.9 36.5 45.15 35.55 45.3 35.5 46.35 35.05 47.3 34.25 L48.3 33.6 49.55 32.85 50.75 32.2 Q51.85 32.0 53.75 33.1 L52.3 31.45 Q51.4 30.5 50.55 30.45 50.6 29.45 50.1 27.95 L49.05 25.65 M57.3 28.9 Q57.2 33.15 55.15 33.85 L55.8 34.5 56.25 35.25 Q57.2 35.75 59.0 38.0 L59.0 37.9 60.1 38.9 Q60.7 39.55 60.7 39.9 L64.0 39.55 64.35 39.0 65.1 38.75 65.05 38.65 65.25 38.65 65.75 37.05 66.25 35.5 64.1 35.5 61.95 35.3 59.45 35.3 58.8 35.05 58.9 34.75 59.0 34.7 59.25 34.05 58.45 34.2 58.85 33.1 59.05 31.95 58.65 32.55 58.1 32.5 Q57.9 32.15 58.1 30.85 L57.3 28.9 M70.05 15.25 Q70.9 14.5 72.15 14.2 L81.8 13.65 Q90.5 13.45 90.8 14.55 L92.55 31.6 94.55 31.6 Q94.95 31.6 94.95 33.25 L94.95 40.7 Q94.95 42.35 94.55 42.35 L92.5 42.35 92.0 55.9 91.6 56.65 Q90.95 57.45 89.75 57.55 L80.5 57.65 72.2 57.0 Q71.85 56.55 70.8 50.6 69.75 45.0 69.05 39.8 L67.35 39.8 67.35 39.95 Q67.35 40.65 66.75 41.15 66.2 41.6 65.35 41.6 L61.15 41.65 Q61.25 43.0 61.5 44.05 61.85 45.45 61.1 47.25 60.35 49.25 59.5 50.0 L57.25 52.0 52.65 56.0 52.65 56.2 Q51.95 56.6 51.5 57.8 L51.1 58.25 Q50.65 58.5 50.75 59.05 L51.05 60.05 51.4 63.0 52.8 80.1 Q54.25 96.6 54.75 100.0 L36.25 100.0 39.0 99.65 40.25 99.35 41.5 99.15 44.55 99.05 44.5 99.15 51.95 99.1 48.65 59.4 50.45 56.65 48.75 57.9 46.45 59.3 Q45.65 59.5 43.25 57.6 L43.4 58.4 Q43.7 59.3 44.4 60.05 45.5 61.25 46.95 61.85 L48.25 89.1 45.35 82.65 45.35 82.7 45.2 82.3 44.65 80.55 Q44.2 79.4 43.8 79.0 L43.45 81.75 43.1 84.5 43.25 87.45 Q43.25 89.4 42.45 89.9 L42.1 90.4 41.7 90.8 41.2 92.1 40.9 93.75 40.75 95.4 40.7 96.95 Q40.55 97.65 39.85 98.05 39.4 98.25 38.25 98.95 L36.6 99.8 36.25 100.0 26.65 100.0 29.65 63.7 Q30.1 61.5 29.9 59.85 29.65 56.55 28.4 52.65 L27.65 49.05 27.0 45.35 26.95 45.35 Q27.2 43.5 28.75 42.5 L31.7 40.85 Q31.85 40.25 31.5 39.65 L26.95 39.8 26.4 39.8 26.4 39.5 0.0 39.4 0.0 33.1 26.5 33.05 26.1 30.75 Q26.0 29.35 26.45 28.8 L26.55 28.4 26.85 27.95 27.05 27.95 27.25 27.7 27.3 27.5 27.95 27.1 28.7 26.45 29.45 26.05 Q29.9 25.8 30.3 25.85 L31.3 26.2 32.3 26.6 33.35 26.75 34.2 26.25 35.2 24.7 36.5 23.9 38.0 23.75 Q38.55 23.85 39.55 24.45 L41.05 25.05 Q41.15 24.4 41.55 24.0 L42.7 23.2 43.8 22.5 Q44.95 22.15 46.45 22.8 L48.85 24.05 Q49.1 22.95 49.6 22.3 50.15 21.75 51.75 21.3 L54.05 21.1 Q54.7 21.35 55.7 22.55 L57.3 24.3 Q59.55 26.3 59.05 27.7 59.9 29.0 60.15 30.9 L65.35 30.85 Q66.2 30.85 66.75 31.35 67.35 31.85 67.35 32.5 L67.35 32.85 68.7 32.85 70.05 15.25"/></g></defs><g><g><use transform="matrix(1.0,0.0,0.0,1.0,0.0,0.0)" xlink:href="#c1"/></g></g></svg>