<?xml version='1.0' encoding='UTF-8'?>
<svg xmlns="http://www.w3.org/2000/svg" xmlns:xlink="http://www.w3.org/1999/xlink" version="1.1" width="91px" height="82px" viewBox="4.0 9.1 90.9 82.10000000000001"><defs><g id="c1"><path fill="#ffffff" stroke="none" d="M30.7 21.7 Q30.7 23.95 31.8 25.5 32.75 26.8 34.8 27.75 L38.35 29.2 38.85 29.45 Q40.05 30.1 40.1 31.65 40.1 33.3 39.45 34.45 L37.65 36.35 Q37.45 33.3 36.1 31.85 L33.05 29.45 Q30.7 28.0 29.85 26.9 27.45 23.85 26.45 21.3 L25.5 18.7 Q24.8 17.1 23.55 16.9 19.6 16.2 17.7 26.4 16.9 30.6 16.15 41.55 15.05 56.7 12.3 68.1 9.1 81.2 4.0 88.15 7.55 76.95 9.4 69.95 12.7 57.4 13.4 46.65 14.2 34.4 14.9 29.0 16.45 16.7 19.25 13.75 22.15 10.75 26.15 11.95 30.05 13.15 30.6 16.9 L30.7 21.7"/><path fill="#ffffff" stroke="none" d="M23.95 21.0 L23.9 23.75 23.0 30.25 21.85 35.5 20.85 40.8 Q20.15 40.4 19.85 39.35 L19.6 37.55 Q19.4 35.55 19.7 31.6 L20.3 25.1 20.65 22.05 Q21.05 20.35 22.4 19.7 23.7 19.05 23.95 21.0"/><path fill="#ffffff" stroke="none" d="M25.25 23.0 Q27.6 25.05 26.5 33.9 25.65 40.35 23.95 45.85 21.35 43.95 23.25 35.65 25.65 25.45 25.25 23.0"/><path fill="#ffffff" stroke="none" d="M27.85 27.6 Q30.2 31.95 29.8 40.2 29.45 48.2 27.1 51.35 24.4 49.2 26.4 40.2 28.65 30.0 27.85 27.6"/><path fill="#ffffff" stroke="none" d="M33.4 32.3 Q33.45 32.0 33.85 31.95 L34.55 31.9 Q37.05 33.65 36.7 40.85 36.4 47.45 34.55 50.55 34.15 49.1 34.5 40.9 34.8 33.7 33.4 32.3"/><path fill="#ffffff" stroke="none" d="M17.7 40.0 Q17.95 40.05 18.25 40.4 L18.85 40.8 Q19.75 51.25 18.15 59.9 16.35 70.0 11.45 75.25 14.4 69.2 15.85 58.9 L17.7 40.0"/><path fill="#ffffff" stroke="none" d="M20.85 45.1 L21.45 45.25 22.0 45.5 Q23.25 50.0 22.0 56.25 21.0 61.3 18.85 65.85 18.75 62.95 19.9 56.0 21.05 49.15 20.85 45.1"/><path fill="#ffffff" stroke="none" d="M23.95 49.8 Q25.2 52.05 26.7 52.9 24.8 58.75 21.6 63.5 L22.85 57.2 Q23.85 52.65 23.95 49.8"/><path fill="#ffffff" stroke="none" d="M30.95 30.45 Q32.75 32.55 33.05 41.35 33.3 50.0 31.8 54.1 30.9 53.95 30.2 53.15 L29.05 51.75 Q30.1 47.8 30.85 41.05 31.7 33.2 30.95 30.45"/><path fill="#ffffff" stroke="none" d="M27.5 53.3 Q30.05 55.6 23.95 61.55 L25.7 58.4 Q27.3 55.25 27.5 53.3"/><path fill="#ffffff" stroke="none" d="M75.35 16.9 Q74.15 17.1 73.4 18.7 L72.5 21.3 Q71.45 23.8 69.1 26.9 68.3 27.9 65.85 29.45 64.0 30.6 62.85 31.85 61.45 33.3 61.25 36.35 L59.45 34.45 Q58.75 33.25 58.85 31.65 58.9 30.1 60.05 29.45 L60.55 29.2 64.1 27.75 Q66.15 26.8 67.1 25.5 68.25 23.95 68.25 21.7 68.2 17.7 68.3 16.9 68.85 13.15 72.8 11.95 76.75 10.75 79.65 13.75 82.45 16.7 84.05 29.0 84.85 35.2 85.5 46.65 86.2 57.35 89.55 69.95 91.4 76.95 94.9 88.15 89.8 81.2 86.6 68.1 83.85 56.65 82.8 41.55 81.9 30.15 81.2 26.4 79.3 16.2 75.35 16.9"/><path fill="#ffffff" stroke="none" d="M75.0 21.0 Q75.25 19.05 76.55 19.7 77.85 20.35 78.25 22.05 L78.6 25.1 79.2 31.6 Q79.5 35.55 79.3 37.55 L79.05 39.35 Q78.75 40.4 78.1 40.8 L77.05 35.5 75.9 30.25 Q75.1 25.4 75.0 23.75 L75.0 21.0"/><path fill="#ffffff" stroke="none" d="M73.7 23.0 Q73.25 25.45 75.65 35.65 77.55 43.95 74.95 45.85 73.25 40.35 72.45 33.9 71.35 25.05 73.7 23.0"/><path fill="#ffffff" stroke="none" d="M71.1 27.6 Q70.25 30.0 72.5 40.2 74.5 49.2 71.8 51.35 69.5 48.2 69.15 40.2 68.75 31.95 71.1 27.6"/><path fill="#ffffff" stroke="none" d="M65.55 32.3 Q64.15 33.7 64.45 40.9 64.8 49.15 64.4 50.55 62.55 47.5 62.2 40.85 61.9 33.65 64.35 31.9 L65.1 31.95 Q65.5 32.0 65.55 32.3"/><path fill="#ffffff" stroke="none" d="M81.2 40.0 Q82.5 55.0 83.05 58.9 84.55 69.2 87.5 75.25 82.6 70.0 80.75 59.9 79.15 51.2 80.05 40.8 L80.65 40.4 81.2 40.0"/><path fill="#ffffff" stroke="none" d="M78.1 45.1 Q77.9 49.15 79.0 56.0 80.15 62.95 80.05 65.85 77.9 61.3 76.9 56.25 75.65 50.0 76.9 45.5 L77.45 45.25 78.1 45.1"/><path fill="#ffffff" stroke="none" d="M74.95 49.8 Q75.05 52.6 76.05 57.2 L77.3 63.5 Q74.1 58.75 72.2 52.9 73.7 52.05 74.95 49.8"/><path fill="#ffffff" stroke="none" d="M67.95 30.45 Q67.2 33.2 68.1 41.05 68.85 47.8 69.85 51.75 L68.7 53.15 Q68.0 53.95 67.1 54.1 65.6 50.0 65.9 41.35 66.15 32.55 67.95 30.45"/><path fill="#ffffff" stroke="none" d="M71.45 53.3 Q71.65 55.25 73.2 58.4 L74.95 61.55 Q68.85 55.6 71.45 53.3"/><path fill="#ffffff" stroke="none" d="M49.15 21.45 L49.85 21.15 50.15 20.4 49.85 19.7 Q49.55 19.4 49.15 19.4 48.7 19.4 48.4 19.7 48.1 20.0 48.1 20.4 L48.4 21.15 49.15 21.45 M50.15 14.7 L49.85 13.95 Q49.55 13.65 49.15 13.65 48.7 13.65 48.4 13.95 48.1 14.3 48.1 14.7 48.1 15.1 48.4 15.4 L49.15 15.7 49.85 15.4 50.15 14.7 M46.15 9.65 Q46.15 9.35 47.65 9.2 L49.1 9.1 50.6 9.2 Q52.05 9.35 52.05 9.65 L52.05 10.15 52.55 10.15 53.3 10.9 57.6 11.25 62.35 11.8 62.35 22.2 53.55 22.85 52.8 23.8 Q51.85 33.55 51.85 35.65 L51.85 62.95 52.35 62.95 52.35 87.2 51.7 87.2 51.7 87.6 52.4 88.45 51.85 90.05 50.75 90.65 49.15 91.2 Q48.4 91.2 46.4 90.05 L45.85 88.45 46.6 87.6 46.6 87.2 45.95 87.2 45.95 62.95 46.4 62.95 46.4 35.65 45.4 23.8 44.7 22.85 35.85 22.2 35.85 11.8 40.6 11.25 44.9 10.9 45.65 10.15 46.15 10.15 46.15 9.65"/></g></defs><g><g><use transform="matrix(1.0,0.0,0.0,1.0,0.0,0.0)" xlink:href="#c1"/></g></g></svg>