<?xml version='1.0' encoding='UTF-8'?>
<svg xmlns="http://www.w3.org/2000/svg" xmlns:xlink="http://www.w3.org/1999/xlink" version="1.1" width="86px" height="56px" viewBox="6.35 17.4 86.45 55.550000000000004"><defs><g id="c1"><path fill="#ffffff" stroke="none" d="M70.75 56.6 L70.75 61.95 43.9 61.95 43.9 56.6 70.75 56.6 M46.25 35.75 L46.25 43.15 68.9 43.15 68.9 35.75 46.25 35.75 M41.45 39.2 L41.45 47.9 22.2 47.9 22.2 39.2 41.45 39.2 M42.35 20.1 Q43.5 18.35 45.4 18.0 47.6 17.6 49.65 19.1 51.4 20.4 52.4 22.6 54.3 26.85 53.95 32.0 L70.75 32.0 70.75 53.8 43.9 53.8 43.9 32.0 51.6 32.0 Q51.95 28.05 50.7 24.7 49.05 20.2 46.2 20.25 44.8 20.25 43.85 22.05 45.4 24.85 44.55 28.05 L43.95 28.7 43.05 28.75 Q41.5 28.25 41.05 26.5 40.65 25.05 41.0 23.3 L41.3 22.2 40.75 21.7 Q39.65 20.85 38.25 20.8 36.75 20.8 35.75 21.75 34.5 23.0 34.25 25.4 35.85 28.45 35.35 31.55 35.2 32.4 34.35 32.6 33.5 32.75 33.15 31.95 31.9 29.35 31.9 26.0 30.45 23.5 27.95 22.75 27.25 24.55 27.65 26.9 L28.75 31.0 Q29.0 31.85 28.15 32.2 27.3 32.55 26.7 31.95 L24.45 29.5 Q23.0 28.1 21.65 27.6 20.05 26.95 18.55 27.15 L17.65 27.3 Q17.75 27.95 19.65 29.85 L22.4 32.4 Q23.0 33.05 22.45 33.85 21.9 34.65 21.1 34.3 17.3 32.6 15.85 32.3 12.4 31.6 11.0 33.85 10.45 34.8 11.15 35.45 11.55 35.85 12.75 36.25 L17.4 37.3 Q18.5 37.55 18.4 38.65 18.3 39.75 17.15 39.65 8.65 39.0 8.8 43.15 8.85 44.8 11.9 44.35 14.3 44.0 15.8 43.15 16.7 42.65 17.3 43.55 17.85 44.45 17.1 45.1 L14.5 47.2 Q12.85 48.85 13.4 50.0 13.95 51.05 15.25 51.45 L17.65 51.55 18.9 51.15 Q19.85 50.85 20.2 51.9 20.5 52.95 19.6 53.35 L18.3 53.75 Q16.7 54.35 15.95 54.8 L21.75 54.5 22.2 54.45 22.2 51.25 41.45 51.25 41.45 59.9 22.2 59.9 22.2 56.8 Q16.05 58.55 13.15 55.6 12.8 55.3 12.85 54.8 12.9 54.3 13.25 53.95 L13.8 53.45 Q12.15 52.8 11.45 51.3 10.35 49.0 12.0 46.65 9.7 46.85 8.3 46.15 6.55 45.25 6.5 43.15 6.35 39.2 10.6 37.85 7.35 36.15 8.65 33.3 10.65 28.75 16.85 30.25 L16.75 30.2 Q14.55 27.35 15.7 25.95 16.65 24.8 18.75 24.7 20.5 24.65 22.15 25.25 23.9 26.0 25.35 27.2 L25.15 25.75 Q24.95 23.4 26.35 20.75 26.75 20.15 27.45 20.25 30.25 20.7 32.4 22.85 33.2 20.15 35.45 19.1 39.3 17.4 42.35 20.1 M92.8 51.25 L92.8 59.9 73.1 59.9 73.1 51.25 92.8 51.25 M92.8 64.25 L92.8 72.95 22.2 72.95 22.2 64.25 41.45 64.25 41.45 65.8 73.1 65.8 73.1 64.25 92.8 64.25 M92.8 39.2 L92.8 47.9 73.1 47.9 73.1 39.2 92.8 39.2"/></g></defs><g><g><use transform="matrix(1.0,0.0,0.0,1.0,0.0,0.0)" xlink:href="#c1"/></g></g></svg>