<?xml version='1.0' encoding='UTF-8'?>
<svg xmlns="http://www.w3.org/2000/svg" xmlns:xlink="http://www.w3.org/1999/xlink" version="1.1" width="92px" height="100px" viewBox="2.1 -0.1 92.5 100.0"><defs><g id="c1"><path fill="#ffffff" fill-opacity="0.8" d="M84.55 20.8 Q84.4 18.4 83.8 17.6 83.2 16.75 67.25 11.6 L51.3 6.65 Q49.2 6.3 33.45 11.4 17.8 16.55 17.05 17.85 16.55 18.9 16.15 28.8 L15.95 40.95 Q15.65 62.15 32.45 81.8 38.15 88.3 44.35 93.3 49.45 97.4 50.45 97.45 51.3 97.5 56.25 93.45 62.0 88.8 67.5 82.7 83.5 65.0 84.7 48.6 85.3 40.2 84.7 24.9 L84.55 20.8 M56.35 -0.1 L58.0 -0.1 59.75 5.35 65.9 -0.1 66.7 -0.1 67.3 7.85 76.05 2.45 76.55 11.35 85.3 6.3 Q85.1 14.6 85.25 14.7 L92.75 15.75 87.15 22.65 93.1 27.4 87.35 31.4 Q87.35 31.8 94.2 37.55 L87.2 41.6 Q87.2 42.1 94.6 47.8 L85.75 54.35 Q85.7 54.75 87.1 59.05 L88.55 63.3 82.0 65.3 Q81.9 65.5 83.75 69.6 L85.6 73.65 76.55 74.85 Q76.45 75.0 77.7 79.2 L78.95 83.35 70.45 82.75 Q70.25 83.05 70.45 88.1 L70.7 93.15 62.2 91.25 Q61.9 91.45 62.35 99.9 L60.9 99.9 Q54.75 97.65 54.25 98.0 L53.55 99.9 48.0 99.9 46.85 97.65 39.65 99.9 38.65 99.9 37.6 90.25 36.55 89.25 27.7 91.1 28.15 79.95 27.1 78.55 17.25 82.2 20.65 68.25 14.35 67.8 8.15 67.5 15.75 55.2 2.1 51.85 14.0 44.45 2.4 39.05 13.7 33.3 4.25 26.45 13.9 23.3 Q13.95 22.9 11.45 18.95 L8.4 14.45 Q9.5 14.75 16.6 14.25 L16.9 6.85 24.15 11.4 26.85 2.95 32.95 8.2 35.95 0.95 43.15 5.35 45.45 -0.1 48.3 -0.1 51.3 3.55 56.35 -0.1"/><path fill="#ffffff" stroke="none" d="M51.25 31.45 Q52.4 31.45 53.2 32.25 54.0 33.05 54.0 34.2 54.0 35.35 53.2 36.15 52.4 36.95 51.25 36.95 50.15 36.95 49.3 36.15 48.5 35.35 48.5 34.2 48.5 33.05 49.3 32.25 50.1 31.45 51.25 31.45"/><path fill="#ffffff" stroke="none" d="M50.7 41.65 Q51.85 41.65 52.65 42.45 53.45 43.25 53.45 44.4 53.45 45.55 52.65 46.35 51.85 47.15 50.7 47.15 49.6 47.15 48.75 46.35 47.95 45.55 47.95 44.4 47.95 43.3 48.75 42.45 49.6 41.65 50.7 41.65"/><path fill="#ffffff" stroke="none" d="M75.4 45.3 L75.2 29.6 57.95 28.45 58.3 51.25 73.8 50.35 Q75.4 46.6 75.4 45.3 M45.15 52.8 L46.5 71.15 46.6 87.2 51.15 90.0 55.1 87.2 55.3 70.35 56.55 52.85 45.15 52.8 M27.75 48.2 Q28.3 49.95 28.9 50.45 L43.35 51.25 43.95 28.55 27.6 29.85 27.3 46.5 27.75 48.2 M54.45 25.85 L47.2 26.05 45.95 27.3 45.8 28.4 45.05 51.35 56.7 51.45 56.3 28.3 56.0 27.15 54.45 25.85 M35.95 18.45 Q49.3 13.9 51.15 14.2 L64.6 18.45 Q78.2 22.85 78.6 23.65 79.2 24.65 79.1 32.55 L78.95 39.7 Q78.5 54.2 77.8 55.05 77.3 57.3 74.55 62.7 71.35 69.0 69.15 71.65 L69.1 71.85 Q66.05 77.05 58.95 83.85 52.2 90.3 50.65 90.3 32.55 78.05 26.7 63.15 L24.25 57.9 Q22.75 51.95 22.0 39.5 21.3 26.8 21.65 25.65 21.95 24.55 22.95 23.9 24.8 22.35 35.95 18.45"/></g></defs><g><g><use transform="matrix(1.0,0.0,0.0,1.0,0.0,0.0)" xlink:href="#c1"/></g></g></svg>