<?xml version='1.0' encoding='UTF-8'?>
<svg xmlns="http://www.w3.org/2000/svg" xmlns:xlink="http://www.w3.org/1999/xlink" version="1.1" width="85px" height="80px" viewBox="8.6 6.7 85.05000000000001 80.39999999999999"><defs><g id="c1"><path fill="#ffffff" stroke="none" d="M37.7 63.4 L46.35 51.9 32.2 49.95 46.35 47.95 37.7 36.45 49.2 45.1 51.2 30.9 53.15 45.1 64.65 36.45 56.0 47.95 70.2 49.95 56.0 51.9 64.65 63.4 53.15 54.75 51.2 69.0 49.2 54.75 37.7 63.4"/><path fill="#ffffff" fill-opacity="0.8" d="M35.4 34.5 Q28.9 41.0 28.9 50.25 28.9 59.5 35.4 66.05 41.95 72.6 51.2 72.6 60.45 72.6 66.95 66.05 73.5 59.5 73.5 50.25 73.5 41.05 66.95 34.5 60.45 27.95 51.2 27.95 41.95 27.95 35.4 34.5 M24.9 50.25 Q24.9 39.35 32.6 31.65 40.3 23.95 51.2 23.95 62.1 23.95 69.8 31.65 77.5 39.4 77.5 50.25 77.5 61.15 69.8 68.9 62.1 76.6 51.2 76.6 40.3 76.6 32.6 68.9 24.9 61.15 24.9 50.25"/><path fill="#ffffff" fill-opacity="0.8" d="M51.2 14.6 Q65.95 14.6 76.4 25.05 86.85 35.5 86.85 50.25 86.85 65.0 76.4 75.5 65.95 85.95 51.2 85.95 36.45 85.95 26.0 75.5 15.55 65.0 15.55 50.25 15.55 35.5 26.0 25.05 36.45 14.6 51.2 14.6 M75.0 26.45 Q65.1 16.6 51.2 16.6 44.6 16.6 38.55 19.05 32.75 21.45 28.1 25.85 32.25 22.4 37.35 20.5 42.55 18.6 48.2 18.6 61.3 18.6 70.55 27.9 79.85 37.15 79.85 50.25 79.85 63.35 70.55 72.65 61.3 81.95 48.2 81.95 42.6 81.95 37.35 80.0 32.3 78.15 28.1 74.7 32.75 79.1 38.55 81.45 44.65 83.95 51.2 83.95 65.1 83.95 75.0 74.1 84.85 64.2 84.85 50.25 84.85 36.35 75.0 26.45 M69.15 29.3 Q60.45 20.6 48.2 20.6 35.95 20.6 27.25 29.3 18.55 38.0 18.55 50.25 18.55 62.5 27.25 71.25 35.95 79.95 48.2 79.95 60.45 79.95 69.15 71.25 77.85 62.5 77.85 50.25 77.85 38.0 69.15 29.3"/><path fill="#ffffff" stroke="none" d="M53.8 12.05 L59.15 12.05 59.15 17.95 53.8 17.95 53.8 23.3 47.9 23.3 47.9 17.95 42.6 17.95 42.6 12.05 47.9 12.05 47.9 6.7 53.8 6.7 53.8 12.05"/><path fill="#ffffff" stroke="none" d="M16.35 11.85 L24.8 11.85 24.8 19.6 32.55 19.6 32.55 28.05 24.8 28.05 24.8 35.8 16.35 35.8 16.35 28.05 8.6 28.05 8.6 19.6 16.35 19.6 16.35 11.85"/><path fill="#ffffff" stroke="none" d="M27.7 75.9 L33.05 75.9 33.05 81.75 27.7 81.75 27.7 87.1 21.8 87.1 21.8 81.75 16.45 81.75 16.45 75.9 21.8 75.9 21.8 70.55 27.7 70.55 27.7 75.9"/><path fill="#ffffff" stroke="none" d="M75.45 59.7 L84.45 59.7 84.45 67.9 92.65 67.9 92.65 76.9 84.45 76.9 84.45 85.1 75.45 85.1 75.45 76.9 67.25 76.9 67.25 67.9 75.45 67.9 75.45 59.7"/><path fill="#ffffff" stroke="none" d="M88.45 26.4 L93.65 26.4 93.65 32.1 88.45 32.1 88.45 37.3 82.75 37.3 82.75 32.1 77.6 32.1 77.6 26.4 82.75 26.4 82.75 21.2 88.45 21.2 88.45 26.4"/></g></defs><g><g><use transform="matrix(1.0,0.0,0.0,1.0,0.0,0.0)" xlink:href="#c1"/></g></g></svg>