<?xml version='1.0' encoding='UTF-8'?>
<svg xmlns="http://www.w3.org/2000/svg" xmlns:xlink="http://www.w3.org/1999/xlink" version="1.1" width="100px" height="96px" viewBox="0.1 3.05 100.0 96.4"><defs><g id="c1"><path fill="#ffffff" stroke="none" d="M43.2 55.05 L30.1 55.05 30.1 40.65 43.2 40.65 43.2 27.6 57.6 27.6 57.6 40.65 70.7 40.65 70.7 55.05 57.6 55.05 57.6 68.15 43.2 68.15 43.2 55.05"/><path fill="#ffffff" stroke="none" d="M86.4 11.9 L84.9 12.6 Q86.6 13.45 89.35 13.75 L94.05 13.95 Q91.85 14.3 87.7 15.85 83.4 17.4 81.55 17.75 L82.8 19.05 Q81.45 18.5 80.25 19.05 79.1 19.6 78.75 21.05 L79.05 19.7 Q77.75 22.15 73.65 24.9 L67.05 29.05 66.7 29.25 63.55 30.3 Q70.95 22.35 77.5 17.9 76.8 17.2 75.5 17.25 L73.15 17.65 Q74.85 17.2 76.25 15.95 L74.75 15.5 Q76.0 14.25 77.85 13.65 75.65 10.3 74.85 7.9 75.9 10.1 78.8 11.85 L81.6 8.8 84.45 5.7 Q81.1 10.0 80.55 13.05 L83.2 11.4 82.0 12.95 Q83.0 12.95 86.4 11.9"/><path fill="#ffffff" stroke="none" d="M69.35 35.3 L66.95 35.5 Q66.6 35.55 67.25 35.2 L68.05 35.2 69.35 35.3 70.15 35.1 73.25 34.25 77.65 33.6 Q81.1 33.05 81.7 32.3 82.1 31.8 82.15 30.4 82.25 29.05 82.75 28.5 L82.8 29.5 Q84.65 29.15 87.8 27.2 91.55 24.95 92.8 24.45 88.85 26.6 85.9 29.6 L90.95 29.75 93.5 29.5 91.6 30.0 87.5 31.4 Q90.2 32.65 91.0 34.15 L87.95 33.5 84.85 33.2 85.55 33.9 72.95 34.95 69.35 35.3"/><path fill="#ffffff" stroke="none" d="M14.9 12.4 Q12.75 9.1 11.75 6.5 L15.4 12.25 Q18.05 16.05 19.9 16.2 19.95 14.85 19.55 14.05 L20.95 15.35 Q22.4 14.6 23.35 12.05 24.65 16.6 26.0 18.3 L26.7 17.6 Q28.4 21.95 33.9 28.3 L34.55 30.4 33.5 30.05 29.65 26.4 27.55 23.95 Q25.95 22.1 25.2 21.9 24.05 21.55 22.5 22.3 L19.75 23.95 21.15 22.7 Q20.05 22.55 18.8 21.7 L16.7 20.15 Q14.5 18.6 10.55 16.35 L4.35 12.65 Q12.7 16.3 18.6 17.95 L14.9 12.4"/><path fill="#ffffff" stroke="none" d="M85.75 82.4 L83.4 82.2 85.05 81.55 Q82.55 79.05 78.1 76.25 L70.7 71.5 68.2 69.4 66.9 68.35 Q68.25 69.1 69.9 69.55 L70.1 69.3 Q71.45 70.8 77.9 74.05 85.95 78.15 87.55 79.15 89.5 77.7 93.0 78.45 L98.6 80.15 Q95.05 80.55 93.2 81.45 L95.55 83.2 98.05 84.85 Q95.5 83.0 91.35 82.15 96.6 86.35 99.2 90.3 L95.9 87.3 Q93.1 85.0 91.75 85.0 90.45 85.05 90.0 86.25 89.45 87.95 88.7 88.5 L88.4 85.65 Q88.2 83.45 87.8 83.0 87.3 82.5 85.75 82.4"/><path fill="#ffffff" stroke="none" d="M37.2 76.8 Q35.55 80.45 35.6 82.2 35.65 83.0 36.2 84.6 L36.75 86.95 35.25 85.35 35.25 85.5 35.05 85.4 Q34.7 86.2 34.45 87.45 L34.15 89.55 Q33.85 88.15 33.85 85.9 L32.95 87.85 31.8 89.65 Q33.15 87.15 33.2 85.7 32.65 86.1 31.8 87.3 L31.9 86.9 Q31.15 86.25 30.35 86.55 L31.55 85.3 32.8 84.1 32.4 83.85 Q33.7 83.2 34.45 81.45 35.15 79.3 35.75 78.25 L37.75 74.3 Q37.45 75.05 37.65 75.6 L37.2 76.8"/><path fill="#ffffff" stroke="none" d="M31.8 4.85 L34.75 7.1 Q33.45 4.1 33.35 3.05 34.3 5.75 35.3 6.75 L35.1 4.65 35.3 5.0 Q36.25 4.95 36.65 4.05 L36.8 7.5 37.2 7.4 Q36.85 8.8 37.65 10.55 L39.0 13.45 40.6 17.65 39.8 16.85 39.2 15.7 39.4 16.25 Q37.85 12.25 36.25 10.9 35.65 10.35 34.15 9.7 32.6 9.0 32.0 8.5 33.35 8.7 34.2 8.5 L34.15 8.4 34.3 8.3 33.2 6.5 31.8 4.85"/><path fill="#ffffff" stroke="none" d="M33.0 64.7 L33.95 63.05 Q34.4 62.65 34.75 62.55 L33.0 64.7 30.9 68.35 Q28.55 70.25 25.95 73.15 L20.9 78.95 Q21.85 79.4 23.3 79.7 L25.8 80.1 Q24.9 80.75 23.05 81.5 20.9 82.4 20.2 82.8 L22.55 85.3 24.05 86.7 21.8 85.65 Q19.15 84.5 18.15 84.8 17.25 85.1 16.15 87.35 L15.4 89.05 Q15.7 88.05 15.6 87.15 L10.75 90.3 12.55 88.3 14.1 86.15 4.4 86.8 Q5.35 86.25 8.65 84.8 11.35 83.6 12.7 82.55 L12.15 81.75 11.6 80.95 13.85 80.65 15.95 80.15 Q16.75 79.6 17.35 78.0 18.1 76.15 18.6 75.55 L18.6 76.85 27.2 70.1 Q30.8 67.1 33.0 64.7"/><path fill="#ffffff" stroke="none" d="M3.15 57.75 Q1.7 58.35 0.1 59.35 L0.1 54.25 1.15 54.6 4.55 54.1 Q7.0 53.4 6.15 53.05 11.9 54.65 25.3 50.55 L23.4 52.0 Q23.6 52.15 21.3 52.8 L17.75 53.7 10.35 55.6 Q5.6 56.7 3.15 57.75"/><path fill="#ffffff" stroke="none" d="M55.9 82.55 L56.05 86.7 Q56.15 89.3 56.7 90.75 58.3 90.25 60.25 90.0 59.65 90.35 59.45 90.75 L58.9 91.7 Q62.05 91.65 65.15 93.75 L60.0 94.05 61.65 99.45 61.25 99.45 58.05 94.9 57.7 99.45 56.75 99.45 Q56.35 96.85 56.3 95.65 54.7 96.2 52.0 98.25 53.65 95.7 54.8 92.75 53.0 93.85 51.25 93.5 53.45 90.35 53.0 83.6 L54.3 75.65 54.45 73.85 Q55.65 79.7 55.9 82.55"/><path fill="#ffffff" stroke="none" d="M76.2 62.7 Q69.75 62.05 68.5 60.8 L71.25 60.7 70.35 60.5 81.45 61.95 Q87.95 62.4 92.4 61.85 L89.6 58.95 Q87.9 57.0 86.6 56.15 90.3 58.15 92.15 58.35 L93.1 54.7 94.2 51.1 95.65 54.3 Q96.65 56.45 97.5 57.15 98.45 58.0 100.1 57.8 L100.1 59.25 99.4 59.9 100.1 60.1 100.1 69.55 97.75 67.55 Q96.45 66.3 95.1 65.75 90.75 64.1 85.6 63.55 L76.2 62.7"/></g></defs><g><g><use transform="matrix(1.0,0.0,0.0,1.0,0.0,0.0)" xlink:href="#c1"/></g></g></svg>