<?xml version='1.0' encoding='UTF-8'?>
<svg xmlns="http://www.w3.org/2000/svg" xmlns:xlink="http://www.w3.org/1999/xlink" version="1.1" width="82px" height="98px" viewBox="0.0 1.65 81.75 97.94999999999999"><defs><g id="c1"><path fill="#ffffff" fill-opacity="0.8" d="M19.65 66.4 L19.45 72.75 25.15 72.6 23.65 70.3 Q21.7 67.7 19.65 66.4 M33.45 75.9 Q30.75 74.2 28.35 73.7 L30.4 79.7 35.7 77.5 33.45 75.9 M39.15 79.7 L41.8 85.5 46.85 82.8 44.45 81.4 Q41.6 80.0 39.15 79.7 M9.45 60.35 L9.45 58.1 12.45 51.5 14.35 55.6 Q16.65 60.05 18.55 61.95 24.75 68.15 37.75 75.25 44.2 78.75 49.45 81.05 L51.7 87.7 48.15 87.45 41.0 86.35 Q36.35 85.2 26.95 79.25 16.6 72.7 12.85 67.65 10.95 65.05 10.25 63.45 9.6 62.0 9.5 60.4 L9.45 60.35 M12.85 57.45 L11.25 62.55 15.95 63.7 Q15.05 59.9 12.85 57.45"/><path fill="#ffffff" stroke="none" d="M26.25 58.75 L27.6 64.45 49.45 80.05 30.55 63.25 25.15 52.55 Q24.95 53.0 26.25 58.75 M28.35 10.55 L26.2 13.15 Q24.1 16.2 24.55 18.3 25.2 21.2 21.65 34.1 L28.35 28.0 Q27.65 25.2 28.5 24.5 29.15 24.0 31.0 23.7 32.55 23.45 33.2 22.3 34.3 20.4 32.15 15.75 30.1 11.35 28.35 10.55 M79.3 64.6 Q77.5 63.6 75.15 63.7 L72.95 65.25 Q70.75 66.95 70.55 67.8 70.35 68.85 72.4 70.4 74.5 71.9 75.9 71.75 77.1 71.65 78.95 69.3 80.6 67.2 80.75 66.3 80.9 65.5 79.3 64.6 M55.75 51.55 Q55.9 51.15 57.1 50.45 L58.4 49.6 Q58.55 49.3 57.65 49.1 L56.55 48.85 48.0 44.25 46.5 44.05 45.1 44.25 42.0 43.3 39.65 42.6 Q39.95 43.45 41.1 44.05 L42.7 44.8 43.1 45.4 Q43.15 46.0 43.35 46.4 43.7 47.15 45.05 48.2 46.4 49.25 47.55 49.6 L50.45 49.9 52.6 49.95 Q52.95 50.1 52.55 50.4 L52.05 50.7 48.65 53.3 49.6 52.8 53.7 51.05 55.7 50.7 Q55.45 52.25 55.75 51.55 M63.45 45.45 Q62.95 45.1 63.0 41.75 L62.5 43.35 Q61.9 45.0 61.45 45.2 60.8 45.45 55.0 41.55 L57.1 43.55 59.85 46.4 Q60.65 47.45 59.55 47.85 L62.2 47.0 Q62.8 46.8 63.35 47.3 L63.75 47.85 69.0 52.55 69.75 52.45 Q66.4 49.2 66.25 48.65 66.15 48.3 67.9 47.5 L69.7 46.75 Q69.3 45.7 69.35 44.5 69.4 43.75 68.95 42.75 L68.55 41.85 Q64.0 45.75 63.45 45.45 M54.0 9.55 L56.15 7.35 Q56.9 6.4 57.35 4.8 58.35 1.65 58.95 2.75 L59.25 3.8 58.95 5.4 57.3 8.55 55.75 10.9 Q55.45 11.8 56.35 13.85 56.8 15.0 57.25 17.3 L57.95 20.55 58.85 24.35 Q59.5 27.05 60.4 28.0 L63.15 31.5 66.1 35.0 Q69.65 38.25 70.35 40.1 L70.3 42.0 Q70.05 43.25 70.35 43.9 70.65 44.55 70.55 45.6 70.35 47.05 70.45 47.7 L70.25 50.3 Q70.05 52.0 70.6 52.95 L76.3 58.35 Q81.4 63.0 81.55 64.75 81.75 66.75 81.25 70.95 80.8 74.8 80.4 75.85 80.1 76.6 78.5 76.85 77.15 77.05 76.6 76.85 76.4 76.8 76.25 77.6 L75.6 79.45 Q73.4 82.8 69.15 83.25 L65.6 83.85 62.15 83.7 Q58.55 83.1 51.25 80.35 L49.95 80.25 Q49.45 80.45 49.45 81.05 44.2 78.75 37.75 75.25 24.75 68.15 18.55 61.95 16.65 60.05 14.35 55.6 L12.45 51.5 9.45 58.1 Q10.25 55.65 10.7 55.0 L12.35 51.6 Q13.5 49.2 14.5 48.7 15.5 48.15 15.9 47.2 L16.5 45.2 18.15 42.0 19.3 39.95 18.6 38.5 Q17.95 36.65 18.1 34.85 18.25 33.35 20.1 28.1 21.9 23.1 21.9 22.15 21.9 20.7 22.15 19.65 L23.35 15.75 Q23.9 14.25 25.9 11.0 27.45 8.55 27.45 6.85 27.45 4.95 29.0 7.1 L31.4 10.75 Q34.1 14.3 35.5 18.65 L37.5 25.05 Q39.7 24.2 41.6 23.75 L44.85 23.4 Q46.8 23.25 47.45 22.45 48.0 21.75 48.4 20.25 48.9 18.1 49.35 17.05 51.15 12.25 54.0 9.55"/><path fill="#ffffff" stroke="none" d="M9.45 60.35 L9.5 60.4 Q9.6 62.0 10.25 63.45 10.95 65.05 12.85 67.65 16.6 72.7 26.95 79.25 36.35 85.2 41.0 86.35 L48.15 87.45 51.7 87.7 50.25 83.35 51.9 88.35 53.25 94.2 54.45 99.6 17.25 99.6 Q9.4 99.6 4.6 94.8 0.0 90.3 0.0 82.45 L0.0 72.55 Q0.7 72.0 1.35 71.75 2.15 71.45 3.55 68.8 5.0 65.9 6.0 65.2 6.9 64.55 7.9 62.25 L9.45 58.1 9.45 60.35"/></g></defs><g><g><use transform="matrix(1.0,0.0,0.0,1.0,0.0,0.0)" xlink:href="#c1"/></g></g></svg>