<?xml version='1.0' encoding='UTF-8'?>
<svg xmlns="http://www.w3.org/2000/svg" xmlns:xlink="http://www.w3.org/1999/xlink" version="1.1" width="74px" height="99px" viewBox="17.4 0.35 74.05000000000001 99.30000000000001"><defs><g id="c1"><path fill="#ffffff" stroke="none" d="M57.9 33.9 L57.65 30.15 Q59.2 31.45 59.55 33.95 60.0 37.1 60.5 38.0 L60.45 38.0 60.65 38.75 60.6 40.3 Q61.1 43.0 59.95 46.0 L59.6 46.8 59.4 46.9 59.25 46.95 Q59.0 47.6 58.25 47.9 L58.4 47.85 57.7 48.1 56.85 48.8 56.7 48.9 56.15 49.15 55.25 49.35 54.7 49.35 54.15 49.2 53.6 48.95 54.1 48.6 54.15 48.55 Q54.7 48.1 55.05 47.25 54.35 46.7 54.3 45.85 L54.15 44.95 53.65 45.55 Q52.0 44.9 51.9 43.05 L51.5 40.0 Q51.7 39.8 52.0 39.85 L52.45 39.8 Q53.15 38.7 52.1 36.6 50.95 34.3 51.25 33.35 51.45 35.1 52.7 36.55 54.15 38.2 55.7 37.5 57.65 36.0 57.9 33.9"/><path fill="#ffffff" stroke="none" d="M51.05 32.65 L50.95 31.65 50.55 30.65 49.45 33.3 Q48.95 34.9 49.25 36.05 47.85 36.65 48.2 34.1 48.5 32.1 49.2 30.55 L48.9 30.1 48.55 29.6 Q50.15 28.1 50.9 29.8 51.55 31.35 51.05 32.65"/><path fill="#ffffff" stroke="none" d="M35.75 18.85 Q35.55 20.55 36.65 25.8 37.6 30.5 36.8 33.0 36.1 32.0 35.95 30.3 L35.8 27.45 Q34.45 18.9 33.8 11.3 37.1 18.3 38.1 21.05 40.25 26.8 40.25 30.95 39.75 31.35 39.55 32.05 L39.15 33.1 39.0 33.2 Q38.5 32.75 38.45 31.7 L38.45 29.9 Q38.15 24.6 35.75 18.85"/><path fill="#ffffff" stroke="none" d="M34.3 27.95 Q34.75 29.1 34.5 31.2 34.2 33.35 34.55 34.4 L34.1 34.6 Q33.9 35.05 34.15 35.65 L34.7 36.75 34.3 37.35 Q34.05 37.75 34.25 38.0 34.15 38.15 34.05 38.1 L34.05 38.0 Q33.15 34.95 33.1 32.9 33.0 30.15 34.3 27.95"/><path fill="#ffffff" stroke="none" d="M67.0 14.1 L68.55 20.0 Q69.2 23.35 68.05 25.55 L67.45 25.8 67.25 26.15 Q66.5 27.3 65.0 27.55 L62.3 27.55 Q61.4 27.5 60.95 26.7 L60.05 26.0 59.85 25.75 59.3 25.1 Q59.95 24.9 59.65 24.3 L60.35 24.85 60.75 23.9 60.75 23.8 60.85 23.8 Q61.2 23.45 61.55 23.4 L62.9 23.1 62.75 22.05 Q62.2 21.2 61.95 19.75 L61.65 17.15 61.6 16.8 61.6 16.5 61.45 15.8 61.4 15.7 61.15 14.95 Q61.7 14.5 62.5 14.8 L63.7 14.85 Q64.9 14.1 64.35 11.85 L63.2 8.4 Q64.1 8.15 65.2 9.2 66.1 10.05 66.55 11.15 L67.0 14.1"/><path fill="#ffffff" stroke="none" d="M57.6 9.85 Q58.15 10.9 58.2 12.95 L58.2 16.35 Q57.4 15.55 57.2 13.8 L56.7 11.0 Q57.1 11.0 57.45 10.55 L57.6 9.85"/><path fill="#ffffff" stroke="none" d="M51.6 21.0 Q51.55 22.45 52.3 26.25 52.95 29.55 52.6 31.45 L50.85 22.45 Q49.65 17.0 48.3 13.15 58.25 26.4 56.2 36.4 L55.4 36.85 54.55 37.0 Q54.9 27.85 51.6 21.0"/><path fill="#ffffff" stroke="none" d="M49.75 28.05 Q49.9 27.75 50.2 27.75 L50.6 27.7 Q50.8 28.1 50.4 28.25 L49.75 28.05"/><path fill="#ffffff" stroke="none" d="M41.9 28.55 Q43.25 29.75 44.0 32.55 L44.85 37.0 Q45.45 41.0 43.8 44.15 L43.65 44.0 43.25 45.05 Q42.9 45.55 42.4 45.7 L42.05 46.4 41.15 46.75 40.0 46.5 38.65 46.45 Q37.85 46.15 37.6 45.4 L37.25 45.7 36.8 45.4 36.35 44.95 Q37.0 43.9 36.9 42.6 L36.25 40.2 37.2 40.3 38.2 40.4 37.5 38.95 Q37.0 38.1 37.4 37.55 L38.7 37.6 39.95 37.45 Q41.3 36.7 41.55 35.05 41.75 33.55 41.0 32.25 40.55 32.35 40.8 33.15 41.1 34.1 40.9 34.35 38.4 36.1 36.05 34.1 39.95 36.1 41.9 28.55"/><path fill="#ffffff" stroke="none" d="M32.0 47.15 L32.5 46.3 Q32.7 46.25 32.85 46.15 L32.75 48.9 32.65 48.85 Q31.9 48.65 30.7 49.25 30.9 48.5 31.8 47.7 L31.55 47.75 32.0 47.15"/><path fill="#ffffff" stroke="none" d="M32.75 48.9 L33.5 49.55 32.9 49.75 Q32.75 49.4 32.75 48.9"/><path fill="#ffffff" stroke="none" d="M35.65 52.35 L34.8 51.7 33.95 50.75 33.5 49.55 34.45 49.15 35.0 49.75 35.6 51.0 36.15 52.15 Q36.55 52.9 37.0 52.95 L37.2 51.85 37.95 52.45 39.6 52.55 39.65 52.8 40.85 52.35 42.5 51.8 43.15 51.4 43.65 51.25 44.0 50.9 44.2 50.85 Q44.8 49.25 46.5 47.8 45.4 49.75 45.2 51.45 L45.25 53.15 Q45.3 54.5 45.05 54.6 44.25 52.85 43.7 52.45 44.2 54.3 44.0 57.8 43.95 58.7 44.55 60.4 45.15 61.95 45.0 62.95 L44.4 62.85 43.0 64.95 Q42.6 66.95 42.3 70.45 L41.75 76.0 40.9 82.4 Q40.2 86.45 39.1 88.5 L39.55 84.6 39.85 80.7 38.65 84.7 37.45 88.65 Q36.6 90.75 34.8 93.85 L31.95 98.9 31.55 99.65 29.95 99.65 Q31.35 96.05 32.2 92.5 L33.85 86.45 Q34.9 82.6 35.0 80.3 L35.0 82.75 36.0 75.95 37.2 69.3 37.4 71.1 Q38.6 67.45 38.35 61.05 38.0 60.1 38.0 59.4 L37.85 59.45 37.35 57.3 36.6 55.65 36.2 54.1 35.65 52.35"/><path fill="#ffffff" stroke="none" d="M47.4 49.3 Q47.35 48.4 47.6 48.05 48.0 48.3 48.4 49.4 L49.0 50.85 49.55 51.15 49.75 51.4 50.15 52.0 50.2 51.9 50.3 52.25 50.65 53.1 51.0 53.7 51.6 53.75 52.2 53.35 52.85 53.25 53.3 53.75 53.85 54.25 55.5 54.55 56.2 54.6 56.85 54.4 58.35 54.0 Q59.05 53.7 59.25 52.8 L59.35 52.75 Q59.4 52.45 59.65 52.45 L60.1 52.4 60.35 52.05 60.5 51.6 Q60.7 51.35 62.0 50.6 L61.4 52.7 Q61.0 54.05 61.15 54.8 61.45 55.0 61.4 55.9 L61.25 57.15 61.25 59.55 60.85 58.75 60.55 57.9 60.25 58.0 60.45 66.1 Q60.15 63.55 59.2 61.6 58.7 63.15 58.75 65.75 L58.8 69.95 Q58.1 71.3 58.0 74.0 L57.6 78.2 54.15 94.55 54.5 91.4 Q54.55 89.25 53.55 88.75 L52.2 94.2 50.75 99.65 45.3 99.65 45.55 99.15 Q46.2 97.75 46.95 94.25 L46.1 99.45 47.65 93.9 49.1 88.25 Q49.65 85.45 49.75 81.85 L49.85 75.5 Q48.95 76.6 48.0 79.95 47.05 83.15 45.95 84.35 L47.85 75.5 Q48.95 70.25 49.35 66.55 L49.85 61.25 49.6 60.55 Q48.8 60.4 48.9 59.0 L48.85 57.65 48.7 56.35 48.15 54.4 Q47.55 53.1 48.1 52.4 47.55 52.3 47.45 51.8 L47.45 50.7 47.4 49.3"/><path fill="#ffffff" stroke="none" d="M73.55 27.45 Q73.9 27.25 74.35 27.2 76.3 27.05 77.75 28.6 76.9 28.0 75.0 28.1 L74.95 28.25 77.15 30.1 Q78.25 31.4 78.3 32.65 L76.95 31.95 75.6 31.15 Q73.9 30.3 73.4 30.85 73.9 31.6 73.8 33.5 L74.25 34.85 74.65 36.2 73.8 35.55 73.95 36.2 73.2 35.15 74.8 39.85 75.6 43.35 76.25 46.85 Q75.55 44.55 74.25 42.3 72.9 39.9 71.45 38.6 71.4 40.55 72.4 43.9 73.55 47.75 73.7 49.2 73.45 47.5 72.75 46.25 72.6 47.95 73.1 50.85 L73.8 55.45 Q74.05 59.75 73.1 69.1 73.25 65.45 71.55 60.75 L71.55 64.0 71.35 62.35 Q71.45 69.55 69.55 79.15 L65.6 95.8 65.8 83.3 Q65.9 75.85 65.25 70.85 L64.6 66.2 Q64.2 63.45 64.15 61.55 L65.0 64.45 66.0 67.35 66.6 55.65 67.3 56.95 Q68.1 55.0 67.45 51.25 66.45 47.0 66.2 45.15 66.5 44.35 66.4 43.2 L66.15 42.45 65.0 40.0 Q64.05 38.65 63.9 37.75 L63.8 36.4 Q63.65 35.65 62.95 35.35 L62.7 33.45 63.75 33.75 63.2 31.9 65.05 32.1 66.8 31.8 67.0 31.8 67.0 31.45 Q68.9 31.2 70.4 30.25 70.75 29.15 71.6 29.2 L71.75 28.45 72.2 28.0 72.9 27.85 73.55 27.45"/><path fill="#ffffff" stroke="none" d="M25.95 56.35 L26.05 57.65 25.8 58.85 25.4 59.85 25.15 60.9 25.45 62.4 25.7 63.75 25.25 66.65 25.25 68.3 25.05 69.9 24.15 70.95 23.1 71.85 20.35 74.0 17.4 75.95 Q18.8 74.75 19.7 73.1 L20.45 70.9 20.95 68.65 Q21.15 68.05 22.1 66.85 23.0 65.7 23.15 64.95 L23.25 62.45 Q23.3 60.7 23.75 60.25 L23.9 60.4 Q24.05 59.5 24.55 58.25 L25.45 56.2 25.95 56.35"/><path fill="#ffffff" stroke="none" d="M86.1 47.3 Q85.9 41.35 86.0 40.3 86.1 41.95 86.7 44.2 L87.65 47.95 88.05 51.7 Q88.1 54.35 88.3 55.7 91.35 57.1 91.45 60.15 86.7 61.6 83.95 66.65 82.35 69.55 79.3 75.7 79.65 74.05 79.65 70.55 79.65 67.0 79.9 65.85 L81.0 64.7 Q80.55 60.2 81.55 58.0 81.95 57.2 83.55 56.15 85.1 55.1 85.5 54.1 86.3 52.05 86.1 47.3"/><path fill="#ffffff" stroke="none" d="M56.7 0.35 L57.45 0.35 59.15 3.25 60.9 6.1 61.0 6.5 60.75 6.9 Q63.3 9.7 62.75 13.5 L62.2 13.7 61.7 13.6 60.3 8.75 Q59.5 5.8 58.2 3.85 58.0 4.5 58.55 6.15 L59.25 8.7 Q58.55 7.25 57.85 4.7 L56.7 0.35"/></g></defs><g><g><use transform="matrix(1.0,0.0,0.0,1.0,0.0,0.0)" xlink:href="#c1"/></g></g></svg>