<?xml version='1.0' encoding='UTF-8'?>
<svg xmlns="http://www.w3.org/2000/svg" xmlns:xlink="http://www.w3.org/1999/xlink" version="1.1" width="100px" height="88px" viewBox="0.2 11.8 99.55 88.2"><defs><g id="c1"><path fill="#ffffff" stroke="none" d="M29.65 74.75 L26.2 79.5 21.4 85.75 Q19.65 87.75 10.65 93.5 16.4 83.75 17.9 82.0 18.85 80.9 24.35 77.7 L29.65 74.75"/><path fill="#ffffff" stroke="none" d="M25.0 67.65 Q18.15 71.35 16.45 72.05 14.75 72.75 7.3 73.65 L10.8 71.35 Q14.45 69.0 15.4 68.6 L20.75 67.9 25.0 67.65"/><path fill="#ffffff" stroke="none" d="M69.3 74.75 L74.6 77.7 Q80.1 80.9 81.05 82.0 82.55 83.75 88.3 93.5 79.3 87.75 77.55 85.75 L72.75 79.5 69.3 74.75"/><path fill="#ffffff" stroke="none" d="M77.6 69.6 L73.95 67.65 78.2 67.9 83.6 68.6 91.65 73.65 Q84.25 72.75 82.55 72.05 L77.6 69.6"/><path fill="#ffffff" stroke="none" d="M54.9 60.55 L67.45 58.75 54.9 57.0 62.55 46.9 52.4 54.55 50.65 41.95 48.9 54.55 38.8 46.9 46.4 57.0 33.85 58.75 46.4 60.55 38.8 70.65 48.9 63.0 50.65 75.55 52.4 63.0 62.55 70.65 54.9 60.55 M77.2 18.9 L76.6 17.5 78.65 15.25 Q79.9 13.9 81.15 13.4 L84.9 16.3 88.7 19.5 Q89.45 20.4 90.3 22.35 L91.85 25.9 94.95 32.4 Q96.4 35.8 97.35 39.8 L98.75 43.75 Q99.75 46.3 99.6 47.3 99.45 48.35 97.3 50.0 L93.9 52.05 88.25 54.95 Q84.55 56.7 82.1 57.1 L77.7 56.95 73.0 56.85 Q68.95 62.4 66.1 72.3 65.6 74.05 65.05 77.15 L64.05 81.95 63.25 85.25 Q63.0 87.05 63.7 88.65 L64.55 90.8 65.0 93.2 Q65.2 96.65 66.65 100.0 L31.7 100.0 33.35 95.8 Q34.4 93.55 35.8 92.15 L36.3 89.9 36.05 86.35 35.65 82.85 35.65 78.5 Q35.65 75.85 35.2 74.15 L34.3 72.1 33.35 70.05 Q32.0 64.95 31.15 62.95 29.75 59.55 27.45 57.55 25.9 57.55 22.75 58.3 L17.9 58.9 Q12.45 58.5 7.4 56.45 2.35 54.35 0.2 51.5 L0.2 50.95 0.55 49.35 0.6 47.75 Q3.5 37.9 7.1 30.3 11.5 21.15 16.3 16.55 19.05 17.7 21.3 19.5 20.85 20.3 21.35 21.05 22.0 21.95 22.0 22.5 L18.5 24.8 Q16.45 26.3 14.25 26.35 12.1 29.3 11.55 35.05 11.15 38.9 11.5 45.95 L16.85 44.95 Q20.05 44.5 22.0 45.7 25.3 44.0 31.1 42.95 L30.75 42.9 34.4 42.75 Q36.0 43.1 36.55 44.1 35.65 44.3 35.4 44.8 36.35 44.0 40.3 43.05 43.65 42.25 44.3 40.7 44.6 40.0 44.4 38.3 L43.85 35.7 43.35 35.25 42.7 34.55 41.9 32.75 Q41.55 32.0 40.9 31.6 39.25 27.05 38.85 23.45 38.3 18.4 40.45 16.35 L41.65 16.05 43.15 15.45 41.65 15.25 40.9 14.75 Q41.25 14.3 42.7 14.5 L44.75 14.75 Q44.0 14.25 43.6 13.6 L44.55 14.2 45.45 14.75 Q45.75 12.7 48.6 12.25 51.5 11.8 54.2 13.35 56.7 14.8 57.95 17.25 59.35 19.95 59.3 24.1 59.25 26.85 58.4 31.35 56.7 32.05 56.0 35.15 L55.0 39.8 Q55.9 41.45 58.85 42.6 60.45 43.25 63.4 44.1 L62.9 43.85 Q62.65 43.65 62.75 43.2 65.1 42.2 66.35 41.9 68.75 41.3 70.3 41.95 73.7 42.3 77.45 44.0 79.15 42.7 82.35 42.95 L88.25 43.45 Q88.2 34.6 87.95 32.15 87.4 25.6 85.25 22.7 83.05 22.55 80.6 21.8 L76.85 20.45 77.2 18.9"/></g></defs><g><g><use transform="matrix(1.0,0.0,0.0,1.0,0.0,0.0)" xlink:href="#c1"/></g></g></svg>