<?xml version='1.0' encoding='UTF-8'?>
<svg xmlns="http://www.w3.org/2000/svg" xmlns:xlink="http://www.w3.org/1999/xlink" version="1.1" width="94px" height="82px" viewBox="3.65 17.55 94.0 82.05"><defs><g id="c1"><path fill="#ffffff" stroke="none" d="M60.05 38.7 Q59.55 37.15 58.55 36.4 L58.35 36.25 Q58.65 36.55 58.55 37.2 L58.7 37.0 58.8 37.9 59.05 38.8 59.45 40.45 Q60.0 43.05 59.55 43.8 L60.5 49.05 60.95 52.1 Q61.2 53.9 61.55 55.15 L61.8 56.75 62.25 58.45 62.15 57.15 62.15 55.95 62.25 52.9 62.05 51.35 61.85 49.8 61.95 46.85 61.9 44.05 60.95 41.35 60.05 38.7 M53.9 33.55 Q54.0 32.85 53.75 32.45 L53.15 31.5 52.65 32.05 52.45 33.3 52.55 34.55 52.55 35.5 Q52.55 36.2 52.8 36.45 L52.65 38.1 52.65 39.25 Q52.75 38.75 53.4 37.55 53.95 36.55 53.95 35.8 L53.9 33.55 M89.7 44.6 Q90.8 46.45 91.15 47.65 L90.75 47.85 Q90.5 47.9 90.35 48.15 90.05 48.65 90.35 49.25 L91.1 50.35 91.95 52.55 92.55 54.6 92.1 54.85 Q91.85 54.95 91.7 55.2 L91.65 55.4 Q91.45 55.8 91.7 56.25 L92.0 57.1 91.95 58.65 Q91.9 59.6 92.25 60.15 L91.65 60.95 92.2 62.85 Q92.55 64.0 92.1 64.8 L92.45 65.9 92.45 66.95 89.4 66.2 Q88.7 65.6 87.95 64.35 L86.75 62.35 Q86.0 61.15 83.15 58.55 L83.4 58.85 Q85.15 60.75 86.4 63.1 87.4 65.2 88.55 65.95 L87.55 65.65 86.9 66.3 85.95 66.2 Q85.35 66.1 85.15 66.5 L84.0 65.7 Q83.15 65.3 82.5 65.25 L81.25 61.45 80.55 58.9 79.6 56.35 Q78.4 53.9 77.35 52.85 L78.0 53.45 80.65 55.85 Q82.25 57.15 83.65 57.55 L86.15 58.0 Q87.15 58.25 89.25 59.45 L86.2 57.55 86.15 57.6 84.9 57.1 83.6 56.7 81.0 54.9 78.45 52.6 75.9 50.3 77.3 51.05 78.85 51.75 80.2 52.05 81.5 52.45 81.6 52.35 84.9 52.7 86.55 52.75 88.1 53.0 89.65 53.6 Q90.8 53.9 91.25 54.15 L91.55 54.15 90.3 53.35 88.95 52.5 86.25 51.35 84.85 51.1 83.45 50.7 80.35 50.0 Q76.55 49.15 74.85 48.25 73.7 47.65 72.1 46.25 L69.45 44.05 71.35 44.7 73.4 45.05 Q74.95 45.05 77.55 44.25 L77.7 44.4 78.4 44.25 79.05 44.4 79.5 44.4 Q82.55 45.2 85.2 46.9 L87.7 48.65 Q89.4 49.8 90.45 49.9 L86.1 46.3 Q84.9 45.45 83.95 45.0 L82.85 44.4 81.75 44.1 80.1 43.55 74.2 42.9 Q71.9 42.95 68.5 41.7 L68.45 41.75 Q66.3 40.75 66.1 39.65 L66.8 39.4 69.25 39.6 74.0 40.1 76.6 40.2 78.6 39.95 80.6 39.8 82.55 39.45 83.55 39.3 84.4 39.35 80.25 39.2 77.65 39.55 75.25 39.25 74.7 39.25 71.8 38.2 Q70.0 37.45 68.9 37.4 L66.25 37.8 63.6 37.65 63.5 37.7 Q62.05 37.05 60.3 34.8 60.55 34.0 62.5 33.8 L65.1 34.0 67.6 34.1 70.1 34.05 71.55 33.7 73.15 33.75 75.0 33.8 75.9 33.8 76.65 33.95 77.8 33.85 78.95 33.7 80.25 33.7 81.55 33.35 79.6 33.45 77.6 33.25 75.7 33.0 73.7 32.95 72.6 32.9 71.45 33.0 70.35 32.8 69.2 32.65 66.75 32.65 65.6 32.75 64.4 32.7 64.25 32.8 63.8 32.8 63.65 32.7 61.45 33.05 60.45 33.3 59.45 33.55 Q58.3 33.55 57.25 32.8 56.5 32.3 56.7 31.0 L57.3 30.7 57.85 30.35 58.95 29.9 61.75 29.6 63.15 29.35 64.45 29.1 Q65.25 28.45 67.4 28.6 L65.7 28.5 64.1 28.35 62.95 28.45 61.75 28.4 60.75 28.65 59.75 28.65 58.2 28.6 56.55 28.35 Q55.6 28.3 54.35 29.0 L53.75 29.05 53.15 29.4 51.8 29.3 49.9 28.4 52.9 31.0 55.75 33.6 55.45 33.45 55.45 33.65 Q55.85 34.25 55.9 35.3 L55.8 37.0 55.8 40.15 55.95 43.0 55.95 45.85 56.0 46.15 Q56.05 45.4 56.45 43.85 L56.85 41.85 56.95 38.75 57.1 37.55 57.25 36.35 Q57.15 35.0 56.25 34.0 L56.8 34.45 62.2 39.2 67.55 44.0 77.25 52.75 77.1 52.95 77.55 54.5 77.5 54.6 Q77.95 55.2 78.5 56.75 L79.35 58.7 79.85 60.6 80.05 61.6 80.45 62.5 80.35 62.6 81.05 64.15 81.85 65.75 81.7 65.95 79.5 65.7 Q78.15 65.55 77.25 64.85 L76.45 65.15 76.3 64.15 76.1 63.15 Q76.15 62.55 75.8 61.65 L75.25 60.1 Q74.7 58.75 74.4 57.3 L73.5 54.25 73.0 51.25 72.45 49.5 71.9 48.55 71.3 47.7 71.2 47.7 71.65 49.0 71.95 50.45 72.55 53.2 73.1 56.75 73.8 60.15 74.85 62.8 Q75.7 64.6 76.35 65.25 L76.1 65.55 Q73.8 65.4 69.75 63.75 L69.1 64.25 69.2 62.85 69.2 61.35 69.15 58.6 Q69.0 56.4 68.05 53.05 L66.6 47.65 66.4 46.25 66.25 44.85 Q65.9 43.3 64.75 42.15 L64.4 41.8 64.3 41.65 64.85 44.1 Q65.15 45.6 65.7 46.45 L65.65 46.55 Q66.0 47.15 66.05 48.25 L66.0 49.95 66.3 53.2 Q66.6 53.65 66.75 54.85 66.9 56.05 67.15 56.5 67.05 57.0 67.5 58.45 L69.05 64.3 69.05 64.35 68.0 63.9 Q67.3 63.5 66.9 63.6 L64.55 61.75 Q63.15 60.35 62.2 59.9 L60.8 59.5 Q59.95 59.25 59.25 58.45 57.95 56.95 57.0 55.1 55.9 53.05 55.6 51.35 55.5 50.8 54.75 50.45 L53.55 49.75 Q52.6 48.95 52.3 47.15 L51.95 44.2 Q51.3 42.35 51.2 41.4 51.5 40.5 51.4 39.25 L51.15 37.15 Q50.85 36.8 50.5 35.3 L50.8 34.95 50.95 34.65 51.05 34.5 Q51.0 34.5 50.9 34.6 L51.15 33.7 51.3 32.8 51.1 32.6 50.9 32.45 Q50.8 32.15 51.1 31.25 L51.15 31.4 51.15 31.6 51.4 31.25 51.55 30.85 Q51.05 30.0 49.0 28.65 46.85 27.2 46.1 26.15 43.2 25.7 40.55 24.35 L39.95 23.75 Q39.45 22.45 37.8 21.5 36.2 20.55 34.6 20.45 32.6 20.35 31.6 21.7 L29.55 24.2 Q29.15 25.5 27.2 27.55 25.5 29.4 24.05 30.3 L23.2 32.8 Q22.5 34.3 22.6 35.6 22.85 38.3 23.7 40.5 L25.3 42.5 26.95 44.75 Q28.05 46.5 28.15 50.15 28.2 54.1 28.85 55.55 29.55 57.1 31.55 59.35 L34.7 62.75 36.1 64.7 37.6 66.35 Q39.15 69.05 39.95 71.75 L41.15 74.3 42.45 76.75 42.8 78.85 42.9 81.05 47.55 82.05 52.05 82.9 Q53.85 83.05 57.4 82.8 L62.9 82.65 Q63.25 84.9 68.1 85.3 L74.95 85.55 Q77.4 86.05 81.4 87.9 85.85 90.0 87.65 90.55 L91.95 91.35 97.65 92.2 95.6 94.75 Q90.75 99.6 82.95 99.6 L17.45 99.6 Q9.8 99.6 5.0 94.75 L3.65 93.25 7.25 93.0 10.65 92.95 Q14.65 92.6 17.6 90.9 L22.75 87.05 Q25.95 84.35 27.65 83.35 28.4 81.55 28.65 79.8 28.8 78.85 29.4 77.15 L30.15 74.55 Q30.35 72.95 29.7 72.1 L27.95 70.25 Q26.75 68.75 25.25 66.0 L22.95 61.75 Q21.55 59.4 21.35 56.45 L21.4 50.55 21.1 48.05 20.45 45.75 Q20.25 44.85 20.4 43.3 L20.4 40.8 20.3 40.45 Q19.5 39.2 19.45 37.65 18.7 35.65 18.65 34.6 18.55 32.85 19.7 31.35 L20.35 31.25 20.45 30.6 20.95 30.1 21.2 30.05 Q21.55 28.9 22.05 28.15 22.85 27.05 24.95 25.6 L27.9 23.15 30.0 19.8 Q31.1 18.15 33.2 17.65 L37.75 17.55 Q39.6 18.05 41.45 19.9 L43.8 22.4 46.7 24.8 46.85 24.55 47.15 25.05 47.8 25.35 47.2 25.15 47.2 25.25 47.25 25.85 51.65 28.8 Q54.8 27.1 59.1 26.45 L66.6 25.65 71.0 26.15 71.9 26.5 Q73.2 26.5 74.3 27.45 L75.0 28.4 75.7 29.2 76.55 29.45 77.45 29.65 80.0 30.6 82.8 33.15 Q82.8 34.35 83.3 35.35 84.65 36.15 86.0 37.5 87.4 38.85 88.2 40.25 L87.9 41.6 89.7 44.6"/></g></defs><g><g><use transform="matrix(1.0,0.0,0.0,1.0,0.0,0.0)" xlink:href="#c1"/></g></g></svg>