<?xml version='1.0' encoding='UTF-8'?>
<svg xmlns="http://www.w3.org/2000/svg" xmlns:xlink="http://www.w3.org/1999/xlink" version="1.1" width="100px" height="94px" viewBox="0.1 5.95 100.0 94.05"><defs><g id="c1"><path fill="#ffffff" stroke="none" d="M47.25 23.5 Q50.65 20.45 51.75 15.0 52.4 11.8 52.5 5.95 52.55 12.35 53.25 15.7 54.35 21.2 57.8 24.1 64.0 29.45 86.35 29.85 L69.05 30.7 Q61.3 31.75 57.85 35.2 54.45 38.6 53.35 46.35 52.6 51.6 52.5 63.7 52.4 51.6 51.65 46.35 50.6 38.6 47.15 35.2 43.75 31.75 36.0 30.7 L18.7 29.85 Q40.65 29.4 47.25 23.5"/><path fill="#ffffff" fill-opacity="0.8" d="M57.15 34.9 Q55.0 32.8 51.95 32.75 52.8 35.4 54.8 37.35 56.8 39.3 59.45 40.05 59.35 37.05 57.15 34.9 M44.35 34.75 Q46.15 32.3 49.1 31.4 L48.95 29.4 Q48.95 23.75 52.95 19.75 56.9 15.75 62.55 15.75 68.2 15.75 72.2 19.75 76.2 23.75 76.2 29.4 76.2 35.05 72.2 39.0 68.2 43.0 62.55 43.0 L60.85 42.9 Q60.0 45.9 57.55 47.8 55.0 49.75 51.8 49.75 47.95 49.75 45.2 47.0 42.45 44.25 42.45 40.4 42.45 37.25 44.35 34.75 M49.45 33.1 Q47.15 33.85 45.65 35.85 44.15 37.9 44.15 40.4 44.15 43.55 46.4 45.8 48.65 48.05 51.8 48.05 54.4 48.05 56.45 46.5 58.45 45.0 59.15 42.55 55.65 41.65 53.05 39.1 50.45 36.6 49.45 33.1 M51.45 29.4 L51.55 31.05 51.8 31.0 Q55.7 31.0 58.45 33.75 61.2 36.5 61.2 40.4 L61.2 40.45 62.55 40.5 Q67.15 40.5 70.45 37.25 73.7 34.0 73.7 29.4 73.7 24.8 70.45 21.5 67.15 18.25 62.55 18.25 57.95 18.25 54.7 21.5 51.45 24.8 51.45 29.4"/><path fill="#ffffff" fill-opacity="0.8" d="M45.7 15.0 Q48.45 17.75 48.45 21.65 48.45 25.5 45.7 28.25 42.95 31.0 39.05 31.0 35.2 31.0 32.45 28.25 29.7 25.5 29.7 21.65 29.7 17.75 32.45 15.0 35.2 12.25 39.05 12.25 42.95 12.25 45.7 15.0 M39.05 14.0 Q35.9 14.0 33.65 16.25 31.4 18.45 31.4 21.65 31.4 24.8 33.65 27.05 35.9 29.3 39.05 29.3 42.25 29.3 44.45 27.05 46.7 24.8 46.7 21.65 46.7 18.45 44.45 16.25 42.25 14.0 39.05 14.0"/><path fill="#ffffff" fill-opacity="0.8" d="M82.8 100.0 L70.9 100.0 69.6 97.1 Q66.8 88.9 63.85 70.0 L61.45 52.75 74.95 70.15 92.1 92.95 Q93.1 94.35 93.8 96.65 89.4 100.0 82.8 100.0"/><path fill="#ffffff" stroke="none" d="M21.4 48.75 L34.85 39.35 20.75 57.6 Q5.8 76.8 1.45 81.5 L0.1 83.0 0.1 64.6 Q6.6 59.25 21.4 48.75"/><path fill="#ffffff" fill-opacity="0.8" d="M18.05 71.0 L27.8 60.9 21.25 74.05 8.95 98.2 Q6.7 97.0 4.9 95.2 2.35 92.75 1.15 89.35 7.1 82.5 18.05 71.0"/><path fill="#ffffff" stroke="none" d="M48.55 54.9 Q48.05 75.4 45.35 84.35 43.15 91.65 38.25 100.0 L28.7 100.0 Q28.2 83.05 29.7 78.85 31.7 73.15 38.55 57.45 45.9 40.55 48.5 36.2 L48.55 54.9"/><path fill="#ffffff" stroke="none" d="M53.15 60.2 L57.05 74.05 Q61.15 89.9 62.3 100.0 L46.85 100.0 Q48.15 89.5 49.95 77.8 52.0 64.15 53.15 60.2"/><path fill="#ffffff" stroke="none" d="M62.2 33.2 L75.7 42.1 Q90.75 51.9 98.35 56.35 L100.1 57.55 100.1 74.55 90.85 65.7 Q83.75 58.85 72.25 45.35 L62.2 33.2"/><path fill="#ffffff" fill-opacity="0.8" d="M89.7 45.85 L85.4 42.1 100.1 48.5 100.1 54.5 89.7 45.85"/></g></defs><g><g><use transform="matrix(1.0,0.0,0.0,1.0,0.0,0.0)" xlink:href="#c1"/></g></g></svg>