<?xml version='1.0' encoding='UTF-8'?>
<svg xmlns="http://www.w3.org/2000/svg" xmlns:xlink="http://www.w3.org/1999/xlink" version="1.1" width="82px" height="86px" viewBox="9.4 13.1 81.85 86.5"><defs><g id="c1"><path fill="#ffffff" stroke="none" d="M59.85 13.2 L61.35 13.1 62.9 13.3 64.5 13.2 Q65.15 13.25 65.5 14.1 L65.75 15.85 65.75 17.65 65.75 21.0 Q65.8 23.15 66.75 23.9 L69.3 25.05 Q70.75 25.6 71.1 26.9 72.0 30.5 71.2 32.7 L69.8 34.9 68.2 37.05 Q63.65 44.0 57.0 47.45 55.2 53.45 56.55 63.25 L58.9 79.95 Q59.45 81.05 61.3 81.45 63.0 81.8 63.5 83.35 L66.15 99.6 33.0 99.6 31.8 88.15 Q32.05 87.1 33.6 85.75 35.15 84.45 35.35 83.35 34.8 79.05 37.15 64.25 39.55 48.85 39.1 42.25 38.95 39.95 38.05 35.5 37.1 31.0 36.95 28.75 36.7 25.05 37.45 23.5 L38.85 21.7 Q39.85 20.7 40.1 19.75 40.95 18.75 41.65 18.45 L42.95 18.15 44.2 17.85 Q44.55 17.2 45.4 16.5 46.3 15.75 47.0 15.55 47.8 15.35 49.05 16.05 50.35 16.7 51.35 16.4 51.9 16.25 52.85 15.25 53.7 14.35 54.45 14.3 55.1 14.25 56.4 14.8 L58.4 15.6 Q59.25 13.45 59.85 13.2"/><path fill="#ffffff" stroke="none" d="M70.55 49.6 Q70.8 49.1 71.2 49.05 L72.15 49.1 73.1 49.0 74.0 49.0 Q74.4 49.2 74.95 50.5 L76.15 50.0 77.35 49.7 Q77.8 49.75 78.3 50.3 L79.25 51.0 80.65 50.8 Q81.45 50.35 81.9 50.45 82.9 50.7 83.65 51.9 L85.2 52.25 86.15 53.05 Q86.3 53.65 86.9 54.25 L87.8 55.35 Q88.25 56.45 88.05 58.55 L87.4 62.7 86.75 66.85 Q86.45 70.9 87.95 80.35 89.4 89.45 89.05 92.1 89.2 92.8 90.15 93.6 91.1 94.4 91.25 95.05 L90.9 98.0 Q87.55 99.6 82.9 99.6 L70.6 99.6 71.8 92.1 Q72.1 91.1 73.15 90.9 74.3 90.65 74.6 90.0 L76.05 79.75 Q76.9 73.75 75.8 70.05 71.75 68.0 68.9 63.65 67.4 61.95 67.05 61.0 66.6 59.7 67.1 57.45 67.35 56.65 68.25 56.3 L69.8 55.6 Q70.35 55.15 70.4 53.8 L70.4 51.75 Q70.3 50.15 70.55 49.6"/><path fill="#ffffff" stroke="none" d="M29.0 67.45 Q29.4 69.3 29.05 70.35 L27.55 72.5 Q25.25 76.0 21.95 77.7 21.05 80.65 21.75 85.55 L22.9 93.9 Q23.15 94.45 24.1 94.6 24.95 94.8 25.2 95.55 L25.85 99.6 17.45 99.6 Q12.95 99.6 9.4 97.95 9.55 97.45 10.3 96.8 L11.15 95.6 Q10.9 93.45 12.05 86.05 13.3 78.4 13.05 75.1 L12.55 71.75 12.0 68.35 Q11.8 66.65 12.2 65.75 L12.9 64.85 13.55 63.9 14.3 63.25 15.55 62.95 Q16.2 61.95 17.0 61.8 L18.0 62.05 19.15 62.2 19.9 61.65 Q20.3 61.25 20.7 61.2 21.25 61.1 22.65 61.8 23.1 60.75 23.4 60.6 L24.15 60.6 24.9 60.65 25.7 60.65 26.2 61.05 26.3 62.85 26.3 64.5 Q26.35 65.6 26.8 65.95 L28.1 66.55 Q28.85 66.8 29.0 67.45"/></g></defs><g><g><use transform="matrix(1.0,0.0,0.0,1.0,0.0,0.0)" xlink:href="#c1"/></g></g></svg>