<?xml version='1.0' encoding='UTF-8'?>
<svg xmlns="http://www.w3.org/2000/svg" xmlns:xlink="http://www.w3.org/1999/xlink" version="1.1" width="100px" height="91px" viewBox="0.0 8.35 100.0 91.30000000000001"><defs><g id="c1"><path fill="#ffffff" stroke="none" d="M35.7 71.4 Q35.45 67.45 35.95 64.95 36.2 63.75 35.3 62.8 34.45 61.8 33.85 62.7 L33.45 63.45 33.2 63.15 Q33.1 64.3 33.65 66.45 33.9 68.3 33.55 72.15 L33.75 74.9 33.9 77.65 33.4 79.95 32.85 82.25 32.45 84.1 Q32.25 85.2 32.45 85.95 32.6 86.65 33.25 87.35 L34.4 88.45 34.9 87.7 36.15 85.9 Q36.55 85.2 36.1 83.95 L35.45 81.9 Q35.4 81.15 35.65 79.85 L35.95 77.8 35.7 71.4 M71.7 88.9 L71.15 87.1 70.35 84.85 69.65 82.6 Q69.5 81.65 69.5 79.85 L69.45 77.05 Q68.75 73.3 68.8 71.4 L69.0 69.5 68.85 67.55 Q68.65 66.95 68.55 65.6 L68.3 63.6 67.8 62.7 Q67.25 61.8 66.35 62.8 65.45 63.75 65.7 64.95 66.15 67.2 66.05 69.5 L65.5 73.95 Q65.25 75.55 65.35 77.8 L65.55 81.7 65.4 83.9 Q65.25 85.4 65.55 85.9 L66.75 87.7 68.4 89.95 70.0 92.3 70.35 93.15 71.3 92.05 71.9 90.75 Q72.0 90.0 71.7 88.9 M24.55 52.15 Q25.65 46.8 25.95 44.05 L26.55 41.45 27.25 38.85 Q27.95 35.35 29.25 34.3 32.05 32.0 36.25 31.4 L39.35 31.2 Q40.95 30.9 41.65 29.4 L42.55 27.7 43.3 27.05 43.75 26.2 42.35 22.0 Q41.3 18.5 43.15 18.55 42.8 17.75 43.35 15.1 43.8 12.7 44.3 11.7 45.2 10.0 47.05 9.1 48.75 8.35 50.8 8.45 52.95 8.35 54.65 9.1 56.5 9.95 57.35 11.7 57.85 12.7 58.35 15.1 58.9 17.75 58.55 18.55 60.35 18.5 59.3 22.0 L57.95 26.2 Q58.0 26.75 58.4 27.05 L59.1 27.7 60.05 29.4 Q60.75 30.9 62.35 31.2 L65.4 31.4 Q69.65 32.0 72.45 34.3 73.75 35.35 74.45 38.85 L75.15 41.45 75.75 44.05 Q76.05 46.8 77.1 52.15 L77.8 54.45 78.8 56.7 80.95 62.7 81.3 64.8 Q81.85 71.9 81.8 74.2 81.6 77.45 81.7 79.05 81.8 80.55 81.0 84.4 80.35 87.95 80.8 89.55 L81.05 90.75 80.25 91.6 Q79.55 92.2 79.6 92.55 L79.85 93.8 80.0 96.25 80.35 97.6 80.6 98.95 80.35 99.65 28.2 99.65 28.35 99.3 27.1 99.05 Q26.7 98.8 26.55 98.05 L26.1 96.95 25.25 96.1 Q24.7 95.6 24.6 95.0 L24.65 93.65 24.9 92.25 24.8 89.8 24.95 88.5 24.2 87.65 23.3 86.85 23.45 85.65 Q23.7 84.0 22.75 80.5 22.45 79.5 22.4 78.2 L22.35 75.85 21.85 71.05 Q21.6 69.2 21.7 66.6 L21.85 62.1 22.2 60.1 23.65 55.0 24.55 52.15"/><path fill="#ffffff" fill-opacity="0.8" d="M70.25 29.6 Q70.25 28.9 69.7 27.55 69.2 26.3 69.2 25.45 L68.45 23.95 68.0 22.6 Q67.9 21.8 68.4 21.3 67.95 18.7 69.55 16.9 71.0 15.25 73.25 15.1 76.45 14.9 78.7 19.35 L78.7 20.2 78.6 20.9 78.9 21.5 79.2 22.2 78.55 24.45 78.55 24.7 77.95 26.4 77.6 28.4 Q77.35 30.35 78.45 31.45 79.55 32.6 83.45 34.0 87.15 35.25 88.2 36.65 L87.6 34.9 Q87.15 33.75 87.2 32.95 L86.45 31.45 86.0 30.1 Q85.9 29.3 86.4 28.8 85.95 26.2 87.55 24.4 89.0 22.75 91.25 22.6 94.45 22.4 96.7 26.85 L96.7 27.7 96.6 28.4 96.9 29.0 97.2 29.7 96.55 31.95 96.55 32.2 95.95 33.9 95.6 35.9 Q95.35 37.85 96.45 38.95 97.5 40.05 100.0 40.95 L100.0 82.35 Q100.0 90.15 95.4 94.8 91.05 99.2 84.1 99.6 84.15 98.55 83.65 96.8 L83.45 96.3 83.45 95.6 83.35 94.0 Q85.1 92.2 84.25 89.35 L84.2 89.1 Q83.95 88.3 84.45 85.5 L84.65 84.6 Q85.3 81.15 85.2 79.35 L85.25 75.35 85.3 74.85 Q85.4 72.5 84.95 67.05 L84.8 65.0 84.0 61.05 81.45 54.6 80.55 52.1 80.0 48.85 79.2 44.15 78.4 40.6 77.85 38.7 Q77.1 34.05 74.7 32.1 72.7 30.5 70.25 29.6"/><path fill="#ffffff" fill-opacity="0.8" d="M12.0 22.6 Q15.2 22.4 17.45 26.85 L17.45 27.7 17.35 28.4 17.65 29.0 17.95 29.7 17.3 31.95 17.3 32.2 16.7 33.9 16.35 35.9 16.35 36.75 17.0 36.05 Q17.7 35.55 19.1 35.0 L21.45 34.1 Q24.85 32.7 25.7 32.1 L26.5 31.3 27.0 30.35 Q27.2 29.3 26.6 27.9 25.95 26.3 25.95 25.45 L25.2 23.95 24.75 22.6 Q24.65 21.8 25.15 21.3 24.7 18.7 26.3 16.9 27.75 15.25 30.0 15.1 33.2 14.9 35.45 19.35 L35.45 20.2 35.35 20.9 35.65 21.5 35.95 22.2 35.3 24.45 35.3 24.7 34.7 26.4 34.35 28.4 34.35 28.7 Q30.1 29.6 27.0 32.1 24.7 34.0 23.8 38.7 L23.3 40.6 Q22.55 43.2 22.45 44.15 L21.7 48.85 21.1 52.1 20.4 54.15 20.25 54.55 18.8 59.65 18.8 59.8 Q18.35 61.7 18.35 62.7 L18.25 65.95 Q18.05 69.7 18.35 72.0 L18.9 76.5 18.9 77.8 Q18.9 80.35 19.35 81.95 20.1 84.65 20.0 85.55 L19.95 85.8 Q19.4 88.7 21.3 90.35 L21.4 92.6 21.3 93.15 Q20.9 95.05 21.15 96.1 21.5 98.0 23.1 99.35 L23.0 99.65 17.25 99.65 Q9.5 99.65 4.8 94.8 0.6 90.75 0.1 84.35 L0.05 83.85 0.0 43.0 3.45 41.6 Q6.85 40.2 7.7 39.6 L8.5 38.8 9.0 37.85 Q9.2 36.8 8.6 35.4 7.95 33.8 7.95 32.95 L7.2 31.45 6.75 30.1 Q6.65 29.3 7.15 28.8 6.7 26.2 8.3 24.4 9.75 22.75 12.0 22.6"/></g></defs><g><g><use transform="matrix(1.0,0.0,0.0,1.0,0.0,0.0)" xlink:href="#c1"/></g></g></svg>