<?xml version='1.0' encoding='UTF-8'?>
<svg xmlns="http://www.w3.org/2000/svg" xmlns:xlink="http://www.w3.org/1999/xlink" version="1.1" width="99px" height="88px" viewBox="0.55 11.7 98.7 87.85"><defs><g id="c1"><path fill="#ffffff" stroke="none" d="M78.6 78.65 L78.65 78.5 78.5 78.45 78.6 78.65 M67.45 71.35 Q67.05 72.5 67.6 73.6 68.15 74.65 68.85 74.5 68.3 74.2 68.0 73.05 L67.45 71.35 M80.05 62.15 Q80.0 62.5 80.3 62.8 L79.65 63.7 Q80.4 65.3 81.05 68.75 81.7 72.3 81.75 75.5 83.25 74.05 83.75 72.75 L83.85 76.25 Q83.6 78.25 82.5 79.25 81.65 80.05 80.8 79.65 L77.3 78.95 74.05 77.95 Q74.5 77.5 74.4 76.55 73.3 76.5 73.35 77.6 68.65 76.8 65.25 71.9 61.65 66.75 61.9 60.2 63.7 60.5 63.85 63.2 64.05 66.8 64.3 67.2 64.1 66.2 65.15 65.35 65.0 67.0 66.3 68.7 67.45 70.1 69.35 71.2 L69.5 72.15 Q69.7 72.85 70.35 72.75 L71.35 72.6 71.3 73.45 Q72.05 74.25 73.4 73.85 L75.45 73.8 75.1 73.25 75.65 72.65 76.4 72.7 77.0 72.15 77.65 69.5 Q79.2 66.0 79.55 62.3 L79.85 61.75 79.65 62.3 80.05 62.15 M80.3 72.05 L80.3 68.45 Q80.2 66.5 79.65 65.45 L79.7 69.05 Q79.8 71.05 80.3 72.05 M80.75 76.35 Q80.85 74.9 80.3 74.15 80.3 74.95 79.6 76.0 L78.55 77.65 Q79.5 77.4 80.75 76.35"/><path fill="#ffffff" stroke="none" d="M75.1 42.15 Q74.05 42.95 72.75 43.0 71.55 43.0 73.7 41.8 74.05 42.1 74.4 42.0 L75.1 42.15"/><path fill="#ffffff" stroke="none" d="M70.25 43.9 L68.55 45.65 Q67.3 46.7 67.1 45.95 L68.55 44.8 Q69.35 44.0 70.25 43.9"/><path fill="#ffffff" stroke="none" d="M49.15 82.55 L49.5 82.0 50.2 83.0 Q49.75 82.7 49.15 82.55"/><path fill="#ffffff" stroke="none" d="M86.95 55.0 Q87.5 54.5 87.1 53.45 L86.95 53.25 Q87.1 54.3 86.6 54.25 86.2 54.2 85.9 53.6 L86.15 54.6 Q86.35 55.05 86.95 55.0 M80.4 40.2 L82.05 40.05 Q81.15 39.15 80.25 38.85 79.05 38.4 78.6 39.7 L80.4 40.2 M76.5 39.0 L71.15 36.65 Q67.8 35.05 65.7 36.9 L76.5 39.0 M57.2 19.85 Q57.6 19.2 55.75 18.35 L52.8 17.85 49.7 17.7 Q48.05 17.45 45.2 16.25 41.15 16.15 38.6 17.1 L37.9 16.05 36.05 16.8 34.4 17.8 Q34.1 17.7 34.25 17.55 L34.4 17.1 31.5 19.25 Q29.7 20.45 28.85 21.25 28.5 21.65 27.05 24.3 26.0 26.35 24.35 26.85 25.05 26.45 24.9 25.55 L24.7 24.4 Q26.6 18.25 34.9 14.95 43.15 11.7 51.8 13.6 56.7 11.85 60.9 12.5 65.75 13.25 67.65 17.1 L67.9 17.4 Q68.3 17.1 68.85 17.1 69.9 19.8 72.8 22.5 L78.15 26.9 Q84.6 32.1 83.1 37.25 83.9 38.05 84.65 40.35 85.35 42.5 86.6 43.55 86.35 44.8 87.6 50.15 88.65 54.75 87.3 56.4 L88.35 56.55 Q89.1 56.4 89.0 57.45 L87.3 57.45 Q88.7 57.5 88.95 59.1 89.2 60.7 87.95 60.9 88.9 61.45 88.7 63.0 88.5 64.85 88.8 65.35 L88.85 68.95 88.3 69.25 88.9 69.75 88.95 70.3 88.4 70.6 Q88.65 72.55 89.7 73.65 L90.9 74.65 Q91.5 75.2 91.4 75.95 L90.7 77.35 89.8 78.7 90.85 79.3 Q91.55 79.55 91.9 79.95 92.25 80.3 93.0 82.0 93.55 82.05 94.2 82.45 L95.35 83.1 Q95.15 83.75 95.85 84.9 L96.8 86.7 97.5 89.0 Q97.9 89.85 99.25 90.65 98.2 93.25 96.3 95.3 94.85 95.35 92.0 97.35 92.45 95.4 91.85 93.85 91.4 92.75 90.0 91.25 L90.55 88.95 Q90.5 87.75 89.0 87.75 88.15 87.1 88.25 85.35 L88.1 82.7 87.9 83.2 87.35 83.2 86.9 84.45 Q86.6 85.2 86.65 85.8 L85.65 87.2 Q85.15 88.05 85.1 88.95 84.6 89.15 84.15 89.95 83.75 90.7 83.75 91.2 83.35 91.55 83.35 92.15 L83.2 93.15 82.6 93.75 Q82.1 94.1 82.05 94.25 81.6 95.15 82.0 96.35 82.35 97.4 83.15 98.2 L82.3 97.5 78.5 96.75 76.6 95.9 Q75.4 95.3 74.7 95.25 L74.5 96.25 Q73.8 96.2 72.85 95.45 L71.45 94.2 Q70.85 95.15 70.7 96.85 L70.3 99.55 Q68.4 99.5 65.55 96.75 L63.8 95.15 Q62.5 94.1 61.85 94.05 61.45 94.8 60.6 94.25 59.3 93.45 59.1 93.45 L58.15 91.1 57.7 91.1 56.8 91.8 56.75 92.25 Q55.6 91.95 54.55 89.9 L52.9 86.7 50.2 83.0 51.45 84.25 52.95 85.5 55.85 86.85 58.55 88.65 Q59.1 87.75 60.55 88.45 L62.75 89.65 66.5 90.9 Q68.35 91.15 71.2 90.3 L72.0 89.9 72.6 90.35 73.15 91.25 73.8 92.1 Q74.9 90.4 77.6 88.45 L77.55 89.0 Q81.9 88.7 83.75 86.75 L83.45 87.4 85.45 85.3 87.3 83.2 86.7 83.0 Q86.7 81.75 87.0 79.8 L87.4 76.85 87.9 76.8 Q88.25 75.55 88.0 74.5 L87.45 72.3 87.3 71.05 85.9 70.1 84.75 65.1 84.6 64.55 84.6 64.4 84.55 64.3 85.2 64.25 85.9 64.75 85.65 63.85 86.25 64.05 Q86.4 63.5 86.1 63.1 85.85 62.7 85.9 62.3 L86.85 63.3 87.6 64.4 Q88.0 63.6 87.15 62.35 86.35 61.05 85.55 61.25 86.4 60.8 86.05 60.0 85.55 58.7 85.9 57.45 85.7 57.1 86.0 57.4 86.6 58.15 86.25 58.85 87.1 57.9 86.85 56.75 L85.9 54.65 Q85.35 56.55 82.25 60.45 L82.3 59.75 Q83.05 57.95 82.9 55.2 82.75 52.95 82.05 50.85 82.05 50.4 81.65 50.7 L80.65 50.85 80.95 50.25 Q81.0 49.85 80.65 49.8 82.3 48.1 83.95 49.3 85.6 50.5 85.55 53.25 88.0 48.5 84.6 45.05 81.25 41.65 75.45 42.5 76.05 41.55 73.8 41.5 L70.95 41.45 Q71.5 41.25 71.45 40.7 L71.95 40.75 Q72.15 40.1 71.65 40.05 L70.6 40.05 Q71.4 38.3 68.3 38.25 64.65 38.2 64.3 37.25 65.1 34.15 68.95 34.0 72.65 33.9 74.75 36.55 75.3 36.45 75.0 36.05 74.6 35.5 74.75 35.2 77.1 35.45 79.15 36.9 L82.4 39.7 Q82.75 30.2 75.8 29.25 76.9 28.2 71.0 26.6 65.05 25.0 62.6 25.8 L60.85 25.55 59.45 25.1 56.3 26.1 53.55 26.85 53.95 26.3 50.0 28.5 51.4 27.0 52.6 25.55 53.3 24.85 55.55 23.9 Q55.9 23.45 55.8 22.75 55.65 21.95 55.8 21.65 L57.2 19.85"/><path fill="#ffffff" stroke="none" d="M38.8 31.3 Q37.4 31.2 36.75 32.2 36.1 33.2 36.5 34.6 L37.55 36.1 Q38.2 36.95 37.65 37.6 L39.4 37.35 Q39.2 39.25 37.75 39.65 36.3 40.05 35.05 38.85 34.65 38.45 33.65 36.05 32.9 34.15 31.9 34.1 31.65 32.75 32.15 31.25 32.65 29.75 33.65 28.75 34.75 27.7 35.75 27.95 L38.1 28.85 38.35 29.75 38.6 29.25 38.75 29.45 39.0 29.55 Q39.1 30.15 38.8 31.3"/><path fill="#ffffff" stroke="none" d="M68.25 52.55 L68.5 52.9 68.45 52.35 68.25 52.55 M66.5 52.1 Q66.5 51.45 67.25 50.9 L67.6 50.5 68.35 48.45 68.7 48.2 68.7 48.65 Q70.2 44.15 76.7 43.6 83.25 43.0 84.85 47.7 81.2 45.85 78.2 45.7 74.75 45.5 72.3 47.7 L72.25 48.1 72.15 48.2 71.75 51.55 Q71.5 54.2 71.75 55.8 71.1 55.65 70.3 54.75 L69.1 53.5 68.8 52.9 68.5 53.25 68.5 52.95 68.3 53.2 68.1 52.85 Q68.0 53.2 68.2 54.7 68.35 56.0 68.0 56.35 67.6 55.45 66.5 54.65 66.35 55.15 66.45 56.4 66.6 57.65 66.4 58.2 L66.0 57.45 65.5 56.65 65.2 60.2 Q64.35 59.1 64.45 57.8 64.1 57.05 64.45 55.7 L65.0 53.6 65.35 54.35 65.7 54.2 66.2 52.1 66.5 52.1"/><path fill="#ffffff" stroke="none" d="M52.25 37.2 L56.9 36.4 Q60.8 36.25 63.85 35.35 64.15 35.9 64.05 36.65 62.25 37.15 61.2 38.25 60.55 38.95 59.2 40.8 L58.45 41.2 Q58.1 41.9 58.15 42.4 L57.65 42.45 57.2 42.5 Q57.1 42.65 57.15 43.0 L57.1 43.45 56.15 43.55 Q54.9 47.15 53.4 54.25 53.55 50.75 52.05 46.1 50.3 40.8 47.8 39.25 L47.95 38.65 48.4 38.25 Q48.3 37.15 48.45 36.9 L47.75 36.2 Q49.9 37.1 52.25 37.2"/><path fill="#ffffff" stroke="none" d="M59.5 33.25 Q58.75 34.0 57.7 34.0 56.65 34.0 55.9 33.25 55.15 32.5 55.15 31.45 55.15 30.4 55.9 29.65 56.65 28.9 57.7 28.9 58.75 28.9 59.5 29.65 60.25 30.4 60.25 31.45 60.25 32.5 59.5 33.25"/><path fill="#ffffff" stroke="none" d="M11.6 73.75 L11.65 73.75 11.7 73.65 11.85 73.05 11.7 73.05 11.6 73.75 M29.3 38.85 L29.8 39.1 30.1 39.75 30.7 40.15 31.4 40.05 32.1 39.85 32.25 40.25 32.8 39.6 33.45 39.6 33.85 41.5 36.85 40.15 Q36.55 40.3 36.35 42.1 L36.5 42.15 36.35 42.45 36.25 43.1 37.2 42.85 37.0 43.35 37.65 43.3 37.2 46.4 37.55 46.3 37.2 46.85 37.1 50.1 37.55 50.15 Q37.55 50.95 37.05 51.35 L37.15 52.9 37.2 52.9 37.15 53.1 37.45 54.4 38.25 55.7 38.6 57.2 38.8 57.25 39.5 59.5 Q39.9 60.8 39.9 61.85 L41.25 61.75 41.1 65.35 41.5 67.5 Q41.55 68.6 40.85 69.05 L41.05 72.25 42.4 72.55 Q42.65 73.95 42.95 74.15 L43.0 76.2 43.75 76.75 44.45 77.85 43.35 77.75 43.45 77.6 Q42.95 77.45 42.2 76.9 L40.6 75.3 38.95 73.7 Q38.65 73.2 38.6 71.3 38.55 69.6 38.05 69.25 L37.5 66.5 Q37.1 66.4 36.95 67.05 36.2 66.75 36.0 66.0 L35.55 64.55 Q35.1 65.0 34.95 65.75 L34.3 65.3 33.85 64.4 33.35 63.5 Q33.1 62.95 33.0 61.15 L32.55 61.95 Q31.7 62.55 30.3 65.0 29.05 67.2 27.7 67.75 L27.7 65.5 Q26.75 66.45 25.25 67.05 L23.05 68.55 20.65 71.0 Q18.9 73.25 17.3 73.7 17.4 73.25 17.85 72.7 L18.55 71.75 16.05 73.1 13.65 74.5 10.8 77.25 10.15 78.5 Q8.55 78.2 8.75 80.15 L9.45 82.85 Q8.4 81.6 7.35 84.2 6.7 85.75 6.25 88.0 L6.55 92.0 Q6.75 94.6 5.3 95.05 L6.55 96.0 5.85 96.15 5.35 95.7 Q0.55 91.05 0.55 83.25 L0.55 76.35 1.05 75.7 1.75 74.4 2.75 71.95 3.8 70.45 4.65 69.0 5.15 68.8 5.4 68.75 Q7.0 66.85 8.9 65.5 L9.05 65.45 Q10.35 65.15 11.85 63.45 13.4 61.75 14.95 61.25 14.85 58.0 17.35 55.35 17.15 53.2 17.75 51.1 18.3 49.0 19.45 47.7 19.25 41.65 21.55 38.3 21.5 34.2 22.05 32.15 22.95 28.6 25.7 27.9 25.25 28.35 25.6 28.55 L26.4 28.9 Q25.65 29.6 25.6 30.55 L25.7 32.2 26.35 33.65 26.75 33.55 Q27.65 34.7 27.95 36.9 L28.35 37.65 28.75 38.5 29.3 38.85"/></g></defs><g><g><use transform="matrix(1.0,0.0,0.0,1.0,0.0,0.0)" xlink:href="#c1"/></g></g></svg>