<?xml version='1.0' encoding='UTF-8'?>
<svg xmlns="http://www.w3.org/2000/svg" xmlns:xlink="http://www.w3.org/1999/xlink" version="1.1" width="87px" height="82px" viewBox="7.55 8.85 86.95 81.65"><defs><g id="c1"><path fill="#ffffff" stroke="none" d="M70.8 45.05 Q62.25 46.25 58.5 50.05 54.75 53.8 53.55 62.35 52.8 67.65 52.65 79.5 52.5 67.65 51.75 62.35 50.55 53.8 46.8 50.05 43.0 46.25 34.45 45.05 L17.3 44.15 34.45 43.25 Q43.0 42.05 46.8 38.3 50.55 34.55 51.75 26.0 52.5 20.7 52.65 8.85 52.8 20.7 53.55 26.0 54.75 34.55 58.5 38.3 62.25 42.05 70.8 43.25 L87.95 44.15 70.8 45.05"/><path fill="#ffffff" stroke="none" d="M28.15 60.05 Q28.85 64.9 31.0 67.05 33.15 69.2 38.0 69.9 L47.75 70.4 38.0 70.9 Q33.15 71.6 31.0 73.75 28.85 75.9 28.15 80.75 27.75 83.75 27.65 90.5 27.55 83.75 27.15 80.75 26.45 75.9 24.3 73.75 22.2 71.6 17.3 70.9 L7.55 70.4 17.3 69.9 Q22.15 69.2 24.3 67.05 26.45 64.9 27.15 60.05 27.55 57.05 27.65 50.3 27.75 57.05 28.15 60.05"/><path fill="#ffffff" stroke="none" d="M36.35 23.4 Q34.7 21.75 26.8 21.65 34.7 21.55 36.35 19.85 38.05 18.2 38.15 10.3 38.25 18.2 39.9 19.85 41.6 21.55 49.5 21.65 41.55 21.75 39.9 23.4 38.25 25.05 38.15 33.0 38.05 25.1 36.35 23.4"/><path fill="#ffffff" stroke="none" d="M74.15 46.45 Q74.6 43.35 74.65 36.25 74.7 43.4 75.15 46.45 75.75 51.0 77.75 53.0 79.75 55.0 84.35 55.65 L94.5 56.15 84.35 56.65 Q79.8 57.25 77.75 59.25 75.75 61.3 75.15 65.85 74.7 68.9 74.65 76.0 74.6 68.9 74.15 65.85 73.5 61.25 71.5 59.25 69.5 57.25 64.95 56.65 L54.8 56.15 64.95 55.65 Q69.5 55.0 71.5 53.0 73.5 51.0 74.15 46.45"/></g></defs><g><g><use transform="matrix(1.0,0.0,0.0,1.0,0.0,0.0)" xlink:href="#c1"/></g></g></svg>