<?xml version='1.0' encoding='UTF-8'?>
<svg xmlns="http://www.w3.org/2000/svg" xmlns:xlink="http://www.w3.org/1999/xlink" version="1.1" width="100px" height="100px" viewBox="0.0 0.0 100.0 99.95"><defs><g id="c1"><path fill="#ffffff" fill-opacity="0.8" d="M27.95 40.1 L23.7 44.55 21.0 47.6 19.65 49.25 0.0 46.3 0.0 27.3 27.95 40.1"/><path fill="#ffffff" fill-opacity="0.8" d="M0.15 14.55 Q0.65 8.3 3.9 4.6 7.7 0.3 15.15 0.0 L40.35 35.55 39.5 36.45 35.05 36.55 33.0 37.0 31.45 37.55 30.25 38.2 30.1 38.3 0.15 14.55"/><path fill="#ffffff" fill-opacity="0.8" d="M56.1 0.0 L75.75 0.0 59.9 34.5 59.8 34.4 Q59.5 33.15 60.15 29.8 L60.6 27.55 Q62.1 26.15 62.7 24.05 63.3 21.9 62.7 19.7 L62.05 18.4 61.45 17.8 Q61.25 12.3 58.5 9.25 57.05 7.7 55.05 6.95 L56.1 0.0"/><path fill="#ffffff" fill-opacity="0.8" d="M38.9 18.2 Q37.25 20.45 37.9 23.35 38.4 25.75 40.15 27.5 40.7 30.05 41.55 31.6 41.65 32.7 41.2 34.1 L27.7 0.0 46.85 0.0 47.45 6.85 Q44.9 7.65 42.45 9.3 41.7 9.7 41.2 10.65 40.1 12.95 39.7 17.35 L38.9 18.2"/><path fill="#ffffff" fill-opacity="0.8" d="M16.4 53.55 L15.7 54.7 14.4 57.0 13.7 58.5 13.05 60.6 Q12.65 62.45 12.8 64.2 13.0 65.8 13.7 67.25 L14.2 68.05 0.0 73.65 0.0 55.1 16.4 53.55"/><path fill="#ffffff" fill-opacity="0.8" d="M78.05 44.7 L74.55 40.5 100.0 30.45 100.0 48.95 82.4 50.6 78.05 44.7"/><path fill="#ffffff" fill-opacity="0.8" d="M71.45 37.75 L70.55 37.3 69.6 36.95 68.2 36.5 64.75 36.15 62.2 36.3 62.05 36.35 61.0 35.5 88.7 0.65 Q92.75 1.7 95.6 4.7 100.0 9.4 100.0 17.3 L100.0 18.55 72.2 38.25 71.45 37.75"/><path fill="#ffffff" fill-opacity="0.8" d="M86.25 57.3 L85.4 55.5 100.0 57.7 100.0 76.65 85.3 69.9 85.6 69.6 Q86.75 68.2 87.25 66.7 L87.75 64.3 87.75 62.55 87.3 60.25 86.25 57.3"/><path fill="#ffffff" fill-opacity="0.8" d="M24.45 72.5 L26.8 72.45 34.55 71.65 35.0 73.8 14.4 99.75 Q8.55 99.0 4.8 95.15 0.95 91.4 0.2 85.45 L19.4 71.85 19.7 71.95 21.65 72.35 24.45 72.5"/><path fill="#ffffff" fill-opacity="0.8" d="M99.15 88.75 Q98.0 92.55 95.4 95.15 90.6 99.95 82.75 99.95 L82.2 99.95 69.1 81.55 69.2 77.55 69.1 72.9 69.05 72.5 74.55 73.05 77.05 73.05 79.15 72.9 99.15 88.75"/><path fill="#ffffff" fill-opacity="0.8" d="M32.4 99.15 L32.3 99.95 26.35 99.95 35.35 80.4 Q35.0 87.3 34.4 91.45 L33.3 96.05 32.4 99.15"/><path fill="#ffffff" stroke="none" d="M33.85 60.85 L36.4 60.7 35.6 56.2 Q35.05 53.4 34.95 51.6 L33.15 53.4 28.15 58.75 26.35 60.95 26.55 61.0 33.85 60.85 M71.3 61.5 L74.6 61.5 74.4 61.15 72.5 58.4 68.05 52.9 67.05 51.8 66.5 61.3 67.7 61.35 71.3 61.5 M23.65 49.9 L26.3 46.9 30.5 42.5 31.4 41.65 31.55 41.6 31.75 41.4 31.85 41.35 32.1 41.15 32.9 40.75 34.0 40.35 35.55 40.0 36.8 39.9 39.05 39.95 40.55 40.1 Q42.9 38.5 44.05 36.25 45.45 33.55 44.95 30.4 44.35 29.6 43.95 28.2 L43.35 25.6 Q42.1 24.85 41.5 23.3 40.85 21.5 41.75 20.2 L42.35 20.05 Q42.7 19.95 42.95 20.2 L43.4 15.95 Q43.7 13.5 44.35 12.2 48.25 9.7 51.55 9.8 58.4 10.05 57.95 20.2 L58.6 20.35 59.35 20.6 Q59.75 22.2 59.15 23.65 58.55 25.1 57.35 25.6 L56.45 30.6 Q55.85 33.6 56.55 35.8 56.75 36.4 58.2 37.7 L61.15 40.0 64.75 39.65 66.0 39.7 67.45 39.95 69.1 40.5 69.95 40.95 70.2 41.15 70.3 41.2 70.35 41.25 70.55 41.4 72.8 43.8 75.3 46.85 79.95 53.2 Q81.2 55.1 82.05 56.75 L83.05 58.7 83.95 61.15 84.25 62.85 84.25 64.0 83.95 65.55 82.95 67.3 82.15 68.05 82.1 68.1 81.95 68.2 81.9 68.25 81.7 68.4 81.45 68.5 79.5 69.25 76.9 69.55 74.7 69.55 66.85 68.65 65.5 68.4 Q65.35 69.95 65.6 72.95 L65.7 77.35 Q65.45 81.7 65.85 86.0 66.3 90.6 67.3 93.75 L68.75 99.95 35.8 99.95 36.95 95.95 37.9 91.95 Q38.6 86.85 38.85 79.75 39.0 76.6 38.45 73.35 L37.15 67.7 34.6 68.1 26.6 68.95 24.5 69.0 22.1 68.9 20.6 68.6 19.65 68.25 18.8 67.8 18.6 67.65 18.55 67.65 18.5 67.6 18.35 67.5 18.3 67.45 Q17.4 66.7 16.85 65.7 16.4 64.8 16.3 63.8 16.15 62.6 16.45 61.35 L16.95 59.8 17.5 58.55 18.65 56.55 21.1 53.05 23.65 49.9"/></g></defs><g><g><use transform="matrix(1.0,0.0,0.0,1.0,0.0,0.0)" xlink:href="#c1"/></g></g></svg>