<?xml version='1.0' encoding='UTF-8'?>
<svg xmlns="http://www.w3.org/2000/svg" xmlns:xlink="http://www.w3.org/1999/xlink" version="1.1" width="98px" height="98px" viewBox="0.0 0.4 98.4 97.5"><defs><g id="c1"><path fill="#ffffff" fill-opacity="0.8" d="M45.15 76.9 L47.45 69.3 48.8 73.35 46.85 75.4 50.15 78.0 48.6 81.4 51.05 81.5 Q53.4 81.8 52.95 82.5 52.25 83.65 51.5 86.55 L57.75 87.25 54.0 90.05 50.15 89.3 48.8 84.55 46.6 81.4 45.15 76.9"/><path fill="#ffffff" stroke="none" d="M79.35 76.6 Q79.1 76.0 78.35 75.75 77.5 75.4 75.3 77.2 74.0 78.3 74.55 77.75 75.1 76.4 74.95 75.3 L74.95 74.25 75.05 74.0 74.25 74.35 72.9 74.6 Q72.2 74.45 73.35 73.2 L70.55 73.75 69.8 70.9 Q67.6 71.7 66.35 71.2 65.05 70.7 68.65 69.75 L69.0 69.05 Q69.1 68.3 67.55 68.0 66.0 67.65 64.9 68.55 L64.1 69.5 64.0 66.9 63.25 66.0 61.8 64.95 56.6 63.85 Q62.25 62.8 65.2 65.3 67.5 67.2 75.1 71.6 79.55 74.15 81.2 75.2 84.2 77.15 84.85 78.35 L86.35 81.25 Q85.85 81.3 84.3 83.35 82.6 85.55 80.2 86.25 L77.05 86.95 77.3 86.65 Q81.8 83.75 83.1 81.55 83.95 80.05 83.45 78.95 83.05 77.85 82.45 78.35 L81.5 79.75 Q80.75 80.85 79.95 81.05 L75.9 81.3 Q77.0 80.9 78.65 78.8 79.75 77.45 79.35 76.6"/><path fill="#ffffff" stroke="none" d="M89.65 72.25 L88.85 74.65 Q88.3 76.05 89.0 78.45 L89.85 80.55 93.35 79.2 Q90.9 77.95 90.55 76.05 L89.85 71.5 89.65 72.25 M56.45 32.8 Q52.65 34.2 51.15 35.75 48.4 38.6 45.35 41.15 L37.35 47.85 Q32.45 52.15 40.65 54.25 47.6 56.0 53.4 55.15 59.15 54.3 70.15 59.75 71.0 60.2 79.25 65.95 84.7 69.75 83.25 67.05 81.25 63.25 77.15 58.0 72.8 52.4 71.8 52.85 L71.5 52.95 71.4 52.9 71.35 52.9 Q71.0 52.65 71.3 50.85 L71.55 49.75 71.8 49.7 71.6 49.5 71.8 47.85 Q71.8 45.4 71.4 41.7 70.85 36.6 69.9 34.7 69.0 32.85 64.8 29.6 L60.75 26.75 Q58.85 31.9 56.45 32.8 M59.55 22.55 Q60.8 19.6 60.75 18.15 60.7 17.25 59.45 14.8 L57.15 10.3 55.75 7.7 Q55.3 7.55 53.9 10.0 L51.8 13.4 49.95 15.55 Q48.75 17.05 46.35 21.2 43.85 25.5 43.15 27.4 42.55 29.05 41.45 29.65 L40.45 29.95 42.8 32.05 Q41.85 34.9 42.1 34.65 42.35 34.45 45.8 33.25 L47.8 34.35 50.05 29.8 52.25 29.3 54.1 25.45 52.1 26.4 Q50.1 27.35 49.95 27.6 49.7 28.05 48.6 28.15 47.35 28.25 47.2 27.2 47.1 26.25 50.8 19.9 L54.85 13.2 56.2 13.25 Q57.35 13.95 57.35 15.4 57.4 17.55 59.55 22.55 M4.25 44.75 Q5.65 48.3 4.85 50.25 3.3 54.0 2.15 55.65 3.0 56.2 4.2 56.45 6.65 57.0 8.5 55.65 L11.9 53.1 Q13.2 52.45 13.35 54.2 13.6 56.85 14.55 62.5 14.75 61.2 15.4 59.8 16.65 57.0 18.9 56.35 21.2 55.75 22.1 57.8 22.55 58.85 22.55 60.0 L23.6 63.7 Q24.9 67.5 26.45 68.25 27.45 68.75 26.8 62.75 26.05 55.95 27.9 54.9 30.05 53.7 32.6 49.45 L34.7 45.45 Q22.05 53.2 20.85 52.5 L14.6 47.15 8.5 41.8 Q2.9 37.8 1.6 37.45 0.6 37.2 1.7 39.45 L4.25 44.75 M16.3 0.4 L22.9 0.65 Q28.0 9.0 30.7 6.85 31.5 6.15 32.0 4.5 L32.35 3.0 36.3 8.15 Q40.95 12.9 44.45 11.05 L46.0 10.9 47.8 11.15 45.7 18.0 Q46.75 15.95 48.8 14.1 50.15 12.85 50.95 11.3 L51.0 11.3 51.15 10.85 51.5 9.95 Q53.95 3.75 55.4 2.7 56.55 1.85 57.2 4.15 L58.2 8.15 60.3 12.4 62.45 16.9 Q63.05 18.45 62.75 20.95 L60.2 24.25 Q62.4 24.0 63.7 23.1 L66.3 26.55 69.9 30.6 Q71.9 33.0 72.5 35.1 73.1 37.05 73.5 41.6 L74.05 46.45 74.15 48.05 Q74.15 48.95 74.45 49.55 L75.75 51.75 Q76.1 53.0 73.25 52.2 L75.75 53.4 Q79.35 55.4 81.9 58.45 L89.9 68.05 95.95 69.65 Q98.4 70.45 97.4 74.35 96.9 76.2 95.9 77.45 L93.6 79.5 Q90.9 81.25 88.7 81.45 L86.6 77.35 Q85.75 75.85 82.7 73.8 80.75 72.5 76.1 69.85 69.1 65.95 66.5 63.75 61.55 59.55 52.2 63.0 49.75 62.8 48.4 64.25 46.9 65.8 45.65 70.1 43.9 76.55 43.75 77.95 43.65 78.8 44.8 81.4 L46.3 84.95 48.1 89.7 48.1 89.65 48.65 91.25 Q49.0 91.65 50.45 91.95 52.1 92.3 53.25 91.95 L58.55 90.8 56.65 92.3 53.7 94.4 Q52.3 95.2 49.1 95.75 L47.95 96.5 Q46.75 97.25 46.6 97.55 46.45 97.9 45.4 97.9 L43.45 97.6 Q37.8 95.55 37.0 92.7 36.6 91.25 36.35 87.7 L35.8 82.4 Q35.3 79.75 33.85 74.95 32.3 69.85 31.6 68.85 30.75 67.7 30.4 67.6 29.9 67.4 29.2 68.35 28.35 69.5 27.45 71.45 26.45 73.6 26.4 74.6 26.4 75.55 25.45 74.8 L24.1 73.35 23.1 71.9 21.95 70.9 Q17.35 70.05 16.15 73.05 15.55 74.55 15.9 76.2 14.25 75.35 12.8 74.1 9.9 71.55 11.1 69.35 L6.55 70.3 Q5.7 66.85 4.45 64.1 2.0 58.7 0.15 62.5 L0.0 16.75 Q0.0 14.9 0.75 12.35 2.15 7.25 5.65 3.95 9.0 0.75 16.3 0.4"/><path fill="#ffffff" fill-opacity="0.8" d="M34.7 45.45 L32.6 49.45 Q30.05 53.7 27.9 54.9 26.05 55.95 26.8 62.75 27.45 68.75 26.45 68.25 24.9 67.5 23.6 63.7 L22.55 60.0 Q22.55 58.85 22.1 57.8 21.2 55.75 18.9 56.35 16.65 57.0 15.4 59.8 14.75 61.2 14.55 62.5 13.6 56.85 13.35 54.2 13.2 52.45 11.9 53.1 L8.5 55.65 Q6.65 57.0 4.2 56.45 3.0 56.2 2.15 55.65 3.3 54.0 4.85 50.25 5.65 48.3 4.25 44.75 L1.7 39.45 Q0.6 37.2 1.6 37.45 2.9 37.8 8.5 41.8 L14.6 47.15 20.85 52.5 Q22.05 53.2 34.7 45.45"/><path fill="#ffffff" fill-opacity="0.8" d="M45.35 41.15 Q48.4 38.6 51.15 35.75 52.65 34.2 56.45 32.8 58.85 31.9 60.75 26.75 L64.8 29.6 Q69.0 32.85 69.9 34.7 70.85 36.6 71.4 41.7 71.8 45.4 71.8 47.85 L71.6 49.5 Q69.65 47.75 69.2 43.75 68.6 38.35 64.7 39.55 63.15 40.0 61.95 41.35 60.75 42.8 60.75 44.3 60.7 45.1 61.25 45.8 L63.7 48.0 Q65.45 49.4 68.4 49.6 L71.6 49.5 71.3 50.85 Q71.05 52.65 71.35 52.9 L71.4 52.9 71.5 52.95 71.8 52.85 Q72.8 52.4 77.15 58.0 81.25 63.25 83.25 67.05 84.7 69.75 79.25 65.95 71.0 60.2 70.15 59.75 59.15 54.3 53.4 55.15 47.6 56.0 40.65 54.25 32.45 52.15 37.35 47.85 L45.35 41.15"/></g></defs><g><g><use transform="matrix(1.0,0.0,0.0,1.0,0.0,0.0)" xlink:href="#c1"/></g></g></svg>