<?xml version='1.0' encoding='UTF-8'?>
<svg xmlns="http://www.w3.org/2000/svg" xmlns:xlink="http://www.w3.org/1999/xlink" version="1.1" width="88px" height="96px" viewBox="6.4 4.1 88.44999999999999 95.7"><defs><g id="c1"><path fill="#ffffff" stroke="none" d="M72.6 51.4 L72.5 47.1 Q72.35 45.85 71.15 45.25 67.85 43.55 66.3 47.0 L66.2 48.95 65.7 53.7 Q64.85 59.3 66.75 61.65 68.0 63.2 68.85 63.45 70.0 63.7 70.8 61.9 72.9 57.55 72.6 51.4 M61.35 33.35 Q59.15 34.6 58.75 36.3 57.65 41.4 57.85 46.25 57.95 48.9 59.0 51.15 60.1 53.55 61.3 53.35 64.0 52.85 64.85 45.15 L65.5 38.35 Q65.6 35.5 64.65 33.8 63.7 32.0 61.35 33.35 M42.5 49.6 Q39.7 50.5 36.4 53.7 32.5 57.45 30.3 62.35 28.3 66.8 29.85 71.5 30.65 73.9 31.8 75.35 33.4 79.15 36.8 79.0 39.5 78.85 42.25 76.65 44.85 74.55 47.95 73.7 51.75 72.65 54.9 74.0 59.1 76.7 60.9 77.55 63.85 78.9 66.0 75.55 68.25 72.1 67.2 68.3 L64.25 61.25 Q62.8 57.7 59.6 55.1 56.75 52.75 55.25 53.15 54.55 53.35 49.4 51.2 44.3 49.0 42.5 49.6 M30.05 40.85 L28.9 45.3 Q27.95 50.35 28.9 53.3 30.0 56.55 32.15 55.75 34.1 54.95 35.05 52.05 36.0 49.25 36.1 45.35 36.15 41.2 35.05 39.95 33.9 38.55 32.6 38.75 31.25 38.95 30.05 40.85 M49.75 30.4 Q49.0 32.3 48.75 34.8 48.5 37.9 48.55 45.0 L48.75 46.65 Q49.1 48.4 49.95 48.85 51.25 49.5 52.7 49.4 54.45 49.3 55.05 47.95 55.75 46.3 56.2 39.95 56.6 33.4 56.0 31.15 55.45 28.95 54.1 28.0 52.9 27.2 51.85 27.7 50.6 28.3 49.75 30.4 M39.25 34.55 L38.95 39.15 38.5 44.9 Q38.5 47.2 39.45 47.8 40.7 48.55 42.65 48.3 44.8 48.05 45.3 46.65 45.95 44.9 46.25 39.6 46.6 33.95 45.85 32.75 44.7 30.9 42.8 30.25 40.45 29.45 39.55 32.3 L39.25 34.55 M45.75 14.35 L46.95 13.4 45.5 18.55 Q44.6 21.8 45.8 25.85 47.65 28.55 47.5 30.15 49.2 23.85 51.35 22.65 L51.85 18.35 Q52.3 15.4 51.65 12.75 L50.95 10.75 50.9 9.95 Q51.0 9.45 51.85 10.8 55.0 15.85 54.65 22.8 55.85 23.7 56.7 25.5 58.0 28.0 59.1 28.9 L59.6 29.3 Q60.2 29.45 60.75 28.2 60.65 25.7 61.15 22.9 61.55 20.6 61.1 18.35 L60.6 16.6 Q60.55 16.2 60.65 16.0 60.85 15.6 61.45 16.65 62.25 18.15 63.15 21.2 64.1 24.7 64.25 27.3 L64.25 28.45 65.35 29.6 Q66.55 30.95 67.1 35.7 L67.45 40.2 Q67.95 39.75 68.75 39.65 L69.0 36.8 69.3 33.85 Q69.35 32.15 69.05 30.8 L68.7 29.85 Q68.3 28.65 69.3 29.5 70.35 30.3 71.25 32.75 72.85 37.1 72.2 41.15 L73.7 42.9 Q75.25 45.15 76.15 47.6 76.9 49.6 77.0 51.0 77.25 55.85 76.5 59.7 75.85 63.1 74.65 64.55 73.75 65.7 71.95 66.1 L70.35 66.3 71.05 67.85 Q71.7 70.05 71.15 73.2 70.5 77.3 68.35 80.1 65.95 83.2 62.75 83.05 61.65 83.0 56.75 80.6 52.5 78.55 49.25 79.45 46.15 80.35 40.75 82.55 36.15 83.9 32.45 82.0 29.45 80.45 27.55 75.7 25.7 71.0 25.45 64.25 25.35 62.2 26.95 59.6 L28.6 57.45 Q27.1 56.75 25.8 55.15 23.2 51.95 24.3 47.35 27.45 34.85 31.2 34.45 31.1 33.5 31.55 31.8 L32.8 27.9 Q33.75 24.95 35.15 23.25 L36.3 22.1 Q35.35 23.8 35.0 27.7 L34.5 33.65 34.25 35.1 36.5 35.9 Q36.5 32.8 38.1 29.8 39.6 27.15 41.65 25.75 41.3 23.7 43.4 18.2 44.35 15.75 45.75 14.35"/><path fill="#ffffff" fill-opacity="0.8" d="M10.25 98.55 Q8.15 97.8 6.4 96.5 L8.25 24.95 10.25 98.55"/><path fill="#ffffff" fill-opacity="0.8" d="M81.55 99.8 L76.75 99.8 78.75 6.6 81.55 99.8"/><path fill="#ffffff" fill-opacity="0.8" d="M70.95 64.6 L72.8 64.5 74.35 99.8 69.85 99.8 70.95 64.6"/><path fill="#ffffff" fill-opacity="0.8" d="M29.6 99.8 L25.25 99.8 26.15 30.85 29.6 99.8"/><path fill="#ffffff" fill-opacity="0.8" d="M32.5 80.5 Q33.2 80.95 34.1 80.9 35.0 80.9 35.65 80.4 L36.6 99.8 32.25 99.8 32.5 80.5"/><path fill="#ffffff" fill-opacity="0.8" d="M39.5 79.2 Q41.25 80.15 42.55 79.0 L43.6 99.8 39.25 99.8 39.5 79.2"/><path fill="#ffffff" fill-opacity="0.8" d="M50.7 76.15 L51.4 75.75 52.6 99.8 48.25 99.8 48.55 76.25 50.7 76.15"/><path fill="#ffffff" fill-opacity="0.8" d="M57.5 79.55 Q58.25 80.1 59.15 79.85 60.0 79.65 60.55 78.95 L61.6 99.8 57.25 99.8 57.5 79.55"/><path fill="#ffffff" fill-opacity="0.8" d="M64.55 77.75 Q65.05 78.3 65.95 78.4 L67.5 78.1 68.6 99.8 64.25 99.8 64.55 77.75"/><path fill="#ffffff" fill-opacity="0.8" d="M94.85 95.05 L94.75 95.2 Q92.9 97.0 90.75 98.05 L91.65 30.85 94.85 95.05"/><path fill="#ffffff" fill-opacity="0.8" d="M12.75 99.3 L13.65 4.1 17.05 99.75 12.75 99.3"/><path fill="#ffffff" fill-opacity="0.8" d="M88.15 99.0 L84.05 99.7 84.9 7.1 88.15 99.0"/><path fill="#ffffff" fill-opacity="0.8" d="M21.85 99.8 L18.1 99.8 20.25 9.95 21.85 99.8"/></g></defs><g><g><use transform="matrix(1.0,0.0,0.0,1.0,0.0,0.0)" xlink:href="#c1"/></g></g></svg>