<?xml version='1.0' encoding='UTF-8'?>
<svg xmlns="http://www.w3.org/2000/svg" xmlns:xlink="http://www.w3.org/1999/xlink" version="1.1" width="75px" height="100px" viewBox="12.3 -0.15 75.4 100.30000000000001"><defs><g id="c1"><path fill="#ffffff" stroke="none" d="M44.3 63.85 Q43.25 61.25 43.3 59.75 42.9 59.5 42.6 58.75 L42.05 57.3 41.3 55.0 Q41.05 53.65 41.9 52.8 41.2 48.45 43.85 45.45 46.3 42.7 50.1 42.4 53.3 42.2 55.8 44.6 57.55 46.25 59.25 49.55 L59.2 50.95 59.1 52.2 59.6 53.1 Q60.0 53.75 60.0 54.35 60.05 55.4 58.95 58.05 L59.0 58.25 58.95 58.5 Q58.55 59.1 58.0 61.4 L57.4 64.7 Q57.0 68.0 58.8 69.8 60.65 71.75 67.45 74.15 73.85 76.4 75.5 78.95 77.75 82.4 78.0 88.5 L77.65 100.15 25.8 100.15 25.65 98.6 24.8 93.05 Q24.4 89.9 24.55 87.5 25.05 79.8 28.3 77.55 29.45 76.75 31.75 75.85 L35.7 74.3 39.45 72.75 Q41.65 71.8 42.85 70.9 L44.15 69.55 45.0 67.95 Q45.3 66.25 44.3 63.85"/><path fill="#ffffff" fill-opacity="0.8" d="M69.65 -0.15 L77.3 -0.15 77.3 75.3 Q74.9 72.75 69.65 70.9 L69.65 -0.15"/><path fill="#ffffff" fill-opacity="0.8" d="M85.25 -0.1 L87.7 0.25 87.7 99.3 85.25 99.7 85.25 -0.1"/><path fill="#ffffff" fill-opacity="0.8" d="M42.8 13.6 L45.8 13.7 Q51.9 14.05 53.35 15.55 55.2 17.35 55.3 26.15 55.4 18.45 56.6 16.4 58.05 13.95 64.0 13.65 L64.0 68.8 Q62.15 67.95 61.3 67.05 60.65 66.4 60.85 64.8 61.3 61.5 61.9 60.0 62.5 59.2 62.5 58.1 L62.7 57.6 Q63.55 55.25 63.5 53.9 63.5 52.5 62.7 51.15 62.9 49.65 62.65 48.4 L62.35 47.6 Q60.6 44.15 58.7 42.15 55.2 38.55 50.65 38.55 L49.85 38.6 Q47.9 38.75 45.8 39.55 45.85 30.95 47.95 29.1 49.8 27.45 58.25 27.35 49.6 27.25 47.75 25.4 45.9 23.55 45.8 14.8 45.7 22.65 44.45 24.6 42.95 27.05 36.6 27.25 L36.6 -0.15 64.0 -0.15 64.0 13.5 Q58.05 13.25 56.6 10.75 55.4 8.75 55.3 1.0 55.2 9.8 53.35 11.65 51.5 13.5 42.8 13.6"/><path fill="#ffffff" fill-opacity="0.8" d="M36.6 27.4 Q42.75 27.6 44.3 29.8 45.75 31.8 45.8 39.55 42.9 40.75 40.8 43.3 38.0 46.9 38.3 51.55 37.2 53.9 38.6 57.7 L38.8 58.15 38.95 58.65 Q39.35 59.9 39.85 60.75 40.0 62.25 41.0 64.6 41.65 66.2 41.6 66.75 L40.8 67.75 Q39.5 68.65 36.6 69.85 L36.6 27.4"/><path fill="#ffffff" fill-opacity="0.8" d="M12.3 0.15 L15.65 -0.15 15.65 99.75 12.3 99.2 12.3 0.15"/><path fill="#ffffff" fill-opacity="0.8" d="M24.65 -0.15 L30.3 -0.15 30.3 72.3 Q27.75 73.35 26.25 74.35 L24.65 75.9 24.65 -0.15"/></g></defs><g><g><use transform="matrix(1.0,0.0,0.0,1.0,0.0,0.0)" xlink:href="#c1"/></g></g></svg>