<?xml version='1.0' encoding='UTF-8'?>
<svg xmlns="http://www.w3.org/2000/svg" xmlns:xlink="http://www.w3.org/1999/xlink" version="1.1" width="91px" height="99px" viewBox="4.05 0.4 91.3 99.25"><defs><g id="c1"><path fill="#ffffff" stroke="none" d="M4.65 56.35 Q5.3 47.85 10.3 41.65 13.4 37.8 20.0 33.25 25.75 29.3 34.95 27.6 43.4 26.0 51.0 26.9 L62.75 28.4 67.35 29.05 63.05 30.0 54.95 31.4 50.0 32.0 Q50.95 40.45 50.7 42.95 49.8 51.8 43.0 59.4 37.85 65.1 30.75 68.35 24.05 71.4 17.45 71.4 L12.15 70.95 Q10.95 70.65 10.7 70.25 L9.45 71.8 Q8.2 74.45 7.9 80.3 7.1 96.7 5.75 89.85 L4.55 79.75 4.25 72.8 Q4.05 64.25 4.65 56.35 M19.65 60.45 Q16.75 61.25 15.75 54.45 14.95 49.25 15.45 45.1 L15.8 41.85 Q15.8 41.75 15.1 42.2 14.25 42.75 11.0 48.0 8.15 52.7 8.85 61.65 L9.65 66.2 Q16.45 68.6 24.0 65.5 27.7 63.95 34.75 59.05 39.05 56.05 42.0 51.65 45.1 47.05 45.45 42.9 L45.95 36.05 Q45.8 33.3 44.15 32.15 41.85 30.6 33.95 32.25 30.0 33.1 26.55 34.2 27.3 34.05 27.85 36.3 28.5 39.05 28.55 44.75 28.65 50.0 26.2 54.55 23.65 59.35 19.65 60.45"/><path fill="#ffffff" fill-opacity="0.8" d="M60.15 0.4 Q63.55 1.65 64.65 3.25 66.95 6.45 78.7 39.85 L90.0 72.6 71.9 31.9 Q69.25 25.85 62.55 15.2 55.55 4.1 54.1 4.2 52.9 4.3 47.15 6.85 L37.2 11.15 Q34.4 12.25 27.1 16.95 22.0 20.3 23.15 18.5 L30.35 8.2 35.9 0.4 60.15 0.4"/><path fill="#ffffff" fill-opacity="0.8" d="M23.65 0.4 L14.1 5.95 Q11.5 6.9 7.75 23.6 5.9 32.0 4.55 40.15 4.25 10.4 5.4 5.8 6.55 1.3 15.2 0.4 L23.65 0.4"/><path fill="#ffffff" fill-opacity="0.8" d="M67.35 45.6 Q67.35 44.55 68.2 47.55 69.1 50.6 69.2 54.45 69.6 66.55 62.3 78.05 59.6 82.35 53.15 87.8 47.85 92.35 41.45 96.45 L39.1 98.1 Q37.6 99.15 36.3 99.65 L20.85 99.4 Q20.65 96.75 23.45 94.65 L30.85 90.0 Q37.25 85.9 44.05 80.8 53.1 74.0 57.0 69.6 60.95 65.1 63.95 58.7 67.35 51.4 67.35 45.6"/><path fill="#ffffff" fill-opacity="0.8" d="M64.15 99.55 L56.95 99.45 Q56.9 98.2 58.15 97.2 L61.6 95.05 67.8 90.75 Q72.0 87.55 73.85 85.5 75.7 83.45 77.1 80.45 78.7 77.0 78.7 74.3 L79.55 78.45 Q79.75 84.05 76.35 89.45 73.85 93.35 66.6 98.05 L65.5 98.8 64.15 99.55"/><path fill="#ffffff" fill-opacity="0.8" d="M69.25 0.4 L80.05 0.4 85.0 3.35 Q90.45 7.75 92.9 15.2 95.35 22.65 93.55 30.65 92.7 34.7 91.3 37.2 91.75 33.6 91.0 28.75 89.5 19.15 83.6 13.25 L74.8 5.2 69.25 0.4"/></g></defs><g><g><use transform="matrix(1.0,0.0,0.0,1.0,0.0,0.0)" xlink:href="#c1"/></g></g></svg>