<?xml version='1.0' encoding='UTF-8'?>
<svg xmlns="http://www.w3.org/2000/svg" xmlns:xlink="http://www.w3.org/1999/xlink" version="1.1" width="93px" height="95px" viewBox="0.45 1.6 93.25 95.15"><defs><g id="c1"><path fill="#ffffff" stroke="none" d="M36.9 37.15 L34.65 38.4 Q32.2 39.7 31.3 39.8 29.9 39.95 25.75 38.95 26.25 37.9 27.4 36.9 29.65 34.8 32.75 34.8 34.1 34.8 35.65 36.0 L36.9 37.15"/><path fill="#ffffff" stroke="none" d="M51.75 31.45 L52.5 29.85 Q53.5 28.2 54.75 27.8 L59.35 28.0 Q62.4 28.7 62.05 29.65 L61.4 31.55 Q61.0 32.55 60.25 32.65 L55.2 32.8 Q51.15 32.65 51.75 31.45"/><path fill="#ffffff" stroke="none" d="M41.65 51.05 L47.6 49.95 56.05 47.3 Q57.75 46.75 58.75 48.25 L59.9 50.8 Q61.3 53.55 60.8 56.45 60.55 57.9 60.0 58.8 L57.75 50.8 56.9 53.95 54.25 52.65 51.7 52.85 47.6 53.3 Q45.6 53.65 40.75 55.45 39.9 55.65 39.4 55.45 39.2 55.4 39.15 53.9 39.1 52.7 38.75 53.3 38.05 54.45 40.7 63.25 36.9 58.3 35.75 55.95 35.0 54.5 35.3 53.45 L35.75 52.65 Q36.9 51.85 41.65 51.05"/><path fill="#ffffff" stroke="none" d="M42.35 73.35 L44.05 76.45 49.75 74.45 51.65 74.05 58.8 74.2 60.05 68.55 60.9 71.15 Q61.6 74.15 60.8 76.0 59.45 79.1 53.25 77.3 L49.0 77.4 47.6 78.7 45.4 79.1 43.55 79.3 Q43.05 79.3 42.4 78.15 L40.95 71.7 Q40.7 70.5 42.35 73.35"/><path fill="#ffffff" stroke="none" d="M27.5 19.35 Q32.65 16.8 39.3 15.15 46.35 13.4 51.3 13.45 56.15 13.45 57.95 15.15 59.55 16.65 58.15 18.35 57.25 19.45 54.3 21.25 52.55 22.3 51.65 24.15 L49.85 27.6 Q48.95 28.85 47.6 28.85 46.4 28.85 45.8 30.2 45.05 31.85 45.75 32.8 L47.65 35.1 50.25 39.3 Q51.7 41.75 51.05 41.35 L49.05 39.55 Q47.45 38.0 46.0 37.3 L43.6 37.35 41.65 39.8 Q40.6 41.0 40.15 42.1 L40.1 42.35 40.1 41.75 Q40.1 40.1 40.4 37.45 40.8 34.05 41.4 32.85 41.95 31.7 41.2 31.25 L39.1 30.2 36.4 30.1 Q34.05 30.3 31.3 28.75 28.3 27.1 25.45 28.3 23.95 28.95 22.85 30.2 20.95 32.8 20.0 30.5 19.05 28.2 20.45 25.1 21.75 22.25 27.5 19.35"/><path fill="#ffffff" stroke="none" d="M31.45 8.25 L40.6 1.6 40.6 5.6 47.9 1.85 47.9 5.7 60.95 3.3 59.8 9.45 70.05 2.35 67.5 10.45 72.4 10.3 74.2 10.4 74.9 11.0 Q75.05 11.55 74.6 11.95 74.2 12.35 72.25 16.65 L80.35 17.1 73.35 24.25 79.7 28.15 77.5 31.2 Q78.2 31.4 78.6 31.95 79.9 33.8 80.5 39.85 81.1 46.65 79.2 49.45 77.3 52.35 75.8 53.6 L77.5 59.9 79.4 64.95 82.15 72.6 Q82.7 74.25 83.35 78.25 84.0 82.45 84.55 84.5 85.45 87.85 86.9 89.55 88.95 92.0 93.7 95.85 L92.35 96.75 Q87.75 93.05 85.7 90.6 84.1 88.7 83.1 85.1 L81.8 78.5 Q81.25 74.75 80.7 73.1 L76.05 60.4 76.0 60.35 73.95 52.6 74.65 52.5 Q75.65 52.0 77.95 48.55 79.55 46.15 79.0 40.0 78.45 34.45 77.35 32.85 L77.2 32.75 Q76.45 32.75 74.9 34.75 L74.75 35.0 73.5 34.1 77.45 28.6 70.85 24.55 76.8 18.5 69.9 18.1 70.35 17.05 Q71.95 13.5 72.85 11.9 L72.4 11.9 66.45 12.1 65.3 12.15 67.2 6.25 57.6 12.9 59.0 5.3 46.4 7.6 46.4 4.4 39.05 8.15 39.05 4.65 31.1 10.45 27.75 5.65 24.3 10.45 18.6 8.95 19.95 20.6 16.4 14.5 17.1 26.9 13.4 25.45 16.45 31.7 15.35 31.8 12.6 32.05 12.75 32.25 12.5 32.25 Q14.35 36.05 16.8 42.9 19.6 50.6 20.5 55.15 21.45 59.95 25.15 67.75 27.75 73.45 28.2 75.65 29.0 79.5 27.9 83.25 26.85 87.0 24.3 89.2 22.7 90.65 19.55 91.45 L14.0 92.15 10.6 91.6 Q8.75 90.5 0.85 88.05 L0.45 86.3 Q8.9 88.85 11.35 90.2 L14.0 90.6 19.15 89.95 Q21.95 89.25 23.3 88.05 25.5 86.1 26.45 82.75 27.4 79.4 26.7 76.0 26.25 73.95 23.75 68.45 L21.05 62.25 Q19.6 58.55 18.95 55.45 17.95 50.45 14.8 41.95 12.0 34.3 10.6 32.0 L9.45 30.3 11.45 30.5 14.05 30.4 10.25 22.55 15.45 24.55 14.5 8.1 17.55 13.35 16.8 6.85 23.65 8.65 27.75 2.95 31.45 8.25"/><path fill="none" stroke="#ffffff" stroke-width="2.0" d="M29.45 76.0 L32.2 83.1 37.9 84.85 Q42.6 86.4 44.05 88.45 46.95 92.65 54.75 91.7 62.05 90.8 63.65 87.6 65.15 84.65 67.55 81.8 L71.1 77.45 Q74.6 72.45 74.2 63.25"/></g></defs><g><g><use transform="matrix(1.0,0.0,0.0,1.0,0.0,0.0)" xlink:href="#c1"/></g></g></svg>