<?xml version='1.0' encoding='UTF-8'?>
<svg xmlns="http://www.w3.org/2000/svg" xmlns:xlink="http://www.w3.org/1999/xlink" version="1.1" width="100px" height="97px" viewBox="0.3 2.65 99.8 96.69999999999999"><defs><g id="c1"><path fill="#ffffff" stroke="none" d="M18.5 27.15 Q18.25 27.9 17.25 27.4 15.95 26.7 15.6 26.8 15.85 27.65 16.95 28.3 17.95 28.95 18.15 30.1 15.5 29.55 12.65 26.8 L7.9 21.75 13.6 22.8 19.6 23.15 Q20.0 23.85 19.85 24.65 L19.6 25.9 17.4 25.75 15.35 25.3 Q15.3 25.8 16.55 26.3 L18.5 27.15"/><path fill="#ffffff" stroke="none" d="M63.75 24.3 L59.8 27.5 Q57.2 29.2 56.55 29.75 55.6 29.7 55.0 28.0 L58.55 24.8 Q60.4 22.9 62.3 21.75 62.45 22.5 63.0 23.15 L63.75 24.3"/><path fill="#ffffff" stroke="none" d="M46.8 38.65 Q47.1 36.9 48.55 33.9 50.0 30.8 50.35 29.2 51.25 29.45 50.7 30.25 50.05 31.25 50.65 31.85 51.05 32.2 51.85 31.2 L53.15 31.15 Q53.45 31.95 52.35 32.8 51.2 33.65 51.35 34.35 51.85 34.65 52.65 33.95 53.65 33.1 54.35 33.05 55.05 34.3 53.1 35.6 51.25 36.85 52.2 38.3 L49.6 38.95 Q47.75 39.3 46.8 38.65"/><path fill="#ffffff" stroke="none" d="M64.85 25.05 Q65.8 28.4 62.55 30.4 60.75 31.5 57.5 32.9 56.9 30.65 59.65 28.6 L64.85 25.05"/><path fill="#ffffff" stroke="none" d="M42.4 35.75 Q42.5 34.9 43.55 35.05 44.6 35.25 44.65 36.35 44.05 36.8 43.45 36.2 42.8 35.6 42.4 35.75"/><path fill="#ffffff" stroke="none" d="M57.9 34.9 Q59.8 32.15 63.15 31.3 58.45 41.35 59.95 53.7 58.8 53.4 58.4 54.55 L57.95 56.55 Q57.15 56.9 56.65 56.3 56.0 56.9 56.35 58.4 L54.75 58.3 53.8 59.9 52.55 58.8 Q51.95 59.4 51.95 60.25 51.05 60.3 50.25 59.0 49.7 59.1 49.55 59.7 49.45 60.3 48.85 60.4 L47.75 59.7 Q47.1 59.25 46.85 58.45 46.3 59.25 45.3 59.5 L43.1 56.85 Q41.25 54.8 40.65 53.15 41.2 52.65 41.65 52.95 L42.3 53.45 Q44.7 56.0 45.8 56.7 L46.75 56.95 Q48.7 57.9 52.3 56.1 56.25 54.1 56.95 54.2 L57.2 53.1 Q57.7 52.9 57.95 52.1 L58.2 50.5 58.4 48.55 58.7 42.5 Q58.85 38.6 59.1 36.45 59.25 35.1 57.9 34.9"/><path fill="#ffffff" stroke="none" d="M85.7 30.1 Q85.1 29.75 84.1 30.1 L82.2 30.4 Q79.65 26.0 82.7 24.05 85.7 22.2 88.65 24.9 89.5 34.0 88.55 38.8 87.35 37.15 86.75 34.75 L85.7 30.1"/><path fill="#ffffff" stroke="none" d="M17.35 62.15 Q15.4 61.35 12.9 61.7 12.35 62.4 13.05 64.0 L14.2 66.7 Q11.35 64.4 12.25 61.95 13.2 59.5 16.55 60.95 15.6 59.5 12.5 58.9 9.55 58.35 8.65 56.35 8.6 54.85 10.85 54.4 L14.55 53.45 Q14.85 54.25 19.2 59.5 22.15 63.05 20.0 65.45 19.7 63.15 17.35 62.15"/><path fill="#ffffff" stroke="none" d="M10.95 66.6 Q13.55 69.1 14.9 71.2 L10.05 70.0 Q6.8 69.7 8.55 73.05 8.25 73.65 7.55 71.8 6.9 70.0 7.0 69.35 L8.8 69.1 10.45 69.1 Q9.95 68.25 7.5 67.95 L3.7 67.2 Q1.15 64.4 6.1 62.6 8.5 64.25 10.95 66.6"/><path fill="#ffffff" stroke="none" d="M13.65 62.6 Q16.85 61.65 19.05 65.6 L22.2 72.45 Q18.85 70.7 17.25 69.15 14.8 66.7 13.65 62.6"/><path fill="#ffffff" stroke="none" d="M93.85 48.5 Q92.4 44.7 92.0 42.25 91.25 37.55 94.45 36.75 97.9 41.75 93.85 48.5"/><path fill="#ffffff" stroke="none" d="M76.55 50.9 Q75.65 47.5 78.75 46.55 L79.35 51.0 Q79.6 53.75 80.15 55.5 77.45 54.0 76.55 50.9"/><path fill="#ffffff" stroke="none" d="M10.45 81.45 L14.85 87.05 Q8.4 86.9 4.55 79.55 7.8 78.3 10.45 81.45"/><path fill="#ffffff" stroke="none" d="M4.35 84.75 Q3.7 85.75 2.55 86.0 L0.45 85.8 Q0.3 84.55 0.3 83.15 L0.3 82.1 0.8 81.9 2.6 83.3 4.35 84.75"/><path fill="#ffffff" stroke="none" d="M33.55 69.25 Q34.6 69.7 37.05 71.45 39.3 73.1 40.95 73.65 41.65 75.25 41.2 77.1 L40.55 80.2 34.6 80.45 Q31.1 79.35 28.75 80.4 L29.75 77.6 Q30.25 75.85 31.2 75.0 32.2 76.95 32.3 78.5 33.9 77.25 33.75 74.2 L33.55 69.25"/><path fill="#ffffff" stroke="none" d="M81.95 57.9 Q82.4 57.3 81.6 55.9 80.8 54.55 81.4 53.75 82.2 53.75 83.5 54.45 84.8 55.2 85.55 55.2 L83.4 59.35 Q82.0 61.1 78.8 60.8 78.3 61.15 78.8 61.45 L79.4 62.15 Q78.95 62.65 78.4 62.75 L77.05 63.15 Q76.8 63.75 77.25 63.95 77.95 64.2 78.05 64.7 77.6 64.85 77.2 65.6 76.85 66.25 76.0 66.4 L74.3 64.75 72.6 63.05 Q72.85 61.1 73.9 57.7 L75.25 52.4 78.45 55.5 Q80.4 57.45 81.95 57.9"/><path fill="#ffffff" stroke="none" d="M9.05 88.35 Q9.7 90.0 11.2 91.3 L13.65 93.55 Q10.75 93.8 8.25 92.55 5.55 91.15 4.8 88.55 L9.05 88.35"/><path fill="#ffffff" stroke="none" d="M20.3 17.3 Q20.65 18.2 20.5 19.65 20.35 21.55 19.15 22.15 18.4 21.35 19.05 19.8 L20.3 17.3"/><path fill="#ffffff" stroke="none" d="M59.15 6.8 L57.3 8.15 Q56.25 8.95 56.0 9.7 55.95 8.75 58.25 6.15 60.55 3.55 60.55 2.65 61.4 4.1 61.1 7.0 60.7 10.9 60.8 11.65 60.3 11.7 60.35 10.2 60.45 8.9 59.15 9.6 L59.65 8.15 Q59.85 7.35 59.15 6.8"/><path fill="#ffffff" stroke="none" d="M44.7 35.55 Q45.05 34.25 47.35 32.45 L46.2 34.2 Q45.4 35.25 45.8 36.25 45.55 36.3 45.25 35.85 45.0 35.4 44.7 35.55"/><path fill="#ffffff" stroke="none" d="M60.15 42.1 Q61.4 41.2 63.0 35.35 64.5 29.8 65.9 29.35 L68.1 29.15 68.2 29.15 Q69.2 29.0 70.55 29.7 71.7 29.95 73.15 30.85 L75.55 32.35 76.15 33.0 Q77.35 34.0 77.7 36.25 78.05 38.2 77.65 40.25 L74.2 40.55 Q71.45 42.85 71.95 47.15 72.6 52.95 72.15 54.5 70.2 50.6 70.3 49.1 L68.9 52.35 Q69.55 53.75 69.0 56.95 68.35 60.5 68.6 61.95 68.1 62.15 67.65 61.55 L66.85 60.7 Q66.1 63.55 66.25 67.7 65.45 67.8 64.8 67.15 L63.95 69.85 Q63.5 71.45 63.65 72.8 63.15 73.15 62.8 72.8 L62.2 72.2 61.8 74.85 Q61.65 76.45 60.75 77.2 60.15 76.3 59.05 75.55 L57.15 74.35 Q56.9 74.85 56.9 75.65 55.7 75.3 54.3 74.15 L51.85 72.2 Q51.25 72.8 51.6 73.5 50.3 73.25 48.8 71.8 L46.3 69.4 46.0 70.3 45.85 71.2 Q44.45 70.55 42.55 68.85 L37.55 66.4 38.7 68.25 Q37.0 67.95 35.4 65.75 33.65 63.4 32.45 62.95 L32.7 62.5 32.85 62.0 30.1 60.3 Q28.5 59.35 28.0 58.1 L33.0 59.2 Q35.8 59.95 37.65 61.15 36.75 59.4 33.05 57.25 29.15 54.95 27.85 53.0 30.3 52.75 33.5 53.85 L38.85 55.5 Q38.5 53.7 35.2 51.75 L29.95 48.55 Q33.7 48.35 38.4 53.05 L46.0 61.2 Q46.9 61.4 47.85 60.8 47.8 62.35 46.8 62.0 L44.8 60.65 45.2 61.25 46.3 62.6 Q47.9 63.25 50.65 63.35 L55.05 63.75 Q56.3 62.4 58.1 61.0 L60.75 58.55 Q61.2 58.0 61.3 56.5 L61.05 55.7 61.05 55.2 Q60.8 56.3 60.05 56.85 61.85 51.2 60.15 42.1"/><path fill="#ffffff" stroke="none" d="M92.15 26.6 Q94.15 25.45 95.85 26.05 96.8 26.35 98.6 27.85 98.9 30.65 98.6 34.1 L97.85 40.05 Q97.1 39.6 96.4 37.75 L95.2 34.8 Q94.1 34.8 92.95 36.05 92.05 37.1 91.55 38.35 91.3 37.4 92.25 35.9 93.35 34.2 95.1 33.65 L95.85 35.35 Q96.45 35.05 96.1 34.1 L95.35 32.35 Q94.6 32.25 93.5 32.7 L92.05 33.0 Q91.45 31.4 91.65 29.6 L92.15 26.6"/><path fill="#ffffff" stroke="none" d="M82.3 37.1 Q81.15 36.2 82.9 33.3 84.6 30.45 85.85 32.4 84.25 32.45 83.2 34.1 82.3 35.5 82.3 37.1"/><path fill="#ffffff" stroke="none" d="M83.15 38.7 Q82.25 35.4 85.3 33.85 88.65 39.45 86.3 46.55 L85.25 44.25 Q84.5 43.05 82.9 43.2 82.3 44.1 82.85 45.85 L84.15 49.05 Q86.1 49.15 91.15 51.35 95.4 53.2 98.7 52.4 95.9 57.2 89.75 55.35 L84.9 53.55 Q82.15 52.65 80.65 52.9 79.85 51.2 79.9 48.95 L79.8 45.3 Q78.1 45.4 76.75 46.55 75.25 47.8 75.25 49.6 74.2 48.65 74.6 46.9 74.85 45.6 75.75 44.25 L77.75 43.85 Q78.9 43.65 79.35 44.3 80.3 43.1 80.05 41.25 L82.55 41.6 Q83.85 42.1 84.5 43.3 84.65 42.6 84.1 41.2 L83.15 38.7"/><path fill="#ffffff" stroke="none" d="M30.15 73.45 Q29.3 73.25 28.9 73.9 28.4 72.65 27.05 72.45 L25.05 72.7 Q22.7 67.85 20.95 68.6 20.5 67.55 21.15 66.45 L22.05 64.6 Q22.45 64.65 23.25 65.4 23.95 66.0 24.6 65.9 26.3 64.4 27.65 63.8 30.35 64.35 32.05 66.7 32.25 67.45 31.65 67.2 31.05 66.95 31.1 66.3 30.65 67.25 32.1 70.75 33.35 73.8 31.9 74.7 31.6 73.1 29.9 71.15 27.85 68.75 27.1 67.2 L29.15 67.1 Q30.4 67.05 30.75 66.45 L28.1 66.3 25.8 66.95 Q26.0 68.1 27.75 69.95 29.65 72.0 30.15 73.45"/><path fill="#ffffff" stroke="none" d="M15.75 76.0 Q16.05 75.3 16.7 76.65 17.65 78.6 18.2 78.95 15.1 79.15 12.25 76.65 9.7 74.4 8.65 71.45 10.15 70.85 11.6 71.1 12.45 71.25 14.05 71.95 13.95 72.9 14.6 73.95 L15.75 76.0"/><path fill="#ffffff" stroke="none" d="M52.95 62.0 L53.05 61.0 Q53.5 61.05 54.0 61.5 L54.8 62.25 55.35 60.8 Q55.65 60.0 56.45 60.65 55.25 61.95 55.4 62.75 55.15 62.9 54.2 62.2 53.45 61.65 53.3 62.5 52.8 62.6 52.95 62.0"/><path fill="#ffffff" stroke="none" d="M58.2 60.0 Q58.15 59.55 57.65 59.8 57.15 60.0 56.55 60.6 56.6 59.6 57.95 58.85 59.2 58.15 58.9 56.95 59.8 56.6 59.4 58.15 59.0 59.65 58.2 60.0"/><path fill="#ffffff" stroke="none" d="M8.95 86.15 Q9.7 86.95 10.05 87.9 9.35 87.3 7.1 87.25 L4.7 87.4 4.2 87.45 Q3.85 88.05 3.35 88.0 3.3 88.65 3.7 89.2 4.3 89.95 4.5 90.65 3.35 90.25 2.55 87.95 3.35 87.4 5.1 86.55 L7.65 84.95 8.95 86.15"/><path fill="#ffffff" stroke="none" d="M23.25 84.4 L23.15 84.2 Q25.9 84.35 26.7 84.15 25.7 84.95 25.15 85.1 L25.1 85.45 Q24.7 85.6 23.85 86.1 L25.55 86.05 Q26.55 86.05 27.0 86.45 25.65 86.75 23.15 87.95 L23.25 88.1 20.8 88.4 22.35 88.8 18.7 89.0 18.5 88.8 19.7 87.7 20.8 86.5 21.55 86.9 Q22.05 85.15 23.25 84.4"/><path fill="#ffffff" stroke="none" d="M44.45 24.25 L47.4 23.3 Q50.6 22.05 51.9 20.65 53.2 19.3 53.1 16.2 L52.75 13.35 47.35 19.55 44.45 24.25 M36.75 26.95 L31.25 26.75 23.05 27.75 25.2 29.65 Q27.75 31.45 29.6 31.15 31.5 30.85 34.3 28.85 L36.75 26.95 M31.45 11.75 Q32.9 11.4 33.5 13.0 34.05 14.45 33.5 15.65 35.85 16.2 37.7 20.9 39.65 25.9 40.85 26.45 41.5 26.25 41.45 25.6 L41.3 24.4 40.9 23.5 Q39.55 22.15 37.45 16.6 35.15 10.6 33.8 8.8 34.3 8.1 35.95 7.45 L38.7 6.3 35.15 6.15 Q32.75 6.4 31.85 5.25 L38.4 4.7 45.7 4.15 50.65 7.8 55.55 11.5 56.4 11.0 Q56.7 10.55 57.1 10.45 L57.35 11.9 Q57.6 12.35 58.35 11.5 58.65 12.85 59.65 13.15 L61.5 13.35 61.6 13.5 66.25 13.2 Q65.55 13.25 64.8 14.0 64.1 14.65 63.8 15.4 L65.35 15.55 66.85 15.85 68.65 15.85 70.4 16.1 68.3 16.25 Q66.8 16.2 66.4 16.65 L65.35 16.85 64.35 17.25 64.1 17.6 66.0 18.25 67.9 19.0 65.65 19.3 63.4 19.45 63.4 19.65 62.75 19.4 Q60.5 21.3 56.35 25.6 52.55 28.65 48.55 26.8 L48.1 25.3 Q47.2 25.7 46.35 25.1 L44.3 25.5 Q44.15 26.25 43.45 26.95 44.05 27.35 44.8 26.6 45.8 25.7 46.45 25.65 46.6 26.5 45.8 27.65 44.95 28.85 44.9 29.5 45.8 29.3 46.45 28.45 47.15 27.6 48.0 27.4 49.2 30.8 44.55 33.15 39.95 35.45 37.0 33.25 38.45 31.4 40.2 31.5 40.0 30.6 38.85 30.75 37.6 30.95 37.35 30.3 37.0 29.4 38.2 29.3 L40.0 29.2 Q39.45 28.4 38.55 28.15 38.15 28.65 37.4 28.7 L35.5 29.15 34.8 29.95 34.95 31.85 Q34.9 32.85 34.45 33.9 35.6 34.6 40.0 36.5 43.45 37.95 45.25 39.7 L43.5 41.25 41.25 42.65 Q40.7 43.2 40.0 43.2 L33.9 43.6 Q33.2 43.65 32.75 43.15 31.5 44.15 30.1 44.65 28.25 45.3 27.4 44.45 L29.5 44.15 31.4 43.55 Q31.85 43.1 31.65 42.6 31.4 42.0 31.7 41.45 L32.4 41.55 32.7 40.9 31.7 40.85 Q31.1 40.85 30.7 40.45 29.6 41.1 27.0 41.4 L23.15 41.9 Q24.1 40.9 26.4 40.75 L30.45 40.4 30.45 40.25 Q29.8 39.4 30.3 38.45 29.5 37.1 25.5 37.4 20.65 37.75 19.65 37.4 22.25 36.6 25.9 36.65 29.5 36.7 31.7 37.55 L32.2 37.55 31.1 36.8 30.45 36.8 28.15 35.85 27.95 35.9 24.5 35.55 20.95 36.05 18.35 36.7 15.7 37.25 Q16.95 36.15 17.75 35.65 L18.7 35.1 19.5 34.4 18.6 34.9 Q18.7 34.3 19.65 33.45 L20.7 32.05 21.4 31.3 21.55 30.9 21.2 30.9 21.6 30.8 22.3 28.6 Q22.8 27.4 24.0 26.8 24.2 26.35 24.65 26.15 L25.8 25.6 22.35 25.95 Q21.05 25.0 21.6 23.55 22.1 22.15 23.45 21.9 23.55 22.3 22.9 23.25 22.4 24.0 23.1 24.85 24.65 24.8 29.65 23.15 33.5 21.85 35.35 22.8 32.9 21.3 31.75 17.95 30.7 14.75 31.45 11.75 M47.35 14.55 Q45.75 14.45 43.55 13.0 40.95 11.3 39.85 11.0 41.55 13.8 42.05 15.25 42.85 17.75 42.1 20.0 43.9 17.45 47.35 14.55"/><path fill="#ffffff" stroke="none" d="M36.45 44.45 L40.6 44.1 40.2 45.35 41.85 50.0 Q39.85 49.35 38.45 48.25 37.6 47.55 36.95 45.9 L36.45 44.45"/><path fill="#ffffff" stroke="none" d="M56.3 36.7 L56.85 38.15 Q57.35 39.8 57.15 40.9 56.8 42.65 55.6 44.4 L53.95 39.75 52.85 39.05 56.3 36.7"/><path fill="#ffffff" stroke="none" d="M45.85 49.9 L47.1 54.25 48.05 55.0 46.0 55.95 44.95 55.1 Q43.95 54.0 44.25 53.05 44.5 52.05 45.2 50.9 L45.85 49.9"/><path fill="#ffffff" stroke="none" d="M57.25 51.75 L55.05 52.1 55.4 50.95 53.9 46.7 55.0 47.15 Q56.2 47.7 57.0 48.35 57.8 49.0 57.6 50.45 L57.25 51.75"/><path fill="#ffffff" fill-opacity="0.8" d="M91.0 62.05 L95.0 61.9 99.0 61.5 100.1 61.15 100.1 82.25 Q100.1 90.0 95.5 94.6 L94.6 95.4 91.0 62.05"/><path fill="#ffffff" fill-opacity="0.8" d="M84.15 66.95 Q84.8 65.15 86.15 63.9 L90.15 98.1 85.75 99.2 77.8 71.7 Q81.9 72.85 84.15 66.95"/><path fill="#ffffff" fill-opacity="0.8" d="M70.05 72.25 Q70.8 70.35 72.1 70.0 L80.9 99.35 75.7 99.35 66.05 79.65 66.75 78.5 68.5 75.45 70.05 72.25"/><path fill="#ffffff" fill-opacity="0.8" d="M59.8 82.55 Q60.9 83.15 62.15 82.9 L70.45 99.35 63.8 99.35 49.25 79.45 Q50.05 79.2 51.5 79.85 L55.6 81.1 Q58.3 81.8 59.8 82.55"/><path fill="#ffffff" fill-opacity="0.8" d="M41.35 85.6 Q44.05 85.25 46.0 83.45 L57.85 99.35 48.45 99.35 36.5 87.85 Q38.6 86.0 41.35 85.6"/><path fill="#ffffff" fill-opacity="0.8" d="M20.35 95.3 Q27.3 94.65 32.6 91.1 L41.35 99.35 26.4 99.35 20.35 95.3"/><path fill="#ffffff" stroke="none" d="M10.25 77.1 L11.4 79.8 Q9.75 78.7 6.55 78.25 2.65 77.75 3.8 80.65 3.15 80.6 2.9 79.5 L2.65 77.95 4.95 77.65 6.8 77.4 Q5.95 76.3 3.65 76.5 L0.3 76.15 0.3 72.95 Q2.2 71.35 5.05 74.2 8.35 77.5 10.25 77.1"/></g></defs><g><g><use transform="matrix(1.0,0.0,0.0,1.0,0.0,0.0)" xlink:href="#c1"/></g></g></svg>