<?xml version='1.0' encoding='UTF-8'?>
<svg xmlns="http://www.w3.org/2000/svg" xmlns:xlink="http://www.w3.org/1999/xlink" version="1.1" width="97px" height="77px" viewBox="0.0 10.95 96.65 76.95"><defs><g id="c1"><path fill="#ffffff" fill-opacity="0.8" d="M7.45 51.75 Q5.3 51.95 0.0 49.6 L13.0 46.4 14.05 44.4 Q18.05 45.55 27.8 46.5 32.25 46.9 33.8 45.2 L34.4 43.45 Q36.2 44.95 37.25 46.35 L38.3 47.4 49.05 46.55 Q52.5 46.3 52.05 45.05 L50.9 43.8 53.65 45.35 Q51.7 47.1 51.8 49.6 51.9 53.1 52.45 55.65 L41.1 56.7 Q43.2 56.2 44.35 55.4 46.75 53.85 42.35 52.55 37.5 51.15 34.15 53.5 32.45 54.7 31.75 56.15 L29.1 54.15 Q26.2 52.1 24.8 51.85 22.4 51.45 20.3 53.95 19.25 55.2 18.7 56.5 19.1 55.0 17.9 53.65 15.45 50.95 7.45 51.75"/><path fill="#ffffff" fill-opacity="0.8" d="M47.45 72.45 Q46.55 74.65 48.65 75.1 L53.4 74.55 Q52.1 77.8 52.95 81.65 49.8 79.55 44.65 80.25 39.25 80.95 38.65 82.5 38.35 83.25 39.15 83.9 L34.15 82.75 Q28.15 81.6 23.05 81.75 18.2 81.85 15.55 83.45 L14.1 84.2 Q13.9 79.35 9.25 78.8 L4.65 79.2 8.9 77.55 Q11.5 76.6 13.3 74.05 L14.85 71.9 18.5 74.4 Q22.3 76.6 25.15 75.65 28.05 74.7 29.3 73.3 L30.0 72.15 34.25 74.7 Q39.0 77.15 41.3 76.75 43.35 76.35 46.3 72.95 L47.6 71.5 Q47.95 71.25 47.45 72.45"/><path fill="#ffffff" fill-opacity="0.8" d="M9.25 24.45 L4.65 24.85 8.9 23.2 Q11.5 22.25 13.3 19.7 14.6 17.45 14.85 17.5 L18.5 20.05 Q22.25 22.25 25.15 21.3 28.05 20.35 29.3 18.95 L30.0 17.8 Q31.9 19.1 34.25 20.3 39.0 22.75 41.3 22.35 43.35 22.0 46.3 18.6 L47.6 17.15 Q47.95 16.9 47.45 18.1 46.55 20.25 48.6 20.7 50.3 21.05 53.3 20.2 52.85 25.5 55.55 29.2 L55.2 29.85 Q54.75 28.6 53.15 27.45 50.05 25.2 44.65 25.9 39.25 26.6 38.65 28.15 38.35 28.9 39.15 29.55 L34.15 28.35 Q28.15 27.2 23.05 27.35 18.2 27.5 15.55 29.1 L14.1 29.85 Q13.9 25.0 9.25 24.45"/><path fill="#ffffff" stroke="none" d="M95.15 23.55 Q96.65 24.9 93.95 24.65 L85.65 23.55 Q70.3 21.85 62.45 26.65 59.5 28.5 57.6 25.8 56.1 23.75 56.05 21.15 55.95 17.8 57.85 17.1 L59.8 17.1 Q74.75 10.95 85.55 16.0 89.05 17.6 92.05 20.4 L95.15 23.55"/><path fill="#ffffff" stroke="none" d="M55.25 50.7 Q55.15 47.35 57.05 46.65 L59.0 46.6 Q74.0 40.45 84.8 45.5 88.3 47.1 91.3 49.9 L94.35 53.1 Q95.85 54.4 93.15 54.15 L84.85 53.05 Q69.5 51.35 61.7 56.15 58.7 58.0 56.8 55.3 55.3 53.25 55.25 50.7"/><path fill="#ffffff" stroke="none" d="M55.25 77.65 Q55.3 75.05 56.8 73.0 58.7 70.3 61.7 72.15 69.5 77.0 84.85 75.25 L93.15 74.15 Q95.85 73.9 94.35 75.25 L91.3 78.45 Q88.3 81.25 84.8 82.85 74.0 87.9 59.0 81.75 L57.05 81.7 Q55.15 81.0 55.25 77.65"/></g></defs><g><g><use transform="matrix(1.0,0.0,0.0,1.0,0.0,0.0)" xlink:href="#c1"/></g></g></svg>