<?xml version='1.0' encoding='UTF-8'?>
<svg xmlns="http://www.w3.org/2000/svg" xmlns:xlink="http://www.w3.org/1999/xlink" version="1.1" width="84px" height="100px" viewBox="8.85 0.0 83.95 100.0"><defs><g id="c1"><path fill="#ffffff" fill-opacity="0.8" d="M12.0 0.35 L14.95 0.0 21.3 41.35 Q20.3 41.6 19.6 42.35 L18.6 43.45 12.0 0.35"/><path fill="#ffffff" fill-opacity="0.8" d="M25.4 0.0 L35.45 0.0 39.25 32.45 Q35.15 31.85 32.2 33.7 30.8 34.55 29.6 35.9 L25.4 0.0"/><path fill="#ffffff" fill-opacity="0.8" d="M48.1 0.0 L53.5 0.0 53.5 10.9 Q52.35 10.15 50.9 10.2 49.5 10.2 48.1 10.95 L48.1 0.0"/><path fill="#ffffff" fill-opacity="0.8" d="M66.2 0.0 L76.3 0.0 71.4 34.65 Q69.85 33.5 66.7 32.55 L61.75 31.15 66.2 0.0"/><path fill="#ffffff" fill-opacity="0.8" d="M81.75 44.25 Q80.9 42.75 79.4 41.5 L90.05 1.1 Q91.5 1.6 92.8 2.45 L81.75 44.25"/><path fill="#ffffff" stroke="none" d="M43.0 52.85 Q42.0 52.95 40.9 53.35 L38.85 54.15 37.05 54.5 35.4 53.9 Q32.85 52.35 32.55 52.5 L32.65 52.65 31.8 52.6 Q31.9 53.55 32.55 54.3 L33.95 55.7 34.65 56.5 Q34.95 56.85 35.55 56.9 L36.9 56.9 38.25 56.8 40.45 56.45 42.3 55.3 43.9 53.85 45.8 52.45 43.0 52.85 M59.5 77.5 L60.9 76.85 62.5 76.6 57.3 76.9 51.85 77.35 46.0 77.35 42.95 77.1 40.0 77.0 39.6 77.25 Q39.3 77.35 39.1 77.75 40.75 78.95 43.25 79.25 L47.7 79.2 52.25 79.1 56.95 78.75 58.15 78.05 59.5 77.5 M51.35 55.9 L49.4 56.45 48.25 56.5 47.15 56.65 47.1 56.9 Q46.4 57.25 46.05 58.6 45.7 60.0 46.3 60.6 45.95 61.05 44.9 60.95 L43.3 60.7 42.9 60.35 43.05 60.7 43.3 60.7 Q44.65 61.75 46.4 62.1 47.45 62.25 47.85 62.7 L48.05 63.55 48.1 64.45 Q47.65 64.5 46.8 65.05 L45.55 65.85 48.6 66.5 48.55 67.45 48.45 68.4 48.95 70.25 49.7 74.2 50.0 70.85 Q50.2 68.6 49.7 67.65 52.1 66.75 53.05 66.05 52.75 65.9 51.5 66.05 50.45 66.15 50.25 65.6 L50.3 64.25 Q50.4 63.45 50.0 62.9 L52.35 62.15 53.8 61.9 55.2 61.6 Q53.35 61.8 50.55 59.95 L49.75 59.15 50.05 58.05 Q50.75 56.6 51.35 55.9 M64.6 54.4 Q65.15 53.05 66.35 51.85 L63.7 53.25 Q62.5 53.75 60.1 54.05 L56.05 53.85 53.85 53.25 51.65 52.65 51.65 53.25 Q51.95 53.65 52.8 54.1 L54.1 54.9 54.7 55.55 55.3 56.0 56.25 56.1 57.15 56.1 60.85 56.65 Q63.0 56.65 63.8 55.0 L64.05 54.95 64.1 54.7 64.35 54.45 64.6 54.4 M55.15 34.5 Q55.75 33.6 56.3 31.2 L55.6 32.75 Q55.1 32.9 54.45 33.5 L52.75 33.95 51.0 34.15 50.25 34.1 49.65 33.75 Q48.75 33.1 47.85 31.85 L46.3 29.7 46.6 30.6 Q46.95 30.85 47.15 32.15 L47.2 33.95 Q47.95 34.35 48.65 35.5 L49.8 37.25 50.55 37.85 51.45 38.1 52.25 38.2 52.75 37.55 53.9 36.05 55.15 34.5 M48.5 20.95 L47.75 21.65 46.95 22.45 47.3 22.7 Q47.75 22.95 47.6 23.4 L47.1 23.9 49.8 23.45 49.8 23.7 51.25 23.15 52.85 23.1 53.95 23.8 Q54.7 24.4 55.3 24.35 L54.6 23.3 56.9 22.95 56.85 21.7 54.15 21.6 51.25 21.85 49.95 21.2 Q49.1 20.7 48.5 20.95 M45.2 17.75 Q45.55 15.55 48.7 14.85 L51.8 14.6 54.1 15.35 Q56.6 16.25 57.7 17.2 58.85 18.1 58.75 20.2 L58.45 22.15 59.4 22.9 58.65 27.15 57.55 27.85 57.35 31.4 57.7 35.05 64.0 38.0 67.2 37.9 Q70.9 38.0 73.2 39.1 75.5 40.25 76.45 43.6 L76.9 46.7 79.45 48.8 Q82.1 51.1 82.45 52.05 L87.05 63.1 Q87.75 64.8 86.45 72.35 L85.0 79.5 81.3 85.75 78.9 86.9 76.7 88.35 74.7 92.95 73.2 93.15 73.4 90.0 76.15 84.65 75.8 81.9 73.4 83.55 Q71.55 83.55 70.8 82.65 70.35 82.05 72.25 80.55 L74.3 79.15 Q76.7 78.4 78.35 77.5 79.4 76.9 79.65 76.1 L79.65 75.45 Q79.65 70.1 78.9 67.5 78.45 65.9 78.45 63.4 L78.55 61.25 77.05 60.2 Q75.2 59.05 73.6 58.5 71.0 57.55 70.25 55.9 L69.3 57.95 67.7 60.7 65.95 62.45 Q64.95 63.7 65.1 64.75 65.3 66.4 63.25 72.3 L63.25 78.05 65.3 87.45 67.15 100.0 49.65 100.0 49.25 97.6 48.9 100.0 30.55 100.0 Q30.9 97.05 32.0 93.05 L37.25 78.6 Q38.0 75.45 37.25 73.8 36.8 72.75 36.3 69.5 L35.95 66.4 35.5 64.5 Q34.8 62.35 33.4 61.05 L31.15 58.5 30.6 57.4 29.55 58.35 Q28.35 59.55 27.65 60.7 26.95 61.85 24.75 62.5 L22.7 62.9 20.1 68.45 14.0 80.25 16.25 81.9 18.05 84.5 17.35 86.7 15.7 85.75 15.7 86.8 15.5 88.0 15.5 88.5 15.7 87.65 15.5 90.1 15.55 91.0 15.85 92.55 16.1 94.15 15.1 94.3 14.8 93.3 Q14.5 94.6 15.1 95.05 L15.3 95.9 Q15.45 96.4 15.2 96.7 L14.55 96.8 14.1 96.3 13.45 93.8 12.9 91.3 9.4 81.9 Q8.85 80.55 9.25 77.05 L11.05 66.8 14.2 60.9 Q17.15 54.05 18.45 51.85 19.25 50.5 21.6 49.0 L23.8 47.8 25.45 44.8 Q27.6 41.35 29.9 39.3 32.2 37.25 35.1 37.6 L37.6 38.4 44.8 35.6 45.0 32.1 43.35 23.8 44.45 23.8 Q44.65 21.25 45.2 17.75"/></g></defs><g><g><use transform="matrix(1.0,0.0,0.0,1.0,0.0,0.0)" xlink:href="#c1"/></g></g></svg>