<?xml version='1.0' encoding='UTF-8'?>
<svg xmlns="http://www.w3.org/2000/svg" xmlns:xlink="http://www.w3.org/1999/xlink" version="1.1" width="100px" height="91px" viewBox="0.0 8.45 100.0 91.35"><defs><g id="c1"><path fill="#ffffff" stroke="none" d="M59.4 31.25 Q60.25 31.45 60.95 33.15 59.15 34.15 58.55 36.1 58.25 37.25 57.9 39.65 55.3 38.2 56.15 35.3 56.9 32.7 59.4 31.25"/><path fill="#ffffff" stroke="none" d="M60.5 23.65 Q60.25 24.45 59.5 24.05 58.75 23.7 58.6 22.8 59.35 23.4 60.5 23.65"/><path fill="#ffffff" stroke="none" d="M63.8 24.45 L62.9 24.45 62.0 24.4 Q62.0 24.0 62.85 23.9 63.65 23.85 63.8 24.45"/><path fill="#ffffff" stroke="none" d="M64.05 24.3 L64.2 23.95 64.3 23.6 Q64.9 23.4 65.2 24.35 L64.6 24.4 64.05 24.3"/><path fill="#ffffff" stroke="none" d="M61.3 32.7 Q60.65 31.75 61.0 31.1 61.3 30.55 62.4 30.1 64.2 31.0 63.9 32.0 62.95 32.35 62.5 30.95 61.8 31.1 61.8 31.8 61.8 32.55 61.3 32.7"/><path fill="#ffffff" stroke="none" d="M63.8 30.6 Q64.5 30.3 64.4 30.0 64.9 29.85 65.35 30.75 65.85 31.65 65.1 32.05 65.0 31.5 64.45 31.3 63.9 31.1 63.8 30.6"/><path fill="#ffffff" stroke="none" d="M51.7 44.15 L52.1 44.8 Q51.95 46.05 50.95 43.6 51.45 43.5 51.7 44.15"/><path fill="#ffffff" stroke="none" d="M58.7 18.45 L59.15 18.45 59.6 19.4 59.1 19.0 59.05 20.2 58.75 21.25 58.35 20.45 Q57.65 19.15 57.7 18.5 58.1 18.25 58.4 18.75 L58.7 18.45"/><path fill="#ffffff" stroke="none" d="M57.05 29.45 Q54.75 32.5 53.85 34.9 52.65 38.05 53.35 41.25 53.4 41.7 53.15 41.4 52.95 41.1 53.25 41.0 52.35 39.9 52.5 37.8 L52.75 34.45 53.3 33.6 Q53.55 33.0 53.95 32.7 54.1 32.3 53.8 32.0 53.5 31.7 53.6 31.4 54.3 31.35 55.15 30.7 L57.05 29.45"/><path fill="#ffffff" stroke="none" d="M64.0 26.7 Q66.05 26.1 68.3 26.65 70.85 27.3 72.25 29.15 68.75 26.85 64.0 26.7"/><path fill="#ffffff" stroke="none" d="M65.95 29.55 Q67.25 29.2 68.3 30.8 L69.85 33.3 Q68.9 34.0 67.25 32.65 65.55 31.25 65.95 29.55"/><path fill="#ffffff" stroke="none" d="M16.75 40.8 L15.0 35.55 19.5 33.55 21.75 38.8 16.75 40.8"/><path fill="#ffffff" stroke="none" d="M94.65 67.15 L100.0 71.4 100.0 76.1 Q99.1 75.9 98.55 76.3 L100.0 77.15 100.0 78.8 Q97.9 78.25 95.95 76.7 94.15 75.25 93.0 73.35 92.15 73.45 91.9 71.6 91.6 69.2 90.95 68.45 91.2 68.25 91.45 68.45 L91.9 68.6 Q90.8 67.05 89.0 65.7 L85.9 63.55 85.4 64.05 84.7 64.1 Q84.85 65.2 85.6 66.3 L87.35 68.4 Q86.4 68.7 86.4 69.1 L86.65 69.95 81.95 64.55 Q79.3 61.15 79.7 58.6 79.1 58.4 79.25 56.95 79.35 55.4 80.45 54.7 80.2 55.5 80.65 57.0 L81.35 58.95 Q81.35 59.6 81.0 59.25 80.5 58.8 80.4 58.85 80.25 58.9 80.45 59.3 80.55 59.55 80.05 59.3 L80.35 60.0 80.7 61.35 Q80.9 61.65 81.45 61.6 82.0 61.5 82.15 61.8 82.4 61.4 82.25 61.15 L81.8 60.5 82.6 60.4 82.0 60.2 81.55 59.45 82.15 59.85 82.75 59.45 Q85.65 62.95 87.9 64.05 L88.25 64.0 88.75 63.95 Q91.5 64.55 94.65 67.15"/><path fill="#ffffff" stroke="none" d="M71.85 93.05 Q72.25 92.1 71.85 91.8 71.9 92.4 71.4 93.15 L70.75 94.4 71.85 93.05 M43.7 54.0 L43.6 51.55 Q43.3 51.25 43.1 51.65 L42.4 52.15 Q42.25 53.35 42.5 54.55 42.85 56.15 43.9 56.4 L43.7 54.0 M45.1 53.45 Q45.3 53.85 45.1 54.45 44.95 55.05 45.2 55.5 46.45 55.0 46.2 54.35 46.05 53.8 45.1 53.45 M87.8 37.0 L86.2 33.65 85.45 33.6 84.55 33.85 Q84.75 34.9 85.85 35.75 L87.8 37.0 M55.4 22.25 Q54.55 21.65 53.15 22.5 51.95 23.2 51.6 25.65 51.25 28.2 53.2 28.05 56.15 27.5 56.15 24.1 56.15 22.75 55.4 22.25 M57.15 16.15 L55.1 17.0 Q54.15 17.4 53.65 18.1 54.15 19.75 55.15 21.15 L57.15 23.5 Q57.2 25.25 55.9 27.25 L54.2 29.65 Q53.95 29.9 54.4 29.9 54.85 29.9 54.55 30.35 L54.1 30.4 53.6 30.8 51.95 28.15 Q50.55 26.15 50.35 25.3 48.15 28.15 47.95 34.05 47.75 40.0 49.75 44.15 L50.6 45.2 51.75 46.45 54.1 50.7 Q55.5 52.75 57.35 52.55 54.3 47.95 54.5 44.8 55.3 45.7 56.25 46.05 57.2 46.35 58.05 46.05 L59.55 45.0 60.9 43.5 60.9 42.75 Q60.8 42.25 61.05 41.95 62.75 39.8 65.25 38.95 L69.85 38.85 Q74.95 38.1 76.1 34.7 78.95 40.15 79.2 41.75 81.6 38.8 77.6 30.65 73.65 22.6 68.95 20.45 68.15 20.1 66.3 19.85 L64.0 19.3 64.8 20.45 Q65.15 21.1 64.8 21.6 63.85 19.95 60.95 19.0 58.15 18.05 57.15 16.15 M94.9 63.9 Q97.5 64.85 100.0 65.2 L100.0 67.9 Q94.4 65.35 90.15 61.4 84.9 56.5 82.75 50.3 L82.55 50.25 82.55 50.45 81.9 49.3 Q81.45 48.25 81.0 47.9 L79.45 47.9 Q78.75 47.95 78.3 47.15 78.1 47.25 78.05 47.65 L77.55 48.1 77.0 47.15 Q76.4 46.5 76.2 45.85 75.5 46.6 74.6 45.55 73.6 44.45 73.45 44.5 72.95 44.25 73.0 42.95 73.0 41.7 72.2 41.25 72.8 41.35 72.5 41.05 72.0 40.45 72.25 40.1 69.1 38.3 65.4 40.55 61.85 42.7 61.35 46.2 L63.95 47.45 Q65.55 48.0 66.55 47.25 L65.8 49.75 Q65.5 51.25 65.9 52.6 65.15 53.1 64.95 52.45 64.7 54.25 62.65 55.0 62.4 55.3 62.55 55.9 62.65 56.25 61.8 56.3 62.45 57.05 62.25 57.85 62.0 58.5 62.35 58.7 61.45 58.7 61.25 60.05 L60.75 62.7 Q64.0 66.55 64.25 74.0 64.5 81.25 61.85 86.35 62.25 89.35 60.1 92.75 58.2 95.7 54.7 98.35 58.45 97.45 61.85 93.1 66.0 89.95 66.45 81.85 L66.75 75.2 Q67.0 71.4 67.9 69.0 68.25 69.4 68.6 70.95 68.9 72.55 68.8 73.85 69.55 73.9 69.65 74.2 69.75 74.55 69.25 75.4 69.35 75.55 69.6 75.5 L70.05 75.3 Q70.05 76.5 70.6 77.55 71.2 78.8 72.15 78.4 L72.95 80.5 Q73.2 81.2 72.8 82.2 73.9 80.55 73.3 77.0 72.7 73.65 70.95 70.45 L70.6 71.5 Q70.3 71.45 70.15 70.85 70.1 70.5 69.55 71.15 71.4 68.7 72.1 65.5 73.1 65.7 73.35 66.75 L73.55 67.8 73.6 68.6 73.7 68.2 Q74.7 70.55 75.3 73.4 75.95 76.6 75.95 79.55 L75.6 79.4 75.35 78.95 74.65 79.7 Q74.25 80.15 73.8 80.0 74.15 80.45 74.05 81.05 74.35 81.6 74.85 80.35 75.2 80.15 75.1 80.65 75.0 81.15 75.45 80.95 75.65 81.35 75.2 81.95 74.7 82.5 74.95 82.95 L75.25 82.75 Q75.35 82.4 75.9 82.5 77.95 89.1 76.45 94.0 77.3 93.95 77.95 93.05 78.5 92.3 78.65 91.2 79.15 91.15 79.55 91.55 80.0 91.95 79.8 92.4 L80.8 92.3 81.8 92.3 Q82.25 94.1 80.6 95.8 78.75 97.65 78.75 98.2 77.95 97.9 77.2 98.6 L75.9 99.6 76.1 99.8 45.45 99.8 Q53.15 93.55 57.05 89.35 63.35 82.4 63.4 77.35 L58.3 67.75 Q55.3 62.5 52.5 60.2 52.15 59.8 52.25 59.45 L52.4 58.8 50.8 57.15 49.25 55.3 47.8 58.3 Q47.1 60.0 46.9 61.45 44.15 59.7 42.35 56.0 40.3 51.7 42.65 49.65 37.5 36.3 37.5 28.75 37.45 18.3 46.05 12.65 L47.0 12.7 47.95 12.95 48.45 12.4 Q48.5 11.95 48.9 11.85 L49.15 13.35 Q49.1 13.95 49.55 14.5 47.1 15.5 44.7 17.7 41.85 20.3 41.25 22.9 42.3 23.55 42.2 25.85 42.1 28.75 42.6 29.95 L44.0 27.35 Q44.85 25.75 46.1 25.0 46.2 25.8 45.8 26.6 L44.85 27.95 45.55 28.1 45.35 28.9 Q48.05 28.0 49.75 25.35 50.75 23.75 51.85 20.45 51.45 20.3 50.95 19.15 51.8 17.95 53.8 17.05 54.75 16.6 57.5 15.65 62.9 20.45 70.3 18.95 70.7 18.55 69.65 18.3 68.85 18.1 69.45 17.85 69.2 17.5 69.0 17.85 L68.5 18.3 Q68.55 17.7 67.7 17.3 L66.25 16.75 68.75 16.7 Q70.8 17.6 71.35 17.55 71.2 16.25 69.75 15.1 L67.5 13.2 69.15 13.6 Q69.4 13.2 68.5 12.85 67.65 12.45 68.35 11.9 67.4 10.7 65.2 10.6 L61.25 10.6 59.65 10.2 58.05 10.1 Q57.15 10.3 55.95 11.2 L54.0 12.65 54.4 11.75 54.5 10.65 Q55.1 10.15 57.1 9.7 58.7 9.3 58.8 8.55 66.3 8.45 72.75 15.2 77.8 20.45 83.4 31.45 86.1 31.75 88.15 35.75 90.0 39.35 89.85 42.45 L88.45 41.35 86.7 40.15 Q85.25 44.1 88.55 51.45 90.45 55.65 94.9 63.9"/><path fill="#ffffff" stroke="none" d="M10.75 65.05 L0.0 70.0 0.0 57.45 20.35 47.95 20.1 46.6 0.0 54.8 0.0 46.95 28.05 34.75 Q29.25 35.75 30.2 37.9 31.2 40.15 30.85 41.5 L26.6 43.45 Q24.15 44.6 23.1 45.7 23.7 46.45 25.2 45.95 L27.6 45.3 Q29.25 45.95 30.3 48.15 31.25 50.2 30.9 52.05 L27.35 54.6 Q27.95 56.7 25.7 58.45 23.6 60.1 21.3 59.9 17.35 62.05 10.75 65.05"/></g></defs><g><g><use transform="matrix(1.0,0.0,0.0,1.0,0.0,0.0)" xlink:href="#c1"/></g></g></svg>