<?xml version='1.0' encoding='UTF-8'?>
<svg xmlns="http://www.w3.org/2000/svg" xmlns:xlink="http://www.w3.org/1999/xlink" version="1.1" width="100px" height="90px" viewBox="-0.05 10.15 100.45 89.64999999999999"><defs><g id="c1"><path fill="#ffffff" fill-opacity="0.8" d="M8.35 10.4 Q11.45 10.55 13.95 13.15 16.75 16.1 15.85 19.8 16.65 20.6 16.4 21.8 L15.7 23.9 15.4 24.95 15.0 25.75 14.7 25.85 Q14.5 25.9 14.6 26.15 L14.25 28.1 13.9 29.95 13.25 31.65 Q12.85 32.65 13.05 33.6 13.3 34.95 14.15 35.7 L16.25 36.9 Q12.4 38.55 10.7 39.6 8.05 41.3 6.55 43.65 5.55 45.15 4.85 47.95 4.1 50.8 4.05 53.2 4.05 55.3 4.5 59.55 5.05 69.0 3.8 75.15 3.1 79.0 3.25 82.05 3.4 84.15 4.25 88.55 L5.15 91.4 5.95 94.15 6.25 96.4 4.55 94.95 Q-0.05 90.3 -0.05 82.5 L-0.05 35.95 Q1.3 34.8 1.65 33.8 2.05 32.55 1.8 30.85 L1.2 28.3 0.95 26.6 0.5 25.2 Q0.35 25.0 0.1 23.65 L-0.05 23.3 -0.05 19.45 0.05 19.0 0.05 16.9 0.9 15.2 Q2.05 13.2 4.0 11.85 6.15 10.35 8.35 10.4"/><path fill="#ffffff" fill-opacity="0.8" d="M20.05 71.75 L19.55 69.65 19.05 67.55 Q17.4 68.35 16.75 71.8 L15.7 77.95 15.0 79.65 Q14.7 81.35 14.95 85.2 15.25 89.35 15.05 91.2 15.95 89.15 17.4 87.25 L17.25 86.05 17.25 84.7 17.75 83.75 18.25 82.85 18.35 81.8 18.4 80.6 Q18.55 79.6 19.45 76.05 20.15 73.2 20.05 71.75 M25.3 18.95 L25.25 16.85 26.1 15.15 Q27.3 13.1 29.2 11.8 31.35 10.3 33.55 10.35 36.65 10.5 39.15 13.1 41.95 16.05 41.05 19.75 41.85 20.55 41.6 21.75 L40.9 23.85 40.2 25.65 39.9 25.75 Q39.7 25.85 39.8 26.1 L39.45 28.05 39.1 29.9 38.45 31.6 Q38.05 32.6 38.25 33.55 38.5 34.9 40.3 36.1 L43.35 37.75 43.5 37.85 43.35 37.8 Q40.7 38.7 38.9 40.05 37.15 41.4 35.75 43.55 L34.7 45.85 Q33.35 49.65 33.25 53.15 33.25 55.2 33.7 59.45 34.2 68.9 33.05 75.1 32.3 78.55 32.5 82.0 32.6 84.5 33.5 88.45 L34.8 92.65 35.2 94.1 Q35.7 96.75 35.5 99.15 L35.3 99.8 17.2 99.8 Q13.45 99.8 10.3 98.65 10.4 96.2 9.95 94.15 L9.15 91.4 8.25 88.5 Q7.4 84.25 7.25 82.05 7.1 79.0 7.8 75.15 9.0 68.95 8.5 59.55 8.05 55.25 8.05 53.2 8.1 50.8 8.85 47.95 9.55 45.1 10.55 43.6 11.95 41.45 15.6 40.05 L22.0 37.75 24.9 36.15 Q26.55 34.75 26.85 33.75 27.25 32.5 27.0 30.8 L26.45 28.25 Q26.1 25.75 25.7 25.15 L25.45 24.4 25.3 23.6 24.85 22.35 Q24.55 21.65 24.6 21.2 L24.9 20.15 25.3 18.95"/><path fill="#ffffff" stroke="none" d="M48.65 76.0 Q49.35 73.15 49.25 71.7 L48.8 69.6 48.25 67.45 Q46.6 68.25 46.0 71.7 L44.9 77.9 44.55 78.8 44.2 79.55 Q43.9 81.3 44.15 85.15 44.45 89.25 44.25 91.1 45.2 89.0 46.65 87.15 46.4 85.25 46.5 84.65 46.55 84.25 46.95 83.7 L47.45 82.8 47.55 81.75 47.6 80.55 48.65 76.0 M68.4 13.05 Q71.2 16.0 70.25 19.7 71.05 20.5 70.8 21.7 L70.15 23.75 69.85 24.85 69.45 25.6 69.1 25.7 Q68.9 25.8 69.0 26.05 L68.65 28.0 68.3 29.85 67.65 31.55 Q67.3 32.5 67.5 33.5 67.75 34.8 69.5 36.05 70.4 36.65 72.55 37.7 L73.1 38.0 Q70.15 39.0 68.4 40.1 66.3 41.45 65.0 43.5 64.0 45.05 63.25 47.8 62.5 50.65 62.45 53.05 62.45 55.15 62.9 59.4 63.4 68.85 62.25 75.05 61.55 78.9 61.7 81.95 61.8 84.35 62.7 88.4 L63.55 91.25 64.4 94.0 Q64.9 96.75 64.7 99.1 L64.45 99.8 39.25 99.8 39.5 99.15 Q39.7 96.75 39.2 94.1 L38.35 91.35 37.5 88.45 Q36.6 84.4 36.5 82.0 36.3 78.55 37.05 75.1 38.2 68.9 37.7 59.45 37.25 55.2 37.25 53.15 37.3 50.7 38.05 47.85 38.75 45.05 39.75 43.55 41.0 41.7 43.75 40.45 L49.0 38.55 Q52.6 37.3 54.1 36.05 55.75 34.8 56.05 33.65 56.45 32.4 56.2 30.7 L55.65 28.15 Q55.3 25.7 54.95 25.1 L54.7 24.35 54.5 23.55 Q53.8 21.9 53.8 21.15 53.8 20.8 54.1 20.1 L54.5 18.9 54.5 17.85 54.5 16.75 Q54.55 16.35 55.35 15.1 56.5 13.05 58.45 11.7 60.6 10.2 62.8 10.3 65.85 10.4 68.4 13.05"/><path fill="#ffffff" fill-opacity="0.8" d="M77.85 75.9 Q78.6 73.05 78.5 71.6 L78.0 69.5 77.5 67.4 Q75.85 68.2 75.2 71.65 L74.15 77.8 73.75 78.7 73.45 79.5 Q73.1 81.25 73.4 85.1 L73.45 91.05 Q74.3 89.2 75.85 87.1 75.6 85.1 75.7 84.55 L76.2 83.65 76.65 82.75 76.75 81.7 76.8 80.5 Q76.95 79.45 77.85 75.9 M87.65 11.65 Q89.8 10.15 92.0 10.2 95.1 10.35 97.6 13.0 100.4 15.95 99.45 19.65 L99.95 20.4 99.95 21.95 99.35 23.7 99.05 24.75 98.65 25.55 98.35 25.65 Q98.15 25.7 98.2 25.95 L97.85 27.9 97.5 29.75 96.9 31.45 Q96.5 32.45 96.7 33.4 97.0 35.05 99.95 36.7 L99.95 82.5 Q99.95 90.3 95.15 94.95 90.45 99.8 82.7 99.8 L68.45 99.8 68.7 99.1 Q68.9 96.75 68.4 94.0 L67.55 91.25 66.7 88.4 Q65.8 84.35 65.7 81.9 65.55 78.9 66.25 75.0 67.4 68.85 66.9 59.4 66.45 55.15 66.45 53.05 66.5 50.65 67.25 47.8 68.0 45.05 69.0 43.5 70.2 41.6 72.95 40.35 L78.2 38.45 Q81.5 37.4 83.3 36.0 84.9 34.8 85.3 33.6 85.7 32.35 85.45 30.65 L84.85 28.1 84.55 26.4 84.15 25.0 83.9 24.25 83.7 23.45 83.25 22.25 83.0 21.05 Q83.0 20.7 83.3 20.0 L83.7 18.8 83.7 17.75 83.7 16.7 Q83.75 16.4 84.55 15.0 85.7 13.0 87.65 11.65"/></g></defs><g><g><use transform="matrix(1.0,0.0,0.0,1.0,0.0,0.0)" xlink:href="#c1"/></g></g></svg>