<?xml version='1.0' encoding='UTF-8'?>
<svg xmlns="http://www.w3.org/2000/svg" xmlns:xlink="http://www.w3.org/1999/xlink" version="1.1" width="79px" height="90px" viewBox="11.65 5.5 78.8 89.8"><defs><g id="c1"><path fill="#ffffff" stroke="none" d="M53.0 29.95 Q53.1 27.2 52.45 26.2 52.05 26.75 51.85 27.95 L51.5 29.8 51.05 29.8 50.8 28.4 51.0 31.7 51.3 32.05 Q50.6 33.85 51.15 37.35 L51.9 42.75 52.65 34.0 53.0 29.95 M47.45 34.05 Q46.95 37.5 47.2 39.2 L48.1 43.35 Q48.55 45.7 47.85 47.7 46.5 48.45 46.8 51.9 L47.25 56.7 Q46.9 59.0 47.3 61.6 47.55 63.4 48.35 66.35 L48.1 67.0 Q48.5 67.35 48.55 68.15 L48.6 69.4 Q49.0 68.05 49.05 65.95 L49.1 62.4 49.45 58.25 49.6 54.15 Q49.45 52.25 49.95 50.1 L51.1 46.2 Q51.8 43.6 50.8 41.65 49.75 39.8 49.35 36.85 L48.85 32.85 Q48.5 30.4 47.65 28.95 47.95 30.55 47.45 34.05 M42.9 30.15 L43.35 31.2 44.2 34.5 Q44.6 36.65 44.45 37.75 L45.05 38.0 Q44.7 37.1 44.9 35.6 L45.15 32.9 Q45.15 30.7 44.15 28.5 L43.9 28.4 Q43.75 26.9 43.15 25.65 42.9 26.7 42.85 28.9 42.75 29.75 42.9 30.15 M49.45 6.2 L49.65 5.7 52.1 5.5 54.65 6.0 55.0 6.15 55.45 6.7 Q56.0 7.55 56.35 10.6 56.65 13.1 58.2 13.9 L60.0 14.55 Q60.9 14.85 61.35 15.6 62.2 17.05 62.3 19.1 L62.5 27.3 62.05 27.3 62.05 24.2 Q61.8 22.0 60.65 21.95 L60.35 22.25 Q60.2 23.55 60.4 25.55 L60.55 28.85 60.7 32.15 Q60.8 34.1 60.3 35.3 L59.8 33.95 Q58.45 34.15 58.65 38.75 L58.8 41.65 Q58.7 43.2 58.15 44.45 L57.7 44.25 57.75 42.3 57.8 40.35 Q57.6 39.0 55.9 36.6 55.5 37.5 55.4 39.6 L55.35 42.75 54.5 45.65 Q53.7 47.5 53.6 48.4 53.45 49.6 53.85 51.5 L54.35 54.6 Q54.45 55.9 54.05 57.75 L53.4 60.85 52.55 64.75 Q52.05 67.05 52.15 68.75 L52.0 73.0 51.4 77.1 50.35 85.45 49.9 89.55 49.8 92.0 Q49.75 93.6 49.25 94.25 L49.05 91.8 48.65 86.85 47.95 81.9 Q46.5 75.6 46.35 73.15 L46.05 68.95 Q45.8 66.55 45.0 65.15 44.15 63.6 43.75 61.7 L43.35 58.05 Q43.25 57.0 43.75 54.65 44.2 52.65 43.85 51.25 L43.35 49.2 43.05 47.1 43.15 45.15 Q43.2 44.0 42.9 43.3 L42.2 41.8 Q41.9 41.05 41.85 40.1 L42.05 37.9 Q42.1 36.3 41.55 35.95 40.25 35.15 39.6 38.0 L39.1 41.75 Q37.8 41.65 37.9 39.5 L38.05 36.45 Q37.8 35.6 36.6 34.4 35.4 33.25 34.5 32.9 L34.95 30.4 Q35.25 28.8 34.95 28.05 L33.85 26.5 Q33.35 25.85 33.65 24.65 L34.2 22.5 34.8 21.65 35.4 20.8 Q35.8 20.0 35.6 18.75 35.35 17.45 34.7 16.95 34.8 15.25 36.1 14.35 L38.45 12.75 39.45 11.75 40.9 11.45 42.6 11.45 Q43.65 11.35 43.95 10.65 L44.35 10.6 44.65 9.05 45.05 9.05 Q45.0 8.35 45.4 7.85 45.85 7.3 46.55 7.4 46.65 8.65 47.65 8.4 L47.65 8.65 47.95 8.8 48.1 9.0 47.8 8.35 47.65 8.4 Q47.7 7.8 48.4 7.25 L49.45 6.2"/><path fill="#ffffff" stroke="none" d="M19.1 48.45 L18.95 48.45 18.05 47.1 18.45 48.9 18.7 49.55 19.15 50.05 Q20.65 52.2 20.9 53.5 L21.25 53.5 20.75 52.2 20.4 50.7 Q20.1 49.65 19.1 48.45 M24.7 49.95 L24.2 47.7 Q23.75 46.15 23.2 45.75 23.0 46.35 23.35 47.9 L23.1 47.95 22.7 47.2 23.4 49.0 23.6 49.15 Q23.55 50.25 24.5 52.05 L25.85 54.9 24.7 49.95 M28.1 68.45 L28.05 68.85 28.5 69.4 28.75 70.05 28.4 68.1 27.8 66.15 Q27.25 63.05 26.6 61.55 26.2 60.55 26.1 59.3 L26.05 56.95 Q25.95 55.35 25.05 54.5 24.2 53.7 23.4 52.1 L22.4 50.0 21.1 48.1 21.85 50.9 Q22.2 52.9 22.65 53.8 L23.9 55.9 Q24.55 57.1 24.5 58.3 23.9 58.95 24.7 60.8 L25.75 63.35 Q26.15 65.45 28.1 68.45 M28.9 44.55 L28.7 44.65 28.1 42.95 Q27.6 41.8 26.95 41.95 L26.85 42.15 Q27.15 43.5 28.15 45.75 L28.8 47.55 29.15 49.3 28.6 48.7 Q27.9 49.05 28.85 51.5 29.7 53.55 29.6 54.7 L29.3 54.7 28.95 53.6 28.65 52.55 Q28.25 51.75 26.95 50.8 26.9 51.4 27.2 52.55 L27.75 54.3 27.8 56.05 27.8 57.7 28.45 59.35 29.3 60.95 Q29.75 62.15 29.85 64.55 L30.1 66.85 Q30.2 68.2 30.6 69.1 31.1 70.4 31.65 73.8 L33.05 80.9 33.45 82.25 33.5 83.55 32.95 82.25 31.85 79.65 30.6 77.05 28.2 72.55 27.3 70.3 26.05 68.4 24.75 66.7 23.85 64.8 Q23.6 64.2 23.5 62.85 L22.95 61.0 21.8 58.85 21.5 57.75 21.0 56.8 20.35 56.1 19.9 55.25 19.6 54.0 Q19.35 53.1 19.0 53.0 17.6 52.7 18.65 56.6 17.95 56.8 17.6 55.6 L17.15 53.9 Q16.85 53.45 16.0 53.0 L14.6 52.55 14.35 51.15 Q14.25 50.2 13.95 49.85 L13.1 49.2 Q12.7 48.95 12.65 48.2 L12.55 46.9 12.95 45.8 Q13.0 45.25 12.65 44.6 L11.85 43.8 Q11.65 42.85 12.15 42.15 L13.15 40.85 13.55 40.15 Q13.7 39.9 14.3 39.7 L15.2 39.4 Q15.75 39.15 15.8 38.7 L16.05 38.6 15.9 37.75 16.15 37.65 16.1 36.95 Q16.25 36.55 16.65 36.5 16.9 37.1 17.45 36.85 L17.5 36.95 17.65 37.0 17.8 37.1 17.5 36.8 17.45 36.85 Q17.35 36.5 17.65 36.05 L18.05 35.3 18.05 35.0 Q19.05 34.4 20.85 34.3 L21.05 34.3 21.4 34.5 Q21.85 34.85 22.6 36.5 23.2 37.8 24.2 37.95 L25.3 38.0 Q25.85 38.0 26.2 38.35 26.85 38.85 27.35 40.1 28.5 42.95 28.9 44.55"/><path fill="#ffffff" stroke="none" d="M76.9 45.75 Q76.0 48.2 75.9 49.5 L75.9 52.65 Q75.85 54.4 75.0 55.75 73.9 56.1 73.55 58.65 L73.1 62.25 Q72.15 64.75 72.35 69.45 L72.1 69.9 Q72.35 70.2 72.2 70.75 L72.05 71.7 72.95 69.25 73.55 66.7 74.5 63.75 75.25 60.75 Q75.45 59.35 76.15 57.9 L77.6 55.25 Q78.55 53.4 78.1 51.85 77.7 50.2 77.85 48.1 L78.15 45.1 Q78.3 43.3 77.9 42.1 77.85 43.3 76.9 45.75 M81.6 43.7 Q82.1 41.65 81.8 40.85 L81.1 42.05 80.55 43.35 80.25 43.25 80.3 42.2 79.85 44.65 80.05 44.95 Q79.25 46.1 79.1 48.75 L78.75 52.85 80.7 46.55 81.6 43.7 M74.25 42.2 L74.4 43.0 74.5 45.55 Q74.4 47.2 74.1 48.0 L74.5 48.25 Q74.4 47.55 74.8 46.45 L75.45 44.55 Q75.8 43.05 75.4 41.2 L75.25 41.1 75.15 38.95 Q74.8 39.7 74.4 41.3 L74.25 42.2 M81.4 27.65 L81.3 27.1 81.2 27.1 Q81.3 26.7 81.95 26.4 L82.85 25.8 83.1 25.45 Q84.7 25.45 86.7 26.5 L86.95 26.65 87.2 27.15 Q87.45 27.85 87.2 30.15 87.0 32.0 88.0 32.8 L89.2 33.6 Q89.8 34.0 90.0 34.6 90.45 35.75 90.15 37.3 L88.95 43.3 88.65 43.2 89.1 40.95 Q89.3 39.3 88.5 39.1 L88.2 39.25 87.75 41.7 87.3 44.1 86.85 46.5 86.1 48.75 85.95 47.7 Q84.85 47.6 84.3 51.0 L83.95 53.1 83.05 55.05 82.75 54.85 83.1 53.45 83.45 52.05 Q83.5 50.85 82.65 49.0 82.2 49.6 81.85 51.1 L81.3 53.4 80.2 55.35 Q79.3 56.5 79.1 57.2 78.8 58.1 78.75 59.55 L78.65 61.85 Q78.35 63.5 76.9 66.25 L75.7 68.95 Q74.95 70.55 74.75 71.8 L73.95 74.85 72.85 77.75 69.75 86.6 69.3 88.35 Q68.95 89.5 68.5 89.9 L68.75 88.1 Q69.55 83.15 69.55 80.7 69.55 75.9 69.8 74.1 L70.25 71.0 Q70.45 69.15 70.1 68.05 69.7 66.8 69.75 65.3 L70.05 62.6 Q70.15 61.75 70.9 60.2 71.5 58.75 71.55 57.75 L71.5 56.15 71.6 54.6 72.0 53.2 72.1 51.75 71.85 50.55 71.85 49.3 72.35 47.7 Q72.65 46.55 72.3 46.2 71.05 45.0 69.6 50.0 68.65 49.75 69.1 48.2 L69.7 46.0 68.95 44.3 67.7 42.85 68.4 41.1 Q68.9 40.0 68.8 39.35 L68.25 38.05 Q67.95 37.55 68.4 36.7 L69.15 35.2 70.3 34.2 Q70.7 33.65 70.75 32.7 70.8 31.7 70.4 31.25 70.75 30.05 71.8 29.6 73.15 29.25 73.8 28.8 L74.65 28.25 Q75.0 28.1 75.8 28.25 L77.0 28.55 Q77.8 28.65 78.15 28.15 L78.45 28.2 78.9 27.1 79.2 27.15 Q79.3 26.65 79.65 26.35 80.05 26.0 80.55 26.2 80.45 27.1 81.2 27.1 L81.15 27.3 81.35 27.45 81.4 27.65"/><path fill="#ffffff" stroke="none" d="M28.25 90.85 Q28.15 92.1 27.05 92.45 L26.7 91.15 25.5 90.9 24.4 90.25 24.55 88.7 24.25 87.15 Q25.2 87.0 26.25 87.55 L28.05 88.65 28.25 90.85"/><path fill="#ffffff" stroke="none" d="M42.55 91.45 Q43.15 93.65 41.95 94.3 L39.4 95.15 39.55 95.15 38.8 95.3 39.4 95.15 38.4 95.15 37.3 95.1 36.1 93.65 Q35.45 92.0 36.4 90.15 37.05 89.75 37.3 88.95 L37.6 87.35 38.45 85.6 Q38.9 84.65 40.1 84.45 40.9 84.95 41.2 85.95 L41.55 87.8 42.55 91.45"/><path fill="#ffffff" stroke="none" d="M40.7 79.95 Q40.2 79.65 39.95 78.65 40.75 77.8 41.4 78.35 42.05 78.85 42.2 79.9 42.35 81.0 41.85 81.45 41.3 82.0 40.05 81.15 L40.15 81.0 40.4 80.95 40.7 79.95"/><path fill="#ffffff" stroke="none" d="M62.6 78.3 Q62.85 80.55 62.3 81.4 61.65 82.4 59.3 82.65 56.9 82.85 57.2 81.45 L56.05 80.15 Q54.45 79.7 54.95 77.35 55.45 75.2 56.7 74.4 58.15 73.45 59.6 73.5 61.3 73.5 61.85 75.0 62.4 76.5 62.6 78.3"/><path fill="#ffffff" stroke="none" d="M55.7 88.45 Q55.8 87.7 56.75 87.35 L58.35 87.15 Q58.9 88.65 58.55 89.25 L56.4 89.3 55.7 88.45"/><path fill="#ffffff" stroke="none" d="M77.55 93.1 Q76.75 94.5 75.7 94.15 L75.4 93.3 Q74.15 92.0 75.4 90.45 76.65 88.9 77.75 90.65 78.4 91.65 77.55 93.1"/></g></defs><g><g><use transform="matrix(1.0,0.0,0.0,1.0,0.0,0.0)" xlink:href="#c1"/></g></g></svg>