<?xml version='1.0' encoding='UTF-8'?>
<svg xmlns="http://www.w3.org/2000/svg" xmlns:xlink="http://www.w3.org/1999/xlink" version="1.1" width="91px" height="97px" viewBox="4.6 4.4 91.25 96.55"><defs><g id="c1"><path fill="#ffffff" fill-opacity="0.8" d="M85.1 26.75 L81.65 32.1 Q77.35 24.5 70.05 19.7 62.6 14.75 53.75 13.95 L53.75 18.6 46.75 18.6 46.75 13.95 Q35.55 15.05 27.0 22.5 L22.2 19.05 Q27.2 14.45 33.4 11.65 39.75 8.8 46.75 8.15 L46.75 4.4 53.75 4.4 53.75 8.15 Q63.45 8.95 71.75 13.95 79.9 18.85 85.1 26.75"/><path fill="#ffffff" fill-opacity="0.8" d="M35.65 88.6 Q39.2 86.25 43.5 84.85 L46.75 85.35 46.75 83.95 48.05 83.65 49.7 86.35 51.15 91.0 52.45 95.65 46.75 95.65 46.75 91.15 Q40.9 90.6 35.65 88.6"/><path fill="#ffffff" stroke="none" d="M48.85 23.05 Q55.25 21.7 56.9 26.7 58.45 31.2 55.4 35.0 55.25 36.0 56.15 36.65 57.15 37.35 57.2 38.0 67.35 39.7 74.75 38.05 84.15 36.0 85.85 29.0 87.25 29.3 86.85 30.6 L85.85 32.6 Q87.9 33.15 88.95 31.5 90.1 29.65 91.25 29.6 89.5 37.7 80.9 41.95 77.9 43.5 63.8 47.55 61.0 50.85 60.3 57.45 59.8 61.85 60.2 69.6 L62.25 69.85 Q63.85 69.7 64.35 70.8 64.4 73.6 62.0 75.0 62.45 77.5 63.85 80.8 L66.2 86.4 Q68.9 93.35 67.35 99.45 62.9 100.95 60.15 97.25 59.7 96.65 56.6 89.9 56.0 89.3 55.45 89.6 L53.65 89.9 Q52.5 86.6 51.55 84.85 50.15 82.3 48.25 80.95 46.3 82.25 44.2 82.7 L39.3 83.35 Q37.4 83.6 35.05 85.55 33.05 87.2 31.55 86.9 29.3 86.45 28.3 84.15 27.3 81.9 27.95 79.15 28.7 76.15 35.25 71.5 42.0 66.65 42.9 64.25 42.15 61.15 41.25 52.75 40.5 45.1 39.3 41.55 36.95 38.9 28.25 32.9 21.0 27.9 18.4 23.05 13.4 22.1 11.25 18.9 12.65 18.85 13.05 20.05 13.95 19.7 11.95 18.1 10.1 16.65 11.85 16.5 L12.2 17.05 12.45 17.7 Q13.25 17.3 12.2 16.55 10.9 15.6 11.25 14.7 L12.45 15.1 Q12.65 15.95 13.45 15.85 14.2 15.8 12.45 15.1 L12.45 14.7 Q12.55 13.95 14.35 14.95 L17.8 17.1 Q18.85 17.25 18.95 15.5 19.0 13.8 20.2 14.1 L20.2 19.45 Q24.6 24.05 32.35 28.2 L46.45 35.0 Q43.95 28.05 48.85 23.05"/><path fill="#ffffff" fill-opacity="0.8" d="M91.95 47.5 L95.85 47.5 95.85 54.45 91.75 54.45 Q90.55 65.0 84.35 73.7 78.3 82.2 69.0 86.9 L66.4 81.75 Q74.25 77.8 79.45 70.65 84.7 63.35 85.9 54.45 L81.65 54.45 81.65 47.5 86.15 47.5 Q86.0 44.75 85.5 42.45 87.7 41.0 90.2 37.55 91.75 42.75 91.95 47.5"/><path fill="#ffffff" fill-opacity="0.8" d="M16.15 25.95 L18.35 27.9 20.65 29.65 Q15.15 37.75 14.55 47.5 L18.85 47.5 18.85 54.45 14.8 54.45 Q15.7 60.95 18.8 66.7 21.8 72.3 26.6 76.5 24.3 79.2 24.85 82.55 18.3 77.45 14.2 70.25 9.95 62.9 9.0 54.45 L4.6 54.45 4.6 47.5 8.75 47.5 Q9.4 35.6 16.15 25.95"/></g></defs><g><g><use transform="matrix(1.0,0.0,0.0,1.0,0.0,0.0)" xlink:href="#c1"/></g></g></svg>