<?xml version='1.0' encoding='UTF-8'?>
<svg xmlns="http://www.w3.org/2000/svg" xmlns:xlink="http://www.w3.org/1999/xlink" version="1.1" width="92px" height="95px" viewBox="3.85 5.35 91.95 94.65"><defs><g id="c1"><path fill="#ffffff" stroke="none" d="M92.25 64.15 Q92.35 65.55 92.55 66.15 92.85 66.3 93.0 67.2 L93.05 68.5 92.6 69.5 Q92.25 70.1 92.3 70.65 L90.9 70.75 89.25 71.25 86.65 72.05 84.3 69.65 84.2 69.25 83.8 66.85 83.9 65.75 84.15 64.75 Q84.85 64.1 87.3 63.65 89.6 63.25 90.2 62.5 L91.15 61.35 Q91.55 61.0 91.95 62.15 92.2 62.8 92.25 64.15"/><path fill="#ffffff" stroke="none" d="M80.3 68.0 L80.65 69.0 81.05 69.9 81.8 70.7 Q82.15 71.2 81.75 71.75 L81.0 72.35 80.4 73.1 79.7 73.55 Q79.2 73.8 79.05 74.0 L78.55 73.9 77.75 71.65 77.3 70.8 Q77.2 70.55 77.6 70.05 L78.8 68.7 Q79.65 67.9 80.3 68.0"/><path fill="#ffffff" stroke="none" d="M89.15 81.1 Q89.35 80.9 89.9 80.8 L90.7 80.65 91.55 80.35 92.4 80.2 Q93.45 80.25 93.7 82.6 93.9 83.4 93.4 84.0 L92.9 84.35 92.55 84.8 92.3 84.85 Q92.4 85.55 91.15 85.35 89.95 85.15 89.7 84.65 L89.2 84.4 88.9 82.7 Q88.7 81.6 89.15 81.1"/><path fill="#ffffff" stroke="none" d="M63.2 23.9 L61.9 22.8 Q61.3 22.0 61.3 21.25 L63.65 19.95 Q65.15 19.25 65.75 20.55 66.6 22.55 65.85 23.15 L64.6 23.8 63.2 24.1 63.2 23.9"/><path fill="#ffffff" stroke="none" d="M32.2 14.45 Q33.75 15.75 34.85 16.25 34.95 17.25 34.4 18.65 L33.5 20.95 33.2 21.85 Q33.05 22.2 32.55 22.35 L30.85 22.25 29.25 22.5 27.65 22.6 Q26.55 22.4 24.25 20.9 L24.25 20.8 24.3 20.75 24.3 20.6 Q23.4 19.75 23.0 18.15 22.55 16.35 23.3 15.35 23.7 14.7 25.35 14.05 27.5 13.85 27.75 13.35 L27.95 13.3 28.2 13.0 Q28.35 12.65 28.65 12.35 29.6 11.65 30.2 11.7 31.2 13.7 32.2 14.45"/><path fill="#ffffff" stroke="none" d="M24.1 36.5 L21.5 37.9 20.3 37.75 19.2 37.15 19.4 37.15 18.9 36.4 Q19.05 36.05 18.7 35.35 L18.05 34.35 18.6 33.7 20.35 33.1 22.15 33.25 22.7 33.85 23.1 34.65 23.75 35.5 24.1 36.5"/><path fill="#ffffff" stroke="none" d="M14.55 69.3 L13.95 70.1 13.3 70.7 Q12.75 70.95 12.2 70.7 L11.4 70.15 11.35 70.0 11.1 70.0 11.25 70.45 Q11.6 70.45 11.6 71.35 L11.65 72.55 12.45 73.5 12.65 74.0 12.6 74.6 12.9 77.2 Q13.0 78.45 13.95 79.4 14.55 80.0 15.9 80.8 17.6 81.8 19.1 81.4 L21.8 80.55 Q22.95 79.95 23.6 78.9 L24.35 77.8 24.65 76.8 Q23.8 77.0 23.05 77.45 L22.55 78.0 21.95 78.5 19.2 78.8 Q18.05 78.8 17.3 77.6 16.95 77.0 17.55 75.25 L17.75 74.7 17.6 74.2 Q17.45 74.0 17.0 73.85 L16.3 73.65 16.6 72.9 Q16.75 72.45 17.05 72.25 17.65 71.8 18.45 71.7 L17.1 71.5 15.7 71.15 14.9 70.4 14.55 69.3 M17.9 62.55 Q18.4 63.3 18.25 64.1 L18.0 65.8 17.95 66.6 17.45 67.35 Q16.75 68.15 15.9 68.15 L16.5 68.25 Q16.9 68.95 17.6 68.9 L18.95 68.6 Q18.9 67.95 19.95 67.0 20.85 66.1 20.6 65.2 L19.5 63.65 Q18.6 62.7 17.9 62.55 M37.25 56.75 L33.75 56.9 Q32.8 56.6 31.2 55.7 L30.3 52.3 29.8 53.85 29.0 55.2 27.8 55.75 Q28.75 55.75 29.5 56.35 L30.1 57.2 30.55 58.2 30.45 59.55 30.15 60.85 29.95 62.0 29.4 63.0 29.75 62.95 Q29.5 63.5 29.4 64.8 29.9 64.8 30.7 64.3 L32.0 63.55 34.25 63.15 33.15 60.85 33.1 59.7 32.7 58.7 34.9 58.55 35.75 58.0 36.6 57.5 36.75 57.1 37.25 56.75 M60.4 73.6 L55.05 74.7 49.65 75.45 48.25 75.4 46.85 75.45 44.35 75.95 42.7 76.05 41.05 76.15 Q40.7 76.2 39.9 76.55 L38.7 76.85 39.1 76.5 Q38.1 76.45 36.85 77.3 L34.8 78.7 37.3 78.7 39.75 78.4 43.5 77.9 47.4 77.8 46.85 78.0 46.8 78.15 Q45.7 78.45 43.85 79.55 L41.05 81.05 45.2 80.4 49.55 79.9 55.05 78.7 60.2 77.7 Q63.05 77.0 65.2 76.05 L60.25 76.3 56.25 76.75 55.25 77.0 54.25 77.1 Q55.75 76.2 58.8 75.3 L61.35 74.15 Q62.9 73.4 63.9 73.25 L60.4 73.6 M57.4 60.1 L55.55 59.2 53.0 58.35 Q51.85 57.9 50.45 58.0 L46.6 58.45 Q44.45 58.95 43.35 60.2 L42.3 61.4 41.35 62.65 41.1 63.3 41.1 64.0 40.6 65.5 36.6 65.25 36.55 65.3 37.0 65.9 37.4 66.5 38.4 67.2 39.9 67.65 Q40.8 67.75 41.35 67.3 L42.0 66.35 42.5 65.25 Q43.85 64.05 44.2 63.3 L45.3 62.25 Q46.05 61.65 46.8 61.75 46.9 63.0 47.2 63.65 L47.75 64.35 47.85 65.3 48.15 68.15 48.25 67.0 48.5 65.7 48.85 64.8 48.6 63.45 Q48.3 62.6 48.4 62.1 48.45 61.6 48.9 61.2 L49.75 60.5 Q49.8 59.75 50.9 59.75 L52.6 59.85 54.5 60.2 55.05 60.6 55.6 60.9 57.5 62.85 Q58.95 64.05 59.25 64.95 L61.2 64.85 61.8 64.05 Q62.1 63.5 62.5 63.4 61.4 63.4 60.4 62.7 59.15 61.85 58.9 61.2 L58.15 60.7 57.4 60.1 M47.8 49.25 L47.6 47.55 47.8 47.15 47.6 47.05 47.6 47.55 47.2 47.9 46.55 50.4 Q46.2 51.9 46.9 52.9 47.2 53.35 48.15 53.45 L49.65 53.5 51.0 53.25 52.3 52.95 Q51.5 53.0 50.25 52.35 L48.4 51.1 47.95 50.25 47.8 49.25 M51.35 31.4 L50.05 31.25 47.45 31.45 Q46.5 32.05 46.15 33.1 L46.05 34.4 45.8 35.6 45.7 35.55 45.75 35.65 45.8 35.6 Q45.95 36.35 47.05 36.05 L48.6 35.45 50.65 35.25 Q51.55 35.3 52.05 36.1 L52.45 35.65 52.95 33.75 52.9 32.75 52.4 31.9 Q52.0 31.85 51.35 31.4 M87.3 36.3 Q87.05 36.7 86.95 37.85 L86.2 39.45 Q85.15 41.45 83.7 42.0 L82.25 42.25 Q81.8 42.15 81.75 41.95 L81.65 41.25 81.45 39.8 81.15 38.4 Q81.15 42.85 79.7 45.15 78.2 47.35 73.75 47.15 71.2 47.0 70.25 46.25 L69.85 45.7 69.45 45.1 Q69.15 44.8 68.05 44.3 L67.85 44.65 67.85 44.75 67.85 46.55 Q67.75 47.55 67.2 48.15 L65.75 49.75 64.9 51.05 63.9 52.15 63.9 52.35 62.9 53.05 61.85 53.85 Q63.55 53.85 64.5 54.4 65.65 55.05 65.8 55.55 66.25 55.7 65.75 57.75 L65.95 58.75 66.55 59.5 Q66.4 59.85 66.5 60.65 L66.55 61.85 Q66.35 62.85 65.75 63.5 65.95 64.05 65.55 64.8 L64.9 66.0 63.6 67.95 Q66.2 67.6 68.85 64.25 70.5 62.1 70.3 58.8 70.25 58.3 70.45 57.85 L70.9 57.05 71.15 55.5 71.75 52.3 73.95 52.05 Q75.45 51.8 75.55 50.85 76.45 51.55 78.95 51.7 L80.65 51.4 Q81.55 51.1 82.05 50.65 82.55 50.6 83.15 49.8 L84.0 48.55 84.25 47.85 84.4 47.15 Q84.55 46.7 85.05 46.65 L86.0 46.55 88.35 46.25 Q89.6 45.95 90.2 45.15 90.9 44.3 91.35 42.55 91.85 41.15 91.75 40.8 91.45 41.75 90.6 42.7 89.7 43.75 88.75 43.95 87.9 44.15 86.5 43.95 L84.25 43.45 85.75 42.35 86.3 41.5 86.65 40.6 Q87.5 38.85 87.3 36.3 M84.1 7.15 Q84.7 7.6 85.05 8.6 L85.3 8.9 85.65 8.9 87.45 11.15 88.8 13.5 89.7 16.4 90.15 17.75 90.7 19.0 Q91.25 19.3 91.75 21.1 92.45 21.45 93.15 23.6 L93.85 26.65 94.55 27.9 95.0 29.3 Q95.8 31.5 95.8 35.45 95.8 36.65 95.15 38.0 L93.95 40.3 Q93.3 41.65 93.05 43.1 L92.9 44.65 92.5 46.1 Q91.95 46.9 90.15 47.3 L87.3 47.45 86.45 48.75 Q85.95 48.85 85.4 49.75 L84.75 51.2 83.35 52.4 81.95 53.45 80.05 53.7 78.05 53.6 76.55 53.2 75.15 53.0 Q74.4 53.2 74.1 55.45 L72.8 61.35 Q72.2 63.7 70.3 66.0 68.2 68.45 65.95 69.15 66.05 70.4 67.15 72.7 L67.9 75.05 68.25 75.85 Q68.35 76.0 68.95 76.2 L71.7 77.2 Q73.45 77.8 74.45 78.35 77.55 80.05 78.7 82.55 L79.65 85.35 80.0 88.45 Q80.2 91.85 82.1 93.1 82.5 94.9 83.3 95.05 83.85 96.7 84.9 97.05 L83.85 98.1 83.8 98.45 82.0 100.0 67.3 100.0 67.0 99.75 65.7 98.6 64.35 97.75 61.6 97.15 Q57.25 96.0 56.85 94.25 L55.85 93.25 55.05 92.0 54.2 91.05 52.8 90.95 46.35 92.3 45.5 95.7 Q44.95 97.9 44.1 98.95 L43.15 100.0 20.95 100.0 Q22.4 98.15 22.7 97.15 L23.05 96.9 23.3 96.6 23.75 94.9 24.15 93.2 Q24.2 90.85 24.65 89.5 L25.7 86.5 Q26.8 84.5 26.9 83.5 L27.4 83.2 Q27.5 82.75 28.3 82.05 L29.4 81.0 29.75 80.95 Q30.05 80.1 31.65 78.85 L34.1 77.0 35.1 75.95 35.2 74.4 Q34.95 71.65 35.3 70.6 L32.8 70.3 Q31.3 69.9 31.0 68.75 L29.65 70.3 Q29.25 70.9 28.75 72.3 27.85 74.05 26.15 75.35 25.5 78.45 24.25 80.0 22.0 82.65 20.6 82.95 18.15 83.45 15.5 81.75 13.2 80.3 11.85 78.1 11.15 76.9 10.85 75.35 L10.6 72.4 Q10.5 70.7 9.95 69.4 L8.4 66.85 7.8 65.7 7.35 64.65 6.25 63.8 Q5.55 63.3 5.45 62.8 5.35 62.4 5.6 61.55 5.75 60.8 5.45 60.2 L3.85 57.8 5.9 55.85 Q7.35 54.75 8.2 54.4 L8.25 54.0 Q8.85 53.75 9.3 53.1 L10.8 52.35 12.55 52.2 Q12.95 52.35 13.75 53.0 L14.9 53.9 16.2 54.6 Q17.05 55.15 17.15 55.6 17.3 56.25 16.7 57.0 L15.55 57.95 16.35 58.65 17.0 59.4 17.2 59.9 18.25 58.5 19.1 57.0 Q19.5 56.5 20.6 55.8 L22.05 54.65 Q22.45 54.15 22.6 52.9 L22.8 51.0 Q23.35 48.6 23.9 47.45 L25.65 46.45 Q26.9 45.65 27.5 45.4 L32.8 44.9 32.85 44.55 33.8 43.85 Q34.45 43.35 34.55 42.85 L36.45 41.35 Q37.65 40.45 38.7 40.3 L40.05 40.3 Q40.75 40.3 41.2 39.8 L41.8 38.65 42.0 37.45 41.75 34.45 41.2 33.3 Q40.85 32.6 40.85 32.05 40.8 31.05 41.45 29.5 L41.95 27.9 42.4 26.25 Q42.9 25.15 44.65 24.05 45.75 23.35 47.75 22.85 47.05 23.3 47.65 23.75 L48.85 23.6 50.0 23.05 53.05 22.0 Q51.65 22.75 50.9 24.15 L52.25 24.0 53.55 23.85 Q53.35 24.5 53.85 24.5 L54.2 24.25 54.9 24.8 55.3 25.6 55.55 26.45 Q56.1 28.35 56.35 31.5 L56.65 33.35 Q56.85 34.85 56.35 35.05 55.4 35.4 55.15 35.95 54.95 36.4 55.05 37.55 L58.3 36.9 59.9 37.3 61.45 37.55 Q62.05 36.0 64.25 35.35 L67.95 35.05 70.0 35.5 71.85 35.65 Q74.2 35.0 75.65 34.9 75.6 33.6 76.85 30.75 L77.75 29.15 78.45 27.55 78.2 26.1 77.8 24.65 76.6 22.3 Q76.15 20.8 75.4 20.1 75.05 19.8 72.9 18.8 L70.3 17.5 Q69.6 16.95 69.45 16.4 L69.25 14.95 68.4 12.15 Q67.9 10.1 69.1 9.95 69.05 9.7 69.15 9.6 L71.85 8.4 Q73.5 7.75 73.75 6.4 L76.2 6.4 77.15 6.1 77.75 5.55 79.5 5.35 81.45 5.6 Q82.25 5.35 83.1 5.8 84.05 6.3 84.1 7.15"/></g></defs><g><g><use transform="matrix(1.0,0.0,0.0,1.0,0.0,0.0)" xlink:href="#c1"/></g></g></svg>