<?xml version='1.0' encoding='UTF-8'?>
<svg xmlns="http://www.w3.org/2000/svg" xmlns:xlink="http://www.w3.org/1999/xlink" version="1.1" width="97px" height="99px" viewBox="1.35 1.1 97.15 99.2"><defs><g id="c1"><path fill="#ffffff" stroke="none" d="M48.55 39.6 Q48.55 41.5 47.2 42.8 45.9 44.15 44.0 44.15 42.1 44.15 40.75 42.8 39.4 41.5 39.4 39.6 39.4 37.7 40.75 36.35 42.1 35.0 44.0 35.0 45.9 35.0 47.2 36.35 48.55 37.7 48.55 39.6"/><path fill="#ffffff" stroke="none" d="M36.1 22.05 Q36.1 23.95 34.75 25.3 33.4 26.65 31.5 26.65 29.6 26.65 28.3 25.3 26.95 23.95 26.95 22.05 26.95 20.2 28.3 18.85 29.65 17.5 31.5 17.5 33.4 17.5 34.75 18.85 36.1 20.15 36.1 22.05"/><path fill="#ffffff" stroke="none" d="M76.85 22.05 Q76.85 23.95 75.5 25.3 74.15 26.65 72.25 26.65 70.35 26.65 69.05 25.3 67.7 23.95 67.7 22.05 67.7 20.2 69.05 18.85 70.4 17.5 72.25 17.5 74.15 17.5 75.5 18.85 76.85 20.15 76.85 22.05"/><path fill="#ffffff" stroke="none" d="M67.0 6.3 Q67.0 8.2 65.65 9.55 64.3 10.9 62.4 10.9 60.5 10.9 59.2 9.55 57.85 8.2 57.85 6.3 57.85 4.4 59.2 3.05 60.5 1.75 62.4 1.75 64.3 1.75 65.65 3.05 67.0 4.4 67.0 6.3"/><path fill="#ffffff" stroke="none" d="M85.3 6.3 Q85.3 8.2 83.95 9.55 82.6 10.9 80.7 10.9 78.8 10.9 77.5 9.55 76.15 8.2 76.15 6.3 76.15 4.4 77.5 3.05 78.8 1.75 80.7 1.75 82.6 1.75 83.95 3.05 85.3 4.4 85.3 6.3"/><path fill="#ffffff" stroke="none" d="M57.7 22.05 Q57.7 23.95 56.35 25.3 55.05 26.65 53.15 26.65 51.25 26.65 49.9 25.3 48.55 23.95 48.55 22.05 48.55 20.15 49.9 18.85 51.25 17.5 53.15 17.5 55.05 17.5 56.35 18.85 57.7 20.2 57.7 22.05"/><path fill="#ffffff" stroke="none" d="M36.95 2.45 Q38.25 1.1 40.15 1.1 42.05 1.1 43.4 2.45 44.75 3.8 44.75 5.7 44.75 7.6 43.4 8.9 42.05 10.25 40.15 10.25 38.3 10.25 36.95 8.9 35.6 7.6 35.6 5.7 35.6 3.8 36.95 2.45"/><path fill="#ffffff" stroke="none" d="M26.45 5.7 Q26.45 7.6 25.1 8.9 23.75 10.25 21.85 10.25 20.0 10.25 18.65 8.9 17.3 7.6 17.3 5.7 17.3 3.8 18.65 2.45 19.95 1.1 21.85 1.1 23.75 1.1 25.1 2.45 26.45 3.8 26.45 5.7"/><path fill="#ffffff" stroke="none" d="M66.65 40.65 Q66.65 42.55 65.3 43.9 63.95 45.25 62.05 45.25 60.15 45.25 58.85 43.9 57.5 42.55 57.5 40.65 57.5 38.8 58.85 37.45 60.2 36.1 62.05 36.1 63.95 36.1 65.3 37.45 66.65 38.75 66.65 40.65"/><path fill="#ffffff" fill-opacity="0.8" d="M6.6 5.7 L32.5 44.15 Q40.25 47.1 42.8 47.1 L62.05 47.6 67.7 49.25 92.85 13.45 80.7 49.25 98.5 37.85 76.15 68.9 Q76.25 65.75 75.2 62.05 73.15 54.6 67.7 51.7 62.15 48.7 56.35 48.25 32.4 46.75 28.25 49.55 26.1 51.0 25.3 54.8 L23.8 64.05 1.35 27.85 23.8 43.0 6.6 5.7"/><path fill="#ffffff" stroke="none" d="M67.15 66.25 Q67.55 61.75 63.55 58.15 59.5 54.6 53.45 54.05 47.4 53.55 42.8 56.35 38.2 59.15 37.8 63.65 37.45 68.2 41.45 71.75 45.5 75.35 51.55 75.85 57.6 76.4 62.2 73.55 66.75 70.75 67.15 66.25 M35.1 63.45 Q35.15 62.1 35.7 60.4 36.75 56.9 39.15 54.9 39.8 54.5 36.65 54.15 L31.85 53.85 28.95 100.3 26.95 100.3 28.7 51.75 30.85 50.25 39.35 50.45 Q55.5 47.4 63.8 52.15 67.95 54.55 68.85 57.55 70.15 59.05 70.2 61.8 L69.85 66.5 68.2 100.3 46.0 100.25 46.5 98.45 Q48.8 92.4 51.05 89.75 51.7 89.0 55.55 86.75 L60.15 83.85 Q62.75 81.7 63.3 78.6 L60.45 80.4 Q54.35 84.1 46.4 82.25 42.35 81.35 39.25 79.55 39.4 82.4 38.0 100.3 L33.35 100.3 35.1 63.45"/></g></defs><g><g><use transform="matrix(1.0,0.0,0.0,1.0,0.0,0.0)" xlink:href="#c1"/></g></g></svg>