<?xml version='1.0' encoding='UTF-8'?>
<svg xmlns="http://www.w3.org/2000/svg" xmlns:xlink="http://www.w3.org/1999/xlink" version="1.1" width="100px" height="100px" viewBox="0.0 0.0 100.0 100.0"><defs><g id="c1"><path fill="#ffffff" stroke="none" d="M89.65 3.75 Q91.4 2.45 92.9 2.45 L93.95 2.45 Q94.8 2.95 96.3 4.65 L97.35 6.0 Q99.2 8.55 98.75 11.35 98.3 14.15 95.85 14.15 94.95 14.15 93.55 13.05 92.35 12.15 91.5 12.55 L92.2 13.7 93.1 14.85 Q93.9 17.05 92.25 19.35 L89.65 22.7 85.95 22.9 Q84.3 22.45 83.0 21.3 82.0 21.95 81.15 23.15 L82.6 25.55 Q83.5 27.0 83.45 28.2 83.4 29.55 82.3 30.9 L80.2 33.25 78.85 35.35 77.45 36.95 Q73.8 39.7 68.0 35.6 64.8 38.45 62.95 40.85 64.2 42.6 64.9 44.55 65.7 46.85 65.5 48.7 65.25 50.65 63.3 53.1 L59.75 57.0 Q55.55 61.55 53.05 64.6 50.55 66.3 46.3 66.1 42.0 65.85 39.95 63.9 36.45 66.25 31.5 71.1 L23.35 78.6 Q26.8 82.45 26.3 89.05 25.85 94.8 22.8 99.85 L19.65 99.9 14.25 99.65 Q11.15 99.25 9.25 98.25 L10.25 97.25 14.35 92.85 Q16.35 89.95 16.0 86.2 15.15 86.4 13.1 88.65 11.1 90.85 9.55 91.05 7.1 91.4 5.35 89.9 3.75 88.55 3.1 86.0 3.6 83.75 5.15 81.7 L8.15 78.4 Q5.75 77.7 3.6 78.4 1.95 78.9 0.05 80.4 L0.0 68.6 Q3.95 67.4 8.35 67.95 12.95 68.55 15.3 70.8 L24.1 63.85 Q28.9 59.85 32.35 56.3 29.55 50.95 32.5 45.75 34.95 41.4 39.95 39.05 L40.4 38.2 Q40.55 37.55 40.85 37.4 42.05 37.05 45.5 34.8 48.5 32.85 50.75 32.8 54.65 32.75 57.9 35.8 L63.65 30.75 62.0 27.65 Q61.35 25.85 62.05 24.05 62.4 23.1 66.4 20.15 70.3 17.3 71.7 17.15 73.6 16.95 75.3 17.85 L77.9 19.25 78.45 18.5 Q78.8 18.15 79.3 18.1 L78.4 15.85 Q77.7 14.35 77.9 13.25 78.2 11.75 80.75 9.95 83.35 8.1 85.3 8.2 86.3 8.25 87.3 8.95 L88.95 9.8 Q89.0 9.1 88.35 8.0 87.7 6.95 87.8 6.1 87.95 5.0 89.65 3.75 M82.5 14.15 Q83.35 14.75 84.4 13.7 85.45 12.65 84.6 12.1 L83.6 13.15 82.5 14.15 M67.65 26.15 L67.8 27.05 Q68.35 26.85 69.95 25.3 71.2 24.15 72.85 24.3 72.75 23.8 73.3 23.55 73.85 23.3 73.8 22.9 L70.8 23.0 67.8 25.2 67.65 26.15 M87.6 18.75 L88.5 17.6 89.2 16.25 88.5 15.55 87.5 16.85 86.45 18.1 87.05 18.4 87.6 18.75 M76.8 29.55 Q78.4 27.75 77.0 26.6 L74.6 29.05 Q72.95 30.45 72.4 31.65 72.85 32.3 74.45 32.6 74.55 32.05 76.8 29.55 M53.5 40.4 Q51.75 39.15 50.25 39.9 49.35 40.35 47.55 42.0 L42.95 45.45 38.8 48.7 38.85 49.8 39.0 50.75 Q40.0 50.65 41.95 49.0 43.8 47.45 45.45 47.55 47.35 47.65 48.6 49.15 49.8 50.6 49.6 52.4 49.45 53.85 47.45 55.45 45.5 57.05 45.45 57.9 L46.6 58.25 48.0 58.35 52.05 54.65 56.05 50.55 58.2 48.4 Q59.0 47.15 58.35 45.45 57.6 45.45 56.6 46.65 L54.65 48.25 Q53.65 48.55 51.45 48.25 49.15 46.4 50.65 43.9 L53.5 40.4"/><path fill="#ffffff" fill-opacity="0.8" d="M73.6 0.0 L82.9 0.45 0.0 48.65 0.0 37.95 37.25 18.85 12.6 11.65 37.2 8.2 26.05 0.0 73.6 0.0"/><path fill="#ffffff" fill-opacity="0.8" d="M83.9 86.45 L78.45 61.35 55.0 100.0 43.55 100.0 100.0 17.2 98.65 77.3 89.1 62.15 83.9 86.45"/><path fill="#ffffff" stroke="none" d="M45.05 15.35 L30.05 12.35 49.4 7.9 37.3 0.7 68.4 1.95 45.05 15.35"/><path fill="#ffffff" stroke="none" d="M88.4 51.1 L83.5 68.95 81.15 53.9 95.6 31.25 95.6 63.0 88.4 51.1"/></g></defs><g><g><use transform="matrix(1.0,0.0,0.0,1.0,0.0,0.0)" xlink:href="#c1"/></g></g></svg>