<?xml version='1.0' encoding='UTF-8'?>
<svg xmlns="http://www.w3.org/2000/svg" xmlns:xlink="http://www.w3.org/1999/xlink" version="1.1" width="63px" height="83px" viewBox="20.5 8.0 62.599999999999994 83.1"><defs><g id="c1"><path fill="#ffffff" stroke="none" d="M40.7 46.7 L38.3 48.6 36.5 45.6 38.75 43.0 38.9 40.05 39.7 38.45 43.7 36.7 45.85 36.0 50.9 36.0 51.3 38.05 55.9 38.05 56.8 37.95 56.25 35.45 57.35 36.05 59.9 34.8 60.3 36.65 60.3 41.15 62.05 46.7 61.0 49.95 57.8 50.5 53.6 53.6 49.4 54.15 47.35 51.95 43.25 52.05 45.25 48.55 40.7 46.7"/><path fill="#ffffff" stroke="none" d="M33.05 28.3 L34.25 30.8 30.9 34.3 30.4 38.1 31.3 39.95 30.7 44.2 23.45 51.35 Q21.3 44.85 20.9 38.05 20.5 31.3 21.85 25.45 L24.35 25.9 26.35 28.4 25.05 29.55 27.0 31.15 25.7 33.15 28.1 32.0 29.85 28.05 33.05 28.3"/><path fill="#ffffff" stroke="none" d="M71.9 62.2 L77.6 56.9 77.7 60.1 Q77.7 74.3 69.45 82.95 61.7 91.1 50.1 91.1 38.9 91.1 31.0 82.85 22.55 74.0 22.55 59.85 22.55 56.8 22.95 53.35 L33.75 51.35 36.05 54.05 38.9 52.35 41.75 53.6 38.5 60.45 38.5 63.95 35.9 67.3 40.25 64.2 40.1 60.45 40.7 58.05 44.55 57.35 47.0 59.5 52.1 59.2 56.3 55.95 59.95 55.95 64.75 59.3 65.8 63.3 69.0 60.0 71.9 62.2"/><path fill="#ffffff" stroke="none" d="M80.15 35.35 L81.4 32.8 81.65 32.9 Q83.1 44.05 79.6 54.65 L72.4 56.15 70.6 53.75 67.35 54.85 67.9 51.45 64.25 46.4 67.2 43.2 67.35 38.3 69.4 34.85 74.75 34.9 75.1 37.4 73.15 40.55 76.5 41.85 77.1 45.1 78.45 41.5 76.0 39.4 79.0 37.25 76.9 34.95 80.15 35.35"/><path fill="#ffffff" stroke="none" d="M58.15 24.75 L61.4 23.95 57.5 23.55 55.5 25.85 52.0 26.0 52.7 30.7 49.85 29.65 49.6 27.7 42.85 26.95 43.3 24.0 40.75 21.35 36.65 22.35 35.95 21.3 37.95 20.95 38.2 17.65 42.8 14.75 37.85 16.35 35.25 15.05 Q44.05 8.0 52.45 9.65 58.2 10.8 63.0 15.95 67.5 20.85 70.3 28.3 L70.1 28.2 69.05 30.8 66.65 31.35 62.3 31.9 59.7 31.75 58.5 28.65 55.15 29.05 53.15 27.6 55.5 27.15 58.15 24.75"/></g></defs><g><g><use transform="matrix(1.0,0.0,0.0,1.0,0.0,0.0)" xlink:href="#c1"/></g></g></svg>