<?xml version='1.0' encoding='UTF-8'?>
<svg xmlns="http://www.w3.org/2000/svg" xmlns:xlink="http://www.w3.org/1999/xlink" version="1.1" width="89px" height="94px" viewBox="0.0 2.8 88.55 93.60000000000001"><defs><g id="c1"><path fill="#ffffff" stroke="none" d="M44.5 35.75 L49.7 35.4 54.85 35.0 60.4 33.5 65.45 32.6 Q66.15 32.75 66.65 33.45 L66.95 34.15 Q68.55 32.95 69.95 32.95 70.85 32.95 70.85 34.25 L70.5 36.3 Q70.15 37.35 67.3 39.55 L67.6 40.7 Q67.4 42.15 64.85 43.85 L58.15 46.05 Q51.95 47.9 50.65 48.8 L45.95 51.55 Q42.8 53.35 42.2 54.25 L39.05 57.65 Q36.5 60.25 36.05 61.05 35.55 62.05 35.7 64.55 35.85 66.8 36.2 67.4 36.55 67.9 38.65 67.8 40.85 67.65 41.65 66.65 42.5 65.6 45.1 63.9 47.65 62.2 48.8 61.95 L51.85 61.7 Q53.85 61.8 54.55 62.2 55.4 62.65 55.55 63.5 55.75 64.45 55.05 65.2 L50.9 68.5 Q47.45 71.05 46.45 71.45 L36.9 75.0 31.35 77.7 Q26.8 79.9 25.35 80.1 L10.7 81.35 0.0 81.85 0.0 63.45 2.95 63.45 5.8 63.85 Q7.9 64.0 9.4 62.75 L18.2 54.95 Q25.7 48.2 27.2 47.05 28.4 46.15 31.05 45.0 33.3 44.0 34.45 42.8 36.2 41.05 39.65 38.6 43.2 36.1 44.5 35.75"/><path fill="#ffffff" fill-opacity="0.8" d="M79.6 12.35 L78.05 13.6 Q76.1 15.25 75.15 16.9 71.85 22.4 79.35 27.2 82.55 29.25 84.0 25.95 84.9 23.8 84.8 21.25 L85.35 21.8 86.35 24.2 Q87.6 28.4 85.95 32.5 85.15 34.55 82.05 37.55 79.15 40.4 77.8 44.6 76.35 49.25 70.65 51.0 67.8 51.9 65.25 51.85 L71.75 55.4 Q79.85 60.0 82.5 52.8 83.3 50.55 83.5 47.35 L83.5 44.65 Q88.55 49.5 85.2 56.55 81.95 63.45 74.55 65.45 68.35 67.1 67.05 70.1 65.95 72.7 68.5 73.75 70.7 74.65 75.45 73.75 L79.75 72.65 76.65 77.15 Q72.7 81.3 68.35 79.35 60.4 75.8 61.8 81.9 L63.1 85.9 Q63.6 87.45 62.5 86.45 55.55 80.35 48.65 85.25 45.35 87.6 44.5 89.15 48.2 81.8 43.05 83.8 38.35 85.6 35.2 89.5 31.8 93.7 27.45 94.95 22.45 96.4 17.4 93.6 21.45 92.15 24.2 90.45 29.65 87.1 21.25 84.85 16.15 83.5 12.55 85.8 12.05 86.1 10.85 87.05 10.5 87.35 10.7 86.7 11.0 85.6 12.1 84.2 L22.95 83.35 Q28.3 82.3 34.7 79.6 L45.85 74.35 Q51.05 72.3 53.7 70.85 58.5 68.25 58.95 64.8 59.35 62.0 56.75 60.7 55.25 59.4 52.45 59.1 49.1 58.7 46.15 60.35 44.9 61.05 42.6 62.8 41.05 63.95 39.35 63.75 37.55 63.55 38.85 61.55 40.75 58.55 45.1 55.65 47.9 53.75 52.7 51.35 L61.15 48.2 Q66.25 46.35 68.8 43.75 73.0 41.45 72.0 39.1 72.1 38.55 71.8 38.05 71.0 37.35 71.75 36.6 L73.2 34.7 Q74.0 33.25 74.0 32.2 73.5 31.25 72.6 30.45 L72.3 30.35 69.35 30.25 Q67.6 30.2 66.55 29.55 66.15 29.3 66.05 28.75 L63.45 29.25 63.3 29.25 60.9 29.7 53.7 30.5 46.5 31.55 Q43.7 32.15 40.9 33.85 38.85 35.1 36.0 37.45 34.0 39.15 29.5 42.0 L23.0 46.55 22.25 47.3 Q19.35 49.45 15.65 53.2 16.85 50.8 16.0 48.15 15.25 45.75 13.1 44.15 L9.9 43.35 Q8.05 42.9 11.15 42.85 13.65 42.8 15.8 44.2 12.15 37.1 11.4 33.95 9.95 28.2 12.55 23.05 12.75 22.6 12.95 24.65 L13.2 28.65 Q13.6 32.4 16.45 35.2 19.3 38.05 23.55 38.85 26.7 39.45 26.3 34.9 25.9 30.8 23.95 28.25 22.65 26.55 20.55 25.8 L19.2 25.4 Q22.9 24.4 27.2 26.65 31.3 28.75 32.75 32.05 33.7 29.3 31.65 23.55 29.2 16.6 29.1 15.3 28.85 12.05 30.65 9.4 32.5 6.65 35.6 5.95 35.85 5.9 34.15 9.4 32.95 13.65 35.55 17.0 39.0 21.4 43.65 23.25 48.55 25.2 49.75 21.95 51.05 18.25 47.3 15.85 45.45 14.65 43.7 14.05 49.6 11.25 52.55 12.75 54.7 13.8 59.45 20.55 L62.1 24.35 Q62.3 23.35 62.0 21.5 61.4 17.75 58.95 13.4 56.75 9.5 60.1 6.35 62.5 4.15 66.75 2.85 67.05 2.8 65.0 5.8 63.4 9.9 66.05 14.75 L70.95 24.1 Q68.7 18.2 72.7 14.6 76.05 11.6 79.6 12.35"/><path fill="#ffffff" fill-opacity="0.8" d="M13.15 55.8 L10.05 58.65 Q8.2 60.0 6.25 60.25 L3.65 60.05 6.45 52.25 Q7.45 49.45 7.05 51.5 6.35 55.25 9.0 56.0 L13.15 55.8"/></g></defs><g><g><use transform="matrix(1.0,0.0,0.0,1.0,0.0,0.0)" xlink:href="#c1"/></g></g></svg>