<?xml version='1.0' encoding='UTF-8'?>
<svg xmlns="http://www.w3.org/2000/svg" xmlns:xlink="http://www.w3.org/1999/xlink" version="1.1" width="83px" height="95px" viewBox="11.2 4.65 83.39999999999999 95.35"><defs><g id="c1"><path fill="#ffffff" fill-opacity="0.8" d="M31.35 4.65 Q38.9 5.25 48.05 9.25 66.3 17.3 74.2 34.5 79.5 45.95 77.05 66.75 75.85 77.2 73.55 85.3 74.25 79.3 74.3 70.6 74.35 53.15 71.05 39.5 67.7 25.85 49.2 13.9 43.4 10.15 36.8 7.0 33.5 5.45 31.35 4.65"/><path fill="#ffffff" fill-opacity="0.8" d="M47.15 7.3 L42.0 5.45 Q48.95 5.55 57.55 8.65 74.75 14.9 83.05 30.15 88.55 40.3 86.75 59.65 85.85 69.3 83.85 76.95 84.55 71.35 84.5 63.3 84.35 47.25 80.45 34.95 76.55 22.65 58.9 12.8 53.4 9.75 47.15 7.3"/><path fill="#ffffff" fill-opacity="0.8" d="M54.85 6.9 Q60.35 6.6 67.35 8.65 81.3 12.75 88.6 24.4 93.5 32.2 94.25 47.65 94.6 55.4 94.0 61.6 93.7 57.1 92.6 50.7 90.5 37.9 86.8 28.35 83.1 18.8 68.6 11.9 64.1 9.75 59.0 8.1 L54.85 6.9"/><path fill="#ffffff" stroke="none" d="M42.35 73.3 Q41.25 73.15 40.1 72.0 L38.15 70.0 Q39.2 69.75 41.7 68.5 L37.15 68.85 Q34.1 69.05 32.8 68.15 L33.4 69.6 35.25 71.3 Q36.35 72.3 37.35 72.65 L42.35 73.3 M41.9 58.5 L42.05 55.95 37.95 59.95 41.9 58.5 M36.0 60.55 L30.45 58.95 31.8 61.1 36.0 60.55 M34.55 64.35 L34.8 64.35 34.85 65.95 Q34.9 67.15 35.05 67.3 L36.55 67.2 38.2 66.65 40.45 66.3 Q42.4 65.9 42.7 65.3 43.0 64.7 41.5 63.65 L39.9 62.75 37.3 64.1 34.8 64.35 Q34.7 63.9 34.55 64.35 M51.65 85.35 L48.65 87.15 Q47.05 88.0 45.2 88.0 L43.15 88.05 41.2 87.8 Q40.7 87.65 39.7 86.95 38.75 86.25 38.2 86.15 L38.35 86.15 36.7 85.15 36.5 87.8 35.3 87.55 34.1 87.65 Q37.75 90.5 43.05 89.5 47.55 88.6 51.65 85.35 M52.7 86.5 L52.65 86.95 52.2 87.0 Q51.75 88.95 47.55 90.5 44.1 91.65 40.7 91.65 L41.2 91.8 Q39.8 92.4 37.25 91.75 34.35 91.0 33.2 91.2 35.15 93.2 38.45 93.65 L44.35 93.5 Q47.3 93.1 49.7 91.2 52.1 89.25 53.2 86.4 L52.7 86.5 M57.15 60.35 Q56.55 60.05 55.75 58.55 L54.5 56.35 Q52.15 53.6 50.85 53.05 L51.2 54.5 Q50.9 55.05 51.4 56.45 L52.15 58.5 Q52.35 59.45 52.15 60.65 L51.75 62.7 Q50.85 67.15 49.7 70.4 L52.2 68.0 Q53.95 66.45 54.4 65.5 55.2 65.2 56.4 64.05 L58.3 62.3 Q57.65 61.85 57.15 60.35 M37.9 32.9 Q37.1 31.55 35.85 31.5 37.7 34.85 37.55 37.8 37.45 39.4 38.0 40.65 L39.35 43.0 Q40.75 45.35 42.7 46.55 44.2 47.45 47.45 48.35 45.1 47.55 43.3 45.35 42.65 44.55 42.0 42.85 L40.9 40.15 Q39.45 37.3 38.75 35.2 L37.9 32.9 M24.85 22.0 L21.8 22.2 20.4 21.55 Q19.7 21.2 18.85 21.15 L17.1 21.15 15.4 20.95 15.05 20.5 14.55 20.15 Q14.8 21.0 14.7 22.3 L14.55 24.45 Q15.3 24.55 15.7 25.55 16.25 26.8 16.7 27.1 17.6 27.8 20.2 28.5 L24.0 29.15 25.9 28.55 Q27.25 27.75 27.55 27.65 28.45 27.35 29.7 27.65 L31.85 28.0 Q32.8 27.95 33.4 27.5 L34.5 26.45 36.55 24.05 Q37.35 22.75 37.55 21.0 37.65 19.8 37.35 19.15 L36.2 17.9 Q36.8 19.15 35.65 20.95 L33.9 22.15 32.2 23.5 Q31.1 24.15 30.15 23.75 L28.2 22.6 28.1 22.25 27.95 22.0 28.15 21.65 24.85 22.0 M29.7 8.5 Q32.15 9.4 34.95 11.15 L39.8 14.55 42.15 18.75 Q43.55 21.45 45.65 22.35 46.75 24.95 51.7 32.75 55.3 38.4 56.3 44.45 60.6 49.25 62.6 53.6 65.35 59.45 64.65 65.7 L65.05 66.45 Q64.25 73.55 61.3 79.55 59.55 83.25 58.55 86.65 57.1 88.95 56.05 92.05 54.25 97.2 54.4 100.0 L29.2 100.0 31.6 93.55 Q29.05 92.55 29.9 89.15 31.15 84.25 30.9 83.15 32.0 83.0 32.85 83.6 33.85 84.3 34.45 84.35 33.45 82.95 32.55 80.6 L31.1 76.5 Q30.5 76.9 27.8 80.4 25.9 82.9 23.3 82.9 L21.3 85.5 Q20.1 87.1 19.0 87.7 15.55 88.3 13.4 86.0 11.55 83.95 11.35 80.7 11.2 77.45 12.7 75.35 14.4 73.05 17.35 73.65 L20.75 70.05 Q22.65 67.85 23.15 65.3 24.25 63.75 26.2 62.65 28.35 61.5 30.35 61.6 28.75 57.75 29.6 54.2 30.45 50.65 33.3 49.35 36.2 48.1 39.5 49.9 42.7 51.7 44.45 55.55 L45.0 57.0 Q45.9 56.9 45.95 56.4 45.5 55.45 45.7 53.55 45.85 51.65 45.5 50.9 42.35 49.35 40.45 47.7 38.05 45.65 37.0 43.0 36.5 41.75 35.85 38.65 35.35 36.15 34.55 34.9 33.25 32.8 32.55 32.15 32.05 31.7 29.6 30.25 28.05 31.2 25.0 31.1 L20.55 31.25 19.7 30.65 Q19.5 30.05 18.7 29.7 L18.05 29.6 12.25 26.5 12.0 26.3 12.75 23.85 Q12.95 23.25 12.6 22.65 L12.85 20.6 13.05 20.45 12.85 20.25 12.85 20.0 12.7 19.55 13.05 17.6 12.8 16.6 13.1 16.2 Q15.0 11.55 15.05 8.55 L15.4 7.8 15.55 7.8 16.15 7.7 16.45 7.7 16.45 7.65 Q24.2 6.45 29.7 8.5"/></g></defs><g><g><use transform="matrix(1.0,0.0,0.0,1.0,0.0,0.0)" xlink:href="#c1"/></g></g></svg>