<?xml version='1.0' encoding='UTF-8'?>
<svg xmlns="http://www.w3.org/2000/svg" xmlns:xlink="http://www.w3.org/1999/xlink" version="1.1" width="84px" height="99px" viewBox="8.6 0.45 84.5 99.14999999999999"><defs><g id="c1"><path fill="#ffffff" stroke="none" d="M38.3 31.8 L50.75 31.3 59.25 31.55 63.1 31.8 63.1 37.7 58.9 37.45 50.15 37.15 38.3 37.7 38.3 31.8"/><path fill="#ffffff" stroke="none" d="M64.9 6.45 Q66.05 10.0 68.35 10.15 70.55 10.25 72.35 7.2 L74.1 3.75 Q75.3 1.5 76.45 0.45 L78.7 0.45 Q78.35 1.6 78.35 6.45 78.35 10.35 76.15 13.95 73.45 18.45 74.65 22.75 75.75 26.6 77.95 26.3 79.5 26.05 79.9 20.8 80.25 16.05 79.55 14.95 80.6 16.35 83.6 19.15 86.2 22.5 85.95 27.5 85.85 30.6 85.4 32.35 85.0 33.95 83.8 36.6 82.7 39.15 81.4 41.05 L78.3 45.1 Q77.0 46.75 76.45 49.6 75.95 52.25 76.3 54.7 79.75 55.15 82.2 51.7 L84.45 47.4 Q85.9 50.7 85.0 53.6 L83.0 57.65 Q82.35 58.85 79.6 59.75 76.85 60.65 76.15 61.8 73.75 65.9 77.9 68.3 81.65 70.4 85.85 69.35 L89.7 64.85 Q91.4 62.35 90.9 58.7 L91.7 59.65 92.85 60.8 Q93.1 64.7 92.45 67.35 91.75 70.35 89.6 72.85 87.8 74.9 84.5 76.1 L78.65 78.15 Q78.2 80.2 75.75 83.3 73.3 86.4 72.95 88.05 75.05 89.65 77.7 87.8 L81.8 85.05 Q81.1 87.4 77.3 90.4 74.0 93.0 71.25 94.1 L67.4 94.85 Q64.85 95.3 63.95 96.5 63.25 97.45 63.35 99.6 L26.15 99.6 Q22.35 96.5 20.55 93.25 26.4 98.0 31.55 95.15 29.9 94.2 28.2 91.7 26.6 89.4 25.85 87.15 L19.55 86.8 Q15.35 86.7 13.35 86.0 10.2 84.9 9.5 82.0 9.25 80.95 9.25 76.1 L9.4 69.65 9.55 63.1 9.0 56.8 Q8.6 52.85 9.2 50.85 10.8 53.95 11.95 62.65 12.95 70.35 15.6 73.45 17.9 76.1 20.1 76.95 23.25 78.1 25.15 75.0 26.9 72.2 25.3 69.65 24.6 68.6 21.7 66.15 17.25 61.6 17.75 56.45 L21.4 60.35 Q24.05 62.85 26.2 62.4 26.55 55.55 24.25 51.7 22.0 47.9 16.4 45.55 15.1 45.05 13.15 43.2 L10.65 40.7 Q9.2 35.8 9.05 32.35 8.9 28.4 10.25 25.2 9.8 34.45 18.2 37.4 18.15 36.25 17.45 35.2 16.75 34.15 15.65 33.7 L14.0 29.7 Q13.35 27.5 14.65 25.5 15.7 23.95 17.85 22.15 20.2 20.2 21.85 19.7 L21.85 17.4 21.5 15.15 Q20.45 14.35 20.45 11.55 L20.35 7.55 Q21.7 12.4 24.75 10.75 27.85 9.05 27.55 4.45 L27.15 0.45 35.95 0.45 36.1 5.2 Q36.4 8.05 37.3 9.35 40.1 9.8 41.7 6.55 42.95 4.1 43.2 0.45 L64.1 0.45 Q64.2 4.35 64.9 6.45 M70.0 17.95 Q70.0 17.0 68.25 15.7 66.7 14.55 64.95 13.95 59.15 11.8 56.25 11.2 L50.25 10.85 44.7 11.2 Q43.3 11.5 40.65 12.3 L37.0 13.5 Q36.0 13.9 34.55 14.9 L32.6 16.45 Q31.85 17.25 31.55 18.85 L32.2 79.85 Q32.25 81.4 32.75 83.45 33.3 85.7 35.05 86.95 36.35 87.85 39.15 88.65 L46.95 89.2 58.2 89.1 Q61.85 89.1 65.35 87.65 68.15 86.45 69.0 85.35 69.55 84.65 69.95 83.2 L70.25 81.9 70.0 17.95"/></g></defs><g><g><use transform="matrix(1.0,0.0,0.0,1.0,0.0,0.0)" xlink:href="#c1"/></g></g></svg>