<?xml version='1.0' encoding='UTF-8'?>
<svg xmlns="http://www.w3.org/2000/svg" xmlns:xlink="http://www.w3.org/1999/xlink" version="1.1" width="91px" height="90px" viewBox="7.0 7.65 91.3 90.1"><defs><g id="c1"><path fill="#ffffff" stroke="none" d="M23.65 68.7 Q23.85 69.4 24.35 69.45 L25.45 69.55 26.15 70.35 26.85 71.3 29.3 72.45 Q30.9 73.4 32.55 73.8 L29.2 73.1 25.8 72.7 25.7 73.2 Q25.05 73.15 23.9 72.3 L22.15 71.1 20.3 70.9 18.45 70.9 Q18.5 70.3 18.0 70.05 L17.25 69.55 13.0 67.95 10.85 67.45 8.75 66.8 10.85 67.05 13.05 67.85 17.05 68.45 18.8 68.75 20.55 69.05 22.15 68.9 23.65 68.7"/><path fill="#ffffff" stroke="none" d="M85.1 68.1 Q83.3 69.4 82.55 70.8 L79.7 70.65 76.95 71.6 Q75.95 71.95 74.8 72.65 73.3 73.65 72.2 73.4 L72.05 73.05 71.8 72.7 Q70.7 72.65 68.75 73.65 66.75 74.7 65.7 74.65 L66.45 74.3 67.05 73.7 69.65 72.2 Q71.35 70.95 72.25 70.6 L74.2 70.25 76.15 70.15 Q76.0 68.55 78.55 66.9 L82.45 64.55 86.45 61.9 88.15 60.7 88.2 60.65 Q89.1 59.6 90.15 58.95 L88.15 60.7 Q87.2 61.9 87.1 62.9 L89.45 62.7 91.85 62.1 98.3 60.75 96.95 61.45 95.55 62.3 Q90.1 64.9 88.3 66.05 L85.1 68.1"/><path fill="#373535" stroke="none" d="M60.6 58.1 Q61.8 57.9 62.1 58.9 62.35 59.75 61.8 60.65 L61.6 60.7 61.45 60.55 Q61.05 60.35 60.85 59.45 L60.6 58.1"/><path fill="#373535" stroke="none" d="M37.95 65.2 L36.6 63.7 Q37.7 63.65 38.65 64.1 39.85 64.6 38.75 65.5 L37.95 65.2"/><path fill="#ffffff" stroke="none" d="M71.9 40.2 Q71.05 40.85 70.6 42.4 L69.95 44.9 Q69.55 46.55 67.05 49.15 L65.85 49.95 Q64.95 50.4 64.8 50.7 64.7 50.95 64.95 51.9 65.15 52.85 64.95 53.35 L64.3 54.3 Q63.9 54.75 63.75 55.5 63.5 57.9 64.6 58.0 L64.95 59.5 Q65.55 61.05 67.25 60.3 67.25 59.45 66.5 58.85 69.2 57.45 70.05 56.35 70.8 55.4 70.55 54.45 L70.1 52.35 Q70.15 51.25 70.55 49.6 L71.25 46.85 Q72.1 42.8 71.9 40.2 M56.55 83.3 Q56.7 82.55 56.35 81.85 55.9 81.05 55.25 81.35 L54.95 82.0 Q54.35 82.4 54.65 83.3 55.65 83.8 56.55 83.3 M51.95 80.9 Q49.55 79.2 48.6 80.5 L47.25 81.7 46.3 81.7 Q46.6 83.05 48.8 83.95 51.05 84.9 52.25 84.0 54.35 82.55 51.95 80.9 M59.1 78.15 Q59.1 76.8 57.95 76.7 L58.1 77.15 57.95 77.0 Q56.3 77.25 56.6 78.95 56.9 80.7 58.75 80.3 L59.1 78.15 M32.1 56.15 L30.8 56.55 Q30.05 57.3 30.5 58.35 31.0 59.45 32.1 59.35 L32.7 60.2 32.45 60.2 33.25 61.0 32.7 60.2 Q33.55 60.25 34.15 59.6 L35.1 58.2 33.95 57.15 33.6 55.55 Q32.9 55.4 32.3 53.95 31.8 52.6 30.95 52.7 31.35 54.85 32.1 56.15 M58.9 61.15 L59.4 57.55 Q59.65 55.1 59.2 54.15 L58.6 57.9 57.8 61.45 Q57.55 63.35 56.85 65.1 56.0 67.25 54.85 68.1 L54.8 75.4 54.6 77.6 Q54.4 79.25 54.5 80.05 L54.1 80.2 54.2 80.8 54.7 80.95 54.5 80.05 Q55.3 79.7 55.45 78.8 55.5 77.6 55.7 76.8 L56.75 73.55 57.45 70.2 Q57.55 68.55 58.1 65.7 L58.9 61.15 M53.25 66.85 L53.45 63.55 53.5 59.75 Q53.4 57.45 52.7 56.2 52.3 57.7 52.35 60.3 L52.45 64.55 52.15 71.3 52.05 70.55 51.8 75.5 Q51.55 78.7 51.7 80.45 L52.2 79.55 Q52.1 79.1 52.3 78.85 L52.65 78.4 52.8 75.95 53.0 73.1 53.4 70.25 Q53.15 69.1 53.25 66.85 M44.25 59.05 Q44.9 57.6 44.8 56.8 44.75 56.25 44.3 55.9 L43.6 55.2 43.4 54.1 43.45 52.95 43.55 51.7 43.45 50.45 Q43.25 49.6 42.95 49.6 L41.95 49.7 Q40.6 49.75 39.8 48.7 L38.1 46.8 38.15 47.4 Q37.45 46.7 36.65 45.2 L35.45 42.8 36.55 48.55 37.1 51.65 37.15 54.8 Q36.45 55.05 36.55 56.15 L36.25 56.2 37.0 57.7 Q37.3 58.35 38.4 58.6 L38.9 59.3 38.3 59.35 39.3 59.95 40.45 60.1 Q41.85 61.7 42.8 64.2 L43.3 64.8 43.2 62.9 Q43.15 61.6 43.55 61.3 43.55 60.55 44.25 59.05 M48.25 54.65 Q48.2 52.25 47.8 50.95 47.45 53.55 47.8 57.85 L48.3 64.9 48.2 64.8 48.6 66.9 Q48.9 68.15 48.8 69.05 48.75 70.05 48.95 70.85 48.8 70.65 48.45 70.5 L48.15 67.15 Q48.05 65.0 47.55 63.9 L47.3 63.8 Q46.9 62.85 46.75 61.1 L46.4 58.4 46.15 58.25 45.8 60.65 Q45.55 62.15 45.6 63.2 45.75 65.25 44.95 67.35 L43.95 69.2 Q43.9 69.65 44.3 70.25 L44.8 71.15 44.85 72.35 44.7 73.75 44.55 73.95 Q44.0 74.6 43.95 75.4 L43.95 77.05 Q43.9 78.75 42.05 81.2 L43.7 80.95 Q43.5 80.5 44.25 79.9 44.95 79.4 45.55 79.3 45.5 78.4 46.1 75.45 L46.45 75.5 Q46.2 75.15 46.3 74.9 L46.65 74.4 Q47.35 74.2 48.2 73.4 49.1 72.55 49.25 71.8 L49.55 72.7 49.35 72.7 Q48.8 74.5 48.7 75.7 L48.55 77.25 Q47.9 77.65 48.05 78.45 L48.05 79.05 48.55 77.25 Q49.35 77.0 49.55 76.7 49.85 76.25 49.95 75.15 L50.05 73.45 50.2 67.15 Q49.6 65.95 49.3 64.0 L49.1 60.8 Q49.0 58.65 48.55 57.9 L48.45 58.45 48.25 54.65 M53.05 47.6 Q51.7 47.6 51.0 49.2 50.3 50.8 51.95 50.7 L52.95 49.95 52.05 49.35 Q52.9 49.45 53.15 48.85 53.35 48.3 53.05 47.6 M60.9 48.8 Q60.4 48.0 59.35 48.0 58.45 47.95 57.6 48.55 L56.85 49.2 Q56.35 49.75 56.3 50.05 L56.7 50.8 57.05 51.55 Q57.0 52.3 55.95 52.9 L54.2 53.6 55.2 55.2 56.2 55.95 Q56.85 56.05 57.6 55.55 58.55 54.95 58.9 54.9 58.75 53.8 60.55 53.2 62.5 52.55 62.55 51.9 61.95 52.65 61.5 50.95 L60.9 48.8 M50.15 41.6 Q48.65 40.75 46.35 41.55 43.95 42.35 43.9 44.15 43.3 44.45 44.1 45.75 L45.3 47.45 46.45 47.7 Q47.2 46.75 47.8 46.35 48.05 46.2 48.85 46.0 L49.8 45.65 Q50.3 45.2 50.3 43.75 L50.15 41.6 M63.6 22.65 Q63.45 22.75 63.45 23.35 L60.95 22.5 63.0 24.7 Q64.7 26.1 65.45 24.4 66.45 24.3 68.1 25.25 69.9 26.3 70.6 26.4 L69.45 28.3 Q68.6 29.5 68.3 30.2 L67.3 33.65 Q68.15 33.35 69.65 31.35 71.05 29.5 71.9 29.35 71.85 31.3 70.3 34.1 L67.8 38.5 Q69.0 38.1 71.15 36.1 73.2 34.1 74.6 33.7 74.3 33.95 73.7 35.3 L72.65 37.05 74.2 36.15 Q75.2 35.65 75.9 35.7 L74.85 36.85 73.8 38.15 76.15 37.45 Q77.3 37.0 78.05 37.9 78.75 38.7 79.15 39.8 79.65 41.15 79.3 42.0 79.9 41.6 80.2 39.65 80.5 37.7 79.8 37.3 79.7 36.1 78.5 35.3 77.15 34.4 76.9 33.7 L77.1 31.35 77.55 28.8 Q78.4 25.6 76.45 23.5 75.35 22.3 74.0 22.35 L71.45 23.0 Q70.35 21.85 67.65 22.45 L63.6 22.65 M58.1 27.95 L57.45 29.9 57.1 32.35 56.85 35.1 56.4 37.8 Q54.7 38.35 54.95 41.65 55.25 44.95 54.1 45.35 L55.55 46.95 55.9 47.0 Q56.05 45.65 56.9 45.35 L58.9 45.15 Q59.55 43.25 59.45 41.75 59.35 39.65 57.8 39.5 57.15 37.25 57.6 33.75 58.15 29.25 58.1 27.95 M31.45 17.55 Q30.9 18.0 30.45 18.9 L29.75 20.5 27.75 23.25 25.6 26.0 23.05 28.6 Q21.3 30.3 20.95 31.7 20.55 33.15 21.05 35.6 21.6 38.2 22.75 38.7 22.4 41.1 23.6 44.35 L23.95 44.85 23.75 44.8 23.6 44.85 Q23.75 45.85 23.15 47.65 L24.5 48.6 24.3 48.55 24.7 48.7 24.5 48.6 Q25.5 48.8 25.45 47.9 L25.3 46.2 26.8 46.8 28.4 47.15 27.5 45.2 26.5 43.35 Q27.0 43.45 28.1 44.1 29.1 44.7 29.7 44.7 28.7 44.55 28.05 43.0 27.5 41.75 27.4 40.4 L26.3 39.05 Q26.05 38.4 26.55 37.3 L27.6 35.95 Q28.25 35.05 27.75 34.55 28.75 33.15 29.75 32.55 30.2 32.25 31.45 31.95 L32.95 31.35 32.2 29.9 31.55 28.4 30.6 27.45 Q29.9 26.8 29.75 26.35 29.4 24.95 30.75 23.4 31.8 22.25 33.3 21.45 34.3 21.0 36.25 20.75 L39.25 20.2 Q41.3 19.5 45.55 19.5 L40.3 19.2 Q39.15 19.2 37.8 18.45 36.0 17.5 35.3 17.3 32.7 16.6 31.45 17.55 M46.8 13.95 Q50.8 10.35 52.2 10.05 L52.9 10.8 53.55 11.35 55.0 8.75 59.35 8.45 Q61.6 8.95 62.65 10.6 63.3 11.6 63.45 14.65 63.55 17.4 64.55 18.1 64.55 20.0 65.7 21.65 67.95 18.3 73.35 17.45 78.9 16.6 82.2 19.45 83.7 20.7 83.6 22.1 83.55 23.0 82.7 24.65 L80.6 28.5 Q79.85 30.25 80.0 32.95 82.55 32.75 84.15 36.45 85.75 40.05 84.4 42.05 87.5 42.75 88.8 46.1 90.1 49.55 87.75 51.35 86.45 52.35 84.05 52.75 L80.0 53.6 76.2 55.6 72.7 57.95 Q75.65 58.45 75.65 59.65 75.7 60.45 73.9 62.65 68.35 63.0 64.85 66.6 61.4 70.1 60.65 75.9 L61.2 75.65 61.65 74.1 Q60.95 77.65 62.1 79.95 63.6 82.7 67.5 82.0 67.4 83.4 69.5 84.45 L72.95 85.65 76.8 85.25 Q79.2 84.5 80.55 84.75 L81.25 86.7 Q81.7 87.6 82.55 87.95 83.9 85.5 87.4 86.65 L92.8 88.35 Q90.95 89.15 87.0 89.0 82.4 88.8 81.0 89.1 L75.7 90.2 70.05 90.7 Q72.2 91.3 74.55 93.95 72.9 94.2 69.0 92.45 66.4 91.25 63.8 89.7 L61.9 89.5 Q61.6 90.8 61.45 92.75 L61.2 96.0 60.0 93.7 59.95 95.85 59.6 97.75 Q58.95 96.7 57.45 95.3 L55.25 93.0 Q54.75 92.3 53.9 89.9 53.1 87.8 52.35 87.05 52.0 89.9 48.75 91.8 46.9 92.85 43.0 94.3 42.9 92.8 44.3 90.0 45.75 87.15 45.65 85.5 39.05 89.25 31.85 91.65 23.95 94.25 17.05 94.7 18.2 94.55 20.15 93.4 L23.1 91.65 Q27.2 89.4 26.9 86.45 25.15 86.3 22.05 87.2 L17.5 88.75 Q16.05 89.25 13.4 90.65 L10.15 91.65 Q8.25 92.2 7.0 92.85 7.5 92.1 9.1 90.65 10.9 89.1 11.6 89.1 L9.25 89.6 7.05 89.45 Q7.55 88.85 7.9 89.1 L8.6 89.7 8.25 88.0 12.95 88.15 17.55 87.3 Q17.75 86.3 19.0 85.3 20.35 84.25 20.65 83.4 L25.2 83.3 25.25 82.35 25.3 81.4 27.1 80.95 28.85 80.6 29.55 80.3 30.3 80.0 Q30.6 80.0 31.1 80.7 L31.95 81.4 35.3 80.85 38.55 79.65 Q38.85 78.35 38.55 77.4 L37.65 77.3 37.65 76.4 Q40.1 76.1 41.3 74.65 42.55 73.2 42.2 70.75 L41.55 70.75 40.9 70.7 41.0 70.25 41.2 69.4 Q40.75 69.2 35.3 66.95 L35.55 66.65 35.8 66.35 Q34.15 66.3 32.05 67.05 L32.8 66.35 Q29.75 65.3 28.0 63.1 L28.6 62.75 Q27.25 62.6 24.25 61.4 21.6 60.3 19.75 60.35 L19.9 60.1 Q17.45 59.05 17.8 56.4 18.05 54.05 20.0 52.35 19.2 51.75 18.35 51.65 17.2 50.9 15.9 48.95 14.6 46.95 14.25 45.35 13.6 42.2 14.65 41.0 15.35 40.2 18.3 39.35 15.9 38.55 14.7 37.0 13.5 35.45 13.25 32.7 13.05 30.35 14.45 27.85 16.1 24.7 16.35 23.4 17.55 23.3 18.2 22.55 18.9 21.7 18.65 20.4 20.85 20.75 21.35 18.4 L24.9 18.3 Q25.15 13.45 25.55 12.55 26.45 10.45 30.2 10.3 30.45 9.75 30.95 9.35 L31.95 8.65 Q33.25 9.7 34.85 10.3 36.4 7.65 38.75 11.0 L41.6 15.45 Q43.6 16.8 46.8 13.95"/></g></defs><g><g><use transform="matrix(1.0,0.0,0.0,1.0,0.0,0.0)" xlink:href="#c1"/></g></g></svg>