<?xml version='1.0' encoding='UTF-8'?>
<svg xmlns="http://www.w3.org/2000/svg" xmlns:xlink="http://www.w3.org/1999/xlink" version="1.1" width="100px" height="99px" viewBox="0.0 0.4 100.0 99.19999999999999"><defs><g id="c1"><path fill="#ffffff" stroke="none" d="M56.75 14.1 Q58.15 15.25 57.4 17.0 L56.0 19.35 Q55.6 20.25 55.65 21.75 L55.55 24.05 60.05 26.95 Q62.75 28.7 65.05 29.4 67.3 31.95 67.2 38.25 67.0 46.25 67.7 48.65 L68.25 49.45 68.8 50.25 Q69.9 53.2 70.1 58.95 70.35 65.05 71.1 67.6 72.2 68.45 73.0 70.6 L74.3 74.15 Q74.05 74.35 73.8 74.35 L73.3 74.25 72.95 74.45 73.3 76.2 Q73.35 77.6 73.55 78.05 72.7 78.25 72.45 78.5 L71.4 79.45 71.35 79.45 Q70.9 79.45 70.8 78.65 70.7 77.85 70.3 77.85 L70.25 77.85 Q70.4 79.0 69.45 79.0 L69.15 78.95 Q68.95 78.75 68.9 77.8 68.85 76.95 68.55 76.75 L68.3 76.7 Q68.05 76.7 68.0 77.05 L67.75 77.4 67.45 77.35 Q66.8 75.3 67.05 72.35 L67.25 67.7 Q67.0 64.95 65.15 60.6 63.0 55.65 62.55 53.7 L62.25 49.8 Q62.0 47.25 61.0 46.05 60.35 48.5 60.6 51.8 60.75 54.15 61.55 58.45 L62.6 63.4 Q63.2 66.2 63.15 68.6 L63.25 76.45 63.2 84.35 62.6 88.3 Q62.15 90.75 62.25 92.1 62.35 93.3 63.05 95.2 L63.8 98.1 63.8 99.6 56.65 99.6 56.9 96.4 56.8 93.3 56.1 91.2 55.3 89.2 53.85 81.85 52.5 75.15 51.65 72.15 51.6 72.2 51.6 72.15 50.75 75.15 Q50.25 77.15 49.45 81.85 L47.95 89.2 47.15 91.2 46.45 93.3 Q46.25 94.55 46.4 96.4 L46.6 99.6 39.45 99.6 39.45 98.1 Q39.5 97.05 40.25 95.2 40.9 93.3 41.0 92.1 L40.6 88.3 40.05 84.35 Q39.9 81.4 40.0 76.45 L40.1 68.6 Q40.05 66.2 40.65 63.4 L41.7 58.45 42.65 51.8 Q42.9 48.5 42.25 46.05 41.25 47.25 41.05 49.8 L40.7 53.7 Q40.25 55.65 38.15 60.6 36.25 64.95 36.0 67.7 L36.2 72.35 Q36.45 75.3 35.8 77.35 L35.5 77.4 Q35.3 77.4 35.25 77.05 L34.95 76.7 34.7 76.75 Q34.4 76.95 34.35 77.8 L34.1 78.95 33.8 79.0 Q32.85 79.0 33.0 77.85 L32.95 77.85 Q32.55 77.85 32.45 78.65 32.35 79.45 31.9 79.45 L31.85 79.45 30.8 78.5 Q30.55 78.25 29.7 78.05 L29.95 76.2 Q30.0 74.85 30.3 74.45 L29.95 74.25 29.4 74.35 28.95 74.15 30.25 70.6 Q31.0 68.45 32.1 67.6 32.9 65.0 33.15 58.95 33.4 53.15 34.45 50.25 L35.0 49.45 35.55 48.65 Q36.2 46.3 36.05 38.25 35.95 31.95 38.2 29.4 40.5 28.7 43.2 26.95 46.15 24.95 47.7 24.05 L47.6 21.75 Q47.65 20.25 47.25 19.35 L45.85 17.0 Q45.1 15.25 46.5 14.1 45.45 11.75 46.7 9.3 47.9 6.9 50.3 6.2 L50.9 6.15 51.6 6.2 52.35 6.15 52.95 6.2 Q55.35 6.9 56.55 9.3 57.8 11.75 56.75 14.1"/><path fill="#ffffff" fill-opacity="0.8" d="M100.0 23.05 L100.0 24.4 Q78.2 38.45 77.95 43.35 77.75 46.25 83.2 48.1 88.25 49.85 100.0 51.3 L100.0 53.4 Q87.05 54.05 81.6 55.45 75.65 57.0 75.75 60.1 75.9 63.15 81.95 68.8 87.2 73.65 99.75 83.0 L99.25 83.5 Q83.4 74.4 76.6 71.9 L76.25 70.85 Q75.2 67.55 73.8 66.0 73.3 63.9 73.1 59.3 72.9 52.75 71.65 49.25 L70.5 47.5 Q69.95 45.3 70.15 40.15 70.25 35.45 69.95 33.4 69.4 29.75 67.3 27.4 L66.75 26.75 65.9 26.5 Q63.85 25.9 60.2 23.45 L58.65 22.45 58.65 22.1 58.75 20.6 59.05 20.15 Q61.6 16.2 60.05 13.45 60.55 10.65 59.35 8.2 58.55 6.55 57.4 5.45 L59.15 0.4 62.15 0.4 Q59.85 20.05 64.55 19.8 69.05 19.55 85.2 0.45 L86.25 0.5 86.35 0.6 Q71.4 25.25 73.75 29.4 75.1 31.75 81.6 30.1 87.45 28.6 100.0 23.05"/><path fill="#ffffff" fill-opacity="0.8" d="M66.85 80.85 L67.6 81.8 68.35 81.9 Q70.1 87.85 74.85 99.6 L72.9 99.6 Q69.1 93.55 65.6 88.8 L65.7 88.3 66.2 84.5 66.3 80.1 66.4 80.15 66.85 80.85"/><path fill="#ffffff" fill-opacity="0.8" d="M39.0 18.95 Q41.55 19.0 39.15 0.4 L41.6 0.4 44.05 7.9 43.9 8.2 Q42.7 10.65 43.2 13.45 41.65 16.2 44.2 20.15 L44.5 20.65 44.6 22.1 44.6 22.45 43.05 23.45 Q39.4 25.9 37.35 26.5 L36.5 26.75 35.95 27.4 Q33.85 29.75 33.3 33.4 32.95 35.6 33.1 40.15 33.3 45.3 32.75 47.5 31.85 48.55 31.6 49.25 30.35 52.75 30.15 59.3 29.95 63.9 29.45 66.0 28.4 67.15 27.55 69.25 23.6 68.95 16.65 70.8 10.6 72.45 0.0 76.4 L0.0 75.35 Q22.45 61.75 22.75 56.65 22.9 53.65 17.3 51.3 12.1 49.15 0.0 46.8 L0.0 45.2 Q20.75 46.7 20.75 45.15 20.7 43.65 0.0 37.3 L0.0 35.7 Q11.8 37.9 16.9 37.95 22.55 38.05 22.9 35.65 23.55 31.65 4.7 12.85 L5.6 11.95 Q25.9 27.4 29.75 25.1 33.6 22.85 24.9 0.4 L26.55 0.4 Q36.45 18.85 39.0 18.95"/><path fill="#ffffff" fill-opacity="0.8" d="M37.55 88.3 L38.0 91.9 37.95 92.05 34.15 99.6 31.95 99.6 Q34.65 87.95 35.05 81.85 L35.65 81.8 36.4 80.85 36.85 80.15 36.95 80.1 37.05 84.5 37.55 88.3"/></g></defs><g><g><use transform="matrix(1.0,0.0,0.0,1.0,0.0,0.0)" xlink:href="#c1"/></g></g></svg>