<?xml version='1.0' encoding='UTF-8'?>
<svg xmlns="http://www.w3.org/2000/svg" xmlns:xlink="http://www.w3.org/1999/xlink" version="1.1" width="100px" height="70px" viewBox="0.0 13.5 100.0 69.85"><defs><g id="c1"><path fill="#ffffff" stroke="none" d="M54.25 43.15 Q52.5 43.45 50.85 41.85 49.2 40.25 51.55 40.2 L54.05 38.7 Q56.35 39.55 55.5 41.9 L54.25 43.15"/><path fill="#ffffff" stroke="none" d="M48.3 47.95 L49.8 48.2 Q50.2 48.9 50.0 49.4 L48.4 49.3 Q47.8 48.8 48.3 47.95"/><path fill="#ffffff" stroke="none" d="M59.1 51.0 Q58.95 52.0 57.9 51.5 56.9 51.05 56.15 49.95 54.05 46.75 58.55 47.2 L59.55 47.45 60.55 47.95 Q60.3 48.7 60.0 50.65 L59.1 51.0"/><path fill="#ffffff" stroke="none" d="M74.25 55.25 L72.9 55.55 74.6 56.2 Q75.6 56.55 76.1 57.0 L66.15 57.35 Q66.65 58.8 70.05 60.65 L75.0 63.0 79.8 65.4 Q82.85 66.85 84.8 67.3 L81.15 67.0 77.65 66.1 72.2 65.1 Q68.8 64.4 67.4 63.0 L66.6 63.1 Q68.35 65.1 73.0 68.8 L76.35 72.05 Q79.05 74.5 80.4 75.0 77.45 74.6 74.05 73.2 L67.95 70.5 Q69.25 73.55 72.55 77.3 75.55 80.8 78.9 83.35 L76.95 82.3 74.75 80.6 72.55 78.85 67.9 75.2 Q64.85 72.8 63.3 72.2 L61.2 69.6 Q59.85 67.8 58.9 67.55 60.25 69.85 60.85 72.25 59.3 71.15 56.65 67.2 54.15 63.5 52.35 62.55 L52.6 62.3 52.25 61.8 51.7 61.3 54.1 61.0 54.15 59.6 54.85 59.5 54.5 57.05 Q55.5 57.3 58.0 59.05 60.2 60.55 61.55 60.55 60.6 59.3 59.8 57.1 L58.45 53.5 Q60.05 54.25 62.35 54.45 L66.55 54.55 70.45 54.85 74.25 55.25"/><path fill="#ffffff" stroke="none" d="M22.9 55.55 L23.4 57.9 Q23.65 59.45 24.05 60.05 23.95 60.45 23.65 60.25 L23.3 59.7 Q22.95 60.15 23.2 61.75 23.5 63.7 23.3 64.55 L21.85 61.1 Q20.9 59.35 19.55 58.55 L19.65 61.55 Q19.8 63.05 19.55 64.2 19.5 62.4 18.05 60.6 16.4 58.65 16.15 57.45 15.5 58.9 15.65 61.4 15.75 64.55 15.4 66.45 15.25 67.45 15.25 65.85 15.3 63.2 15.05 62.3 L13.8 60.6 Q12.75 59.6 12.4 58.55 11.45 59.3 11.5 60.95 11.5 63.2 11.3 63.8 L11.3 68.7 Q11.15 69.1 11.05 68.85 L10.9 68.3 10.95 64.55 Q10.95 62.3 10.55 61.2 8.65 60.5 8.3 58.55 7.55 59.85 7.35 62.3 L7.15 66.8 7.15 69.8 Q6.7 68.7 6.75 65.75 6.75 62.65 6.4 61.55 3.65 59.55 3.8 55.95 3.2 56.5 3.4 57.95 L3.8 60.05 Q2.9 59.9 3.05 61.55 3.25 63.95 3.05 64.55 2.7 63.35 1.6 61.5 L0.05 58.55 0.0 58.6 0.0 55.35 Q13.25 55.7 22.9 55.55"/><path fill="#ffffff" stroke="none" d="M42.95 35.45 L43.35 36.6 44.45 41.8 Q45.1 45.2 44.2 51.65 L43.2 57.45 36.55 57.7 38.3 64.45 Q38.6 65.85 36.95 69.8 L35.2 73.45 25.95 73.8 Q25.55 73.8 24.75 75.95 L24.05 78.05 0.0 78.05 0.0 75.25 14.3 75.45 Q14.85 75.1 15.15 73.9 L15.8 72.05 Q16.35 71.9 15.8 73.25 15.05 75.0 15.05 75.45 L21.4 75.45 23.35 71.75 Q24.2 69.45 24.05 66.8 L27.1 66.8 Q28.65 66.75 28.9 66.05 29.5 67.15 29.3 68.55 L28.55 71.7 Q30.35 72.65 31.05 71.2 31.8 69.45 31.9 69.45 33.45 69.4 32.85 70.75 L32.3 72.05 Q35.75 71.7 36.15 65.6 36.5 59.5 32.65 59.3 L31.8 60.15 Q31.35 60.65 31.55 61.55 L30.2 60.1 Q29.7 59.3 29.3 59.7 28.45 58.25 29.85 57.3 31.6 56.2 31.55 55.2 L40.15 55.2 Q41.65 53.85 42.0 50.55 42.3 47.75 41.65 44.7 23.35 45.4 0.0 45.5 L0.0 35.3 42.95 35.45"/><path fill="#ffffff" stroke="none" d="M68.8 42.55 L66.1 42.0 67.8 41.7 69.45 41.4 Q67.95 40.8 63.65 40.2 L67.85 39.9 72.1 39.7 72.95 39.45 81.75 39.8 90.1 40.2 Q94.35 39.95 100.0 40.45 L100.0 42.65 90.35 43.4 Q94.3 43.35 100.0 43.6 L100.0 50.7 Q96.65 51.15 87.15 51.0 L77.1 51.25 67.8 50.75 69.35 50.7 67.8 50.4 Q68.5 50.3 68.25 50.2 65.5 50.05 63.65 48.95 L65.05 48.55 66.4 48.15 65.65 47.5 70.65 47.4 75.5 47.15 76.05 46.7 Q70.9 47.1 65.25 44.75 L77.1 44.2 Q84.25 43.85 88.8 43.95 L79.3 43.35 69.95 42.75 71.95 42.7 68.8 42.55"/><path fill="#ffffff" stroke="none" d="M60.05 20.3 Q61.25 18.85 62.6 18.25 L61.35 19.35 60.05 20.3"/><path fill="#ffffff" stroke="none" d="M74.0 17.2 L76.85 16.1 Q80.0 15.15 86.15 14.6 L94.85 13.5 Q92.8 14.0 89.85 15.45 L84.4 18.0 79.15 19.75 Q76.0 20.75 74.05 21.8 L79.3 21.2 84.6 20.05 81.9 21.05 87.8 21.35 93.7 20.8 100.0 20.75 100.0 20.9 Q96.45 21.2 91.0 22.8 L82.3 25.35 Q73.3 27.6 68.45 30.0 L75.05 30.15 81.6 30.05 76.4 31.1 71.25 31.75 77.45 32.6 83.65 33.05 Q76.85 33.05 71.1 34.45 69.15 34.95 66.9 36.3 L63.05 38.55 65.0 35.15 63.25 36.45 Q62.15 37.2 61.25 37.25 L61.55 34.8 Q61.75 33.45 61.15 32.6 59.9 32.6 57.1 34.15 54.5 35.65 52.75 35.25 L52.9 34.45 52.9 33.6 Q51.2 33.05 47.0 33.5 47.25 32.55 48.45 31.55 L50.2 31.3 Q51.3 30.1 52.85 26.95 54.45 23.75 55.5 22.55 56.1 21.85 57.5 21.3 L59.65 20.5 60.05 20.3 59.75 20.75 63.25 20.6 Q64.95 20.3 66.35 19.25 66.2 19.7 66.85 19.6 L68.2 19.3 69.7 18.85 71.2 18.3 74.0 17.2"/></g></defs><g><g><use transform="matrix(1.0,0.0,0.0,1.0,0.0,0.0)" xlink:href="#c1"/></g></g></svg>