<?xml version='1.0' encoding='UTF-8'?>
<svg xmlns="http://www.w3.org/2000/svg" xmlns:xlink="http://www.w3.org/1999/xlink" version="1.1" width="78px" height="68px" viewBox="12.05 16.6 77.55 68.4"><defs><g id="c1"><path fill="#ffffff" stroke="none" d="M30.2 21.7 L26.65 19.2 25.0 18.2 25.35 17.25 31.15 18.2 Q32.25 18.6 33.05 20.2 L33.65 21.7 33.45 68.2 32.75 45.7 Q31.75 22.9 30.2 21.7"/><path fill="#ffffff" stroke="none" d="M31.55 84.05 L28.45 83.85 25.5 84.2 31.55 84.05 M31.65 78.4 Q31.85 76.65 31.6 75.25 31.45 74.4 30.5 74.4 L26.65 74.6 22.75 75.05 Q21.95 75.1 21.7 75.9 21.45 76.65 21.95 77.1 L21.85 77.85 Q21.9 78.7 22.5 81.35 22.7 82.1 23.65 82.2 L26.85 82.4 26.9 83.0 23.95 83.2 27.35 83.6 30.85 83.35 Q30.15 82.95 29.15 82.95 L27.05 83.0 27.05 82.4 27.2 82.4 28.25 82.5 29.4 82.15 30.4 82.35 Q31.0 82.2 31.1 81.55 L31.65 78.4 M15.3 71.0 L15.0 72.6 32.2 72.6 32.05 71.45 15.3 71.0 M17.95 16.95 L23.1 16.6 Q22.55 16.85 22.9 17.4 23.25 17.9 22.6 18.15 22.7 18.4 23.4 18.65 24.0 18.85 23.95 19.35 L23.35 19.3 22.95 19.0 23.1 19.75 Q22.0 20.0 21.25 20.9 20.45 21.8 20.35 23.1 L18.95 33.3 Q18.0 39.5 18.05 43.5 18.05 47.0 19.05 54.0 19.25 56.15 19.05 59.85 L18.9 65.65 Q18.95 67.15 19.9 68.05 20.8 68.9 22.1 69.0 L22.2 69.2 22.65 69.2 22.8 69.0 23.0 69.0 22.95 69.25 26.65 69.2 29.65 69.35 30.8 69.5 32.05 69.3 Q32.95 69.05 33.4 69.9 L33.45 69.4 33.5 70.45 Q33.75 74.1 33.6 83.5 33.65 83.7 34.2 83.7 34.7 83.75 34.65 84.05 33.85 84.85 31.9 84.8 L28.6 84.75 Q25.9 85.0 20.85 84.9 L12.75 84.75 Q12.6 84.4 12.05 84.4 12.1 83.95 12.55 83.75 L13.45 83.5 Q13.35 44.45 13.6 18.5 15.15 17.45 17.95 16.95"/><path fill="#ffffff" stroke="none" d="M57.65 21.7 L54.1 19.2 52.4 18.2 52.8 17.25 Q56.85 17.65 58.6 18.2 59.7 18.6 60.5 20.2 L61.1 21.7 60.9 68.2 60.2 45.7 Q59.2 22.9 57.65 21.7"/><path fill="#ffffff" stroke="none" d="M55.9 83.85 L52.95 84.2 59.0 84.05 55.9 83.85 M42.7 71.0 L42.45 72.6 59.65 72.6 59.5 71.45 42.7 71.0 M49.3 77.85 Q49.45 79.35 49.95 81.35 50.15 82.1 51.05 82.2 L54.25 82.4 54.35 83.0 52.95 83.15 51.4 83.2 54.8 83.6 58.3 83.35 56.6 82.95 54.5 83.0 54.5 82.4 54.65 82.4 55.7 82.5 56.85 82.15 57.85 82.35 Q58.45 82.2 58.55 81.55 L59.1 78.4 Q59.3 76.65 59.05 75.25 58.9 74.4 57.9 74.4 L54.05 74.6 50.2 75.05 Q49.4 75.1 49.15 75.9 48.9 76.65 49.4 77.1 L49.3 77.85 M41.05 18.5 Q42.55 17.45 45.4 16.95 L50.55 16.6 Q50.0 16.85 50.35 17.4 50.7 17.9 50.05 18.15 L50.85 18.65 Q51.45 18.85 51.4 19.35 L50.8 19.3 50.4 19.0 50.55 19.75 Q49.45 20.0 48.7 20.9 47.9 21.8 47.8 23.1 L46.4 33.3 Q45.4 39.55 45.45 43.5 45.5 45.55 45.9 48.75 L46.5 54.0 Q46.7 56.15 46.5 59.85 L46.35 65.65 Q46.4 67.15 47.35 68.05 48.25 68.9 49.55 69.0 L49.6 69.2 50.1 69.2 50.2 69.0 50.4 69.0 50.4 69.25 54.1 69.2 57.1 69.35 58.2 69.5 59.5 69.3 Q60.4 69.05 60.85 69.9 L60.9 69.4 60.95 70.45 61.05 83.5 Q61.1 83.7 61.65 83.7 62.15 83.75 62.1 84.05 61.3 84.85 59.35 84.8 L56.05 84.75 Q53.35 85.0 48.25 84.9 L40.2 84.75 Q40.05 84.4 39.5 84.4 39.55 83.95 40.0 83.75 L40.9 83.5 Q40.8 44.45 41.05 18.5"/><path fill="#ffffff" stroke="none" d="M85.1 21.7 Q83.5 20.5 81.5 19.2 L79.85 18.2 80.25 17.25 Q84.3 17.65 86.05 18.2 87.15 18.6 87.95 20.2 L88.55 21.7 88.35 68.2 87.65 45.7 Q86.65 22.9 85.1 21.7"/><path fill="#ffffff" stroke="none" d="M86.45 84.05 L83.35 83.85 80.4 84.2 86.45 84.05 M76.75 77.85 Q76.9 79.35 77.4 81.35 77.6 82.1 78.5 82.2 L81.7 82.4 81.8 83.0 80.4 83.15 78.85 83.2 82.25 83.6 85.75 83.35 84.05 82.95 81.95 83.0 81.95 82.4 82.1 82.4 83.1 82.5 Q84.05 82.15 84.3 82.15 L85.3 82.35 Q85.9 82.2 86.0 81.55 L86.55 78.4 Q86.75 76.65 86.5 75.25 86.35 74.4 85.35 74.4 L81.5 74.6 77.65 75.05 Q76.85 75.1 76.6 75.9 76.35 76.65 76.85 77.1 L76.75 77.85 M70.15 71.0 L69.9 72.6 87.1 72.6 86.95 71.45 70.15 71.0 M78.3 18.65 Q78.9 18.85 78.85 19.35 L78.2 19.3 77.8 19.0 78.0 19.75 Q76.9 20.0 76.15 20.9 75.35 21.8 75.25 23.1 L73.85 33.3 Q72.85 39.55 72.9 43.5 72.95 45.55 73.35 48.75 L73.95 54.0 Q74.15 56.15 73.95 59.85 L73.8 65.65 Q73.85 67.15 74.8 68.05 75.7 68.9 77.0 69.0 L77.05 69.2 77.55 69.2 77.65 69.0 77.85 69.0 77.85 69.25 81.55 69.2 84.55 69.35 85.65 69.5 86.95 69.3 87.7 69.4 88.25 69.9 88.35 69.4 88.4 70.45 88.5 83.5 Q88.55 83.7 89.1 83.7 89.6 83.75 89.55 84.05 88.75 84.85 86.8 84.8 L83.5 84.75 Q80.8 85.0 75.7 84.9 L67.65 84.75 Q67.5 84.4 66.95 84.4 67.0 83.95 67.45 83.75 L68.35 83.5 Q68.25 44.45 68.5 18.5 70.0 17.45 72.85 16.95 L78.0 16.6 Q77.45 16.85 77.8 17.4 78.1 17.9 77.45 18.15 L78.3 18.65"/></g></defs><g><g><use transform="matrix(1.0,0.0,0.0,1.0,0.0,0.0)" xlink:href="#c1"/></g></g></svg>