<?xml version='1.0' encoding='UTF-8'?>
<svg xmlns="http://www.w3.org/2000/svg" xmlns:xlink="http://www.w3.org/1999/xlink" version="1.1" width="95px" height="97px" viewBox="4.85 3.0 95.25 97.0"><defs><g id="c1"><path fill="#ffffff" stroke="none" d="M46.55 60.3 Q52.55 65.95 55.25 73.75 58.05 81.5 57.05 89.9 56.35 95.15 54.25 100.0 L38.2 100.0 38.65 99.6 40.45 97.6 Q43.9 93.3 45.0 88.0 46.15 82.55 44.7 77.1 43.3 71.55 39.45 67.25 L37.5 65.3 35.4 63.7 Q33.0 62.25 30.45 61.75 24.85 60.5 19.7 62.95 17.25 64.1 15.05 66.15 13.15 68.0 12.15 70.55 11.25 73.1 11.55 75.9 11.9 78.75 13.45 81.1 L15.25 83.25 Q16.3 84.25 17.4 84.7 19.95 85.8 22.65 85.2 24.0 84.9 25.2 84.15 26.5 83.45 27.25 82.35 28.95 80.15 28.25 77.35 27.9 76.05 26.95 74.95 L26.45 74.45 25.95 74.1 24.8 73.6 22.2 73.85 Q20.8 74.45 20.3 75.6 19.8 76.95 20.5 78.1 L20.85 78.65 20.95 78.7 20.95 78.75 21.35 79.05 22.55 79.3 23.7 78.75 Q24.1 78.4 24.1 77.7 24.1 77.0 23.5 76.7 22.95 76.35 22.45 76.85 L21.85 76.25 22.8 75.7 23.95 75.8 Q24.95 76.3 25.2 77.5 25.45 78.7 24.6 79.6 23.85 80.5 22.8 80.65 L20.65 80.4 20.15 80.15 19.95 80.0 19.05 79.0 Q17.75 77.15 18.45 74.95 19.15 72.95 21.15 71.85 23.05 70.8 25.25 71.1 26.35 71.25 27.25 71.75 L28.2 72.3 29.0 72.95 Q30.55 74.5 31.2 76.4 31.9 78.35 31.7 80.5 31.45 82.65 30.3 84.45 29.15 86.15 27.45 87.4 25.95 88.55 23.8 89.3 19.75 90.6 15.65 89.15 13.8 88.55 11.9 87.1 L9.1 84.25 Q6.55 81.05 5.7 76.9 4.85 72.75 5.95 68.7 7.05 64.55 9.9 61.35 12.55 58.25 16.1 56.2 23.4 51.95 31.9 53.05 36.15 53.65 39.8 55.5 41.45 56.3 43.4 57.65 L46.55 60.3"/><path fill="#ffffff" stroke="none" d="M59.1 8.65 Q61.05 7.3 62.7 6.5 66.35 4.7 70.65 4.05 79.1 3.0 86.45 7.2 90.0 9.25 92.65 12.35 95.5 15.55 96.6 19.7 97.7 23.75 96.85 27.9 96.0 32.05 93.45 35.25 L90.6 38.1 Q88.8 39.5 86.9 40.15 82.8 41.6 78.7 40.3 76.5 39.55 75.1 38.4 73.4 37.15 72.25 35.45 71.1 33.65 70.85 31.5 70.6 29.35 71.35 27.4 72.0 25.5 73.55 23.95 L74.35 23.3 75.25 22.75 Q76.15 22.25 77.3 22.1 79.5 21.8 81.35 22.85 83.4 23.95 84.1 25.95 84.75 28.2 83.5 30.0 L82.6 31.0 82.4 31.15 81.9 31.4 79.75 31.65 Q78.7 31.5 77.95 30.6 77.1 29.75 77.35 28.5 77.5 27.35 78.6 26.8 79.8 26.25 80.7 27.25 L80.1 27.85 Q79.6 27.35 79.0 27.7 78.45 28.0 78.45 28.7 78.35 29.35 78.85 29.75 79.35 30.25 80.0 30.3 L81.2 30.05 81.4 29.9 81.65 29.65 82.05 29.1 Q82.75 27.9 82.2 26.6 81.8 25.5 80.35 24.85 L77.75 24.6 Q77.05 24.75 76.55 25.1 L76.05 25.45 75.6 25.95 Q74.6 27.05 74.3 28.35 73.5 31.15 75.3 33.35 76.05 34.45 77.35 35.15 78.4 35.85 79.85 36.2 82.6 36.8 85.15 35.7 L87.3 34.25 89.1 32.1 Q90.65 29.75 90.95 26.9 91.3 24.05 90.35 21.55 89.45 19.0 87.45 17.15 85.35 15.15 82.85 13.95 77.65 11.5 72.1 12.75 69.65 13.25 67.1 14.7 L65.0 16.3 Q64.05 17.1 63.05 18.25 59.2 22.55 57.75 28.1 56.35 33.45 57.5 39.0 58.65 44.45 62.05 48.6 L62.9 49.65 63.75 50.5 63.8 50.6 63.85 50.6 65.95 52.55 70.6 55.8 Q75.4 58.65 81.0 59.85 L92.0 60.25 Q96.15 59.75 100.1 58.1 L100.1 76.15 93.3 76.9 Q85.1 77.3 77.15 74.95 69.15 72.6 62.6 67.9 59.05 65.3 56.5 62.7 L53.8 59.75 51.25 56.4 Q46.45 49.3 45.45 40.9 44.45 32.55 47.2 24.75 50.05 16.85 55.95 11.3 L59.1 8.65"/></g></defs><g><g><use transform="matrix(1.0,0.0,0.0,1.0,0.0,0.0)" xlink:href="#c1"/></g></g></svg>