<?xml version='1.0' encoding='UTF-8'?>
<svg xmlns="http://www.w3.org/2000/svg" xmlns:xlink="http://www.w3.org/1999/xlink" version="1.1" width="84px" height="79px" viewBox="7.2 9.4 84.5 79.19999999999999"><defs><g id="c1"><path fill="#ffffff" stroke="none" d="M26.5 26.7 Q29.35 24.2 31.1 23.8 31.65 22.5 31.6 21.95 34.6 20.6 37.5 19.9 L39.8 18.55 Q41.0 17.65 42.5 17.3 L45.55 17.0 48.55 17.55 51.45 18.75 Q53.35 19.55 54.5 19.45 L54.65 19.6 55.55 19.9 56.45 20.15 52.6 20.6 Q50.95 20.4 50.25 20.6 L49.5 21.05 48.8 21.45 46.8 21.85 44.75 22.2 Q43.5 22.5 41.15 23.55 L41.1 23.75 Q40.65 23.8 39.85 24.2 L38.55 24.8 37.25 25.2 Q36.75 25.35 36.15 25.85 L34.5 27.75 33.65 28.65 32.55 29.25 Q31.45 29.85 30.5 31.25 L28.85 33.7 Q27.15 35.95 26.05 38.55 24.55 42.2 24.9 45.7 L24.75 49.1 24.15 52.35 Q23.95 53.9 24.4 55.8 L25.35 58.9 26.3 61.8 27.15 63.25 27.6 64.5 26.5 63.4 Q25.7 62.45 24.95 60.7 L23.65 57.9 22.85 56.6 22.2 55.25 21.8 51.95 21.45 48.7 Q21.15 46.7 21.15 45.55 L21.05 42.3 Q21.1 40.15 22.25 39.6 L23.3 37.4 Q24.05 36.0 23.9 35.0 L24.3 34.95 25.45 32.3 Q26.25 30.6 25.55 29.3 26.15 28.5 26.5 26.7 M27.6 64.5 L28.05 64.85 27.65 64.8 27.6 64.5"/><path fill="#ffffff" stroke="none" d="M51.15 10.1 Q53.2 10.15 53.8 10.75 L54.35 11.05 Q52.55 10.65 50.4 11.6 L46.75 13.25 42.4 13.5 Q39.2 13.25 37.95 13.45 35.45 13.85 33.85 14.95 32.4 15.95 31.0 18.05 29.3 20.6 25.3 24.25 L22.95 26.55 22.2 28.2 21.6 29.85 Q20.9 31.25 19.6 32.7 18.15 34.3 16.75 35.0 15.35 40.35 14.95 43.05 14.3 47.5 14.95 51.2 L15.45 53.0 15.8 54.8 15.75 57.0 15.55 59.15 15.85 62.55 16.0 62.9 Q16.95 65.3 17.0 66.55 16.25 65.0 15.85 62.55 14.9 60.15 14.7 59.05 13.4 53.65 13.1 50.95 12.35 43.75 14.65 33.35 14.95 31.9 16.15 30.0 L18.05 26.75 Q18.55 25.6 19.85 23.8 L21.85 20.95 Q23.95 17.45 25.7 15.35 L28.4 13.0 Q30.2 11.55 30.7 10.45 L36.3 9.7 41.95 9.4 48.15 10.05 51.15 10.1"/><path fill="#ffffff" stroke="none" d="M45.1 77.8 L45.0 77.65 Q43.85 76.95 43.25 76.85 L47.15 76.85 48.3 77.05 49.45 77.15 51.0 76.5 55.15 76.2 58.85 75.3 58.9 75.1 60.25 74.8 Q61.25 74.4 61.6 74.35 L62.95 74.15 64.1 73.6 65.95 71.95 Q66.5 71.35 66.95 71.15 L68.05 70.65 70.35 68.9 72.3 66.7 Q74.15 64.75 75.6 62.2 77.55 58.85 77.6 55.25 77.65 53.75 78.15 51.9 L79.15 48.7 Q79.55 47.25 79.35 45.3 L78.75 42.1 78.15 39.1 77.5 37.55 77.15 36.25 78.15 37.5 Q78.8 38.5 79.35 40.35 L80.3 43.3 81.45 46.1 81.45 49.4 Q81.35 50.5 81.4 52.65 L81.35 55.85 81.05 59.1 Q80.7 61.25 79.5 61.65 L78.2 63.7 Q77.3 65.0 77.35 66.0 L76.95 66.0 75.45 68.5 Q74.5 70.1 75.05 71.45 74.4 72.1 73.75 73.9 70.8 76.0 68.85 76.3 68.2 77.5 68.15 78.05 L62.0 79.4 Q61.15 79.5 59.6 80.45 58.25 81.2 56.8 81.4 L53.7 81.3 50.75 80.4 48.0 78.85 Q46.3 77.8 45.1 77.8 M77.15 36.25 L76.8 35.85 77.15 35.95 77.15 36.25"/><path fill="#ffffff" stroke="none" d="M47.6 87.05 Q49.4 87.45 51.65 86.45 L55.35 84.7 59.8 84.4 Q63.1 84.6 64.4 84.4 66.95 83.95 68.55 82.85 70.0 81.8 71.45 79.6 73.15 76.95 77.25 73.2 L79.6 70.75 80.35 69.1 80.95 67.4 Q81.65 65.95 82.95 64.45 84.45 62.8 85.85 62.05 L87.6 53.8 Q88.25 49.2 87.5 45.4 86.7 42.95 86.6 41.7 L86.65 39.5 86.8 37.3 86.45 33.7 86.35 33.45 Q85.3 31.0 85.25 29.7 86.05 31.3 86.45 33.7 L87.7 37.35 88.6 41.45 89.4 45.65 Q90.3 52.95 88.05 63.7 87.75 65.2 86.55 67.2 L84.65 70.55 82.8 73.55 80.8 76.55 76.9 82.3 74.2 84.75 Q72.3 86.3 71.8 87.4 L66.1 88.2 60.35 88.6 53.95 88.05 50.85 88.0 Q48.75 87.95 48.15 87.35 L47.6 87.05"/><path fill="#ffffff" stroke="none" d="M7.5 27.25 Q7.8 24.35 10.75 21.55 L15.35 16.95 17.55 15.6 Q18.85 14.6 19.95 14.4 20.55 13.8 21.95 13.45 L24.3 13.3 22.0 13.8 Q20.6 15.2 18.2 16.15 L16.15 19.8 15.0 21.7 Q14.25 22.95 13.7 23.3 13.45 25.6 12.95 26.75 12.4 28.1 10.85 29.3 9.25 32.6 9.8 35.95 9.95 37.05 10.8 39.85 11.35 42.4 10.35 43.6 L10.35 45.6 Q10.35 45.05 9.95 44.7 L9.3 43.95 Q9.1 43.5 9.0 41.75 L8.9 39.75 8.6 37.8 7.9 36.3 Q7.45 35.45 7.35 34.75 7.2 34.0 7.35 33.0 L7.65 31.25 7.6 29.25 7.5 27.25"/><path fill="#ffffff" stroke="none" d="M91.65 62.55 L91.35 66.25 90.7 69.6 90.0 72.95 89.6 76.2 89.0 79.6 Q88.35 82.05 85.35 84.3 85.25 84.45 85.3 84.75 L84.65 85.35 84.1 86.05 83.4 86.65 82.5 86.95 78.0 88.1 72.95 88.25 67.7 88.1 Q69.05 87.6 71.3 87.4 L75.0 87.1 75.0 86.95 81.8 83.55 Q85.5 81.15 86.35 78.0 L86.7 76.15 87.0 74.25 87.65 72.65 88.35 70.95 89.5 67.4 90.45 63.9 Q91.0 61.25 91.0 59.0 91.7 60.05 91.65 62.55"/><path fill="#ffffff" stroke="none" d="M36.7 35.25 Q43.05 30.7 46.5 29.45 52.1 27.5 58.5 29.5 62.55 30.8 65.95 34.2 68.85 37.15 71.0 41.35 73.3 45.85 72.5 50.2 71.95 53.2 69.1 58.45 64.3 67.3 53.55 67.35 44.3 67.4 34.8 61.5 L32.45 56.85 Q30.95 54.2 30.7 51.75 30.45 49.25 30.55 45.35 L30.7 38.95 Q30.9 44.45 33.35 50.35 35.95 56.55 39.75 60.1 43.75 63.8 51.15 63.05 57.85 62.35 62.75 58.8 67.25 55.5 68.05 50.4 68.8 45.75 66.3 41.25 63.85 36.8 59.35 34.65 54.45 32.35 49.0 33.85 44.5 35.1 41.95 39.4 39.45 43.6 40.4 48.25 41.7 54.3 48.0 54.9 53.55 55.5 58.3 52.1 58.9 45.65 56.5 42.9 53.8 42.25 52.2 43.75 51.4 44.55 50.3 46.85 49.95 43.35 51.75 41.1 56.35 39.6 59.55 42.6 62.8 45.6 61.4 50.4 60.35 54.1 56.2 56.15 52.3 58.05 48.2 57.45 44.55 56.9 41.4 55.0 38.0 52.9 36.15 49.85 34.35 46.8 35.1 42.5 L36.7 35.25 M50.3 46.85 L50.35 47.3 49.9 47.7 50.3 46.85"/></g></defs><g><g><use transform="matrix(1.0,0.0,0.0,1.0,0.0,0.0)" xlink:href="#c1"/></g></g></svg>