<?xml version='1.0' encoding='UTF-8'?>
<svg xmlns="http://www.w3.org/2000/svg" xmlns:xlink="http://www.w3.org/1999/xlink" version="1.1" width="93px" height="96px" viewBox="3.7 4.0 92.6 95.9"><defs><g id="c1"><path fill="#ffffff" stroke="none" d="M56.6 4.35 Q58.7 4.8 65.3 7.05 67.05 7.7 68.6 8.85 70.35 10.15 70.35 11.1 L70.6 75.0 70.3 76.35 Q69.9 77.8 69.35 78.5 68.5 79.6 65.7 80.75 62.2 82.2 58.55 82.2 L47.35 82.3 39.5 81.75 Q36.7 80.95 35.4 80.05 33.65 78.8 33.1 76.55 32.6 74.5 32.55 73.0 L31.9 12.0 Q32.25 10.35 32.95 9.6 33.5 9.0 34.9 8.0 36.35 7.0 37.35 6.6 L41.0 5.4 45.1 4.35 50.65 4.0 56.6 4.35 M63.5 30.85 L63.5 24.95 51.15 24.45 43.0 24.7 38.65 24.95 38.65 30.85 42.35 30.55 50.5 30.25 63.5 30.85"/><path fill="#ffffff" stroke="none" d="M14.55 18.4 L16.5 20.3 Q17.3 21.55 17.3 25.3 L17.3 78.2 Q15.2 79.65 13.1 80.6 8.85 82.55 8.7 80.25 8.35 74.45 8.05 43.6 L7.8 13.9 7.9 13.55 Q8.1 13.2 8.65 13.3 10.35 13.65 14.55 18.4 M15.75 36.75 L15.75 31.6 9.5 29.65 9.6 35.15 15.75 36.75"/><path fill="#ffffff" stroke="none" d="M93.9 13.3 Q94.75 13.15 94.75 13.9 L94.5 43.6 Q94.2 74.45 93.85 80.25 93.75 82.55 89.5 80.6 L85.3 78.2 85.3 25.3 Q85.3 21.55 86.1 20.3 L88.0 18.4 Q92.2 13.65 93.9 13.3 M93.0 35.15 L93.05 29.65 86.8 31.6 86.8 36.75 93.0 35.15"/><path fill="#ffffff" stroke="none" d="M46.5 98.3 L37.4 93.65 42.7 99.9 38.25 99.9 27.25 95.2 28.95 98.45 17.95 96.75 24.15 99.9 19.2 99.9 5.05 92.7 23.8 95.45 3.7 83.55 35.15 95.55 25.7 85.25 44.95 94.35 52.0 85.25 58.5 93.65 76.2 85.4 65.4 97.05 96.3 82.45 77.4 96.95 93.5 93.3 81.3 99.9 76.2 99.9 81.3 97.95 72.4 98.6 77.4 94.15 63.0 99.9 59.55 99.9 65.05 93.5 56.1 98.1 52.0 91.95 46.5 98.3"/></g></defs><g><g><use transform="matrix(1.0,0.0,0.0,1.0,0.0,0.0)" xlink:href="#c1"/></g></g></svg>