<?xml version='1.0' encoding='UTF-8'?>
<svg xmlns="http://www.w3.org/2000/svg" xmlns:xlink="http://www.w3.org/1999/xlink" version="1.1" width="87px" height="74px" viewBox="7.05 13.35 86.95 73.65"><defs><g id="c1"><path fill="#ffffff" stroke="none" d="M18.2 13.35 Q16.2 17.25 14.7 22.2 13.35 26.8 12.6 31.35 11.05 40.0 11.3 50.05 11.55 59.65 13.15 68.7 15.05 78.95 18.2 87.0 16.0 84.2 13.35 78.6 11.3 73.9 10.1 69.4 7.55 60.25 7.3 50.1 7.05 39.9 9.55 30.7 10.9 25.75 12.9 21.5 15.5 16.3 18.2 13.35"/><path fill="#ffffff" stroke="none" d="M29.65 24.1 Q28.35 27.05 27.45 30.45 26.75 32.95 26.1 36.95 25.2 43.05 25.35 50.05 25.5 57.05 26.5 63.2 27.6 70.2 29.65 76.3 25.8 71.6 23.45 63.9 21.5 57.5 21.35 50.15 21.2 42.7 23.05 36.25 24.0 32.95 25.6 29.75 27.6 26.05 29.65 24.1"/><path fill="#ffffff" stroke="none" d="M41.15 32.8 Q39.9 36.45 39.3 41.5 38.85 45.05 38.95 50.1 39.05 54.4 39.55 58.75 40.3 64.1 41.15 67.55 38.25 64.55 36.5 59.45 35.05 55.05 34.95 50.15 34.8 45.25 36.25 40.8 38.05 35.45 41.15 32.8"/><path fill="#ffffff" stroke="none" d="M93.75 50.25 Q94.0 60.45 91.5 69.65 90.2 74.5 88.15 78.85 85.55 84.05 82.85 87.0 84.8 83.2 86.3 78.15 87.45 74.5 88.45 69.0 89.9 60.8 89.75 50.35 89.5 40.8 87.9 31.65 85.95 21.3 82.85 13.35 85.15 16.35 87.65 21.8 89.6 26.25 90.95 30.95 93.55 40.5 93.75 50.25"/><path fill="#ffffff" stroke="none" d="M79.7 50.2 Q79.85 57.65 78.0 64.1 77.05 67.35 75.4 70.6 73.35 74.4 71.4 76.3 72.7 73.45 73.6 69.9 74.35 67.25 74.95 63.4 75.85 57.3 75.7 50.3 75.55 43.3 74.55 37.15 73.25 29.7 71.4 24.1 75.25 28.75 77.6 36.45 79.55 43.1 79.7 50.2"/><path fill="#ffffff" stroke="none" d="M66.1 50.2 Q66.2 55.2 64.8 59.55 63.0 64.9 59.9 67.55 61.15 63.9 61.75 58.9 62.2 55.3 62.1 50.3 62.0 45.75 61.45 41.6 60.85 36.7 59.9 32.8 62.8 35.8 64.55 40.9 66.0 45.3 66.1 50.2"/></g></defs><g><g><use transform="matrix(1.0,0.0,0.0,1.0,0.0,0.0)" xlink:href="#c1"/></g></g></svg>