<?xml version='1.0' encoding='UTF-8'?>
<svg xmlns="http://www.w3.org/2000/svg" xmlns:xlink="http://www.w3.org/1999/xlink" version="1.1" width="100px" height="82px" viewBox="0.0 17.95 100.0 81.85"><defs><g id="c1"><path fill="#ffffff" stroke="none" d="M21.1 37.3 L19.55 37.15 18.8 37.45 18.2 37.9 Q17.6 38.25 16.65 39.6 17.4 39.3 17.95 40.65 L20.0 40.3 19.9 41.1 20.1 41.9 20.6 40.85 21.05 40.05 21.45 39.45 21.45 39.05 21.35 38.6 21.1 37.3 M27.25 63.15 Q26.9 61.65 25.55 60.75 24.05 59.75 23.45 59.1 L22.9 59.65 22.3 60.2 23.1 61.45 23.0 61.0 23.55 62.15 24.15 63.2 24.8 65.35 26.2 69.9 27.75 74.35 29.05 79.0 30.65 83.6 Q31.6 86.4 31.85 88.3 32.05 89.8 32.9 92.7 L33.2 95.0 33.55 97.25 33.95 98.4 Q33.75 94.95 34.0 89.4 34.05 87.65 33.2 84.9 L31.9 80.25 30.7 76.1 29.7 71.8 27.25 63.15 M34.05 50.5 L34.1 51.25 33.95 51.5 Q34.05 52.1 34.65 52.9 L35.5 54.25 36.8 57.0 38.5 60.55 38.2 59.5 37.8 56.25 Q37.45 51.75 37.0 50.05 L36.6 51.85 Q36.5 52.45 36.55 53.7 L35.45 51.75 Q34.6 50.3 34.05 50.5 M40.95 40.65 L41.75 42.5 39.85 44.5 35.85 43.65 35.35 45.65 40.15 47.35 42.2 50.55 43.6 49.9 48.35 52.25 47.85 47.55 49.25 46.65 48.45 43.5 48.8 40.7 48.8 37.45 40.95 40.65 M82.25 17.95 L83.9 22.75 71.85 27.0 72.0 30.3 61.1 34.05 61.35 35.25 59.15 36.45 57.55 38.65 55.0 40.1 56.95 43.2 56.45 45.2 57.8 46.95 58.3 60.0 56.95 62.75 54.95 66.1 Q54.1 66.8 48.8 68.1 L40.4 64.55 40.4 83.35 42.6 96.35 42.3 99.8 17.25 99.8 Q13.0 99.8 9.5 98.25 L10.2 93.4 7.3 75.8 2.4 68.95 0.0 67.9 0.0 65.7 0.25 66.15 Q0.5 66.75 1.4 67.2 L4.0 68.4 Q4.25 68.1 4.05 67.65 L3.8 66.9 5.1 67.0 6.4 66.75 8.0 65.65 9.45 64.7 11.65 63.1 Q12.4 62.55 14.45 61.45 15.05 61.15 16.45 60.05 L18.25 58.75 20.35 57.15 Q22.65 56.3 23.5 55.45 L23.95 54.55 24.25 53.45 25.2 51.65 25.6 50.65 27.4 50.4 28.8 50.4 30.15 50.15 31.85 48.95 33.55 47.6 33.5 46.7 33.45 45.75 Q33.6 45.1 34.55 44.65 34.45 44.1 33.65 43.55 33.05 43.15 32.45 43.0 L31.9 42.65 31.35 42.6 31.6 44.1 30.0 44.75 Q29.7 44.95 29.7 45.55 L29.65 46.6 29.4 47.05 28.8 47.1 24.85 47.4 Q23.7 47.4 23.45 47.75 L23.3 48.15 23.05 48.5 Q22.6 48.8 22.2 48.05 L21.7 46.9 Q21.65 47.1 22.15 49.1 L22.35 51.25 21.75 51.95 21.05 52.55 20.0 53.25 19.15 54.05 Q18.45 54.4 17.1 55.4 L12.95 57.9 11.7 58.45 Q10.8 58.85 10.7 59.2 9.0 60.05 5.7 62.05 L4.2 63.2 3.75 63.8 1.9 64.05 0.0 64.0 0.0 51.9 2.45 51.3 Q3.1 51.15 5.85 45.65 2.95 39.0 2.75 37.4 2.65 36.45 2.95 33.95 L3.25 31.7 5.7 30.05 4.35 27.85 7.0 28.8 8.35 27.2 8.7 28.45 13.35 26.25 20.7 26.7 22.45 27.75 24.5 27.95 23.65 30.1 22.2 31.25 23.7 32.5 22.7 33.25 24.3 35.75 23.15 38.35 24.95 40.9 26.8 39.4 31.3 39.8 35.85 35.05 82.25 17.95"/><path fill="#ffffff" stroke="none" d="M81.3 57.45 L80.25 55.6 81.2 56.95 81.3 57.45"/><path fill="#ffffff" stroke="none" d="M84.0 43.9 L88.55 39.45 89.8 38.25 88.85 40.65 87.95 42.75 Q88.9 42.4 90.25 41.0 L92.5 39.1 91.8 39.85 93.9 38.55 95.9 37.0 Q97.45 35.95 99.9 35.0 98.75 36.75 97.55 39.35 L100.0 38.95 100.0 61.15 96.05 59.75 Q96.15 61.2 97.0 62.9 97.75 64.6 98.65 65.35 L97.0 64.5 95.35 63.45 Q93.7 62.45 91.0 61.4 89.9 60.95 88.7 60.0 L86.7 58.5 Q86.4 60.1 87.4 62.85 L85.1 60.8 82.8 58.7 81.2 56.95 80.65 55.6 Q81.15 55.2 86.25 56.45 L84.65 55.5 Q83.6 54.7 83.3 54.15 L84.85 54.1 84.8 54.0 96.1 50.75 93.25 50.25 90.3 49.85 84.55 49.85 84.9 49.7 84.9 49.5 Q85.65 49.3 87.2 48.2 L89.15 46.55 84.3 47.55 Q81.55 48.3 80.0 49.35 L78.7 49.9 Q80.3 47.8 84.0 43.9"/><path fill="#ffffff" stroke="none" d="M76.4 60.25 L76.75 60.05 Q77.2 60.45 77.7 60.4 L76.85 64.85 Q75.8 64.8 74.6 64.0 73.35 63.1 73.1 62.2 72.6 60.45 73.85 60.15 L76.4 60.25"/><path fill="#ffffff" stroke="none" d="M68.75 53.9 Q68.6 54.15 69.2 55.1 69.6 55.8 68.65 55.95 67.65 56.1 67.3 55.45 66.95 54.8 67.75 54.25 L68.75 53.9"/><path fill="#ffffff" stroke="none" d="M74.9 53.25 L75.4 53.4 Q76.15 53.7 76.1 54.45 76.05 55.2 75.05 54.9 74.45 54.7 74.35 54.1 74.2 53.45 74.9 53.25"/><path fill="#ffffff" fill-opacity="0.8" d="M80.25 31.05 L79.25 35.05 60.75 41.55 61.9 38.75 76.55 33.55 76.75 29.75 85.4 26.9 85.9 29.55 80.25 31.05"/><path fill="#ffffff" fill-opacity="0.8" d="M82.35 38.5 L82.75 34.7 88.5 33.25 88.85 35.95 86.15 36.25 84.9 40.2 61.95 46.2 63.3 43.45 82.35 38.5"/><path fill="#ffffff" fill-opacity="0.8" d="M59.25 71.2 Q57.0 72.15 53.6 71.85 L57.2 70.0 Q59.35 68.75 60.35 67.55 61.85 65.75 62.0 63.2 L61.9 58.4 62.4 58.05 Q63.15 58.35 63.7 60.15 L64.35 62.8 Q64.65 64.0 64.3 65.2 L63.2 67.55 Q61.75 70.2 59.25 71.2"/></g></defs><g><g><use transform="matrix(1.0,0.0,0.0,1.0,0.0,0.0)" xlink:href="#c1"/></g></g></svg>