<?xml version='1.0' encoding='UTF-8'?>
<svg xmlns="http://www.w3.org/2000/svg" xmlns:xlink="http://www.w3.org/1999/xlink" version="1.1" width="89px" height="88px" viewBox="0.2 7.35 89.45 87.85000000000001"><defs><g id="c1"><path fill="#ffffff" stroke="none" d="M76.0 8.95 Q77.8 10.25 77.0 11.75 76.65 12.35 76.85 13.1 77.2 14.2 76.95 14.35 L76.4 15.25 76.05 16.35 75.6 17.35 75.3 18.4 75.55 19.75 76.6 19.9 77.6 19.95 79.35 20.7 79.75 20.95 80.7 22.45 80.95 22.65 81.05 22.9 81.65 23.25 83.4 23.5 Q84.55 23.5 85.4 24.05 L87.0 25.2 87.5 25.65 88.4 26.45 89.2 27.25 Q89.65 27.55 89.5 28.2 L89.25 29.2 88.5 30.25 88.25 30.65 87.7 30.75 Q86.7 30.8 85.2 30.25 L83.15 29.75 Q82.05 29.75 81.35 30.65 82.45 40.65 81.8 57.15 81.7 59.4 80.75 63.35 79.75 67.4 79.6 69.35 79.1 75.4 79.1 78.15 79.0 82.7 79.75 85.7 L83.55 86.6 Q85.85 87.15 85.75 89.2 L78.7 89.4 72.2 89.0 71.45 85.7 70.9 82.25 Q70.8 82.5 70.25 85.9 69.9 88.15 68.8 88.8 L70.75 91.1 Q72.05 92.4 71.8 94.35 69.15 95.2 66.6 94.3 64.4 93.5 63.0 91.8 63.25 90.45 63.0 89.75 L62.05 88.45 Q62.75 78.15 63.85 72.85 L64.9 69.5 65.95 66.05 Q66.75 61.85 66.8 54.85 66.8 46.4 67.05 43.75 67.15 42.7 67.95 40.75 68.8 38.75 68.85 37.75 69.05 35.1 65.7 27.05 63.15 20.95 66.35 18.35 L68.05 18.1 69.7 17.7 Q69.8 16.55 69.15 15.55 L68.2 13.8 Q67.8 11.95 68.3 10.25 68.8 8.4 70.3 7.45 L73.0 7.35 76.0 8.95"/><path fill="#ffffff" fill-opacity="0.8" d="M46.45 16.7 L42.1 24.0 49.15 28.65 Q56.15 34.35 55.95 39.65 55.8 44.95 49.5 46.85 46.35 47.8 43.25 47.65 L0.2 47.65 0.2 42.95 30.35 43.55 39.05 43.35 Q46.15 42.8 48.0 40.85 49.85 38.9 43.7 34.35 L37.2 30.15 32.1 37.4 23.7 17.45 46.45 16.7"/><path fill="#ffffff" fill-opacity="0.8" d="M43.25 52.0 Q46.35 51.85 49.5 52.8 55.8 54.65 55.95 59.95 56.15 65.25 49.15 71.0 45.65 73.85 42.1 75.65 L46.45 82.9 23.7 82.15 32.1 62.25 37.2 69.45 43.7 65.3 Q49.85 60.75 48.0 58.8 46.15 56.85 39.05 56.3 L30.35 56.1 0.2 56.7 0.2 52.0 43.25 52.0"/></g></defs><g><g><use transform="matrix(1.0,0.0,0.0,1.0,0.0,0.0)" xlink:href="#c1"/></g></g></svg>