<?xml version='1.0' encoding='UTF-8'?>
<svg xmlns="http://www.w3.org/2000/svg" xmlns:xlink="http://www.w3.org/1999/xlink" version="1.1" width="92px" height="99px" viewBox="0.0 0.4 91.85 99.19999999999999"><defs><g id="c1"><path fill="#ffffff" stroke="none" d="M68.85 42.8 Q71.45 41.6 72.7 40.55 L74.15 38.5 Q75.05 36.95 75.5 36.65 76.5 36.0 78.3 35.8 L81.35 35.55 86.65 35.2 91.85 34.85 Q89.6 35.2 87.05 37.75 L82.75 41.55 Q82.65 42.9 80.5 45.85 L77.2 49.7 Q75.6 51.25 72.3 51.0 L66.35 50.8 Q65.5 53.85 61.45 53.7 L54.45 53.0 57.5 50.1 Q59.35 49.85 61.6 47.85 L64.9 44.85 Q65.85 44.25 68.85 42.8"/><path fill="#ffffff" stroke="none" d="M47.6 0.4 L48.1 7.55 Q48.4 11.85 48.3 14.65 47.85 21.9 47.05 26.15 L46.45 28.65 45.8 31.15 Q45.6 32.45 45.9 34.2 L46.45 36.95 46.3 39.7 45.8 42.4 Q45.65 44.15 46.05 47.65 L45.85 49.05 Q45.75 49.7 46.5 50.15 48.35 55.05 39.3 48.15 L37.0 46.35 Q35.95 45.45 35.2 44.2 L33.85 41.95 Q33.15 40.95 31.9 40.1 28.45 37.75 21.95 35.6 L11.55 32.15 Q12.8 33.85 14.4 37.2 L17.05 42.4 18.55 44.35 20.0 46.4 21.15 48.95 Q21.85 50.6 22.55 51.45 24.5 53.75 27.6 54.05 L33.75 53.9 Q37.45 53.75 46.25 54.15 L45.95 57.25 Q45.75 59.2 46.0 60.4 L46.8 63.0 47.25 65.9 Q47.35 67.3 48.3 71.75 48.95 75.85 47.8 77.2 48.4 78.45 47.3 79.65 46.1 80.95 46.35 82.05 L47.0 83.2 47.8 84.35 48.15 86.1 48.25 87.9 Q48.6 90.45 48.5 93.75 L48.3 99.6 48.05 99.6 46.85 95.0 Q46.0 92.45 44.3 91.1 42.9 89.95 40.35 89.8 38.0 89.65 36.05 90.35 39.0 86.95 36.7 83.15 35.25 81.35 35.05 80.35 34.85 79.65 35.35 78.5 L35.7 76.95 Q35.5 76.3 34.25 75.85 L32.5 75.15 Q31.4 74.3 31.25 73.7 L30.95 71.65 Q30.65 69.4 28.85 69.05 27.15 68.7 25.1 70.15 L25.5 69.4 Q23.75 68.95 21.4 71.9 20.25 73.35 18.55 76.35 21.25 70.55 20.75 64.15 20.65 62.5 20.05 60.65 19.4 58.8 18.5 57.6 17.35 56.25 15.5 55.85 L11.8 55.6 Q11.6 51.8 10.5 49.95 9.15 47.6 5.8 46.9 L3.45 47.9 Q1.95 48.4 1.5 49.6 0.85 49.3 0.0 49.15 L0.0 48.65 0.45 48.65 Q0.05 48.1 0.0 47.65 L0.0 17.6 Q0.0 9.8 4.4 5.1 8.95 0.4 16.65 0.4 L47.6 0.4"/></g></defs><g><g><use transform="matrix(1.0,0.0,0.0,1.0,0.0,0.0)" xlink:href="#c1"/></g></g></svg>