<?xml version='1.0' encoding='UTF-8'?>
<svg xmlns="http://www.w3.org/2000/svg" xmlns:xlink="http://www.w3.org/1999/xlink" version="1.1" width="65px" height="100px" viewBox="16.65 0.0 65.05000000000001 100.0"><defs><g id="c1"><path fill="#ffffff" stroke="none" d="M69.15 75.9 Q69.15 80.2 63.45 83.25 57.75 86.25 49.7 86.25 41.65 86.25 35.95 83.2 30.25 80.15 30.25 75.85 30.25 73.5 32.3 71.3 L32.3 73.2 Q32.3 77.7 37.75 80.45 42.65 82.9 49.75 83.0 56.9 83.05 61.8 80.65 67.25 77.95 67.25 73.25 L67.25 71.5 Q69.15 73.65 69.15 75.9"/><path fill="#ffffff" stroke="none" d="M57.8 16.75 Q54.5 15.9 49.8 15.85 45.1 15.85 41.8 16.7 38.45 17.55 38.45 18.8 38.45 20.0 41.8 20.9 L49.8 21.75 57.8 20.9 Q61.1 20.05 61.1 18.8 61.1 17.6 57.8 16.75 M59.8 15.1 Q63.95 16.75 63.95 19.1 L63.9 54.2 Q63.6 56.45 59.5 58.0 55.4 59.55 49.75 59.55 L44.45 59.15 44.5 25.6 39.95 23.6 39.95 57.95 Q35.85 56.4 35.6 54.15 L35.65 19.05 Q35.65 16.7 39.8 15.05 43.95 13.4 49.8 13.4 55.7 13.45 59.8 15.1"/><path fill="#ffffff" stroke="none" d="M63.9 56.65 L63.85 73.0 Q63.85 76.4 59.45 78.3 55.45 80.05 49.7 80.0 43.95 79.95 39.95 78.2 35.55 76.2 35.55 72.95 L35.6 56.55 Q35.8 58.75 39.9 60.4 L39.9 74.0 44.45 76.1 44.45 61.55 49.75 62.0 Q55.4 62.0 59.5 60.45 63.6 58.9 63.9 56.65"/><path fill="#ffffff" stroke="none" d="M19.15 5.95 L19.65 5.95 Q20.8 8.45 21.35 12.1 L21.65 15.15 21.5 18.25 20.8 21.3 20.2 24.35 Q20.0 27.1 20.75 30.5 21.65 34.1 21.75 36.65 22.15 40.65 22.05 42.75 22.0 45.5 21.4 48.9 20.5 53.0 19.65 55.05 L19.15 55.05 Q18.2 52.75 17.45 48.9 16.8 45.7 16.75 42.75 16.65 40.65 17.05 36.65 17.2 34.1 18.05 30.5 18.8 27.1 18.6 24.35 L18.05 21.3 17.3 18.25 Q17.05 16.6 17.2 15.15 L17.45 12.1 Q18.0 8.45 19.15 5.95"/><path fill="#ffffff" stroke="none" d="M27.3 38.9 L27.8 38.9 Q29.0 41.55 29.45 45.05 L29.75 48.1 Q29.85 49.95 29.6 51.2 L28.9 54.25 Q28.45 56.2 28.35 57.3 28.1 59.8 28.9 63.45 29.65 66.7 29.85 69.35 27.85 70.8 26.85 72.8 25.45 75.7 26.4 79.25 26.95 81.5 29.1 83.65 28.6 86.05 27.8 88.0 L27.3 88.0 Q26.3 85.75 25.55 81.85 25.0 78.55 24.85 75.7 24.8 73.3 25.15 69.6 25.35 66.65 26.15 63.45 26.95 60.1 26.7 57.3 L26.15 54.25 25.45 51.2 25.3 48.1 25.6 45.05 Q26.15 41.4 27.3 38.9"/><path fill="#ffffff" stroke="none" d="M32.2 92.05 Q33.35 94.55 33.9 98.2 L34.05 100.0 29.8 100.0 30.0 98.2 Q30.55 94.55 31.7 92.05 L32.2 92.05"/><path fill="#ffffff" stroke="none" d="M45.35 3.95 L45.85 3.95 Q47.0 6.4 47.5 9.75 L43.65 10.15 43.65 10.1 Q44.2 6.45 45.35 3.95"/><path fill="#ffffff" stroke="none" d="M30.8 38.45 L30.5 35.35 Q30.4 33.8 30.65 32.3 30.8 31.35 31.3 29.45 L31.3 41.2 30.8 38.45"/><path fill="#ffffff" stroke="none" d="M30.75 1.6 L31.1 0.0 34.35 0.0 34.7 1.6 Q35.25 4.35 35.4 7.75 L35.25 12.35 Q31.3 14.1 31.3 16.9 L31.3 19.65 Q30.55 16.5 30.35 13.9 L30.05 7.75 Q30.2 4.9 30.75 1.6"/><path fill="#ffffff" stroke="none" d="M53.1 91.1 L52.85 89.45 57.4 88.8 57.05 91.1 Q56.3 94.95 55.35 97.25 L54.85 97.25 Q54.0 95.2 53.1 91.1"/><path fill="#ffffff" stroke="none" d="M68.8 5.95 L69.3 5.95 Q70.35 8.45 71.05 12.1 71.6 15.4 71.75 18.25 L71.45 24.35 Q71.25 27.3 70.45 30.5 69.65 33.8 69.85 36.65 L70.45 39.7 71.15 42.75 71.3 45.85 71.0 48.9 Q70.45 52.55 69.3 55.05 L68.8 55.05 Q67.65 52.55 67.1 48.9 L66.85 45.85 Q66.75 44.0 67.0 42.75 L67.7 39.7 68.25 36.65 Q68.5 34.15 67.7 30.5 66.9 27.3 66.7 24.35 L66.45 17.65 Q66.6 14.7 67.1 12.1 67.85 8.25 68.8 5.95"/><path fill="#ffffff" stroke="none" d="M55.1 5.25 L55.65 0.0 59.9 0.0 60.45 5.25 Q60.55 7.3 60.15 11.4 L55.3 10.3 Q55.05 7.35 55.1 5.25"/><path fill="#ffffff" stroke="none" d="M42.25 94.3 Q41.5 97.4 41.65 100.0 L40.05 100.0 Q40.25 97.45 39.5 94.3 38.7 91.15 38.5 88.35 L43.15 89.2 42.25 94.3"/><path fill="#ffffff" stroke="none" d="M67.75 59.6 Q68.6 61.65 69.5 65.75 70.0 68.4 70.15 71.45 68.9 69.8 67.55 68.95 L66.45 68.4 66.45 61.95 67.25 59.6 67.75 59.6"/><path fill="#ffffff" stroke="none" d="M66.7 90.25 Q66.9 87.95 66.35 85.2 L69.15 82.95 68.85 84.15 Q68.1 87.55 68.3 90.25 L68.9 93.35 69.6 96.4 Q69.85 97.95 69.75 99.45 L69.7 100.0 65.3 100.0 65.3 99.45 Q65.15 98.05 65.4 96.4 L66.15 93.35 66.7 90.25"/><path fill="#ffffff" stroke="none" d="M76.35 3.35 L76.65 0.0 81.4 0.0 81.7 3.35 81.4 9.5 Q81.2 12.45 80.4 15.65 79.6 19.25 79.85 21.75 79.95 22.9 80.4 24.85 L81.1 27.9 Q81.35 29.15 81.25 30.95 L81.0 34.05 Q80.45 37.7 79.3 40.15 L78.8 40.15 Q77.65 37.7 77.1 34.05 L76.8 30.95 Q76.75 29.45 76.95 27.9 L77.65 24.85 78.25 21.75 Q78.45 18.95 77.65 15.65 76.85 12.45 76.65 9.5 L76.35 3.35"/><path fill="#ffffff" stroke="none" d="M21.4 69.6 Q22.0 73.0 22.05 75.7 22.15 77.75 21.75 81.85 21.65 84.4 20.75 88.0 20.0 91.4 20.2 94.15 20.3 95.25 20.75 97.1 L21.45 100.0 17.35 100.0 18.05 97.1 18.6 94.15 Q18.8 91.4 18.05 88.0 17.2 84.4 17.05 81.85 16.65 77.75 16.75 75.7 16.8 72.8 17.45 69.6 18.2 65.75 19.15 63.45 L19.65 63.45 Q20.5 65.5 21.4 69.6"/><path fill="#ffffff" stroke="none" d="M75.25 54.4 L75.5 51.35 Q76.05 47.7 77.2 45.2 L77.7 45.2 Q78.85 47.7 79.4 51.35 L79.7 54.4 79.55 57.5 78.85 60.55 Q78.35 62.45 78.3 63.6 78.05 66.4 78.85 69.75 79.65 72.95 79.85 75.9 L80.15 82.0 Q80.0 84.85 79.45 88.15 78.7 92.05 77.7 94.3 L77.2 94.3 Q76.25 92.0 75.5 88.15 74.95 85.4 74.8 82.0 74.7 80.0 75.1 75.9 75.3 72.95 76.1 69.75 76.9 66.1 76.65 63.6 L76.1 60.55 75.4 57.5 Q75.15 56.25 75.25 54.4"/><path fill="#ffffff" stroke="none" d="M66.4 73.25 L66.4 71.5 Q68.3 73.65 68.3 75.9 68.25 80.2 62.55 83.25 56.85 86.25 48.8 86.25 40.75 86.25 35.1 83.2 29.4 80.15 29.4 75.85 29.4 73.55 31.4 71.3 L31.4 73.2 Q31.4 77.7 36.85 80.45 41.8 82.9 48.9 83.0 56.0 83.05 60.9 80.65 66.4 77.95 66.4 73.25"/><path fill="#ffffff" stroke="none" d="M56.9 16.75 L48.9 15.85 Q44.2 15.85 40.9 16.7 37.6 17.55 37.6 18.8 37.6 20.0 40.9 20.9 L48.9 21.75 56.9 20.9 Q60.25 20.05 60.25 18.8 60.25 17.6 56.9 16.75 M58.9 15.1 Q63.05 16.75 63.05 19.1 L63.0 54.2 Q62.7 56.45 58.65 58.0 54.55 59.55 48.85 59.55 L43.6 59.15 43.65 25.6 39.1 23.6 39.05 57.95 Q35.0 56.45 34.7 54.15 L34.75 19.05 Q34.75 16.7 38.9 15.05 43.05 13.4 48.9 13.4 54.8 13.45 58.9 15.1"/><path fill="#ffffff" stroke="none" d="M63.0 56.65 L63.0 73.0 Q63.0 76.4 58.6 78.3 54.6 80.05 48.85 80.0 43.1 79.95 39.1 78.2 34.7 76.2 34.7 72.95 L34.7 56.55 Q35.0 58.8 39.05 60.4 L39.05 74.0 43.55 76.1 43.6 61.55 48.85 62.0 Q54.55 62.0 58.65 60.45 62.7 58.9 63.0 56.65"/></g></defs><g><g><use transform="matrix(1.0,0.0,0.0,1.0,0.0,0.0)" xlink:href="#c1"/></g></g></svg>