<?xml version='1.0' encoding='UTF-8'?>
<svg xmlns="http://www.w3.org/2000/svg" xmlns:xlink="http://www.w3.org/1999/xlink" version="1.1" width="90px" height="94px" viewBox="3.8 6.45 89.75 93.55"><defs><g id="c1"><path fill="#ffffff" stroke="none" d="M81.05 45.45 Q79.85 44.25 79.85 43.0 L82.75 42.75 Q83.5 44.15 83.25 46.4 L82.55 46.45 81.05 45.45 M42.2 43.75 Q46.65 41.05 52.05 41.05 57.55 41.05 62.05 43.85 66.45 46.6 68.45 51.0 L68.45 51.05 69.2 54.6 Q69.8 58.85 69.2 62.45 67.25 73.8 53.8 73.8 40.35 73.8 36.45 64.8 35.2 62.0 35.1 58.6 L35.85 50.7 Q37.85 46.4 42.2 43.75 M42.25 11.35 Q45.35 6.45 51.2 6.45 57.05 6.45 60.6 12.3 62.4 15.2 63.0 18.1 L67.85 47.5 Q66.3 44.6 63.45 42.45 L62.85 35.9 Q66.05 39.2 66.5 43.45 L66.55 42.35 Q66.55 37.25 62.6 33.45 L61.05 17.45 58.3 12.7 58.45 30.7 Q55.45 29.35 52.05 29.35 46.05 29.35 41.85 33.15 37.6 36.95 37.6 42.35 L37.65 43.45 Q38.1 38.45 42.25 35.05 46.4 31.6 52.05 31.6 55.6 31.6 58.5 32.95 L58.55 39.8 Q55.4 38.7 52.05 38.7 46.9 38.7 42.6 41.15 38.4 43.55 36.25 47.55 L40.3 16.2 Q40.7 13.75 42.25 11.35 M27.35 23.85 Q27.8 24.5 28.3 27.65 27.35 28.3 25.8 28.7 24.05 29.1 23.3 28.7 L22.55 27.7 Q21.95 27.5 21.4 26.55 20.8 25.6 20.85 24.9 21.0 23.55 21.85 23.35 L24.1 23.2 Q26.6 22.8 27.35 23.85 M18.8 48.2 Q21.8 48.6 20.25 53.9 19.3 54.55 17.05 54.7 L15.3 53.95 Q14.5 53.6 13.85 52.55 L12.75 50.7 Q13.85 49.75 15.65 48.95 17.65 48.05 18.8 48.2 M64.05 94.3 Q64.45 97.55 65.8 97.7 L65.8 98.3 65.4 98.2 65.8 98.45 65.8 98.3 Q68.95 98.8 69.4 97.95 72.5 95.05 70.5 91.35 68.5 87.6 64.1 89.75 63.8 91.8 64.05 94.3 M55.55 95.45 Q54.1 95.95 54.3 97.45 54.5 98.7 55.55 99.7 L57.55 98.7 Q58.9 98.2 57.9 96.6 56.85 95.0 55.55 95.45 M43.55 95.95 L44.55 96.45 46.25 96.15 47.25 94.65 47.0 93.75 Q42.4 93.3 42.6 95.65 L43.55 95.95 M54.35 59.35 Q53.4 60.1 52.05 60.1 50.75 60.1 49.8 59.35 48.85 58.6 48.85 57.55 48.85 56.45 49.8 55.7 50.75 54.95 52.05 54.95 53.4 54.95 54.35 55.7 55.3 56.45 55.3 57.55 55.3 58.6 54.35 59.35 M57.2 52.9 Q55.05 50.95 52.05 50.95 49.1 50.95 46.95 52.9 44.85 54.8 44.85 57.55 44.85 60.25 46.95 62.2 49.1 64.1 52.05 64.1 55.05 64.1 57.2 62.2 59.3 60.25 59.3 57.55 59.3 54.8 57.2 52.9 M3.8 54.7 L28.3 78.7 26.55 60.95 44.3 89.7 45.8 83.95 50.8 93.95 60.3 80.7 59.3 92.95 78.05 63.2 73.3 90.7 93.55 50.2 83.3 100.0 26.35 100.0 3.8 54.7 M38.3 92.1 Q38.8 90.3 38.25 88.25 36.4 87.25 34.55 87.25 32.3 87.25 31.25 88.9 30.25 90.45 31.35 92.35 32.5 94.3 34.55 94.2 L35.55 94.45 Q37.65 94.4 38.3 92.1"/></g></defs><g><g><use transform="matrix(1.0,0.0,0.0,1.0,0.0,0.0)" xlink:href="#c1"/></g></g></svg>