<?xml version='1.0' encoding='UTF-8'?>
<svg xmlns="http://www.w3.org/2000/svg" xmlns:xlink="http://www.w3.org/1999/xlink" version="1.1" width="88px" height="91px" viewBox="5.85 8.6 88.10000000000001 91.4"><defs><g id="c1"><path fill="#ffffff" stroke="none" d="M55.55 59.3 L45.4 59.55 41.65 67.95 46.8 62.8 54.65 62.95 59.3 66.05 55.55 59.3 M59.3 60.7 L62.9 70.05 63.05 42.2 59.3 60.7 M37.9 69.05 L40.65 61.3 35.4 43.55 37.9 69.05 M42.9 76.05 L38.4 78.45 37.4 82.45 42.8 80.3 59.55 78.8 64.9 80.45 62.8 76.2 42.9 76.05 M54.25 33.05 L52.6 34.05 Q51.8 34.5 50.8 34.55 L48.4 34.45 47.35 34.15 46.3 33.95 45.9 33.95 46.65 35.35 47.55 36.55 48.55 36.7 49.65 36.7 50.3 37.0 50.95 37.35 Q53.5 38.0 54.25 33.05 M48.9 27.45 L48.65 27.55 48.9 27.6 Q48.95 28.75 49.3 29.35 49.75 30.05 50.55 29.45 L51.4 28.35 52.2 27.3 50.5 27.5 48.9 27.6 48.9 27.45 M54.45 18.4 L52.15 18.45 47.75 18.4 43.45 18.85 43.35 20.65 43.4 22.55 43.15 22.95 43.35 23.65 43.7 22.85 44.55 25.05 48.4 25.05 49.8 24.05 51.65 24.8 56.05 24.8 56.9 22.45 43.7 22.8 44.25 22.0 44.65 21.05 Q45.0 20.45 45.25 20.4 L46.3 20.3 50.9 20.3 53.1 20.05 Q54.55 19.85 55.3 20.05 56.2 20.35 56.9 21.65 L56.15 19.3 Q55.65 18.5 54.45 18.4 M51.2 11.95 L53.8 12.55 Q56.6 13.35 57.9 14.15 59.2 14.95 59.15 20.75 L58.85 26.4 58.45 26.75 58.75 28.7 58.7 30.75 58.5 32.65 56.95 31.55 Q57.35 31.0 57.2 29.8 L56.9 28.0 55.6 29.1 54.8 32.55 56.5 32.9 56.4 35.6 63.5 35.9 63.25 39.4 70.2 43.35 73.6 59.4 76.35 57.9 76.95 57.35 75.7 55.3 75.1 50.9 87.0 9.4 Q87.3 9.15 87.75 8.95 88.6 8.6 89.2 8.95 L91.15 9.95 90.8 11.55 93.7 14.55 92.9 17.6 93.95 20.8 90.15 34.75 86.9 35.8 83.85 44.4 83.9 45.7 82.65 49.25 84.0 49.25 84.35 51.3 84.65 52.0 84.85 52.75 84.35 53.35 83.95 54.0 84.0 54.85 84.15 55.75 Q84.55 56.1 84.85 57.75 L83.8 58.55 Q83.15 59.1 82.65 59.2 L81.65 62.35 80.85 65.6 80.05 68.55 79.65 69.35 79.85 69.3 79.9 71.85 Q80.0 73.75 80.35 74.1 L78.1 75.75 Q76.5 76.75 75.55 76.9 74.75 77.05 73.1 76.2 L70.5 74.55 69.95 74.55 Q68.55 74.55 67.85 72.6 L67.45 71.55 66.75 70.75 Q66.2 68.95 66.1 66.75 L65.2 63.75 65.55 73.25 67.3 75.7 65.55 78.8 68.6 88.3 67.9 100.0 54.1 100.0 53.85 97.1 52.7 95.75 52.1 100.0 34.2 100.0 34.85 94.0 34.4 84.25 36.6 78.45 35.1 77.05 35.9 73.5 35.1 67.55 33.75 70.45 Q32.15 73.35 31.05 73.55 L30.45 74.25 30.75 75.1 28.5 76.75 Q26.9 77.75 25.95 77.9 25.05 78.05 23.15 77.0 L20.5 75.15 21.15 73.4 21.45 71.2 20.85 70.65 Q19.7 69.55 19.3 68.55 L18.5 65.6 17.7 62.35 16.7 59.2 15.55 58.55 14.5 57.75 Q14.8 56.1 15.2 55.75 L15.4 54.85 15.4 54.0 15.0 53.35 14.5 52.75 14.7 52.0 15.0 51.3 15.15 50.3 15.35 49.25 17.1 49.25 15.9 45.7 15.95 44.4 12.85 35.8 9.65 34.75 5.85 20.8 6.9 17.6 6.1 14.55 9.0 11.55 8.65 9.95 10.6 8.95 Q11.2 8.6 12.05 8.95 L12.8 9.4 24.7 50.9 24.1 55.3 22.65 57.6 23.0 57.9 26.0 59.55 25.45 54.0 Q25.4 52.05 26.35 48.6 L27.3 45.55 34.4 40.9 33.55 38.95 41.35 36.75 41.25 34.55 44.45 32.35 44.8 29.9 42.25 27.0 Q41.45 24.55 41.25 19.45 41.1 15.9 44.2 13.9 46.8 12.25 51.2 11.95"/></g></defs><g><g><use transform="matrix(1.0,0.0,0.0,1.0,0.0,0.0)" xlink:href="#c1"/></g></g></svg>