<?xml version='1.0' encoding='UTF-8'?>
<svg xmlns="http://www.w3.org/2000/svg" xmlns:xlink="http://www.w3.org/1999/xlink" version="1.1" width="95px" height="84px" viewBox="3.0 15.95 94.6 83.64999999999999"><defs><g id="c1"><path fill="#ffffff" stroke="none" d="M31.15 48.8 L29.3 47.45 27.5 46.1 28.05 47.0 27.7 47.2 Q28.2 47.65 28.35 48.2 L28.5 49.3 28.3 49.5 Q28.7 50.2 28.6 51.8 28.45 53.4 27.95 54.1 L28.85 52.55 29.5 50.9 29.4 50.75 29.9 49.95 30.15 50.0 31.9 51.1 33.65 52.25 33.0 51.45 32.25 50.6 Q31.8 49.4 31.15 48.8 M25.8 49.2 L25.9 48.9 24.1 49.9 23.55 49.95 22.95 50.1 21.8 49.95 19.85 49.4 21.35 50.05 23.1 51.4 24.8 52.6 26.7 54.3 26.65 53.95 26.5 53.55 Q25.75 52.75 25.7 51.45 L25.8 49.2 M25.45 28.75 L25.8 29.9 26.0 31.05 Q26.0 32.65 25.35 33.6 L26.1 33.4 24.65 35.25 23.65 35.8 Q23.15 36.1 23.4 36.75 L23.3 36.9 23.45 37.75 23.5 38.65 23.6 38.8 23.5 38.95 23.6 39.1 23.45 39.2 22.85 38.7 23.2 39.6 Q24.5 42.65 27.1 44.15 28.2 44.75 29.95 44.85 32.05 45.0 32.5 44.3 29.95 44.85 28.1 42.95 L29.55 42.55 30.8 42.0 Q29.4 41.6 28.65 40.9 27.8 40.2 27.85 39.95 L28.1 39.65 28.55 39.5 28.15 38.95 Q29.35 38.9 29.75 38.5 28.3 37.5 27.6 36.0 L27.25 35.35 Q27.1 35.0 27.45 34.65 27.65 34.45 28.15 34.35 L28.85 34.0 29.8 33.75 28.8 33.15 27.85 32.35 29.15 31.0 29.5 30.4 Q28.65 31.3 27.4 31.9 27.4 31.0 26.7 30.1 L25.45 28.75 M19.3 16.6 Q20.75 17.1 22.05 18.2 25.9 23.7 24.75 23.75 L25.45 23.7 26.2 23.9 27.85 23.8 29.6 23.85 Q31.15 23.85 32.5 24.45 35.4 25.7 36.55 28.3 37.3 29.9 37.25 30.95 L37.1 33.55 36.75 38.8 36.85 38.95 Q36.7 39.55 37.15 40.6 L37.15 41.15 Q37.05 41.55 37.45 41.85 L38.2 42.25 Q39.15 42.9 40.2 43.85 L47.35 49.85 45.8 51.35 36.35 43.35 35.8 40.55 35.55 42.35 34.95 44.6 Q34.55 45.2 31.95 45.55 L32.55 45.95 34.15 46.35 36.85 45.85 44.4 52.75 32.9 64.25 27.35 57.6 Q26.3 56.0 25.15 55.05 23.1 53.35 19.85 51.6 L17.15 49.9 14.5 48.0 Q13.1 47.1 13.95 43.85 14.35 42.3 14.85 41.7 15.25 41.25 15.9 41.1 L16.85 40.8 17.95 39.5 18.8 38.0 19.1 38.95 19.2 39.85 19.55 41.7 Q19.9 43.9 20.2 44.7 L20.0 43.0 19.8 41.3 Q20.0 41.0 19.8 40.5 L19.85 39.3 Q19.85 38.5 20.1 38.1 20.4 37.7 21.25 37.1 L22.35 36.1 21.15 36.6 Q20.4 36.8 19.9 36.6 18.75 36.95 18.15 34.9 18.3 34.0 18.8 32.8 L19.65 30.75 20.15 28.75 20.3 27.75 20.65 26.55 21.0 25.4 Q21.55 24.55 23.35 24.1 L21.5 24.0 Q20.35 23.95 19.8 24.45 19.25 23.8 18.0 23.15 L15.95 22.4 17.15 23.65 18.4 24.9 17.55 24.2 18.2 25.25 18.95 26.15 19.3 27.1 19.6 28.1 19.5 28.2 19.65 28.35 19.0 29.35 18.65 30.45 18.3 31.5 17.65 32.45 Q17.05 33.1 16.65 33.15 16.2 33.2 15.5 32.65 L14.45 31.6 Q13.75 30.9 13.35 30.85 L14.25 31.6 15.1 32.35 16.45 34.1 16.75 34.95 16.3 35.6 15.45 37.05 14.25 38.4 12.9 37.8 12.5 37.45 11.05 36.4 10.75 36.2 9.3 34.8 10.4 36.2 Q11.25 37.05 11.55 37.85 L12.2 39.55 Q12.55 40.3 12.35 40.75 11.8 41.4 10.75 41.65 9.1 42.1 6.75 41.05 4.2 39.95 4.05 38.2 3.85 38.1 3.75 37.45 L3.85 37.3 3.85 37.05 3.75 36.9 3.9 36.25 3.95 35.4 Q4.1 34.35 4.55 34.0 L5.4 33.6 6.25 33.25 Q7.25 32.65 7.2 31.85 L6.85 30.35 Q7.1 28.75 8.0 28.05 8.4 27.75 9.35 27.5 L10.65 26.95 Q10.35 26.5 10.35 26.0 L10.5 24.8 10.8 23.7 Q11.3 22.75 12.6 22.25 L14.85 21.6 Q14.25 20.65 14.25 20.05 14.2 19.4 14.9 18.15 15.6 16.85 16.2 16.6 17.55 15.95 19.3 16.6"/><path fill="#ffffff" stroke="none" d="M70.65 69.35 L97.6 91.75 95.2 94.8 Q90.5 99.6 82.7 99.6 L62.65 99.6 52.45 87.55 70.65 69.35"/><path fill="#ffffff" stroke="none" d="M75.35 48.9 L75.5 49.2 75.6 51.45 Q75.5 52.75 74.75 53.55 L74.6 53.95 74.55 54.3 76.45 52.6 78.15 51.4 79.9 50.05 81.4 49.4 79.45 49.95 78.3 50.1 77.15 49.9 75.35 48.9 M68.3 51.45 L67.6 52.25 69.35 51.1 71.15 50.0 71.35 49.95 71.85 50.75 71.75 50.9 72.4 52.55 73.3 54.1 Q72.8 53.45 72.7 51.8 72.6 50.2 72.95 49.5 L72.75 49.3 72.95 48.2 Q73.05 47.65 73.6 47.2 L73.2 47.0 73.8 46.1 71.95 47.45 Q70.65 48.3 70.1 48.8 69.45 49.4 69.0 50.6 L68.3 51.45 M75.8 28.75 L74.55 30.1 Q73.85 31.0 73.85 31.9 L71.75 30.4 72.1 31.0 73.4 32.35 72.45 33.15 71.45 33.75 72.4 34.0 73.1 34.35 73.8 34.65 74.05 35.35 73.65 36.0 Q72.95 37.45 71.55 38.5 71.9 38.9 73.15 38.95 L72.7 39.5 73.15 39.65 73.4 39.95 72.6 40.9 Q71.85 41.6 70.45 42.0 70.75 42.3 71.75 42.55 L73.15 42.95 Q71.4 44.9 68.75 44.3 69.2 45.0 71.35 44.85 73.05 44.75 74.15 44.15 76.75 42.65 78.05 39.6 L78.4 38.7 77.8 39.2 77.65 39.1 77.8 38.95 77.7 38.8 77.8 38.65 77.8 37.75 77.95 36.9 77.85 36.75 Q78.1 36.1 77.6 35.8 76.95 35.55 76.65 35.25 L75.15 33.4 75.9 33.6 Q75.25 32.65 75.25 31.05 L75.45 29.9 75.8 28.75 M43.6 61.4 L40.95 63.35 Q39.05 64.8 38.75 65.7 L38.65 65.95 Q44.2 65.6 46.6 62.4 48.15 60.3 50.95 57.85 L55.7 53.8 64.45 45.85 65.25 46.1 67.1 46.35 Q68.5 46.3 69.3 45.55 66.7 45.2 66.3 44.6 66.05 44.25 65.75 42.35 L65.45 40.55 64.9 43.35 43.6 61.4 M17.65 99.6 Q9.85 99.6 5.05 94.8 L3.0 92.2 38.6 62.6 61.05 43.85 Q62.1 42.9 63.05 42.25 L63.8 41.85 Q64.25 41.55 64.1 41.15 L64.15 40.6 Q64.6 39.5 64.4 38.95 L64.5 38.8 64.15 33.55 64.0 30.95 Q63.95 29.9 64.7 28.3 65.85 25.7 68.75 24.45 70.15 23.85 71.65 23.85 L73.4 23.8 75.05 23.9 75.8 23.7 76.45 23.75 Q75.85 23.55 77.2 21.15 78.6 18.7 79.2 18.2 80.55 17.05 81.95 16.6 83.75 15.95 85.05 16.6 85.65 16.85 86.35 18.15 87.05 19.4 87.0 20.05 L86.45 21.6 88.7 22.25 Q89.95 22.75 90.45 23.7 L90.75 24.8 90.9 26.0 90.6 26.95 Q90.95 27.25 91.9 27.5 L93.25 28.05 Q94.15 28.75 94.4 30.35 L94.05 31.85 Q94.0 32.65 95.0 33.25 L96.7 34.0 Q97.15 34.35 97.3 35.4 L97.35 36.25 97.5 36.9 97.4 37.05 97.4 37.3 97.5 37.45 97.2 38.2 Q97.05 39.95 94.55 41.05 92.15 42.1 90.5 41.65 89.55 41.4 88.9 40.75 88.75 40.3 89.05 39.55 L89.7 37.85 Q90.0 37.05 90.85 36.2 L91.9 34.85 90.5 36.2 88.75 37.45 88.35 37.8 87.0 38.4 85.8 37.05 84.95 35.6 84.55 34.95 84.8 34.1 86.15 32.35 87.9 30.85 Q87.5 30.9 86.8 31.6 L85.75 32.65 Q85.05 33.2 84.6 33.15 84.2 33.1 83.6 32.45 L82.95 31.5 82.6 30.45 82.25 29.35 81.6 28.35 81.75 28.2 81.65 28.1 81.95 27.1 82.35 26.15 83.1 25.25 83.7 24.2 82.85 24.9 84.1 23.65 85.35 22.4 Q84.35 22.6 83.25 23.15 82.0 23.8 81.45 24.45 80.9 23.95 79.75 24.0 L77.9 24.1 Q79.7 24.55 80.25 25.4 L80.6 26.55 80.95 27.75 81.1 28.75 81.6 30.75 82.45 32.8 83.15 34.9 Q82.45 36.9 81.35 36.6 80.85 36.8 80.15 36.6 L78.9 36.1 80.05 37.1 Q80.9 37.7 81.15 38.1 L81.4 39.3 81.45 40.5 Q81.25 41.0 81.45 41.3 L81.25 43.0 81.05 44.7 81.75 41.7 82.05 39.85 82.45 38.0 83.3 39.5 Q83.9 40.45 84.4 40.8 L85.4 41.1 Q86.0 41.25 86.4 41.7 86.9 42.3 87.3 43.85 88.15 47.1 86.75 48.0 L84.1 49.9 81.4 51.6 Q78.15 53.35 76.1 55.05 75.0 56.0 73.9 57.6 L38.6 99.6 17.65 99.6"/></g></defs><g><g><use transform="matrix(1.0,0.0,0.0,1.0,0.0,0.0)" xlink:href="#c1"/></g></g></svg>