<?xml version='1.0' encoding='UTF-8'?>
<svg xmlns="http://www.w3.org/2000/svg" xmlns:xlink="http://www.w3.org/1999/xlink" version="1.1" width="95px" height="99px" viewBox="0.05 0.65 94.95 99.19999999999999"><defs><g id="c1"><path fill="#ffffff" stroke="none" d="M87.5 10.1 L90.2 9.95 95.0 15.75 88.85 24.6 93.8 47.8 93.8 55.75 92.15 66.65 90.4 69.55 87.95 73.25 85.25 75.65 80.2 82.2 76.0 84.0 70.0 92.4 69.55 99.85 40.4 99.85 38.85 99.5 46.95 88.35 Q49.5 75.35 51.15 72.5 L54.4 65.35 56.4 60.35 56.4 52.6 52.2 45.1 50.7 36.1 Q50.6 35.05 50.85 33.05 L51.15 31.2 Q61.6 25.35 64.9 24.6 66.95 24.15 72.75 22.3 L78.1 20.55 79.9 17.25 Q79.8 15.7 79.95 14.15 80.25 10.95 81.55 10.7 L83.85 10.4 86.65 10.15 87.5 10.1 M85.1 44.2 L83.9 49.0 Q82.7 54.25 82.65 56.2 82.5 59.3 80.05 64.4 L83.95 60.5 Q85.85 57.05 85.85 55.9 L85.1 44.2 M83.65 28.35 L82.15 25.2 80.2 25.05 61.75 35.5 Q60.15 36.4 57.3 37.3 L61.15 38.8 62.45 43.9 Q62.6 44.55 64.15 46.25 L66.05 48.55 66.85 50.95 67.15 52.45 71.35 55.9 Q71.3 52.65 72.2 51.0 L74.3 45.85 Q75.9 41.85 76.7 41.5 L80.9 40.45 84.05 39.85 83.65 28.35 M52.8 77.3 L52.65 80.5 57.05 84.35 53.0 96.8 60.2 87.3 Q61.9 89.25 63.6 89.75 64.35 89.95 66.5 89.2 L69.6 88.1 Q66.25 88.75 64.8 87.55 62.95 86.05 59.5 79.0 L58.5 79.55 56.0 80.0 Q54.75 79.9 53.65 78.6 L52.8 77.3 M69.0 62.0 L69.65 64.45 Q70.55 67.1 71.65 67.95 72.8 68.8 76.25 66.9 L79.5 64.85 77.15 64.55 Q74.5 64.15 73.3 63.5 72.1 62.85 71.15 61.1 L70.5 59.45 69.0 62.0 M31.7 55.15 L21.0 64.3 19.0 49.3 23.7 54.0 37.45 39.5 39.7 59.15 45.4 52.3 50.0 68.8 44.35 63.0 34.75 72.8 31.7 55.15"/><path fill="#ffffff" fill-opacity="0.8" d="M87.5 10.1 L86.65 10.15 83.85 10.4 84.2 0.65 87.95 1.0 87.5 10.1 M4.8 48.05 L6.05 45.95 0.05 43.85 0.05 35.55 9.9 39.5 10.95 37.7 20.4 42.2 14.8 51.5 4.8 48.05 M35.0 14.25 L36.55 12.9 44.1 20.15 35.8 27.2 27.45 20.75 29.3 19.15 8.2 2.55 Q11.85 0.65 16.7 0.65 L19.0 0.65 35.0 14.25"/></g></defs><g><g><use transform="matrix(1.0,0.0,0.0,1.0,0.0,0.0)" xlink:href="#c1"/></g></g></svg>