<?xml version='1.0' encoding='UTF-8'?>
<svg xmlns="http://www.w3.org/2000/svg" xmlns:xlink="http://www.w3.org/1999/xlink" version="1.1" width="80px" height="80px" viewBox="10.45 9.7 80.1 80.35"><defs><g id="c1"><path fill="#ffffff" stroke="none" d="M62.5 66.15 Q65.4 68.65 69.5 72.95 L76.3 80.0 76.75 80.3 74.05 83.05 73.05 82.75 59.65 69.4 59.5 68.0 62.1 65.3 Q62.1 65.8 62.5 66.15 M64.9 55.7 L66.45 57.3 66.25 57.9 64.7 59.05 Q62.9 60.4 61.75 61.5 59.95 63.3 57.8 66.6 L57.15 66.9 55.25 65.0 Q56.8 62.35 59.65 59.3 61.45 57.45 63.35 56.4 L64.9 55.7 M19.5 77.0 L19.35 77.05 Q17.85 77.9 16.5 79.65 L14.4 82.85 Q14.15 83.2 14.25 83.75 L13.95 84.3 14.35 83.95 Q14.7 84.6 15.45 84.7 16.25 84.85 16.65 84.1 L18.35 81.5 Q19.45 80.0 20.65 79.3 21.25 78.95 21.25 78.3 L25.4 82.35 23.35 84.25 Q21.15 86.25 20.3 86.6 L17.0 88.05 Q14.4 88.75 12.8 87.1 11.15 85.4 11.45 82.45 11.65 80.35 12.6 78.65 13.15 77.7 15.05 75.7 L16.85 73.95 19.7 76.8 19.5 77.0 M30.1 69.6 L36.9 62.55 Q37.35 62.05 37.2 61.45 L38.25 62.35 41.45 66.25 41.5 67.8 27.9 81.15 27.0 81.1 22.55 76.65 23.05 76.35 30.1 69.6 M35.9 60.3 L35.1 60.75 28.3 67.75 21.2 74.5 20.9 75.0 18.15 72.25 18.45 71.3 31.8 57.85 33.2 57.75 35.9 60.3 M36.2 53.45 L37.9 54.6 Q40.0 56.1 41.9 57.9 43.8 59.7 44.85 61.55 L45.5 63.1 43.9 64.7 43.3 64.5 Q41.45 61.8 39.7 60.0 L36.5 57.3 34.6 56.0 34.3 55.4 36.2 53.45 M22.55 22.8 L22.85 23.3 29.65 30.35 Q33.75 34.7 36.65 37.15 37.1 37.55 37.75 37.45 L36.85 38.5 32.95 41.7 31.4 41.7 18.05 28.1 18.1 27.25 22.55 22.8 M20.55 12.85 L23.5 15.3 25.25 17.1 22.4 19.95 22.2 19.75 22.15 19.6 Q21.3 18.1 19.55 16.75 L16.35 14.65 15.45 14.5 14.9 14.2 15.25 14.6 Q14.6 14.9 14.5 15.65 14.35 16.5 15.1 16.9 L17.75 18.6 Q19.2 19.7 19.9 20.85 20.2 21.4 20.9 21.5 L16.9 25.6 Q13.15 21.85 12.6 20.55 11.55 18.65 11.15 17.25 10.45 14.65 12.1 13.05 13.8 11.4 16.75 11.7 18.85 11.9 20.55 12.85 M41.9 36.7 L43.2 34.85 43.8 34.55 45.75 36.45 44.6 38.15 41.3 42.15 37.65 45.1 36.1 45.75 34.5 44.15 34.7 43.55 39.25 39.9 41.9 36.7 M41.35 32.05 L41.45 33.45 38.9 36.15 Q38.9 35.7 38.5 35.3 35.55 32.75 31.45 28.5 L24.7 21.45 Q24.5 21.25 24.2 21.15 L26.95 18.4 27.9 18.7 41.35 32.05 M54.45 35.35 L56.05 33.75 56.65 33.95 57.8 35.55 60.3 38.45 Q62.05 40.3 65.35 42.45 L65.65 43.05 63.75 45.0 Q61.1 43.45 58.05 40.55 56.2 38.75 55.15 36.9 L54.45 35.35 M72.1 17.3 L72.95 17.35 77.4 21.8 Q77.1 21.9 76.9 22.1 L69.85 28.85 Q65.55 33.0 63.05 35.9 62.65 36.35 62.75 37.0 L61.75 36.1 58.55 32.2 58.5 30.65 72.1 17.3 M85.9 84.55 L83.25 82.85 Q81.8 81.75 81.1 80.6 80.8 80.05 80.05 79.95 L84.1 75.8 86.0 77.85 Q88.0 80.1 88.35 80.9 L89.85 84.2 Q90.55 86.8 88.9 88.4 87.15 90.05 84.2 89.8 82.1 89.55 80.4 88.6 78.9 87.75 75.75 84.35 L78.55 81.5 78.75 81.7 78.8 81.85 Q79.7 83.35 81.4 84.7 L84.6 86.8 85.5 86.95 86.1 87.25 85.7 86.85 Q86.4 86.55 86.5 85.8 86.6 85.0 85.9 84.55 M82.9 73.3 L82.85 74.2 78.45 78.65 78.1 78.15 71.35 71.1 64.35 64.3 Q63.9 63.9 63.25 64.0 L64.15 62.95 68.0 59.75 69.55 59.7 82.9 73.3 M81.8 26.15 L81.5 27.15 68.15 40.6 66.75 40.7 64.05 38.15 64.9 37.7 71.7 30.7 78.75 23.95 79.05 23.45 81.8 26.15 M82.95 10.4 Q85.55 9.7 87.15 11.35 88.8 13.05 88.55 16.0 88.3 18.1 87.35 19.8 86.5 21.35 83.1 24.45 L80.25 21.65 80.45 21.45 80.6 21.4 Q82.1 20.55 83.45 18.8 L85.55 15.6 85.7 14.7 86.0 14.1 85.65 14.5 Q85.35 13.8 84.55 13.7 83.75 13.6 83.3 14.3 L81.6 16.95 Q80.55 18.4 79.35 19.1 78.75 19.5 78.75 20.15 L74.6 16.1 Q78.35 12.4 79.65 11.85 81.55 10.8 82.95 10.4"/></g></defs><g><g><use transform="matrix(1.0,0.0,0.0,1.0,0.0,0.0)" xlink:href="#c1"/></g></g></svg>