<?xml version='1.0' encoding='UTF-8'?>
<svg xmlns="http://www.w3.org/2000/svg" xmlns:xlink="http://www.w3.org/1999/xlink" version="1.1" width="92px" height="90px" viewBox="4.5 5.15 92.0 89.5"><defs><g id="c1"><path fill="#ffffff" stroke="none" d="M81.85 29.85 Q82.15 32.05 82.5 33.05 82.2 34.0 81.85 36.05 L81.15 39.2 80.25 43.1 Q79.6 45.5 78.6 46.7 L78.75 46.95 77.95 48.25 77.35 49.3 Q77.85 47.25 78.0 44.55 78.1 41.05 77.5 37.25 77.0 34.0 74.75 29.9 L70.85 23.2 71.2 22.65 Q72.15 22.95 73.55 23.6 L75.8 24.55 Q77.15 23.25 70.75 16.55 L67.65 13.0 Q65.55 10.75 64.1 10.05 L62.55 9.65 60.95 9.35 59.5 8.7 58.1 7.85 Q53.9 5.7 52.15 5.4 55.1 5.15 58.45 6.3 L58.55 6.9 62.45 8.15 Q64.95 8.85 66.15 9.5 67.2 10.05 69.1 11.55 L70.85 12.45 72.65 13.35 Q74.0 12.4 76.8 16.3 79.0 19.4 79.75 21.5 L81.3 26.5 81.85 29.85 M91.65 43.55 Q91.65 32.35 86.1 22.65 80.7 13.25 71.45 7.7 82.8 13.5 89.55 24.35 96.5 35.45 96.5 48.65 96.5 67.7 83.05 81.2 69.55 94.65 50.5 94.65 31.45 94.65 18.0 81.2 4.5 67.7 4.5 48.65 4.5 39.05 8.35 30.3 12.05 21.85 18.7 15.45 13.55 21.1 10.8 28.2 7.9 35.55 7.9 43.55 7.9 60.9 20.15 73.15 32.45 85.4 49.75 85.4 67.1 85.4 79.4 73.15 91.65 60.9 91.65 43.55 M58.25 24.75 L58.4 38.0 71.65 37.85 71.8 52.6 58.55 52.75 58.7 66.0 43.95 66.15 43.85 52.9 30.55 53.05 30.4 38.3 43.65 38.15 43.55 24.9 58.25 24.75 M34.25 10.65 L35.8 10.0 31.85 14.75 Q29.25 17.7 28.45 20.3 27.95 22.1 27.65 24.7 27.55 25.95 26.75 27.65 L25.45 30.4 Q24.8 32.05 24.6 34.0 24.35 36.5 25.2 37.5 22.85 39.3 21.55 42.45 L20.3 44.5 Q19.35 45.85 19.05 46.65 L18.4 49.3 17.95 52.0 17.1 56.25 17.25 54.65 17.3 52.9 17.6 49.85 Q17.8 47.8 18.4 45.45 L19.65 40.35 20.85 37.1 21.95 33.85 Q22.65 30.6 21.7 30.55 L19.1 33.75 16.25 36.65 Q15.35 37.7 14.6 39.1 13.65 40.8 13.5 41.95 13.3 40.45 14.0 38.3 L15.4 34.85 17.75 29.1 19.85 25.15 Q20.9 23.7 20.95 23.15 21.0 22.6 20.65 22.3 20.25 22.0 19.85 22.5 20.25 20.85 21.65 19.7 L22.15 20.0 Q22.7 19.3 25.3 17.05 29.1 13.65 31.0 12.2 32.7 10.95 34.25 10.65"/><path fill="#ffffff" fill-opacity="0.8" d="M81.05 54.15 Q84.3 48.2 85.5 42.05 86.2 49.55 83.7 56.6 81.15 63.95 75.6 69.45 69.55 75.5 61.45 78.0 53.55 80.4 45.45 78.95 52.45 78.35 59.4 74.95 66.6 71.45 72.55 65.5 77.7 60.3 81.05 54.15"/></g></defs><g><g><use transform="matrix(1.0,0.0,0.0,1.0,0.0,0.0)" xlink:href="#c1"/></g></g></svg>