<?xml version='1.0' encoding='UTF-8'?>
<svg xmlns="http://www.w3.org/2000/svg" xmlns:xlink="http://www.w3.org/1999/xlink" version="1.1" width="99px" height="100px" viewBox="0.25 0.0 99.05 100.0"><defs><g id="c1"><path fill="#f1f2f2" fill-opacity="0.8" d="M31.75 47.95 Q26.3 39.15 26.3 28.75 26.3 20.15 30.1 12.5 33.8 5.15 40.35 0.0 L49.95 0.0 Q41.6 3.75 36.5 11.4 31.3 19.3 31.3 28.75 31.3 37.85 36.15 45.55 40.85 53.0 48.75 56.95 L46.05 61.15 Q37.1 56.55 31.75 47.95 M86.6 28.75 Q86.6 35.95 82.65 41.95 78.75 47.75 72.35 50.55 L72.05 45.1 Q76.4 42.65 78.95 38.35 81.6 33.95 81.6 28.75 81.6 21.0 76.1 15.45 70.55 9.95 62.8 9.95 55.0 9.95 49.5 15.45 43.95 21.0 43.95 28.75 43.95 33.9 46.6 38.35 49.15 42.6 53.5 45.1 52.55 47.05 51.7 49.8 45.95 46.75 42.5 41.2 38.95 35.5 38.95 28.75 38.95 18.9 45.95 11.9 52.95 4.95 62.8 4.95 72.65 4.95 79.6 11.9 86.6 18.9 86.6 28.75 M94.3 28.75 Q94.3 19.3 89.1 11.4 84.0 3.75 75.6 0.0 L85.3 0.05 Q91.8 5.2 95.5 12.55 99.3 20.2 99.3 28.75 99.3 41.05 91.85 50.85 84.5 60.4 73.0 63.8 L72.6 58.7 Q82.15 55.55 88.15 47.4 94.3 39.1 94.3 28.75"/><path fill="#f1f2f2" stroke="none" d="M71.75 20.5 Q72.8 19.15 73.7 19.3 75.25 19.6 72.25 24.7 71.5 25.95 71.25 29.05 71.0 33.55 70.45 35.25 L68.9 38.55 69.45 43.15 68.95 52.15 Q68.6 61.7 69.2 64.5 70.35 69.85 63.45 86.9 61.6 91.4 59.65 100.0 L17.45 100.0 Q9.7 100.0 5.0 95.15 0.65 91.0 0.25 84.05 2.9 82.15 6.45 81.2 L9.5 80.6 Q10.5 79.2 11.2 76.25 11.65 74.45 13.05 72.95 L14.4 71.8 13.0 66.5 Q12.75 62.15 13.7 59.05 14.55 56.4 17.45 54.15 20.75 51.55 24.35 51.8 27.55 52.05 29.0 52.6 L32.55 54.65 Q34.65 55.95 36.35 59.85 L37.6 63.5 39.15 68.85 38.75 70.5 37.8 73.2 Q37.1 74.5 37.9 75.4 L43.55 74.85 47.45 71.3 47.45 67.4 49.05 62.8 51.85 60.25 59.7 37.35 57.85 36.3 56.25 33.8 54.5 31.9 51.85 31.05 Q49.8 29.6 50.45 28.7 50.9 28.1 52.75 28.3 54.5 28.55 55.35 29.1 L57.6 30.55 58.65 29.4 58.55 24.85 58.85 21.55 58.65 18.8 Q58.65 16.05 59.7 16.05 60.75 16.05 61.05 17.9 L61.2 19.75 62.05 23.85 62.05 21.85 62.55 18.2 Q62.6 17.1 62.8 16.05 63.25 13.9 64.15 14.0 65.05 14.15 65.2 16.9 L65.2 19.65 65.05 23.95 65.7 23.1 66.65 19.3 Q66.85 18.2 67.2 17.15 67.9 15.0 68.55 15.15 69.2 15.3 69.25 16.25 L69.2 17.15 68.4 23.8 69.25 24.9 Q69.6 25.1 70.9 21.85 L71.75 20.5"/></g></defs><g><g><use transform="matrix(1.0,0.0,0.0,1.0,0.0,0.0)" xlink:href="#c1"/></g></g></svg>