<?xml version='1.0' encoding='UTF-8'?>
<svg xmlns="http://www.w3.org/2000/svg" xmlns:xlink="http://www.w3.org/1999/xlink" version="1.1" width="88px" height="81px" viewBox="-0.1 8.85 87.75 80.75"><defs><g id="c1"><path fill="#ffffff" stroke="none" d="M64.45 47.7 L64.5 47.8 Q65.5 48.4 65.9 49.15 66.45 50.0 66.15 51.35 L66.0 51.8 66.0 51.85 66.0 52.05 Q65.9 52.75 65.3 53.25 64.7 53.7 64.0 53.7 63.2 53.7 62.65 53.15 L61.95 52.9 62.65 54.0 64.65 55.0 66.7 53.1 68.05 51.65 Q67.65 48.95 66.35 47.9 65.6 47.3 64.35 47.65 L64.45 47.7 M62.3 46.5 L63.55 47.2 63.6 47.25 63.75 47.3 Q65.2 46.15 66.25 46.2 67.2 46.25 68.5 46.9 L69.55 47.55 70.8 47.45 Q70.9 46.3 70.0 44.7 69.4 43.6 67.65 43.65 66.25 43.65 64.9 44.25 63.55 44.8 62.3 46.5 M-0.1 50.2 L-0.1 18.25 26.25 30.5 24.8 34.3 30.9 35.9 43.0 29.8 Q48.45 31.0 50.45 30.5 L54.15 29.65 Q56.1 29.95 56.95 29.65 L58.75 29.8 Q59.9 30.3 60.05 31.25 60.2 32.3 58.95 33.85 57.6 35.5 56.2 35.85 L52.8 35.95 49.3 35.95 47.25 37.15 51.65 40.45 61.0 45.75 62.2 44.4 Q64.9 42.2 68.15 42.6 L70.85 43.45 Q73.0 41.65 73.5 40.15 74.5 37.2 73.05 35.15 72.5 34.4 69.6 31.6 67.15 29.15 67.3 28.9 68.35 27.0 68.05 26.1 L67.5 23.3 Q72.15 18.6 73.5 18.0 74.75 17.4 78.65 21.25 82.8 25.35 83.5 29.15 85.3 39.4 86.15 41.0 86.9 42.45 86.85 43.55 L86.1 44.55 85.75 45.45 83.8 47.3 83.7 48.05 83.25 49.55 82.8 50.8 Q82.75 51.3 83.1 51.7 84.1 52.6 85.3 51.95 L86.75 51.25 87.65 52.1 86.05 53.35 85.35 53.1 Q84.6 52.95 84.3 53.35 83.75 53.95 83.55 55.55 L82.9 56.35 83.5 56.85 Q84.0 57.4 83.75 57.7 L72.0 69.65 69.55 71.15 56.85 83.75 55.35 86.35 53.0 88.0 Q51.4 87.95 50.85 87.35 L49.25 85.25 Q48.15 83.55 47.95 82.95 47.75 82.45 48.3 81.5 L48.9 80.6 57.15 72.45 Q59.75 73.4 60.45 73.2 61.95 72.75 62.8 72.0 63.7 71.25 63.45 70.55 L63.25 69.35 63.25 68.75 65.95 69.75 69.95 69.95 71.9 68.3 72.55 67.35 72.7 65.45 Q75.9 65.3 76.4 63.85 76.7 63.0 76.6 61.55 L76.45 60.3 Q74.95 59.2 72.95 58.1 68.9 55.95 66.4 55.9 L70.75 58.15 73.05 59.9 Q75.2 61.85 74.75 62.7 74.25 63.6 72.6 63.75 L71.0 63.7 67.0 61.55 60.4 59.45 63.85 61.65 67.2 63.0 Q70.55 64.45 70.65 65.05 71.05 67.6 68.85 68.0 67.0 68.3 62.9 66.3 L50.6 60.75 57.7 66.3 Q60.45 68.4 60.6 68.85 60.85 69.6 60.75 70.25 60.65 71.05 59.95 71.15 58.9 71.25 54.25 69.3 53.9 69.2 46.5 64.75 L38.7 61.2 Q35.0 60.05 31.95 57.85 L28.55 55.1 Q27.0 53.65 25.9 53.05 24.55 52.35 21.9 51.6 L19.25 50.9 18.5 50.65 16.25 56.5 -0.1 50.2 M56.45 51.0 L60.5 53.0 60.35 52.25 56.45 51.0"/><path fill="#ffffff" fill-opacity="0.8" d="M59.05 21.7 Q48.4 17.7 37.9 18.3 27.55 18.9 20.0 23.7 L20.55 23.0 Q29.7 13.25 42.9 11.05 55.85 8.85 67.5 14.8 L59.05 21.7 M14.55 68.7 Q11.55 63.15 10.5 56.9 13.7 64.45 20.35 70.75 27.2 77.25 36.35 81.15 39.35 82.4 43.1 83.5 44.8 87.45 47.55 89.6 40.6 89.25 34.25 86.65 27.7 83.9 22.45 79.0 17.6 74.45 14.55 68.7 M56.35 89.05 L56.7 88.55 Q58.5 87.4 59.8 85.35 66.2 84.95 71.5 82.95 64.8 87.55 56.35 89.05"/></g></defs><g><g><use transform="matrix(1.0,0.0,0.0,1.0,0.0,0.0)" xlink:href="#c1"/></g></g></svg>