<?xml version='1.0' encoding='UTF-8'?>
<svg xmlns="http://www.w3.org/2000/svg" xmlns:xlink="http://www.w3.org/1999/xlink" version="1.1" width="63px" height="98px" viewBox="25.0 1.4 63.400000000000006 98.25"><defs><g id="c1"><path fill="#ffffff" stroke="none" d="M84.4 47.0 Q87.2 46.9 87.8 48.8 88.4 50.9 85.75 53.75 L81.7 57.95 Q79.45 61.25 77.4 66.65 L74.2 75.95 66.8 81.8 62.7 84.45 Q60.05 86.2 59.35 87.65 58.85 88.8 58.65 92.7 L58.35 98.95 54.8 98.9 Q54.7 95.8 54.95 93.7 55.2 91.05 55.0 86.55 54.7 81.15 54.75 79.35 54.25 80.85 53.95 83.15 L53.5 87.05 52.5 90.85 Q51.85 93.25 51.95 94.75 50.9 95.4 51.4 98.9 L45.15 98.95 45.85 93.3 46.6 87.6 48.55 83.55 49.7 82.35 50.7 81.0 Q50.85 78.9 52.45 77.75 L53.25 75.8 54.8 74.5 56.2 73.0 57.05 70.55 59.45 68.75 59.55 67.8 Q59.95 67.5 60.2 66.65 L60.7 65.25 Q60.65 64.4 61.15 62.6 L62.0 59.9 61.3 60.3 61.0 60.95 60.55 61.3 Q60.4 61.45 60.5 61.9 L60.3 62.0 60.05 62.05 59.6 62.5 58.75 64.6 58.15 65.55 57.55 66.4 56.1 67.8 Q54.9 68.7 54.45 68.25 L54.35 67.5 54.4 66.75 54.5 64.3 Q55.5 54.15 54.0 49.35 53.85 50.55 54.15 53.5 54.4 55.7 53.65 57.45 L52.8 59.35 Q52.3 58.55 51.3 58.25 L51.25 55.0 Q51.15 53.05 50.55 52.05 50.8 53.0 50.5 56.8 50.3 59.65 51.95 61.25 51.15 63.35 51.25 65.05 L51.7 67.05 Q52.05 68.25 51.8 69.1 L50.85 70.6 49.8 71.85 47.3 74.4 Q45.65 76.15 45.2 77.25 L44.75 77.25 42.7 74.3 Q41.65 72.6 41.45 71.05 41.1 68.55 41.85 65.4 L43.05 60.05 43.4 59.55 43.9 58.95 Q44.1 58.4 43.9 57.25 L43.35 55.6 42.8 53.95 Q42.5 52.45 42.55 49.95 L42.5 45.9 Q42.35 44.1 41.5 41.45 L40.25 37.05 Q39.7 44.4 39.85 47.4 L40.35 52.3 40.7 57.7 Q40.6 61.65 39.1 62.4 L37.4 59.8 36.1 58.45 Q35.35 57.6 35.2 56.8 L35.0 56.75 34.1 54.8 Q33.5 53.5 33.55 52.9 33.3 54.5 34.15 56.6 34.1 57.65 34.3 58.7 34.55 59.95 35.9 62.3 37.15 64.5 37.35 65.9 L37.55 68.7 37.85 71.5 38.85 74.4 40.05 77.2 Q41.75 81.25 40.0 87.8 L38.1 92.4 Q36.65 95.35 36.25 97.0 L35.8 99.35 32.65 99.65 32.85 96.9 33.55 90.2 Q33.8 86.15 33.2 82.95 L29.55 70.1 Q27.05 61.6 27.0 55.05 L27.2 52.5 27.35 49.75 Q27.25 47.6 26.55 42.75 L25.6 34.65 Q25.0 27.5 25.1 26.65 25.4 22.0 28.8 22.55 30.5 22.8 31.3 27.35 L32.15 34.35 Q32.85 38.45 33.45 40.85 L34.2 43.9 Q34.8 45.6 36.0 45.9 36.95 44.55 36.85 41.9 L36.3 37.2 Q35.2 28.65 35.4 16.2 35.45 12.2 36.05 10.65 37.05 8.0 39.8 9.0 41.15 9.5 41.65 12.05 L42.0 16.2 42.45 25.35 Q42.65 30.6 43.15 34.0 L43.85 38.1 Q44.45 40.3 45.6 41.15 46.9 39.25 46.6 34.7 46.0 29.4 46.0 26.9 L46.4 21.45 Q46.7 17.8 46.6 15.05 L46.35 8.5 Q46.35 4.3 47.5 3.4 50.1 1.4 51.85 3.2 53.35 4.7 53.65 7.9 54.35 14.1 54.65 22.45 L55.2 36.2 55.3 39.0 Q55.45 40.7 56.4 41.35 L58.85 33.4 61.1 24.9 Q61.8 18.95 62.5 15.65 63.75 9.55 66.65 9.2 69.55 8.85 70.4 12.3 71.0 14.7 70.65 19.4 L70.0 23.2 69.2 27.65 68.85 32.0 68.35 36.4 66.45 48.55 Q65.85 55.9 67.95 60.4 69.4 59.25 71.0 56.65 72.85 53.65 73.9 52.55 76.7 49.65 80.1 48.1 82.25 47.1 84.4 47.0"/></g></defs><g><g><use transform="matrix(1.0,0.0,0.0,1.0,0.0,0.0)" xlink:href="#c1"/></g></g></svg>