<?xml version='1.0' encoding='UTF-8'?>
<svg xmlns="http://www.w3.org/2000/svg" xmlns:xlink="http://www.w3.org/1999/xlink" version="1.1" width="89px" height="81px" viewBox="5.75 9.6 88.75 80.80000000000001"><defs><g id="c1"><path fill="#ffffff" stroke="none" d="M47.35 75.6 Q48.1 75.65 49.55 76.2 L51.9 76.6 Q51.35 75.75 49.65 75.3 47.85 74.75 47.35 75.6 M57.7 80.65 L57.1 80.45 Q57.05 81.25 58.05 81.1 57.85 81.7 58.1 82.45 58.35 83.2 58.7 82.4 58.3 82.45 58.35 81.8 L58.35 80.8 57.7 80.65 M52.7 77.55 L51.9 78.5 Q52.6 78.35 52.75 79.3 52.9 80.25 53.5 80.15 53.95 79.4 53.85 77.75 53.75 76.15 53.2 76.25 53.2 76.95 52.7 77.55 M57.4 78.85 Q57.75 77.85 56.85 77.6 55.9 77.35 55.8 78.2 L56.6 78.55 57.4 78.85 M46.05 55.2 L56.35 57.6 48.6 69.3 38.3 66.6 46.05 55.2 M68.6 60.45 L61.15 72.65 51.9 70.2 59.25 58.3 68.6 60.45 M64.45 73.5 L71.45 61.1 81.1 63.35 73.55 75.9 64.45 73.5 M30.45 79.05 Q32.45 79.0 35.6 79.95 L41.95 81.65 44.9 82.35 Q46.8 83.05 46.2 84.4 45.65 85.6 43.25 84.95 L40.05 83.8 29.65 80.65 29.2 80.25 29.3 79.7 Q29.3 79.45 29.45 79.3 30.25 80.2 30.9 79.5 L30.45 79.05 M17.3 68.15 Q17.25 68.7 17.95 69.15 18.55 69.6 18.25 70.45 L19.1 69.8 19.55 68.8 18.35 68.55 17.3 68.15 M15.65 66.25 Q15.9 66.5 16.65 66.6 L17.6 66.9 17.6 65.6 Q17.1 65.05 16.4 65.3 15.65 65.55 15.65 66.25 M29.8 51.45 L20.5 61.9 11.05 59.4 20.8 49.35 29.8 51.45 M23.95 62.8 L32.75 52.15 43.15 54.55 34.95 65.75 23.95 62.8 M29.25 72.7 Q28.8 71.85 26.55 71.2 24.45 70.6 24.1 69.45 23.7 70.9 25.7 71.7 L29.25 72.7 M29.95 73.1 Q29.6 73.7 28.95 73.65 L27.25 73.25 25.4 73.0 Q24.9 74.25 25.2 76.55 25.55 79.3 25.4 80.45 28.0 83.4 33.9 85.4 40.85 87.4 44.15 88.55 46.55 87.55 48.35 87.25 48.85 86.75 49.55 84.9 50.15 83.25 50.95 82.75 L52.8 83.55 54.5 83.7 52.75 82.4 50.95 81.1 52.05 81.05 Q52.65 80.75 51.9 80.45 L49.85 80.0 47.25 79.2 47.2 79.7 46.8 80.3 46.65 80.95 46.0 81.1 45.9 81.05 Q45.45 81.35 45.15 80.85 L37.95 79.3 Q33.7 78.35 31.0 76.9 L29.25 77.25 Q28.8 76.75 29.05 75.9 L29.25 74.3 Q33.4 74.8 37.7 76.45 L46.2 78.6 Q45.05 77.75 45.45 76.6 45.95 77.85 48.35 78.7 L51.6 78.85 48.2 78.1 Q46.3 77.5 46.1 75.95 L47.35 74.65 Q46.45 74.1 46.05 74.9 L45.1 76.25 Q43.65 75.35 37.45 73.95 32.65 72.9 31.2 70.1 31.3 70.7 30.1 71.75 29.45 72.35 30.55 72.05 L29.95 73.1 M21.15 69.9 Q21.3 71.0 21.8 71.4 22.25 70.85 22.2 69.65 22.1 68.4 21.5 68.15 21.05 68.75 21.15 69.9 M23.95 46.1 L33.55 36.25 41.8 37.95 32.75 48.15 23.95 46.1 M13.95 10.5 Q12.5 10.8 10.5 11.9 10.6 13.6 10.15 15.4 L9.2 18.35 Q10.2 18.5 10.75 17.45 11.3 16.4 12.1 16.4 9.6 15.4 11.7 12.95 13.75 10.55 16.3 12.2 16.5 11.85 17.1 11.5 L17.95 10.9 Q15.9 10.1 13.95 10.5 M55.85 40.8 L66.15 42.95 58.7 54.1 48.4 51.7 55.85 40.8 M68.4 43.4 L77.8 45.35 70.8 56.85 61.45 54.7 68.4 43.4 M44.1 38.4 L53.55 40.35 45.65 51.1 35.55 48.75 44.1 38.4 M90.35 47.9 L83.3 59.7 73.5 57.45 80.1 45.8 90.35 47.9 M94.4 36.15 L94.5 46.05 93.3 62.05 77.6 90.4 52.35 85.2 50.3 88.45 45.45 90.4 35.1 88.0 24.2 82.0 23.55 74.0 9.75 69.35 6.7 64.85 5.75 58.35 29.25 34.55 8.25 19.55 9.95 10.9 13.0 9.6 86.4 23.4 94.4 36.15 M82.55 26.55 Q85.5 26.5 86.85 25.45 64.55 21.3 18.25 11.25 18.3 11.85 17.7 12.3 17.05 12.8 16.95 13.2 L36.8 16.75 57.1 20.6 56.5 21.4 Q56.2 21.95 57.1 21.9 57.85 21.7 57.4 21.25 56.95 20.8 57.75 20.6 58.8 20.8 59.2 21.45 L60.0 22.55 Q60.6 22.5 60.25 21.85 59.9 21.2 60.3 21.25 60.35 21.6 61.3 21.6 L60.75 22.05 Q60.4 22.3 60.65 22.9 61.25 22.45 62.15 22.9 62.85 23.3 63.25 22.55 L63.25 23.55 Q73.0 23.2 75.2 26.75 L75.6 25.9 76.15 25.15 76.15 26.1 Q76.2 26.65 76.8 26.45 77.15 26.4 77.3 25.8 77.45 25.2 77.8 25.15 77.95 25.65 77.7 26.0 77.4 26.4 77.45 26.75 L82.55 26.55 M87.5 27.75 Q88.0 29.5 86.9 31.9 L85.2 35.8 Q85.7 35.6 86.0 36.25 86.35 36.9 85.85 36.8 84.5 35.7 79.9 34.6 74.45 33.3 72.95 32.6 73.05 33.75 72.3 33.9 66.6 31.7 60.95 31.3 L60.95 30.3 45.35 26.85 29.6 23.55 Q29.6 22.8 28.95 22.55 28.75 22.65 28.7 23.25 L28.3 23.85 22.5 23.0 Q19.2 22.4 18.25 20.6 L14.05 20.0 9.85 19.3 Q13.75 22.85 20.55 27.35 L31.85 34.85 Q30.35 34.8 29.15 36.05 L27.0 37.75 Q23.6 41.9 16.9 48.4 L6.6 58.8 Q6.75 59.3 6.5 59.65 6.25 60.05 6.3 60.4 L6.75 60.95 6.6 61.3 17.35 64.3 Q17.5 64.75 18.65 64.95 19.75 65.1 19.9 65.6 19.35 65.95 19.75 66.8 20.15 67.65 20.85 67.5 20.8 66.9 21.75 67.1 22.4 67.2 22.15 66.9 20.55 66.8 20.85 65.3 L27.35 67.05 27.3 67.5 28.35 67.8 29.6 67.85 29.65 67.7 40.45 70.7 40.25 71.1 41.3 70.95 48.25 72.85 47.7 73.35 Q48.05 73.3 48.45 73.55 L49.3 73.65 49.35 73.55 49.75 73.95 50.3 73.9 50.7 73.55 60.15 76.15 59.4 76.9 Q60.05 76.95 60.1 78.45 60.1 79.9 60.95 79.8 L61.35 79.4 61.6 78.85 Q61.1 78.85 61.05 78.2 60.9 77.45 60.3 77.25 L61.3 77.25 61.35 76.5 72.55 79.6 72.3 80.15 Q73.3 80.55 74.85 79.85 L77.15 78.5 Q83.1 66.45 89.45 56.55 89.3 58.1 88.5 60.0 L86.85 63.3 82.85 70.2 Q80.5 74.3 79.4 77.25 78.3 78.25 77.95 79.7 L77.45 83.05 78.2 83.15 Q78.55 83.25 78.45 83.7 L77.7 83.75 77.15 83.7 Q78.1 84.1 77.45 85.9 76.75 87.85 77.15 88.25 83.45 76.6 92.35 61.05 L92.4 54.7 92.35 49.1 Q93.4 49.15 93.3 48.1 L90.6 43.65 Q89.0 40.75 87.8 40.05 88.05 39.55 87.3 39.1 86.25 38.45 85.85 37.1 87.8 36.0 88.65 32.25 89.55 28.35 87.5 27.75"/></g></defs><g><g><use transform="matrix(1.0,0.0,0.0,1.0,0.0,0.0)" xlink:href="#c1"/></g></g></svg>