<?xml version='1.0' encoding='UTF-8'?>
<svg xmlns="http://www.w3.org/2000/svg" xmlns:xlink="http://www.w3.org/1999/xlink" version="1.1" width="96px" height="99px" viewBox="2.55 0.45 95.95 99.14999999999999"><defs><g id="c1"><path fill="#ffffff" stroke="none" d="M39.6 21.6 L39.25 21.55 39.45 21.05 39.3 20.85 39.45 20.5 39.45 20.15 Q39.9 20.6 39.6 21.6 M51.9 46.5 Q54.45 47.1 55.15 49.1 55.6 50.4 55.6 52.3 55.6 54.2 55.15 55.65 L54.4 55.65 53.75 52.85 54.15 52.25 Q55.05 50.8 54.6 50.1 L53.45 51.6 52.9 49.35 49.35 47.25 48.45 51.5 Q48.25 49.55 48.5 48.6 49.2 45.9 51.9 46.5 M77.45 8.4 Q78.95 5.8 80.3 5.35 L77.45 8.4 Q76.15 10.55 75.35 13.15 74.5 15.8 74.7 17.1 76.6 16.95 79.4 15.15 82.4 13.25 83.65 12.95 L82.85 14.6 80.2 16.45 80.1 17.1 Q77.95 18.35 76.65 21.55 75.4 24.6 75.8 27.1 79.95 28.0 86.4 26.35 93.4 24.25 96.55 23.7 90.15 26.6 81.55 34.15 80.1 35.45 75.55 38.75 71.9 42.0 72.5 44.6 77.55 46.25 83.6 46.8 L95.15 47.15 Q93.5 47.6 90.95 48.8 L86.8 50.65 82.95 52.15 Q80.55 53.3 80.15 54.6 81.4 54.9 83.65 56.4 85.9 57.9 86.75 58.15 85.1 58.25 82.4 59.0 L78.25 59.95 Q78.05 60.95 78.25 61.6 L83.05 65.5 87.95 69.65 93.45 72.95 Q97.05 75.0 98.5 76.6 L84.85 75.3 Q75.7 75.0 76.0 80.9 76.3 86.0 83.35 89.4 L94.45 94.15 Q92.35 94.95 85.05 95.4 78.6 96.3 77.75 99.6 L74.35 99.6 75.05 80.3 71.9 79.25 67.65 77.3 68.65 77.25 68.9 74.75 69.45 74.75 69.95 74.6 70.95 69.05 71.55 63.45 70.6 63.25 69.75 63.4 67.6 63.15 61.15 55.05 58.4 55.65 56.0 55.65 56.1 55.4 Q56.8 52.9 56.45 50.35 56.25 48.55 55.3 45.85 L53.4 45.6 51.45 45.4 Q49.9 44.9 48.85 43.5 47.85 42.2 47.65 40.75 47.5 39.5 47.6 37.35 L48.05 26.7 47.7 26.6 47.2 26.5 47.3 22.0 45.8 21.45 Q44.9 21.2 44.35 21.8 L42.0 21.7 42.0 20.55 41.95 19.35 37.95 19.15 Q37.75 20.0 37.85 21.55 36.95 21.35 36.3 22.2 35.65 23.05 35.75 24.15 L36.15 24.4 36.65 24.6 36.75 25.05 Q36.75 25.35 37.1 25.35 L36.85 49.35 36.7 49.6 36.5 49.8 36.55 63.7 35.6 64.6 Q35.1 65.2 35.25 65.8 L36.5 66.3 36.6 67.6 36.7 68.95 37.5 69.8 Q37.95 70.25 37.9 70.75 37.15 72.6 38.65 72.6 39.85 72.55 41.2 71.7 L41.0 71.5 42.8 72.05 Q43.8 72.45 44.35 73.1 L44.85 74.2 Q45.1 75.05 45.3 75.15 L46.05 75.2 Q46.5 75.05 46.75 74.7 L47.85 75.9 48.7 82.2 48.3 93.9 49.5 99.6 29.0 99.6 Q29.45 97.05 28.8 95.45 L25.05 95.8 21.3 96.85 17.05 97.7 Q19.75 96.2 21.55 92.85 23.1 90.1 23.65 86.9 24.05 84.4 22.15 84.1 20.95 83.9 17.55 84.15 L12.65 83.95 7.8 83.6 Q14.25 80.6 18.35 76.1 L22.1 71.85 Q24.5 68.75 24.65 66.9 24.8 64.8 21.6 61.95 19.4 60.05 16.2 58.2 14.55 57.25 10.7 55.55 7.1 54.0 5.3 52.85 3.35 51.55 2.55 50.45 3.75 50.2 5.4 51.15 6.3 51.65 8.0 52.7 10.95 54.1 14.3 54.65 23.75 56.0 28.8 54.1 L28.6 53.2 Q28.4 52.9 27.8 52.6 24.8 45.35 19.8 41.1 L13.6 36.6 Q9.7 33.75 8.55 31.45 10.9 31.3 15.0 33.3 19.35 35.35 21.45 35.4 26.75 35.6 26.35 28.9 26.25 26.25 24.85 22.65 L22.3 16.7 18.25 6.85 Q22.3 11.2 25.95 13.7 31.65 17.7 35.65 16.6 37.25 14.6 37.7 10.5 L37.9 3.7 Q38.6 4.9 40.1 9.55 41.7 13.6 43.9 13.6 L45.85 7.05 Q46.8 3.4 47.2 0.45 L50.95 0.45 Q51.6 3.2 52.8 5.25 L52.85 5.55 Q52.95 6.6 53.65 7.15 54.35 7.7 55.4 7.5 L55.75 7.4 Q57.45 7.8 58.65 7.1 60.05 6.3 60.3 4.3 L60.75 3.8 61.0 6.15 Q61.2 8.1 62.35 10.4 L64.55 14.35 Q67.95 15.3 70.15 14.85 72.55 14.3 74.45 11.9 L77.45 8.4"/></g></defs><g><g><use transform="matrix(1.0,0.0,0.0,1.0,0.0,0.0)" xlink:href="#c1"/></g></g></svg>