<?xml version='1.0' encoding='UTF-8'?>
<svg xmlns="http://www.w3.org/2000/svg" xmlns:xlink="http://www.w3.org/1999/xlink" version="1.1" width="99px" height="100px" viewBox="0.85 0.0 99.25 100.0"><defs><g id="c1"><path fill="#ffffff" stroke="none" d="M52.05 17.6 Q46.7 17.2 42.2 19.6 37.6 22.0 34.95 26.6 33.65 28.95 33.1 31.25 L32.65 33.7 32.6 36.2 Q32.7 41.2 35.25 45.5 37.7 49.75 41.95 52.25 46.15 54.75 50.8 54.75 46.3 53.85 42.7 51.1 39.2 48.4 37.35 44.4 35.5 40.35 35.7 36.2 L35.9 34.1 Q36.05 33.05 36.35 32.1 37.0 30.0 38.05 28.45 40.25 25.0 44.0 23.1 47.7 21.25 51.75 21.55 55.85 21.85 58.95 24.5 62.1 27.1 63.1 31.05 64.1 35.25 62.6 38.75 60.95 42.6 57.3 44.35 53.5 46.2 49.55 45.2 45.55 44.1 43.5 40.4 42.5 38.65 42.25 36.6 42.0 34.55 42.6 32.6 43.25 30.65 44.7 29.15 46.2 27.6 48.15 26.85 50.15 26.1 52.3 26.3 54.5 26.55 56.25 27.75 58.1 29.0 59.1 31.05 60.15 33.15 60.0 35.4 60.4 33.1 59.55 30.85 58.65 28.55 56.8 27.05 55.0 25.45 52.45 25.0 L47.6 25.3 Q45.2 26.0 43.3 27.7 41.4 29.5 40.5 31.85 39.6 34.2 39.75 36.8 39.9 39.4 41.05 41.7 42.15 44.0 44.2 45.7 46.2 47.4 48.7 48.2 53.9 49.75 58.75 47.45 63.7 45.25 65.95 40.25 68.15 35.5 66.85 30.15 65.5 24.9 61.5 21.5 57.35 18.0 52.05 17.6 M60.95 15.15 Q67.25 17.55 70.5 22.75 73.5 27.55 73.2 34.9 73.05 38.55 72.3 41.25 L72.3 42.5 Q74.0 40.5 74.85 40.4 75.35 40.3 75.45 41.35 L75.7 43.15 Q76.0 43.8 74.85 46.9 L73.35 50.9 72.6 53.8 Q72.0 55.6 71.35 55.8 70.25 56.15 70.15 54.2 L69.4 58.15 Q68.5 62.5 67.6 64.35 66.5 66.8 61.6 74.15 56.55 81.8 55.35 82.55 54.0 83.35 50.1 83.35 46.1 83.35 44.6 82.35 43.25 81.4 38.2 73.4 33.65 66.15 32.05 62.95 31.0 60.85 30.5 57.95 L30.25 55.5 29.7 55.5 28.55 55.3 Q28.1 55.1 27.9 54.15 L27.7 52.2 26.85 49.6 25.55 47.0 Q24.85 45.85 24.85 43.75 24.85 41.5 25.75 40.7 26.55 40.0 27.85 41.55 L28.95 43.25 Q27.8 36.15 28.1 30.8 28.5 25.0 32.95 20.05 39.05 13.3 50.15 13.3 56.1 13.3 60.95 15.15 M45.4 72.85 L44.45 72.7 46.4 75.2 46.8 75.95 47.05 76.75 44.75 75.55 43.15 74.8 42.05 74.35 42.85 76.05 Q43.85 77.85 44.65 78.65 46.45 80.4 49.85 80.4 51.25 80.4 52.45 79.8 L54.45 78.6 Q55.35 78.1 56.45 76.25 L57.35 74.45 52.55 76.95 53.4 75.3 Q53.45 75.0 54.25 74.0 L55.0 73.05 53.0 73.95 50.85 74.65 49.1 74.55 Q48.05 74.25 47.15 73.6 46.45 73.1 45.4 72.85 M65.5 59.65 L63.1 60.5 59.3 61.55 53.2 61.9 54.8 63.95 Q56.95 65.85 59.7 65.35 62.45 64.9 64.25 62.2 L65.5 59.65 M19.25 88.1 Q20.5 85.15 27.25 78.6 L33.7 72.7 Q36.1 76.75 39.85 81.75 43.45 86.55 44.6 87.35 46.1 88.35 50.1 88.35 54.0 88.35 55.35 87.55 56.3 87.0 59.5 82.95 62.95 78.7 65.25 75.05 68.1 77.3 75.6 84.5 78.7 87.35 82.95 100.0 L16.4 100.0 Q17.9 91.2 19.25 88.1 M40.0 61.5 Q38.05 61.3 33.75 59.65 L35.0 62.25 Q36.8 64.9 39.55 65.4 42.35 65.85 44.5 63.95 L46.1 61.9 43.8 61.8 40.0 61.5"/><path fill="#ffffff" fill-opacity="0.8" d="M87.85 37.75 Q87.85 48.0 82.55 56.75 77.45 65.25 68.75 70.05 70.5 66.9 72.25 61.45 77.25 56.95 80.0 50.95 82.85 44.65 82.85 37.75 82.85 24.55 73.5 15.2 64.15 5.85 51.0 5.85 37.8 5.85 28.45 15.2 19.1 24.55 19.1 37.75 19.1 44.0 21.45 49.7 23.7 55.25 27.8 59.6 L27.75 60.25 Q27.75 61.5 28.95 64.2 L30.85 68.6 Q23.15 63.6 18.7 55.55 14.1 47.25 14.1 37.75 14.1 22.5 24.9 11.65 35.75 0.85 51.0 0.85 66.25 0.85 77.05 11.65 87.85 22.5 87.85 37.75 M96.1 37.75 Q96.1 26.15 90.5 16.0 85.05 6.2 75.7 0.0 L83.45 0.0 83.95 0.05 Q90.15 5.45 94.25 12.5 98.45 19.7 100.1 27.85 L100.1 47.65 Q97.95 58.3 91.55 67.15 85.2 75.85 75.9 81.2 L72.0 77.65 Q82.9 71.9 89.4 61.35 96.1 50.5 96.1 37.75 M5.5 16.7 Q10.0 7.05 18.05 0.0 L26.25 0.0 Q16.9 6.2 11.45 16.0 5.85 26.15 5.85 37.75 5.85 49.4 11.45 59.55 16.9 69.35 26.35 75.55 L25.75 76.0 Q24.3 77.15 22.8 79.15 12.7 72.25 6.85 61.55 0.85 50.45 0.85 37.75 0.85 26.65 5.5 16.7"/></g></defs><g><g><use transform="matrix(1.0,0.0,0.0,1.0,0.0,0.0)" xlink:href="#c1"/></g></g></svg>