<?xml version='1.0' encoding='UTF-8'?>
<svg xmlns="http://www.w3.org/2000/svg" xmlns:xlink="http://www.w3.org/1999/xlink" version="1.1" width="86px" height="93px" viewBox="7.65 6.5 85.69999999999999 93.0"><defs><g id="c1"><path fill="#ffffff" stroke="none" d="M60.9 87.75 L49.7 71.5 38.5 87.75 60.9 87.75 M7.65 36.65 L23.85 47.85 7.65 59.1 7.65 36.65 M61.5 6.5 L50.3 22.75 39.1 6.5 61.5 6.5 M57.0 32.95 Q57.5 33.95 58.0 36.55 58.5 39.4 58.2 40.25 60.05 40.2 58.95 44.0 L57.55 48.5 Q57.65 49.05 58.0 49.4 L58.75 50.05 59.7 51.85 Q60.4 53.5 62.0 53.8 L65.1 54.05 Q69.4 54.65 72.25 57.15 73.65 58.35 74.2 62.0 L74.95 64.8 75.55 67.6 Q75.85 70.55 76.9 76.3 L77.65 78.75 78.65 81.2 80.8 87.6 81.15 89.8 Q81.7 97.2 81.65 99.5 L68.7 99.5 68.55 96.95 68.7 94.85 Q68.8 93.65 68.55 92.8 L68.3 90.7 68.05 88.55 67.55 87.6 Q66.95 86.65 66.05 87.7 65.15 88.75 65.4 90.0 65.85 92.4 65.75 94.8 L65.2 99.5 35.25 99.5 35.05 94.75 Q35.0 92.05 35.4 90.0 35.65 88.75 34.75 87.7 33.85 86.65 33.25 87.6 L32.85 88.35 32.6 88.05 Q32.5 89.25 33.05 91.6 33.3 93.6 32.95 97.7 L33.05 99.5 21.5 99.5 21.1 96.5 Q20.85 94.55 21.0 91.75 L21.15 86.95 21.45 84.8 22.95 79.3 23.9 76.3 25.25 67.6 Q25.4 66.55 25.9 64.8 L26.6 62.0 Q27.3 58.25 28.6 57.15 31.45 54.65 35.7 54.05 L38.8 53.8 Q40.45 53.5 41.15 51.85 41.6 50.6 42.05 50.05 L42.8 49.4 Q43.2 49.05 43.25 48.5 L41.85 44.0 Q40.8 40.2 42.65 40.25 42.3 39.4 42.85 36.55 43.3 34.0 43.8 32.95 44.7 31.1 46.6 30.15 48.3 29.3 50.4 29.45 52.5 29.3 54.25 30.15 56.1 31.05 57.0 32.95 M93.35 37.65 L93.35 60.1 77.15 48.85 93.35 37.65"/></g></defs><g><g><use transform="matrix(1.0,0.0,0.0,1.0,0.0,0.0)" xlink:href="#c1"/></g></g></svg>