<?xml version='1.0' encoding='UTF-8'?>
<svg xmlns="http://www.w3.org/2000/svg" xmlns:xlink="http://www.w3.org/1999/xlink" version="1.1" width="100px" height="95px" viewBox="0.5 4.1 100.0 95.35000000000001"><defs><g id="c1"><path fill="#ffffff" stroke="none" d="M85.6 44.3 L85.9 46.5 93.9 41.55 90.8 47.45 100.5 47.9 100.5 50.15 92.1 54.05 97.9 55.95 88.2 55.8 89.15 58.4 84.55 54.55 87.05 54.45 84.8 53.3 93.05 50.3 84.4 50.7 86.15 48.55 83.3 49.95 85.6 44.3 M81.95 52.45 L81.9 52.55 81.7 52.5 81.7 52.65 82.3 52.45 81.95 52.45 M82.5 51.75 L82.8 53.35 81.9 53.6 82.1 54.55 82.35 55.05 82.3 55.7 80.5 56.1 80.5 56.45 77.7 57.0 74.95 57.6 74.0 58.3 Q73.55 58.85 73.5 59.5 L73.6 60.3 73.7 61.05 Q71.7 62.3 70.0 62.25 L69.2 62.2 Q68.35 62.25 68.15 63.95 L67.9 66.3 68.05 67.4 68.15 68.35 68.3 69.05 63.75 69.45 63.65 69.05 62.6 69.2 62.4 67.7 60.85 67.7 Q59.1 68.05 55.2 69.8 L49.45 72.05 Q47.2 73.15 46.55 73.0 L45.75 72.55 Q47.8 67.3 45.2 64.6 44.35 63.75 42.95 63.3 L41.0 63.05 38.7 62.85 38.35 62.65 37.75 62.75 36.25 62.5 36.3 60.5 36.6 57.95 Q35.9 57.85 34.6 58.45 L32.9 58.75 Q32.0 59.2 30.2 60.4 L29.45 61.1 28.3 61.0 22.0 61.85 15.75 62.75 15.35 62.4 14.55 63.05 14.1 63.2 14.75 61.2 Q14.5 59.5 15.9 58.6 L15.95 58.6 16.75 56.1 16.85 54.85 16.8 53.6 Q16.8 52.55 17.15 51.15 L17.8 48.65 18.35 46.4 Q18.7 45.35 19.5 44.45 L21.25 42.55 23.0 42.4 Q21.0 40.3 19.75 39.5 19.0 38.9 18.8 38.3 L17.1 36.7 17.75 34.8 Q18.05 33.65 18.65 33.1 19.25 32.6 20.55 31.9 L22.4 30.85 23.15 29.95 23.7 28.95 25.15 27.65 Q27.3 25.7 27.9 24.3 L30.15 24.2 32.5 24.4 Q33.0 23.5 34.7 23.15 35.25 22.55 37.1 21.95 L39.8 21.05 Q39.85 20.6 40.25 19.85 L40.65 18.65 Q43.55 17.85 47.4 16.0 L50.7 14.45 52.1 13.65 53.0 13.75 53.9 14.0 54.1 15.9 54.1 17.75 Q54.0 18.5 53.25 18.85 L51.8 19.4 48.9 20.65 47.35 21.05 Q46.3 21.25 45.85 21.55 45.95 22.6 44.9 23.2 L42.85 23.65 43.05 25.15 42.3 25.4 41.95 26.2 41.4 26.95 Q41.15 27.6 41.05 29.05 L38.9 29.55 36.75 29.45 Q36.65 28.9 36.8 28.45 L35.3 29.1 Q34.45 29.45 33.9 29.85 33.75 30.1 33.75 30.5 L34.5 31.8 Q34.25 32.0 34.15 32.35 L30.55 34.05 28.5 34.7 Q27.1 35.1 26.45 35.4 L28.4 36.7 Q33.0 37.1 35.95 39.85 36.95 40.85 37.05 42.5 L37.25 42.55 37.05 43.15 Q36.95 44.5 36.15 45.5 35.35 46.6 34.05 46.8 29.5 47.5 26.0 45.15 L24.9 44.3 Q25.95 46.4 27.45 47.25 28.75 48.0 30.25 48.2 L33.3 48.3 35.8 48.1 Q37.25 47.7 37.4 46.5 L37.1 45.25 Q36.8 44.4 37.1 44.0 L37.9 43.45 Q38.25 43.35 38.4 42.55 L38.5 41.45 Q39.15 41.4 40.4 40.35 41.55 39.4 42.4 39.55 41.65 41.45 41.8 42.55 41.95 43.6 41.3 45.55 40.55 47.55 40.5 48.5 40.4 50.4 41.05 52.05 L43.0 53.15 Q42.9 53.6 43.25 54.5 44.05 54.6 44.25 55.6 L44.45 57.25 44.35 57.35 44.4 57.5 44.45 57.75 44.45 57.85 49.5 64.4 50.5 64.45 52.1 64.15 55.45 64.0 62.05 62.45 62.3 60.8 62.85 60.55 Q62.6 60.35 62.15 60.3 L61.65 60.4 Q61.15 60.3 61.25 59.85 L62.0 59.3 62.25 58.5 62.3 57.8 62.25 57.95 Q61.8 57.5 61.7 57.05 61.5 56.4 62.3 56.55 L62.65 56.3 62.9 55.9 63.9 55.6 64.0 55.05 64.5 55.05 64.95 55.35 70.4 54.05 Q70.45 54.2 70.6 54.15 L80.0 52.0 Q79.95 51.85 80.1 51.85 L80.25 51.8 80.35 51.35 81.15 51.4 81.6 51.95 82.5 51.75 M75.45 7.25 L72.4 8.9 69.45 10.35 74.35 10.15 79.25 10.05 Q75.65 10.35 69.1 12.8 L65.8 14.0 Q63.8 14.65 62.4 14.7 63.75 15.95 64.6 16.1 L57.9 16.8 59.15 14.2 58.55 14.2 Q60.4 13.0 61.65 11.45 59.35 11.65 56.3 13.45 56.45 12.5 57.65 10.45 57.0 10.3 55.9 11.0 54.8 11.75 54.15 11.7 L54.3 11.3 56.5 9.55 58.7 7.65 61.3 5.9 63.7 4.1 63.4 5.2 Q66.55 5.9 71.55 5.2 L77.45 4.7 83.25 4.1 Q82.1 4.75 79.45 5.65 76.7 6.6 75.45 7.25 M49.55 42.95 L49.55 43.05 48.75 44.0 50.25 44.55 51.65 45.5 52.45 45.9 53.2 46.35 54.2 46.0 55.1 45.15 54.3 45.35 53.8 44.95 52.95 43.45 52.5 42.65 51.8 42.15 Q50.65 42.05 49.55 42.95 M55.15 35.8 L56.6 36.95 Q56.85 37.6 57.9 38.5 L59.4 39.9 58.05 39.8 56.65 39.65 Q57.5 39.75 58.25 40.8 L59.4 42.45 56.4 41.8 56.05 44.75 55.65 47.7 55.25 48.1 Q54.3 48.45 53.35 49.5 52.45 50.55 52.2 51.45 51.5 51.95 50.2 54.1 48.8 55.85 47.1 54.8 46.45 54.4 45.1 52.2 43.95 50.35 42.3 50.1 42.3 47.5 41.75 45.85 L43.35 45.6 44.45 44.5 Q45.2 43.25 45.1 41.55 L43.35 41.95 42.95 41.4 Q43.5 41.1 43.6 39.75 43.65 38.1 43.8 37.8 44.4 36.45 46.7 35.9 52.65 34.4 55.15 35.8 M29.5 73.0 L26.9 73.1 24.1 73.55 19.1 74.15 16.55 74.65 14.05 74.95 Q13.0 75.0 12.2 73.85 11.65 73.0 11.4 71.75 10.8 69.25 12.0 67.45 13.5 65.3 14.6 64.7 L14.6 64.9 Q20.05 63.4 26.3 63.0 28.35 62.9 31.65 63.7 L36.95 64.7 40.7 64.9 42.5 65.2 43.0 65.85 43.35 66.45 Q43.4 67.45 44.55 69.75 43.9 70.25 43.0 71.45 L41.6 73.3 Q40.7 74.25 38.05 75.85 L34.4 78.45 Q32.1 80.0 30.85 81.05 27.6 83.9 25.95 85.8 L23.85 88.35 22.65 89.8 Q21.9 90.7 21.75 91.35 21.25 91.65 21.1 92.2 L17.65 92.35 15.9 92.15 14.15 91.9 15.6 88.35 15.8 87.45 Q15.95 86.95 16.25 86.6 L17.8 85.6 20.7 83.4 Q22.75 81.65 23.0 80.75 23.65 80.4 24.3 79.35 L25.25 77.75 26.45 76.15 27.55 74.55 27.85 74.5 Q28.05 74.1 28.6 73.65 L29.5 73.0 M12.55 95.6 L13.3 94.35 14.2 93.2 15.3 92.95 19.55 93.7 Q20.7 93.95 21.2 94.35 L22.3 95.8 23.5 97.35 25.15 98.35 25.65 98.55 27.55 95.15 28.75 93.0 Q29.4 92.05 30.65 91.4 31.7 90.8 33.15 90.55 L34.35 90.4 35.45 90.0 Q34.75 88.85 33.4 87.6 L32.05 86.15 30.55 84.95 Q30.8 84.3 31.8 83.35 L33.3 81.9 34.55 80.25 Q35.35 79.2 35.95 78.85 L36.4 79.3 Q37.3 79.85 38.4 81.25 L40.25 83.5 41.75 85.55 Q42.7 86.8 43.55 87.15 43.8 88.35 43.7 89.65 43.6 91.25 43.05 91.95 L41.5 93.45 40.05 94.9 39.25 95.65 38.45 96.55 35.75 99.45 17.75 99.45 14.5 99.25 13.65 99.1 10.4 98.15 12.55 95.6 M71.95 61.15 L71.4 61.25 70.75 61.55 69.8 61.9 70.9 61.85 72.4 61.3 Q73.1 60.8 73.1 59.75 73.1 58.65 71.95 58.65 L70.4 58.95 70.35 59.45 72.25 59.35 Q72.7 60.35 71.75 61.05 L71.95 61.15 M68.95 59.65 L69.55 59.6 69.5 59.25 68.95 59.65"/><path fill="#ffffff" fill-opacity="0.8" d="M0.5 31.8 L0.5 24.0 40.9 10.95 21.75 20.95 0.5 31.8 M13.95 32.95 Q13.1 34.6 12.7 36.15 12.2 38.7 14.1 40.05 L17.5 42.85 0.5 52.0 0.5 38.95 13.95 32.95 M0.55 16.65 Q0.7 11.45 2.85 7.75 L30.05 4.95 0.55 16.65 M14.0 83.4 L11.25 86.0 Q9.7 87.5 9.1 88.85 L3.05 92.1 Q0.5 88.05 0.5 82.3 L0.5 80.7 10.45 76.25 Q12.5 78.8 18.4 78.5 L19.45 78.45 Q16.5 80.65 14.7 82.9 14.25 83.1 14.0 83.4 M12.05 52.2 L12.25 53.4 11.9 57.0 Q11.7 58.6 10.65 61.15 L9.25 65.3 0.5 70.0 0.5 57.35 12.05 52.2 M47.65 84.45 L88.4 73.8 42.55 98.05 47.55 90.95 47.05 85.7 47.65 84.45 M69.45 99.45 L51.5 99.45 93.05 86.7 69.45 99.45"/></g></defs><g><g><use transform="matrix(1.0,0.0,0.0,1.0,0.0,0.0)" xlink:href="#c1"/></g></g></svg>