<?xml version='1.0' encoding='UTF-8'?>
<svg xmlns="http://www.w3.org/2000/svg" xmlns:xlink="http://www.w3.org/1999/xlink" version="1.1" width="89px" height="79px" viewBox="-0.2 10.45 89.4 79.14999999999999"><defs><g id="c1"><path fill="#ffffff" stroke="none" d="M52.8 53.25 Q51.8 51.3 50.8 50.55 49.7 49.8 47.65 49.65 45.4 49.45 44.05 50.4 42.85 51.3 42.75 52.8 42.65 54.15 43.35 55.35 44.0 56.45 45.2 57.0 L47.5 57.4 Q48.65 57.5 48.45 57.9 48.1 58.75 46.25 59.45 48.95 60.25 50.45 59.45 51.85 58.65 52.65 57.0 53.65 55.0 52.8 53.25 M42.65 35.15 L42.95 28.05 25.05 28.05 25.25 33.3 28.5 32.8 28.85 35.15 42.65 35.15 M-0.2 66.8 L-0.2 56.1 2.4 56.25 Q2.8 55.85 3.3 55.8 5.15 55.5 7.5 55.8 L8.9 56.05 9.65 54.5 10.35 54.0 Q9.65 51.85 9.5 50.7 9.35 48.85 10.1 47.35 11.0 45.65 13.3 45.1 L12.45 44.2 12.15 44.1 12.0 44.0 10.0 43.75 10.05 42.15 6.9 39.25 8.4 36.35 8.35 36.05 12.95 36.05 13.45 34.9 12.75 33.5 14.15 30.6 14.15 28.15 10.0 28.05 Q9.75 28.0 6.2 29.95 L2.7 31.9 0.0 31.85 0.0 18.5 Q0.0 16.15 0.4 13.85 L2.7 13.8 10.1 17.85 14.35 17.95 14.15 16.7 24.95 16.7 24.85 18.25 27.4 18.25 27.5 17.1 29.6 17.1 29.5 16.2 28.5 16.2 28.5 11.25 29.6 10.45 37.6 10.45 39.0 10.95 39.0 16.0 37.9 16.1 37.8 17.0 39.8 17.1 40.3 17.95 42.75 18.25 42.95 16.4 53.75 16.4 53.65 17.85 54.8 17.85 56.2 17.2 58.0 17.2 59.55 16.6 63.4 16.7 67.95 13.25 78.75 13.25 78.55 32.8 68.35 32.8 63.5 29.15 59.25 29.25 58.0 28.55 56.1 28.65 55.1 27.95 53.55 28.15 53.6 35.15 85.35 35.15 85.6 32.7 88.4 33.65 88.85 35.4 89.2 42.85 88.3 43.1 87.8 48.25 69.7 48.25 69.35 49.85 59.3 49.85 57.65 49.65 Q55.9 49.65 55.25 50.8 54.2 52.65 54.3 53.7 L54.5 56.25 Q54.45 59.0 53.15 59.8 51.05 61.05 47.65 62.0 L47.3 69.15 40.65 71.6 39.95 77.55 36.3 80.7 38.2 86.4 21.3 89.6 5.1 85.3 0.05 85.1 0.0 66.8 -0.2 66.8"/></g></defs><g><g><use transform="matrix(1.0,0.0,0.0,1.0,0.0,0.0)" xlink:href="#c1"/></g></g></svg>