<?xml version='1.0' encoding='UTF-8'?>
<svg xmlns="http://www.w3.org/2000/svg" xmlns:xlink="http://www.w3.org/1999/xlink" version="1.1" width="84px" height="90px" viewBox="0.75 4.65 84.4 90.0"><defs><g id="c1"><path fill="#ffffff" stroke="none" d="M47.6 82.0 Q47.6 82.3 47.75 82.3 L48.2 82.25 47.95 82.0 47.6 82.0 M47.35 81.85 L46.9 81.95 Q46.7 79.0 46.9 77.55 L43.8 77.85 42.9 83.05 45.9 82.75 46.5 82.45 46.5 82.65 46.65 82.35 46.75 82.3 46.95 82.4 46.9 82.6 47.2 82.45 47.55 82.5 47.5 81.9 47.3 82.05 47.35 81.85 M41.7 83.4 Q41.55 83.1 41.2 83.05 41.3 83.65 41.65 84.0 L41.7 83.4 M42.5 81.25 L42.55 80.8 Q42.35 80.75 42.3 81.05 L42.5 81.25 M42.3 81.7 L42.05 81.7 41.9 81.6 42.1 81.35 42.15 80.9 41.95 81.1 41.75 81.3 41.65 80.9 41.6 80.5 Q41.35 80.65 41.45 80.95 L41.65 81.45 Q41.4 82.3 41.9 82.95 L42.3 81.7 M42.65 79.15 Q42.3 79.2 42.3 79.35 L43.0 79.3 Q43.0 79.1 42.65 79.15 M55.55 86.45 L55.15 86.4 55.25 86.75 55.45 86.75 55.55 86.45 M42.85 69.35 L42.9 69.0 42.7 69.0 Q42.6 69.05 42.65 69.2 L42.85 69.35 M43.25 70.0 L43.05 70.5 42.85 71.05 43.15 71.15 43.25 71.35 Q43.5 71.0 43.25 70.0 M43.25 63.75 L43.15 63.9 44.15 63.55 43.8 63.55 43.3 63.55 43.25 63.75 M43.2 67.7 L42.95 67.25 43.1 68.65 43.4 69.8 Q43.85 69.7 43.65 68.95 L43.45 69.0 43.3 69.1 43.35 68.35 43.3 67.85 43.15 68.3 43.2 67.7 M46.65 64.35 L46.25 64.4 Q45.45 64.4 44.85 65.0 44.25 65.6 44.25 66.4 44.25 67.0 44.6 67.5 L44.95 69.45 44.85 69.65 44.75 69.8 45.0 69.75 45.5 70.95 Q46.1 71.3 48.8 69.95 L48.8 70.05 49.3 69.95 49.3 69.8 49.6 69.75 49.6 70.0 49.85 69.85 50.05 69.65 50.0 69.05 49.2 69.1 49.3 69.65 49.05 69.35 49.05 68.3 49.55 68.4 50.0 68.6 50.05 67.8 Q49.8 67.6 49.6 67.8 L49.15 67.9 49.3 67.85 49.25 67.6 49.05 67.7 49.05 67.4 Q49.9 66.3 49.25 65.15 L48.1 64.25 46.65 64.35 M58.6 50.6 Q58.65 50.3 58.35 50.35 58.0 50.35 58.05 50.55 L58.6 50.6 M73.0 64.6 L72.8 64.75 72.75 65.0 73.0 64.6 M77.4 65.9 L77.3 65.65 76.85 65.75 77.05 65.95 77.4 65.9 M70.1 65.3 Q69.8 65.4 69.8 65.15 69.85 64.9 69.65 64.95 L69.6 65.4 69.85 65.45 70.1 65.3 M39.6 92.2 L39.75 92.35 39.75 91.95 39.9 91.85 Q39.8 92.3 40.2 92.15 L40.0 91.6 40.1 91.5 40.35 91.4 40.3 91.6 40.65 91.45 Q40.75 91.25 40.95 91.3 41.2 90.8 40.95 90.45 L40.5 90.5 Q40.95 89.1 40.55 87.6 40.25 86.45 39.15 86.2 36.2 85.65 34.95 87.55 34.55 88.25 34.45 89.3 L34.45 91.15 Q34.45 92.0 35.05 92.55 35.65 93.15 36.45 93.15 L37.05 93.25 Q38.55 93.3 39.6 92.2 M25.55 93.1 L25.6 92.9 25.55 92.65 25.15 92.75 Q25.15 93.2 25.55 93.1 M22.85 93.45 L22.95 93.2 Q22.8 93.15 22.7 93.35 L22.55 93.4 22.85 93.45 M24.55 93.1 L24.9 93.4 24.95 92.8 Q24.3 93.0 24.05 92.8 L23.9 92.9 23.9 93.45 24.5 93.4 24.55 93.1 M23.1 89.0 Q22.85 89.65 23.2 89.55 L23.25 89.2 23.1 89.0 M28.95 92.65 L28.9 92.5 28.8 92.35 28.2 92.5 Q27.8 92.6 27.7 92.8 L26.3 92.85 26.3 93.2 26.4 93.45 26.45 93.4 26.6 93.45 26.8 93.15 Q26.8 93.45 27.15 93.4 27.05 93.05 27.25 93.05 L27.4 93.1 27.55 93.1 27.45 93.15 27.5 93.25 28.85 93.25 30.05 93.25 29.9 92.4 29.3 92.4 Q29.05 92.4 28.95 92.65 M29.45 86.95 Q28.75 87.25 28.35 87.9 L28.15 87.95 Q27.35 88.2 26.95 88.9 26.55 89.65 26.75 90.45 27.0 91.25 27.7 91.65 L29.2 91.8 29.45 91.75 29.5 91.75 29.55 91.8 30.05 91.95 30.25 91.95 30.25 92.8 Q31.2 93.05 31.55 92.25 L32.3 92.1 32.15 92.7 Q32.0 93.05 32.15 93.3 L32.3 92.1 Q33.35 91.75 33.5 90.8 33.9 88.45 32.75 87.35 31.4 86.05 29.45 86.95 M29.35 84.3 L29.15 84.1 29.2 84.05 29.0 84.3 28.6 84.35 28.95 84.6 29.25 84.85 Q29.15 84.4 29.45 84.6 L29.45 84.45 29.35 84.3 M26.1 84.5 Q26.1 84.85 26.25 85.0 L26.25 84.65 26.1 84.5 M26.9 84.8 L27.2 84.5 26.9 84.6 26.6 84.4 Q26.35 84.55 26.4 84.75 L26.9 84.8 M23.25 84.55 Q23.1 85.4 23.25 85.6 L23.4 85.05 23.25 84.55 M23.75 85.35 L23.95 85.4 23.95 84.95 Q23.75 84.95 23.75 85.35 M33.3 84.8 L33.65 84.8 Q33.55 84.3 33.9 82.6 34.25 81.05 33.9 80.3 L33.75 82.65 33.3 84.8 M34.6 81.4 Q34.55 81.7 34.75 81.65 L34.9 81.4 34.8 81.15 Q34.65 81.05 34.6 81.4 M33.5 78.85 Q32.9 77.4 31.55 77.4 L28.7 77.5 Q27.85 77.6 27.3 78.15 26.7 78.65 26.7 79.5 26.7 80.25 27.3 80.95 27.05 81.45 27.05 81.9 27.05 82.7 27.65 83.3 28.25 83.95 29.05 83.9 L30.35 83.85 31.6 83.7 31.6 84.0 31.4 84.05 31.25 84.1 31.5 84.6 31.6 84.2 32.0 84.25 Q32.25 84.1 32.45 84.25 L32.65 84.05 Q32.7 83.85 32.95 83.9 L33.1 82.95 Q34.5 81.6 33.5 78.85 M37.9 78.8 L35.45 79.5 35.2 81.45 Q35.0 82.7 35.35 83.05 35.75 83.5 37.25 83.45 L39.35 83.25 39.2 83.3 38.45 83.4 38.2 83.95 Q38.05 84.3 38.35 84.4 L38.45 84.2 38.65 84.4 38.7 84.05 38.85 83.85 Q38.85 84.1 39.05 84.15 L39.15 83.6 39.4 83.75 39.4 84.1 40.0 84.0 40.0 83.8 40.5 84.0 40.55 83.5 40.6 83.0 Q40.7 83.5 40.85 83.45 L40.95 83.05 40.3 82.95 40.35 83.2 40.25 83.3 39.8 83.4 Q39.65 83.15 39.35 83.25 L39.6 82.95 40.15 80.85 Q40.5 79.1 40.25 78.8 39.75 78.2 37.9 78.8 M36.2 68.85 Q36.6 68.9 36.5 68.6 L36.2 68.35 36.2 68.85 M34.4 71.2 L34.5 71.65 34.7 70.9 34.4 71.2 M35.05 69.6 Q35.25 69.0 35.0 68.7 34.65 70.05 34.75 70.6 L35.05 69.6 M35.35 66.65 L35.1 67.5 35.2 68.3 35.35 66.65 M33.55 66.15 L33.45 66.4 33.2 66.4 33.1 66.1 32.95 71.15 Q33.5 71.1 33.65 70.5 L33.85 69.6 33.9 69.8 34.05 69.9 Q33.95 69.45 34.5 69.35 L34.6 69.2 34.25 68.3 Q34.1 67.9 34.6 67.7 34.9 66.55 34.45 66.1 L33.8 66.8 33.55 66.15 M33.55 65.95 L33.75 66.0 33.8 65.7 Q33.3 65.7 33.3 65.9 L33.55 65.95 M34.65 64.25 L35.1 64.7 35.45 65.3 Q35.2 64.05 34.65 64.25 M38.85 66.65 L37.9 66.45 Q37.5 66.55 37.45 66.8 L37.35 67.65 37.1 68.55 37.0 68.3 Q36.7 68.25 36.6 68.55 36.5 68.8 36.75 68.9 L36.85 68.8 37.0 68.8 35.9 71.9 38.65 72.0 41.2 71.65 41.6 71.3 41.7 71.35 Q42.15 71.1 41.85 71.0 42.35 70.3 42.35 69.3 L42.6 68.4 42.3 68.5 42.1 67.65 39.9 66.9 38.85 66.65 M25.25 72.25 L24.75 72.35 24.7 71.85 24.55 71.5 24.5 72.2 24.75 72.65 25.85 72.45 26.9 72.25 26.9 72.0 26.65 71.8 Q26.65 72.05 26.2 72.05 L25.6 71.95 25.25 72.25 M24.6 68.25 L24.7 68.7 24.75 68.2 24.65 67.75 Q24.55 67.85 24.6 68.25 M26.35 65.15 Q25.6 65.6 25.4 66.35 25.0 67.75 26.3 68.6 L25.85 70.0 25.7 71.0 26.25 71.65 27.25 71.9 27.4 71.9 27.85 72.0 27.9 72.0 31.0 71.9 31.15 71.75 32.1 71.75 32.25 71.55 32.5 71.85 Q32.5 71.7 32.65 71.5 L32.75 71.15 Q32.55 71.0 32.1 71.15 L31.45 71.2 31.4 71.4 Q31.7 70.55 31.55 67.9 L31.7 67.15 Q31.7 66.35 31.1 65.75 30.5 65.15 29.7 65.15 L28.6 65.15 28.4 65.1 27.85 64.95 26.35 65.15 M20.75 49.9 L21.4 49.8 21.05 49.75 Q20.75 49.7 20.75 49.9 M34.1 53.2 L34.05 53.9 33.7 53.05 34.1 53.2 M34.2 54.3 L34.3 55.6 33.9 56.55 34.2 54.3 M35.5 50.55 L35.45 50.65 35.15 50.3 Q34.75 50.3 34.5 50.65 L34.1 50.3 34.1 51.75 31.45 51.75 29.85 51.35 28.3 51.05 Q28.05 51.6 27.95 52.7 L27.85 54.45 Q27.5 57.3 27.65 58.25 L29.0 58.15 30.3 58.0 33.55 58.2 Q34.25 56.75 34.3 55.6 34.7 54.55 34.55 53.95 L34.7 54.05 34.95 53.85 35.3 53.9 35.5 52.75 35.2 52.7 Q35.2 52.15 35.35 51.8 L35.4 52.1 Q35.35 52.35 35.45 52.4 36.15 50.7 35.45 50.35 L35.5 50.55 M37.6 50.85 Q37.05 51.45 37.05 52.25 37.05 52.95 37.55 53.55 L37.2 54.35 Q36.85 55.35 36.85 57.0 37.4 57.25 37.65 58.05 L37.85 59.5 Q38.85 59.5 38.7 60.85 L38.45 62.9 Q38.75 64.2 41.95 64.85 41.95 60.45 40.9 58.25 L41.35 58.2 41.95 56.9 41.75 55.9 Q42.25 55.6 42.25 53.6 42.75 53.0 42.75 52.25 42.75 51.45 42.15 50.85 41.55 50.25 40.75 50.25 L39.0 50.25 Q38.2 50.25 37.6 50.85 M33.1 35.55 Q33.55 33.95 33.4 32.7 L27.9 32.95 Q28.55 34.7 28.35 36.4 28.25 37.7 27.45 39.65 L29.45 39.7 Q30.7 39.75 31.25 39.25 L31.8 37.8 Q32.6 37.3 33.1 35.55 M35.3 33.9 L35.1 33.75 34.9 33.65 34.5 36.25 34.75 36.2 34.95 36.1 34.9 36.3 34.9 36.55 35.15 36.05 35.05 35.5 34.9 35.7 Q34.8 35.0 35.25 34.95 L35.4 34.15 Q35.5 33.65 35.2 33.7 L35.3 33.9 M27.5 18.75 Q27.4 20.15 26.95 21.25 L30.15 21.6 33.35 21.15 32.25 19.55 Q33.25 19.7 33.7 18.2 L33.75 18.5 Q33.8 18.05 34.2 18.05 34.5 18.0 34.8 18.25 35.25 17.25 34.75 16.15 L34.15 16.4 33.95 16.05 33.85 16.5 33.8 15.7 30.65 15.55 Q28.6 15.65 27.55 16.15 L27.5 18.75 M46.65 49.2 L45.15 49.4 Q44.45 49.8 44.2 50.65 43.95 51.55 44.4 52.15 L44.7 52.5 Q44.3 53.4 44.8 54.65 L44.7 52.55 Q45.45 53.5 45.15 54.0 44.2 55.7 45.95 56.7 47.65 57.75 48.6 56.05 50.2 53.2 47.85 50.15 L46.65 49.2 M48.8 31.65 Q48.0 31.1 47.1 31.35 46.75 31.4 46.45 31.65 L44.85 31.75 Q45.55 32.8 45.7 33.9 L45.75 33.95 Q46.1 36.25 44.55 37.55 L44.85 37.55 Q44.4 38.9 45.7 39.8 47.05 40.7 48.15 39.55 49.55 38.25 49.7 36.25 49.95 35.35 49.85 33.85 L49.65 31.6 48.8 31.65 M43.15 35.2 Q43.4 34.3 42.9 32.65 42.4 30.95 42.55 30.2 L39.6 29.8 36.6 29.7 Q37.8 31.55 37.65 33.7 L37.55 35.9 Q37.35 36.85 36.5 37.45 36.4 37.55 36.45 37.8 35.6 38.15 35.9 39.65 36.1 40.65 36.7 41.75 37.3 42.75 37.45 44.05 L37.7 46.5 Q38.5 46.15 39.8 46.15 L42.0 46.15 Q42.0 44.25 41.6 42.25 L41.6 42.6 41.05 40.5 40.5 38.4 Q41.3 38.1 42.15 37.05 L43.15 35.2 M54.5 15.45 L54.2 15.4 54.15 16.0 54.35 15.8 54.45 15.75 54.4 15.6 54.5 15.45 M58.8 17.45 Q58.8 17.65 59.1 17.6 L58.85 17.1 58.8 17.45 M57.9 16.25 L57.9 16.0 57.7 16.05 57.45 16.1 57.45 15.8 57.05 15.85 56.9 16.2 56.3 16.15 56.4 16.0 56.45 15.8 Q56.2 15.65 55.9 16.2 L55.7 16.25 55.55 16.15 55.7 15.95 55.65 15.75 55.35 16.15 55.25 15.85 55.25 15.6 Q55.0 15.65 54.9 15.9 L54.6 16.2 Q54.5 16.15 54.55 16.0 L54.45 15.9 54.4 15.95 54.45 16.1 54.1 16.2 54.0 15.75 53.75 15.8 Q53.65 15.65 53.55 15.65 53.45 15.7 53.65 16.1 L53.25 16.15 53.4 15.85 Q52.75 15.95 52.65 15.55 L52.45 16.0 52.25 15.6 52.1 15.75 51.8 15.8 51.65 15.5 51.4 15.8 51.2 15.65 Q50.75 17.55 50.95 18.15 50.9 17.7 51.15 17.55 51.1 17.75 51.2 17.7 L51.3 17.7 51.25 18.2 52.85 18.15 53.25 17.95 53.8 17.85 Q53.8 18.25 53.95 18.25 L54.4 17.85 55.3 18.0 Q56.35 17.65 56.45 17.65 L56.6 17.9 56.7 18.1 57.0 18.1 57.15 17.9 Q57.0 18.05 56.7 17.8 56.45 17.5 56.85 17.4 L56.75 17.7 57.2 17.6 57.35 17.95 57.4 18.15 57.55 18.05 57.6 17.9 57.75 18.1 57.9 18.1 57.85 18.35 57.95 18.5 Q58.25 18.05 58.7 17.75 58.55 16.6 58.2 16.75 58.45 16.85 58.15 16.95 57.85 17.05 57.85 16.85 L58.15 16.3 57.9 16.25 M40.95 17.85 Q41.85 16.55 42.1 14.7 42.35 12.7 41.55 11.4 40.55 9.75 38.8 9.55 L35.25 10.05 Q38.05 13.6 37.95 18.5 37.5 18.75 37.7 19.35 L37.95 20.3 37.65 21.15 37.15 21.95 36.5 23.9 35.75 25.8 38.35 26.15 40.9 25.95 40.95 24.7 41.3 24.9 41.85 21.25 Q41.95 19.0 40.95 17.85 M48.35 16.85 L48.5 15.4 48.6 14.05 45.9 14.55 43.25 14.85 43.5 17.9 43.45 18.1 Q43.2 20.05 44.85 20.55 46.35 21.05 47.6 20.05 48.5 19.3 48.5 17.65 L48.35 16.85 M83.65 13.65 L85.1 14.25 85.1 14.35 84.75 14.4 84.45 14.5 83.0 14.35 81.4 14.15 79.8 14.3 79.45 14.2 Q79.15 14.2 79.1 14.4 78.4 14.1 78.15 14.15 77.8 15.45 77.8 15.85 77.55 15.65 77.45 15.85 L77.25 15.6 77.1 15.4 76.15 15.6 75.25 15.75 Q75.2 15.4 74.8 15.4 L74.25 15.4 74.45 15.05 Q74.25 15.05 74.15 15.25 L73.95 15.55 73.4 15.6 73.0 15.75 72.9 15.25 Q72.7 15.45 72.65 15.25 72.45 15.4 72.7 15.75 L72.15 15.55 71.55 15.6 70.85 15.55 70.2 15.45 70.1 15.6 69.75 15.4 69.45 15.55 Q69.25 15.6 69.15 15.75 69.0 15.75 69.0 15.45 68.75 15.55 68.85 15.75 L68.0 15.6 66.95 15.8 66.2 15.5 Q65.55 15.35 65.2 15.7 L64.85 15.55 64.4 15.7 63.85 15.4 63.1 15.35 63.0 15.55 62.8 15.75 62.8 15.45 62.35 15.5 Q62.05 15.45 61.9 15.65 L61.15 15.55 60.4 15.6 Q60.15 15.6 60.15 15.95 60.0 15.65 59.7 15.75 59.3 15.8 59.2 15.55 L59.05 16.05 Q58.9 16.3 58.9 16.5 L59.2 16.6 Q59.05 16.9 59.15 17.8 L59.4 17.65 59.75 17.5 60.0 17.65 60.3 17.75 60.45 17.55 60.85 17.65 61.35 17.8 62.4 17.65 63.5 17.5 65.25 17.65 66.8 17.8 69.75 17.5 72.75 17.2 73.65 17.3 Q74.4 16.9 74.7 17.05 L74.7 17.35 75.3 17.1 Q75.6 17.3 76.5 17.1 L77.7 17.2 69.2 18.9 64.7 19.2 60.0 19.35 54.7 19.6 49.55 19.95 50.2 22.4 Q50.5 23.9 50.25 25.0 L44.4 26.25 44.9 26.75 47.7 26.6 50.4 26.5 51.15 27.05 51.8 27.6 62.95 27.65 73.65 28.45 83.85 29.8 84.5 30.35 85.05 30.95 82.2 30.95 82.2 30.7 81.55 30.95 80.85 30.8 80.2 30.8 79.75 31.45 79.35 30.8 78.8 30.75 78.6 31.05 78.35 30.9 78.15 30.7 78.0 31.65 77.65 32.45 76.8 32.55 76.1 32.5 75.15 32.4 74.9 32.6 Q74.7 32.55 74.65 32.75 L73.55 32.55 72.55 32.45 72.4 32.8 71.95 32.65 71.45 32.55 70.05 32.85 69.95 32.75 70.0 32.55 Q69.75 32.5 69.8 32.75 69.65 32.75 69.65 32.3 69.25 32.4 69.5 32.85 L69.0 32.9 69.05 32.3 68.75 32.3 Q68.55 32.35 68.6 32.55 L68.85 32.75 67.5 32.65 66.25 32.4 66.2 32.65 66.05 32.45 65.95 32.2 Q65.85 32.2 65.9 32.35 L65.9 32.6 65.75 32.5 65.65 32.3 64.95 32.45 Q64.45 32.3 64.15 32.45 L64.25 32.25 64.4 32.15 63.95 32.2 63.55 32.35 Q63.6 32.0 63.2 32.2 L62.7 32.45 62.5 32.25 62.3 32.45 60.9 32.6 59.6 32.45 59.4 32.7 59.2 32.9 59.45 33.4 59.55 34.05 Q59.5 33.65 59.3 33.75 59.1 33.85 59.2 34.25 L59.0 33.5 58.95 32.8 Q58.5 32.7 58.6 33.1 58.5 33.15 58.55 32.95 L58.45 32.75 58.35 32.9 58.4 33.2 58.15 32.9 58.0 32.6 57.45 32.7 57.05 32.45 Q56.85 32.75 56.7 32.55 L56.65 32.85 56.2 32.85 56.05 32.45 56.0 32.05 55.85 32.25 Q55.65 32.2 55.65 32.5 L55.5 32.4 55.35 32.3 Q55.15 32.8 54.6 32.5 54.55 32.85 55.0 32.75 54.85 33.05 54.65 32.85 L54.3 32.4 53.75 32.5 53.25 32.35 53.05 32.65 Q52.9 32.7 52.85 32.55 L52.65 32.45 Q52.4 32.5 52.4 32.95 52.2 32.9 52.3 32.7 L52.2 32.45 Q51.95 32.95 51.7 35.6 L52.8 35.55 Q52.9 35.25 53.15 35.25 53.4 35.25 53.55 35.55 L53.7 35.3 54.0 35.45 54.45 35.5 54.45 35.4 55.1 35.45 55.55 35.2 56.15 35.25 56.7 35.35 57.15 35.25 57.25 34.9 57.4 35.3 57.6 35.7 57.75 35.15 Q57.6 35.15 57.6 35.4 57.4 35.05 57.9 35.0 L58.75 34.95 59.05 34.35 59.3 34.55 59.5 34.8 60.6 34.7 Q61.25 34.55 62.65 34.7 L64.9 34.65 65.1 34.35 65.65 34.5 66.15 34.65 66.5 34.5 67.5 34.65 68.45 34.35 69.3 34.4 Q69.9 34.2 69.95 34.4 L70.0 34.25 70.0 34.1 Q70.2 34.1 70.15 34.2 L70.2 34.45 70.3 34.1 Q71.3 34.5 72.25 33.85 72.15 34.15 72.55 34.1 L73.0 33.8 73.9 33.75 74.8 33.7 74.7 33.65 75.65 33.6 76.8 33.3 77.4 33.35 77.6 34.15 80.1 33.6 77.3 34.35 67.1 35.9 59.2 36.35 51.25 36.75 50.7 38.15 Q50.3 39.05 50.25 39.75 L50.5 41.25 Q50.8 42.15 50.7 42.55 L50.2 43.25 49.65 43.8 50.55 44.25 51.1 45.0 Q54.65 44.75 59.7 44.8 L68.1 44.9 75.55 45.4 82.55 46.4 85.15 47.7 85.0 48.3 84.65 47.85 84.1 48.1 83.8 48.0 83.55 47.8 81.7 47.85 80.15 47.8 79.35 47.85 78.35 47.65 77.95 47.85 77.7 48.05 77.6 47.8 Q77.4 48.4 77.5 49.3 L76.4 49.3 Q75.75 49.3 75.45 49.6 L75.25 49.5 75.0 49.4 Q74.8 49.45 74.95 49.55 L75.0 49.65 74.8 49.6 74.85 49.35 74.35 49.2 74.15 49.5 74.5 49.4 74.7 49.55 73.55 49.65 73.6 49.45 73.7 49.15 72.0 49.35 71.9 49.65 71.35 49.55 71.0 49.3 70.15 49.45 Q69.65 49.4 69.55 49.7 L69.2 49.5 Q68.9 49.4 68.85 49.65 L68.6 49.2 Q68.35 49.3 68.5 49.5 68.35 49.55 68.3 49.4 L68.25 49.2 68.15 49.55 Q68.15 49.8 67.8 49.75 67.7 49.65 67.9 49.45 L67.45 49.55 67.15 49.6 Q66.7 48.7 66.15 49.7 L66.45 49.75 66.2 50.3 65.85 50.3 Q65.55 50.2 65.6 50.5 65.25 50.35 65.5 50.05 65.7 49.75 66.1 49.85 66.2 49.65 65.95 49.55 65.7 49.4 65.7 49.65 L64.5 49.05 63.65 49.15 63.3 48.95 Q63.2 48.95 63.15 49.05 L63.0 49.2 62.65 49.1 Q62.35 49.0 62.4 49.3 L62.2 49.1 Q62.0 49.05 62.05 49.3 L61.9 49.2 Q61.95 49.05 61.8 49.05 L61.8 49.25 61.75 49.4 61.35 49.4 61.25 48.9 Q61.15 49.0 61.2 49.2 L61.15 49.45 58.75 49.25 58.9 49.5 59.2 49.55 59.0 49.8 Q58.8 49.85 58.75 49.95 58.75 50.5 59.15 50.2 L59.15 50.95 59.0 50.85 58.9 50.75 Q58.65 50.85 58.7 51.2 L58.5 50.7 58.15 50.75 Q58.0 50.75 58.0 50.95 L57.8 50.65 57.75 50.3 Q57.65 50.35 57.7 50.6 L57.45 50.8 57.6 50.2 57.65 49.75 57.25 49.55 57.15 49.85 56.9 49.65 56.6 49.6 Q56.35 49.65 56.6 49.95 56.3 49.9 56.3 49.45 L55.95 49.65 55.75 49.5 55.4 49.95 Q55.15 49.95 55.25 49.6 L55.05 49.9 54.9 49.65 54.55 49.55 54.35 49.85 53.5 49.45 53.45 49.75 53.25 49.9 53.0 49.45 53.1 50.2 52.9 49.95 52.7 49.7 Q52.55 49.7 52.55 49.95 52.45 50.0 52.35 49.85 L52.25 49.65 52.2 49.85 52.05 50.05 51.45 49.85 51.35 50.25 Q51.3 50.45 51.15 50.25 51.45 50.8 51.2 52.4 L51.6 52.55 Q51.0 52.75 51.0 53.1 L52.35 53.2 Q53.1 53.2 53.3 52.8 53.4 53.1 54.0 53.1 L54.1 52.95 54.2 52.8 54.2 53.0 55.1 52.95 55.1 52.65 55.25 52.85 55.25 52.55 55.4 52.25 55.45 52.5 Q55.35 52.75 55.4 52.95 L55.55 52.8 55.65 52.95 55.65 52.75 55.6 52.55 Q55.9 53.1 56.55 53.0 57.2 52.9 57.15 52.2 L57.35 52.3 57.5 52.45 57.8 51.7 58.0 52.0 58.35 52.1 58.4 51.6 59.1 51.65 Q59.1 52.25 58.9 52.3 L58.85 51.7 58.55 51.75 58.65 52.05 58.55 52.4 59.45 52.5 60.3 52.45 60.35 52.3 60.25 52.1 60.5 52.55 64.0 52.35 64.0 52.15 Q63.95 51.95 64.2 51.95 L64.35 52.1 64.35 52.35 66.15 52.25 66.2 52.1 66.2 51.85 66.9 52.0 67.65 52.15 69.2 51.85 70.9 51.7 72.2 51.55 Q72.95 51.4 73.35 51.05 L73.75 51.25 75.4 50.95 77.45 50.65 Q77.5 51.0 77.0 51.15 L76.1 51.3 63.85 52.9 50.75 53.7 49.35 56.15 49.4 59.65 56.85 59.05 57.5 60.0 63.35 59.95 Q67.1 59.8 69.1 59.95 L75.25 60.85 79.75 61.5 Q82.15 61.9 83.6 62.65 L84.15 63.75 Q82.65 64.55 80.85 64.75 L80.35 65.05 Q78.95 65.15 78.2 65.55 77.45 65.4 77.45 65.8 L78.3 65.7 79.6 65.5 79.65 65.25 80.15 65.3 80.65 65.3 78.05 66.05 75.25 66.65 75.5 66.35 75.9 66.35 76.0 66.15 76.65 66.0 Q76.75 65.45 77.0 65.3 L76.9 65.05 76.8 64.8 Q76.55 65.15 75.85 65.05 75.15 64.95 74.95 65.2 L74.3 65.15 73.75 64.9 73.6 65.0 73.55 65.2 72.55 65.05 71.6 65.2 71.55 65.45 68.55 65.6 Q68.6 65.45 68.95 65.45 69.25 65.45 69.25 65.2 L67.75 65.2 67.7 64.9 65.5 65.05 65.5 64.85 65.25 65.1 62.8 64.85 60.5 64.8 60.35 65.05 60.05 65.2 Q60.3 64.95 60.05 64.95 59.8 64.95 59.7 65.2 L59.5 65.15 59.25 65.0 Q58.8 65.6 58.0 65.4 L57.9 65.75 58.0 66.1 58.2 66.0 Q58.25 65.9 58.4 65.9 L58.35 66.15 58.5 66.25 Q58.15 66.4 58.05 67.1 57.75 66.65 57.8 66.0 57.6 66.05 57.75 66.6 L57.5 66.4 57.5 65.9 57.4 66.1 57.35 66.25 Q57.3 65.7 56.8 65.55 56.2 65.4 56.05 65.15 L55.95 65.35 55.9 65.55 55.75 65.4 55.6 65.2 Q55.5 65.2 55.55 65.3 L55.6 65.5 Q55.45 65.45 55.45 65.2 55.25 65.3 55.15 65.75 55.05 65.45 54.55 65.35 54.0 65.25 53.95 65.65 53.85 65.55 53.9 65.35 L53.95 65.0 Q53.7 65.15 53.8 65.35 L53.35 65.0 53.25 65.25 53.2 65.55 52.9 65.6 52.7 65.7 52.5 65.15 51.45 65.55 Q50.85 65.65 50.5 65.1 50.35 65.85 50.35 67.15 L50.25 69.3 52.95 69.2 53.3 69.2 Q53.6 69.3 53.25 69.3 L50.2 69.5 Q50.0 69.55 50.15 70.05 L48.5 71.25 48.5 72.65 52.2 72.6 55.5 72.85 62.6 72.8 Q67.15 72.6 69.5 72.8 L75.15 73.7 80.8 74.55 82.5 75.65 Q82.45 76.35 81.75 76.5 81.55 76.25 81.65 75.85 L76.05 76.05 Q75.85 75.85 75.45 75.8 L74.8 75.65 74.55 77.5 74.45 77.3 74.35 77.4 Q74.2 77.4 74.2 77.1 L72.65 77.35 72.85 77.4 72.95 77.55 72.5 77.65 72.45 77.4 Q72.4 77.25 72.15 77.4 L72.25 77.45 72.35 77.6 71.75 77.6 71.75 77.15 69.8 77.25 69.75 77.4 69.8 77.5 69.5 77.45 69.2 77.2 68.9 77.4 68.4 77.55 68.25 77.45 68.15 77.3 Q68.05 77.3 68.1 77.45 L68.05 77.6 67.95 77.3 66.6 77.55 65.25 77.65 65.1 77.55 64.95 77.45 64.45 77.65 64.15 77.55 63.9 77.55 63.75 77.2 62.55 77.35 62.45 77.55 Q62.4 77.7 62.25 77.65 61.95 77.05 60.55 77.2 L58.35 77.1 58.2 77.5 Q58.05 77.55 58.0 77.4 L57.85 77.3 57.5 77.4 Q57.0 77.25 56.9 77.6 L56.8 77.5 56.7 77.4 56.7 77.55 56.65 77.7 Q56.55 77.75 56.6 77.55 L56.5 77.4 56.4 77.9 Q56.45 78.25 56.15 78.1 56.1 78.4 56.35 78.6 L56.5 79.05 Q56.15 79.05 55.9 79.3 L55.9 78.95 55.5 78.95 55.3 78.8 54.95 79.2 55.0 78.9 55.05 78.55 Q55.3 78.7 55.8 78.3 55.75 78.1 55.55 78.25 55.4 78.3 55.4 78.0 55.25 78.0 55.2 78.15 L55.05 78.25 Q54.9 77.6 54.65 77.5 54.4 77.45 54.25 77.65 L53.95 77.7 53.85 77.85 53.85 78.1 53.35 77.65 Q53.2 77.75 53.35 77.85 L53.45 78.1 53.2 78.15 Q53.05 78.2 53.05 78.4 L52.65 78.2 52.75 77.7 52.0 77.8 Q51.4 77.75 51.2 78.05 50.8 77.7 50.35 77.7 49.85 77.65 49.65 78.05 L49.45 77.9 49.25 77.8 49.15 77.9 49.05 77.85 48.95 80.1 48.8 82.2 54.9 81.75 54.95 81.25 55.1 81.45 55.05 81.75 Q55.3 81.85 55.35 81.6 55.35 81.35 55.5 81.35 55.65 81.65 55.45 81.75 55.85 81.65 55.8 81.2 56.05 81.45 56.25 81.0 56.6 81.45 57.4 81.35 L58.7 81.25 57.55 81.45 56.4 81.6 64.8 81.95 73.05 82.55 75.6 82.8 77.6 83.1 Q78.15 83.25 79.25 83.9 L80.95 84.65 81.05 84.95 80.95 85.15 80.7 85.25 Q80.6 85.45 80.8 85.5 L80.95 85.75 80.2 85.85 80.05 85.15 78.65 85.1 77.0 85.2 Q76.85 85.35 77.05 85.65 L76.3 85.6 76.3 85.4 76.35 85.15 Q75.4 84.75 75.5 86.2 L75.45 85.2 75.2 85.25 74.95 85.4 74.6 85.05 74.0 85.15 73.8 85.9 73.55 86.6 71.95 86.65 70.2 86.95 70.15 86.8 70.05 86.6 69.95 86.75 70.0 87.0 69.85 86.9 69.75 86.7 69.45 86.75 69.0 86.8 69.45 86.85 69.25 87.0 Q69.0 87.0 69.05 87.2 L68.7 86.95 Q68.55 86.75 68.45 87.0 L68.35 86.9 68.4 86.7 67.9 86.65 67.75 86.9 67.45 86.95 Q67.75 86.7 67.3 86.95 L67.25 86.9 67.3 86.65 65.85 86.5 Q65.7 86.5 65.7 86.6 L65.55 86.75 65.4 86.75 65.2 86.85 65.05 86.65 64.6 86.8 63.1 86.6 61.45 86.7 Q60.45 86.7 60.1 86.15 L59.5 86.35 58.8 86.45 59.15 86.55 Q59.05 86.8 58.8 86.65 L58.35 86.45 Q58.2 86.45 58.15 86.8 L57.9 87.0 57.9 86.8 58.0 86.6 56.25 86.55 Q55.4 86.75 55.05 87.2 L55.25 87.5 55.4 87.8 54.95 88.2 54.95 87.8 54.25 87.95 53.65 88.1 Q53.65 87.9 54.0 87.75 L54.4 87.7 Q54.65 87.1 54.9 87.45 L54.75 87.1 53.95 87.35 53.65 86.85 53.3 86.5 53.15 86.7 52.95 86.85 Q52.8 86.9 52.75 86.75 L52.6 86.5 51.6 86.7 51.65 86.9 51.6 87.1 51.5 86.85 51.4 86.55 Q51.1 86.7 51.15 86.8 L50.6 86.45 Q50.2 86.4 50.25 86.85 50.0 86.5 49.35 86.5 L47.75 86.6 Q47.55 87.25 47.55 89.35 47.55 91.25 47.15 92.05 L45.75 92.1 47.2 91.2 47.15 89.7 Q47.05 88.9 46.55 88.5 L45.15 87.9 43.6 87.55 Q42.7 87.55 42.35 88.05 L41.75 89.4 41.2 90.8 Q40.9 91.65 40.95 92.25 L44.85 92.3 42.55 92.95 40.0 93.35 39.3 94.15 33.1 94.6 32.0 94.65 Q30.85 93.7 28.05 93.6 L23.2 93.6 23.15 93.15 23.0 93.35 22.95 93.55 22.45 93.5 22.05 93.6 22.05 93.2 Q21.9 93.25 21.9 93.6 L19.25 93.7 17.2 93.75 16.8 93.65 4.4 94.35 4.25 94.15 21.5 93.25 Q21.9 92.55 21.75 88.95 21.7 88.1 21.25 87.65 L18.95 87.85 16.8 87.65 14.8 87.85 Q14.65 87.8 14.65 88.05 14.0 87.8 12.9 88.05 L12.85 87.85 9.6 87.95 Q9.95 88.05 9.5 88.15 9.1 88.25 9.15 87.95 L7.55 88.2 7.2 88.0 5.1 88.4 4.5 88.2 Q4.1 88.2 4.0 88.35 L3.7 88.1 Q3.2 88.15 2.95 88.35 L1.35 88.3 1.0 86.55 7.4 86.1 14.3 85.75 21.2 85.05 20.95 84.95 22.9 84.9 23.2 82.55 23.05 82.5 22.9 82.5 Q23.3 82.1 22.85 81.6 L23.1 80.6 22.75 79.4 22.75 79.6 22.6 79.65 Q22.7 79.2 22.4 79.3 22.45 79.7 22.05 79.7 L22.1 79.5 22.0 79.3 21.9 79.6 21.65 79.5 21.35 79.4 21.05 79.6 20.6 79.6 20.65 79.8 20.55 80.0 20.35 79.8 20.3 79.55 18.95 79.6 Q18.8 79.9 19.05 80.15 L18.45 80.1 18.4 79.85 18.2 79.7 18.3 79.95 18.25 80.15 Q18.1 80.2 18.15 79.8 L16.8 79.55 16.7 79.8 16.5 79.9 15.4 79.8 14.25 79.7 13.3 79.85 Q12.7 79.8 12.5 80.15 L12.25 79.85 12.0 79.65 10.55 79.95 9.1 79.9 7.75 80.0 6.25 79.95 5.55 80.1 4.7 80.4 4.25 80.15 4.05 80.6 3.9 80.2 0.75 80.3 0.75 73.35 1.35 73.3 Q1.45 73.1 1.65 73.15 L1.75 73.45 1.75 73.3 1.8 73.15 12.85 72.5 Q12.55 72.8 12.85 72.8 L14.95 72.6 16.7 72.3 16.9 72.55 18.85 72.2 20.95 72.1 20.9 72.35 21.2 72.3 Q21.3 72.1 21.55 72.05 L21.85 71.85 21.85 72.05 22.0 72.15 22.1 72.0 Q22.05 71.85 22.15 71.8 L23.4 71.6 Q24.35 71.85 24.45 70.8 L24.4 68.7 24.15 68.65 24.2 68.5 24.2 68.35 24.3 68.5 24.4 68.65 24.45 67.55 24.3 66.55 24.2 66.75 24.05 66.8 Q24.35 66.5 24.05 66.4 L23.85 66.85 23.8 66.35 Q23.6 66.35 23.7 66.5 L23.7 66.75 21.1 66.85 21.05 66.7 Q21.05 66.6 20.9 66.65 L20.8 66.8 19.7 66.85 18.3 66.8 15.65 66.9 15.4 67.1 15.1 67.15 14.95 66.85 14.7 66.8 14.35 67.1 13.4 67.25 13.0 67.05 Q12.7 67.0 12.65 67.2 L12.5 66.95 12.45 67.25 Q12.3 67.0 11.75 66.9 L11.6 67.05 11.45 67.2 9.1 67.35 6.75 67.45 6.7 67.75 6.15 67.3 6.1 67.55 4.5 67.7 4.4 67.6 4.3 67.5 Q4.2 67.55 4.25 67.7 L4.15 67.85 3.85 67.75 3.7 67.5 3.1 67.85 3.0 67.5 2.1 67.65 1.15 67.55 1.15 67.85 0.75 68.0 0.75 67.75 0.85 67.6 0.75 67.6 0.75 59.7 23.7 59.5 Q23.45 59.0 24.1 58.15 24.7 57.3 24.45 56.35 L0.75 57.35 0.75 56.45 9.55 56.1 14.85 55.65 17.65 55.5 18.2 55.7 18.15 55.5 18.2 55.4 Q18.35 55.65 18.65 55.55 L19.1 55.65 Q18.95 55.3 19.3 55.3 L19.3 55.5 19.45 55.6 Q19.6 55.2 19.85 55.55 L19.8 55.05 20.1 55.2 20.2 55.45 21.3 55.45 Q21.95 55.45 22.15 55.15 L22.3 55.45 23.8 55.3 24.0 54.75 24.4 55.2 24.35 54.8 Q24.3 54.6 24.4 54.5 L24.5 54.8 25.65 53.9 25.55 53.8 25.45 53.7 25.4 53.45 25.2 53.2 Q25.15 52.95 25.4 52.05 L25.45 50.85 25.2 50.75 24.9 50.65 24.9 50.35 24.6 50.15 24.65 50.5 24.6 50.75 24.3 50.75 24.2 50.5 23.75 50.6 23.2 50.75 23.25 50.45 Q23.05 50.5 22.9 50.65 L22.95 50.9 Q22.85 50.85 22.6 51.1 22.65 50.95 22.5 50.95 L22.35 50.85 22.5 50.7 22.75 50.85 Q22.7 50.5 22.2 50.6 L22.15 50.85 21.9 50.75 21.9 50.9 21.85 51.05 21.75 50.9 21.7 50.75 21.5 50.8 Q21.3 50.8 21.25 50.9 21.15 50.6 20.55 50.5 L20.2 50.55 20.2 50.85 20.15 51.05 20.05 50.85 19.9 50.6 18.8 50.7 17.75 50.9 16.85 50.85 15.95 50.95 15.95 50.75 15.75 50.85 15.65 50.75 15.55 50.95 15.4 51.0 Q15.3 50.7 14.85 50.8 L14.25 51.05 14.0 50.75 12.8 50.9 11.55 50.95 11.6 50.8 11.4 51.0 11.3 51.2 11.1 51.0 Q10.8 51.1 10.7 51.25 L10.65 50.8 Q10.6 50.55 10.3 50.6 L9.8 51.15 9.65 50.95 9.45 50.85 9.2 51.15 7.5 51.25 Q7.5 51.15 7.3 51.15 L7.1 50.95 6.45 51.1 5.85 51.1 5.8 51.35 Q5.6 51.15 5.4 51.35 L5.3 51.05 4.9 51.3 4.9 51.1 3.7 51.15 2.7 51.25 1.95 51.3 Q1.8 51.25 1.8 51.45 L1.7 51.6 1.45 51.35 1.35 51.45 1.25 51.55 Q1.1 51.25 0.75 51.25 L0.75 42.7 12.3 42.45 18.55 42.3 22.05 41.5 25.35 40.7 25.15 39.3 0.75 40.15 0.75 38.25 2.8 38.3 3.3 37.9 3.8 38.1 4.3 38.15 4.45 37.95 4.65 38.15 4.75 38.3 4.9 38.2 4.95 38.05 6.35 38.05 7.9 38.05 Q7.85 37.8 8.2 37.9 L8.65 38.25 8.7 37.95 8.75 37.7 9.0 38.0 11.05 37.9 13.25 37.65 13.35 37.85 15.05 37.8 16.55 37.55 Q16.7 37.8 16.9 37.45 L18.6 37.6 Q19.75 37.45 20.2 37.6 L21.9 37.5 22.3 37.2 22.35 37.4 22.5 37.45 23.85 37.3 25.2 37.05 25.35 37.25 25.7 36.95 26.15 36.75 26.15 36.15 25.95 35.75 Q26.15 35.85 26.15 35.65 L25.9 35.3 Q26.2 35.1 26.15 34.55 L26.05 33.55 Q25.75 33.75 25.3 33.2 L25.1 33.55 24.9 33.4 24.65 33.35 24.3 33.8 Q24.25 33.7 24.35 33.55 L24.25 33.35 24.1 33.4 23.9 33.3 23.65 33.5 23.15 33.25 22.95 33.55 22.6 33.5 22.7 33.35 22.75 33.35 22.4 33.4 21.85 33.45 21.4 33.55 20.8 33.45 20.75 33.65 19.9 33.4 18.7 33.6 17.25 33.45 16.5 33.65 Q15.85 33.55 15.85 33.85 15.45 33.4 14.05 33.65 12.5 33.85 12.1 33.65 L11.8 33.85 Q11.6 33.85 11.5 34.0 L9.45 33.75 7.2 33.85 7.15 34.15 6.8 34.1 6.5 34.25 6.1 33.8 Q5.8 34.2 4.95 34.3 4.7 34.1 4.25 34.05 L3.65 33.85 3.5 34.05 3.35 34.25 2.6 34.05 1.85 34.25 0.75 34.1 0.75 26.85 25.35 26.7 Q24.95 25.4 25.05 22.55 L13.05 22.9 0.75 23.2 0.75 19.35 0.8 19.35 1.05 19.7 Q0.95 19.4 1.2 19.4 L1.35 19.5 1.5 19.7 Q1.5 19.45 1.7 19.65 L1.7 19.45 1.8 19.3 2.1 19.75 Q2.2 19.3 2.45 19.25 2.65 20.0 2.95 20.15 L2.75 19.55 2.95 19.55 3.15 19.45 3.45 19.95 Q3.6 20.0 3.65 19.85 L3.75 19.7 4.0 20.1 4.1 19.45 Q4.25 19.95 4.6 19.95 4.65 19.6 4.85 19.5 5.0 19.9 5.95 20.0 6.25 19.75 7.55 19.45 L7.8 19.7 8.0 19.9 Q7.8 19.5 8.0 19.45 L8.15 19.6 8.3 19.8 Q8.25 19.45 8.55 19.6 L8.9 19.8 8.9 19.6 9.65 19.55 9.95 19.85 10.15 19.75 10.3 19.6 10.35 19.75 11.0 19.8 11.2 19.7 11.3 19.55 11.6 19.85 11.65 19.4 12.05 19.65 Q12.0 19.35 12.4 19.45 L12.85 19.4 12.95 19.6 13.0 19.75 13.05 19.65 13.1 19.55 13.35 19.7 13.6 19.6 Q13.3 19.65 13.65 19.35 L14.5 19.55 14.75 19.7 Q14.7 19.35 15.1 19.35 L15.85 19.35 Q15.8 19.05 16.05 18.95 L16.3 19.15 16.15 19.45 18.4 19.6 Q17.95 19.35 18.0 18.95 L18.35 18.75 18.55 19.25 19.2 19.45 19.3 19.25 Q19.3 19.5 19.45 19.45 L19.55 19.35 19.65 19.2 19.65 19.45 20.55 19.25 20.6 18.95 21.95 19.3 Q22.65 19.4 23.15 18.95 L23.25 19.2 Q23.45 19.25 23.45 19.1 23.15 18.8 23.35 18.75 L23.6 19.3 23.85 19.15 24.05 19.3 24.1 19.05 24.1 18.85 24.5 19.25 Q24.55 19.0 24.8 18.9 25.05 18.75 25.1 19.0 L25.4 17.9 25.35 16.6 Q25.2 16.55 25.2 16.75 L25.15 16.9 24.95 16.6 24.95 16.25 Q24.6 16.0 24.25 16.5 24.25 15.7 24.15 16.2 24.15 16.65 23.95 16.6 L23.85 16.5 23.7 16.4 23.55 16.5 23.25 16.4 23.1 16.65 Q23.15 16.45 22.9 16.5 L22.65 16.65 21.05 16.55 19.2 16.45 18.35 16.6 17.5 16.7 16.45 16.75 15.2 16.65 14.7 17.15 14.3 16.55 13.8 16.65 Q13.45 16.75 13.4 16.9 13.2 16.65 12.55 16.75 L11.6 16.55 11.45 16.7 11.2 16.55 11.1 17.05 9.6 17.0 Q8.7 17.0 8.4 16.65 L7.6 16.6 7.35 16.85 7.1 16.7 5.3 16.85 4.65 16.85 4.2 17.1 4.1 16.8 3.65 16.95 3.2 16.85 3.1 16.95 Q2.95 16.9 2.95 17.0 L2.8 17.3 2.7 16.95 0.75 17.05 Q0.9 12.3 2.2 9.15 L19.65 9.1 23.2 9.15 24.2 8.7 25.15 8.4 Q25.55 7.6 25.25 6.75 L24.5 5.2 25.8 5.15 48.5 4.65 50.3 6.8 49.8 7.65 Q49.6 8.25 49.2 8.45 L47.1 8.9 Q45.6 9.1 45.0 9.5 L47.65 9.65 50.45 9.6 Q50.55 10.45 50.75 10.55 L78.35 12.65 80.4 12.75 82.25 13.0 83.65 13.65"/></g></defs><g><g><use transform="matrix(1.0,0.0,0.0,1.0,0.0,0.0)" xlink:href="#c1"/></g></g></svg>