<?xml version='1.0' encoding='UTF-8'?>
<svg xmlns="http://www.w3.org/2000/svg" xmlns:xlink="http://www.w3.org/1999/xlink" version="1.1" width="92px" height="92px" viewBox="4.5 4.0 92.0 92.0"><defs><g id="c1"><path fill="#ffffff" stroke="none" d="M96.5 50.0 Q96.5 69.05 83.05 82.55 69.6 96.0 50.5 96.0 31.45 96.0 18.0 82.55 4.5 69.05 4.5 50.0 4.5 30.95 18.0 17.5 31.45 4.0 50.5 4.0 69.6 4.0 83.05 17.5 96.5 30.95 96.5 50.0 M58.75 76.65 L58.7 78.45 58.7 80.1 Q58.7 83.5 59.25 85.5 70.05 83.15 78.35 74.85 89.9 63.3 89.9 47.0 89.9 30.7 78.35 19.15 66.8 7.65 50.5 7.65 34.2 7.65 22.7 19.15 11.15 30.7 11.15 47.0 11.15 63.3 22.7 74.85 30.85 83.05 41.45 85.45 L41.6 84.65 41.7 82.85 42.15 80.4 Q42.75 77.15 42.35 74.6 L42.45 71.55 42.55 68.5 43.25 59.35 43.4 56.35 41.25 55.55 Q41.2 55.25 41.5 54.6 L42.0 53.8 Q41.95 53.6 42.2 53.3 L42.5 52.75 42.95 51.7 43.2 49.75 43.3 48.2 42.65 39.85 Q41.05 38.45 40.15 38.15 L39.8 38.2 38.8 38.45 Q38.4 38.5 37.9 38.0 L37.05 37.0 37.5 36.0 37.55 35.8 33.7 31.25 30.6 27.9 29.7 26.9 28.65 26.0 Q27.9 25.9 26.45 24.85 L25.45 24.25 25.2 24.1 Q24.55 23.6 24.4 23.0 L25.35 23.4 25.9 23.75 26.25 23.9 26.0 23.6 Q24.95 22.2 25.45 20.7 L26.7 21.75 27.35 22.2 28.25 22.4 28.0 21.6 27.85 21.25 Q27.6 20.65 28.25 20.45 L28.7 20.95 Q29.85 22.4 30.25 24.95 L31.15 25.65 32.15 26.25 32.25 26.3 34.1 27.8 37.95 30.7 39.5 31.55 39.55 31.2 40.35 31.4 41.0 31.85 42.85 32.05 43.75 32.75 45.9 32.9 47.2 32.55 47.55 31.2 Q46.85 29.7 46.75 28.8 46.65 28.15 46.9 27.15 L46.55 26.0 Q46.95 25.95 47.1 25.05 L47.25 23.8 Q47.4 24.65 51.9 23.25 L51.7 23.45 Q52.35 23.75 53.2 24.35 L54.65 25.35 53.9 25.3 54.3 27.45 Q54.65 28.8 54.4 29.55 54.6 30.45 54.4 30.95 53.35 32.65 53.9 32.85 L55.05 32.8 Q55.4 32.35 55.9 32.25 L57.2 32.3 58.4 32.25 58.95 31.85 59.55 31.4 60.55 31.55 61.5 31.7 Q63.5 31.25 66.6 28.5 69.8 25.55 71.95 24.95 72.0 23.5 72.9 22.5 L74.75 21.0 74.5 22.15 73.9 22.95 Q74.85 23.1 75.7 22.35 76.55 21.55 77.3 21.55 77.3 21.9 76.9 22.45 76.55 22.9 76.75 23.55 L75.25 24.7 76.95 24.05 Q76.9 24.65 75.95 25.3 L74.4 26.25 Q73.45 26.9 72.85 27.0 L72.55 27.0 67.8 31.5 62.9 35.95 62.9 37.35 59.0 39.3 Q58.0 43.7 57.75 47.45 L58.35 51.05 Q58.55 52.35 59.6 54.65 59.05 54.6 58.05 55.1 L58.15 56.4 58.7 63.2 58.55 67.3 Q58.25 70.0 58.45 71.4 L58.4 71.45 58.75 76.65 M52.95 78.85 L52.95 78.8 52.5 76.0 52.0 73.2 51.9 70.7 51.5 68.2 51.3 66.8 51.15 65.35 50.8 63.95 50.45 63.6 Q50.15 63.35 50.1 63.7 L50.0 64.25 Q49.55 65.9 49.3 68.9 L48.7 73.55 Q48.2 75.65 48.0 80.0 L47.95 80.35 47.95 80.65 47.6 85.1 47.2 86.3 50.5 86.4 54.0 86.3 53.3 84.6 53.15 80.8 52.95 78.85"/><path fill="#ffffff" fill-opacity="0.8" d="M58.75 76.65 L59.4 76.3 Q66.6 72.8 72.55 66.85 77.7 61.65 81.05 55.5 84.3 49.55 85.5 43.4 86.2 50.9 83.75 57.95 81.15 65.3 75.65 70.8 69.55 76.85 61.45 79.35 L58.7 80.1 58.7 78.45 58.75 76.65 M30.6 27.9 Q25.15 33.75 22.0 40.75 18.55 48.4 18.45 55.9 15.95 47.1 18.2 38.2 20.2 30.3 25.45 24.25 L26.45 24.85 Q27.9 25.9 28.65 26.0 L29.7 26.9 30.6 27.9 M25.9 23.75 L26.0 23.6 26.25 23.9 25.9 23.75 M27.35 22.2 L28.0 21.6 28.25 22.4 27.35 22.2 M28.7 20.95 Q34.35 15.9 41.7 13.75 49.75 11.35 58.05 13.0 51.3 13.8 44.65 17.15 37.8 20.6 32.15 26.25 L31.15 25.65 30.25 24.95 Q29.85 22.4 28.7 20.95 M52.95 78.85 L53.15 80.8 47.95 80.65 47.95 80.35 48.0 80.0 52.95 78.85"/></g></defs><g><g><use transform="matrix(1.0,0.0,0.0,1.0,0.0,0.0)" xlink:href="#c1"/></g></g></svg>