<?xml version='1.0' encoding='UTF-8'?>
<svg xmlns="http://www.w3.org/2000/svg" xmlns:xlink="http://www.w3.org/1999/xlink" version="1.1" width="100px" height="96px" viewBox="-0.2 4.1 99.95 95.85000000000001"><defs><g id="c1"><path fill="#ffffff" stroke="none" d="M82.85 85.6 L82.1 86.05 Q81.7 86.35 81.8 86.95 L79.85 86.9 77.85 87.2 78.3 86.7 77.85 86.15 Q77.15 85.5 75.85 85.15 L73.6 85.05 70.2 83.35 Q68.35 82.45 67.5 81.35 61.05 80.9 60.9 74.2 60.35 74.6 60.25 76.55 60.15 78.1 60.35 79.5 L61.6 82.7 Q62.5 84.65 61.95 85.85 L64.95 91.95 Q66.9 96.35 67.35 99.95 L51.95 99.95 Q51.5 98.9 51.35 97.8 L49.95 99.95 33.9 99.95 Q35.0 94.9 38.65 88.8 38.45 85.9 39.55 83.2 L41.3 79.0 Q40.8 78.35 41.0 76.15 41.15 73.8 40.75 72.9 38.55 71.6 36.55 68.4 37.0 65.25 34.2 61.95 31.15 58.25 31.0 55.7 29.05 55.15 28.7 52.2 L27.85 46.65 27.0 45.65 26.0 44.8 Q24.7 43.05 24.4 39.2 L23.85 32.35 Q22.55 29.05 23.1 23.6 L24.5 14.5 24.35 14.45 23.75 13.5 Q23.5 12.25 23.55 11.2 L21.95 11.2 Q21.25 11.8 20.4 11.8 19.45 11.8 18.8 11.15 18.1 10.45 18.1 9.5 18.1 8.55 18.8 7.9 19.45 7.2 20.4 7.2 21.35 7.2 22.15 8.0 L23.95 8.0 23.95 7.85 24.15 7.1 Q24.3 6.75 24.8 6.6 L25.8 6.65 26.75 6.85 Q27.35 6.45 27.8 6.4 L29.0 6.6 Q29.75 6.05 30.2 6.05 30.8 5.55 31.55 5.85 32.25 6.1 32.5 6.85 L32.4 8.0 34.2 8.0 34.2 5.1 32.8 4.1 37.65 4.4 36.3 4.85 36.4 6.75 Q37.05 8.35 38.05 8.35 39.35 8.35 40.4 7.1 L79.8 7.1 83.5 9.55 80.2 11.3 40.3 11.7 Q39.35 10.7 38.25 10.8 37.45 10.85 36.65 12.6 L36.75 14.7 38.2 15.7 32.7 15.7 34.2 14.55 34.2 11.2 33.75 11.2 Q33.8 12.4 32.65 14.4 L30.6 15.1 30.45 15.2 Q30.1 17.75 31.7 24.2 33.1 29.8 31.8 32.9 32.85 33.85 34.1 36.25 L36.05 40.6 35.75 40.7 Q35.55 40.6 35.5 40.85 L39.15 44.35 Q41.35 46.45 43.4 46.65 L43.2 46.35 43.5 46.35 Q44.05 46.25 44.2 45.2 L44.3 43.75 Q44.45 42.7 43.9 41.5 L42.9 39.35 Q42.65 38.45 42.85 37.15 L43.35 34.9 43.0 34.65 43.25 33.95 42.85 33.25 Q42.8 32.65 43.5 31.8 L44.65 30.75 45.9 29.75 47.15 29.4 Q48.15 28.9 48.4 28.85 L50.85 28.25 Q49.75 28.7 49.2 29.45 L48.7 29.8 50.35 30.25 52.15 30.35 51.35 31.05 53.3 31.95 Q54.5 32.55 54.95 33.25 L54.9 33.25 Q57.0 34.45 57.35 35.1 L58.1 35.55 Q57.7 35.5 56.85 34.95 56.1 34.45 55.55 34.5 L57.3 36.3 58.75 38.2 57.35 37.95 55.85 37.7 56.55 39.05 56.05 39.1 56.35 40.55 55.5 40.55 55.35 41.85 55.8 42.35 57.15 43.6 58.15 45.0 57.3 44.7 56.45 44.4 54.9 44.2 Q54.85 44.5 55.15 45.05 L55.5 45.85 55.7 45.95 55.05 46.05 Q54.85 46.15 54.8 46.75 L54.55 46.75 54.15 46.15 Q54.25 47.25 54.6 47.8 54.75 48.6 55.35 49.4 L56.4 50.65 Q58.05 50.9 59.45 52.25 L61.7 54.6 Q64.55 55.15 65.95 57.7 67.4 60.2 66.7 63.6 68.6 66.65 67.75 71.05 L70.0 72.8 Q71.35 73.8 71.2 75.55 71.6 76.0 73.0 77.05 74.25 77.9 74.65 78.7 77.0 78.45 79.3 79.35 L83.15 80.85 Q82.55 81.6 82.55 83.05 L82.85 85.6"/><path fill="#f1f2f2" fill-opacity="0.8" d="M99.75 64.55 L99.75 68.35 85.65 82.65 85.5 81.85 Q84.65 79.1 82.55 77.5 80.75 76.15 77.7 75.35 L99.75 64.55 M-0.2 77.05 L-0.2 74.3 26.05 81.1 6.05 53.6 34.05 72.9 31.95 65.55 Q34.95 70.0 36.0 72.15 37.75 75.6 36.5 79.55 35.8 81.85 33.6 86.65 33.1 88.05 32.8 90.5 L32.25 94.4 30.5 99.95 17.05 99.95 Q9.3 99.95 4.6 95.1 3.75 94.35 3.05 93.3 L21.35 91.55 -0.2 77.05 M72.5 72.1 Q71.4 70.4 70.75 68.55 L70.65 65.65 90.45 45.05 76.75 75.1 Q75.25 74.7 74.4 74.15 73.4 73.45 72.5 72.1 M68.05 54.75 Q66.2 52.55 62.55 51.5 L69.55 35.65 68.05 54.75 M85.45 85.05 L99.7 83.55 Q99.55 87.5 98.2 90.65 L86.15 96.35 91.7 97.7 Q87.75 99.95 82.5 99.95 L69.65 99.95 Q70.1 97.3 69.0 93.1 L67.0 87.1 65.5 83.6 67.75 85.3 Q72.6 88.9 74.75 89.85 79.15 91.8 82.7 89.75 85.55 88.05 85.45 85.05"/></g></defs><g><g><use transform="matrix(1.0,0.0,0.0,1.0,0.0,0.0)" xlink:href="#c1"/></g></g></svg>