<?xml version='1.0' encoding='UTF-8'?>
<svg xmlns="http://www.w3.org/2000/svg" xmlns:xlink="http://www.w3.org/1999/xlink" version="1.1" width="87px" height="96px" viewBox="7.0 4.15 87.4 95.69999999999999"><defs><g id="c1"><path fill="#ffffff" stroke="none" d="M57.7 55.15 L56.15 55.55 Q55.05 55.7 54.55 56.0 53.95 56.35 53.6 57.25 L53.0 58.8 Q52.6 59.6 51.55 59.65 50.65 59.7 49.75 59.2 L49.45 59.55 49.9 59.55 50.8 59.95 51.65 60.45 52.5 60.7 53.35 60.6 55.15 60.25 Q55.95 59.95 56.15 58.85 L56.25 57.85 Q56.35 57.35 56.6 56.95 L57.75 55.65 Q59.3 53.4 59.2 52.2 58.9 54.45 57.7 55.15 M64.8 70.8 L65.35 69.8 67.05 67.6 Q64.7 69.0 63.5 69.05 L60.9 69.3 58.25 69.45 58.65 70.0 58.85 70.6 61.1 70.95 62.6 71.45 64.05 71.6 Q64.4 71.5 64.8 70.8 M69.4 61.55 L67.8 61.35 66.3 60.8 64.75 60.7 64.7 60.8 Q61.95 61.4 58.75 63.65 57.55 64.45 56.15 64.4 L54.15 64.3 Q52.85 64.45 53.65 65.5 L53.65 65.95 53.45 66.0 Q53.65 67.0 54.7 66.7 L56.35 65.95 59.75 65.25 61.8 65.1 63.0 65.15 64.15 65.1 Q64.75 64.95 65.85 64.25 L67.5 63.2 69.05 62.45 70.85 62.05 Q70.45 61.7 69.4 61.55 M15.9 92.35 L15.8 92.55 Q15.25 92.65 14.4 93.1 L18.25 94.05 21.0 94.65 22.55 95.05 24.05 95.25 Q24.0 94.3 22.7 93.45 21.6 92.75 20.45 92.55 L15.9 92.35 M19.7 84.95 L18.5 84.7 17.3 84.95 17.55 85.05 17.4 85.15 Q17.45 85.7 19.55 86.15 L22.3 86.65 25.05 87.15 26.35 87.45 27.5 87.8 25.3 86.3 22.75 85.4 21.25 85.2 19.7 84.95 M15.45 78.75 L17.3 78.0 15.0 70.2 18.55 78.95 28.6 82.5 Q29.3 80.1 30.4 79.85 L33.8 79.35 37.65 79.65 41.15 81.75 43.3 83.2 45.65 87.9 44.35 92.35 46.1 99.85 32.9 99.85 Q34.25 96.35 35.35 94.6 L35.85 94.55 35.6 93.65 Q35.4 93.05 35.5 92.8 L35.7 92.75 Q36.0 92.2 37.15 91.6 L39.0 90.95 37.75 90.8 36.45 90.65 37.05 87.95 36.25 87.8 Q36.55 87.45 36.3 86.85 L35.8 85.9 35.35 85.0 34.25 84.9 32.1 84.95 Q30.7 84.85 30.2 84.2 L29.0 83.75 Q29.55 85.2 30.85 86.05 L33.7 86.2 33.8 86.45 35.0 87.15 Q35.4 88.55 34.5 89.3 L33.2 89.95 Q32.25 90.3 31.9 90.65 32.6 91.05 33.1 92.25 33.6 93.4 33.4 94.15 33.25 94.8 32.3 95.6 L30.85 96.8 29.8 96.75 28.8 96.5 26.6 96.55 27.05 97.85 Q27.1 98.4 26.5 99.05 L25.65 99.85 17.7 99.85 Q12.8 99.85 9.1 97.9 L8.85 96.75 10.9 94.65 9.85 89.9 12.2 87.6 12.85 84.0 15.45 78.75 M37.35 73.5 L39.4 74.05 31.9 64.3 31.85 66.65 32.5 71.45 30.25 73.2 33.65 72.9 37.35 73.5 M22.8 72.6 Q23.8 72.1 24.0 71.05 L24.15 68.75 24.0 67.75 24.5 65.4 24.0 66.05 22.85 66.95 Q21.6 67.45 20.45 66.55 20.05 66.2 19.4 63.2 L20.4 60.05 19.4 61.25 Q18.45 62.7 18.75 63.8 L21.9 72.95 22.8 72.6 M11.9 42.15 L11.55 41.85 11.8 43.15 Q12.2 43.85 13.2 43.8 13.85 43.8 14.9 42.7 L15.8 41.55 15.0 42.15 Q14.05 42.75 13.5 42.85 12.6 43.0 11.9 42.15 M17.85 34.7 L16.3 32.25 15.2 30.6 16.55 35.55 Q16.9 37.2 15.7 38.25 L17.0 40.4 16.5 42.25 23.0 54.8 23.85 54.8 25.75 55.35 29.65 62.6 30.95 60.9 26.3 52.6 23.5 49.6 17.7 39.35 18.05 38.15 Q18.35 35.75 17.85 34.7 M15.15 27.05 Q14.95 26.5 14.1 26.35 L12.35 26.6 Q11.45 27.0 10.95 27.7 10.5 28.35 10.75 28.9 11.0 29.45 11.8 29.6 L13.5 29.35 14.9 28.3 Q15.4 27.6 15.15 27.05 M16.05 25.15 Q15.8 25.5 15.95 25.55 L17.0 25.85 29.2 46.75 29.7 48.35 33.25 54.65 34.1 54.9 39.75 64.7 41.2 64.8 42.0 67.35 41.65 68.15 42.9 69.8 43.75 70.25 44.15 72.7 42.6 79.7 40.8 77.9 38.55 75.95 36.75 75.7 35.4 75.6 32.4 76.4 31.05 76.3 Q29.6 76.25 29.2 76.6 L29.0 76.95 Q27.8 77.45 27.15 78.7 L24.55 77.75 19.8 76.55 Q18.5 74.7 16.8 70.25 L14.9 64.9 Q14.3 62.9 14.6 62.4 L15.6 60.2 16.5 57.85 16.9 56.5 Q15.8 55.45 16.05 54.75 L16.2 53.65 16.15 53.1 10.15 42.4 10.85 40.3 7.8 35.55 Q7.0 33.75 7.5 33.0 L8.5 31.3 8.2 30.35 9.45 28.3 Q10.8 26.25 11.15 26.2 L13.0 25.7 13.85 25.2 16.05 25.15 M45.25 40.2 L41.95 39.75 38.6 39.1 36.75 38.55 Q35.6 38.1 34.9 38.15 L33.5 38.65 32.0 39.1 Q31.9 39.6 35.15 41.4 L37.2 42.3 Q38.45 43.05 38.35 44.1 40.75 44.95 42.6 43.55 L42.3 45.55 41.8 47.5 43.35 45.45 43.9 44.1 44.4 42.9 Q44.1 42.2 44.8 41.6 L45.05 41.6 45.25 40.2 M59.7 28.55 Q58.25 28.8 57.35 29.5 L56.55 30.35 55.7 31.0 55.65 31.25 55.35 31.5 55.1 31.5 55.05 31.75 54.8 31.8 53.35 33.0 51.6 34.0 Q51.3 34.2 49.75 35.15 L48.0 36.4 47.45 36.2 46.45 36.05 45.4 35.85 Q46.05 36.7 46.9 36.8 L47.7 36.75 48.45 36.55 52.25 36.65 49.7 39.1 51.7 39.15 52.6 39.45 53.35 39.85 55.2 40.6 56.75 41.8 Q58.15 42.6 60.4 42.4 L64.3 41.75 62.25 41.5 Q60.25 41.35 58.85 40.3 59.4 39.8 60.45 39.35 61.45 38.9 62.25 38.8 L62.3 38.6 Q63.0 38.55 64.15 37.25 L64.65 36.15 65.0 35.0 66.0 34.1 67.15 33.35 69.55 31.8 68.65 31.95 67.75 31.95 Q68.15 31.35 67.9 31.0 67.75 30.7 67.0 30.4 67.8 29.9 69.7 29.2 L73.05 27.9 Q72.2 27.5 70.9 27.4 L68.65 27.35 66.3 27.2 64.05 27.45 59.7 28.55 M81.1 46.2 L82.1 42.25 Q82.25 41.7 82.0 41.05 L81.55 39.8 Q81.3 38.35 80.85 37.5 L80.65 38.95 80.4 40.4 80.2 40.55 Q80.0 43.6 78.85 45.0 77.55 46.55 76.4 48.65 75.7 49.9 75.55 50.45 75.3 51.35 75.6 52.4 L75.85 55.25 Q75.95 56.05 76.45 56.9 L76.55 59.05 76.35 61.25 76.45 65.95 Q76.6 63.85 77.9 61.4 L80.2 57.15 80.85 55.3 80.75 53.25 80.7 49.0 Q80.65 47.35 81.1 46.2 M83.75 19.3 Q88.5 15.25 89.95 14.75 90.9 14.4 92.25 17.45 93.5 20.2 93.6 21.8 94.0 26.75 92.55 30.75 90.7 35.8 86.55 35.95 88.0 38.95 91.8 45.2 94.4 50.8 92.05 55.05 90.0 58.8 85.4 64.05 L78.1 72.6 76.55 74.95 Q75.45 76.55 74.65 77.05 72.85 78.2 68.1 78.05 L61.2 77.4 55.05 70.75 50.65 67.1 46.0 59.8 38.6 52.2 36.6 44.45 33.7 42.95 30.55 40.3 30.85 37.55 27.0 23.75 27.0 18.15 33.8 19.0 34.0 17.3 35.3 19.4 36.45 15.0 36.55 18.7 41.3 12.6 40.3 18.05 45.1 13.15 63.5 4.15 65.9 18.15 72.45 20.25 77.8 26.75 80.1 36.0 84.25 32.25 82.8 24.95 83.75 19.3"/></g></defs><g><g><use transform="matrix(1.0,0.0,0.0,1.0,0.0,0.0)" xlink:href="#c1"/></g></g></svg>