<?xml version='1.0' encoding='UTF-8'?>
<svg xmlns="http://www.w3.org/2000/svg" xmlns:xlink="http://www.w3.org/1999/xlink" version="1.1" width="90px" height="97px" viewBox="5.45 2.45 89.89999999999999 97.1"><defs><g id="c1"><path fill="#ffffff" stroke="none" d="M37.45 75.6 L39.6 76.0 40.25 76.55 40.75 77.25 42.15 78.5 Q43.05 79.4 42.75 80.15 44.25 80.0 46.25 79.05 48.45 77.9 49.5 77.4 51.7 76.45 54.75 75.65 L56.1 75.5 57.25 75.15 53.85 74.0 51.4 73.55 48.95 73.05 47.0 72.45 44.85 72.55 42.6 73.15 40.2 73.4 40.85 73.0 Q40.1 73.05 38.95 74.0 L37.45 75.6 M36.1 73.0 Q35.2 73.05 33.65 73.7 L31.2 74.65 31.1 74.4 30.0 75.5 Q31.0 75.9 31.2 76.05 31.8 76.55 31.1 77.1 L33.05 77.15 32.9 80.5 32.5 83.8 Q32.1 87.65 32.1 91.2 L32.75 89.15 33.1 87.0 34.35 81.45 35.1 77.05 Q35.45 74.1 36.1 73.0 M48.85 38.0 L47.2 37.9 45.45 37.65 44.6 38.15 Q42.95 39.0 40.05 43.25 38.65 45.2 37.35 49.05 36.7 50.95 36.35 53.3 36.35 50.5 35.95 48.15 35.2 47.7 34.75 45.3 L34.3 42.05 33.55 39.05 32.6 36.35 Q32.6 38.0 32.3 38.75 L32.6 39.15 32.6 39.5 Q32.3 40.15 32.45 41.5 L32.85 43.6 33.45 46.9 34.1 52.5 34.3 55.25 34.6 58.0 Q34.65 58.6 35.0 59.4 L35.6 60.8 Q35.6 62.55 35.85 63.35 36.3 62.75 36.6 60.85 L36.95 58.0 Q37.25 56.65 38.5 53.15 38.85 52.1 39.8 50.7 L41.45 48.25 43.1 45.65 44.15 44.45 44.85 43.15 45.6 42.1 46.2 40.85 Q46.4 40.55 47.4 39.9 48.2 39.35 48.25 38.8 L48.85 38.0 M85.05 60.8 L85.15 61.0 93.35 64.75 93.5 64.7 93.65 64.75 93.95 64.5 94.55 65.0 Q94.75 65.35 94.55 65.6 L95.35 66.0 94.65 67.35 93.85 67.0 93.45 67.8 93.35 68.35 92.95 68.8 91.4 68.05 91.2 68.3 88.8 67.15 87.6 66.55 86.45 66.05 Q85.15 65.65 84.25 66.65 L83.9 67.3 83.5 67.9 Q81.25 67.7 80.1 66.7 L79.55 66.2 Q78.8 65.75 77.75 66.9 L76.25 68.55 75.25 70.2 75.2 70.5 75.0 70.8 72.9 69.55 71.3 70.65 63.25 65.3 Q58.35 62.1 56.45 58.75 55.95 59.95 54.7 61.15 L52.6 63.2 Q52.0 65.6 53.7 67.55 L56.45 70.35 Q58.05 72.9 58.85 76.55 L58.85 78.0 Q58.7 79.0 58.85 79.55 58.95 79.95 59.4 80.4 59.9 80.9 60.0 81.3 L60.05 82.25 60.0 83.4 Q60.25 84.8 61.3 87.05 61.9 89.05 60.6 90.8 60.6 91.6 61.35 92.9 62.0 94.0 61.8 95.25 L64.4 99.55 48.5 99.55 Q46.25 96.5 43.4 95.25 41.9 96.2 38.8 96.75 L33.6 97.65 Q33.25 98.55 33.2 99.55 L13.65 99.55 Q10.3 99.55 7.7 98.75 7.55 95.8 8.95 93.95 L12.25 90.8 18.35 84.5 Q22.25 80.85 26.2 79.55 L27.3 77.7 28.25 75.7 24.55 78.1 Q22.15 79.8 20.55 78.05 22.05 76.3 24.85 74.65 L29.75 71.85 Q31.05 69.0 30.25 65.75 28.95 62.25 28.55 60.55 28.35 59.7 28.3 57.9 28.25 56.4 28.0 55.8 27.2 54.0 22.9 50.65 L16.4 45.7 Q10.55 40.8 8.35 36.9 5.45 31.7 5.75 23.75 9.0 22.6 12.85 22.3 16.7 17.15 18.1 14.65 L16.8 13.9 17.2 13.15 16.95 12.9 17.8 11.1 Q18.3 10.0 18.75 9.4 L19.25 9.7 Q20.2 10.35 20.85 10.55 L22.8 11.15 Q24.2 11.6 24.55 10.85 L24.75 10.2 Q25.25 8.8 26.95 7.65 L27.55 7.95 28.1 8.3 Q29.3 8.6 30.15 7.75 L31.5 5.7 32.85 3.65 33.15 3.75 34.0 2.45 34.55 2.6 34.9 3.0 35.6 3.45 36.05 2.8 37.25 3.55 36.8 4.25 37.1 4.75 36.9 5.4 36.5 5.35 36.4 5.45 36.25 5.5 31.45 12.35 31.5 12.55 28.65 16.5 28.75 16.95 28.6 17.4 28.15 17.25 27.55 18.0 Q26.95 18.15 26.85 18.25 26.7 18.95 26.25 18.6 L25.75 17.85 25.95 17.9 25.4 17.7 25.3 17.85 Q22.3 18.45 21.55 18.8 19.6 19.65 19.1 21.7 18.95 22.25 19.1 23.85 L19.1 26.45 18.3 28.95 Q17.75 30.05 17.9 30.6 18.2 32.0 20.0 32.65 22.3 33.5 22.65 33.85 24.75 32.85 28.25 33.85 31.95 34.9 33.3 34.45 32.9 33.5 32.45 31.35 32.05 29.45 31.55 28.5 L31.25 28.05 31.2 27.5 30.75 26.05 30.75 25.9 Q30.75 25.15 30.25 24.55 L29.9 22.3 30.2 18.9 30.6 17.9 Q30.85 15.45 36.1 14.1 39.25 14.35 41.3 17.05 43.3 19.75 43.4 23.75 L43.4 30.15 Q43.75 33.1 46.4 34.45 L48.05 34.8 49.65 35.05 Q51.85 35.8 54.4 37.3 57.05 38.8 58.25 40.1 L59.0 41.6 59.75 43.05 62.65 45.6 Q64.5 47.25 64.75 49.3 71.5 53.35 73.95 59.35 L75.55 60.0 75.8 59.95 76.45 59.55 77.0 58.95 76.8 59.1 Q76.7 58.5 76.85 58.1 77.05 57.55 77.6 58.1 L78.4 57.95 79.35 58.3 79.7 57.95 80.05 58.25 80.25 58.7 85.05 60.8"/></g></defs><g><g><use transform="matrix(1.0,0.0,0.0,1.0,0.0,0.0)" xlink:href="#c1"/></g></g></svg>