<?xml version='1.0' encoding='UTF-8'?>
<svg xmlns="http://www.w3.org/2000/svg" xmlns:xlink="http://www.w3.org/1999/xlink" version="1.1" width="95px" height="92px" viewBox="2.75 7.95 94.75 92.1"><defs><g id="c1"><path fill="#ffffff" stroke="none" d="M9.8 43.1 L9.8 43.35 9.7 44.35 10.7 45.2 10.6 45.0 Q10.0 44.15 10.65 43.3 L10.7 43.05 10.55 43.05 10.2 42.95 Q9.95 42.95 9.8 43.1 M5.9 42.75 L5.9 42.7 5.5 42.95 5.25 42.95 5.15 43.05 4.8 43.85 4.9 44.25 5.1 44.2 5.15 44.15 5.2 44.0 5.2 43.95 5.9 42.75 M48.0 13.8 Q48.75 12.2 49.6 11.3 50.5 10.35 52.65 9.8 L57.15 9.6 Q59.05 9.9 60.65 11.05 L61.8 12.1 64.05 16.75 63.65 19.7 64.4 21.45 64.3 28.35 62.15 30.8 60.2 30.8 59.6 34.45 62.55 36.7 64.85 36.7 68.3 38.0 69.7 39.65 71.25 46.3 70.2 49.8 70.95 50.95 Q72.6 52.15 72.7 54.9 L72.85 55.95 Q73.9 55.2 75.7 54.2 L78.55 52.65 82.5 50.25 Q84.95 48.55 85.75 46.85 85.75 46.5 85.9 46.35 86.15 45.15 88.3 45.15 L91.35 44.75 91.55 44.45 91.6 44.0 91.1 44.1 90.25 44.35 Q89.9 44.55 89.75 44.1 89.6 43.7 89.9 43.5 L90.1 43.4 90.25 43.25 90.3 43.25 90.35 43.05 Q89.9 42.85 90.05 42.45 L90.1 42.2 Q89.8 41.6 90.4 41.45 L90.5 41.45 93.7 41.2 94.0 41.3 94.35 41.3 95.75 41.25 Q96.2 41.6 96.25 42.5 L96.35 42.45 96.5 42.2 Q96.65 41.8 97.1 42.0 97.5 42.2 97.4 42.6 L96.6 44.85 96.2 45.6 96.15 46.0 95.95 46.9 95.8 47.15 94.7 48.3 91.6 49.05 91.6 49.0 91.55 49.05 Q90.0 49.3 88.55 50.55 L86.25 53.15 82.25 57.45 78.55 61.05 75.7 63.75 72.7 66.25 72.75 66.3 72.7 66.3 Q71.5 67.4 70.5 66.6 L68.9 65.55 68.95 66.9 69.2 68.7 Q68.9 71.1 70.3 76.65 L71.75 83.95 76.6 97.35 76.95 100.05 61.35 100.05 58.95 89.85 54.8 89.2 47.5 100.05 31.55 100.05 43.95 69.55 43.7 65.95 44.7 61.55 42.4 56.35 42.4 52.45 41.25 54.75 35.0 62.55 34.6 63.1 Q33.9 64.1 32.95 64.0 L31.95 63.65 Q29.3 62.6 25.0 60.05 19.3 56.7 18.3 54.8 L17.95 54.45 17.8 54.25 14.95 51.35 14.05 50.35 11.9 49.85 9.6 49.2 7.0 48.45 Q6.45 48.4 5.35 47.6 L3.7 46.25 2.95 45.6 2.75 45.1 2.75 44.5 3.85 42.05 4.25 41.8 4.3 41.7 4.7 41.6 4.75 41.6 5.5 41.6 6.2 41.75 6.5 41.9 6.75 41.55 Q6.7 41.3 6.9 41.1 7.1 40.9 7.35 40.95 L8.95 41.2 Q9.3 41.25 9.3 41.7 L9.7 41.75 11.0 42.05 11.15 42.1 11.5 42.5 12.0 42.6 12.7 43.2 13.0 43.35 Q13.45 43.5 13.35 43.8 L13.35 44.15 13.7 44.5 13.65 45.1 13.1 45.2 14.0 46.15 14.05 46.6 16.4 47.1 16.6 47.35 16.8 47.7 22.95 51.2 25.3 51.8 Q28.4 52.95 30.55 54.25 L30.9 49.75 33.1 44.4 34.1 39.5 37.1 34.45 40.25 33.25 43.05 33.1 47.65 30.9 48.75 30.1 Q49.95 28.95 50.1 27.2 50.2 26.35 48.25 23.3 46.3 20.4 47.0 16.6 47.15 15.4 48.0 13.8"/></g><g id="c2"><path fill="#ffffff" stroke="none" d="M0.65 8.65 Q1.6 5.25 0.95 3.35 0.0 0.7 0.0 0.0 L0.05 0.15 1.8 2.5 Q2.7 3.8 2.4 5.4 L1.8 7.45 1.35 9.55 Q1.25 10.6 2.75 12.7 L3.8 13.8 Q4.65 14.55 5.3 15.9 L1.4 13.95 Q-0.35 12.35 0.65 8.65"/></g><g id="c3"><g><use transform="matrix(1.0,0.0,0.0,1.0,0.0,0.0)" xlink:href="#c2"/></g></g><g id="c4"><path fill="#ffffff" stroke="none" d="M26.35 13.25 Q25.1 11.55 23.3 11.05 21.4 10.55 19.6 11.5 15.8 13.35 14.35 16.05 13.4 17.85 13.9 19.8 14.35 21.7 16.15 22.75 L18.15 23.0 Q20.25 22.8 20.35 20.85 L20.35 20.7 Q20.35 18.7 17.75 18.4 15.8 18.15 16.65 17.1 18.05 15.35 20.35 15.15 L24.15 15.5 Q24.8 15.9 24.35 16.05 L23.1 16.2 Q20.9 16.65 22.65 18.9 L23.55 19.6 24.65 19.45 Q25.85 18.9 26.6 17.05 27.45 14.85 26.35 13.25 M14.75 13.9 L16.45 12.2 Q18.05 10.6 19.5 10.0 L24.55 9.7 Q27.95 10.5 28.4 13.7 28.85 16.65 27.25 18.9 L23.9 22.75 Q23.1 23.9 22.35 26.65 21.65 29.25 20.65 30.45 19.85 31.45 19.5 32.8 19.1 34.3 19.5 35.45 L21.45 40.5 Q21.85 41.65 20.95 44.1 L20.95 44.05 Q20.7 43.05 20.85 41.7 20.75 40.8 20.3 40.1 L19.5 38.8 18.65 37.75 17.6 36.85 Q15.85 35.3 16.35 33.35 17.2 31.1 17.2 29.85 17.2 27.7 15.6 25.6 13.4 22.85 12.95 19.8 12.45 16.25 14.75 13.9"/></g><g id="c5"><path fill="#ffffff" stroke="none" d="M4.3 3.75 Q3.45 5.2 3.45 6.95 L3.9 12.35 Q4.25 15.35 3.8 17.0 3.3 19.0 1.6 20.0 L1.1 17.85 0.05 14.4 Q-0.2 12.4 0.95 10.65 2.15 9.0 2.45 6.3 2.6 4.8 3.95 3.0 L6.45 0.0 Q6.35 1.0 5.6 2.0 L4.3 3.75"/></g><g id="c6"><g><use transform="matrix(1.0,0.0,0.0,1.0,0.0,0.0)" xlink:href="#c5"/></g></g><g id="c7"><path fill="#ffffff" stroke="none" d="M3.15 8.5 Q3.85 12.2 2.65 13.75 L0.0 15.7 Q0.45 14.3 1.0 13.6 L1.75 12.5 Q2.75 10.4 2.65 9.4 L2.35 7.35 1.95 5.3 Q1.75 3.7 2.35 2.45 L3.5 0.15 3.6 0.0 2.95 3.3 Q2.5 5.15 3.15 8.5"/></g><g id="c8"><g><use transform="matrix(1.0,0.0,0.0,1.0,0.0,0.0)" xlink:href="#c7"/></g></g><g id="c9"><path fill="#ffffff" stroke="none" d="M84.3 9.6 Q82.85 9.15 81.6 10.25 80.4 11.3 80.25 13.05 80.05 14.8 80.65 15.7 80.6 14.3 81.25 13.8 L82.2 13.65 Q82.8 12.75 84.3 13.05 86.1 13.4 86.2 16.05 L86.35 17.4 86.85 18.05 87.65 18.25 Q88.45 18.0 88.55 16.0 88.65 14.05 87.85 13.05 86.6 10.3 84.3 9.6 M79.35 12.6 Q79.7 9.5 81.7 8.55 83.0 7.95 85.1 8.1 86.2 8.2 87.45 9.2 L88.8 10.5 Q90.35 12.8 89.85 17.5 89.5 21.65 87.95 24.45 86.85 26.4 86.85 28.6 86.85 29.85 87.45 32.0 87.8 34.0 86.65 35.5 L85.35 37.45 84.8 38.7 84.4 40.3 84.35 42.65 84.3 42.7 Q83.75 40.15 84.0 39.1 L85.35 34.15 Q85.85 31.65 84.55 29.15 83.9 28.0 83.45 25.4 82.95 22.75 82.35 21.65 80.7 19.1 80.15 17.8 79.05 15.55 79.35 12.6"/></g><g id="c10"><path fill="#ffffff" stroke="none" d="M1.45 3.75 L0.6 2.0 Q0.05 1.0 0.0 0.0 L1.7 3.0 Q2.6 4.75 2.7 6.25 2.95 9.0 3.7 10.55 4.5 12.3 4.35 14.25 L3.6 17.65 Q3.3 18.85 3.3 19.8 2.15 18.8 1.8 16.85 1.5 15.2 1.7 12.2 L2.05 6.9 Q2.05 5.15 1.45 3.75"/></g><g id="c11"><g><use transform="matrix(1.0,0.0,0.0,1.0,0.0,0.0)" xlink:href="#c10"/></g></g><filter id="filter6"><feColorMatrix in="SourceGraphic" type="matrix" values="1.0 0.0 0.0 0.0 0.0 0.0 1.0 0.0 0.0 0.0 0.0 0.0 1.0 0.0 0.0 0.0 0.0 0.0 0.30078125 0.0" result="cxform"/><feComposite operator="in" in2="SourceGraphic" result="color-xform"/></filter><filter id="filter8"><feColorMatrix in="SourceGraphic" type="matrix" values="1.0 0.0 0.0 0.0 0.0 0.0 1.0 0.0 0.0 0.0 0.0 0.0 1.0 0.0 0.0 0.0 0.0 0.0 0.30078125 0.0" result="cxform"/><feComposite operator="in" in2="SourceGraphic" result="color-xform"/></filter><filter id="filter9"><feColorMatrix in="SourceGraphic" type="matrix" values="1.0 0.0 0.0 0.0 0.0 0.0 1.0 0.0 0.0 0.0 0.0 0.0 1.0 0.0 0.0 0.0 0.0 0.0 0.30078125 0.0" result="cxform"/><feComposite operator="in" in2="SourceGraphic" result="color-xform"/></filter><filter id="filter11"><feColorMatrix in="SourceGraphic" type="matrix" values="1.0 0.0 0.0 0.0 0.0 0.0 1.0 0.0 0.0 0.0 0.0 0.0 1.0 0.0 0.0 0.0 0.0 0.0 0.30078125 0.0" result="cxform"/><feComposite operator="in" in2="SourceGraphic" result="color-xform"/></filter></defs><g><g><use transform="matrix(1.0,0.0,0.0,1.0,0.0,0.0)" xlink:href="#c1"/></g><g style="mix-blend-mode: normal"><use transform="matrix(0.984405517578125,0.0,0.0,0.984405517578125,11.8,25.35)" filter="url(#filter6)" xlink:href="#c3"/></g><g><use transform="matrix(1.0,0.0,0.0,1.0,0.0,0.0)" xlink:href="#c4"/></g><g style="mix-blend-mode: normal"><use transform="matrix(0.984405517578125,0.0,0.0,0.984405517578125,22.8,20.85)" filter="url(#filter8)" xlink:href="#c6"/></g><g style="mix-blend-mode: normal"><use transform="matrix(0.984405517578125,0.0,0.0,0.984405517578125,87.05,24.2)" filter="url(#filter9)" xlink:href="#c8"/></g><g><use transform="matrix(1.0,0.0,0.0,1.0,0.0,0.0)" xlink:href="#c9"/></g><g style="mix-blend-mode: normal"><use transform="matrix(0.984405517578125,0.0,0.0,0.984405517578125,78.85,19.65)" filter="url(#filter11)" xlink:href="#c11"/></g></g></svg>