<?xml version='1.0' encoding='UTF-8'?>
<svg xmlns="http://www.w3.org/2000/svg" xmlns:xlink="http://www.w3.org/1999/xlink" version="1.1" width="92px" height="93px" viewBox="4.3 3.55 92.4 92.95"><defs><g id="c1"><path fill="#ffffff" stroke="none" d="M54.85 3.55 L58.75 25.75 75.9 11.2 69.05 32.65 91.0 27.75 75.0 43.55 96.7 49.4 75.2 55.95 91.7 71.25 69.6 67.0 77.1 88.2 59.45 74.2 56.25 96.5 47.2 75.9 34.0 94.1 35.5 71.65 15.35 81.7 27.15 62.5 4.65 62.0 24.0 50.5 4.3 39.6 26.8 38.4 14.4 19.6 34.85 29.0 32.65 6.6 46.4 24.45 54.85 3.55 M44.75 31.3 L44.85 43.15 33.0 43.3 33.1 56.5 45.0 56.35 45.15 68.25 58.35 68.1 58.2 56.2 70.1 56.1 69.95 42.9 58.05 43.0 57.95 31.15 44.75 31.3"/></g></defs><g><g><use transform="matrix(1.0,0.0,0.0,1.0,0.0,0.0)" xlink:href="#c1"/></g></g></svg>