<?xml version='1.0' encoding='UTF-8'?>
<svg xmlns="http://www.w3.org/2000/svg" xmlns:xlink="http://www.w3.org/1999/xlink" version="1.1" width="92px" height="92px" viewBox="4.5 4.0 92.0 92.0"><defs><g id="c1"><path fill="#ffffff" stroke="none" d="M96.5 50.0 Q96.5 69.05 83.05 82.55 69.55 96.0 50.5 96.0 31.45 96.0 18.0 82.55 4.5 69.05 4.5 50.0 4.5 30.95 18.0 17.5 31.45 4.0 50.5 4.0 69.55 4.0 83.05 17.5 96.5 30.95 96.5 50.0 M52.8 78.9 L52.8 80.85 52.85 86.35 Q67.65 85.55 78.35 74.85 89.85 63.3 89.85 47.0 89.85 30.7 78.35 19.15 66.8 7.65 50.5 7.65 34.2 7.65 22.65 19.15 11.1 30.7 11.1 47.0 11.1 63.3 22.65 74.85 33.7 85.9 49.1 86.4 L48.8 80.75 48.75 79.85 48.2 69.5 42.45 72.2 44.35 63.55 36.3 58.05 34.95 65.75 29.0 56.15 24.45 56.9 39.0 23.35 35.9 47.3 39.35 50.1 38.2 53.75 48.4 60.45 47.8 44.3 42.55 47.85 50.4 17.3 57.35 47.95 52.55 44.4 52.8 59.8 62.9 53.15 62.05 50.65 64.75 47.3 62.55 23.55 75.6 57.6 70.9 56.05 65.5 65.85 63.8 57.4 Q63.8 57.2 59.35 60.3 L54.85 63.45 57.15 64.8 57.05 71.9 52.75 69.0 52.8 78.9"/><path fill="#ffffff" fill-opacity="0.8" d="M52.8 78.9 Q56.1 77.9 59.35 76.3 66.6 72.8 72.5 66.85 77.65 61.65 81.0 55.5 84.25 49.55 85.45 43.4 86.2 50.9 83.7 57.95 81.15 65.25 75.6 70.8 69.55 76.85 61.4 79.35 57.15 80.65 52.8 80.85 L52.8 78.9 M48.8 80.75 L45.4 80.3 48.75 79.85 48.8 80.75 M41.7 13.75 Q49.75 11.35 58.0 13.0 51.25 13.8 44.6 17.15 37.7 20.65 32.0 26.35 25.55 32.8 21.95 40.75 18.5 48.4 18.4 55.9 15.9 47.1 18.15 38.2 20.45 29.1 27.15 22.35 33.35 16.2 41.7 13.75"/></g></defs><g><g><use transform="matrix(1.0,0.0,0.0,1.0,0.0,0.0)" xlink:href="#c1"/></g></g></svg>