<?xml version='1.0' encoding='UTF-8'?>
<svg xmlns="http://www.w3.org/2000/svg" xmlns:xlink="http://www.w3.org/1999/xlink" version="1.1" width="95px" height="93px" viewBox="0.3 6.7 94.85000000000001 93.3"><defs><g id="c1"><path fill="#ffffff" stroke="none" d="M41.9 47.45 L44.9 47.35 Q45.5 46.3 46.4 46.05 L48.85 45.7 Q49.0 45.0 50.15 43.85 L50.3 43.6 51.7 39.75 Q51.7 38.85 52.0 37.05 L52.2 34.05 Q52.3 32.15 52.9 31.2 53.2 29.25 53.85 28.35 L56.65 24.65 Q58.15 22.5 58.7 20.5 L58.9 20.1 59.65 18.7 Q60.55 17.4 62.05 16.55 L65.05 15.3 65.35 15.25 Q66.55 14.95 67.6 15.75 L75.0 17.4 75.95 17.0 77.2 15.95 78.5 14.7 Q80.35 11.3 81.65 10.1 83.8 8.15 87.05 8.7 90.0 9.2 91.75 10.65 93.95 12.45 95.15 16.2 95.05 17.7 94.3 19.25 93.2 21.6 92.55 23.9 91.0 23.65 89.1 25.6 87.25 27.55 85.8 27.3 86.25 28.7 85.9 30.45 L85.3 33.35 86.25 35.3 86.6 35.75 87.25 37.9 87.8 38.5 Q88.25 39.75 88.2 42.0 L88.1 45.5 Q88.1 46.1 87.6 46.4 L87.7 46.95 87.7 47.2 Q87.65 47.75 87.2 48.05 L86.3 48.2 85.85 48.35 85.6 48.5 Q84.15 49.25 82.0 49.65 L78.3 50.3 76.25 50.75 79.05 52.8 Q80.05 53.5 82.3 54.3 84.25 55.2 84.95 57.0 85.75 59.1 83.85 62.7 L80.6 68.0 75.4 75.75 Q71.75 81.35 72.25 83.75 72.95 86.9 75.75 88.65 L81.0 90.95 Q80.35 94.0 74.6 92.8 70.5 91.85 62.4 88.25 62.9 83.75 66.2 81.5 67.45 78.75 69.35 71.75 71.1 65.4 72.85 62.15 L62.2 60.2 Q61.5 61.35 60.25 66.4 59.35 70.3 56.8 72.05 55.3 76.9 51.65 82.3 L44.5 91.75 41.7 95.0 Q40.0 96.9 39.45 98.05 L38.7 100.0 29.75 100.0 33.4 98.3 Q35.5 95.85 36.9 91.3 38.7 85.5 39.5 83.95 40.2 82.6 42.3 80.75 44.6 78.8 45.3 77.7 46.45 75.85 46.85 72.05 L47.45 65.85 48.35 62.3 Q48.85 60.3 48.7 59.15 48.6 58.0 47.8 55.95 L46.65 52.75 45.0 53.0 Q44.05 53.0 43.95 52.05 30.25 52.15 24.25 51.5 17.55 50.75 11.9 49.45 7.0 48.35 5.4 47.4 4.25 46.75 3.25 45.8 L2.45 45.0 9.75 45.7 15.15 46.2 16.65 46.3 28.2 47.25 34.75 47.6 35.5 47.6 41.9 47.45 M66.95 46.1 L68.9 46.9 72.05 46.1 75.05 45.25 77.75 43.9 80.5 42.55 79.7 39.0 Q79.2 37.05 78.6 36.05 70.4 40.15 66.95 46.1 M58.25 14.35 L55.4 18.05 15.6 14.35 58.25 14.35 M68.65 24.3 L68.7 24.2 68.55 24.3 68.65 24.3 68.2 25.2 67.55 25.8 67.55 26.05 64.45 28.55 Q63.85 29.1 63.65 30.1 L63.15 31.8 Q62.55 32.9 60.55 35.0 L59.25 36.45 Q58.4 37.4 58.15 38.05 57.8 38.95 57.65 40.75 L57.3 43.5 56.55 44.55 55.5 45.4 54.5 46.5 53.35 47.25 53.2 47.5 54.55 47.35 55.8 47.05 58.65 46.8 Q58.05 46.55 58.6 42.7 59.0 40.1 59.55 38.95 60.05 37.85 61.45 35.85 L62.35 34.25 63.15 32.6 63.7 31.85 63.95 31.8 64.65 30.9 65.0 29.7 Q65.2 29.05 65.5 28.75 L66.4 28.05 68.05 26.15 Q69.3 24.5 68.65 24.3 M79.1 6.7 L75.6 11.7 12.25 6.7 79.1 6.7 M81.65 21.1 Q81.55 20.55 81.85 19.85 L82.45 18.9 82.9 17.9 81.9 17.15 Q81.25 16.55 81.7 16.25 L81.6 15.8 81.3 16.9 80.8 19.8 80.25 21.1 Q79.95 21.9 80.05 22.45 80.35 23.45 82.0 24.85 L83.05 25.9 84.2 26.85 82.0 22.25 Q81.65 21.5 81.65 21.1 M72.0 52.05 Q74.55 50.75 75.5 50.55 L69.25 51.0 65.75 50.9 61.5 50.75 61.3 50.6 61.05 50.05 59.2 50.15 57.35 50.35 55.5 50.6 53.65 50.9 53.3 51.4 53.05 51.95 52.85 52.2 Q52.7 52.25 52.45 52.55 L51.95 52.85 50.65 52.9 49.2 52.95 47.85 52.8 47.65 52.9 48.2 53.6 48.8 54.3 50.5 54.9 52.4 54.9 54.3 54.75 57.0 54.55 59.7 54.3 Q61.35 54.3 62.65 53.5 L63.3 53.1 67.3 53.0 Q69.4 53.0 72.0 52.05"/><path fill="#ffffff" fill-opacity="0.8" d="M41.9 47.45 L35.5 47.6 34.75 47.6 34.5 46.6 Q34.05 44.85 33.5 43.95 30.5 45.45 28.2 47.25 L16.65 46.3 18.25 43.75 19.05 42.35 19.75 40.9 20.25 40.2 20.45 40.2 21.1 39.35 21.4 38.3 Q21.55 37.75 21.85 37.45 L22.6 36.85 24.15 35.15 Q25.25 33.7 24.65 33.55 L23.65 34.85 23.65 35.05 20.9 37.3 Q20.4 37.8 20.2 38.65 L19.75 40.2 18.7 41.65 17.45 43.0 16.3 44.3 Q15.55 45.15 15.3 45.7 L15.15 46.2 9.75 45.7 9.85 44.85 10.05 42.2 Q10.2 40.55 10.7 39.65 10.85 38.05 11.5 37.15 L14.0 33.85 Q15.3 31.9 15.8 30.15 L16.0 29.8 Q16.25 29.1 16.65 28.55 17.45 27.4 18.8 26.65 19.7 26.15 21.45 25.55 L21.7 25.5 Q22.85 25.25 23.7 25.95 L30.25 27.45 31.1 27.05 32.2 26.1 33.4 25.0 Q35.05 21.95 36.2 20.95 38.1 19.2 40.95 19.7 43.55 20.1 45.15 21.4 47.1 23.0 48.15 26.3 48.05 27.65 47.45 29.05 L45.85 33.15 Q44.5 32.95 42.8 34.7 41.15 36.45 39.85 36.2 40.25 37.45 39.95 39.0 L39.45 41.55 40.3 43.25 40.55 43.7 41.15 45.6 Q41.55 45.8 41.6 46.15 L41.9 47.45 M25.15 57.25 L23.6 57.1 18.3 57.0 18.1 56.9 17.9 56.35 16.25 56.5 14.6 56.65 13.0 56.85 11.35 57.15 11.0 57.55 10.8 58.05 10.6 58.3 9.8 58.85 8.65 58.95 6.2 58.8 6.0 58.95 6.5 59.55 7.0 60.15 Q7.7 60.6 8.55 60.7 L11.9 60.55 14.3 60.35 16.7 60.15 Q18.2 60.15 19.3 59.45 L19.9 59.1 23.45 59.0 Q25.35 59.0 27.65 58.15 L29.25 57.4 30.8 56.75 25.15 57.25 M33.2 56.6 L31.35 57.0 33.9 58.85 Q34.75 59.45 36.75 60.15 38.5 61.0 39.1 62.55 39.85 64.4 38.15 67.6 L35.25 72.3 30.65 79.15 Q27.4 84.15 27.85 86.3 28.45 89.1 30.9 90.65 L35.6 92.7 Q34.95 95.5 29.95 94.3 26.3 93.5 19.1 90.3 19.5 86.35 22.45 84.25 23.55 81.85 25.25 75.65 26.8 70.0 28.4 67.1 L18.9 65.35 Q18.3 66.35 17.2 70.9 16.35 74.35 14.1 75.9 12.8 80.15 9.65 84.9 L3.4 93.15 Q0.7 89.5 0.35 84.45 L2.25 82.75 3.9 80.9 Q4.95 79.25 5.25 75.9 L5.85 70.4 6.65 67.25 Q7.05 65.5 6.95 64.45 6.85 63.45 6.15 61.65 L5.15 58.75 3.65 59.0 Q2.8 59.0 2.7 58.15 L0.3 58.15 0.3 54.1 3.6 53.95 Q4.05 53.05 4.9 52.85 L7.05 52.5 Q7.2 52.0 7.6 51.55 L12.9 52.3 12.05 53.25 Q11.5 53.85 11.05 53.9 L10.95 54.15 13.25 53.75 15.75 53.5 Q15.5 53.4 15.5 52.85 L21.15 54.25 26.9 55.35 Q33.0 56.1 39.05 55.3 37.9 55.8 36.15 56.1 L33.2 56.6 M36.1 26.0 L35.9 26.95 35.4 29.55 34.9 30.7 Q34.65 31.4 34.75 31.85 35.05 32.75 36.5 34.0 L37.45 34.95 38.45 35.75 36.45 31.7 Q36.0 30.5 36.35 29.6 L36.9 28.75 37.25 27.85 36.4 27.2 Q35.85 26.65 36.25 26.4 L36.1 26.0"/></g></defs><g><g><use transform="matrix(1.0,0.0,0.0,1.0,0.0,0.0)" xlink:href="#c1"/></g></g></svg>