<?xml version='1.0' encoding='UTF-8'?>
<svg xmlns="http://www.w3.org/2000/svg" xmlns:xlink="http://www.w3.org/1999/xlink" version="1.1" width="100px" height="100px" viewBox="-0.7 0.0 100.45 100.0"><defs><g id="c1"><path fill="#f1f2f2" fill-opacity="0.8" d="M45.5 23.35 L53.05 0.0 56.2 0.0 54.15 25.1 84.95 2.65 60.15 31.55 98.25 31.5 68.25 38.65 Q67.45 36.4 63.05 34.6 L56.7 32.4 Q52.8 30.85 50.75 32.9 50.1 33.55 49.45 35.6 L48.95 37.65 48.35 35.3 Q46.85 30.8 41.45 29.2 36.8 27.8 31.9 29.05 30.7 29.35 30.4 30.6 30.05 31.85 30.85 32.7 L30.8 33.0 2.35 12.4 37.5 27.05 28.7 0.0 31.3 0.0 45.5 23.35 M-0.65 43.55 L-0.65 43.3 -0.7 43.55 -0.65 42.8 31.35 35.2 31.85 36.05 34.45 38.65 Q35.95 40.15 36.0 41.75 L35.95 41.8 34.1 43.65 34.25 43.5 -0.65 43.55"/><path fill="#ffffff" stroke="none" d="M46.7 47.45 L45.15 49.0 Q42.9 50.65 39.6 51.1 L31.95 50.75 28.25 49.9 31.6 48.35 33.1 49.35 Q34.85 50.35 36.3 50.05 37.75 49.75 39.2 48.35 L40.3 47.05 45.2 46.65 46.7 47.45"/><path fill="#ffffff" stroke="none" d="M40.25 37.55 Q39.55 36.0 37.0 34.15 L34.6 32.6 38.95 32.95 Q40.65 33.25 44.45 37.25 45.2 38.1 45.5 39.85 45.8 41.35 46.55 41.85 48.05 42.85 51.55 41.55 L48.15 46.15 46.0 45.3 42.25 45.15 Q41.3 40.05 40.25 37.55"/><path fill="#ffffff" stroke="none" d="M90.2 65.0 L87.85 63.75 86.4 68.2 Q84.7 73.2 83.15 75.85 80.7 79.95 76.75 84.45 L78.95 85.7 81.15 83.5 Q83.7 80.5 85.75 76.6 87.8 72.7 89.2 68.45 L90.2 65.0 M32.6 57.2 Q27.95 57.15 25.45 56.35 21.45 55.15 20.95 54.65 L14.3 61.1 21.6 57.5 Q24.95 59.0 29.05 58.85 31.6 58.8 34.45 57.95 L36.75 57.1 32.6 57.2 M59.4 50.7 L59.5 49.9 58.35 49.85 55.95 50.2 Q54.15 50.8 53.1 51.7 51.2 53.25 49.45 56.7 47.85 60.0 49.1 63.95 49.7 65.95 50.65 67.3 L55.95 59.15 58.1 54.15 59.4 50.7 M62.25 50.55 L60.85 53.85 58.1 59.7 Q56.3 63.15 51.15 70.8 L74.65 83.3 75.6 82.15 61.7 74.9 60.35 73.8 Q59.9 73.15 60.15 72.7 60.4 72.25 61.2 72.25 62.0 72.2 62.85 72.65 L77.15 80.15 Q79.4 77.3 81.2 74.05 L65.6 65.9 Q64.75 65.45 64.45 64.55 64.15 63.6 64.6 62.7 65.05 61.85 66.0 61.55 L67.8 61.7 83.3 69.8 85.15 64.6 85.7 62.55 62.25 50.55 M57.35 36.55 L57.0 37.75 62.5 40.45 61.7 42.25 99.75 62.3 99.75 82.7 Q99.75 84.8 99.35 86.95 L92.15 83.1 82.8 91.95 77.5 98.3 75.6 97.25 Q73.3 96.15 71.15 95.75 68.7 95.3 66.6 96.35 64.65 97.25 63.5 99.15 L62.95 100.0 59.9 100.0 61.15 98.2 Q62.3 95.75 60.95 92.0 59.65 88.55 57.7 87.15 L54.95 85.2 52.45 87.1 50.35 89.5 Q48.1 92.25 47.55 93.95 47.0 95.8 48.9 100.0 L47.15 100.0 Q44.2 96.85 43.95 94.7 43.75 92.45 45.25 89.6 L46.8 87.15 42.25 82.8 Q38.8 83.65 36.75 86.15 34.8 88.55 34.55 91.85 34.15 97.2 39.2 100.0 L34.5 100.0 Q32.95 98.3 32.25 95.35 L31.8 92.8 30.7 90.05 Q29.15 86.9 26.85 84.7 23.5 81.5 15.05 84.1 9.1 85.95 1.25 90.45 -0.25 87.1 -0.25 82.7 L-0.25 55.5 Q6.1 53.65 13.15 50.35 L18.9 47.4 20.85 48.55 27.4 51.05 Q34.8 53.4 39.15 52.95 42.65 52.55 44.55 51.7 46.9 50.6 49.15 48.0 L54.2 41.95 53.05 41.35 54.45 36.15 57.35 36.55"/></g></defs><g><g><use transform="matrix(1.0,0.0,0.0,1.0,0.0,0.0)" xlink:href="#c1"/></g></g></svg>