<?xml version='1.0' encoding='UTF-8'?>
<svg xmlns="http://www.w3.org/2000/svg" xmlns:xlink="http://www.w3.org/1999/xlink" version="1.1" width="85px" height="100px" viewBox="7.8 0.0 85.3 100.0"><defs><g id="c1"><path fill="#ffffff" stroke="none" d="M51.95 55.3 L51.1 55.05 50.6 54.35 49.3 54.9 Q49.95 56.35 51.0 57.0 L53.45 57.1 53.3 56.85 Q53.5 55.85 54.3 55.7 L54.4 55.55 51.95 55.3 M55.5 48.15 Q56.95 48.2 59.05 47.4 L62.5 46.2 62.55 46.0 Q63.35 45.9 63.85 45.35 62.3 43.7 59.8 43.5 L55.0 43.4 Q57.75 41.7 59.1 41.4 L61.75 41.65 64.25 42.35 Q63.25 41.2 60.7 40.55 L56.55 40.35 Q55.2 40.7 53.4 41.8 L50.55 43.55 52.0 43.55 Q52.7 43.65 53.0 44.35 50.95 45.55 53.45 47.7 55.6 49.6 57.45 49.85 L55.5 48.15 M42.05 43.4 L43.6 44.7 42.3 44.8 40.95 44.5 40.45 42.25 42.05 43.4 M73.7 10.05 L71.1 11.05 75.35 11.25 76.2 13.2 75.05 15.0 76.0 15.0 76.65 18.3 74.55 19.45 76.25 24.15 72.55 25.4 74.55 36.5 77.65 37.0 77.65 40.25 74.55 40.45 77.0 57.95 Q79.5 76.35 79.8 80.95 L81.4 100.0 75.95 100.0 Q73.5 73.6 72.55 68.0 71.55 61.65 70.35 50.1 L69.3 39.8 63.2 40.25 63.2 37.85 62.25 37.85 61.6 40.4 67.4 41.8 67.95 51.15 66.15 57.7 59.5 62.6 59.15 62.4 57.45 62.2 Q55.2 61.05 52.0 60.25 L46.25 59.0 44.75 57.0 41.85 48.6 41.15 45.5 Q42.15 46.4 42.9 46.45 L44.5 46.5 Q45.5 46.5 45.9 46.85 L46.6 47.95 47.05 49.15 47.3 49.7 47.5 51.2 47.6 51.65 Q47.95 51.15 47.3 49.7 L47.15 47.6 46.65 46.1 46.2 45.5 45.6 45.0 45.25 44.4 44.75 43.95 43.45 43.1 Q41.7 41.7 40.25 41.4 L40.2 41.1 39.5 39.1 Q43.7 36.1 48.6 34.0 53.85 31.75 58.6 31.15 60.05 33.05 63.55 33.05 L66.1 37.75 67.3 38.0 65.6 28.05 65.0 30.75 64.45 31.0 62.9 31.25 Q61.95 31.25 60.9 29.95 L59.35 28.05 Q58.75 27.6 58.45 27.7 L57.4 28.25 54.0 29.2 Q50.95 30.15 44.8 33.2 42.55 34.25 40.3 35.75 L38.4 37.15 Q37.15 38.2 37.0 38.95 36.3 39.35 35.4 40.7 34.45 42.1 33.8 42.5 L33.75 42.8 33.45 42.85 32.5 43.95 32.2 44.0 31.25 45.05 30.0 45.95 28.5 47.35 27.95 47.6 27.45 47.85 Q27.1 48.5 27.65 48.95 L28.8 49.6 30.65 51.1 34.25 54.25 37.65 57.65 Q39.65 59.4 41.8 59.95 49.1 61.45 52.7 62.75 54.65 63.45 57.35 65.1 58.65 65.9 59.55 65.5 60.0 65.3 61.25 63.95 L64.7 61.6 67.65 59.65 68.8 62.1 Q72.45 91.8 72.45 94.25 L71.65 100.0 38.45 100.0 Q38.45 94.85 37.85 91.75 37.0 87.3 37.0 80.05 L37.6 81.85 Q37.9 83.25 38.25 83.8 38.75 84.55 39.9 85.0 42.45 88.65 42.15 93.15 L43.45 90.5 Q44.3 88.7 44.3 87.65 43.0 86.55 42.2 84.1 41.3 81.2 40.6 80.25 39.45 78.65 37.0 76.9 L37.05 76.75 34.8 75.5 26.45 70.8 Q24.25 70.05 23.3 69.3 L21.7 67.55 20.2 65.7 Q17.6 62.9 16.95 61.8 L14.4 57.75 13.0 55.75 11.55 53.6 Q10.2 51.05 9.4 48.95 L8.35 46.4 Q7.8 44.7 8.05 43.6 8.35 42.1 10.9 39.8 L12.55 38.05 Q13.7 36.9 14.5 36.7 15.0 35.7 16.95 34.5 L19.85 32.75 24.0 29.75 Q25.2 28.75 34.0 24.6 L49.45 17.3 57.8 12.55 62.25 11.55 59.8 0.0 67.55 0.0 69.5 8.55 70.95 7.9 73.7 10.05 M85.5 70.15 Q88.25 75.2 88.25 75.7 L90.7 85.85 93.1 95.4 87.45 99.55 84.6 99.95 80.9 62.05 85.5 70.15"/></g></defs><g><g><use transform="matrix(1.0,0.0,0.0,1.0,0.0,0.0)" xlink:href="#c1"/></g></g></svg>