<?xml version='1.0' encoding='UTF-8'?>
<svg xmlns="http://www.w3.org/2000/svg" xmlns:xlink="http://www.w3.org/1999/xlink" version="1.1" width="100px" height="99px" viewBox="0.5 0.5 100.0 99.0"><defs><g id="c1"><path fill="#ffffff" stroke="none" d="M83.9 39.9 L82.65 48.25 68.3 66.1 68.75 59.8 83.9 39.9 M87.7 21.1 Q90.25 16.75 93.5 14.2 92.65 15.25 92.1 18.45 91.6 21.5 91.9 23.2 L94.9 22.05 97.9 20.55 100.5 19.75 100.5 31.85 99.4 33.7 100.5 33.2 100.5 45.85 97.35 45.8 Q96.2 46.0 94.45 46.85 L93.75 47.2 94.05 53.9 93.7 54.6 93.05 54.8 84.6 54.1 83.95 53.75 Q83.7 53.45 83.75 53.1 L84.75 41.6 84.6 41.25 83.45 34.85 Q82.8 31.05 82.85 28.3 83.3 29.3 84.55 29.7 85.05 25.6 87.7 21.1 M82.5 54.9 L60.65 81.15 61.75 68.65 67.45 62.45 67.0 69.1 82.5 51.15 82.5 54.9 M16.2 66.95 L16.2 64.25 27.5 77.3 27.2 72.45 31.3 77.0 32.15 86.1 16.2 66.95 M15.2 57.75 L15.45 57.85 15.4 57.65 15.2 57.75 M16.75 43.9 Q17.15 46.85 17.65 48.45 18.25 48.7 18.6 50.4 19.0 52.65 19.15 52.95 L20.3 52.5 Q20.3 53.8 18.3 55.45 L16.05 57.2 17.45 59.0 18.85 59.8 18.35 60.2 26.25 70.55 26.55 75.15 16.05 62.1 15.95 61.5 15.45 61.7 15.0 61.9 15.3 65.65 Q15.3 66.3 14.65 66.4 L8.5 66.85 Q7.85 66.95 7.75 66.25 L7.95 62.05 Q6.8 61.95 5.05 61.1 L0.95 58.7 3.3 58.95 Q2.75 57.55 0.5 57.2 L0.5 36.45 Q3.5 39.15 6.3 39.2 6.85 37.7 7.0 36.4 L7.05 33.5 Q11.05 38.55 12.15 42.95 14.05 42.95 16.1 39.25 L16.75 43.9 M52.0 34.65 L52.3 34.4 52.2 34.35 Q50.15 32.8 47.75 33.1 45.95 33.35 44.6 34.6 L44.7 34.65 Q46.2 35.85 48.35 35.85 50.5 35.85 52.0 34.65 M62.4 13.05 Q61.65 14.7 61.6 18.7 61.5 22.85 60.95 24.45 60.7 25.2 58.35 27.65 56.55 29.6 56.95 31.25 L59.0 29.4 57.1 33.9 56.45 35.25 57.4 48.2 Q57.4 48.8 57.0 49.25 56.55 49.65 55.95 49.65 L40.55 49.65 Q39.95 49.65 39.55 49.25 39.1 48.8 39.1 48.2 L39.9 38.35 39.25 38.3 Q37.45 38.0 36.75 37.1 37.75 36.75 38.1 36.7 L36.9 33.95 Q36.0 32.15 36.4 31.45 35.8 29.7 34.05 26.65 L31.45 21.9 Q35.85 23.9 37.65 22.55 36.6 20.05 36.15 16.35 35.75 13.3 35.85 10.3 L37.85 12.95 40.45 15.05 Q42.9 13.15 43.9 8.75 L45.05 0.5 52.1 0.5 Q54.9 6.6 56.95 6.8 57.9 7.75 58.8 10.1 59.9 12.9 60.5 13.8 60.7 13.55 61.2 13.15 L61.9 12.45 62.4 13.05 M4.35 96.1 L4.4 96.0 4.5 96.05 4.65 96.15 4.35 96.1 M24.35 92.6 L28.5 92.7 29.0 99.5 24.75 99.5 24.35 92.6 M26.85 81.95 L26.0 82.95 25.8 80.0 32.0 86.95 31.95 88.85 31.3 89.3 31.95 99.5 29.75 99.5 28.95 86.3 Q28.95 84.05 28.2 83.4 L27.25 82.45 26.85 81.95 M50.35 83.1 L49.2 95.5 47.05 95.65 46.6 83.1 50.35 83.1 M65.6 90.2 L71.35 90.05 70.8 99.5 64.95 99.5 65.6 90.2 M69.05 76.8 L67.9 75.45 67.35 76.1 66.05 77.45 Q65.0 78.3 65.0 81.4 L63.9 99.5 60.9 99.5 61.85 85.5 60.9 84.9 60.85 82.3 69.35 72.75 69.05 76.8 M43.15 95.05 L45.45 95.05 45.75 97.05 50.5 97.05 51.5 94.35 53.65 94.5 53.75 99.5 43.2 99.5 43.15 95.05"/><path fill="#ffffff" fill-opacity="0.8" d="M92.65 55.8 L78.7 70.4 76.65 76.7 75.1 77.55 74.35 77.8 Q74.5 82.45 74.2 83.05 L72.15 85.2 72.6 86.95 71.45 89.15 65.3 89.05 65.7 83.3 67.45 83.45 68.15 84.65 70.55 82.9 71.1 77.5 70.0 76.5 70.95 71.1 83.8 55.1 92.65 55.8 M8.8 67.6 L15.25 67.1 24.6 78.75 25.35 82.7 24.5 83.45 24.9 87.4 26.65 88.65 27.2 87.8 28.45 87.65 28.75 91.9 24.25 91.95 23.4 90.35 23.75 89.05 22.25 87.5 Q22.1 87.2 22.1 85.4 L22.15 83.65 21.6 83.5 20.45 82.85 18.95 78.25 8.8 67.6 M45.5 92.85 L43.2 92.9 39.6 51.7 56.55 51.5 53.75 92.65 51.2 92.75 51.8 81.5 45.0 81.5 45.5 92.85"/></g></defs><g><g><use transform="matrix(1.0,0.0,0.0,1.0,0.0,0.0)" xlink:href="#c1"/></g></g></svg>