<?xml version='1.0' encoding='UTF-8'?>
<svg xmlns="http://www.w3.org/2000/svg" xmlns:xlink="http://www.w3.org/1999/xlink" version="1.1" width="93px" height="91px" viewBox="4.15 4.5 92.6 91.05"><defs><g id="c1"><path fill="#ffffff" stroke="none" d="M52.55 49.7 Q52.1 50.15 51.7 51.75 L50.05 50.45 Q49.25 49.65 47.9 49.7 L47.9 49.55 46.6 51.65 Q45.85 52.95 45.7 53.8 L44.8 54.45 44.45 56.6 Q44.1 57.95 44.15 58.7 L44.3 63.15 44.2 65.35 Q44.25 66.75 44.8 67.35 45.3 67.9 46.7 67.9 48.05 67.85 48.7 67.35 48.5 66.4 49.05 65.0 L49.95 62.8 50.4 60.35 Q50.65 58.85 51.55 58.25 52.45 63.2 55.0 67.2 L56.1 67.05 57.05 66.25 Q57.75 65.65 58.15 65.45 L58.2 65.05 58.95 64.85 58.6 62.95 Q58.45 61.85 58.0 61.3 L56.85 59.7 Q56.55 59.05 56.6 57.6 L56.6 55.65 55.85 53.95 Q54.95 52.4 54.85 49.7 L54.55 49.4 Q53.15 49.05 52.55 49.7 M24.15 47.75 Q21.5 45.1 21.5 41.3 21.5 38.5 23.1 36.2 24.55 38.0 27.55 39.35 26.95 40.4 26.95 41.3 26.95 42.8 28.05 43.9 29.1 44.95 30.6 44.95 32.1 44.95 33.15 43.9 34.2 42.85 34.2 41.35 L38.4 41.15 38.85 41.15 39.6 41.35 Q39.6 45.1 37.0 47.75 34.35 50.4 30.6 50.4 26.8 50.4 24.15 47.75 M43.85 13.6 L42.65 14.35 Q42.0 14.75 41.7 15.35 L41.55 16.1 41.05 16.65 39.75 17.2 38.2 17.8 36.55 18.0 33.9 17.9 Q32.5 18.1 31.9 19.35 L31.05 21.55 29.9 23.7 Q29.0 24.9 28.8 26.55 28.6 28.25 29.15 29.7 30.6 33.4 28.55 32.5 L27.95 31.9 27.45 31.35 26.45 31.3 25.5 31.8 23.95 32.45 22.2 32.65 Q19.5 32.8 19.0 33.85 L18.6 33.9 18.55 34.35 18.3 34.4 Q17.75 35.3 17.75 36.8 L17.65 39.4 Q16.95 43.1 17.15 44.95 17.3 46.4 17.9 47.55 L19.2 49.7 20.25 52.0 Q21.1 53.5 22.2 53.35 L22.2 54.1 Q24.25 55.2 22.95 56.25 L20.3 58.4 Q21.0 58.95 20.75 60.2 20.55 61.35 19.8 62.1 L22.7 61.45 Q25.05 61.0 25.1 60.5 L25.4 59.25 Q25.95 59.0 25.95 58.1 L26.3 57.75 Q27.45 57.7 28.5 57.1 L30.45 55.7 Q31.65 54.8 33.05 54.35 L35.95 53.75 37.65 53.45 Q38.5 53.2 38.9 52.55 L39.35 50.9 39.65 49.35 Q40.05 48.65 42.2 47.95 44.1 47.35 44.15 45.95 L44.4 45.9 44.45 45.45 44.75 45.4 Q44.7 45.1 44.8 45.0 L45.2 44.95 46.1 44.15 47.0 43.4 47.6 42.4 48.0 41.3 Q47.75 41.4 46.35 42.25 45.55 42.75 44.45 42.55 L43.95 41.65 43.45 40.7 43.2 40.65 Q43.05 39.75 41.8 38.5 L39.65 36.75 Q39.35 36.5 38.3 36.15 L37.05 35.35 Q35.5 33.65 36.0 31.05 L36.1 29.8 36.4 28.6 37.15 27.75 Q37.55 27.25 37.45 26.7 L36.85 25.75 Q36.4 25.25 36.5 24.6 L36.9 23.55 37.5 22.6 38.35 21.9 39.2 21.35 42.3 18.35 Q43.75 16.65 44.55 14.65 L44.95 13.4 45.4 12.15 43.85 13.6 M83.65 34.8 Q83.45 34.05 82.9 33.6 81.5 32.25 79.85 32.2 L76.35 32.6 72.65 32.85 68.95 32.95 65.45 33.2 Q63.4 33.45 62.25 34.3 L60.1 36.4 Q58.9 37.8 58.5 38.9 57.3 39.85 57.4 41.45 L55.65 41.65 54.95 41.25 54.3 40.85 52.5 40.65 50.6 40.7 51.1 41.3 Q52.4 42.25 54.2 42.15 55.25 44.15 56.15 44.6 L57.85 45.05 Q58.5 45.25 59.0 46.4 L60.35 49.4 Q61.3 51.1 62.6 51.8 62.85 52.6 64.25 54.1 L65.75 54.55 67.35 54.45 71.15 53.8 Q74.8 53.5 77.45 52.2 L80.5 50.65 Q82.25 49.65 83.0 48.45 84.75 45.7 85.2 41.5 85.45 39.5 85.2 37.8 84.85 35.35 83.65 34.8 M82.3 24.35 L83.9 23.25 85.3 22.15 Q85.95 21.65 87.75 21.15 L90.3 20.4 94.2 18.55 93.4 23.45 92.95 27.0 92.35 30.4 Q92.05 31.5 91.8 33.9 L91.25 37.4 Q90.7 39.5 90.65 40.6 90.6 42.05 91.25 43.85 L92.2 47.1 Q92.95 49.15 94.2 49.55 L94.15 51.85 Q93.9 53.4 93.95 54.1 L96.75 54.0 Q96.55 55.2 94.85 57.0 93.15 58.8 92.95 59.95 91.8 60.55 90.0 62.35 L89.0 63.4 87.8 64.45 Q87.0 64.95 86.25 65.05 L84.55 65.15 80.55 65.0 76.55 64.85 Q74.15 64.85 73.15 65.4 71.95 66.1 71.65 68.2 70.5 74.4 72.5 75.15 71.9 75.6 71.7 76.3 71.4 77.1 71.9 77.5 L71.1 77.9 70.95 78.75 Q70.8 79.1 70.8 79.55 L70.7 81.3 70.6 83.05 70.75 87.75 Q70.8 91.65 70.3 92.05 67.95 95.2 67.45 95.25 L66.7 86.9 Q66.0 80.7 65.3 78.65 L64.3 78.95 Q63.75 79.1 63.6 79.55 63.5 79.85 63.75 80.8 L64.05 82.1 64.6 84.5 Q64.9 85.95 64.8 86.85 L64.0 89.2 63.15 91.45 Q62.55 91.8 61.4 91.05 60.25 90.3 60.2 89.65 59.3 89.8 58.8 88.75 58.2 89.0 57.95 89.95 57.7 90.9 58.0 91.55 L53.15 91.85 53.1 91.45 Q51.9 91.05 51.9 88.9 51.85 86.4 51.45 85.9 L50.35 89.3 48.85 92.2 47.05 92.1 45.25 92.0 45.35 90.75 45.4 89.5 46.05 87.0 46.05 84.5 46.0 81.95 44.65 82.2 43.2 82.1 Q42.75 83.7 42.25 86.85 L42.1 91.35 Q42.05 95.0 41.6 95.55 40.7 94.7 39.45 91.85 L37.8 87.85 36.85 89.5 36.6 89.7 36.35 90.0 34.35 88.0 Q33.25 86.7 33.1 85.5 L32.95 86.5 31.65 86.5 30.45 86.65 Q30.15 84.9 31.1 82.7 L32.95 79.1 31.35 79.0 Q30.3 78.85 29.9 78.45 29.55 78.05 29.7 77.5 L30.1 76.4 30.25 76.4 Q30.9 75.4 30.05 74.7 L28.65 73.45 28.55 72.5 28.55 71.5 27.85 69.65 27.3 67.95 Q26.95 67.3 25.85 66.8 L24.35 65.85 22.95 64.9 Q21.1 63.75 20.1 64.05 L18.75 64.75 17.3 65.5 Q16.65 65.75 15.7 66.15 14.9 66.3 14.05 65.8 L12.75 64.8 11.45 63.75 Q8.7 62.05 6.3 58.8 L5.1 57.45 Q4.35 56.6 4.25 55.9 4.15 55.35 4.5 54.25 L5.0 52.55 Q6.55 52.5 7.05 51.9 L8.0 49.85 9.0 47.8 10.0 45.85 11.2 43.4 Q11.95 41.7 11.65 40.8 L10.55 38.85 9.15 37.0 Q5.4 32.2 6.4 21.85 L6.95 18.05 7.05 17.9 Q11.25 11.6 16.15 7.45 15.85 11.65 16.25 13.75 16.5 15.0 17.85 15.2 18.3 17.0 18.85 17.9 19.65 19.2 21.0 19.25 22.8 19.3 24.75 17.8 L27.9 15.0 31.85 11.7 Q34.55 9.85 36.55 10.5 39.55 11.5 41.85 10.4 L47.85 7.15 Q50.15 5.75 53.6 4.5 L52.3 9.45 Q51.45 12.55 51.4 14.55 51.35 15.85 52.25 17.75 53.25 19.85 53.4 20.9 53.95 25.15 53.6 27.9 53.5 28.85 54.4 29.5 55.25 30.1 56.15 29.85 57.4 29.45 62.35 26.1 67.4 22.6 66.9 22.2 69.05 24.15 72.05 24.9 L77.95 25.55 Q80.0 25.6 82.3 24.35"/></g></defs><g><g><use transform="matrix(1.0,0.0,0.0,1.0,0.0,0.0)" xlink:href="#c1"/></g></g></svg>