<?xml version='1.0' encoding='UTF-8'?>
<svg xmlns="http://www.w3.org/2000/svg" xmlns:xlink="http://www.w3.org/1999/xlink" version="1.1" width="94px" height="95px" viewBox="0.7 5.25 94.14999999999999 94.75"><defs><g id="c1"><path fill="#ffffff" stroke="none" d="M94.0 24.35 L91.35 27.6 Q89.35 29.6 82.45 33.2 74.55 37.3 64.8 41.0 L62.95 41.7 64.3 42.95 Q65.45 43.95 65.9 44.05 L67.9 44.35 69.85 44.45 72.8 43.7 73.75 44.0 75.8 45.0 Q80.65 46.15 84.25 50.8 87.95 55.7 86.55 59.95 L85.55 67.95 Q85.2 70.4 84.55 80.2 L86.3 83.1 Q88.05 86.6 88.35 89.55 88.6 92.35 89.8 99.0 86.8 100.0 83.45 100.0 L77.9 100.0 Q74.15 89.1 73.9 87.75 73.45 85.5 73.9 82.65 L74.45 80.2 73.4 67.8 72.45 65.65 Q67.4 78.05 64.95 80.85 63.25 82.9 62.85 88.95 62.7 92.0 62.85 94.65 L63.9 100.0 29.55 100.0 28.15 99.9 30.4 86.45 30.2 80.15 29.15 81.85 24.8 88.15 22.7 90.6 22.25 97.55 21.3 99.45 9.45 98.1 7.95 97.2 Q9.0 91.85 11.65 86.2 12.05 84.05 13.45 81.05 14.3 79.3 16.0 77.25 L17.05 75.7 17.55 75.2 18.3 73.1 22.0 69.8 Q23.95 64.3 26.45 61.85 27.25 57.25 28.75 56.2 30.25 55.1 35.3 53.6 L40.0 52.3 40.7 51.2 43.4 50.2 46.25 49.3 50.65 47.65 49.1 47.7 51.05 46.35 53.25 44.8 52.25 45.1 Q51.95 45.45 51.05 45.65 L49.7 45.85 47.5 46.45 46.35 46.75 Q33.2 50.25 13.7 54.6 L11.45 55.15 11.3 55.15 11.3 56.3 11.4 58.0 11.2 59.65 11.4 59.7 9.85 59.75 8.25 59.05 7.05 58.15 6.55 56.55 6.45 56.1 4.2 56.65 4.0 56.2 3.75 56.25 4.0 56.7 0.7 57.3 0.7 49.05 4.65 48.4 4.55 48.0 Q4.4 47.0 4.6 46.3 5.15 44.55 6.25 43.35 L7.3 44.2 Q8.0 44.75 8.15 45.2 8.55 45.5 8.95 46.5 L9.4 47.8 Q34.35 43.6 43.35 41.4 L43.35 41.25 45.95 40.6 46.45 40.6 50.15 39.35 47.35 39.3 Q44.5 39.1 43.3 39.3 L43.2 35.6 Q40.8 33.8 40.7 32.25 L40.1 28.15 Q39.75 25.5 40.0 24.15 L40.9 20.2 Q41.4 17.7 41.0 16.35 L41.8 14.9 42.55 13.35 40.45 14.2 38.35 14.65 41.75 12.3 Q43.95 10.85 44.85 9.65 44.2 9.2 43.4 9.05 L42.3 9.2 Q45.2 6.9 51.05 5.65 L55.45 5.25 59.7 5.75 60.0 6.05 Q61.4 6.1 63.15 7.3 64.6 8.3 65.75 9.65 68.1 12.4 68.1 16.75 L67.75 24.65 66.2 29.45 63.0 31.45 62.25 35.1 73.05 31.1 94.85 22.85 94.0 24.35"/><path fill="#ffffff" fill-opacity="0.8" d="M78.0 25.65 L68.0 31.15 76.75 22.35 81.75 20.0 78.0 25.65 M81.2 38.7 L86.7 39.6 80.4 42.15 69.05 41.05 81.2 38.7 M39.8 39.0 L21.6 38.75 12.1 33.55 20.95 33.15 39.8 39.0 M39.15 36.55 L17.95 26.15 9.75 14.75 20.35 19.2 39.15 36.55"/></g></defs><g><g><use transform="matrix(1.0,0.0,0.0,1.0,0.0,0.0)" xlink:href="#c1"/></g></g></svg>