<?xml version='1.0' encoding='UTF-8'?>
<svg xmlns="http://www.w3.org/2000/svg" xmlns:xlink="http://www.w3.org/1999/xlink" version="1.1" width="100px" height="96px" viewBox="0.5 2.85 100.0 96.45"><defs><g id="c1"><path fill="#ffffff" stroke="none" d="M39.55 80.25 L39.4 79.95 39.35 80.2 39.55 80.25 39.85 81.9 40.0 83.55 Q40.15 84.3 40.7 85.05 L41.6 86.45 Q41.95 87.15 41.95 88.1 L41.8 89.7 41.7 91.6 41.45 93.5 44.25 95.55 Q46.05 96.8 46.7 98.05 47.35 97.6 50.25 96.5 L52.7 95.75 Q54.4 95.2 54.65 94.7 54.95 94.4 54.85 93.65 L54.7 92.45 55.2 90.3 55.45 87.95 55.65 85.6 55.05 86.5 54.45 87.35 Q54.25 88.05 54.85 90.1 54.35 90.4 51.25 93.25 49.15 95.25 46.9 95.2 L45.6 93.5 Q44.95 92.55 44.75 91.45 L44.3 86.9 Q44.05 84.25 42.55 82.65 L41.3 81.1 Q40.55 80.3 39.55 80.25 M20.15 42.4 L18.85 41.25 18.85 41.85 20.15 42.4 22.65 44.6 24.45 46.5 26.2 48.45 29.7 52.1 Q31.85 54.25 33.5 55.25 L35.15 56.1 Q35.1 55.05 35.7 53.2 L36.35 50.25 Q36.35 48.95 36.65 46.85 36.65 44.2 37.0 43.8 L37.0 43.0 Q36.55 43.15 35.9 44.2 L35.0 45.65 Q33.85 46.9 32.85 47.45 30.7 48.75 29.85 48.6 29.15 48.5 27.1 47.2 27.25 46.5 26.5 45.9 25.85 45.35 25.1 45.3 24.7 45.0 22.85 44.2 21.25 43.55 20.75 42.7 L20.35 42.45 20.15 42.4 M5.95 49.15 L5.85 49.3 Q6.5 50.3 8.2 51.3 L8.5 51.85 Q9.1 52.15 10.15 53.7 11.35 54.95 12.95 57.85 13.9 59.25 16.95 61.6 20.25 64.9 25.3 66.85 L27.95 67.6 Q29.55 68.05 30.5 68.65 33.1 70.15 34.95 70.55 L37.7 70.8 40.45 71.0 43.2 71.95 45.9 72.8 44.8 72.4 Q43.8 71.35 41.25 70.4 L37.35 68.95 35.5 68.15 Q34.4 67.65 33.65 67.15 30.55 64.75 29.9 65.0 L26.1 63.25 Q23.8 62.25 22.45 61.3 17.85 58.15 14.65 55.15 12.7 53.45 10.7 52.55 L8.2 51.3 7.1 50.25 5.95 49.15 M22.45 18.6 Q22.65 19.2 22.5 20.2 L22.35 21.75 Q22.35 23.1 23.1 25.25 L24.15 28.4 Q24.85 31.1 25.35 31.6 25.35 30.1 25.65 28.6 L25.95 28.5 25.95 28.3 27.45 27.5 Q28.35 27.0 28.95 26.85 28.15 26.5 27.05 25.1 L25.5 23.05 Q24.75 21.95 24.25 20.55 L23.75 19.05 Q23.35 18.05 22.8 17.95 L22.45 18.6 M29.5 11.85 L29.3 12.1 28.85 13.5 29.3 12.0 Q28.55 12.0 27.95 12.35 L28.85 13.5 29.7 14.3 30.45 15.3 31.2 16.4 Q32.05 17.65 33.35 17.5 L36.05 17.25 37.85 19.15 38.05 18.85 38.35 17.65 Q38.55 17.0 38.95 16.7 L39.05 15.85 39.35 15.8 37.8 15.95 36.25 16.0 Q35.45 14.0 33.55 12.65 31.4 11.1 29.5 11.85 M99.8 10.9 Q100.5 13.6 100.5 16.6 L100.5 18.1 85.5 44.35 Q81.95 50.0 67.9 69.75 L69.75 71.3 68.85 72.05 66.85 70.9 65.15 72.75 67.2 73.45 67.25 75.6 62.55 78.0 58.55 80.65 57.15 83.4 86.05 99.1 83.25 99.3 46.55 99.3 36.05 94.75 31.3 99.3 17.75 99.3 Q11.8 99.3 7.55 96.35 L12.25 88.4 11.15 64.95 0.5 44.55 0.5 33.75 3.25 30.4 8.0 29.15 8.1 27.6 11.5 26.85 13.1 23.2 17.15 23.9 19.75 18.15 17.85 18.85 18.7 15.05 15.0 17.05 17.95 13.05 13.1 13.95 18.15 11.55 14.6 10.45 18.35 10.1 19.55 7.15 24.8 3.2 33.5 2.85 Q35.5 3.15 38.0 6.35 39.25 7.95 40.1 9.45 L40.35 15.25 38.3 20.15 33.15 27.65 29.6 27.6 29.15 29.1 31.15 30.15 31.95 33.95 40.0 38.15 46.1 61.85 49.9 64.8 52.3 65.65 52.7 67.15 Q55.6 69.45 56.35 69.4 L60.45 67.95 62.75 69.5 63.6 68.8 60.85 66.2 61.6 65.95 64.25 67.35 81.15 41.85 81.7 40.25 66.8 41.35 81.7 35.45 64.85 23.0 85.55 31.05 86.7 22.8 88.8 28.35 90.25 27.9 99.8 10.9"/></g></defs><g><g><use transform="matrix(1.0,0.0,0.0,1.0,0.0,0.0)" xlink:href="#c1"/></g></g></svg>