<?xml version='1.0' encoding='UTF-8'?>
<svg xmlns="http://www.w3.org/2000/svg" xmlns:xlink="http://www.w3.org/1999/xlink" version="1.1" width="84px" height="92px" viewBox="8.55 3.85 83.9 92.45"><defs><g id="c1"><path fill="#ffffff" stroke="none" d="M92.45 65.3 L91.75 66.45 81.85 65.4 78.3 75.75 78.9 79.1 78.0 79.75 Q76.9 80.3 75.95 80.1 74.45 79.7 73.45 78.45 L75.35 75.15 74.55 64.4 66.05 62.45 65.9 61.3 73.7 62.25 86.1 19.25 83.55 63.9 92.45 65.3 M27.3 62.25 L35.1 61.3 34.95 62.45 26.45 64.4 25.65 75.15 27.55 78.45 26.85 79.15 Q25.95 79.85 25.05 80.1 23.55 80.45 22.1 79.1 L22.7 75.75 19.15 65.4 9.25 66.45 8.55 65.3 17.45 63.9 14.9 19.25 27.3 62.25 M31.45 72.6 L30.7 70.75 44.15 70.55 49.85 3.85 59.05 70.25 70.85 70.45 70.4 72.15 57.35 73.2 53.9 88.95 56.05 94.25 54.85 95.15 Q53.4 96.05 51.95 96.15 50.5 96.3 49.05 95.2 L47.85 94.05 49.45 89.25 46.35 73.1 31.45 72.6"/></g></defs><g><g><use transform="matrix(1.0,0.0,0.0,1.0,0.0,0.0)" xlink:href="#c1"/></g></g></svg>