<?xml version='1.0' encoding='UTF-8'?>
<svg xmlns="http://www.w3.org/2000/svg" xmlns:xlink="http://www.w3.org/1999/xlink" version="1.1" width="100px" height="89px" viewBox="0.5 5.5 100.0 89.0"><defs><g id="c1"><path fill="#ffffff" stroke="none" d="M94.75 5.5 L90.0 7.0 Q92.5 5.7 94.75 5.5 M98.1 23.85 Q99.35 23.1 100.5 22.7 L100.5 77.15 97.45 74.0 Q95.05 71.1 93.55 68.45 L92.15 65.5 Q91.15 63.55 90.3 63.0 91.05 65.45 91.6 70.9 92.15 76.2 92.95 78.7 91.75 78.9 88.95 75.15 L85.45 70.1 82.45 65.95 Q80.65 63.55 79.15 62.2 L79.25 64.9 Q79.15 66.5 78.35 67.2 76.45 65.0 75.65 60.2 L74.4 52.55 Q75.2 52.5 76.3 53.2 L78.15 54.35 79.85 55.0 81.55 55.6 79.95 53.5 Q79.2 52.25 79.0 51.35 L79.45 50.25 81.25 50.3 81.95 50.8 82.95 50.8 81.25 50.3 81.1 50.2 Q81.9 49.55 84.3 49.65 L87.8 49.8 92.0 49.85 96.05 49.4 Q94.8 49.45 92.4 48.15 L88.75 46.3 Q83.75 44.5 82.0 43.55 82.85 43.05 84.6 43.1 L87.4 43.1 Q90.35 42.6 92.3 41.2 L87.35 41.4 Q84.9 41.05 82.55 40.15 L82.55 39.35 82.5 38.55 Q81.15 38.55 81.8 36.3 L82.9 33.15 Q81.9 33.2 80.4 34.3 78.95 35.3 78.5 36.2 77.5 36.45 76.2 37.45 74.9 38.35 74.4 39.15 L74.15 39.55 Q76.25 34.75 81.5 30.0 84.6 27.2 91.05 22.65 89.9 23.7 88.9 26.3 L87.35 30.55 Q89.5 30.0 92.85 27.6 97.35 24.25 98.1 23.85 M90.0 7.0 Q88.3 7.8 86.5 9.15 82.25 12.15 80.15 15.6 79.6 16.45 78.05 20.25 76.8 23.4 75.65 24.5 75.05 25.1 72.7 25.6 70.4 26.1 69.85 26.8 L69.8 24.35 Q69.95 23.0 70.85 22.5 L72.1 21.25 Q72.5 19.7 74.6 17.85 L78.05 15.0 Q81.8 11.4 83.75 9.95 85.85 8.45 90.0 7.0 M66.6 61.75 Q66.9 61.4 67.8 61.05 L68.5 65.05 69.05 69.0 Q69.4 70.6 70.55 73.3 L72.1 77.5 73.3 82.7 Q74.0 85.75 74.8 87.75 L76.4 92.1 Q77.0 93.55 77.75 94.5 L74.8 91.5 Q72.2 88.8 71.55 86.8 L68.2 83.9 Q66.25 81.85 65.55 80.3 65.0 78.95 64.95 76.35 L64.85 72.25 64.25 68.5 Q63.85 65.85 64.35 65.0 L66.6 61.75 M66.25 54.9 L67.4 54.6 Q67.95 54.25 67.9 53.85 L67.05 54.3 Q66.4 54.45 66.25 54.9 M4.5 54.55 L4.3 55.05 Q4.9 55.2 5.1 54.6 4.8 54.55 4.9 54.35 5.05 54.15 4.75 54.05 L4.5 54.55 M4.05 52.35 L4.1 52.35 4.05 52.05 3.6 52.2 Q3.8 52.45 4.05 52.35 M5.75 54.65 L5.85 53.65 5.6 53.5 5.45 54.55 Q5.0 56.35 3.8 56.25 3.1 56.2 2.85 55.5 L2.2 54.3 Q1.75 54.9 2.05 55.85 L2.5 57.4 Q4.0 56.95 4.4 56.4 L4.5 56.8 5.2 55.8 Q5.65 55.05 6.4 55.3 6.65 54.75 5.75 54.65 M5.25 54.0 L5.3 53.3 4.3 52.65 4.15 52.45 4.05 52.7 4.05 53.0 3.55 52.95 Q3.35 53.6 2.8 53.8 3.05 54.05 3.3 53.8 3.5 53.65 3.5 53.85 L3.05 54.1 2.65 54.45 Q2.7 55.35 3.35 55.8 4.05 56.25 4.7 55.5 L4.3 55.5 3.85 55.45 Q3.45 54.9 3.65 54.05 3.85 53.1 4.65 53.15 L5.05 53.5 5.25 54.0 M11.2 58.95 Q11.75 59.55 11.15 59.2 10.55 58.85 11.2 58.95 10.4 58.75 9.85 57.6 9.4 56.7 9.3 55.6 L9.2 55.55 9.15 55.55 Q8.45 57.75 6.5 59.15 L8.45 59.75 9.95 60.45 9.85 60.55 Q11.4 60.85 12.75 61.5 14.25 62.25 14.65 63.1 15.25 64.35 14.95 67.0 L14.3 70.95 11.55 71.6 Q9.6 71.85 9.2 72.5 8.95 72.9 8.95 74.15 L8.95 75.85 Q8.7 77.5 8.1 78.8 L7.3 79.75 6.0 80.1 Q5.05 80.35 3.6 81.3 L2.65 82.2 2.45 83.5 Q2.4 84.95 1.95 85.9 0.5 82.45 0.5 78.2 L0.5 21.9 1.15 21.35 0.5 21.25 0.5 17.8 71.15 32.5 70.7 34.65 67.95 34.1 66.6 35.05 Q67.45 34.6 68.25 34.65 L70.35 35.25 Q68.7 35.4 67.5 36.3 66.15 37.4 66.3 39.1 65.4 39.55 65.3 40.9 L64.95 43.9 64.15 47.3 Q63.95 49.35 65.7 49.75 66.5 48.2 68.1 48.4 69.75 48.55 69.95 50.6 L69.35 51.55 69.35 52.75 Q69.1 52.25 68.85 53.05 L68.2 54.45 Q67.35 54.65 67.8 54.65 67.45 55.3 65.8 55.1 64.05 54.85 63.6 53.65 63.5 54.25 64.25 54.9 65.0 55.55 65.9 55.6 63.9 55.8 58.65 54.25 52.7 52.5 51.05 52.35 51.1 52.6 51.6 52.7 L52.35 52.9 Q51.7 54.7 48.4 53.9 44.2 52.85 43.7 53.0 L28.95 49.4 29.15 49.65 29.5 49.75 Q29.15 49.75 28.2 51.1 27.55 52.0 27.85 50.95 L27.65 50.4 26.1 49.95 27.6 51.2 Q24.9 51.5 24.7 58.7 L23.7 59.3 Q23.05 59.6 22.8 60.15 L21.45 60.1 20.4 60.5 Q21.9 61.45 24.85 59.9 L25.0 59.7 25.15 59.5 Q25.25 59.05 25.35 59.25 L25.25 59.7 Q22.3 64.25 16.5 62.05 21.3 62.0 22.95 54.9 23.55 52.15 24.0 51.1 24.85 49.15 26.25 49.0 24.9 48.25 21.0 47.4 L20.75 46.5 Q24.6 46.95 32.4 48.95 40.5 51.0 43.15 51.35 41.1 50.6 32.6 48.7 25.35 47.05 21.95 45.3 22.5 44.05 24.65 44.45 L28.5 45.45 44.25 49.15 Q45.15 47.9 46.1 45.0 L45.05 46.4 Q45.0 45.7 44.35 45.8 L44.6 45.5 44.6 44.95 Q44.35 44.95 44.15 45.45 43.95 45.25 44.2 44.9 L44.25 44.5 43.95 44.55 43.8 44.85 Q43.05 44.1 41.0 44.1 L41.35 44.05 Q27.05 39.8 16.05 37.7 L15.3 40.5 14.6 42.95 Q14.6 41.05 15.6 37.6 L11.7 36.8 8.5 36.15 7.65 35.9 6.15 35.65 Q6.2 35.9 6.95 35.85 L6.9 36.0 6.6 36.45 6.45 36.05 5.8 35.75 6.15 36.7 Q6.4 37.15 6.3 37.55 L6.55 37.35 6.65 37.45 Q6.85 37.45 6.7 37.15 6.55 36.75 6.75 36.5 L7.95 36.75 Q8.75 36.8 9.0 37.45 9.5 37.05 10.05 37.2 L11.65 37.5 11.55 38.1 11.65 38.65 11.8 38.3 Q11.8 37.8 11.95 37.6 12.5 37.6 12.45 38.1 L12.2 39.0 10.65 38.7 10.45 38.45 Q10.35 38.25 10.5 38.0 L9.85 38.45 Q9.45 38.55 9.35 38.0 L8.65 38.05 7.95 37.65 Q7.35 38.4 7.85 37.3 L7.35 37.9 6.8 38.15 7.6 38.55 8.65 38.65 Q8.35 38.85 8.4 39.15 L8.1 39.5 8.4 39.7 Q8.75 39.65 8.8 39.9 L8.65 39.25 Q8.55 38.95 8.8 38.7 L9.6 39.0 10.5 39.2 10.4 39.95 10.0 40.35 Q9.5 40.25 9.85 39.15 L9.4 39.25 Q9.2 39.35 9.05 39.1 8.85 39.2 9.05 39.6 L9.6 40.1 8.7 40.0 7.8 39.95 Q7.65 40.2 8.0 40.35 8.3 40.5 8.05 40.85 L8.5 40.45 8.45 41.25 Q8.25 41.85 7.85 41.6 L5.6 46.8 Q4.25 49.9 2.95 50.9 3.2 51.45 3.7 51.65 L4.05 51.75 4.1 51.3 5.2 48.0 Q5.65 46.85 6.9 46.25 8.0 45.65 9.45 45.65 L10.55 45.75 12.4 43.2 13.85 43.3 Q14.75 43.45 14.95 42.9 19.85 43.95 20.85 46.2 L20.35 46.3 19.7 46.2 Q19.7 46.5 20.05 46.65 19.0 46.9 17.35 46.15 15.8 45.4 14.65 45.8 L16.1 46.05 Q17.3 46.25 17.75 46.65 17.0 47.0 16.05 46.65 L14.35 46.2 13.45 46.4 15.2 46.9 17.9 47.7 Q19.75 48.3 20.1 48.85 L21.2 49.4 21.2 49.5 Q21.7 49.75 21.6 51.2 L21.2 53.25 20.5 54.95 19.45 56.5 Q19.15 56.6 18.0 57.35 17.25 57.8 16.35 57.75 14.95 57.7 12.95 56.65 L11.1 56.15 9.75 55.75 Q9.85 57.9 11.25 58.8 11.85 59.15 12.95 59.3 14.0 59.4 14.75 59.95 L13.0 60.0 11.2 58.95 M32.35 47.1 Q26.0 45.55 22.15 45.05 34.75 48.9 44.6 50.4 44.4 49.9 43.75 49.8 L42.65 49.7 32.35 47.1 M37.1 42.35 L35.9 42.2 37.25 42.6 38.4 42.7 37.1 42.35 M34.05 41.65 L32.75 41.5 35.45 42.05 34.05 41.65 M40.4 43.05 L39.5 43.0 Q40.95 43.65 41.4 43.4 L40.4 43.05 M25.9 36.95 Q26.3 36.05 25.8 35.45 25.7 36.7 25.9 36.95 M25.65 32.4 Q25.55 32.15 25.9 31.65 L26.45 30.8 21.65 29.55 17.4 29.15 Q17.25 31.1 20.75 31.75 L25.65 32.4 M23.2 35.7 Q23.15 36.2 23.0 35.35 L22.75 36.25 Q23.2 36.5 23.45 35.75 L23.5 34.8 23.25 35.05 23.2 35.7 M22.2 35.95 L22.1 35.65 22.0 35.4 21.85 36.0 22.45 36.15 22.6 35.6 Q22.7 35.2 22.45 35.5 L22.2 35.95 M25.0 33.05 Q24.95 32.7 24.6 32.85 L23.8 33.05 21.95 32.6 Q20.8 32.3 20.3 32.6 L22.75 33.0 25.0 33.05 M9.85 39.75 Q9.8 40.15 10.05 40.2 L10.3 39.8 10.15 39.25 9.85 39.75 M9.6 37.85 Q9.65 37.7 9.9 37.7 L9.9 37.95 10.05 37.9 9.7 37.3 Q9.45 37.4 9.45 37.75 9.4 38.1 9.6 38.25 L9.6 37.85 M17.35 32.95 L17.55 34.15 17.7 33.6 17.65 33.2 Q17.4 33.45 17.5 33.15 L17.35 32.95 M6.45 21.3 Q4.55 21.95 4.0 23.1 L6.9 23.85 Q8.95 24.2 9.65 24.85 9.9 24.55 10.35 24.55 10.9 24.6 10.75 25.15 11.45 24.65 12.4 25.15 L14.1 26.05 Q14.75 25.4 16.5 25.1 18.3 24.8 18.95 24.25 L18.8 23.85 6.45 21.3 M44.65 44.1 L43.55 43.8 42.6 43.7 Q44.2 44.35 44.65 44.1 M54.15 34.0 L55.1 33.9 54.95 34.25 54.75 34.6 Q55.05 34.7 55.5 34.3 L56.35 34.2 Q56.75 34.3 56.5 34.55 L56.15 35.0 Q56.65 35.15 56.95 34.4 L58.05 34.7 Q58.05 34.95 57.85 35.0 L57.55 35.2 58.45 34.9 Q58.95 34.55 59.5 34.9 L59.35 35.2 59.15 35.5 59.95 35.2 61.05 35.35 60.55 35.9 62.35 36.35 64.15 36.7 65.7 35.2 67.4 34.0 29.65 26.1 Q28.4 27.2 24.35 26.1 20.05 24.9 18.75 25.5 18.95 26.1 18.4 26.7 17.7 27.5 17.55 28.0 22.15 29.55 26.65 30.0 L27.05 28.65 37.25 30.85 47.85 33.2 48.45 32.7 49.45 32.8 49.3 33.1 49.1 33.4 49.9 33.05 Q50.35 32.75 50.85 33.05 L50.7 33.45 50.5 33.8 Q51.0 33.5 51.25 33.4 L52.15 33.25 Q52.4 33.4 52.2 33.6 L51.95 34.0 52.7 33.65 Q53.15 33.3 53.7 33.65 L53.5 34.05 53.3 34.4 54.15 34.0"/></g></defs><g><g><use transform="matrix(1.0,0.0,0.0,1.0,0.0,0.0)" xlink:href="#c1"/></g></g></svg>