<?xml version='1.0' encoding='UTF-8'?>
<svg xmlns="http://www.w3.org/2000/svg" xmlns:xlink="http://www.w3.org/1999/xlink" version="1.1" width="87px" height="90px" viewBox="13.1 10.1 86.80000000000001 89.65"><defs><g id="c1"><path fill="#ffffff" stroke="none" d="M38.65 42.8 Q40.15 44.25 40.15 46.35 40.15 48.45 38.65 49.95 37.15 51.45 35.05 51.45 32.95 51.45 31.5 49.95 30.0 48.45 30.0 46.35 30.0 44.25 31.5 42.8 32.95 41.3 35.05 41.3 37.15 41.3 38.65 42.8 M43.4 46.35 Q43.4 42.9 40.95 40.5 38.5 38.05 35.05 38.05 31.6 38.05 29.2 40.5 26.75 42.9 26.75 46.35 26.75 49.8 29.2 52.25 31.6 54.7 35.05 54.7 38.5 54.7 40.95 52.25 43.4 49.8 43.4 46.35 M43.8 37.65 Q47.4 41.25 47.4 46.35 47.4 51.5 43.8 55.1 40.15 58.7 35.05 58.7 29.95 58.7 26.35 55.1 22.75 51.5 22.75 46.35 22.75 41.25 26.35 37.65 29.95 34.05 35.05 34.05 40.15 34.05 43.8 37.65"/><path fill="#ffffff" fill-opacity="0.8" d="M72.8 14.9 Q68.05 11.75 62.1 12.55 56.35 13.35 52.6 17.35 48.5 21.7 48.6 28.1 48.65 31.1 50.35 34.7 52.0 38.3 54.35 40.35 58.8 44.25 64.3 44.2 69.3 44.2 73.6 41.0 77.85 37.85 79.5 33.0 81.25 27.8 79.1 22.6 77.1 17.65 72.8 14.9 M85.4 24.95 Q92.8 29.15 99.9 24.9 L99.9 32.3 Q96.2 30.55 92.1 30.85 80.9 31.65 78.4 42.0 77.35 46.4 78.5 50.85 79.75 55.4 82.85 58.35 86.45 61.7 91.2 62.3 95.65 62.8 99.9 60.85 L99.9 66.1 Q95.75 64.0 91.6 64.35 85.25 64.95 81.25 69.5 77.05 74.25 77.6 81.1 77.9 84.65 80.0 88.15 82.15 91.7 85.1 93.6 89.15 96.25 94.1 96.0 89.6 99.75 82.6 99.75 L80.15 99.75 Q80.6 96.4 79.6 93.1 78.75 90.25 77.5 88.5 L75.1 85.85 Q73.2 84.0 70.15 82.8 66.9 81.55 63.85 81.6 59.15 81.7 55.25 84.3 51.95 86.5 50.35 89.6 47.8 94.5 48.85 99.75 L26.6 99.75 Q17.55 91.75 13.1 75.35 16.35 74.05 18.2 70.65 19.95 67.45 20.0 63.45 20.15 54.15 13.1 51.1 16.5 35.5 28.1 25.1 35.5 29.05 42.35 25.15 49.4 21.15 48.6 12.55 55.35 10.35 63.8 10.25 72.55 10.1 79.1 12.3 77.9 20.7 85.4 24.95 M32.85 64.35 Q27.85 65.0 24.0 68.7 20.25 72.4 19.6 77.1 18.45 85.4 24.2 91.25 30.0 97.1 38.35 95.85 43.8 95.05 47.5 90.5 51.2 86.0 51.1 80.35 51.0 72.55 45.05 67.85 39.5 63.5 32.85 64.35 M33.85 30.85 Q28.15 31.3 24.1 35.0 20.25 38.6 19.6 43.6 18.7 50.3 22.1 55.25 25.15 59.7 30.65 61.45 36.05 63.1 41.15 61.4 46.65 59.55 49.35 54.35 53.85 45.85 48.15 37.9 42.65 30.15 33.85 30.85"/></g></defs><g><g><use transform="matrix(1.0,0.0,0.0,1.0,0.0,0.0)" xlink:href="#c1"/></g></g></svg>