<?xml version='1.0' encoding='UTF-8'?>
<svg xmlns="http://www.w3.org/2000/svg" xmlns:xlink="http://www.w3.org/1999/xlink" version="1.1" width="89px" height="79px" viewBox="-0.1 10.45 88.55 79.1"><defs><g id="c1"><path fill="#ffffff" fill-opacity="0.8" d="M71.25 32.25 L71.3 33.1 Q72.0 51.1 63.6 64.15 55.25 77.15 42.7 77.6 L40.35 77.55 Q51.0 74.5 57.65 62.25 64.4 49.85 63.85 33.9 L71.25 32.25 M87.5 28.1 L87.55 29.3 Q88.45 53.65 77.1 71.3 65.75 88.9 48.8 89.55 L45.6 89.45 Q60.05 85.35 69.05 68.75 78.2 52.0 77.4 30.35 L87.5 28.1"/><path fill="#ffffff" stroke="none" d="M17.65 39.85 L16.3 39.7 16.55 40.45 Q16.9 41.25 17.9 42.3 L19.35 44.0 Q20.6 46.0 21.45 48.9 L22.25 51.8 Q22.85 49.65 24.5 46.2 24.2 44.1 22.15 42.3 19.65 40.45 18.6 39.25 L17.6 39.1 17.65 39.85 M57.45 30.65 L57.2 28.05 Q57.05 26.7 57.7 26.1 56.0 26.85 54.9 26.85 56.2 27.45 56.85 29.05 57.55 30.85 56.55 32.0 L56.75 30.65 56.35 29.2 Q50.35 28.55 48.25 30.6 51.55 31.15 51.75 32.6 51.95 33.6 51.55 34.95 54.5 34.6 55.75 33.85 57.4 32.9 57.45 30.65 M83.9 16.65 L84.45 15.1 44.25 21.65 48.45 22.15 83.9 16.65 M85.75 15.65 Q85.95 18.1 86.25 19.45 L85.1 21.15 83.6 22.5 Q80.85 22.7 77.0 23.6 L70.5 25.15 63.15 26.2 Q59.05 26.9 57.5 28.65 58.45 32.05 56.5 33.8 55.0 35.2 51.25 35.75 L50.45 37.3 46.9 37.25 46.5 37.1 45.7 37.8 46.0 37.9 Q46.6 38.8 46.4 40.1 46.15 42.2 44.95 43.45 L46.05 43.45 Q47.2 43.65 47.5 44.55 48.0 46.0 46.7 47.35 L44.45 49.0 46.8 49.5 Q49.1 50.25 48.95 51.45 48.85 52.65 47.85 53.45 L46.9 54.0 41.75 55.0 40.0 55.9 39.75 57.5 Q38.5 58.8 36.1 59.3 L31.7 59.7 29.75 60.35 23.75 60.45 19.3 64.75 11.75 61.45 -0.1 61.4 -0.1 35.0 10.5 38.6 19.05 37.2 24.65 32.7 25.05 32.55 Q24.45 31.9 22.6 31.95 L19.85 31.75 19.8 31.6 19.75 31.3 19.55 31.1 Q19.55 30.95 19.7 31.0 L19.65 30.45 19.8 30.35 Q20.0 29.9 20.7 29.5 21.4 29.05 21.8 29.1 L26.2 26.35 26.55 25.35 Q26.65 24.45 26.1 23.65 25.6 22.9 24.3 22.25 L23.05 21.75 22.0 20.85 23.05 20.4 25.8 20.9 26.85 19.4 27.1 19.4 Q27.35 18.55 29.1 17.9 30.85 17.25 31.1 16.45 L31.9 16.85 32.85 17.45 39.35 16.7 45.95 15.95 46.5 16.1 47.1 16.3 51.2 15.9 55.6 15.25 56.05 14.9 56.35 14.4 83.85 10.45 85.35 12.0 85.75 15.65"/></g></defs><g><g><use transform="matrix(1.0,0.0,0.0,1.0,0.0,0.0)" xlink:href="#c1"/></g></g></svg>