<?xml version='1.0' encoding='UTF-8'?>
<svg xmlns="http://www.w3.org/2000/svg" xmlns:xlink="http://www.w3.org/1999/xlink" version="1.1" width="90px" height="94px" viewBox="5.05 3.8 89.7 93.7"><defs><g id="c1"><path fill="#ffffff" fill-opacity="0.8" d="M87.2 48.0 L87.2 47.95 86.5 47.0 Q84.35 44.25 79.95 42.2 75.5 40.1 70.7 39.0 L58.1 36.65 55.75 21.8 65.3 25.8 74.85 29.9 Q80.45 32.55 84.2 35.15 89.7 39.15 92.05 43.55 L92.9 45.3 93.2 46.25 94.0 48.9 Q94.75 52.3 94.7 54.5 94.75 57.4 93.65 60.25 92.6 63.05 90.75 65.2 89.05 67.2 86.65 68.95 87.55 70.15 88.0 71.65 88.65 73.9 87.9 75.75 87.05 78.1 85.6 80.0 79.55 88.5 67.05 93.85 60.8 96.55 55.75 97.5 73.75 87.55 75.4 86.2 79.5 82.75 81.8 79.2 83.2 77.05 83.7 75.1 84.3 72.9 83.65 71.2 L83.5 70.85 82.05 71.55 Q79.9 72.6 75.65 73.9 L69.15 75.75 72.0 73.55 74.15 69.6 77.2 68.65 79.7 67.5 77.2 66.5 69.5 65.75 61.65 65.4 59.4 57.9 66.7 59.25 Q72.55 60.55 78.7 62.6 81.5 63.8 83.4 65.35 L83.5 65.4 Q85.65 63.95 87.15 62.2 90.0 58.85 89.55 54.7 89.3 52.35 88.5 50.65 L87.6 48.7 87.3 48.15 87.25 48.0 87.2 48.0"/><path fill="#ffffff" stroke="none" d="M48.15 95.15 L46.95 94.0 48.55 89.15 45.45 73.05 30.55 72.55 29.75 70.7 43.25 70.5 48.95 3.8 58.15 70.15 69.95 70.4 69.5 72.05 56.45 73.15 53.0 88.9 55.15 94.2 53.95 95.1 Q52.5 96.0 51.05 96.1 49.6 96.25 48.15 95.15"/><path fill="#ffffff" fill-opacity="0.8" d="M41.0 57.65 L39.6 65.3 34.0 65.55 Q27.85 66.0 25.3 67.15 23.0 67.75 21.3 69.0 20.45 69.6 20.05 70.35 19.8 70.95 20.1 71.35 20.6 71.85 21.5 72.05 L23.5 72.4 26.65 72.65 29.75 76.55 37.5 78.0 31.2 77.85 24.9 77.65 22.25 76.85 Q20.75 76.15 19.65 75.35 18.1 74.2 17.4 72.85 16.95 71.75 17.0 70.9 17.0 70.1 17.45 69.1 17.95 67.9 19.3 66.65 21.0 65.15 23.8 63.6 27.25 61.55 33.9 59.6 L41.0 57.65"/><path fill="#ffffff" fill-opacity="0.8" d="M43.6 18.85 L41.0 36.25 33.0 35.7 24.05 36.0 14.45 36.65 5.05 37.7 5.2 12.5 25.55 15.95 34.6 17.35 43.6 18.85"/></g></defs><g><g><use transform="matrix(1.0,0.0,0.0,1.0,0.0,0.0)" xlink:href="#c1"/></g></g></svg>