<?xml version='1.0' encoding='UTF-8'?>
<svg xmlns="http://www.w3.org/2000/svg" xmlns:xlink="http://www.w3.org/1999/xlink" version="1.1" width="100px" height="69px" viewBox="-0.2 17.95 100.0 69.25"><defs><g id="c1"><path fill="#ffffff" fill-opacity="0.8" d="M99.8 56.9 L99.8 59.8 Q92.25 68.45 77.3 78.7 69.8 83.8 63.8 87.2 L77.05 70.75 47.6 75.2 67.25 64.65 31.25 57.4 49.35 57.5 49.35 57.55 49.8 57.55 73.1 62.4 63.2 69.45 85.4 66.0 76.05 77.5 84.85 71.1 Q94.7 63.45 99.8 56.9"/><path fill="#ffffff" fill-opacity="0.8" d="M75.8 17.95 L84.4 22.6 Q94.15 28.4 99.8 33.95 L99.8 37.85 Q96.75 34.45 92.1 30.5 L88.05 27.25 91.55 35.0 66.05 27.25 74.3 37.05 63.95 38.05 50.55 38.05 35.95 36.65 66.8 33.75 51.55 21.25 87.05 30.55 75.8 17.95"/><path fill="#ffffff" stroke="none" d="M88.05 27.25 L92.1 30.5 Q96.75 34.45 99.8 37.85 L99.8 56.9 Q94.7 63.45 84.85 71.1 L76.05 77.5 85.4 66.0 63.2 69.45 73.1 62.4 49.8 57.55 85.35 57.55 96.15 47.8 85.75 38.05 63.95 38.05 74.3 37.05 66.05 27.25 91.55 35.0 88.05 27.25"/><path fill="#ffffff" stroke="none" d="M81.85 40.6 L91.6 47.2 83.1 53.95 10.25 54.1 10.45 57.15 Q10.75 60.7 11.2 63.2 L12.25 68.45 Q12.65 70.7 11.95 70.7 L9.7 70.65 Q8.15 70.0 6.95 66.55 5.75 63.2 5.5 58.3 L5.45 54.1 -0.2 54.1 -0.2 41.4 5.05 41.4 Q5.05 35.6 6.75 30.0 8.0 25.8 10.1 24.85 12.15 23.9 11.75 27.65 L11.05 33.35 Q10.35 39.3 10.45 40.55 L81.85 40.6 M70.85 48.2 L75.6 47.75 80.3 47.2 75.6 46.65 70.85 46.2 10.5 46.2 10.5 48.2 70.85 48.2"/></g></defs><g><g><use transform="matrix(1.0,0.0,0.0,1.0,0.0,0.0)" xlink:href="#c1"/></g></g></svg>