<?xml version='1.0' encoding='UTF-8'?>
<svg xmlns="http://www.w3.org/2000/svg" xmlns:xlink="http://www.w3.org/1999/xlink" version="1.1" width="90px" height="95px" viewBox="4.05 2.95 89.60000000000001 95.3"><defs><g id="c1"><path fill="#ffffff" fill-opacity="0.8" d="M76.6 60.4 Q79.5 59.05 81.5 56.55 83.6 53.9 83.8 51.05 84.0 48.65 83.3 46.8 82.4 44.4 80.3 44.05 75.45 43.2 68.65 47.4 L58.35 53.45 64.7 57.65 Q68.25 60.0 70.4 60.7 73.65 61.75 76.6 60.4 M49.9 5.8 L57.05 5.25 56.4 9.7 55.15 16.1 Q54.4 18.8 50.9 26.55 L45.9 24.6 Q40.75 23.3 40.1 26.75 39.75 28.65 54.85 46.4 56.05 45.65 58.75 44.25 L62.65 42.2 Q72.5 36.2 81.75 37.85 92.9 39.85 93.45 53.65 93.65 58.3 89.45 61.75 85.5 65.0 80.15 65.3 75.05 65.65 69.55 63.95 65.0 62.55 59.7 59.55 57.85 58.5 54.75 56.45 L54.65 56.5 Q50.1 52.65 47.9 51.25 L47.4 51.15 Q41.7 46.95 38.15 45.0 34.95 43.25 31.25 42.5 L23.9 42.3 Q20.3 42.9 17.4 46.1 14.55 49.15 13.9 52.9 13.15 57.35 14.9 60.0 16.65 62.55 19.9 62.0 23.1 61.45 27.6 59.2 L34.9 55.15 41.95 51.05 40.3 55.6 Q38.85 59.35 39.25 59.4 34.5 62.6 28.6 64.65 22.75 66.7 19.25 66.4 12.55 65.75 8.45 61.35 4.05 56.6 6.0 50.5 8.0 44.4 11.45 41.35 15.3 38.0 21.15 38.05 31.6 38.15 40.95 42.25 L34.2 35.25 Q30.25 30.8 30.25 25.05 30.3 17.5 37.8 10.7 41.9 7.05 49.9 5.8"/><path fill="#ffffff" stroke="none" d="M60.7 6.8 L60.8 2.95 62.85 5.55 Q64.95 8.6 64.9 10.55 64.7 16.9 63.3 23.6 60.25 38.3 52.35 53.4 46.55 64.6 35.95 82.4 L38.65 84.3 Q41.1 86.55 40.1 88.15 39.55 88.95 36.2 87.75 L32.9 86.35 25.2 98.25 19.7 95.5 27.7 83.45 24.95 81.25 Q22.35 78.8 22.9 77.85 23.7 76.55 26.75 77.55 L29.65 78.8 42.25 57.7 Q54.7 36.9 59.0 17.85 60.35 11.9 60.7 6.8"/></g></defs><g><g><use transform="matrix(1.0,0.0,0.0,1.0,0.0,0.0)" xlink:href="#c1"/></g></g></svg>