<?xml version='1.0' encoding='UTF-8'?>
<svg xmlns="http://www.w3.org/2000/svg" xmlns:xlink="http://www.w3.org/1999/xlink" version="1.1" width="100px" height="100px" viewBox="0.05 0.0 99.9 99.75"><defs><g id="c1"><path fill="#ffffff" stroke="none" d="M79.55 74.5 Q83.35 70.8 83.35 69.45 83.35 64.1 82.4 63.15 81.85 62.6 80.25 64.9 L76.75 69.45 Q75.35 70.9 72.45 74.55 69.65 77.8 66.95 78.95 62.55 80.8 54.65 83.35 61.25 87.45 63.15 87.75 64.0 87.9 64.65 86.8 65.55 85.3 67.6 84.6 70.0 83.8 74.15 79.9 L79.55 74.5 M12.55 38.25 Q14.45 38.25 18.15 40.55 22.2 43.1 23.75 45.8 24.7 47.5 26.05 52.2 L27.5 57.8 Q27.8 59.2 27.55 61.65 27.2 64.35 26.35 64.8 24.55 65.7 24.3 65.95 23.5 66.7 25.55 67.3 L31.3 67.75 35.4 67.25 38.15 67.3 42.05 67.55 48.05 67.25 Q52.35 66.8 54.0 66.0 L56.9 64.45 60.0 62.85 65.7 61.1 Q69.9 60.0 71.35 59.35 73.45 58.45 77.8 55.3 L76.6 54.1 76.4 53.8 71.75 58.4 69.25 55.85 74.1 51.1 Q67.1 42.8 57.8 32.85 49.1 23.45 37.35 14.15 L27.35 6.7 30.7 6.95 Q34.4 7.35 36.2 8.3 42.3 11.55 45.8 14.35 51.3 18.85 61.75 30.25 68.1 37.2 78.05 47.15 L81.85 43.4 84.35 45.95 80.55 49.65 83.8 52.85 84.2 52.0 Q84.5 51.45 85.25 51.15 86.25 50.8 88.85 51.6 L91.25 52.45 93.45 56.55 96.9 61.6 98.5 66.6 99.95 67.9 99.95 77.6 97.0 74.7 97.3 74.55 Q97.95 74.15 98.4 73.15 98.8 72.15 98.3 72.2 L98.1 73.2 97.25 74.2 96.95 74.35 Q94.55 75.7 90.6 77.05 89.4 77.45 88.3 78.85 87.75 79.55 87.45 80.2 L82.1 89.95 79.65 94.3 Q78.15 96.75 76.75 98.2 76.05 98.8 75.3 99.75 L16.8 99.75 Q9.0 99.75 4.15 94.9 L3.85 94.55 Q3.05 91.95 2.45 88.15 1.75 84.05 1.95 82.1 2.1 80.55 2.95 77.35 3.55 75.0 3.2 74.5 2.8 73.85 4.7 72.4 6.35 71.05 7.3 70.75 L11.1 69.8 7.3 65.35 6.45 66.05 Q5.15 66.1 3.2 63.15 2.05 61.4 3.0 60.05 L4.15 59.05 Q0.6 54.1 0.4 51.8 0.05 48.35 0.25 47.25 0.85 44.0 4.15 40.75 5.45 39.45 8.25 38.8 L12.55 38.25"/><path fill="#ffffff" fill-opacity="0.8" d="M29.3 13.0 L33.15 15.0 Q38.25 18.25 44.7 24.4 50.3 29.8 63.95 45.7 L59.3 56.4 59.3 44.0 48.0 58.65 51.55 37.95 40.35 53.2 45.35 30.3 28.95 44.7 36.05 24.1 15.1 27.75 30.3 19.0 12.25 13.8 29.3 13.0"/><path fill="#ffffff" fill-opacity="0.8" d="M40.5 6.5 L41.7 0.0 47.65 6.7 56.95 1.3 54.75 9.05 70.5 6.7 63.15 17.9 76.35 13.0 67.8 26.85 81.35 23.85 74.7 32.75 81.35 35.8 71.7 38.05 61.75 26.6 Q51.35 14.8 49.35 13.0 L43.7 8.65 40.5 6.5"/></g></defs><g><g><use transform="matrix(1.0,0.0,0.0,1.0,0.0,0.0)" xlink:href="#c1"/></g></g></svg>