<?xml version='1.0' encoding='UTF-8'?>
<svg xmlns="http://www.w3.org/2000/svg" xmlns:xlink="http://www.w3.org/1999/xlink" version="1.1" width="90px" height="86px" viewBox="4.2 4.9 89.6 85.94999999999999"><defs><g id="c1"><path fill="#ffffff" stroke="none" d="M86.3 5.75 L90.0 6.75 85.95 8.55 Q80.75 11.15 75.0 15.2 56.6 28.05 39.9 50.35 L22.95 73.0 25.55 75.55 Q27.95 78.4 26.9 79.75 26.1 80.8 22.4 79.05 L18.85 77.1 9.55 90.85 4.2 86.25 13.5 72.8 10.6 69.95 Q7.85 66.9 8.5 66.0 L13.2 65.9 16.4 67.9 Q30.7 48.85 40.05 37.75 52.7 22.8 66.95 13.15 73.2 8.9 80.15 5.75 82.2 4.9 86.3 5.75"/><path fill="#ffffff" fill-opacity="0.8" d="M89.4 6.55 Q93.1 8.85 92.8 12.8 92.65 14.8 91.75 16.3 L91.65 13.05 Q91.5 11.9 90.2 11.5 L87.4 11.75 85.2 11.8 Q84.5 11.8 84.45 13.9 84.4 18.8 89.1 21.25 91.45 22.45 93.8 22.7 L92.9 23.45 Q91.75 24.2 90.5 24.45 86.55 25.15 83.4 20.1 82.1 18.0 81.15 18.85 L79.6 21.3 Q78.85 22.55 79.3 24.0 79.95 25.85 82.75 26.1 85.55 26.3 87.3 28.3 88.8 30.0 88.5 31.55 87.7 35.5 88.65 36.65 L91.3 39.45 88.6 39.2 Q85.8 38.6 85.6 36.55 85.3 33.95 84.95 33.55 84.45 32.9 81.3 31.8 L77.15 31.65 Q76.3 32.35 76.15 34.9 75.95 39.3 80.2 40.85 L83.05 42.1 Q84.35 42.95 84.2 44.65 83.95 47.9 87.3 50.85 89.0 52.35 90.7 53.15 L86.7 53.0 Q82.5 52.25 81.55 49.45 80.7 46.9 77.75 47.25 L72.95 47.05 Q71.35 46.05 70.5 43.9 69.5 41.35 68.95 40.7 67.6 39.2 65.8 40.5 63.9 41.9 64.2 45.1 64.45 47.9 67.65 51.15 L70.8 53.8 Q72.75 55.3 73.35 59.55 74.15 64.65 73.0 61.65 72.4 60.05 69.95 59.35 L64.6 58.25 Q62.0 57.65 60.5 55.75 L58.25 52.05 Q57.05 50.05 54.25 48.6 51.45 47.1 51.1 48.35 50.85 49.35 51.95 50.9 L53.8 53.75 Q55.35 57.15 53.15 59.05 52.05 60.0 50.65 60.25 51.0 58.6 50.45 56.75 49.4 53.0 45.0 51.8 43.4 51.35 40.4 52.3 L37.7 53.3 32.15 54.35 61.1 21.55 84.4 6.6 86.25 6.15 Q88.3 5.85 89.4 6.55"/></g></defs><g><g><use transform="matrix(1.0,0.0,0.0,1.0,0.0,0.0)" xlink:href="#c1"/></g></g></svg>