<?xml version='1.0' encoding='UTF-8'?>
<svg xmlns="http://www.w3.org/2000/svg" xmlns:xlink="http://www.w3.org/1999/xlink" version="1.1" width="88px" height="86px" viewBox="5.05 10.05 88.0 85.8"><defs><g id="c1"><path fill="#ffffff" stroke="none" d="M39.5 69.4 Q39.25 69.75 36.25 70.15 33.35 70.55 33.2 71.15 35.95 74.0 38.8 80.75 L39.7 76.65 40.15 73.8 40.25 71.15 Q40.3 69.5 39.5 69.4 M48.35 10.65 L50.1 10.15 Q51.1 10.05 52.1 10.65 53.8 11.15 55.95 13.7 58.5 16.7 58.2 19.45 58.1 20.3 56.55 22.15 55.2 23.8 55.3 27.3 53.15 25.95 51.95 26.95 L50.05 29.0 Q49.25 29.15 48.3 28.1 47.5 27.3 46.65 27.95 46.25 28.4 46.55 29.7 46.8 30.95 47.3 31.35 L46.75 32.6 46.8 32.65 Q46.4 33.35 47.1 33.8 L49.65 35.8 52.15 37.9 Q52.15 38.25 55.3 40.0 L60.35 39.15 62.85 38.75 65.3 38.35 69.95 39.1 Q70.2 38.5 70.8 38.9 71.45 38.9 71.4 39.45 L71.1 42.5 70.5 43.05 70.5 43.3 70.45 43.45 Q70.4 44.05 69.75 43.85 L69.2 44.4 67.45 44.5 64.85 45.5 61.05 47.05 55.05 49.0 52.35 49.4 51.8 49.45 51.75 49.45 44.9 44.4 41.5 41.25 37.95 38.3 Q37.2 37.85 36.75 38.65 36.3 39.4 37.05 39.85 38.6 40.8 40.8 43.2 L44.4 46.8 45.25 47.4 42.15 58.9 Q45.25 58.05 48.4 57.65 54.65 56.9 54.8 59.4 55.1 65.35 54.0 70.55 52.65 77.2 49.55 78.2 L46.7 79.1 Q46.05 80.05 48.15 84.5 L51.2 85.2 Q54.05 86.1 53.45 88.4 53.25 89.05 52.4 89.1 L44.9 89.55 Q39.55 89.45 38.6 87.55 38.25 87.6 38.5 88.5 38.75 89.4 38.5 89.45 L26.95 89.45 Q25.0 89.45 19.2 85.7 L13.8 81.9 Q11.35 86.5 10.7 87.2 9.7 88.3 8.2 88.2 L5.4 87.75 Q5.05 86.95 6.4 83.6 L8.35 79.0 Q8.55 78.15 7.75 77.7 7.05 77.3 7.35 76.8 8.0 76.3 8.75 74.45 9.45 72.75 10.35 72.25 11.65 71.9 12.6 73.45 13.9 75.45 14.7 75.85 L19.45 76.45 Q23.4 76.75 26.2 78.45 26.0 77.75 22.45 74.4 18.9 71.0 18.45 69.75 15.3 68.65 14.5 68.15 12.7 67.1 12.35 65.3 11.7 62.2 12.7 58.85 13.5 56.15 15.75 52.05 17.95 45.35 20.95 39.0 26.85 26.6 33.7 22.95 35.45 22.0 37.05 21.95 L39.5 22.15 Q40.15 22.2 41.4 20.95 42.6 19.75 43.25 19.8 44.4 12.15 48.35 10.65"/><path fill="#ffffff" stroke="none" d="M70.85 47.45 Q71.75 47.25 71.75 44.65 L71.55 40.15 71.55 38.8 Q72.3 37.55 73.3 37.6 74.25 37.65 74.75 38.8 L74.8 40.15 74.6 44.65 Q74.6 47.25 75.45 47.45 76.25 47.55 77.6 46.8 77.75 47.45 78.35 47.8 L79.35 48.45 79.3 49.3 Q79.1 50.25 78.1 51.3 L76.0 51.15 75.85 52.9 Q75.85 54.2 76.0 54.6 75.65 56.0 75.6 66.45 L75.65 79.1 75.55 88.15 73.55 88.15 73.55 50.8 72.75 50.8 72.75 88.15 70.75 88.15 70.7 79.1 70.75 66.45 Q70.7 56.0 70.35 54.6 L70.45 52.9 70.35 51.15 69.3 51.25 68.2 51.3 67.55 50.4 Q67.15 49.85 67.05 49.3 66.95 49.3 66.95 48.45 L67.95 47.8 Q68.55 47.45 68.75 46.8 70.0 47.55 70.85 47.45"/><path fill="#ffffff" fill-opacity="0.8" d="M76.45 84.1 L78.15 72.4 78.95 83.4 89.0 78.3 80.15 85.5 93.05 86.65 79.85 87.25 88.8 91.8 76.05 88.6 82.85 95.85 73.7 90.3 68.4 95.35 70.2 89.7 47.75 95.85 62.45 89.1 56.6 87.25 65.95 87.25 55.8 81.65 65.55 83.95 61.65 72.0 70.2 85.55 72.75 78.3 76.45 84.1"/></g></defs><g><g><use transform="matrix(1.0,0.0,0.0,1.0,0.0,0.0)" xlink:href="#c1"/></g></g></svg>