<?xml version='1.0' encoding='UTF-8'?>
<svg xmlns="http://www.w3.org/2000/svg" xmlns:xlink="http://www.w3.org/1999/xlink" version="1.1" width="69px" height="90px" viewBox="15.55 3.5 69.3 90.35"><defs><linearGradient gradientUnits="userSpaceOnUse" x1="-819.2" x2="819.2" spreadMethod="pad" gradientTransform="matrix(0.0211639404296875,0.000152587890625,0.0001678466796875,-0.0239715576171875,32.95,39.05)" id="gradient1"><stop offset="0.0" stop-color="#ffffff" stop-opacity="0.9686274509803922"/><stop offset="1.0" stop-color="#e2e3e4" stop-opacity="0.0"/></linearGradient><linearGradient gradientUnits="userSpaceOnUse" x1="-819.2" x2="819.2" spreadMethod="pad" gradientTransform="matrix(0.0210113525390625,0.000152587890625,0.0001678466796875,-0.0237884521484375,67.4,39.4)" id="gradient2"><stop offset="0.0" stop-color="#d5d5d7" stop-opacity="0.0"/><stop offset="1.0" stop-color="#ffffff" stop-opacity="0.9647058823529412"/><stop offset="1.0" stop-color="#e1e2e2"/></linearGradient><linearGradient gradientUnits="userSpaceOnUse" x1="-819.2" x2="819.2" spreadMethod="pad" gradientTransform="matrix(0.0093536376953125,6.103515625e-05,7.62939453125e-05,-0.010589599609375,43.1,85.5)" id="gradient3"><stop offset="0.0" stop-color="#ffffff" stop-opacity="0.9686274509803922"/><stop offset="1.0" stop-color="#e2e3e4" stop-opacity="0.0"/></linearGradient><linearGradient gradientUnits="userSpaceOnUse" x1="-819.2" x2="819.2" spreadMethod="pad" gradientTransform="matrix(0.00927734375,6.103515625e-05,7.62939453125e-05,-0.010498046875,58.3,85.65)" id="gradient4"><stop offset="0.0" stop-color="#d5d5d7" stop-opacity="0.0"/><stop offset="1.0" stop-color="#ffffff" stop-opacity="0.9647058823529412"/><stop offset="1.0" stop-color="#e1e2e2"/></linearGradient><linearGradient gradientUnits="userSpaceOnUse" x1="-819.2" x2="819.2" spreadMethod="pad" gradientTransform="matrix(0.0141754150390625,0.0001068115234375,0.0001220703125,-0.01605224609375,39.15,63.55)" id="gradient5"><stop offset="0.0" stop-color="#ffffff" stop-opacity="0.9686274509803922"/><stop offset="1.0" stop-color="#e2e3e4" stop-opacity="0.0"/></linearGradient><linearGradient gradientUnits="userSpaceOnUse" x1="-819.2" x2="819.2" spreadMethod="pad" gradientTransform="matrix(0.014068603515625,0.0001068115234375,0.0001220703125,-0.01593017578125,62.25,63.8)" id="gradient6"><stop offset="0.0" stop-color="#d5d5d7" stop-opacity="0.0"/><stop offset="1.0" stop-color="#ffffff" stop-opacity="0.9647058823529412"/><stop offset="1.0" stop-color="#e1e2e2"/></linearGradient><linearGradient gradientUnits="userSpaceOnUse" x1="-819.2" x2="819.2" spreadMethod="pad" gradientTransform="matrix(0.0213165283203125,0.000152587890625,0.0001678466796875,-0.024139404296875,33.15,27.5)" id="gradient7"><stop offset="0.0" stop-color="#ffffff" stop-opacity="0.9686274509803922"/><stop offset="1.0" stop-color="#e2e3e4" stop-opacity="0.0"/></linearGradient><linearGradient gradientUnits="userSpaceOnUse" x1="-819.2" x2="819.2" spreadMethod="pad" gradientTransform="matrix(0.0208587646484375,0.000152587890625,0.0001678466796875,-0.02362060546875,67.6,27.85)" id="gradient8"><stop offset="0.0" stop-color="#d5d5d7" stop-opacity="0.0"/><stop offset="1.0" stop-color="#ffffff" stop-opacity="0.9647058823529412"/><stop offset="1.0" stop-color="#e1e2e2"/></linearGradient><linearGradient gradientUnits="userSpaceOnUse" x1="-819.2" x2="819.2" spreadMethod="pad" gradientTransform="matrix(0.0094146728515625,6.103515625e-05,7.62939453125e-05,-0.0106658935546875,43.15,80.4)" id="gradient9"><stop offset="0.0" stop-color="#ffffff" stop-opacity="0.9686274509803922"/><stop offset="1.0" stop-color="#e2e3e4" stop-opacity="0.0"/></linearGradient><linearGradient gradientUnits="userSpaceOnUse" x1="-819.2" x2="819.2" spreadMethod="pad" gradientTransform="matrix(0.0092010498046875,6.103515625e-05,7.62939453125e-05,-0.0104217529296875,58.4,80.55)" id="gradient10"><stop offset="0.0" stop-color="#d5d5d7" stop-opacity="0.0"/><stop offset="1.0" stop-color="#ffffff" stop-opacity="0.9647058823529412"/><stop offset="1.0" stop-color="#e1e2e2"/></linearGradient><linearGradient gradientUnits="userSpaceOnUse" x1="-819.2" x2="819.2" spreadMethod="pad" gradientTransform="matrix(0.0142669677734375,0.0001068115234375,0.0001220703125,-0.0161590576171875,39.3,55.85)" id="gradient11"><stop offset="0.0" stop-color="#ffffff" stop-opacity="0.9686274509803922"/><stop offset="1.0" stop-color="#e2e3e4" stop-opacity="0.0"/></linearGradient><linearGradient gradientUnits="userSpaceOnUse" x1="-819.2" x2="819.2" spreadMethod="pad" gradientTransform="matrix(0.0139617919921875,0.0001068115234375,0.0001068115234375,-0.01580810546875,62.4,56.05)" id="gradient12"><stop offset="0.0" stop-color="#d5d5d7" stop-opacity="0.0"/><stop offset="1.0" stop-color="#ffffff" stop-opacity="0.9647058823529412"/><stop offset="1.0" stop-color="#e1e2e2"/></linearGradient><g id="c1"><path stroke="none" fill="url(#gradient1)" d="M50.15 48.65 Q36.8 47.6 31.35 46.35 18.7 43.45 15.7 36.7 15.55 33.1 15.85 29.4 16.0 36.5 31.55 39.05 L50.3 40.2 50.15 48.65"/><path stroke="none" fill="url(#gradient2)" d="M50.3 40.2 L68.8 39.4 Q84.25 37.15 84.6 30.1 84.75 34.25 84.45 37.4 81.25 44.0 68.75 46.7 63.45 47.85 50.15 48.65 L50.3 40.2"/><path stroke="none" fill="url(#gradient3)" d="M50.65 89.8 L42.35 88.75 Q36.85 87.5 35.45 84.5 35.35 82.7 35.5 81.25 35.6 84.45 42.45 85.5 L50.75 86.05 50.65 89.8"/><path stroke="none" fill="url(#gradient4)" d="M50.75 86.05 L58.9 85.7 Q65.75 84.7 65.9 81.55 L65.85 84.8 Q64.45 87.7 58.9 88.9 L50.65 89.8 50.75 86.05"/><path stroke="none" fill="url(#gradient5)" d="M50.65 70.0 L38.1 68.45 Q29.65 66.5 27.6 62.0 27.5 59.15 27.7 57.15 27.8 61.9 38.25 63.55 L50.75 64.35 50.65 70.0"/><path stroke="none" fill="url(#gradient6)" d="M50.75 64.35 L63.15 63.8 Q73.55 62.3 73.75 57.6 73.9 59.85 73.65 62.45 71.6 66.9 63.15 68.7 L50.65 70.0 50.75 64.35"/><path stroke="none" fill="url(#gradient7)" d="M15.85 29.3 Q19.05 23.0 31.85 20.55 L50.7 18.8 50.55 26.75 Q16.25 26.45 15.7 36.2 15.55 32.65 15.85 29.3"/><path stroke="none" fill="url(#gradient8)" d="M84.6 30.0 Q84.85 33.3 84.45 36.85 84.3 27.05 50.55 26.75 L50.7 18.8 Q63.8 19.75 69.2 20.9 81.6 23.6 84.6 30.0"/><path fill="#ffffff" fill-opacity="0.8" d="M69.4 23.55 L66.55 29.75 54.45 64.95 52.1 60.0 66.8 18.7 72.1 15.85 74.4 21.3 59.7 66.4 56.5 67.7 Q56.0 67.75 55.35 66.7 L67.9 30.2 69.4 23.55"/><path fill="#ffffff" fill-opacity="0.8" d="M23.3 22.9 L25.25 17.3 30.7 19.85 48.9 63.0 Q47.9 64.95 46.0 66.15 L31.6 30.9 28.35 24.85 29.3 28.15 30.3 31.45 39.65 54.35 39.4 53.75 44.7 66.8 42.7 67.1 40.35 66.75 23.3 22.9"/><path fill="#ffffff" stroke="none" d="M49.8 16.4 L49.4 20.2 49.4 68.75 51.0 68.75 51.0 20.2 50.2 12.6 49.8 16.4 M45.65 8.4 L50.2 3.5 54.6 8.4 55.6 68.95 58.0 68.8 62.75 68.2 66.9 67.35 Q68.65 67.05 68.65 67.6 L68.6 69.4 Q68.1 70.65 65.4 71.65 62.8 72.6 58.95 72.8 L55.6 72.85 55.6 91.0 54.75 92.45 Q53.35 93.85 50.5 93.85 47.65 93.85 46.35 92.95 L45.65 92.05 45.65 73.15 Q41.1 73.15 36.75 71.8 33.45 70.75 32.7 69.1 31.95 67.4 34.9 67.75 L39.35 68.35 45.0 68.8 45.65 8.4"/><path stroke="none" fill="url(#gradient9)" d="M35.45 84.25 L35.5 81.2 Q36.95 78.4 42.6 77.35 L50.9 76.6 50.85 80.1 Q35.7 79.95 35.45 84.25"/><path stroke="none" fill="url(#gradient10)" d="M65.9 81.5 L65.85 84.55 Q65.8 80.25 50.85 80.1 L50.9 76.6 59.1 77.5 Q64.6 78.7 65.9 81.5"/><path stroke="none" fill="url(#gradient11)" d="M27.7 57.05 Q29.9 52.85 38.4 51.2 L51.05 50.0 50.95 55.35 Q28.0 55.15 27.6 61.65 27.5 58.95 27.7 57.05"/><path stroke="none" fill="url(#gradient12)" d="M73.65 62.1 Q73.6 55.6 50.95 55.35 L51.05 50.0 Q59.7 50.65 63.45 51.45 71.8 53.25 73.75 57.5 73.9 59.6 73.65 62.1"/></g></defs><g><g><use transform="matrix(1.0,0.0,0.0,1.0,0.0,0.0)" xlink:href="#c1"/></g></g></svg>