<?xml version='1.0' encoding='UTF-8'?>
<svg xmlns="http://www.w3.org/2000/svg" xmlns:xlink="http://www.w3.org/1999/xlink" version="1.1" width="88px" height="94px" viewBox="6.75 2.45 88.2 93.55"><defs><linearGradient gradientUnits="userSpaceOnUse" x1="-819.2" x2="819.2" spreadMethod="pad" gradientTransform="matrix(0.0185546875,0.017059326171875,0.017059326171875,-0.0185546875,41.1,28.8)" id="gradient13"><stop offset="0.0" stop-color="#ffffff" stop-opacity="0.9686274509803922"/><stop offset="1.0" stop-color="#e2e3e4" stop-opacity="0.0"/></linearGradient><linearGradient gradientUnits="userSpaceOnUse" x1="-819.2" x2="819.2" spreadMethod="pad" gradientTransform="matrix(0.0184326171875,0.016937255859375,0.016937255859375,-0.0184326171875,71.25,56.65)" id="gradient14"><stop offset="0.0" stop-color="#d5d5d7" stop-opacity="0.0"/><stop offset="1.0" stop-color="#ffffff" stop-opacity="0.9647058823529412"/><stop offset="1.0" stop-color="#e1e2e2"/></linearGradient><linearGradient gradientUnits="userSpaceOnUse" x1="-819.2" x2="819.2" spreadMethod="pad" gradientTransform="matrix(0.0186920166015625,0.017181396484375,0.017181396484375,-0.0186920166015625,49.45,19.95)" id="gradient15"><stop offset="0.0" stop-color="#ffffff" stop-opacity="0.9686274509803922"/><stop offset="1.0" stop-color="#e2e3e4" stop-opacity="0.0"/></linearGradient><linearGradient gradientUnits="userSpaceOnUse" x1="-819.2" x2="819.2" spreadMethod="pad" gradientTransform="matrix(0.0182952880859375,0.016815185546875,0.016815185546875,-0.0182952880859375,79.6,47.8)" id="gradient16"><stop offset="0.0" stop-color="#d5d5d7" stop-opacity="0.0"/><stop offset="1.0" stop-color="#ffffff" stop-opacity="0.9647058823529412"/><stop offset="1.0" stop-color="#e1e2e2"/></linearGradient><g id="c1"><path stroke="none" fill="url(#gradient13)" d="M49.45 50.05 Q38.3 38.4 34.55 33.2 25.45 20.85 27.55 13.2 29.9 10.3 32.8 7.6 27.9 13.25 39.9 27.7 44.95 33.65 55.6 43.55 L49.45 50.05"/><path stroke="none" fill="url(#gradient14)" d="M55.6 43.55 Q65.85 53.05 72.45 57.75 87.65 68.35 93.0 63.15 90.6 66.15 87.7 68.75 80.25 71.35 67.25 63.4 61.75 60.05 49.45 50.05 L55.6 43.55"/><path stroke="none" fill="url(#gradient15)" d="M32.9 7.5 Q40.2 5.2 53.15 13.5 58.8 17.1 71.05 27.2 L65.3 33.3 Q35.35 5.6 27.95 12.8 30.2 9.95 32.9 7.5"/><path stroke="none" fill="url(#gradient16)" d="M85.9 43.7 Q94.95 55.75 93.05 63.1 90.9 65.8 88.1 68.35 94.85 60.6 65.3 33.3 L71.05 27.2 Q81.95 38.45 85.9 43.7"/><path fill="#ffffff" stroke="none" d="M47.85 11.75 L52.8 16.3 46.75 14.05 44.2 21.5 44.25 13.55 36.65 15.0 43.1 10.95 40.6 5.7 45.3 9.55 50.55 6.55 47.85 11.75"/><path fill="#ffffff" stroke="none" d="M78.65 29.55 L85.05 27.25 80.75 32.85 84.45 38.9 78.8 35.2 73.1 42.0 75.95 33.45 66.75 32.25 75.8 30.5 74.15 23.1 78.65 29.55"/><path fill="#ffffff" stroke="none" d="M85.25 55.55 L85.0 52.15 87.15 54.95 90.55 53.9 88.0 56.2 90.6 59.8 86.8 57.35 85.0 61.6 85.35 57.05 81.55 56.9 85.25 55.55"/><path fill="#ffffff" stroke="none" d="M75.35 6.75 L85.05 2.45 58.75 40.5 61.45 40.45 Q62.15 40.25 62.85 41.65 L63.35 43.1 62.6 43.95 Q61.85 44.85 57.05 42.6 L57.8 44.8 Q58.65 47.2 59.25 48.1 60.2 49.4 59.55 49.95 L57.9 50.15 Q57.15 50.0 57.1 48.95 57.0 47.55 56.45 47.0 55.75 46.25 55.25 45.1 L54.9 44.1 33.15 71.95 32.9 73.05 Q32.65 74.2 32.95 74.75 33.35 75.45 35.45 76.45 37.65 77.45 39.1 77.55 L41.7 78.0 Q42.75 78.5 42.8 79.55 42.8 80.45 41.85 81.3 40.7 82.25 39.35 81.7 37.35 80.8 37.1 79.65 L30.1 75.7 31.85 79.35 33.05 80.8 Q34.15 82.4 33.8 83.05 33.3 84.05 32.05 84.65 30.65 85.3 30.0 84.3 29.4 83.35 29.7 82.3 L30.15 81.45 27.1 75.7 Q15.45 89.65 14.85 91.15 14.5 92.05 14.8 92.8 L15.1 93.8 Q14.9 94.35 12.8 95.15 10.5 96.0 9.45 95.45 8.3 94.8 7.55 93.3 6.75 91.8 6.8 90.35 6.85 89.15 9.55 88.45 L12.25 88.05 23.35 72.2 19.35 69.95 Q15.2 67.75 14.5 67.95 13.35 68.3 11.6 67.4 9.75 66.45 11.05 65.2 12.1 64.15 12.85 64.05 14.3 63.9 16.7 66.0 19.0 68.05 21.2 68.15 L22.95 67.9 20.45 65.85 Q19.2 64.75 19.2 64.3 19.1 61.45 20.95 61.2 L22.8 61.5 22.7 63.0 Q22.65 64.55 22.85 65.05 23.15 65.85 25.15 66.95 L48.05 39.25 46.15 39.05 43.5 38.65 Q42.75 38.4 42.1 37.15 41.45 35.85 43.15 36.1 L49.4 37.2 48.1 36.15 45.05 34.15 Q43.9 33.6 45.15 32.7 46.35 31.85 47.15 32.05 47.95 32.2 49.6 34.05 L51.1 35.9 75.35 6.75"/></g></defs><g><g><use transform="matrix(1.0,0.0,0.0,1.0,0.0,0.0)" xlink:href="#c1"/></g></g></svg>