<?xml version='1.0' encoding='UTF-8'?>
<svg xmlns="http://www.w3.org/2000/svg" xmlns:xlink="http://www.w3.org/1999/xlink" version="1.1" width="97px" height="98px" viewBox="1.75 0.1 96.6 97.85000000000001"><defs><g id="c1"><path fill="#ffffff" stroke="none" d="M50.05 53.9 Q53.4 56.05 55.4 60.15 56.8 63.05 58.1 68.25 55.25 71.3 53.1 76.3 L49.7 85.55 Q49.65 83.55 49.0 81.3 L47.4 77.15 45.15 73.35 Q43.6 71.05 43.35 69.95 42.5 66.55 45.2 61.15 47.3 57.0 50.05 53.9"/><path fill="#ffffff" stroke="none" d="M31.6 63.45 Q49.2 73.95 49.4 95.6 48.75 95.95 48.35 95.35 L47.7 94.4 Q39.8 87.45 31.95 82.4 30.3 78.6 30.25 73.05 30.2 67.7 31.6 63.45"/><path fill="#ffffff" stroke="none" d="M63.85 85.6 L58.8 88.9 54.55 92.7 Q52.25 94.95 50.75 95.85 50.7 74.8 68.15 63.45 72.1 76.7 68.15 82.15 67.15 83.55 63.85 85.6"/><path fill="#ffffff" stroke="none" d="M46.4 97.75 Q28.05 97.95 16.8 91.3 7.3 85.75 1.75 74.5 16.65 76.1 28.6 83.2 36.9 88.15 46.4 97.75"/><path fill="#ffffff" stroke="none" d="M83.4 91.25 Q72.2 97.85 54.05 97.75 53.85 97.15 54.95 95.95 L57.1 93.9 Q76.65 76.45 97.7 74.5 L98.35 74.5 Q92.8 85.65 83.4 91.25"/><path fill="#ffffff" stroke="none" d="M56.3 0.1 L56.75 8.1 Q57.15 14.6 58.1 14.8 L62.4 14.2 66.85 12.95 Q67.45 14.75 69.6 15.9 L73.35 17.75 73.2 19.35 73.0 20.3 Q72.6 22.05 71.15 23.6 L68.7 26.2 60.95 25.85 61.15 61.4 52.15 46.9 52.15 24.75 49.3 24.75 49.3 47.2 40.4 61.4 40.5 25.85 32.75 26.2 30.35 23.6 Q28.85 22.05 28.45 20.3 L28.25 19.35 28.15 17.75 31.85 15.9 Q34.05 14.75 34.6 12.95 L39.05 14.2 43.35 14.8 Q44.3 14.6 44.7 8.1 44.95 1.15 45.15 0.1 L56.3 0.1"/></g></defs><g><g><use transform="matrix(1.0,0.0,0.0,1.0,0.0,0.0)" xlink:href="#c1"/></g></g></svg>