<?xml version='1.0' encoding='UTF-8'?>
<svg xmlns="http://www.w3.org/2000/svg" xmlns:xlink="http://www.w3.org/1999/xlink" version="1.1" width="84px" height="90px" viewBox="5.8 4.2 84.35000000000001 90.35"><defs><g id="c1"><path fill="#ffffff" stroke="none" d="M49.6 4.2 L54.0 9.1 55.0 69.65 62.15 68.9 66.25 68.05 Q68.0 67.75 68.0 68.3 L67.95 70.1 Q67.45 71.35 64.75 72.35 62.15 73.3 58.3 73.5 L55.0 73.55 55.0 91.7 54.15 93.15 Q52.7 94.55 49.85 94.55 47.0 94.55 45.75 93.65 L45.05 92.75 45.05 73.85 42.25 73.7 Q38.85 73.35 36.1 72.5 32.8 71.5 32.05 69.8 31.3 68.1 34.25 68.45 L44.35 69.5 45.05 9.1 49.6 4.2"/><path fill="#ffffff" fill-opacity="0.8" d="M67.65 15.4 L67.6 15.35 71.75 14.5 Q75.15 13.7 72.95 11.5 70.4 8.95 68.0 9.5 65.85 10.0 64.5 12.55 L63.6 13.5 67.65 15.4 M81.55 72.05 L82.75 73.0 Q84.2 73.75 85.25 72.4 86.3 71.05 85.35 69.1 L84.2 67.4 81.55 72.05 M83.45 58.65 Q84.75 54.3 83.85 53.05 83.55 52.6 81.95 52.5 L80.4 52.5 79.9 53.3 Q79.35 54.05 79.0 54.1 78.0 54.25 75.6 51.75 L78.4 57.0 79.05 61.05 82.0 62.75 83.45 58.65 M88.45 37.25 Q89.2 39.5 88.45 40.75 L87.5 42.2 Q89.45 52.1 86.45 61.8 L85.7 63.9 Q86.05 63.5 86.15 63.6 90.15 66.15 89.75 70.9 89.5 73.5 88.25 75.0 87.25 76.15 87.6 77.75 88.15 80.25 85.0 81.3 81.8 82.35 80.75 79.85 79.85 77.75 78.75 77.0 L77.8 76.7 78.0 76.45 Q74.9 79.8 71.65 82.05 71.6 82.35 72.05 83.1 72.45 83.7 71.85 84.85 L71.65 84.95 69.6 86.45 Q68.15 85.45 68.8 84.6 L69.9 83.2 Q65.1 86.3 59.0 87.95 L59.0 82.4 Q62.05 81.45 66.95 78.25 L71.2 75.25 70.25 74.9 Q69.25 74.35 68.85 73.2 L68.7 72.75 Q69.95 71.5 70.3 69.85 L70.4 69.6 Q70.9 68.85 70.9 67.9 70.9 67.0 70.3 66.15 L70.05 65.8 70.0 65.75 69.65 65.45 Q68.8 64.75 67.9 64.9 L66.8 65.1 Q65.4 65.45 64.15 66.2 62.8 66.55 59.0 66.3 L59.0 60.85 62.15 61.35 67.65 61.8 Q69.5 62.25 70.25 64.45 71.2 67.05 72.75 69.1 74.4 71.2 75.5 71.0 76.6 70.8 78.35 68.4 80.1 66.0 79.6 65.65 78.55 64.9 77.4 61.1 76.25 57.35 75.3 56.75 74.1 56.05 73.7 54.65 L73.15 52.75 Q72.8 52.05 67.6 50.1 62.1 48.05 59.0 47.7 L59.0 43.4 60.45 44.0 Q61.75 44.6 62.6 45.75 63.15 46.5 63.75 46.4 64.4 46.25 68.3 47.5 72.15 48.7 72.55 48.5 L73.9 48.1 Q75.0 48.15 78.3 49.05 L82.6 50.55 Q83.3 50.8 83.5 50.25 83.9 49.35 83.2 45.35 82.5 41.05 81.25 38.0 80.1 35.3 74.9 28.7 L69.9 22.7 68.75 27.25 64.7 30.25 64.0 30.45 Q63.15 30.95 62.5 32.25 L60.95 35.55 Q59.95 37.65 59.0 38.3 L59.0 28.35 60.7 26.9 61.5 25.95 Q61.85 24.55 62.35 23.1 63.4 20.2 64.4 19.95 64.95 19.8 63.35 18.95 61.65 18.05 59.0 17.2 L59.0 12.0 59.05 12.0 Q59.5 9.65 60.65 8.0 62.75 5.05 66.25 6.3 L73.45 7.35 Q77.45 8.0 76.9 11.2 76.65 12.6 77.25 14.1 L78.3 16.5 Q79.35 19.15 75.95 21.4 L75.9 21.4 Q79.65 24.9 82.55 29.55 L86.4 32.85 86.9 33.85 Q88.05 36.0 88.45 37.25 M11.2 67.25 L10.2 70.2 Q9.85 71.6 10.55 71.35 12.15 70.85 13.25 73.75 L15.05 77.95 Q15.4 78.3 16.15 77.95 L17.6 77.05 Q13.8 72.8 11.2 67.25 M24.1 19.05 L24.05 19.05 21.0 19.2 Q19.1 19.25 19.35 20.8 19.5 21.6 20.0 22.4 L24.1 19.05 M26.0 16.35 Q25.75 16.05 27.95 14.5 L31.55 12.15 36.55 12.45 39.05 12.45 38.85 12.55 40.4 12.25 40.4 17.0 Q34.2 18.35 30.15 19.85 31.6 20.2 32.55 22.4 33.45 24.7 34.15 24.95 34.85 25.2 37.0 27.0 39.05 28.7 40.3 29.1 L40.4 29.15 40.4 43.55 Q38.2 41.7 38.6 40.3 L39.85 37.25 Q40.45 35.5 39.45 35.15 38.45 34.75 38.3 33.1 L38.25 30.7 Q38.1 29.95 36.5 28.95 L33.1 27.15 Q32.05 26.6 31.25 24.65 30.55 22.9 28.4 22.25 25.75 21.4 21.15 27.35 17.2 32.45 13.9 39.5 11.45 44.7 12.05 52.0 12.25 54.55 12.75 56.25 13.25 57.85 13.45 57.2 L13.6 56.1 14.9 55.1 Q15.9 54.4 16.6 54.65 17.0 54.75 17.7 53.6 18.5 52.25 19.65 51.45 L20.65 50.95 21.7 51.65 Q23.1 52.1 24.7 50.7 26.2 49.4 27.85 49.45 L29.3 49.25 Q29.5 48.65 30.6 47.55 31.75 46.4 32.35 46.35 L34.45 47.4 Q36.15 48.1 36.95 46.15 37.85 43.9 40.3 44.25 L39.4 51.35 38.75 51.45 34.0 51.8 Q33.4 51.7 33.45 51.4 L31.55 52.25 Q29.45 53.3 28.55 54.4 27.8 55.3 26.75 55.2 25.7 55.15 24.95 55.95 L22.15 58.3 Q20.45 59.7 20.25 60.75 20.0 62.4 19.35 64.1 18.5 66.15 17.5 66.7 L21.1 65.15 24.65 65.55 Q25.6 63.7 26.65 62.8 L29.65 60.75 Q32.0 59.35 33.2 59.35 L36.05 58.95 39.2 57.9 39.2 59.7 39.15 60.1 Q37.2 60.9 35.15 62.0 33.05 63.1 34.4 62.5 36.0 61.85 32.65 64.5 29.9 66.65 28.3 66.0 27.8 65.8 26.65 67.0 25.4 68.3 24.2 68.2 22.1 68.0 19.6 68.7 L17.5 69.45 21.9 75.55 Q23.6 77.9 27.95 80.8 33.3 84.35 38.2 85.15 L40.4 85.4 40.4 89.7 39.95 89.65 Q37.5 90.05 36.5 91.55 L35.1 94.15 Q33.15 93.7 30.95 92.45 L31.4 92.05 Q33.2 90.15 27.25 84.95 23.5 82.8 20.3 79.85 18.8 81.25 15.1 80.45 11.35 79.6 11.45 77.6 11.6 75.3 10.55 74.65 8.9 74.1 7.85 73.2 6.5 72.05 7.65 67.45 L9.1 63.1 9.4 62.5 Q5.8 50.8 9.5 39.15 12.0 31.25 17.35 25.15 L17.15 25.35 Q16.85 24.15 16.8 22.4 16.7 18.95 18.1 16.5 19.85 13.3 26.0 16.35"/></g></defs><g><g><use transform="matrix(1.0,0.0,0.0,1.0,0.0,0.0)" xlink:href="#c1"/></g></g></svg>