<?xml version='1.0' encoding='UTF-8'?>
<svg xmlns="http://www.w3.org/2000/svg" xmlns:xlink="http://www.w3.org/1999/xlink" version="1.1" width="98px" height="79px" viewBox="1.4 8.2 97.94999999999999 79.0"><defs><g id="c1"><path fill="#ffffff" stroke="none" d="M41.85 26.9 Q41.55 27.9 40.45 28.2 40.4 27.2 41.85 26.9 M74.0 50.05 Q73.4 50.2 73.9 49.15 74.6 49.9 74.0 50.05 M67.9 85.85 Q67.5 85.3 67.65 84.45 68.6 83.75 68.95 84.9 69.3 86.0 67.9 85.85 M47.0 78.4 Q45.75 78.4 45.75 79.2 46.85 79.0 47.0 78.4 M56.55 81.7 L56.05 81.7 56.05 81.15 56.55 81.15 56.55 81.7 M56.85 70.1 Q56.8 71.1 55.3 71.2 55.8 70.25 56.85 70.1 M54.3 73.95 Q54.15 73.25 54.85 73.15 55.5 73.05 55.8 73.4 55.8 73.85 56.05 73.95 56.25 74.5 55.95 74.7 L55.55 75.1 Q57.25 79.7 53.55 81.15 L50.75 81.2 Q49.25 80.6 48.8 78.95 48.1 76.45 49.85 74.9 51.6 73.3 54.3 73.95 M51.1 71.85 Q50.6 72.4 50.8 71.2 51.65 71.3 51.1 71.85 M53.8 70.4 Q54.4 72.05 54.05 72.85 53.55 72.8 53.4 71.8 53.2 70.75 52.8 70.65 L53.2 70.4 53.8 70.4 M57.35 67.05 Q58.05 67.15 58.1 66.8 58.7 67.75 58.85 69.3 57.95 70.0 57.1 69.85 L57.35 67.05 M59.7 65.3 Q60.25 65.85 59.1 65.7 59.2 64.75 59.7 65.3 M45.75 72.85 L47.05 72.6 48.3 72.85 Q49.2 74.3 48.5 76.25 47.65 78.55 47.8 79.2 46.75 79.0 45.15 80.4 43.85 81.55 42.75 80.6 42.9 79.85 43.6 78.9 L44.5 77.3 Q39.3 77.4 40.25 71.75 41.75 70.55 43.4 70.8 45.15 71.05 45.75 72.85 M46.45 57.2 L46.5 57.75 47.0 57.7 46.95 57.15 46.45 57.2 M65.6 54.4 Q66.25 54.45 66.1 55.5 65.5 55.35 65.6 54.4 M69.9 60.2 Q70.2 60.15 70.2 60.7 L70.15 61.55 69.15 61.55 Q68.95 60.95 69.3 60.65 L69.9 60.2 M63.85 55.95 L63.1 55.75 Q63.15 55.1 64.1 55.2 L63.85 55.95 M63.65 60.5 L64.1 59.9 Q64.8 60.0 65.1 61.3 L64.2 61.55 Q63.65 61.65 63.35 61.3 63.3 60.8 63.65 60.5 M65.5 60.15 Q65.4 59.55 65.6 59.35 65.9 59.05 66.65 59.05 67.35 59.05 67.65 59.35 67.8 60.2 66.95 60.4 65.95 60.6 65.85 61.0 L65.5 60.15 M64.05 57.2 Q64.45 57.4 64.35 57.95 64.0 58.4 63.45 58.15 62.95 57.9 63.1 57.15 L64.05 57.2 M62.35 53.85 Q63.35 53.05 63.2 53.95 63.1 54.9 62.35 53.85 M69.65 52.75 Q69.9 52.45 70.65 52.45 L71.9 52.45 Q71.8 53.25 70.8 53.45 69.7 53.7 69.65 52.75 M74.9 58.95 Q74.25 59.75 74.15 60.75 L75.4 60.55 Q76.0 60.15 76.45 60.2 L76.75 58.75 Q76.85 57.7 76.2 57.7 L74.9 58.95 M72.65 50.5 Q72.25 50.5 72.15 50.8 71.0 50.75 71.15 49.15 72.95 48.9 72.65 50.5 M30.05 86.55 L30.2 85.85 Q31.4 85.75 31.45 86.4 31.5 86.95 31.15 87.15 L30.2 87.2 30.05 86.55 M18.55 64.3 L17.05 63.85 Q17.75 65.45 19.25 65.8 19.25 64.75 18.55 64.3 M1.6 66.15 Q2.2 65.15 3.25 65.55 4.3 66.0 4.0 67.55 3.15 68.4 2.3 68.1 1.4 67.75 1.6 66.15 M20.05 52.7 Q20.0 53.35 19.1 53.35 18.9 52.85 19.3 52.75 L20.05 52.7 M19.25 54.3 Q19.55 54.7 19.5 55.25 17.65 55.05 16.45 56.8 15.1 58.75 13.8 58.95 13.5 58.7 13.45 58.0 13.35 57.3 13.6 57.0 15.1 56.8 15.4 57.35 L17.0 55.4 Q17.95 54.3 18.85 53.65 L19.25 54.3 M24.15 70.4 L24.25 70.4 Q24.25 68.4 25.2 69.05 26.3 69.85 25.6 70.45 28.0 71.05 29.2 73.95 L30.15 73.6 31.2 73.7 31.75 75.25 Q32.05 76.3 32.95 76.2 32.65 76.95 32.3 78.7 31.9 80.25 30.95 80.85 L29.85 81.05 Q29.2 81.05 28.95 81.7 L28.15 80.9 Q27.5 80.55 27.4 80.05 L23.65 80.05 Q20.65 78.9 20.8 74.85 20.95 70.8 24.15 70.4 M25.4 50.95 Q24.7 50.3 25.25 50.05 25.85 49.85 25.4 50.95 M21.1 50.9 Q21.6 50.95 21.35 51.45 21.1 51.9 20.7 51.8 L20.9 51.35 21.1 50.9 M23.25 51.75 Q23.0 52.3 23.3 52.3 23.4 52.65 23.15 52.8 L22.85 53.2 Q22.95 53.5 23.6 53.4 24.3 53.35 24.4 53.6 24.2 54.15 23.5 54.2 L22.2 54.1 Q22.55 53.65 22.15 53.25 21.7 52.7 21.75 52.2 22.0 51.85 23.25 51.75 M24.9 50.75 Q24.35 50.85 24.3 51.75 L24.1 53.05 23.5 51.15 Q23.05 49.9 23.75 49.2 24.55 49.25 24.9 50.75 M33.45 53.25 Q33.8 54.0 34.3 54.1 L34.65 53.9 Q34.35 52.9 34.45 51.4 33.8 52.15 32.85 52.05 L33.45 53.25 M35.55 43.15 Q35.55 43.85 34.6 43.85 34.55 43.15 34.8 43.1 L35.55 43.15 M35.65 45.0 Q35.7 44.05 36.5 45.0 35.6 45.95 35.65 45.0 M32.6 43.8 Q33.2 43.8 33.2 44.8 32.5 44.8 32.6 43.8 M34.1 41.1 Q34.45 40.6 35.0 40.8 35.55 41.0 35.45 41.8 34.05 42.1 34.1 41.1 M30.7 40.1 Q30.45 39.25 31.3 39.0 32.25 38.65 32.3 38.25 L32.75 39.1 Q32.9 39.65 32.7 39.9 32.45 40.2 31.75 40.3 L30.7 40.1 M34.8 37.7 L34.55 38.5 34.15 39.15 Q33.45 39.15 33.05 37.9 L33.95 37.55 34.8 37.7 M28.15 46.3 Q29.2 45.95 29.35 46.9 29.1 47.2 28.4 47.3 L27.1 47.45 Q27.1 46.65 28.15 46.3 M26.55 49.45 L27.0 49.1 Q28.25 49.0 28.15 50.65 26.35 51.15 26.55 49.45 M21.9 40.25 L21.75 41.75 Q21.7 42.8 22.4 42.7 L23.5 41.35 Q24.1 40.5 24.1 39.45 23.4 39.35 22.9 39.8 22.35 40.25 21.9 40.25 M29.0 38.1 Q29.25 38.65 28.9 39.0 L28.4 39.55 Q28.1 39.6 28.05 39.05 L28.0 38.2 29.0 38.1 M38.65 32.85 Q38.6 33.8 38.05 33.3 37.5 32.8 38.65 32.85 M38.55 29.25 Q39.0 28.8 39.2 28.7 L40.25 28.5 40.25 31.25 Q39.55 31.35 39.55 31.6 38.9 30.9 38.55 29.25 M15.15 48.2 Q15.85 46.85 15.65 46.25 19.5 47.5 21.3 44.5 20.1 41.4 21.85 39.4 23.15 38.0 26.15 37.0 L26.45 38.25 26.35 39.5 Q26.7 40.05 27.85 40.0 L29.4 39.7 Q29.7 40.25 29.6 40.55 L29.05 41.1 30.0 41.85 Q30.6 42.3 30.75 42.9 L29.2 42.75 Q29.15 43.65 29.85 43.85 L31.1 44.2 30.65 44.7 Q30.2 44.9 30.2 45.15 L29.4 44.2 28.5 43.15 Q28.4 42.9 28.65 42.55 L28.9 42.25 27.95 40.95 Q27.4 40.5 26.2 40.35 26.0 41.45 24.5 43.65 23.15 45.6 23.25 46.75 23.3 47.25 23.15 47.2 23.0 47.15 23.0 46.8 22.4 48.4 22.25 49.4 21.8 49.25 21.95 48.55 22.1 47.85 21.85 47.75 20.0 48.75 19.85 50.75 19.2 50.25 18.8 50.95 18.55 51.45 18.5 52.3 18.3 51.8 17.45 51.85 L15.9 52.05 Q15.8 51.55 15.35 51.2 L14.75 50.5 Q14.45 49.5 15.15 48.2 M40.2 17.1 L39.7 17.2 39.65 16.65 40.15 16.6 40.2 17.1 M28.4 15.15 Q27.5 15.95 27.05 14.85 26.6 13.8 28.0 13.8 28.4 14.3 28.4 15.15 M78.0 49.15 Q78.3 48.65 78.7 48.85 L78.45 49.3 78.2 49.7 Q77.7 49.65 78.0 49.15 M79.45 48.05 Q79.5 47.35 80.45 47.5 80.6 48.0 80.2 48.05 L79.45 48.05 M76.15 46.15 L77.45 46.4 Q77.05 46.85 77.35 47.25 77.8 47.85 77.7 48.3 L76.2 48.6 Q76.5 48.1 76.2 48.05 76.1 47.7 76.4 47.55 L76.7 47.2 Q76.6 46.9 75.95 46.9 75.25 46.9 75.15 46.65 75.45 46.1 76.15 46.15 M75.1 48.5 L75.4 47.2 75.85 49.2 Q76.15 50.5 75.4 51.05 74.7 50.95 74.4 49.4 74.95 49.4 75.1 48.5 M75.55 30.85 Q75.2 30.2 75.45 29.8 L76.95 29.85 Q76.85 31.2 76.35 31.35 75.95 31.45 75.55 30.85 M76.2 25.7 L76.2 27.05 75.3 27.35 Q74.65 27.35 74.4 27.05 73.95 26.3 74.7 25.7 75.5 25.1 76.2 25.7 M53.55 40.05 L53.05 40.05 53.05 40.6 53.55 40.6 53.55 40.05 M42.95 25.15 Q43.5 25.15 43.75 26.1 44.0 27.15 44.4 27.2 L44.05 27.5 43.45 27.55 Q42.65 26.1 42.95 25.15 M46.35 26.4 Q45.55 26.4 46.0 25.8 46.45 25.2 46.35 26.4 M48.7 24.5 Q47.7 23.2 48.2 21.15 48.8 18.8 48.6 18.1 49.65 18.15 51.15 16.65 52.35 15.35 53.5 16.2 L52.85 18.0 52.05 19.65 Q57.2 19.0 56.8 24.7 55.4 26.05 53.75 26.0 52.0 25.95 51.2 24.2 50.05 24.95 48.7 24.5 M49.45 18.85 L50.35 18.6 Q50.7 18.4 50.6 17.9 49.55 18.2 49.45 18.85 M42.65 16.85 Q44.05 16.1 45.5 16.5 47.05 16.9 47.65 18.5 48.6 20.9 46.95 22.65 45.35 24.4 42.6 24.05 42.8 24.75 42.15 24.95 L41.15 24.8 Q41.15 24.35 40.85 24.25 40.65 23.8 40.9 23.55 L41.25 23.1 Q39.1 18.7 42.65 16.85 M77.45 22.95 L77.45 24.05 76.45 24.05 Q76.3 23.4 76.65 23.15 L77.45 22.95 M61.95 20.2 Q63.35 20.05 64.3 21.4 L65.65 24.5 Q65.0 26.5 64.15 27.35 62.9 28.6 60.9 27.8 59.05 27.1 59.3 23.8 59.55 20.5 61.95 20.2 M66.3 14.3 Q66.95 14.2 67.15 13.5 L68.0 14.2 Q68.7 14.5 68.8 15.0 L72.55 14.6 Q75.65 15.4 75.85 19.45 76.1 23.45 72.95 24.25 71.4 24.65 69.9 23.75 68.45 22.9 67.6 21.25 L66.7 21.7 65.65 21.75 64.95 20.25 Q64.55 19.25 63.65 19.45 L64.05 16.9 Q64.3 15.3 65.2 14.55 L66.3 14.3 M65.35 8.2 L65.6 8.85 65.5 9.55 Q64.3 9.75 64.2 9.15 64.0 8.2 65.35 8.2 M84.45 43.9 L82.7 45.7 80.7 47.2 Q80.1 46.4 80.2 45.55 82.05 46.0 83.4 44.35 84.95 42.55 86.25 42.5 L86.5 43.5 86.25 44.45 Q84.75 44.55 84.45 43.9 M81.95 49.2 L83.45 49.15 83.95 50.05 84.45 50.8 Q84.65 51.85 83.9 53.1 83.1 54.35 83.2 54.95 79.45 53.2 77.45 56.05 78.35 59.25 76.4 61.0 75.0 62.3 71.9 62.95 L71.7 61.65 Q71.65 61.0 71.9 60.45 71.6 59.9 70.5 59.8 L68.9 59.9 Q68.7 59.3 68.8 59.05 68.9 58.8 69.4 58.5 L68.5 57.7 Q67.95 57.2 67.9 56.6 L69.4 56.85 Q69.5 56.0 68.85 55.7 67.95 55.45 67.65 55.2 L68.15 54.8 68.65 54.4 69.35 55.45 70.15 56.6 69.65 57.4 Q70.1 58.45 70.45 58.8 70.95 59.3 72.15 59.6 72.45 58.55 74.15 56.5 75.65 54.75 75.65 53.55 75.65 53.05 75.8 53.1 L75.95 53.55 76.95 51.05 Q77.35 51.25 77.15 51.95 76.9 52.6 77.2 52.75 79.1 51.9 79.45 49.95 80.5 50.95 80.95 48.6 81.1 49.15 81.95 49.2 M81.45 35.05 Q81.35 36.15 82.0 36.65 L83.45 37.3 Q82.9 35.65 81.45 35.05 M92.5 31.5 L91.8 33.7 Q91.25 34.95 91.75 35.9 92.45 36.05 92.95 35.55 93.55 35.05 94.0 35.05 L96.2 38.05 Q97.4 39.95 97.05 41.95 96.5 44.95 93.15 45.4 89.75 45.9 88.75 42.25 86.8 42.85 85.35 41.5 84.15 40.45 83.45 38.4 L82.2 38.65 83.15 39.8 Q83.55 40.5 83.2 41.4 82.55 41.85 81.55 41.8 L79.7 41.95 Q79.35 43.25 78.15 44.0 L75.65 45.0 Q75.45 45.9 74.35 46.75 73.15 47.65 72.9 48.3 L69.8 48.7 Q67.85 48.95 67.15 47.5 L67.05 48.5 Q67.0 49.4 66.65 49.7 64.55 50.0 64.85 47.75 65.75 47.05 66.65 47.2 L66.15 45.95 Q65.85 45.15 65.35 45.0 64.85 45.15 64.1 45.85 L64.5 46.4 Q64.75 46.7 64.6 47.2 63.95 47.9 63.0 47.9 62.1 47.85 61.35 47.2 L60.35 49.05 59.35 50.8 Q59.6 51.3 59.9 50.65 60.25 50.0 60.6 50.5 L60.0 51.4 Q59.6 51.9 59.85 52.75 L61.1 54.25 Q61.85 55.1 62.85 55.2 L62.2 55.35 Q61.7 55.2 61.35 55.5 L60.95 54.55 Q60.75 53.95 60.35 53.85 59.9 53.9 59.65 54.6 L59.1 55.5 Q59.7 56.35 59.8 58.3 59.9 60.4 60.35 61.3 L61.7 61.35 62.6 61.3 61.35 62.15 Q60.45 62.6 60.1 62.95 L60.25 63.5 60.35 64.05 Q59.65 64.25 58.8 65.45 57.95 66.6 57.1 66.8 L54.1 66.45 Q52.15 65.7 51.55 65.7 51.15 65.5 51.4 64.9 51.65 64.25 51.3 64.05 L50.55 64.85 49.8 65.7 Q47.95 65.8 46.5 64.05 46.7 62.25 48.1 61.55 L50.8 61.3 Q50.8 60.65 50.25 59.9 L46.55 61.25 Q46.45 64.35 44.6 64.6 L44.5 64.75 Q44.55 67.25 42.8 68.4 41.3 69.45 39.3 68.9 L38.85 70.0 Q38.3 70.0 37.7 70.35 38.0 72.2 37.2 73.85 36.35 75.6 34.7 75.65 33.3 75.65 32.5 74.15 32.0 73.25 31.45 70.95 L31.7 70.45 Q30.3 68.95 29.9 66.55 L30.6 65.25 29.95 64.6 Q29.95 63.9 30.2 63.3 L29.25 64.15 28.05 65.35 Q27.0 66.2 25.45 68.1 23.95 69.45 21.8 68.85 L21.1 69.5 20.4 70.1 Q19.8 69.25 19.7 68.65 19.6 68.05 19.85 66.85 L18.8 67.8 Q18.15 68.4 17.45 68.5 L17.5 69.5 Q17.55 70.15 17.85 70.1 L15.15 73.5 Q13.05 73.25 11.95 72.7 10.4 72.0 9.8 70.5 L8.55 70.6 9.05 68.35 Q9.5 67.05 8.9 66.15 8.25 66.05 7.75 66.6 7.2 67.2 6.75 67.2 L4.3 64.5 Q2.9 62.75 3.1 60.7 3.4 57.65 6.65 56.8 10.0 56.0 11.3 59.5 13.2 58.7 14.8 59.85 16.05 60.8 16.95 62.75 17.4 62.3 18.15 62.35 L17.1 61.3 Q16.65 60.65 16.9 59.7 17.5 59.2 18.55 59.1 L20.35 58.75 Q20.55 57.45 21.7 56.6 22.35 56.1 24.05 55.3 24.2 54.35 25.2 53.4 26.3 52.4 26.5 51.7 L29.55 50.95 Q31.45 50.5 32.35 51.85 L32.3 50.85 Q32.25 49.95 32.6 49.6 34.65 49.1 34.55 51.3 L37.15 49.75 39.55 48.0 39.75 47.7 Q39.45 47.25 39.2 47.9 38.9 48.6 38.55 48.1 38.55 47.85 39.05 47.15 39.4 46.6 39.1 45.8 L37.7 44.45 Q36.85 43.75 35.85 43.7 36.0 43.4 36.5 43.5 L37.35 43.25 37.85 44.15 Q38.1 44.7 38.5 44.75 38.95 44.65 39.1 43.95 39.3 43.15 39.6 43.0 38.9 42.2 38.65 40.3 38.35 38.2 37.8 37.35 L36.45 37.45 35.55 37.6 Q35.85 37.2 36.7 36.65 L37.9 35.7 37.7 35.15 37.55 34.6 39.0 33.05 Q39.7 31.8 40.55 31.5 L43.5 31.55 46.15 32.0 Q46.55 32.15 46.35 32.75 46.2 33.45 46.55 33.6 L47.25 32.7 Q47.6 32.0 47.9 31.8 49.7 31.45 51.3 33.05 51.25 34.85 49.95 35.75 48.85 36.45 47.3 36.3 47.35 36.8 47.7 37.3 L48.2 38.0 51.7 37.0 Q51.3 35.35 51.65 34.05 52.05 32.55 53.25 32.3 52.7 28.45 56.1 27.5 59.45 26.6 61.05 29.45 L62.05 29.15 62.35 28.7 Q63.15 28.75 64.15 28.05 65.2 27.4 65.85 27.35 68.0 27.25 69.4 28.9 70.75 30.55 70.9 33.15 L69.35 35.25 Q68.3 36.25 66.9 36.45 67.0 36.95 67.55 37.4 L68.4 38.1 68.95 37.75 Q69.3 37.5 69.65 37.55 L69.5 36.9 Q69.3 36.6 69.4 36.15 70.05 36.65 70.85 36.0 L72.65 34.5 75.5 32.1 Q77.1 30.95 79.2 31.75 L79.9 31.15 80.7 30.65 81.3 32.2 80.95 33.95 82.05 33.15 Q82.75 32.65 83.45 32.6 L83.5 31.6 Q83.5 30.95 83.2 30.95 84.15 29.8 86.25 27.9 88.3 28.4 89.35 29.05 90.8 29.95 91.25 31.5 L92.5 31.5 M98.5 34.7 Q99.35 35.2 99.05 36.75 98.3 37.7 97.35 37.15 96.4 36.55 96.8 35.05 97.7 34.3 98.5 34.7"/></g></defs><g><g><use transform="matrix(1.0,0.0,0.0,1.0,0.0,0.0)" xlink:href="#c1"/></g></g></svg>