<?xml version='1.0' encoding='UTF-8'?>
<svg xmlns="http://www.w3.org/2000/svg" xmlns:xlink="http://www.w3.org/1999/xlink" version="1.1" width="93px" height="93px" viewBox="3.1 2.65 93.30000000000001 92.69999999999999"><defs><g id="c1"><path fill="#ffffff" stroke="none" d="M26.65 43.9 Q26.65 43.55 26.8 43.8 L26.9 44.1 26.75 44.05 26.65 43.9"/><path fill="#ffffff" stroke="none" d="M26.85 44.4 Q27.25 44.55 26.05 45.35 25.95 45.1 26.35 44.85 L26.85 44.4"/><path fill="#ffffff" stroke="none" d="M38.0 39.6 L38.45 39.55 Q38.55 39.75 38.25 39.8 37.95 39.9 38.0 39.6"/><path fill="#ffffff" stroke="none" d="M30.85 43.15 Q33.2 41.45 34.05 42.05 L32.6 42.55 34.05 42.4 33.8 42.95 33.1 43.4 Q33.1 43.05 33.4 42.95 L32.5 43.25 Q31.9 43.45 31.7 42.95 L32.05 43.0 32.1 42.75 31.55 42.9 30.85 43.15"/><path fill="#ffffff" stroke="none" d="M38.75 39.6 L38.95 39.7 39.15 39.75 39.05 39.9 38.8 40.0 Q38.7 39.85 38.75 39.6"/><path fill="#ffffff" stroke="none" d="M25.15 45.75 L25.65 45.55 25.0 46.15 Q24.8 45.9 25.15 45.75"/><path fill="#ffffff" stroke="none" d="M34.25 42.15 L34.15 41.9 34.5 41.7 Q34.7 41.95 34.25 42.15"/><path fill="#ffffff" stroke="none" d="M37.1 40.6 L37.7 40.5 38.25 40.55 37.1 40.6"/><path fill="#ffffff" stroke="none" d="M38.55 40.45 Q38.45 40.3 38.7 40.2 L39.1 40.05 39.15 40.4 39.25 40.75 38.9 40.6 Q38.7 40.35 38.55 40.45"/><path fill="#ffffff" stroke="none" d="M23.9 48.15 L24.55 47.85 24.35 48.25 23.95 48.55 23.9 48.15"/><path fill="#ffffff" stroke="none" d="M21.35 53.2 L21.2 53.05 21.2 52.8 21.35 52.95 21.35 53.2"/><path fill="#ffffff" stroke="none" d="M19.5 54.45 L19.25 54.95 19.0 55.4 Q18.85 55.05 19.0 54.7 19.1 54.35 19.5 54.45"/><path fill="#ffffff" stroke="none" d="M20.1 54.8 Q20.35 54.75 20.35 55.1 L20.05 55.4 20.15 55.1 20.1 54.8"/><path fill="#ffffff" stroke="none" d="M18.0 59.8 Q18.55 59.55 18.25 60.45 18.0 60.5 18.05 60.2 L18.0 59.8"/><path fill="#ffffff" stroke="none" d="M54.9 47.05 L54.0 46.05 53.1 44.95 Q54.0 45.1 54.65 46.4 L54.85 46.75 54.9 47.05"/><path fill="#ffffff" stroke="none" d="M17.95 60.75 Q18.2 60.75 18.1 61.0 17.95 61.3 18.1 61.45 17.8 61.45 17.85 61.15 L17.95 60.75"/><path fill="#ffffff" stroke="none" d="M17.7 61.6 L17.85 61.75 17.85 62.0 17.7 61.85 17.7 61.6"/><path fill="#ffffff" stroke="none" d="M17.8 62.15 L18.0 62.65 18.0 63.3 Q17.75 63.25 17.75 62.8 17.7 62.45 17.8 62.15"/><path fill="#ffffff" stroke="none" d="M60.5 57.15 Q60.75 56.9 60.9 57.35 L61.0 57.95 60.7 57.75 60.5 57.15"/><path fill="#ffffff" stroke="none" d="M29.6 81.7 L29.25 81.7 29.15 81.45 29.35 81.2 Q29.6 81.15 29.6 81.7"/><path fill="#ffffff" stroke="none" d="M57.9 73.0 Q58.35 73.1 57.95 73.3 57.55 73.45 57.9 73.0"/><path fill="#ffffff" stroke="none" d="M40.15 83.25 L40.35 83.2 40.55 83.2 40.35 83.45 Q40.1 83.55 40.15 83.25"/><path fill="#ffffff" stroke="none" d="M26.0 89.65 L26.2 89.4 26.6 89.25 26.0 89.65"/><path fill="#ffffff" stroke="none" d="M44.25 83.0 L43.95 82.75 43.55 82.7 Q43.65 82.45 44.1 82.4 L44.85 82.25 Q45.1 82.3 44.65 82.55 44.05 82.8 44.25 83.0"/><path fill="#ffffff" stroke="none" d="M42.6 83.4 Q42.7 83.05 43.4 83.05 44.1 83.0 43.85 83.45 L43.65 83.5 43.55 83.15 42.6 83.4"/><path fill="#ffffff" stroke="none" d="M48.75 81.05 Q48.8 81.25 48.45 81.45 L48.0 81.8 Q47.7 81.75 48.05 81.45 L48.75 81.05"/><path fill="#ffffff" stroke="none" d="M47.2 82.0 L47.7 82.1 47.35 82.4 47.2 82.0"/><path fill="#ffffff" stroke="none" d="M43.85 83.75 Q43.9 83.55 44.35 83.4 L45.1 83.1 Q45.0 83.45 43.85 83.75"/><path fill="#ffffff" stroke="none" d="M26.35 39.0 L27.5 40.05 Q28.15 40.65 28.15 41.1 L28.3 41.1 28.55 40.95 30.35 40.2 Q31.55 39.6 31.8 39.7 L28.35 41.2 29.6 42.8 31.0 43.85 Q30.85 43.35 31.4 43.4 L32.55 43.5 32.0 44.0 32.45 43.95 32.75 43.55 Q33.15 43.95 33.85 43.4 L35.0 42.45 35.0 43.2 35.2 42.85 35.15 42.5 35.55 42.5 Q35.8 42.5 35.6 42.15 L35.4 42.2 35.05 42.25 Q35.2 41.7 34.85 41.6 L33.9 41.7 Q34.25 41.2 33.45 41.4 33.75 41.1 34.35 41.25 34.9 41.4 35.25 41.7 35.7 41.1 36.55 41.1 L37.75 41.1 37.9 41.35 Q37.95 41.6 38.2 41.5 L38.2 41.1 38.65 40.7 38.4 41.25 38.85 41.3 Q39.15 41.3 38.95 41.05 L40.2 41.35 Q40.95 41.5 41.5 41.0 L40.35 40.75 Q39.95 40.95 40.55 40.95 L40.2 41.1 Q39.8 40.95 40.0 40.7 39.6 41.0 39.3 40.4 L39.85 40.35 40.55 40.5 40.3 40.25 40.0 40.3 40.9 40.15 42.1 39.95 Q42.05 39.7 41.45 39.8 41.45 39.3 41.8 39.2 L41.95 39.4 42.0 39.7 42.3 39.5 Q42.4 39.35 42.6 39.3 L42.9 39.85 43.25 39.45 Q43.1 39.7 43.3 40.0 L43.45 40.6 42.9 40.75 42.3 40.8 Q42.45 41.0 42.7 41.0 L43.25 40.85 Q43.4 41.3 44.35 41.4 45.4 41.5 45.7 41.9 L46.15 41.85 46.75 41.9 Q46.65 41.65 46.0 41.55 45.5 41.5 45.55 41.2 L44.9 41.2 44.0 41.15 Q44.0 40.9 44.35 40.9 L44.8 40.9 Q44.65 40.75 44.25 40.75 L43.65 40.65 43.75 40.4 44.05 40.2 43.8 40.1 43.8 40.0 43.65 40.0 43.35 40.05 43.5 39.8 43.45 39.55 44.1 39.55 Q44.35 40.1 44.1 40.3 L44.6 40.55 45.05 40.8 44.85 40.5 44.3 40.4 Q44.15 40.15 44.4 39.95 L44.3 39.75 44.75 39.85 Q45.1 40.2 45.55 39.85 45.6 40.2 45.3 40.2 L44.75 40.05 45.75 40.8 Q46.6 41.25 47.2 40.8 46.7 40.9 46.35 40.55 46.0 40.2 45.65 40.4 45.45 39.95 46.0 39.8 46.15 40.15 46.55 40.25 L47.1 40.55 Q47.15 40.1 47.75 40.3 L48.6 40.8 47.95 40.7 Q47.7 40.55 47.45 40.7 L48.6 41.55 Q49.35 42.1 50.05 42.15 49.8 42.5 50.15 43.05 L50.45 41.7 Q50.75 40.95 51.5 40.9 L51.0 40.85 Q50.8 40.8 51.35 40.7 52.05 40.55 52.0 40.25 52.6 40.75 52.75 40.25 L52.85 40.3 52.85 40.5 53.05 40.25 54.05 40.6 Q54.85 40.85 54.8 41.5 55.15 41.4 55.35 42.0 54.9 41.7 55.0 41.9 L55.4 42.6 55.2 42.9 54.75 43.8 Q54.3 44.3 52.9 44.9 L50.65 44.2 Q51.0 44.7 51.7 44.85 L52.95 45.0 53.75 46.25 Q54.45 47.0 54.15 47.4 54.5 47.15 55.05 47.7 55.7 48.35 56.2 48.3 56.0 48.55 56.15 48.7 L56.55 49.1 57.15 49.05 Q57.65 49.05 57.8 49.45 L58.3 48.95 Q58.55 49.45 59.2 49.1 L60.85 48.15 62.2 47.7 62.45 47.3 Q63.8 46.6 65.35 46.2 64.85 46.25 65.55 45.7 L66.5 44.95 Q66.1 45.05 66.4 44.75 66.65 44.4 66.75 44.55 66.65 44.25 67.15 43.75 67.4 43.7 67.25 43.9 L66.9 44.15 Q68.3 43.65 68.65 43.25 L69.5 43.65 70.3 44.25 70.6 45.0 70.5 45.5 70.0 45.4 Q70.35 46.25 69.9 46.7 L69.0 47.2 69.3 47.25 Q68.6 47.95 66.75 47.7 63.75 49.05 59.95 51.7 59.7 52.55 60.4 54.65 L61.7 58.15 Q60.15 54.8 59.7 53.2 L59.7 52.15 59.5 51.85 Q59.45 51.7 59.75 51.5 59.35 51.6 59.1 52.15 L58.7 53.0 59.55 53.9 Q60.0 54.4 59.95 54.8 59.65 54.95 59.7 54.65 L59.6 54.0 Q59.3 54.1 59.0 53.65 L59.1 54.0 59.4 54.55 Q59.05 54.7 59.25 55.0 L59.05 55.15 Q58.9 55.3 59.1 55.8 L59.55 56.3 59.4 55.6 59.35 54.85 Q59.75 55.55 59.95 57.3 60.2 59.0 60.55 59.7 L60.35 59.55 60.1 59.4 60.1 59.6 60.15 59.85 61.0 59.8 61.85 59.9 61.65 58.95 Q61.45 58.1 61.8 58.85 L62.15 59.75 Q62.4 60.05 62.95 60.0 62.75 59.8 63.05 59.75 L63.25 60.05 64.25 59.85 65.4 59.7 Q65.2 60.1 65.25 60.4 L65.4 61.1 65.65 60.3 65.75 59.4 Q66.65 58.85 67.2 58.65 L69.65 60.0 Q70.0 61.55 69.2 63.25 L69.55 63.4 69.7 63.35 70.35 63.8 72.75 63.0 Q74.4 62.55 74.95 63.2 75.55 63.9 75.35 64.7 75.1 65.65 73.8 66.15 L72.25 65.75 72.25 65.4 Q71.95 65.45 71.6 65.2 71.15 64.85 70.95 64.8 L67.05 64.95 66.95 64.7 64.4 64.8 Q62.9 64.85 61.75 65.25 L61.75 63.9 61.95 62.25 Q61.55 61.8 61.3 62.4 L61.05 62.65 Q60.85 62.8 61.05 62.95 L61.3 63.3 60.95 64.0 60.3 64.05 60.2 64.25 60.6 64.35 60.85 64.7 61.1 64.25 Q61.1 63.85 61.35 63.75 L61.25 64.35 Q61.1 64.75 61.35 64.8 60.75 65.15 60.1 67.15 L60.0 67.1 60.0 66.9 59.7 67.35 59.95 67.4 60.15 67.6 Q60.95 66.3 60.9 65.45 61.3 65.5 61.1 65.75 60.9 66.1 61.2 66.25 60.7 66.75 60.3 68.0 L60.55 67.8 60.95 67.4 60.7 68.0 60.2 68.5 60.4 68.75 60.45 69.0 60.15 69.2 59.75 69.15 60.05 69.5 59.3 70.5 Q58.85 71.45 58.35 71.6 58.5 72.05 57.95 72.75 L56.75 73.8 Q56.65 73.45 56.9 73.25 L57.3 72.95 57.4 72.7 57.55 72.5 57.6 71.9 58.35 71.3 58.95 70.85 Q58.7 70.55 58.0 71.25 57.35 71.95 57.3 72.35 L56.75 72.65 56.2 72.95 55.9 74.0 Q56.4 73.1 56.85 72.7 57.1 72.85 56.65 73.3 56.15 73.8 56.45 74.2 56.15 74.2 55.95 74.7 L55.3 75.45 55.6 74.7 Q55.8 74.3 55.45 74.35 L56.05 73.35 Q55.7 73.4 55.4 73.9 55.05 74.45 55.4 75.0 L54.8 75.65 54.15 76.3 Q54.4 76.45 55.05 75.6 55.4 75.55 55.05 76.2 54.7 76.85 54.7 76.2 L54.5 76.45 Q54.35 76.65 54.55 76.85 L53.8 77.3 Q53.3 77.55 53.3 77.85 L53.1 77.7 52.9 77.6 Q52.7 77.75 52.9 77.85 L53.1 78.1 Q52.85 78.4 51.5 78.95 51.7 78.4 52.75 77.95 52.4 77.55 52.0 77.95 L51.45 78.4 Q51.7 78.45 51.45 78.7 L51.0 78.85 51.35 79.25 Q51.65 79.25 51.7 79.45 51.95 78.95 52.65 78.75 L51.6 79.85 Q52.0 80.9 52.4 81.0 L52.15 81.1 52.8 82.15 53.4 83.0 52.95 83.05 Q54.3 83.95 54.85 83.6 55.15 84.35 55.8 83.95 L55.6 84.2 56.2 85.2 56.3 85.1 Q57.25 86.85 56.2 85.2 L55.95 85.4 56.25 85.4 56.6 86.5 Q56.75 86.0 56.8 86.45 L56.75 87.2 56.15 87.3 56.6 87.25 Q57.25 87.85 55.3 88.55 53.85 88.9 55.15 88.45 L54.55 88.45 Q54.1 88.55 54.05 88.8 L53.65 88.7 53.3 88.35 52.35 88.25 51.5 87.75 51.25 87.1 Q51.15 86.85 51.35 86.75 L51.2 86.55 51.0 86.3 51.95 85.1 Q52.45 84.6 52.8 84.45 53.1 84.3 53.15 84.3 L53.3 84.55 53.85 84.1 Q54.25 83.95 54.45 84.35 L54.65 84.15 Q54.35 83.55 53.3 83.8 52.3 84.0 52.0 84.65 51.7 84.8 51.85 84.3 L51.7 84.25 51.5 84.25 50.4 82.45 Q49.55 81.25 48.85 81.95 48.55 81.9 48.95 81.7 L49.55 81.45 Q49.75 80.6 48.5 81.0 47.5 81.3 47.1 81.65 L47.15 81.7 47.15 81.9 46.95 81.95 46.95 81.8 46.45 82.25 45.85 82.45 45.9 82.3 46.05 82.2 44.45 82.2 Q43.5 82.25 43.1 81.65 44.15 81.8 44.05 82.15 L44.95 81.9 45.65 81.6 46.5 81.65 Q47.35 81.3 47.75 80.85 47.5 80.75 47.0 81.15 L46.1 81.6 45.8 81.25 45.75 81.5 45.1 81.7 45.05 81.45 44.85 81.2 44.8 81.7 43.95 81.7 43.15 81.5 42.85 81.8 Q42.9 82.05 43.25 82.05 L42.45 82.2 41.65 81.85 42.0 81.9 42.3 82.0 Q42.1 81.7 41.7 81.65 L40.9 81.55 Q40.75 81.65 41.05 81.9 L41.55 82.0 41.25 82.3 40.8 82.35 40.75 81.9 40.45 81.9 Q40.3 82.05 40.5 82.25 L40.6 82.6 41.95 82.35 43.25 82.35 42.9 82.75 42.3 82.6 Q42.4 82.85 42.05 82.9 41.55 82.9 41.3 83.2 41.05 82.95 40.7 83.0 L40.1 82.8 Q40.2 83.1 39.9 83.05 L39.2 82.9 39.45 83.15 39.2 83.2 Q39.35 83.4 39.6 83.4 L40.05 83.45 Q40.0 83.8 39.45 83.75 38.9 83.75 39.1 83.4 L38.65 83.75 Q38.8 83.35 38.2 83.35 38.25 83.1 38.55 83.2 L39.05 83.25 37.6 82.95 36.4 82.75 36.05 83.0 36.3 83.2 36.55 83.4 36.25 83.4 35.6 85.8 34.9 87.65 34.55 89.05 Q34.25 89.95 34.3 90.5 L33.75 90.7 Q34.2 90.95 34.5 91.75 L35.0 92.45 34.9 93.45 34.5 94.5 33.4 94.8 33.55 94.9 33.7 94.85 Q33.3 95.3 32.7 95.25 L31.5 95.0 Q31.4 94.7 31.6 94.8 L32.05 94.8 31.15 94.55 30.95 94.25 30.6 93.9 Q30.95 93.75 30.8 93.3 L30.6 92.55 31.15 91.65 Q31.4 91.05 31.8 90.8 31.65 91.2 31.8 91.05 L32.2 90.6 Q32.45 90.9 32.15 91.1 L31.8 91.4 Q31.95 91.7 32.6 91.2 L32.5 90.6 Q32.45 90.3 32.8 90.2 32.45 90.05 32.55 89.7 L32.7 89.8 32.8 89.9 Q32.65 88.85 32.75 87.65 L33.0 87.25 32.9 86.8 32.75 86.3 32.95 85.6 Q32.75 85.1 33.3 84.7 33.1 84.75 33.15 84.2 L33.2 83.05 32.0 82.8 Q31.4 83.4 31.25 84.2 31.05 84.25 31.15 84.05 L31.2 83.75 30.65 85.0 Q30.35 85.5 30.35 85.95 30.0 85.95 30.05 86.1 L29.7 86.25 29.65 86.6 Q29.5 86.65 29.6 87.05 29.4 86.95 29.15 87.25 L28.6 87.6 29.05 87.55 28.25 88.85 28.15 89.25 27.9 89.45 28.15 89.75 28.35 90.15 Q27.95 89.9 28.1 90.2 L28.2 90.85 Q28.6 90.7 28.6 91.4 L28.3 91.45 Q28.0 91.8 28.5 91.6 L27.05 93.15 Q26.0 93.35 25.2 92.75 24.3 92.05 24.8 90.75 26.1 90.45 26.9 89.3 L27.85 86.9 Q27.55 86.9 27.95 86.25 L28.45 84.8 28.25 85.3 28.0 85.75 Q28.2 84.3 28.9 84.0 28.6 83.7 29.15 82.5 L29.05 83.0 29.35 82.55 29.45 82.1 Q29.3 81.9 29.3 82.15 29.3 82.0 28.7 81.65 L28.1 81.15 29.55 81.85 31.0 82.5 31.3 82.45 31.65 82.35 31.6 82.95 31.25 83.45 31.6 83.05 32.05 82.5 Q32.25 82.7 32.7 82.75 L33.3 83.0 33.6 82.25 32.4 82.15 Q31.7 82.0 31.65 81.6 31.3 81.7 31.4 82.0 31.2 82.05 31.3 81.85 L31.35 81.55 30.55 81.55 29.8 81.5 Q29.75 81.25 30.05 81.3 L30.5 81.35 30.3 81.0 30.05 80.75 29.7 81.15 29.1 81.0 Q28.95 81.05 29.15 81.2 L28.95 81.35 Q28.4 81.05 28.95 80.95 L28.7 80.75 28.5 81.0 28.25 81.1 Q28.5 80.75 28.2 80.7 L27.6 80.6 Q27.55 80.35 27.8 80.4 L28.15 80.5 27.4 80.1 26.9 79.7 26.85 80.0 Q26.2 79.7 26.7 79.6 L25.55 78.55 24.6 77.2 Q24.3 77.6 24.55 78.0 L25.2 78.6 Q24.45 78.4 23.8 77.2 23.0 75.75 22.6 75.45 22.8 75.25 22.95 75.45 L23.1 75.85 23.1 75.4 Q23.05 75.05 23.15 74.9 L22.45 75.4 22.1 74.95 22.05 74.5 21.7 74.4 21.35 74.5 21.7 74.8 Q21.85 74.95 21.45 74.9 L21.8 75.35 21.8 75.15 21.95 74.95 Q21.95 75.6 22.55 75.95 23.3 76.3 23.4 76.95 23.05 77.05 22.9 76.65 L22.6 76.05 Q22.3 76.2 22.55 76.7 L21.8 75.9 21.4 75.05 Q21.35 75.8 20.8 74.7 21.45 75.4 21.0 74.65 20.6 74.0 20.7 74.6 20.4 74.55 20.5 74.2 20.55 73.85 20.85 73.8 20.6 73.65 20.35 73.8 L19.9 74.05 15.25 76.35 Q12.3 77.85 11.8 78.9 L11.7 79.7 11.55 79.85 Q11.2 80.95 9.8 81.05 8.35 81.15 8.2 79.7 8.1 80.3 7.75 79.45 8.25 79.7 7.9 79.2 L7.25 78.3 7.45 77.85 7.55 77.25 7.65 77.35 7.6 77.65 7.85 77.15 Q7.9 76.9 8.35 76.9 L8.05 76.9 8.8 76.5 9.85 76.25 9.8 76.75 Q10.0 76.25 10.8 76.4 L11.95 76.4 11.95 76.1 Q12.85 75.7 14.5 74.35 16.05 73.1 17.05 72.8 17.0 72.55 17.5 72.35 L17.95 72.0 Q17.9 71.75 18.1 71.85 L18.3 72.0 Q18.55 71.8 18.25 70.95 L17.7 69.35 17.05 69.4 Q16.6 69.5 16.7 69.2 L15.75 69.65 Q15.15 69.75 14.65 70.05 14.7 69.8 13.85 70.25 L12.45 70.55 11.05 72.25 11.05 71.9 Q10.45 72.9 9.45 72.85 8.4 72.8 8.0 71.55 L8.25 71.5 7.95 71.1 Q8.25 71.35 8.25 71.1 8.25 70.65 8.5 70.6 L8.3 70.55 8.1 70.75 8.2 70.45 8.45 69.75 8.55 70.0 9.0 69.6 8.7 69.6 Q8.75 69.45 9.2 69.35 L9.95 69.05 Q10.1 69.35 10.5 69.3 L11.15 69.3 Q11.35 69.15 11.15 69.15 L10.85 68.95 11.05 69.0 Q11.55 69.15 11.4 69.5 L11.65 69.3 11.85 69.6 12.65 69.1 13.45 69.05 Q13.75 68.35 15.0 68.1 L16.95 67.55 Q16.9 67.25 16.6 67.4 L16.05 67.65 15.15 68.0 Q14.8 67.9 16.5 67.3 L16.85 67.25 17.0 67.05 17.8 69.0 18.6 71.4 Q18.9 71.1 18.85 70.4 18.8 69.55 18.9 69.3 L18.6 69.35 18.5 69.8 Q18.2 69.9 18.1 69.2 19.05 69.2 17.95 66.35 L18.45 66.15 Q18.3 65.85 18.3 65.35 18.3 64.75 18.55 64.6 L18.65 64.25 Q18.7 64.05 18.85 64.3 L18.65 63.2 Q18.45 62.5 18.6 61.95 L19.0 61.5 18.85 61.1 Q19.25 61.15 19.25 60.95 L18.8 60.5 18.65 60.85 18.7 61.45 18.45 61.25 18.45 61.9 18.2 62.45 Q18.0 61.8 18.3 61.05 L18.75 59.8 19.05 60.05 19.1 60.4 Q19.65 58.5 19.0 57.55 L19.35 56.95 Q19.05 56.55 19.3 56.05 L19.75 55.1 19.7 54.35 Q19.6 53.9 19.75 53.7 L21.1 52.2 20.8 52.0 20.95 51.55 21.05 51.8 Q21.0 52.05 21.2 51.75 21.35 51.7 21.3 52.0 L21.2 52.5 21.5 51.8 Q21.65 51.35 22.05 51.2 22.35 51.45 22.1 51.75 L21.55 52.2 Q21.4 52.3 21.55 52.5 L20.8 53.0 20.15 53.55 Q19.85 54.05 19.75 55.3 L19.45 57.2 19.8 56.35 Q19.95 55.55 20.25 55.5 L20.25 56.45 20.05 57.55 Q20.4 57.55 20.4 58.15 L20.1 59.05 Q20.65 58.7 20.6 57.4 L20.45 55.25 Q21.0 54.85 21.25 53.85 21.5 52.75 21.8 52.4 L22.4 52.15 Q22.75 51.85 22.95 51.9 22.85 51.3 22.35 52.0 22.15 52.0 22.4 51.7 L22.85 51.3 Q22.45 51.2 22.75 50.65 L23.2 49.65 Q23.4 49.7 23.25 50.0 L23.1 50.45 23.3 50.15 23.2 50.7 23.55 49.95 23.3 49.15 23.5 49.35 Q25.05 48.2 24.8 47.0 L25.65 46.45 26.15 45.65 Q26.4 45.45 26.7 45.4 L27.25 45.3 27.15 45.7 26.75 46.0 26.0 46.5 25.2 46.95 24.85 47.85 Q25.0 47.7 25.3 47.7 L25.95 47.25 Q25.8 47.05 25.7 47.25 25.5 47.55 25.3 47.5 25.3 47.05 26.1 46.6 L27.15 45.8 Q27.45 45.85 27.2 46.15 L26.9 46.65 27.4 46.3 27.6 45.75 Q28.05 46.15 28.0 45.6 L27.5 44.7 Q27.05 44.1 27.1 43.55 L26.9 43.45 26.8 43.55 25.25 40.8 Q24.05 38.95 23.0 38.65 22.6 38.45 23.45 38.6 L21.95 38.25 Q21.15 37.85 20.85 36.8 21.15 37.15 21.2 36.8 21.25 36.4 20.95 36.35 L21.3 35.5 21.8 34.45 Q23.1 33.7 24.6 33.85 L25.5 35.6 Q25.55 35.8 25.4 35.65 L25.25 35.45 25.4 36.1 Q25.55 36.55 25.3 36.9 25.2 37.05 25.25 36.7 L25.2 36.0 25.1 37.0 Q25.05 37.65 24.65 37.9 L25.35 37.75 25.75 38.1 25.85 38.6 Q26.0 38.35 26.15 38.6 L26.35 39.0 M35.75 41.8 L36.15 41.95 Q36.05 42.25 36.25 42.2 36.05 42.0 36.25 41.9 L36.3 41.55 Q35.1 41.55 35.5 41.9 35.6 41.7 35.75 41.8 M38.7 42.2 L39.0 42.45 39.4 42.5 39.2 42.2 39.05 42.05 Q39.1 42.3 38.7 42.2 M40.8 42.1 Q40.95 41.85 40.65 41.8 L40.55 42.25 Q40.45 42.6 40.65 42.55 L40.8 42.1 M37.85 41.65 Q37.75 41.35 37.45 41.4 37.15 41.5 37.25 41.75 L37.85 41.65 M45.2 42.0 Q44.9 41.85 44.95 42.25 L45.6 42.3 45.75 42.35 45.2 42.0 M40.95 40.45 Q41.25 40.85 41.8 40.9 42.35 40.9 42.45 40.4 L41.7 40.5 40.95 40.45 M42.05 41.75 L42.65 41.85 41.9 41.85 41.45 41.9 43.3 42.35 Q43.4 42.1 42.95 41.9 42.6 41.75 42.9 41.45 42.15 41.7 41.55 41.45 41.65 41.85 42.05 41.75 M44.9 42.85 Q45.05 43.15 45.45 43.25 L46.05 43.45 Q45.95 43.2 46.3 43.25 46.55 43.3 46.5 43.1 L45.7 43.0 44.9 42.85 M48.65 42.45 L49.1 42.4 49.1 42.15 48.95 42.05 48.8 42.25 48.65 42.45 M46.6 41.2 Q46.95 41.65 47.8 41.45 L47.75 41.2 47.6 41.1 47.2 41.25 46.6 41.2 M47.4 43.35 Q47.1 43.3 47.15 43.55 L47.65 43.65 47.4 43.35 M46.05 44.8 Q46.25 44.65 46.7 44.8 L47.1 44.8 46.5 44.6 Q46.15 44.45 46.05 44.8 M47.55 44.45 L47.45 44.2 47.2 44.3 47.3 44.55 47.55 44.45 M47.9 42.8 L46.0 42.25 46.95 42.85 47.9 42.8 M49.45 43.5 Q49.3 43.3 49.0 43.25 L48.5 43.15 Q48.65 43.4 48.9 43.45 L49.45 43.5 M48.6 45.05 Q48.75 45.55 48.2 46.1 L47.3 46.7 Q47.45 47.3 46.9 47.4 L45.75 47.65 Q45.75 48.0 46.0 48.0 L46.35 48.0 Q46.3 48.3 46.45 48.25 46.5 47.6 46.85 48.1 L48.0 46.6 49.3 44.95 Q49.05 45.0 48.85 45.3 L48.6 45.05 M49.6 44.95 L50.05 44.4 50.45 43.8 49.75 44.4 Q49.35 44.65 49.6 44.95 M48.85 44.35 Q48.45 44.35 48.5 44.5 L49.3 44.6 48.85 44.35 M70.0 44.65 L69.9 44.15 69.5 43.8 Q69.7 44.7 70.0 44.65 M67.05 47.0 L67.65 47.1 Q68.05 47.25 68.1 47.0 L67.5 46.9 67.05 47.0 M54.45 47.7 L54.85 49.0 Q55.15 49.7 55.25 49.2 L54.65 48.25 Q55.0 48.2 54.8 47.95 L54.45 47.7 M53.75 47.8 L53.95 47.95 Q53.85 47.75 54.1 47.8 L54.25 47.65 53.95 47.55 53.6 47.5 53.75 47.8 M53.9 48.55 L54.2 48.8 54.5 48.9 54.2 48.35 54.05 48.2 53.9 48.55 M52.55 46.35 L52.7 46.5 52.9 46.25 Q53.1 46.85 53.1 46.35 L52.5 46.0 52.55 46.35 M53.55 47.05 L53.15 46.65 Q52.75 46.55 52.8 46.75 L53.2 46.85 53.55 47.05 M52.8 47.05 L53.05 47.45 Q53.3 47.6 53.2 47.35 L53.0 47.2 Q52.9 47.05 52.8 47.05 M53.65 50.0 L53.35 49.7 53.65 50.3 Q53.9 50.6 53.9 50.4 L53.65 50.0 M54.65 51.0 Q54.55 51.3 54.75 51.8 54.95 52.3 55.2 51.95 54.95 51.95 54.85 51.45 L54.65 51.0 M55.8 51.35 Q55.8 51.25 55.7 51.3 55.6 51.8 55.9 52.05 56.2 52.3 55.75 51.4 L55.8 51.35 M55.95 53.0 L56.2 53.2 56.05 52.95 Q55.9 52.8 55.95 53.0 M57.05 53.75 L56.75 53.5 Q56.6 53.3 56.45 53.4 L56.8 53.8 57.05 53.75 M58.5 55.7 Q58.3 54.15 57.7 53.15 57.55 53.7 58.2 55.05 58.05 55.9 58.5 55.7 M59.15 57.8 Q59.15 58.4 59.3 58.25 L59.4 57.55 Q59.5 57.2 59.2 56.95 L59.15 57.8 M59.0 56.85 L59.25 56.75 59.15 56.5 58.9 56.6 59.0 56.85 M59.45 58.95 L59.75 59.1 60.05 59.3 59.7 58.85 Q59.4 58.7 59.45 58.95 M58.85 59.35 L58.9 59.5 Q58.6 60.45 58.95 59.65 59.2 59.1 58.85 59.35 M58.1 59.05 L58.1 59.35 57.6 59.3 57.95 59.55 Q58.3 59.55 58.4 59.7 58.05 59.9 58.45 59.85 58.85 59.8 58.65 59.6 L58.25 59.3 58.3 59.15 58.1 59.05 M57.8 63.9 Q58.2 63.75 58.2 63.4 L58.15 62.7 Q57.75 63.0 57.8 63.9 M60.25 62.25 L59.8 62.2 Q59.6 62.15 59.75 62.45 60.2 62.3 59.95 62.7 59.7 63.15 60.0 63.1 L60.15 62.7 60.25 62.25 M59.2 62.55 L59.45 62.45 59.3 62.2 59.05 62.3 59.2 62.55 M51.95 68.7 L51.0 68.65 51.55 68.75 51.95 68.7 M60.15 65.5 L60.1 65.85 Q60.05 66.1 60.25 66.05 L60.35 65.7 60.15 65.5 M59.15 67.2 Q59.05 67.55 59.2 67.55 59.5 66.25 59.25 66.65 L59.15 67.2 M58.4 65.65 L58.65 65.55 58.5 65.25 58.25 65.4 58.4 65.65 M59.25 68.3 L59.15 68.0 Q59.0 67.75 59.0 68.1 L59.1 68.25 59.25 68.3 M58.8 69.4 Q59.1 69.25 59.05 69.45 L59.3 69.5 Q60.35 68.0 59.85 68.05 L59.05 69.3 58.9 69.25 58.8 69.4 M58.85 69.85 Q59.0 70.45 59.45 70.2 L59.4 69.95 59.25 69.8 59.2 70.0 58.85 69.85 M60.3 69.05 Q60.45 68.6 60.15 68.75 59.8 68.95 60.3 69.05 M63.7 62.55 L64.25 62.65 64.2 62.95 65.1 63.0 66.15 63.2 Q66.3 62.3 65.35 61.7 L64.45 61.85 63.2 62.05 63.7 62.55 M50.65 46.65 L50.15 47.15 Q50.0 47.55 50.3 47.25 51.05 46.25 50.65 46.65 M48.8 50.15 L49.15 49.85 49.3 49.2 Q49.0 49.3 48.95 49.65 L48.8 50.15 M45.6 67.75 L45.8 67.85 Q45.75 67.35 46.65 67.0 L47.95 66.8 47.9 66.2 47.8 66.1 47.7 66.6 Q46.9 66.5 46.15 66.95 45.6 67.3 45.3 67.8 L45.6 67.75 M46.9 66.15 L47.6 66.35 47.5 65.65 46.95 65.25 47.3 65.7 Q47.5 65.95 47.35 66.15 47.3 65.8 46.85 65.85 46.4 65.85 46.3 66.15 L46.9 66.15 M47.95 67.05 Q47.75 67.1 47.65 66.9 L46.15 67.6 46.15 68.15 Q46.15 68.5 46.4 68.55 46.05 67.7 47.1 67.5 L48.4 67.2 47.95 67.05 M48.2 68.5 L48.7 68.6 Q48.6 68.15 48.95 68.3 L49.45 68.6 49.25 68.25 49.0 67.85 49.05 67.8 48.95 67.75 Q49.0 68.0 48.55 67.9 48.8 68.1 48.45 68.25 48.1 68.35 48.2 68.5 M47.35 68.4 L47.2 68.65 47.65 68.35 Q47.75 68.05 47.4 68.1 L47.35 68.4 M47.75 69.6 Q47.3 69.15 46.75 69.0 L47.3 69.55 47.75 69.6 M48.65 70.05 Q48.3 70.0 48.35 70.25 49.15 70.45 49.2 70.05 L49.05 69.95 48.95 69.85 48.65 70.05 M49.65 69.3 L49.8 69.05 50.05 69.25 Q50.35 68.8 49.5 68.9 48.65 69.05 49.15 69.3 49.15 68.95 49.35 69.15 49.55 69.35 49.4 69.5 L49.65 69.3 M50.8 76.2 Q50.25 77.1 50.8 77.3 L51.15 76.75 51.35 76.15 50.95 76.55 50.65 77.05 50.8 76.4 50.8 76.2 M42.15 80.25 L41.95 80.35 41.85 80.55 42.05 80.5 42.15 80.25 M41.2 82.6 Q40.95 82.8 41.1 83.0 L41.3 82.85 41.4 82.7 41.2 82.6 M44.55 80.45 L44.15 80.45 Q43.85 80.5 43.9 80.7 L44.35 80.6 Q44.6 80.65 44.55 80.45 M50.45 78.65 Q51.05 78.7 50.75 78.4 50.5 78.1 50.45 78.65 M48.15 78.9 L47.75 78.45 47.35 78.15 47.45 78.7 Q47.65 78.5 47.9 78.85 L48.15 78.9 M47.0 80.7 L47.1 80.4 46.65 80.45 46.75 80.8 46.9 80.95 47.0 80.7 M46.2 79.7 L45.7 79.6 Q45.7 79.85 46.0 79.9 L46.2 79.7 M32.35 81.15 L32.55 81.5 Q32.8 81.35 33.2 81.5 L33.8 81.6 33.5 81.05 33.2 80.6 33.05 81.3 Q31.95 80.95 32.35 81.15 M37.9 82.0 L38.7 82.05 38.05 81.85 Q37.7 81.7 37.8 81.35 37.35 81.75 37.25 81.15 L36.6 81.8 Q36.35 82.25 36.55 82.35 36.45 82.05 36.95 82.2 L36.9 81.75 37.9 82.0 M38.8 80.95 L38.6 80.75 38.5 81.2 38.8 80.95 M38.7 82.7 L38.75 82.5 39.7 82.65 38.4 82.45 38.45 82.9 38.85 82.75 38.7 82.7 M39.7 82.25 L40.0 82.0 40.05 81.6 38.0 81.45 38.9 81.7 39.85 81.85 Q39.7 81.95 39.7 82.25 M31.85 91.95 Q31.75 92.15 31.95 92.1 L32.1 91.8 31.9 91.65 31.85 91.95 M33.3 90.85 Q33.7 91.05 33.65 90.75 L33.2 90.5 Q33.5 90.35 33.15 90.35 L32.9 90.7 Q32.7 90.9 32.95 90.9 L33.3 90.85 M57.8 70.6 Q57.6 70.65 57.35 70.35 57.25 70.8 57.5 71.05 57.4 70.8 57.6 70.75 L57.8 70.6 M55.1 73.45 L55.0 73.65 55.2 73.6 55.3 73.35 55.1 73.45 M54.8 72.8 L55.05 72.45 54.8 72.2 54.75 72.5 54.8 72.8 M55.7 71.35 Q56.0 72.0 56.25 72.0 L56.05 71.5 Q55.95 71.15 55.7 71.35 M55.1 71.75 Q55.55 72.15 55.4 71.75 55.2 71.35 55.1 71.75 M53.25 71.35 L53.25 70.75 Q53.25 70.35 52.95 70.25 L53.05 70.95 Q53.0 71.3 53.25 71.35 M53.55 74.1 Q53.95 73.9 53.55 73.8 53.15 74.25 53.55 74.1 M52.85 74.7 Q51.85 75.45 52.45 75.2 L52.85 74.7 M53.55 75.55 Q53.7 75.15 53.25 75.3 53.4 75.9 53.55 75.55 M53.95 75.15 L53.45 75.85 Q53.1 76.2 53.6 76.4 L52.8 77.05 52.25 77.55 53.15 77.1 Q53.55 76.75 53.75 76.75 L53.8 75.9 Q53.8 75.35 54.25 75.5 L54.15 75.9 Q54.0 76.15 54.2 76.1 L54.8 75.2 Q55.15 74.65 55.1 74.2 54.8 74.35 54.85 74.65 L54.4 74.8 Q54.65 75.25 54.5 75.35 L53.95 75.15 M51.75 77.75 Q51.75 77.5 52.45 76.9 53.05 76.4 52.7 76.15 L52.0 77.0 Q51.5 77.5 51.75 77.75 M26.75 46.0 L26.6 45.6 26.45 45.9 26.75 46.0 M22.9 51.15 Q23.3 51.0 23.15 51.35 L23.5 50.75 23.1 50.9 22.9 51.15 M24.1 49.95 L23.75 50.6 24.35 49.9 24.4 49.3 24.1 49.95 M24.75 51.1 Q24.6 50.9 25.15 50.55 L25.4 50.2 24.75 50.65 Q24.35 50.95 24.75 51.1 M21.75 53.3 Q21.6 53.15 21.8 53.15 L21.75 53.6 21.55 54.0 Q22.05 53.7 22.05 53.05 L21.7 53.1 Q21.45 53.35 21.75 53.3 M21.6 54.95 L21.75 55.15 Q21.75 54.55 21.55 54.6 L21.6 54.95 M22.8 53.7 L23.0 53.4 22.45 53.6 Q22.4 54.0 22.65 54.0 L22.8 53.7 M22.7 54.5 Q23.0 54.2 22.7 54.15 L22.45 54.55 22.15 54.95 22.7 54.5 M21.6 55.9 L21.6 55.5 Q21.25 55.65 21.3 56.25 L21.6 55.9 M20.95 57.15 Q21.3 56.95 21.15 57.35 20.95 57.7 21.2 57.65 L21.7 56.4 21.35 56.6 21.15 56.6 Q21.85 56.25 21.1 56.5 L21.05 56.85 20.95 57.15 M22.0 57.05 Q22.1 56.8 21.85 56.75 21.55 57.5 22.0 57.45 21.85 57.35 22.0 57.05 M19.75 57.2 L19.65 57.55 19.4 57.8 Q19.8 58.05 19.65 58.65 L19.6 59.15 19.8 59.05 20.0 58.8 19.9 58.75 20.05 58.6 Q19.75 58.45 19.85 57.85 L19.75 57.2 M20.3 60.95 Q20.4 62.45 20.7 61.85 20.5 61.9 20.45 61.25 L20.3 60.95 M14.4 68.35 L14.0 68.55 Q13.8 68.65 14.0 68.85 L14.4 68.35 M19.85 67.25 L19.7 66.95 Q19.55 66.8 19.6 67.0 L19.85 67.25 M19.9 68.4 L19.75 68.75 Q19.55 68.9 19.7 69.1 L20.05 68.7 Q20.15 68.4 19.9 68.4 M18.95 67.8 Q19.05 67.5 18.7 67.4 L18.65 67.95 Q18.6 68.3 18.95 68.35 18.8 68.2 18.95 67.8 M19.0 69.2 L19.1 69.25 19.2 69.15 19.45 69.2 19.3 68.85 19.1 69.05 19.0 69.2 M19.15 69.5 L19.05 69.85 Q19.0 70.1 19.25 70.05 L19.3 69.7 19.15 69.5 M20.3 70.05 L20.1 70.3 19.85 70.1 19.95 70.5 20.05 70.6 20.35 70.25 Q20.6 70.05 20.3 70.05 M29.3 59.95 L29.05 60.05 28.75 59.7 28.6 60.1 Q29.35 60.35 29.3 59.95 M26.25 60.25 Q25.9 60.25 25.9 60.5 26.2 60.45 26.2 60.65 L26.1 61.0 26.55 60.7 26.7 60.3 26.25 60.25 M27.45 60.55 Q27.65 60.75 27.8 60.75 27.8 60.5 27.95 60.7 L28.15 60.75 Q27.95 60.4 27.55 60.25 L27.05 60.3 27.45 60.55 M28.25 60.4 Q28.55 60.65 28.25 61.0 L28.45 61.15 28.65 61.3 Q28.45 60.5 28.5 59.5 L27.65 60.05 28.25 60.4 M27.7 62.9 L28.3 63.25 28.55 62.85 28.35 62.65 28.4 62.4 28.15 62.25 Q28.2 62.65 27.8 62.65 L27.1 62.55 27.7 62.9 M29.5 62.15 L29.65 61.85 Q29.75 61.65 29.45 61.7 L29.4 62.0 29.5 62.15 M25.35 60.55 Q25.15 60.5 25.2 60.65 25.45 60.55 25.45 60.95 25.45 61.35 25.6 61.25 L25.75 60.85 25.7 60.45 25.35 60.55 M24.85 60.5 Q24.65 60.85 24.6 62.25 24.55 63.35 23.85 63.8 L23.45 63.95 Q23.15 64.05 23.25 64.25 24.0 64.05 24.4 63.4 L25.05 62.4 24.95 61.7 24.7 61.6 Q25.3 60.8 24.95 60.75 24.95 61.05 24.8 60.8 L24.85 60.5 M22.0 59.5 L23.4 59.6 Q22.9 59.1 21.9 59.3 20.85 59.5 20.8 60.25 21.3 59.65 22.0 59.5 M20.75 62.7 L21.05 63.15 21.4 63.5 Q21.1 62.7 20.75 62.7 M25.65 62.75 L25.3 62.5 Q24.95 62.45 25.0 62.7 L25.65 62.75 M20.8 74.1 Q20.8 74.35 21.1 74.4 L21.3 74.2 20.8 74.1 M23.9 75.65 L23.8 75.4 23.55 75.5 23.65 75.75 23.9 75.65 M23.85 75.85 Q23.7 76.2 24.2 76.3 24.4 75.85 23.85 75.85 M24.95 76.6 L25.45 76.8 Q25.75 77.0 25.8 76.8 L25.3 76.3 24.8 75.9 24.95 76.2 24.95 76.6 M24.85 75.65 L24.95 75.5 Q24.5 74.6 24.65 75.2 L24.85 75.65 M24.25 76.4 Q24.45 77.05 24.8 76.95 L24.55 76.6 Q24.4 76.45 24.25 76.4 M25.4 77.8 L25.8 77.9 Q25.45 77.4 25.15 77.4 L25.4 77.8 M26.45 79.1 Q26.65 78.9 26.35 78.75 26.0 78.6 26.05 78.85 L26.25 78.95 26.45 79.1 M24.4 77.45 Q24.55 76.85 23.8 76.45 L24.4 77.45"/><path fill="#ffffff" stroke="none" d="M50.15 41.95 Q49.7 42.0 49.15 41.65 L48.25 41.1 49.25 41.4 50.15 41.95"/><path fill="#ffffff" stroke="none" d="M20.5 55.05 L20.7 53.9 Q20.8 53.25 21.05 52.85 L20.9 54.0 20.5 55.05"/><path fill="#ffffff" stroke="none" d="M17.6 58.6 L17.85 57.4 Q18.1 57.5 18.0 57.95 L17.6 58.6"/><path fill="#ffffff" stroke="none" d="M18.45 59.45 Q18.05 59.0 18.75 57.35 18.65 57.2 18.45 57.55 18.3 57.8 18.3 58.0 18.1 58.0 18.2 57.7 L18.2 57.15 18.6 57.0 18.9 56.65 Q19.0 57.45 18.45 59.45"/><path fill="#ffffff" stroke="none" d="M18.55 64.3 L18.35 64.0 18.25 64.25 18.1 64.0 Q18.05 63.7 17.95 63.95 17.85 63.9 18.05 63.45 18.3 62.95 18.15 62.65 18.45 63.15 18.55 64.3"/><path fill="#ffffff" stroke="none" d="M17.9 64.55 Q18.25 64.35 18.15 65.1 L17.9 66.25 Q17.7 66.15 17.9 65.4 18.1 64.7 17.9 64.55"/><path fill="#ffffff" stroke="none" d="M24.1 78.15 L24.9 78.75 25.7 79.45 25.9 79.6 25.65 79.6 24.9 78.9 24.1 78.15"/><path fill="#ffffff" stroke="none" d="M38.05 83.05 Q37.95 83.35 37.5 83.35 L36.75 83.2 37.2 83.1 38.05 83.05"/><path fill="#ffffff" stroke="none" d="M38.55 83.5 L37.55 83.75 36.4 83.8 37.35 83.55 38.55 83.5"/><path fill="#ffffff" stroke="none" d="M65.9 59.05 L65.75 59.35 Q65.55 59.45 65.65 59.6 65.4 59.7 65.55 59.4 L65.9 59.05"/><path fill="#ffffff" stroke="none" d="M30.25 26.55 L30.1 26.9 29.75 27.2 29.8 27.05 30.25 26.55"/><path fill="#ffffff" stroke="none" d="M29.55 28.5 Q29.75 27.1 30.85 26.55 32.0 25.95 33.1 26.8 33.2 27.4 33.65 28.1 33.45 27.95 33.4 28.15 L33.6 28.3 Q33.4 28.45 33.25 29.3 L32.9 30.55 33.95 33.55 34.8 36.4 Q34.7 36.5 34.55 36.55 L35.15 37.25 35.5 37.95 Q35.9 37.75 36.15 38.1 36.6 38.2 36.15 38.15 L35.8 38.0 35.85 38.4 34.2 38.85 32.7 39.3 32.95 38.65 Q33.0 38.35 32.65 38.1 L32.8 38.0 32.95 37.7 Q32.65 37.7 32.7 37.4 L32.75 36.55 Q32.6 36.6 32.75 36.8 32.25 35.95 32.2 35.25 L32.3 34.45 Q31.85 33.55 31.75 32.85 L31.7 31.85 31.4 30.6 30.5 29.5 29.55 28.5"/><path fill="#ffffff" stroke="none" d="M11.35 43.35 Q11.55 43.15 12.4 43.05 L13.3 42.95 14.2 43.75 15.25 45.35 Q16.6 45.75 18.15 47.1 L19.35 47.7 20.65 48.0 20.0 49.15 Q19.35 49.9 19.2 50.3 19.05 50.95 19.15 50.3 L19.35 49.95 18.95 49.8 18.7 49.45 17.9 49.1 17.15 48.75 17.1 48.6 16.6 48.1 15.5 47.4 14.65 46.8 14.45 46.65 13.65 46.95 13.65 46.6 13.2 46.95 Q11.7 47.3 10.95 44.6 L11.15 44.0 11.35 43.35"/><path fill="#ffffff" stroke="none" d="M19.55 50.0 Q19.75 50.0 19.6 50.35 L19.25 50.75 19.35 50.4 19.55 50.0"/><path fill="#ffffff" stroke="none" d="M50.9 28.55 Q51.85 28.05 53.0 28.25 54.2 28.45 54.85 29.3 L54.45 30.5 Q54.25 31.15 53.8 31.1 L53.2 31.75 Q52.7 32.1 52.4 32.05 L52.1 32.65 Q52.0 33.05 51.7 32.95 L51.85 33.1 51.7 33.25 51.6 33.9 51.2 34.55 51.45 34.5 51.2 35.3 51.1 35.2 51.1 35.0 50.85 35.7 50.6 36.3 Q50.95 35.9 50.9 36.3 L50.45 36.65 Q50.75 37.3 50.1 38.35 L49.8 38.35 49.75 38.8 49.45 39.35 Q49.7 39.25 49.65 39.8 49.65 40.55 50.0 40.95 49.4 41.0 48.5 40.35 47.55 39.7 47.0 39.65 L46.8 39.35 46.6 39.1 46.05 39.15 45.55 39.1 Q45.8 38.8 45.55 38.8 L45.05 38.7 46.05 38.55 Q45.7 38.55 46.05 38.8 L46.35 38.75 Q46.85 39.0 47.2 38.35 L46.65 38.45 47.1 37.35 Q47.25 36.7 46.8 35.95 47.15 36.05 46.95 35.8 46.75 35.55 47.1 35.65 46.8 35.5 46.9 35.15 47.2 35.05 46.95 35.3 L47.45 34.85 Q47.55 34.45 47.9 34.3 L48.4 34.25 48.8 34.35 49.15 34.1 49.6 34.0 50.5 32.7 Q50.95 31.85 50.75 31.05 L50.4 30.0 Q50.2 29.35 50.45 28.9 L50.55 29.05 50.45 29.35 50.85 28.9 50.9 28.55 M48.55 35.8 L48.6 35.95 Q48.3 36.85 48.65 36.1 48.9 35.55 48.55 35.8 M47.45 37.8 L47.1 37.8 47.05 38.0 47.3 38.0 47.45 37.8 M47.4 37.3 L47.5 36.9 47.2 37.4 47.1 37.8 Q47.25 37.55 47.45 37.65 L47.65 37.6 47.4 37.3 M49.8 40.9 Q49.6 40.5 49.4 40.6 L49.5 40.85 49.8 40.9"/><path fill="#ffffff" stroke="none" d="M15.45 54.65 L16.6 54.5 17.5 54.4 Q17.45 54.15 17.7 53.85 L17.85 54.2 17.45 54.7 17.9 54.65 18.35 54.3 17.9 56.25 Q17.55 57.4 16.9 57.7 L17.15 57.95 17.35 58.25 17.05 58.2 Q17.05 57.95 16.8 58.05 L16.8 58.8 Q16.4 58.65 16.1 57.9 15.85 57.6 14.9 57.2 L14.8 57.05 13.65 56.85 12.6 56.5 Q12.45 56.4 12.45 56.1 L11.95 56.35 12.0 56.15 9.6 55.35 6.7 55.1 Q6.35 55.2 5.85 55.6 4.05 56.25 3.1 53.9 L3.4 52.55 Q3.7 51.75 4.8 51.5 L4.6 51.75 5.4 51.6 6.05 51.55 6.3 51.95 Q6.45 52.25 6.55 51.95 L6.9 52.25 7.15 52.65 Q7.75 53.2 8.95 53.55 L10.45 53.95 13.05 54.1 15.35 54.4 15.45 54.45 15.45 54.65 M17.1 57.45 L17.2 57.2 17.2 56.95 Q17.0 56.95 16.95 57.25 16.85 57.55 17.1 57.45"/><path fill="#ffffff" stroke="none" d="M18.6 54.2 L18.7 54.65 18.55 55.15 18.55 55.1 18.35 54.65 18.6 54.2"/><path fill="#ffffff" stroke="none" d="M30.45 42.35 L31.05 41.85 Q31.2 42.0 31.0 42.0 30.9 42.3 31.3 42.25 L31.75 42.3 30.9 42.55 30.05 43.05 30.05 42.8 29.85 42.85 30.45 42.35"/><path fill="#ffffff" stroke="none" d="M25.0 45.05 L24.95 44.95 Q25.45 44.5 25.1 45.05 24.4 46.0 25.0 45.05"/><path fill="#ffffff" stroke="none" d="M34.95 40.95 L34.9 40.8 Q35.35 40.35 35.0 40.9 L34.95 40.95"/><path fill="#ffffff" stroke="none" d="M39.5 39.85 L39.25 39.65 Q39.25 39.1 40.55 39.45 41.85 39.75 40.8 40.05 L41.15 39.8 40.25 39.7 Q39.8 39.6 39.5 39.85"/><path fill="#ffffff" stroke="none" d="M21.8 48.55 L21.95 48.5 21.8 48.95 Q21.65 49.0 21.8 48.55"/><path fill="#ffffff" stroke="none" d="M23.55 48.4 Q23.85 48.35 23.75 48.55 L23.6 48.85 Q23.4 48.9 23.5 48.75 L23.55 48.4"/><path fill="#ffffff" stroke="none" d="M22.15 50.4 Q22.4 50.4 22.25 50.75 L21.85 51.15 21.95 50.75 22.15 50.4"/><path fill="#ffffff" stroke="none" d="M20.4 52.35 L20.05 52.9 19.8 53.4 Q19.5 53.3 19.85 52.9 L20.4 52.35"/><path fill="#ffffff" stroke="none" d="M50.3 41.3 Q50.1 41.35 50.2 41.05 L50.4 41.25 50.6 41.15 Q50.85 41.1 50.6 41.3 L50.45 41.35 50.3 41.3"/><path fill="#ffffff" stroke="none" d="M18.75 55.55 L18.5 56.0 Q18.3 56.25 18.7 56.15 18.7 56.55 18.2 56.8 L18.3 56.1 Q18.3 55.65 18.75 55.55"/><path fill="#ffffff" stroke="none" d="M16.35 58.85 Q16.6 58.95 16.55 60.05 L16.55 61.8 Q16.4 61.7 16.4 60.6 L16.35 58.85"/><path fill="#ffffff" stroke="none" d="M16.9 59.05 L17.05 59.35 16.95 59.8 Q16.6 59.85 16.9 59.05"/><path fill="#ffffff" stroke="none" d="M17.25 59.2 Q17.45 59.05 17.55 59.4 17.65 59.85 17.4 59.45 17.25 59.65 17.45 60.05 17.6 60.35 17.2 60.45 L17.25 59.2"/><path fill="#ffffff" stroke="none" d="M18.15 58.8 L18.05 59.6 17.8 59.7 17.8 60.05 Q17.55 59.9 17.7 59.45 L18.15 58.8"/><path fill="#ffffff" stroke="none" d="M18.85 59.0 L19.0 59.0 19.05 58.75 Q19.25 58.75 19.1 59.15 L18.7 59.65 Q18.55 59.45 18.95 59.25 18.8 59.2 18.8 58.85 18.8 58.6 18.9 58.8 L18.85 59.0"/><path fill="#ffffff" stroke="none" d="M54.1 44.5 L54.55 45.55 Q54.6 45.9 54.35 45.4 54.15 44.95 54.15 45.25 53.7 44.55 54.1 44.5"/><path fill="#ffffff" stroke="none" d="M16.5 62.3 Q16.6 62.05 16.65 62.35 L16.75 62.9 Q16.5 62.95 16.55 62.7 L16.5 62.3"/><path fill="#ffffff" stroke="none" d="M16.6 63.3 Q16.7 63.05 16.75 63.35 L16.9 63.95 Q16.65 64.0 16.65 63.7 L16.6 63.3"/><path fill="#ffffff" stroke="none" d="M55.35 47.35 Q55.6 47.25 55.75 47.55 55.9 47.8 56.15 47.45 L56.1 48.05 55.35 47.35"/><path fill="#ffffff" stroke="none" d="M16.8 65.2 Q16.9 64.95 16.95 65.25 L17.1 65.8 Q16.85 65.85 16.85 65.6 L16.8 65.2"/><path fill="#ffffff" stroke="none" d="M16.95 66.2 Q17.05 65.95 17.1 66.25 L17.2 66.85 Q16.95 66.9 17.0 66.6 L16.95 66.2"/><path fill="#ffffff" stroke="none" d="M17.8 66.75 L18.2 67.8 Q18.25 68.5 17.9 68.8 L18.0 67.85 17.8 66.75"/><path fill="#ffffff" stroke="none" d="M60.0 55.65 Q60.15 55.45 60.15 56.05 60.2 56.7 60.45 56.7 60.2 57.05 60.1 56.5 L60.0 55.65"/><path fill="#ffffff" stroke="none" d="M26.2 79.85 L26.8 80.2 27.75 81.0 26.2 79.85"/><path fill="#ffffff" stroke="none" d="M61.1 67.75 Q61.2 67.1 61.55 66.7 L63.85 67.7 Q65.25 68.1 65.8 67.0 L65.75 67.2 67.0 67.25 67.9 69.0 67.25 70.05 66.05 71.15 65.75 70.95 Q65.55 70.8 65.6 71.05 L65.15 70.8 Q64.95 70.6 64.6 70.55 64.35 69.2 63.1 68.95 62.6 68.8 60.9 68.95 L61.1 67.75"/><path fill="#ffffff" stroke="none" d="M58.8 72.9 L58.6 73.35 Q58.45 73.6 58.3 73.25 L58.8 72.9"/><path fill="#ffffff" stroke="none" d="M57.05 73.8 Q56.65 75.25 55.3 76.1 L55.75 75.4 56.4 74.85 Q56.2 74.75 56.45 74.45 L57.05 73.8"/><path fill="#ffffff" stroke="none" d="M56.6 75.25 L57.65 73.85 Q57.7 74.1 58.05 74.0 L57.4 74.55 56.6 75.25"/><path fill="#ffffff" stroke="none" d="M55.15 77.0 L56.15 76.0 Q56.05 76.6 55.75 76.8 L56.15 77.1 Q55.8 77.8 56.75 78.95 L58.7 81.15 58.85 81.5 58.95 81.8 60.35 83.3 61.55 84.65 62.2 84.35 Q62.15 84.65 62.65 84.8 L63.4 85.05 63.65 86.2 63.8 87.35 Q63.55 87.45 63.25 87.9 L62.35 88.25 Q63.15 88.55 61.55 88.45 L61.25 87.95 Q60.95 87.6 60.95 87.05 60.7 87.15 60.85 87.5 L61.15 87.85 Q60.65 87.85 60.35 86.65 L60.0 84.85 59.4 84.5 55.75 81.4 55.3 80.95 55.25 80.65 55.0 80.55 54.6 80.5 Q54.5 79.95 54.0 79.65 L52.8 79.45 53.0 79.15 53.2 78.75 53.35 78.9 53.6 78.5 53.3 78.5 Q53.15 78.15 53.95 77.85 L54.6 77.7 55.15 77.0 M60.35 85.75 L60.55 86.15 60.85 86.0 61.0 85.8 60.55 85.85 60.35 85.75"/><path fill="#ffffff" stroke="none" d="M43.8 85.05 Q43.95 85.9 43.7 86.25 L44.05 86.6 44.3 87.7 44.05 87.8 44.35 88.1 44.2 88.5 Q44.95 91.55 46.5 93.45 L46.1 94.2 45.35 95.0 44.4 95.2 43.65 95.25 43.3 94.8 Q42.85 95.35 42.3 94.55 41.8 93.75 42.2 93.3 L42.4 93.45 42.55 93.75 42.55 93.4 42.35 92.95 42.8 92.3 43.3 91.6 Q43.2 90.65 42.7 89.25 L41.85 86.9 41.4 84.8 41.65 84.8 41.75 84.55 Q41.55 84.7 41.45 84.4 L41.1 84.05 42.25 83.8 43.8 83.95 Q43.65 84.2 43.8 85.05"/><path fill="#ffffff" fill-opacity="0.8" d="M72.8 11.1 Q72.9 10.95 72.95 11.1 L72.9 11.3 72.8 11.1"/><path fill="#ffffff" fill-opacity="0.8" d="M72.8 11.45 L72.65 11.65 72.15 11.8 72.45 11.55 72.8 11.45"/><path fill="#ffffff" fill-opacity="0.8" d="M80.0 11.45 L80.25 11.55 80.05 11.65 80.0 11.45"/><path fill="#ffffff" fill-opacity="0.8" d="M76.7 12.2 L76.2 12.15 75.8 11.8 76.0 11.9 76.05 11.8 75.3 11.7 77.25 11.85 76.35 11.8 77.2 12.05 76.9 12.3 76.45 12.35 76.7 12.2"/><path fill="#ffffff" fill-opacity="0.8" d="M80.4 11.6 L80.55 11.8 80.5 11.85 80.3 11.85 80.4 11.6"/><path fill="#ffffff" fill-opacity="0.8" d="M71.9 11.85 L71.4 11.95 71.6 11.8 71.9 11.85"/><path fill="#ffffff" fill-opacity="0.8" d="M77.35 11.95 L77.35 11.8 77.6 11.8 Q77.65 11.95 77.35 11.95"/><path fill="#ffffff" fill-opacity="0.8" d="M80.1 12.05 Q80.05 11.95 80.25 11.95 L80.5 11.95 80.4 12.35 80.25 12.2 80.1 12.05"/><path fill="#ffffff" fill-opacity="0.8" d="M70.35 12.75 L70.75 12.75 70.25 13.0 70.35 12.75"/><path fill="#ffffff" fill-opacity="0.8" d="M66.45 15.15 L65.95 15.6 Q66.1 14.85 66.45 15.15"/><path fill="#ffffff" fill-opacity="0.8" d="M66.7 15.5 L66.8 15.7 Q66.7 15.9 66.55 15.8 L66.7 15.5"/><path fill="#ffffff" fill-opacity="0.8" d="M87.4 19.45 L86.9 17.9 Q87.4 18.25 87.4 19.05 L87.45 19.25 87.4 19.45"/><path fill="#ffffff" fill-opacity="0.8" d="M64.15 18.2 L64.2 18.4 64.05 18.65 Q63.8 18.55 64.15 18.2"/><path fill="#ffffff" fill-opacity="0.8" d="M63.75 18.95 L63.75 19.25 63.6 19.6 Q63.4 19.5 63.75 18.95"/><path fill="#ffffff" fill-opacity="0.8" d="M88.1 26.2 Q88.3 26.15 88.3 26.45 L88.15 26.8 Q87.85 26.75 88.1 26.2"/><path fill="#ffffff" fill-opacity="0.8" d="M65.55 32.3 L65.4 32.25 65.4 32.1 65.55 32.0 Q65.85 32.0 65.55 32.3"/><path fill="#ffffff" fill-opacity="0.8" d="M70.9 35.6 L71.15 35.7 71.0 35.8 70.9 35.6"/><path fill="#ffffff" fill-opacity="0.8" d="M61.75 35.8 Q61.75 35.7 61.9 35.7 L62.2 35.7 61.75 35.8"/><path fill="#ffffff" fill-opacity="0.8" d="M73.25 36.45 L73.1 36.25 72.9 36.1 73.25 36.1 73.7 36.2 73.55 36.3 Q73.2 36.3 73.25 36.45"/><path fill="#ffffff" fill-opacity="0.8" d="M72.25 36.3 L72.75 36.25 Q73.15 36.4 72.9 36.6 L72.75 36.55 72.8 36.35 72.25 36.3"/><path fill="#ffffff" fill-opacity="0.8" d="M76.1 36.45 L75.85 36.6 Q75.6 36.6 75.55 36.7 75.4 36.55 75.65 36.5 L76.1 36.45"/><path fill="#ffffff" fill-opacity="0.8" d="M75.05 36.6 Q75.65 36.9 75.05 36.85 L75.05 36.6"/><path fill="#ffffff" fill-opacity="0.8" d="M95.75 20.6 L96.1 21.0 96.4 21.5 96.4 22.0 96.25 22.25 96.0 22.1 Q96.0 22.65 95.6 22.8 L95.0 22.85 95.15 22.9 Q94.65 23.15 93.7 22.6 L89.05 23.15 Q88.7 23.5 88.65 24.85 L88.5 27.05 88.55 23.9 88.8 23.35 88.8 23.15 89.0 23.0 Q88.75 22.95 88.5 23.2 L88.1 23.6 88.35 24.25 88.35 24.8 Q88.15 24.8 88.25 24.65 L88.35 24.3 88.1 24.0 Q87.95 24.0 88.1 24.55 87.85 24.55 87.85 24.75 87.9 24.9 87.75 24.8 L87.65 25.2 87.75 25.55 88.0 24.75 87.75 26.2 Q87.45 27.15 87.5 27.6 L87.35 27.35 87.3 27.45 87.25 27.6 87.75 27.75 Q88.1 27.85 88.15 28.05 L88.3 27.5 Q88.35 27.0 88.4 27.45 88.25 28.2 88.75 28.35 L88.85 28.25 88.9 28.45 89.45 28.55 Q89.85 28.85 90.15 28.8 89.9 29.0 89.8 29.5 L90.4 28.7 91.4 28.6 92.35 29.95 Q92.25 30.75 91.4 31.6 L91.65 31.75 91.85 32.15 93.35 32.3 Q94.4 32.45 94.5 32.9 94.65 33.4 94.4 33.8 94.05 34.25 93.2 34.2 93.05 33.95 92.45 33.65 L92.55 33.5 92.2 33.15 91.95 32.8 90.95 32.35 89.8 32.0 89.8 31.85 88.4 31.3 Q87.6 30.95 86.9 30.9 L87.65 29.35 Q87.55 29.0 87.3 29.25 L87.1 29.35 Q86.95 29.4 87.05 29.5 L87.1 29.75 86.75 30.05 86.35 29.95 86.25 30.0 86.45 30.15 86.5 30.45 86.75 30.2 Q86.85 30.0 87.0 30.0 L86.8 30.3 86.75 30.6 Q86.5 30.65 86.15 31.0 L85.5 31.6 85.5 31.4 85.25 31.6 85.45 31.85 86.35 30.85 86.4 31.05 Q86.25 31.2 86.35 31.35 85.85 31.55 85.45 32.1 L85.65 32.05 85.95 31.9 85.65 32.2 85.25 32.3 85.3 32.5 85.25 32.65 85.1 32.7 84.85 32.55 84.95 32.8 Q84.8 32.8 84.35 33.2 83.85 33.6 83.55 33.55 83.45 34.2 82.15 34.4 L82.35 34.1 82.65 34.05 82.8 33.95 Q82.3 34.2 82.9 33.8 L82.8 33.95 82.9 33.85 83.05 33.55 83.6 33.4 84.05 33.3 Q84.0 33.1 83.45 33.3 L82.8 33.75 82.05 33.8 81.65 34.3 Q82.15 33.9 82.45 33.8 L82.2 34.1 Q81.8 34.25 81.9 34.55 81.75 34.5 81.55 34.7 L81.0 34.95 81.35 34.6 Q81.5 34.45 81.3 34.4 L81.9 33.95 81.4 34.1 Q81.1 34.35 81.15 34.7 L80.15 35.15 80.5 35.15 80.8 34.95 80.65 35.3 Q80.35 35.55 80.5 35.2 80.2 35.4 80.25 35.55 L79.75 35.6 Q79.4 35.6 79.35 35.8 L79.25 35.65 79.15 35.55 79.1 35.65 79.15 35.85 78.1 35.95 79.0 35.7 Q78.9 35.4 78.6 35.5 L78.2 35.6 Q78.35 35.75 78.1 35.8 L77.85 35.8 77.95 36.05 78.1 36.3 Q78.3 36.1 78.75 36.1 L77.95 36.45 Q77.85 37.05 78.1 37.25 L78.05 37.3 77.95 37.25 78.2 38.6 77.95 38.5 Q78.4 39.3 78.85 39.25 78.85 39.75 79.25 39.65 L79.1 39.75 79.2 40.45 79.0 40.5 79.15 40.55 79.1 41.25 Q79.8 40.45 79.0 41.65 L78.65 41.55 78.9 41.65 Q79.1 42.15 77.9 42.05 77.05 41.9 77.85 42.0 L77.55 41.8 77.2 41.9 76.85 41.5 Q76.35 41.45 76.05 40.75 L76.05 40.3 Q76.05 40.15 76.2 40.15 L76.1 39.85 Q76.85 39.25 77.5 39.25 L77.7 39.25 77.75 39.4 78.15 39.3 78.45 39.6 Q78.55 39.5 78.6 39.5 78.55 39.1 77.95 39.0 L77.0 39.15 Q76.85 39.15 77.0 38.9 L76.85 38.85 76.65 37.6 Q76.5 36.75 75.95 36.95 L76.45 36.85 Q76.75 36.45 76.0 36.35 L75.05 36.35 75.05 36.55 74.95 36.45 74.2 36.55 Q74.2 36.45 74.4 36.45 L73.5 36.1 72.9 35.45 Q73.5 35.75 73.3 35.95 L73.85 36.0 74.3 36.05 Q74.15 36.25 74.75 36.25 L75.6 36.1 75.15 36.1 74.55 36.1 74.45 35.85 74.35 36.0 73.95 35.95 74.0 35.8 73.95 35.6 73.8 35.85 Q73.4 35.85 73.0 35.4 L72.75 35.45 72.9 35.7 72.45 35.6 72.05 35.2 72.4 35.45 72.15 35.1 71.75 34.9 71.75 35.1 72.0 35.3 Q71.9 35.55 71.5 35.3 L71.6 35.05 71.4 34.95 Q71.25 35.0 71.35 35.2 L71.35 35.4 72.1 35.55 72.8 35.85 72.25 35.8 72.05 35.85 71.6 35.85 71.3 35.6 71.0 35.4 Q71.0 35.6 70.85 35.45 L70.5 35.2 70.55 35.4 70.45 35.4 70.6 35.6 70.85 35.7 70.45 35.75 Q70.15 35.6 70.35 35.45 L70.0 35.55 69.85 35.2 70.1 35.25 70.35 35.4 Q70.25 35.15 69.6 34.85 L69.0 34.45 68.8 34.55 68.85 34.7 68.95 34.9 68.8 34.8 67.05 36.8 66.55 37.5 66.05 38.2 65.7 38.2 Q65.9 38.4 65.9 38.9 65.85 39.35 65.95 39.4 65.65 40.2 65.25 40.4 L64.55 40.35 64.75 40.45 64.1 40.4 63.5 40.0 Q63.5 39.8 63.6 39.9 L63.85 40.0 63.4 39.65 63.35 39.45 63.25 39.15 63.5 38.9 63.6 38.45 Q64.15 37.85 64.65 37.75 L64.55 37.9 64.9 37.75 64.75 38.0 64.5 38.1 65.0 38.2 65.1 37.85 Q65.1 37.65 65.3 37.7 L65.25 37.5 Q65.2 37.45 65.3 37.35 L65.4 37.5 65.9 36.3 66.15 36.1 Q66.05 35.8 66.2 35.55 L66.45 35.2 Q66.5 34.95 66.9 34.8 66.75 34.8 66.9 34.5 L67.2 33.9 Q67.1 33.75 66.65 33.5 66.15 33.65 65.9 34.05 L65.85 33.95 65.95 33.8 65.35 34.35 65.0 34.8 64.8 34.8 64.55 34.8 64.45 34.95 64.3 35.2 64.05 35.2 63.65 35.3 63.9 35.4 63.15 35.85 63.0 36.05 62.85 36.1 62.9 36.35 62.9 36.6 Q62.75 36.4 62.75 36.6 L62.65 36.95 Q62.9 36.95 62.8 37.3 L62.55 37.3 Q62.35 37.4 62.65 37.45 L61.5 37.95 Q60.9 37.75 60.6 37.25 60.3 36.7 60.85 36.1 62.2 36.35 63.4 34.7 63.25 34.65 63.6 34.4 L64.25 33.75 63.75 34.15 Q64.2 33.4 64.65 33.4 L65.15 32.7 65.0 32.9 65.4 32.5 65.3 32.5 65.1 32.05 64.9 31.65 66.15 33.05 66.55 33.15 66.05 33.65 66.35 33.55 66.7 33.3 67.0 33.6 67.3 33.9 67.6 33.55 67.0 33.2 66.7 32.75 66.45 32.9 66.45 32.8 66.55 32.65 65.7 32.25 65.9 32.2 66.15 32.3 66.05 31.9 65.75 32.05 65.5 31.85 Q65.4 31.85 65.45 31.95 L65.3 32.0 Q65.15 31.7 65.4 31.75 L65.3 31.6 Q65.2 31.6 65.15 31.7 L65.0 31.65 Q65.2 31.55 65.05 31.45 L64.75 31.25 Q64.8 31.1 64.9 31.2 L65.05 31.35 64.55 30.6 64.5 30.75 64.35 30.6 Q64.3 30.45 64.5 30.5 64.0 29.6 63.9 28.7 63.65 28.85 63.7 29.1 L63.9 29.6 Q63.55 29.3 63.5 28.5 L63.25 27.3 63.4 27.6 63.65 27.15 63.15 27.2 63.1 26.9 Q63.05 26.75 63.15 26.65 L63.0 26.5 62.8 26.5 62.9 26.7 62.75 26.7 62.85 27.05 62.85 26.95 Q62.8 26.85 63.0 26.9 62.85 27.25 63.1 27.55 L63.35 28.3 Q62.9 28.2 63.1 27.6 L62.9 27.95 Q62.6 27.15 62.65 26.8 62.5 27.1 62.4 26.45 62.6 26.95 62.55 26.5 62.5 26.0 62.4 26.4 62.25 26.3 62.4 26.1 62.5 25.95 62.65 25.95 L62.1 25.9 59.05 26.05 Q57.1 26.2 56.55 26.65 L56.3 27.05 56.25 27.05 Q55.8 27.6 55.0 27.3 54.15 27.0 54.4 26.2 54.25 26.5 54.25 25.95 54.45 26.2 54.35 25.85 L54.25 25.25 54.65 24.75 54.7 24.85 54.6 25.0 54.8 24.75 55.15 24.75 Q55.15 24.65 55.0 24.65 L56.15 24.75 56.0 25.0 Q56.25 24.75 56.65 25.0 L57.25 25.3 57.3 25.15 59.15 24.8 60.85 24.55 61.2 24.4 61.5 24.3 61.6 24.3 61.7 24.4 61.95 23.85 62.0 22.85 61.6 22.7 Q61.35 22.65 61.5 22.5 L60.9 22.5 60.2 22.5 59.7 22.4 58.9 22.25 57.7 22.85 57.8 22.65 56.7 22.8 Q56.15 22.5 56.25 21.75 L56.4 21.8 56.3 21.5 56.5 21.6 56.75 21.35 56.65 21.3 56.5 21.35 56.9 20.85 56.9 21.05 57.25 20.95 57.05 20.85 57.4 20.85 57.9 20.85 Q57.9 21.2 58.45 21.25 L58.5 21.15 58.4 21.0 58.5 21.1 Q58.7 21.3 58.55 21.45 L58.75 21.4 58.8 21.6 59.35 21.5 59.8 21.7 60.45 21.5 60.85 21.55 62.0 21.7 61.85 21.5 61.5 21.5 60.95 21.5 61.85 21.45 62.05 21.5 62.2 21.45 62.0 24.15 62.4 23.65 62.65 23.1 62.5 23.05 62.35 23.25 Q62.15 23.25 62.25 22.85 62.75 23.05 62.85 21.25 L63.15 21.25 Q63.15 20.55 63.6 20.45 63.75 20.05 63.85 20.35 63.85 19.45 64.25 19.05 L64.55 18.9 64.55 18.65 64.8 18.65 64.7 18.3 64.4 18.8 64.3 18.65 64.15 18.95 63.9 19.2 Q63.95 18.8 64.3 18.5 L64.8 17.9 Q65.0 18.1 64.8 18.4 65.55 17.4 65.5 16.75 L65.8 16.5 Q65.75 16.2 66.0 16.0 L66.35 15.7 65.8 16.65 66.2 16.25 66.65 15.9 66.4 16.4 66.05 17.0 Q66.25 17.05 66.1 17.4 L65.7 17.8 66.4 17.05 66.8 15.8 67.55 15.25 68.2 14.6 68.6 14.6 68.95 14.6 68.8 14.4 68.6 14.5 Q68.45 14.45 69.0 14.25 68.8 14.1 69.15 13.85 L69.6 13.45 69.55 13.6 69.35 13.85 69.55 13.75 69.35 14.0 69.7 13.7 69.75 13.2 69.85 13.35 Q70.95 13.1 71.1 12.35 L71.7 12.3 72.15 11.95 72.8 12.05 72.4 12.3 71.35 12.45 70.9 12.85 71.65 12.75 71.5 12.75 71.25 12.75 Q71.35 12.55 71.9 12.5 L72.65 12.3 Q72.8 12.4 72.6 12.5 L72.3 12.7 72.7 12.6 72.9 12.35 Q73.05 12.7 73.15 12.35 L73.1 11.75 Q73.0 11.35 73.15 11.05 73.0 10.75 73.0 10.95 L72.8 9.1 Q72.6 7.95 72.15 7.5 L72.3 7.5 71.6 6.95 Q71.25 6.55 71.35 5.95 L71.55 6.0 71.5 5.7 72.4 4.85 Q73.3 4.75 74.05 5.2 L74.15 6.35 74.05 6.15 73.95 6.6 73.7 7.0 73.75 6.9 73.9 6.5 73.6 7.0 73.15 7.4 73.55 7.5 73.7 7.75 73.65 8.05 73.8 8.1 73.8 8.4 74.2 9.25 74.3 9.95 74.4 10.0 74.55 9.95 76.6 10.05 74.4 10.05 Q74.6 11.4 75.2 12.1 75.25 11.8 75.5 12.0 L76.1 12.3 75.7 12.45 Q75.75 12.6 75.95 12.55 L76.2 12.35 76.85 12.5 77.7 12.3 77.5 12.7 77.7 12.55 77.75 12.35 78.1 12.3 77.95 12.25 77.75 12.2 Q78.2 11.7 77.25 11.6 77.6 11.45 77.1 11.35 77.6 11.15 78.0 11.95 78.4 11.75 78.85 11.95 L79.5 12.2 79.5 12.35 79.65 12.5 79.75 12.3 80.1 12.2 79.85 12.45 Q80.3 12.9 80.15 12.45 L80.8 12.9 81.55 13.0 81.0 12.6 80.95 12.7 81.05 12.75 80.85 12.8 Q80.65 12.6 80.8 12.5 80.5 12.6 80.5 12.2 L80.8 12.3 81.15 12.5 81.1 12.35 80.9 12.3 81.45 12.45 82.15 12.6 81.8 12.35 82.15 12.1 82.2 12.25 82.15 12.45 82.35 12.4 82.55 12.35 Q82.5 12.7 82.6 12.7 L82.9 12.6 Q82.75 12.7 82.75 12.95 L82.7 13.25 82.05 13.1 Q82.05 13.25 82.55 13.35 L83.0 13.9 83.6 14.5 83.85 14.6 Q83.9 14.8 84.2 14.75 L83.9 14.4 83.7 14.1 83.35 13.9 82.9 13.7 83.15 13.65 83.4 13.75 82.8 13.35 82.95 13.2 83.15 13.2 83.05 13.1 83.05 13.0 82.95 13.0 82.8 12.95 82.95 12.7 83.3 12.85 83.15 13.25 83.55 13.75 83.5 13.55 83.2 13.35 83.4 13.15 83.4 13.0 Q83.5 12.9 83.6 13.15 83.7 13.45 84.05 13.35 L83.8 13.45 83.55 13.25 Q83.95 14.45 84.7 14.25 L84.3 13.9 Q84.2 13.65 83.95 13.7 83.95 13.4 84.3 13.45 L84.45 13.8 84.7 14.1 Q84.85 13.85 85.1 14.1 L85.45 14.6 85.15 14.35 84.85 14.25 85.3 15.0 85.95 15.65 Q85.7 15.85 85.75 16.15 L86.25 15.55 Q86.6 15.2 87.0 15.35 L86.75 15.15 86.95 15.15 87.4 15.1 Q87.65 15.5 87.85 15.25 L87.85 15.4 88.0 15.35 88.45 15.75 Q88.85 16.05 88.65 16.4 L88.8 16.8 88.7 16.7 88.75 17.15 88.55 17.25 88.1 17.65 86.85 17.8 85.75 16.9 Q85.8 17.25 86.2 17.5 L86.85 17.9 Q86.75 18.1 86.95 18.75 87.15 19.3 86.9 19.45 L87.35 19.85 87.85 20.45 87.7 20.65 87.85 20.95 88.15 21.05 Q88.45 21.2 88.4 21.45 L88.8 21.25 Q88.8 21.6 89.25 21.6 L90.4 21.45 91.2 21.5 91.45 21.35 93.3 21.45 Q92.8 21.25 94.2 21.0 93.85 20.95 94.45 20.85 94.45 20.65 94.85 20.55 L94.7 20.7 95.25 20.65 95.75 20.6 M78.6 12.1 Q78.05 11.95 78.1 12.1 L78.3 12.1 78.45 12.3 Q78.0 12.3 78.45 12.45 78.4 12.35 78.5 12.3 L78.6 12.1 M79.1 12.45 L79.4 12.5 79.25 12.3 Q79.1 12.25 79.1 12.45 M79.75 13.0 L79.9 13.25 80.1 13.35 80.0 13.0 79.9 13.05 79.75 13.0 M80.9 13.5 L80.9 13.25 Q80.55 13.6 80.75 13.7 L80.9 13.5 M72.4 12.3 L72.4 12.05 Q72.25 12.05 72.25 12.15 L72.4 12.3 M82.2 12.95 L81.4 12.6 81.75 13.05 Q82.0 13.2 82.2 12.95 M81.6 13.6 L81.3 13.5 82.2 14.15 82.15 13.9 Q82.0 13.7 82.2 13.6 81.7 13.5 81.5 13.25 81.45 13.5 81.7 13.55 L81.95 13.75 81.6 13.6 M84.9 14.6 L84.85 14.5 Q84.75 14.7 84.3 14.35 84.35 14.65 84.85 14.75 L84.9 14.6 M85.7 15.8 L85.45 15.6 85.5 15.75 85.7 15.8 M85.35 15.35 L85.1 15.5 85.35 15.6 85.4 15.45 85.35 15.35 M84.05 16.15 L83.85 16.15 83.85 16.3 84.05 16.3 84.05 16.15 M84.85 15.8 L85.25 16.25 85.1 16.0 84.85 15.8 M84.6 15.5 L83.7 14.75 Q83.75 15.1 84.1 15.3 84.4 15.5 84.6 15.5 M84.55 17.05 L84.45 16.9 84.0 17.4 83.4 17.45 83.0 17.75 82.3 17.65 82.35 17.85 82.55 17.95 82.5 18.05 82.55 18.15 82.75 18.0 82.8 18.15 84.85 17.0 84.55 17.05 M85.75 16.65 L85.25 16.8 Q84.95 16.85 85.05 17.05 L85.4 16.85 85.75 16.65 M83.45 15.4 L83.65 15.35 83.8 15.35 82.95 14.85 83.45 15.4 M83.4 19.7 L83.65 19.6 83.85 19.3 Q83.55 19.3 83.4 19.7 M86.25 18.95 L86.3 19.25 86.45 19.2 86.25 18.95 M87.0 20.05 Q87.4 20.1 87.0 19.7 86.85 21.1 87.1 20.7 L87.0 20.05 M86.8 19.65 L86.9 19.6 86.6 19.35 86.7 19.7 Q86.7 19.6 86.8 19.65 M87.35 25.55 L87.35 25.7 87.5 25.7 87.5 25.55 87.35 25.55 M87.35 25.0 L87.5 23.4 Q87.35 23.6 87.35 24.55 L87.2 24.85 87.35 25.0 M87.1 26.95 L87.35 27.3 87.25 27.0 87.1 26.95 M87.15 26.55 L87.4 26.2 87.4 25.8 87.15 26.55 M86.35 21.8 L86.35 21.5 Q86.2 21.7 86.2 22.0 L86.45 22.2 86.35 21.8 M86.25 26.9 Q86.25 26.7 86.0 26.7 L86.15 26.95 86.35 27.15 Q86.1 27.15 86.35 27.25 L86.5 27.15 86.35 26.9 86.45 26.8 86.35 26.7 86.25 26.9 M84.95 30.2 L84.95 30.35 85.1 30.35 85.1 30.2 84.95 30.2 M86.1 28.85 L86.25 28.85 86.25 28.7 86.1 28.7 86.1 28.85 M82.3 33.0 L82.15 32.8 Q82.15 33.25 82.3 33.3 L82.3 33.0 M81.5 33.05 L81.4 33.2 81.3 33.4 81.55 33.25 81.5 33.05 M85.85 31.0 L86.0 30.85 85.95 30.65 Q85.65 31.0 85.85 31.0 M84.8 32.0 L84.8 31.8 Q84.75 31.65 84.7 31.85 L84.8 32.0 M89.1 29.7 L88.4 29.5 88.55 29.9 88.8 30.1 88.75 30.25 89.2 30.5 Q89.6 30.6 89.75 30.85 90.05 30.4 89.65 29.85 L89.1 29.7 M86.55 28.85 Q86.45 28.75 86.45 28.95 L86.5 29.1 Q86.25 29.3 86.45 29.35 L86.75 28.95 Q86.65 29.0 86.55 28.85 M79.15 28.2 L79.1 28.1 78.9 28.35 77.35 28.45 77.6 28.6 Q77.65 28.35 78.25 28.35 L79.0 28.55 79.15 28.2 M79.35 29.25 L79.25 29.3 79.1 29.25 78.95 29.45 78.75 29.5 79.0 29.7 Q79.05 29.4 79.2 29.6 L79.4 29.85 79.4 29.6 79.35 29.35 Q79.55 29.35 79.35 29.25 M79.1 30.2 Q79.2 29.95 79.25 30.15 L79.15 30.35 79.35 30.3 Q79.45 30.2 79.5 30.2 L79.6 30.35 Q79.85 30.15 79.35 30.05 78.85 29.95 79.1 30.2 M78.95 28.7 L78.85 28.55 77.85 28.55 Q77.55 29.0 77.75 29.1 77.8 28.6 78.4 28.7 L79.15 28.85 78.95 28.7 M78.65 27.75 L78.25 27.8 78.6 27.9 78.9 28.2 Q79.15 27.75 78.85 27.45 L78.95 27.75 78.85 28.05 78.65 27.75 M78.5 29.3 Q78.65 29.15 78.45 29.1 L78.35 29.25 Q78.2 29.3 78.2 29.35 L78.5 29.3 M78.45 30.5 Q78.8 30.85 78.9 30.6 L78.85 30.5 78.65 30.45 78.45 30.5 M80.55 34.7 L80.3 34.45 79.9 34.75 Q79.65 34.85 79.85 35.05 L79.25 35.25 78.85 35.4 79.45 35.35 79.85 35.3 80.05 34.85 Q80.2 34.55 80.4 34.7 L80.25 34.9 Q80.1 35.0 80.25 35.05 L80.75 34.7 81.15 34.2 80.95 34.4 80.65 34.4 80.55 34.7 M79.4 34.7 L78.8 35.0 Q78.4 35.2 78.5 35.4 L79.1 35.05 79.4 34.7 M78.35 34.55 L78.1 34.7 78.3 34.45 78.35 34.3 Q77.8 34.65 78.1 34.9 L78.4 34.7 78.65 34.4 78.35 34.55 M75.95 34.9 L76.15 35.05 76.3 35.15 76.2 34.8 76.05 34.55 75.95 34.9 M75.05 35.15 L74.8 34.95 74.85 35.2 75.05 35.15 M75.35 35.7 L75.15 35.6 75.1 35.85 75.15 35.95 75.35 35.7 M71.65 35.55 Q71.45 35.55 71.5 35.7 L71.75 35.6 71.65 35.55 M94.3 22.3 L94.0 22.25 Q94.45 22.7 94.6 22.5 L94.3 22.3 M68.05 14.6 L67.5 14.7 Q67.2 14.7 67.05 14.85 L66.5 15.5 Q66.55 15.0 66.8 14.85 L67.85 14.35 67.75 14.15 67.95 13.95 67.95 14.1 68.05 14.1 68.0 14.25 67.85 14.5 68.15 14.2 Q68.35 14.0 68.6 14.0 L68.1 14.4 Q68.0 14.45 68.05 14.6 M69.1 14.15 Q69.4 14.15 69.2 14.35 L69.5 14.1 69.25 14.1 Q69.1 14.05 69.1 14.15 M65.65 17.0 L65.6 17.5 65.45 17.75 65.55 17.75 65.7 17.65 65.8 17.55 Q65.65 17.4 65.85 17.1 L65.95 16.75 65.65 17.0 M68.6 15.4 L68.3 15.4 68.25 15.55 68.3 15.65 Q68.3 15.6 68.45 15.55 L68.6 15.4 M67.95 15.1 L68.05 15.0 67.9 15.25 67.7 15.4 68.2 15.0 67.95 14.95 Q67.8 15.0 67.95 15.1 M67.65 15.9 L67.55 15.75 Q67.3 16.0 67.55 16.05 L67.65 15.9 M67.15 16.35 L67.05 16.55 67.35 16.25 67.15 16.35 M67.0 16.75 L66.9 16.75 66.9 16.65 66.75 16.8 66.65 17.0 66.7 17.1 Q66.5 17.3 66.65 17.3 L67.2 16.75 67.0 16.75 M67.25 17.15 L67.2 17.0 Q66.9 17.3 67.15 17.4 L67.25 17.15 M66.6 18.35 Q66.0 18.25 65.8 18.65 66.55 18.25 67.35 18.9 67.2 18.5 66.6 18.35 M68.65 20.1 L68.55 20.3 69.0 20.05 68.8 19.9 68.55 19.95 68.65 20.1 M68.2 19.85 L68.1 19.85 68.2 20.1 68.2 20.3 68.35 20.1 68.45 19.85 68.2 19.85 M67.95 19.7 L67.4 20.6 Q67.1 21.2 66.65 21.25 L66.35 21.25 Q66.2 21.25 66.2 21.35 L67.05 21.2 67.6 20.75 67.7 20.4 67.6 20.3 67.95 19.85 Q67.95 20.05 67.85 19.85 L67.95 19.7 M67.55 20.95 L67.85 21.1 67.75 20.9 67.55 20.95 M69.7 20.6 L69.5 20.2 Q69.35 19.95 69.2 20.1 L69.5 20.55 69.6 20.55 69.7 20.6 M69.8 20.45 L69.7 20.75 69.85 21.0 70.2 20.05 69.6 20.1 69.8 20.45 M70.5 20.45 L70.35 20.45 70.25 20.2 70.1 20.35 Q70.45 20.65 70.5 20.45 M70.25 21.55 L70.2 21.45 Q69.85 21.65 70.1 21.7 L70.25 21.55 M69.45 21.85 L69.35 21.7 69.35 21.45 69.05 21.55 68.7 21.35 68.95 21.7 69.2 22.0 69.45 21.85 M63.0 22.0 Q62.65 22.4 62.9 22.6 L63.05 22.25 63.0 22.0 M63.4 23.0 L63.4 22.85 63.25 22.95 63.15 23.15 63.4 23.0 M62.85 23.15 L62.9 23.1 63.0 23.1 63.0 22.95 62.85 23.0 62.85 23.15 M62.8 23.35 L62.75 23.25 Q62.4 23.5 62.65 23.6 L62.8 23.35 M62.6 26.15 L62.65 26.35 62.85 26.3 62.6 26.15 M63.9 27.7 L63.9 27.55 63.75 27.55 63.75 27.7 63.9 27.7 M64.45 28.7 Q64.6 28.9 64.65 28.8 L64.5 28.4 64.3 28.05 Q64.45 28.35 64.25 28.45 L64.45 28.7 M64.5 30.2 L64.5 29.95 Q64.35 29.8 64.3 29.95 L64.4 30.05 64.5 30.2 M67.2 32.9 L67.55 33.05 67.85 33.25 67.85 32.85 67.8 32.55 67.55 32.9 67.2 32.65 67.2 32.9 M60.45 21.5 L60.2 21.55 60.1 21.7 60.45 21.5 M71.1 34.8 L70.9 34.95 71.25 34.7 70.2 34.15 70.6 34.5 71.1 34.8 M70.5 34.15 L70.75 34.05 70.65 33.9 70.5 34.15 M70.1 34.05 Q69.75 34.15 69.85 33.8 L69.35 34.0 Q69.1 34.2 69.2 34.3 L69.45 34.3 69.5 34.05 70.0 34.4 Q70.25 34.75 70.45 34.65 69.95 34.25 70.1 34.05 M70.35 35.05 L70.35 34.9 70.85 35.2 Q70.8 34.9 70.2 34.8 L70.1 35.05 70.35 35.05 M64.55 38.4 L64.5 38.25 64.4 38.4 Q64.25 38.5 64.4 38.5 L64.55 38.4"/><path fill="#ffffff" fill-opacity="0.8" d="M86.0 15.6 Q85.55 15.45 85.2 14.65 L85.7 15.05 86.0 15.6"/><path fill="#ffffff" fill-opacity="0.8" d="M64.5 17.0 L64.9 16.4 64.85 16.75 64.5 17.0"/><path fill="#ffffff" fill-opacity="0.8" d="M65.65 16.25 L65.25 17.0 64.75 17.65 Q64.65 17.45 64.95 17.1 L65.4 16.55 65.2 16.6 65.0 16.8 Q64.85 16.75 65.0 16.6 L65.15 16.3 65.4 16.35 65.65 16.25"/><path fill="#ffffff" fill-opacity="0.8" d="M63.65 20.3 L63.6 20.1 63.5 20.2 63.45 20.0 63.4 19.95 63.6 19.7 63.85 19.4 63.65 20.3"/><path fill="#ffffff" fill-opacity="0.8" d="M63.25 20.3 Q63.5 20.25 63.25 20.65 L62.85 21.2 Q62.75 21.05 63.05 20.75 L63.25 20.3"/><path fill="#ffffff" fill-opacity="0.8" d="M63.4 29.1 L64.0 30.2 64.05 30.3 63.9 30.25 63.4 29.1"/><path fill="#ffffff" fill-opacity="0.8" d="M69.85 35.05 L69.5 35.05 69.1 34.8 69.85 35.05"/><path fill="#ffffff" fill-opacity="0.8" d="M79.35 5.35 L79.2 7.25 79.0 9.0 78.85 9.0 79.0 9.5 79.0 9.95 79.2 10.0 79.35 10.2 79.15 10.05 79.1 10.3 78.1 10.15 77.2 10.05 77.45 9.75 77.45 9.4 77.7 9.25 77.65 9.0 77.85 8.55 77.75 8.75 77.85 7.75 78.1 7.35 78.2 6.35 78.5 5.0 78.25 4.2 78.0 3.45 Q78.4 2.75 79.15 2.7 79.95 2.65 80.3 3.35 L80.3 4.2 80.15 4.15 80.25 4.25 Q79.95 4.35 79.35 5.35"/><path fill="#ffffff" fill-opacity="0.8" d="M64.65 7.25 L65.3 7.35 65.9 7.5 65.9 7.55 Q66.2 7.95 66.3 9.25 L67.45 10.85 67.95 11.45 68.6 11.95 67.95 12.4 67.45 12.7 Q67.25 12.7 67.2 12.3 L66.55 11.55 66.55 11.45 66.4 11.05 65.65 9.9 65.6 9.75 65.05 9.7 65.15 9.55 64.8 9.65 Q63.9 9.5 64.15 7.8 L64.65 7.25"/><path fill="#ffffff" fill-opacity="0.8" d="M89.15 8.8 L89.55 8.5 90.8 8.8 91.55 9.8 91.05 10.35 Q90.8 10.65 90.55 10.55 L90.05 10.75 89.55 10.7 89.3 10.95 89.0 11.05 89.05 11.2 88.9 11.2 88.35 11.8 88.5 11.85 88.15 12.2 88.15 12.05 87.6 12.6 Q87.9 12.45 87.75 12.65 L87.4 12.75 Q87.5 13.2 86.85 13.6 L86.7 13.5 86.55 13.75 86.25 14.0 86.3 14.3 Q86.1 14.7 86.2 15.0 L86.0 14.85 86.1 14.9 85.95 14.65 85.95 14.85 85.5 14.3 84.85 13.6 84.85 13.4 84.8 13.2 84.45 13.1 Q84.35 12.95 84.2 12.95 L84.3 12.8 84.05 12.6 84.6 12.75 Q84.55 13.05 84.7 12.95 84.9 13.15 85.25 12.95 L84.95 12.85 85.45 12.35 Q85.7 12.05 85.6 11.55 L85.75 11.5 Q85.7 11.35 85.85 11.45 L85.8 11.3 85.85 11.1 Q86.05 11.2 85.85 11.2 L86.2 11.1 86.6 10.85 86.9 11.0 Q87.1 11.0 87.1 11.1 L87.6 11.1 88.4 10.6 88.9 9.8 88.95 9.1 89.25 8.55 89.25 8.65 89.15 8.8 M86.6 11.95 Q86.2 12.4 86.6 12.05 86.85 11.8 86.6 11.85 L86.6 11.95 M85.75 12.2 L85.5 12.4 85.35 12.6 85.6 12.6 85.7 12.6 85.65 12.4 85.75 12.2"/><path fill="#ffffff" fill-opacity="0.8" d="M59.5 10.35 L59.85 10.45 Q59.8 11.0 60.05 10.8 L60.2 11.3 Q60.5 11.95 61.7 12.75 L63.05 13.45 64.25 14.15 64.25 14.35 64.9 14.5 65.4 14.65 65.65 14.4 65.65 14.65 65.3 14.85 65.55 14.9 65.9 14.85 65.2 15.75 Q64.75 16.3 64.3 16.3 L64.4 16.75 64.3 16.65 64.15 16.5 64.0 16.9 Q63.8 16.75 63.85 16.25 L63.35 15.6 63.35 15.5 62.25 14.65 62.25 14.4 61.95 14.4 62.0 14.35 60.9 13.35 Q60.1 12.6 59.35 12.5 L58.8 12.6 Q57.7 12.55 57.7 11.05 L58.2 10.4 Q58.55 10.05 59.2 10.15 L59.05 10.2 59.5 10.35 M64.65 16.0 L64.45 16.05 64.5 16.25 64.65 16.0"/><path fill="#ffffff" fill-opacity="0.8" d="M66.05 14.85 L65.8 15.35 Q65.65 15.5 65.8 15.0 L66.05 14.85"/><path fill="#ffffff" fill-opacity="0.8" d="M75.6 11.1 L75.75 11.3 75.95 11.45 75.45 11.4 74.9 11.45 74.8 11.3 75.6 11.1"/><path fill="#ffffff" fill-opacity="0.8" d="M71.65 11.35 L71.65 11.3 Q72.05 11.15 71.7 11.4 71.25 11.7 71.65 11.35"/><path fill="#ffffff" fill-opacity="0.8" d="M78.0 11.45 L78.0 11.35 Q78.4 11.25 78.05 11.45 77.15 12.05 78.0 11.45"/><path fill="#ffffff" fill-opacity="0.8" d="M80.75 11.95 L80.65 11.8 Q80.8 11.5 81.4 11.95 82.05 12.45 81.4 12.35 L81.65 12.3 81.2 12.05 80.75 11.95"/><path fill="#ffffff" fill-opacity="0.8" d="M69.1 12.5 L69.2 12.5 69.0 12.75 Q68.9 12.75 69.1 12.5"/><path fill="#ffffff" fill-opacity="0.8" d="M70.1 12.85 L70.15 13.0 70.0 13.1 Q69.75 13.05 70.1 12.85"/><path fill="#ffffff" fill-opacity="0.8" d="M68.85 13.6 L68.85 13.8 68.55 13.95 68.7 13.75 68.85 13.6"/><path fill="#ffffff" fill-opacity="0.8" d="M65.8 15.6 L65.6 15.8 Q65.4 15.85 65.65 15.9 L65.25 16.15 65.45 15.8 Q65.55 15.55 65.8 15.6"/><path fill="#ffffff" fill-opacity="0.8" d="M64.0 17.05 L64.0 17.25 63.85 17.45 Q63.65 17.4 64.0 17.05"/><path fill="#ffffff" fill-opacity="0.8" d="M64.15 17.25 L64.25 17.4 Q64.2 17.65 64.15 17.4 L64.05 17.75 63.85 17.9 64.15 17.25"/><path fill="#ffffff" fill-opacity="0.8" d="M64.75 17.25 L64.5 17.65 Q64.35 17.5 64.25 17.8 64.15 17.65 64.35 17.45 L64.75 17.25"/><path fill="#ffffff" fill-opacity="0.8" d="M87.6 17.9 L87.6 18.55 87.5 18.45 87.4 18.3 Q87.35 17.8 87.6 17.9"/><path fill="#ffffff" fill-opacity="0.8" d="M63.0 18.7 L63.05 18.75 63.0 19.1 Q62.75 19.05 63.0 18.7"/><path fill="#ffffff" fill-opacity="0.8" d="M62.85 19.3 L62.9 19.35 62.85 19.7 Q62.6 19.65 62.85 19.3"/><path fill="#ffffff" fill-opacity="0.8" d="M87.6 19.7 L87.75 19.9 88.0 19.95 87.85 20.3 87.6 19.7"/><path fill="#ffffff" fill-opacity="0.8" d="M62.5 20.35 Q62.6 20.25 62.6 20.4 L62.5 20.75 Q62.25 20.7 62.5 20.35"/><path fill="#ffffff" fill-opacity="0.8" d="M62.35 20.95 L62.4 21.0 62.35 21.35 Q62.1 21.3 62.35 20.95"/><path fill="#ffffff" fill-opacity="0.8" d="M62.65 21.45 L62.65 22.1 62.25 22.6 62.55 22.1 62.65 21.45"/><path fill="#ffffff" fill-opacity="0.8" d="M88.55 32.9 L89.25 33.25 89.3 34.4 87.85 35.15 87.7 34.95 Q87.65 34.8 87.6 34.95 L87.15 34.45 Q87.35 33.65 86.75 33.25 L85.5 32.75 85.9 32.15 86.45 31.65 87.4 32.75 88.65 32.8 Q88.95 32.9 88.55 32.9"/><path fill="#ffffff" fill-opacity="0.8" d="M82.3 34.45 Q81.75 35.15 80.8 35.3 L81.75 34.9 Q81.65 34.8 81.85 34.7 L82.3 34.45"/><path fill="#ffffff" fill-opacity="0.8" d="M82.3 34.95 L81.75 35.15 82.65 34.65 82.8 34.8 82.3 34.95"/><path fill="#ffffff" fill-opacity="0.8" d="M79.1 36.35 L79.35 36.2 79.15 36.1 Q79.15 35.9 79.65 35.95 L80.05 36.0 Q80.7 35.55 81.3 35.45 L80.9 35.8 Q80.9 36.0 81.05 36.05 80.7 36.35 80.95 37.2 L81.5 38.85 81.5 39.25 82.2 41.4 82.65 41.4 Q82.55 41.55 82.8 41.75 L83.15 42.05 82.8 43.4 82.4 43.55 81.8 43.55 Q82.0 43.75 81.8 43.65 L81.3 43.45 81.3 43.1 81.3 42.55 81.15 42.75 81.25 43.05 Q80.95 42.9 81.3 41.15 L81.05 40.8 79.85 38.25 79.7 37.95 79.8 37.75 79.65 37.65 79.4 37.5 79.3 36.95 Q79.05 36.6 78.65 36.55 L79.1 36.25 79.1 36.35 M81.3 41.75 L81.3 42.0 81.65 41.9 81.4 41.8 Q81.4 41.7 81.3 41.75"/><path fill="#ffffff" fill-opacity="0.8" d="M71.4 36.55 L71.25 36.3 Q72.5 36.5 72.75 36.85 L72.5 37.45 72.2 38.1 72.15 39.0 72.0 39.0 72.05 39.25 71.9 39.4 Q71.6 41.35 72.0 42.65 L71.6 42.95 71.0 43.2 70.0 42.95 69.95 42.65 Q69.6 42.85 69.45 42.25 69.35 41.7 69.7 41.55 L69.75 41.9 69.85 41.7 69.85 41.4 70.65 40.9 70.9 39.5 71.0 38.0 71.25 36.8 71.4 36.85 71.5 36.7 71.4 36.55"/></g></defs><g><g><use transform="matrix(1.0,0.0,0.0,1.0,0.0,0.0)" xlink:href="#c1"/></g></g></svg>