<?xml version='1.0' encoding='UTF-8'?>
<svg xmlns="http://www.w3.org/2000/svg" xmlns:xlink="http://www.w3.org/1999/xlink" version="1.1" width="100px" height="93px" viewBox="-0.050000000000000044 0.0 99.55 93.4"><defs><g id="c1"><path fill="#ffffff" stroke="none" d="M71.05 62.75 L70.05 65.0 Q69.9 65.65 70.3 66.75 71.2 68.95 72.6 67.75 73.6 66.9 71.95 59.15 L71.75 61.35 71.05 62.75 M0.0 33.35 Q5.6 35.35 6.8 36.9 25.35 61.9 32.6 65.75 37.15 68.2 37.5 68.0 L36.95 67.3 39.05 53.55 42.75 51.05 Q43.05 47.85 44.5 44.6 47.45 38.1 53.4 37.8 53.3 38.45 52.4 39.3 L50.55 41.15 Q48.0 44.1 48.2 48.75 48.55 56.55 48.4 59.35 47.85 59.3 47.4 59.75 46.5 60.7 46.95 63.35 47.4 66.0 48.85 67.1 49.6 67.65 50.2 67.65 L58.4 65.5 59.65 61.95 67.3 56.15 65.0 49.5 Q64.25 48.85 63.3 48.65 61.35 48.25 60.35 50.55 60.85 46.95 64.6 45.55 68.15 44.15 69.65 45.9 70.8 47.2 71.65 51.4 L72.25 55.35 74.95 55.75 77.45 65.45 Q80.1 58.75 80.4 57.15 80.6 56.15 80.25 55.4 L79.85 54.8 76.8 53.75 76.05 51.9 79.25 50.75 78.25 45.0 78.95 43.0 Q78.7 42.35 77.95 42.05 76.4 41.4 73.8 43.15 71.45 42.3 71.8 41.7 L77.05 38.7 Q81.7 36.9 82.85 40.7 84.75 46.75 85.25 50.9 L87.05 59.25 86.35 61.25 86.65 67.6 84.65 71.0 Q82.4 74.8 81.25 77.05 80.1 79.3 78.85 80.5 L77.8 81.25 Q74.05 81.65 69.15 83.2 59.4 86.3 53.9 92.0 50.85 93.4 46.65 92.85 L43.05 92.0 Q14.35 80.2 0.0 74.55 L0.0 33.35"/><path fill="#ffffff" stroke="none" d="M65.35 11.5 Q67.55 16.75 68.65 21.1 72.15 35.1 62.85 35.1 53.55 35.1 57.5 21.1 58.7 16.75 61.15 11.5 L63.3 7.1 65.35 11.5 M66.35 31.15 L66.3 31.25 66.8 30.55 67.0 29.7 Q66.4 29.75 65.9 29.35 L65.0 28.7 Q64.2 28.25 62.85 28.0 L60.6 27.4 Q59.5 26.85 59.35 25.55 58.25 25.4 58.4 28.4 L58.6 30.05 58.85 30.7 59.0 31.3 Q59.95 32.25 60.55 32.55 L62.55 32.9 Q64.95 32.8 66.35 31.15"/></g><g id="c2"><path fill="#ffffff" stroke="none" d="M87.25 0.35 Q87.95 5.6 88.25 12.65 88.7 21.75 86.3 25.75 L84.15 29.1 Q82.95 31.35 82.35 34.6 81.3 40.35 84.15 47.4 87.25 55.15 87.15 57.65 87.05 61.25 85.25 65.9 83.15 71.4 82.6 75.05 81.8 80.0 83.85 86.55 84.85 89.8 86.05 92.05 85.0 90.35 83.8 87.65 81.35 82.25 80.55 77.3 79.75 72.3 80.55 67.7 L82.15 60.7 Q82.65 58.15 80.8 53.85 77.85 47.0 76.9 43.5 75.2 37.35 76.55 28.55 77.5 22.2 79.45 16.85 80.1 15.05 79.4 7.35 L78.55 0.0 82.0 0.0 87.25 0.35"/><path fill="#ffffff" stroke="none" d="M61.35 24.25 L59.25 27.6 Q58.05 29.85 57.45 33.1 56.4 38.85 59.25 45.9 62.35 53.65 62.25 56.15 62.15 59.8 60.35 64.4 58.25 69.95 57.65 73.55 56.85 78.5 58.95 85.0 59.95 88.3 61.15 90.55 60.1 88.85 58.9 86.15 56.45 80.75 55.65 75.8 54.85 70.8 55.65 66.2 L57.25 59.15 Q57.75 56.65 55.9 52.35 52.95 45.5 52.0 41.95 50.3 35.85 51.65 27.0 52.6 20.7 54.55 15.3 55.55 12.7 53.85 0.0 L62.5 0.0 63.35 11.15 Q63.75 20.25 61.35 24.25"/><path fill="#ffffff" stroke="none" d="M74.5 0.0 L75.1 9.7 Q75.4 17.25 73.75 20.6 71.4 25.2 71.0 27.95 70.25 32.75 72.25 38.6 74.4 45.1 74.35 47.15 74.25 50.15 73.05 54.05 71.55 58.65 71.15 61.65 70.6 65.8 72.05 71.2 72.8 73.9 73.6 75.8 L72.0 72.15 Q70.3 67.65 69.75 63.5 69.2 59.4 69.8 55.55 L70.85 49.65 Q71.2 47.55 69.95 44.0 67.9 38.25 67.25 35.35 66.05 30.3 67.0 22.9 67.65 17.6 69.0 13.15 69.7 10.95 68.45 0.0 L74.5 0.0"/><path fill="#ffffff" stroke="none" d="M98.5 11.35 Q98.8 20.5 97.2 24.55 95.0 30.15 94.6 33.5 93.9 39.3 95.75 46.4 97.85 54.25 97.8 56.75 97.7 60.4 96.55 65.1 95.15 70.7 94.75 74.35 94.2 79.35 95.6 85.95 96.25 89.2 97.05 91.5 96.35 89.8 95.55 87.1 93.95 81.65 93.4 76.65 92.85 71.6 93.4 66.95 L94.45 59.8 Q94.75 57.25 93.55 52.95 91.65 45.9 91.0 42.45 89.9 36.25 90.75 27.35 91.4 20.75 92.7 15.55 93.3 12.9 92.5 2.8 94.8 4.2 96.2 6.25 97.6 8.2 98.5 11.35"/><path fill="#ffffff" stroke="none" d="M36.05 0.0 Q36.9 6.85 37.2 13.4 37.65 22.55 35.25 26.5 L33.15 29.85 Q31.9 32.1 31.3 35.35 30.25 41.1 33.1 48.15 36.2 55.9 36.1 58.4 36.0 62.0 34.2 66.65 32.1 72.15 31.55 75.8 30.75 80.75 32.8 87.3 33.8 90.55 35.0 92.8 33.95 91.1 32.75 88.4 30.3 83.0 29.5 78.05 28.7 73.1 29.5 68.5 L31.1 61.45 Q31.6 58.9 29.75 54.6 26.8 47.75 25.85 44.25 24.15 38.1 25.5 29.3 26.45 22.95 28.4 17.6 29.1 15.75 28.3 7.7 L27.35 0.0 36.05 0.0"/><path fill="#ffffff" stroke="none" d="M3.35 4.45 Q4.75 2.8 7.0 1.8 8.4 1.2 11.4 0.35 11.95 4.35 12.3 11.9 12.75 21.0 10.35 25.0 L8.2 28.35 Q7.0 30.6 6.4 33.85 5.35 39.6 8.2 46.65 11.3 54.4 11.2 56.9 11.1 60.5 9.3 65.15 7.2 70.65 6.65 74.3 5.85 79.25 7.9 85.8 8.9 89.05 10.1 91.3 9.05 89.6 7.85 86.9 5.4 81.5 4.6 76.55 3.8 71.55 4.6 66.95 L6.2 59.9 Q6.7 57.4 4.85 53.1 1.9 46.25 0.95 42.7 -0.75 36.6 0.6 27.75 1.55 21.45 3.5 16.05 4.5 13.5 3.35 4.45"/><path fill="#ffffff" stroke="none" d="M24.05 10.45 Q24.35 18.0 22.7 21.35 20.35 25.95 19.95 28.7 19.2 33.5 21.2 39.35 23.35 45.85 23.3 47.9 23.2 50.95 22.0 54.8 20.5 59.4 20.1 62.4 19.55 66.55 21.0 71.95 21.75 74.65 22.55 76.55 L20.95 72.9 Q19.25 68.45 18.7 64.3 18.15 60.15 18.75 56.3 L19.8 50.45 Q20.15 48.3 18.9 44.75 16.85 38.95 16.2 36.1 15.0 31.05 15.95 23.65 16.6 18.35 17.95 13.9 18.7 11.55 17.35 0.0 L23.35 0.0 24.05 10.45"/><path fill="#ffffff" stroke="none" d="M46.85 0.0 L47.45 12.1 Q47.75 21.3 46.15 25.35 43.95 30.95 43.55 34.25 42.85 40.05 44.7 47.15 46.8 55.0 46.75 57.5 46.65 61.15 45.5 65.85 44.1 71.45 43.7 75.1 43.15 80.1 44.55 86.7 45.2 89.95 46.0 92.25 45.3 90.55 44.5 87.85 42.9 82.4 42.35 77.4 41.8 72.35 42.35 67.7 L43.4 60.6 Q43.75 58.0 42.55 53.7 40.55 46.6 39.95 43.2 38.85 37.0 39.7 28.1 40.35 21.5 41.65 16.3 42.3 13.55 41.1 0.0 L46.85 0.0"/></g><g id="c3"><g><use transform="matrix(1.0,0.0,0.0,1.0,0.0,0.0)" xlink:href="#c2"/></g></g><filter id="filter3"><feColorMatrix in="SourceGraphic" type="matrix" values="1.0 0.0 0.0 0.0 0.0 0.0 1.0 0.0 0.0 0.0 0.0 0.0 1.0 0.0 0.0 0.0 0.0 0.0 0.19921875 0.0" result="cxform"/><feComposite operator="in" in2="SourceGraphic" result="color-xform"/></filter></defs><g><g><use transform="matrix(1.0,0.0,0.0,1.0,0.0,0.0)" xlink:href="#c1"/></g><g style="mix-blend-mode: normal"><use transform="matrix(1.0,0.0,0.0,1.0,0.7,0.0)" filter="url(#filter3)" xlink:href="#c3"/></g></g></svg>