<?xml version='1.0' encoding='UTF-8'?>
<svg xmlns="http://www.w3.org/2000/svg" xmlns:xlink="http://www.w3.org/1999/xlink" version="1.1" width="101px" height="100px" viewBox="-0.5 0.0 100.85 100.0"><defs><g id="c1"><path fill="#ffffff" stroke="none" d="M63.05 70.4 L62.75 71.1 62.95 71.95 62.6 75.4 62.45 77.1 64.8 75.95 63.9 73.25 Q63.3 71.55 63.15 70.45 L63.05 70.4 M38.25 77.4 L37.65 74.05 36.15 76.55 38.25 77.4 M62.25 24.15 L59.4 22.7 54.75 28.65 Q55.35 23.0 55.15 21.55 L49.2 20.9 Q44.5 20.6 38.55 23.05 38.0 23.25 39.9 27.6 L41.85 31.85 Q39.85 30.2 37.7 28.75 33.4 25.75 32.75 26.25 28.4 29.65 25.2 35.1 23.6 37.8 22.65 40.55 22.4 41.25 27.6 43.9 L32.8 46.3 27.1 46.1 21.3 46.55 21.05 50.1 Q21.05 53.8 22.3 57.9 22.85 62.8 25.35 66.8 27.05 69.55 29.2 71.8 L31.0 73.45 Q30.3 69.55 30.3 67.35 30.3 63.75 31.7 61.55 33.7 58.5 36.75 57.2 L41.05 55.6 Q44.1 54.3 44.3 53.0 44.55 51.45 44.45 49.55 L44.3 45.75 Q44.3 45.6 43.7 45.35 43.05 45.05 42.75 43.15 L42.75 41.95 42.85 41.3 43.5 41.0 43.55 38.7 Q43.75 36.1 44.6 34.7 45.5 33.3 47.5 32.7 L50.3 32.35 Q52.6 32.45 53.95 33.7 55.75 35.4 56.25 39.7 L56.2 41.3 56.6 41.25 Q57.0 41.4 56.95 42.5 56.95 43.45 56.4 44.6 55.85 45.7 55.8 45.3 L55.65 45.75 Q55.35 47.1 55.3 49.2 55.2 51.8 55.75 52.55 57.5 54.9 61.4 55.8 64.05 56.4 65.6 57.2 68.3 58.6 68.95 61.05 69.6 63.4 69.5 66.55 69.4 69.85 69.85 71.85 L70.0 71.65 Q73.5 68.35 75.3 64.0 77.65 59.4 77.7 54.25 78.45 50.75 78.4 47.35 L70.4 50.1 65.1 51.65 78.25 45.2 Q77.6 39.65 74.7 35.15 73.0 32.5 70.85 30.35 70.5 29.95 64.5 33.95 61.55 35.9 58.6 38.0 67.45 27.35 66.7 26.8 65.35 25.85 62.25 24.15 M-0.5 40.35 L-0.5 34.25 Q15.2 39.6 15.35 38.9 18.35 27.5 27.65 20.1 L8.4 1.55 Q11.9 0.0 16.3 0.0 L25.0 0.0 Q33.4 13.85 34.85 15.65 41.85 12.35 49.85 12.35 L56.9 13.05 Q60.0 3.5 61.8 0.0 L69.15 0.0 Q66.7 5.85 62.25 14.6 67.45 16.45 71.9 20.0 80.95 9.5 89.6 0.6 93.75 1.65 96.45 4.65 97.8 6.25 98.7 8.3 89.8 16.3 77.55 25.55 83.35 32.75 84.95 41.65 L100.35 32.6 100.35 40.7 Q90.6 43.25 85.45 45.2 L85.5 48.0 Q85.5 56.65 81.6 64.25 77.9 71.55 71.25 76.55 72.35 79.35 72.5 81.1 L75.75 82.45 Q79.9 84.2 83.4 86.05 85.3 84.8 87.0 85.2 L90.3 86.0 Q91.6 86.05 92.95 87.15 L90.5 87.0 Q89.25 87.05 92.7 87.85 96.1 88.7 95.85 89.1 L94.9 89.35 90.2 89.45 80.3 88.5 Q75.8 87.8 72.15 86.6 68.7 85.55 68.4 84.85 L67.7 83.1 66.6 80.95 66.45 80.85 65.9 79.9 62.15 81.5 61.85 89.75 Q63.25 91.9 63.6 95.2 64.15 97.05 64.4 100.0 L37.1 100.0 Q36.6 98.15 37.3 96.0 37.7 94.65 39.05 92.15 39.2 89.5 39.65 87.05 L39.85 86.7 Q39.6 84.7 39.5 82.15 37.25 81.5 35.35 80.65 34.6 82.75 33.45 84.05 L32.55 85.5 Q31.8 86.6 30.4 86.35 28.25 87.45 24.8 88.05 L18.75 88.9 13.5 90.1 Q9.75 90.5 5.65 90.05 4.35 89.8 5.8 88.85 7.35 87.9 10.35 87.85 L8.0 87.6 Q7.05 87.15 9.65 86.65 L13.4 86.1 15.3 86.2 17.65 86.1 Q19.9 85.55 23.3 83.7 27.65 81.45 28.8 80.95 L28.85 80.65 Q29.4 78.7 29.9 77.6 L29.15 77.1 Q22.2 72.1 18.3 64.6 14.15 56.85 14.15 48.0 L14.35 44.45 Q14.35 44.15 -0.5 40.35"/></g></defs><g><g><use transform="matrix(1.0,0.0,0.0,1.0,0.0,0.0)" xlink:href="#c1"/></g></g></svg>