<?xml version='1.0' encoding='UTF-8'?>
<svg xmlns="http://www.w3.org/2000/svg" xmlns:xlink="http://www.w3.org/1999/xlink" version="1.1" width="100px" height="94px" viewBox="-0.15 3.8 100.0 93.85000000000001"><defs><g id="c1"><path fill="#ffffff" stroke="none" d="M51.0 20.55 L60.55 48.2 51.7 60.9 43.05 48.0 51.0 20.55"/><path fill="#ffffff" fill-opacity="0.6" d="M42.4 21.35 Q49.05 23.95 46.05 23.95 40.6 23.95 39.6 24.1 37.0 24.5 38.7 26.2 L45.15 31.1 Q48.95 34.0 46.05 34.0 42.05 34.0 37.75 36.3 33.15 38.7 35.15 40.7 L40.95 44.65 Q44.25 46.8 43.05 48.0 42.05 49.05 36.5 53.1 32.1 56.65 34.6 56.65 L44.6 55.3 Q51.05 54.5 48.85 56.65 45.25 60.25 35.15 68.15 L23.45 70.0 30.5 29.55 35.15 18.75 42.4 21.35"/><path fill="#ffffff" fill-opacity="0.6" d="M60.4 48.0 Q59.2 46.8 62.5 44.65 67.65 41.35 68.3 40.7 70.3 38.7 65.75 36.3 61.45 34.0 57.4 34.0 54.5 34.0 58.35 31.1 L64.8 26.2 Q66.5 24.5 63.9 24.1 62.9 23.95 57.4 23.95 54.4 23.95 61.05 21.35 L68.3 18.75 72.95 29.55 80.0 70.0 68.3 68.15 62.8 63.75 Q56.85 58.9 54.6 56.65 52.45 54.5 58.85 55.3 L68.85 56.65 Q71.35 56.65 66.95 53.1 L60.4 48.0"/><path fill="#ffffff" stroke="none" d="M21.55 53.0 Q22.0 46.55 22.3 44.65 22.6 42.8 23.5 40.65 24.45 38.45 25.8 33.4 27.25 28.2 27.8 24.85 29.35 15.3 29.9 7.85 30.1 5.15 31.15 4.35 31.85 3.8 33.2 4.1 34.05 4.3 34.7 6.7 L35.15 9.05 34.75 29.35 33.8 38.95 Q33.05 46.15 33.2 48.4 L33.3 59.45 Q33.2 68.45 33.35 70.15 33.95 76.9 31.4 80.0 29.45 82.4 8.65 97.15 L7.8 97.65 Q5.9 96.55 4.45 95.1 -0.15 90.5 -0.15 82.6 L-0.15 77.75 7.1 74.35 12.75 72.25 Q15.8 71.15 16.5 69.7 18.45 65.9 19.25 63.7 21.15 58.55 21.55 53.0"/><path fill="#ffffff" stroke="none" d="M73.8 7.85 Q74.35 15.3 75.9 24.85 76.45 28.2 77.9 33.4 79.25 38.45 80.2 40.65 81.1 42.8 81.4 44.65 L82.15 53.0 Q82.55 58.55 84.45 63.7 85.25 65.9 87.2 69.7 87.9 71.15 90.95 72.25 L96.6 74.35 99.85 75.8 99.85 82.6 Q99.85 90.45 95.05 95.1 L93.8 96.25 Q74.0 82.1 72.3 80.0 69.75 76.9 70.35 70.15 L70.45 59.45 Q70.35 50.35 70.5 48.4 70.65 46.15 69.9 38.95 L68.95 29.35 68.55 9.05 Q68.7 7.9 69.0 6.7 69.65 4.3 70.5 4.1 71.85 3.8 72.55 4.35 73.6 5.15 73.8 7.85"/></g></defs><g><g><use transform="matrix(1.0,0.0,0.0,1.0,0.0,0.0)" xlink:href="#c1"/></g></g></svg>