<?xml version='1.0' encoding='UTF-8'?>
<svg xmlns="http://www.w3.org/2000/svg" xmlns:xlink="http://www.w3.org/1999/xlink" version="1.1" width="94px" height="92px" viewBox="3.25 7.7 94.5 92.5"><defs><g id="c1"><path fill="#ffffff" stroke="none" d="M85.6 73.55 L80.1 71.4 72.6 70.75 69.65 69.7 Q66.5 68.3 65.5 66.5 L65.1 62.3 60.85 50.2 58.85 66.25 61.4 73.55 65.9 92.5 27.9 92.5 31.1 75.15 34.35 67.15 34.1 62.4 31.4 50.2 29.25 63.55 29.25 66.5 28.1 68.5 Q26.5 70.7 24.35 71.65 22.35 72.5 14.9 74.05 L7.25 76.0 3.75 76.0 0.0 71.25 1.75 66.0 3.1 65.15 4.25 65.75 4.5 66.9 9.25 68.3 11.25 69.75 16.75 66.75 18.25 65.05 Q19.9 63.25 20.75 62.8 L22.15 62.05 24.25 48.3 Q23.95 45.35 24.0 42.15 24.05 35.75 25.6 34.4 L28.2 32.0 Q29.45 31.05 32.9 30.25 39.45 28.7 41.05 24.9 41.9 22.95 41.4 21.35 L40.4 19.35 40.4 16.85 39.4 16.25 Q38.35 14.45 38.35 12.85 L38.55 11.6 39.95 11.6 39.6 6.75 40.4 3.4 Q42.2 0.0 47.45 0.0 52.7 0.0 54.45 2.9 55.35 4.35 55.15 5.8 L55.15 11.5 56.1 11.55 Q56.4 14.0 55.5 15.75 54.95 16.85 54.2 16.95 L53.6 16.85 53.35 19.55 51.85 22.15 51.85 25.65 54.25 28.0 Q57.55 30.4 61.9 30.75 64.3 30.95 66.25 32.65 L67.75 34.3 68.75 36.55 Q69.6 40.2 69.1 47.4 L72.15 60.65 77.85 65.3 82.9 66.9 85.65 65.4 88.2 65.15 90.9 63.3 92.6 64.0 93.0 65.4 94.5 67.4 94.5 69.8 90.25 73.55 85.6 73.55"/></g><g id="c2"><g><use transform="matrix(1.0,0.0,0.0,1.0,0.0,0.0)" xlink:href="#c1"/></g></g><g id="c3"><path fill="#ffffff" stroke="none" d="M51.2 50.05 Q52.2 55.2 55.4 57.95 61.2 62.9 82.0 63.3 L65.9 64.1 Q58.65 65.1 55.45 68.25 52.3 71.45 51.3 78.7 50.6 83.55 50.5 94.8 50.4 83.55 49.7 78.7 48.7 71.45 45.55 68.25 42.35 65.1 35.1 64.1 L19.0 63.3 Q39.45 62.85 45.6 57.35 48.75 54.55 49.8 49.45 50.4 46.35 50.5 40.5 50.55 46.85 51.2 50.05"/></g><filter id="filter2"><feColorMatrix in="SourceGraphic" type="matrix" values="1.0 0.0 0.0 0.0 0.0 0.0 1.0 0.0 0.0 0.0 0.0 0.0 1.0 0.0 0.0 0.0 0.0 0.0 0.5 0.0" result="cxform"/><feComposite operator="in" in2="SourceGraphic" result="color-xform"/></filter></defs><g><g style="mix-blend-mode: normal"><use transform="matrix(1.0,0.0,0.0,1.0,3.25,7.7)" filter="url(#filter2)" xlink:href="#c2"/></g><g><use transform="matrix(1.0,0.0,0.0,1.0,0.0,0.0)" xlink:href="#c3"/></g></g></svg>