<?xml version='1.0' encoding='UTF-8'?>
<svg xmlns="http://www.w3.org/2000/svg" xmlns:xlink="http://www.w3.org/1999/xlink" version="1.1" width="89px" height="99px" viewBox="5.9 -4.4 88.8 99.4"><defs><g id="c1"><path fill="#ffffff" stroke="none" d="M50.75 38.8 L51.95 38.7 50.75 37.8 50.75 38.8 M47.4 13.2 Q47.75 14.45 47.75 16.1 L49.9 17.8 50.3 18.3 Q51.9 17.75 54.55 18.35 L54.8 18.45 54.95 18.45 55.3 18.55 56.8 19.05 58.05 19.45 Q60.25 20.9 61.9 23.2 L62.9 24.25 Q64.95 28.55 68.5 32.6 L71.55 36.65 Q74.35 40.5 74.5 41.1 L75.05 44.5 75.3 47.2 Q75.75 52.15 73.4 53.9 71.75 58.9 69.55 62.55 L68.45 66.45 68.35 66.85 Q69.9 67.85 71.9 70.65 L74.5 74.65 77.4 79.4 78.7 81.25 78.85 81.5 80.65 83.35 Q81.5 84.7 80.25 86.35 L79.9 87.15 79.5 88.15 77.9 91.55 Q76.15 94.6 73.6 94.85 L72.75 95.0 Q71.55 95.0 70.75 94.0 69.9 93.0 70.3 91.85 L70.8 90.75 71.25 90.2 71.65 89.4 71.9 88.25 Q72.25 87.45 72.8 87.0 L72.8 86.95 73.3 83.2 73.45 82.7 72.85 81.6 72.4 81.0 72.3 80.9 Q70.6 78.55 68.15 76.05 L64.45 73.1 63.3 72.75 63.15 72.65 Q62.4 72.2 62.05 71.25 60.7 68.7 60.6 64.4 59.95 63.9 59.8 63.0 L59.75 62.35 59.75 62.1 58.8 64.6 58.7 64.8 58.75 64.95 59.35 68.8 59.95 69.55 Q62.6 73.55 62.65 77.0 63.2 78.5 63.55 82.8 63.9 86.5 65.0 88.4 L65.65 89.35 65.75 90.65 Q66.15 91.65 65.8 92.55 65.35 93.55 64.15 93.85 L57.9 94.75 54.95 94.8 51.95 94.65 Q49.5 94.75 49.2 93.35 48.95 91.9 51.5 91.4 L54.4 90.75 Q55.8 90.0 57.7 88.65 L56.3 82.65 54.6 77.35 Q53.1 74.55 53.05 72.9 L51.95 70.4 Q51.55 69.6 51.7 68.75 51.1 67.75 51.25 66.75 L51.65 59.6 Q51.8 55.2 52.75 52.6 L54.3 48.55 55.5 44.45 55.6 44.05 54.9 42.6 50.85 42.75 50.9 42.95 50.85 43.6 51.05 47.0 50.95 47.45 50.75 47.95 Q49.25 49.9 46.15 52.65 43.7 55.55 42.0 56.75 L42.0 57.2 41.9 57.3 41.2 58.1 Q40.9 58.75 39.8 59.65 L39.7 59.7 39.65 61.05 Q39.7 61.75 40.05 62.25 40.35 62.65 39.95 62.9 39.5 63.15 39.2 62.75 L39.1 62.6 39.2 62.8 Q39.35 63.2 38.85 63.4 L38.45 63.55 Q38.2 63.55 38.05 63.35 37.5 62.6 37.35 61.3 37.3 61.15 37.4 60.95 L37.65 59.9 37.2 60.55 37.1 61.3 Q37.2 61.85 37.65 62.65 37.85 63.0 37.55 63.3 L36.95 63.35 Q35.6 62.5 36.05 60.85 L36.2 60.55 36.35 59.9 35.85 60.5 35.9 60.75 Q36.0 61.75 35.0 61.75 34.0 61.75 33.9 60.75 33.85 60.05 34.15 59.55 L34.9 58.55 36.15 56.7 Q37.6 54.65 39.8 54.6 L39.85 54.6 42.55 51.35 Q43.35 47.15 45.9 43.9 L45.95 42.55 44.85 42.7 42.65 43.65 Q41.95 43.95 41.2 44.55 L40.0 45.95 39.75 46.1 39.15 46.0 Q38.85 45.75 39.05 45.4 L39.3 45.05 40.05 44.2 40.1 44.15 40.2 43.8 41.05 42.9 40.2 43.0 37.65 45.1 37.15 45.75 Q36.9 46.15 36.45 45.9 36.0 45.65 36.3 45.25 L36.4 45.0 36.9 44.25 37.25 44.0 Q38.55 42.6 39.65 42.2 L39.85 42.05 39.65 42.0 Q39.15 42.0 39.15 41.5 38.35 41.7 37.1 42.45 L35.0 43.5 Q34.55 43.65 34.45 43.2 34.3 42.7 34.75 42.55 L35.85 42.0 36.05 41.65 37.85 40.7 39.9 40.15 Q37.9 39.45 34.95 40.55 34.5 40.75 34.35 40.3 34.2 39.9 34.55 39.65 36.95 37.9 38.35 38.25 L40.85 39.0 40.95 38.95 Q42.4 38.7 45.8 38.9 L45.2 36.35 43.75 33.0 Q43.15 31.55 43.2 30.2 43.1 29.25 43.4 28.45 43.4 27.65 43.55 27.05 L43.7 25.5 Q42.05 26.05 39.95 25.5 37.9 24.9 36.45 23.55 35.5 22.6 34.65 20.95 33.7 19.15 33.45 17.5 33.1 16.4 33.1 15.0 32.25 12.6 34.95 9.7 36.55 7.9 39.4 7.55 40.05 7.05 40.75 7.0 L42.75 7.15 43.2 7.25 Q47.2 8.2 47.4 13.2"/></g><g id="c2"><path fill="#ffffff" stroke="none" d="M3.9 0.6 Q4.6 1.3 4.45 2.35 4.65 3.85 3.5 4.4 L1.55 4.75 Q0.7 4.6 0.25 3.75 -0.5 2.2 1.1 0.6 1.65 0.0 2.5 0.0 3.35 0.05 3.9 0.6"/><path fill="#ffffff" stroke="none" d="M14.1 17.8 L14.3 17.75 15.8 17.95 Q16.55 18.35 16.75 19.15 17.0 20.2 16.4 20.95 L15.9 21.75 Q14.85 22.8 13.6 22.1 12.6 22.2 12.0 21.45 10.85 20.15 11.75 18.65 12.15 18.1 12.8 17.85 L14.1 17.8"/><path fill="#ffffff" stroke="none" d="M13.35 26.05 Q14.25 25.95 14.9 26.6 15.5 27.2 15.5 28.05 15.5 28.9 14.9 29.45 L13.6 30.2 13.3 30.3 Q11.85 31.2 10.75 30.1 10.2 29.55 10.15 28.7 10.15 27.8 10.75 27.25 L12.15 26.3 Q12.8 26.0 13.35 26.05"/></g><g id="c3"><g><use transform="matrix(1.0,0.0,0.0,1.0,0.0,0.0)" xlink:href="#c2"/></g></g><g id="c4"><path fill="#ffffff" stroke="none" d="M45.9 51.35 Q46.95 50.75 46.6 49.6 46.3 48.45 45.9 51.3 L45.9 51.35 M82.05 93.85 Q85.9 96.15 85.2 97.0 L46.25 98.3 Q8.1 98.8 8.05 98.25 L23.25 96.7 39.4 95.45 Q43.4 94.65 44.95 93.9 44.3 92.95 44.85 91.8 45.4 90.55 46.6 90.75 L48.05 90.95 Q49.2 90.65 46.6 89.4 44.95 89.25 44.65 87.5 44.35 85.8 46.1 85.45 L45.95 83.4 Q44.2 83.45 44.0 81.7 43.8 80.0 45.4 79.45 L45.95 79.55 45.95 79.4 46.9 79.45 45.6 78.95 42.95 78.4 Q41.6 78.25 41.1 77.0 40.6 75.75 41.65 74.85 41.05 74.3 41.0 73.5 40.95 72.7 41.55 72.0 L41.8 71.65 Q40.3 72.05 39.6 70.7 38.9 69.35 39.85 68.35 39.35 67.3 40.05 66.25 40.8 65.15 42.15 65.45 43.4 64.5 42.65 64.35 L42.3 64.4 42.3 64.3 41.75 64.35 Q40.0 64.05 40.35 62.3 40.7 60.6 42.3 60.4 43.2 60.25 45.15 58.2 47.25 55.95 45.75 55.35 L44.7 54.5 41.95 56.85 Q42.05 57.6 41.65 58.05 L39.35 61.4 Q38.6 62.45 37.3 62.3 34.6 65.85 34.3 69.4 34.15 70.8 32.7 71.3 31.25 71.85 30.55 70.4 30.35 68.75 28.6 68.75 27.4 68.85 26.85 67.6 25.6 67.45 25.05 66.35 24.45 65.2 25.55 64.3 L26.0 63.95 26.35 63.6 Q25.8 62.75 26.05 61.8 26.35 60.75 27.4 60.45 L28.7 59.05 Q28.85 57.9 29.55 56.7 30.2 55.7 31.5 55.8 32.9 55.85 33.15 57.1 L33.7 56.65 34.25 56.8 Q33.3 56.3 33.3 55.05 33.3 53.85 34.25 53.35 35.85 52.7 36.9 51.35 36.6 51.0 36.6 50.4 L33.15 51.0 21.8 52.45 10.55 53.65 20.5 52.0 30.5 50.15 28.95 50.4 Q28.15 50.45 27.45 49.75 L27.3 49.75 Q26.6 49.7 26.1 48.15 25.65 46.75 25.8 45.75 25.85 45.15 12.75 46.0 L0.05 46.4 Q-0.05 45.8 13.4 43.9 L27.8 41.55 Q28.7 40.85 29.65 41.2 30.5 41.5 31.15 42.45 32.4 41.45 33.4 41.15 34.2 40.85 34.95 41.35 L35.0 40.85 35.25 40.1 35.2 39.4 Q34.9 38.7 35.05 37.9 34.6 37.3 34.7 36.45 L32.65 36.5 30.6 36.4 30.15 36.3 30.15 36.35 Q28.4 36.75 26.95 37.45 L25.45 37.65 Q24.65 37.5 24.2 36.75 23.8 36.05 24.0 35.25 24.2 34.35 24.95 34.0 L25.8 33.5 26.55 32.7 Q27.15 32.4 27.85 32.4 L28.35 32.15 28.35 31.45 16.0 31.45 3.8 31.1 13.15 30.0 Q23.75 29.1 23.7 28.35 23.05 28.3 22.55 27.85 22.05 27.4 21.95 26.8 L21.15 27.0 21.0 27.0 20.85 27.05 20.7 27.05 19.8 26.85 Q18.4 27.35 17.55 26.5 16.65 25.6 17.0 24.55 17.65 22.9 18.8 22.55 L19.65 22.5 19.85 22.5 20.65 22.45 21.2 22.4 Q22.35 21.95 23.65 21.8 L24.95 21.0 25.0 20.95 Q25.0 20.3 25.45 19.75 25.05 19.3 25.0 18.6 24.95 17.9 25.25 17.35 L25.1 17.35 Q24.45 17.2 24.05 16.65 L23.55 16.75 23.3 16.7 23.6 17.75 23.6 18.05 Q23.6 18.85 23.0 19.45 22.4 20.1 21.6 20.05 L20.25 19.85 19.75 19.75 19.6 19.75 Q18.75 19.7 18.2 19.15 17.6 18.55 17.6 17.75 17.6 16.2 19.1 15.8 L20.35 15.6 Q19.85 15.05 19.95 14.4 L20.05 13.7 19.45 14.0 Q14.1 15.4 10.95 13.1 9.85 12.35 10.0 11.15 10.15 9.95 11.4 9.45 13.5 8.75 15.55 9.45 L15.95 9.4 Q17.8 9.4 19.5 10.15 20.6 10.35 20.85 11.35 21.45 10.75 22.3 10.75 23.2 10.75 23.85 11.5 L19.05 5.75 14.3 0.05 Q14.8 0.25 20.45 6.4 L26.3 13.0 Q26.35 11.7 28.8 10.85 29.8 10.5 32.1 10.1 L32.2 10.0 30.55 0.05 Q30.85 -0.25 32.65 4.4 34.5 9.25 34.85 9.4 35.2 9.4 35.4 9.6 L37.2 9.75 37.25 9.8 38.6 9.35 Q39.75 8.75 40.8 9.55 41.8 10.3 41.6 11.45 L42.35 11.75 Q42.95 8.25 45.95 7.0 47.45 6.4 48.35 7.3 49.4 8.45 48.65 9.75 L47.95 11.05 Q48.65 11.75 48.6 12.65 48.55 13.6 47.6 14.1 L46.6 14.6 46.35 15.75 45.75 16.45 Q46.55 17.6 46.0 18.75 L45.95 18.8 46.25 18.95 Q46.95 18.45 47.9 18.55 48.8 18.65 49.35 19.25 L50.2 18.05 50.5 17.75 51.55 15.7 51.7 15.5 51.6 15.45 Q49.55 13.95 50.45 12.2 50.75 11.55 51.45 11.3 L51.75 11.1 51.6 11.3 Q52.1 10.85 52.8 10.75 53.35 10.35 54.1 10.4 54.85 10.5 55.35 11.0 55.95 11.55 55.95 12.4 L55.75 13.25 58.65 8.6 Q62.5 2.25 62.45 2.55 L55.0 18.15 Q56.6 18.15 56.9 19.65 L69.1 6.75 60.1 18.05 67.15 11.85 Q73.5 6.15 73.85 6.7 74.0 6.95 67.85 13.7 L61.6 20.65 61.35 21.75 59.7 24.15 Q58.95 24.9 57.95 24.7 57.0 24.5 56.5 23.65 56.25 24.45 55.65 24.75 56.3 24.9 56.8 25.5 57.25 26.05 57.3 26.7 58.55 26.95 58.9 28.35 L59.7 28.35 Q61.3 27.15 63.65 26.6 63.65 26.1 63.9 25.7 64.4 24.9 65.6 24.5 L66.4 24.45 66.6 24.35 68.15 24.15 Q68.9 24.3 69.35 25.05 69.75 25.75 69.55 26.6 69.35 27.45 68.65 27.8 L68.35 28.15 67.15 28.7 Q66.95 28.9 66.7 29.05 67.5 29.95 67.2 30.95 88.75 14.85 80.5 22.5 L67.2 33.95 66.75 34.75 Q67.3 35.4 67.3 36.15 67.35 36.95 66.7 37.5 L63.6 39.25 64.95 39.4 Q66.15 39.35 66.7 40.45 67.15 41.45 66.6 42.45 L68.4 42.15 Q69.5 41.9 70.25 42.65 70.95 43.35 70.9 44.3 71.65 44.85 71.85 45.75 72.05 46.8 71.35 47.5 L70.3 48.75 70.45 48.8 Q71.4 49.0 71.75 49.8 72.1 50.55 71.75 51.4 72.95 51.65 73.2 53.05 73.45 54.5 72.3 55.1 L70.0 56.3 Q70.8 57.05 70.55 58.25 70.25 59.45 69.15 59.65 L68.35 60.7 Q68.8 61.7 68.4 62.55 68.0 63.35 67.05 63.6 L66.1 64.55 64.75 64.65 65.35 65.05 65.65 66.1 65.3 67.15 Q65.7 67.8 65.55 68.5 65.4 69.3 64.7 69.75 L65.5 70.55 Q66.5 70.15 67.55 70.9 68.55 71.65 68.35 72.7 69.4 72.8 70.05 73.8 70.7 74.85 70.0 75.75 L69.6 76.25 Q70.6 76.65 70.9 77.65 71.2 78.7 70.35 79.5 69.15 80.5 69.95 80.0 71.15 79.15 72.3 80.3 73.4 81.4 72.8 82.6 L74.95 82.05 Q76.35 81.9 76.75 83.25 77.15 84.5 76.35 85.5 75.3 86.75 73.3 88.05 L75.95 87.75 Q77.45 87.65 77.85 89.2 78.2 90.75 76.95 91.45 78.6 91.8 82.05 93.85"/></g><g id="c5"><g><use transform="matrix(1.0,0.0,0.0,1.0,0.0,0.0)" xlink:href="#c4"/></g></g><filter id="filter4"><feColorMatrix in="SourceGraphic" type="matrix" values="1.0 0.0 0.0 0.0 0.0 0.0 1.0 0.0 0.0 0.0 0.0 0.0 1.0 0.0 0.0 0.0 0.0 0.0 0.30078125 0.0" result="cxform"/><feComposite operator="in" in2="SourceGraphic" result="color-xform"/></filter><filter id="filter5"><feColorMatrix in="SourceGraphic" type="matrix" values="1.0 0.0 0.0 0.0 0.0 0.0 1.0 0.0 0.0 0.0 0.0 0.0 1.0 0.0 0.0 0.0 0.0 0.0 0.30078125 0.0" result="cxform"/><feComposite operator="in" in2="SourceGraphic" result="color-xform"/></filter></defs><g><g><use transform="matrix(1.0,0.0,0.0,1.0,0.0,0.0)" xlink:href="#c1"/></g><g style="mix-blend-mode: normal"><use transform="matrix(1.0,0.0,0.0,1.0,68.4,13.9)" filter="url(#filter4)" xlink:href="#c3"/></g><g style="mix-blend-mode: normal"><use transform="matrix(1.0,0.0,0.0,1.0,5.95,-4.15)" filter="url(#filter5)" xlink:href="#c5"/></g></g></svg>