<?xml version='1.0' encoding='UTF-8'?>
<svg xmlns="http://www.w3.org/2000/svg" xmlns:xlink="http://www.w3.org/1999/xlink" version="1.1" width="100px" height="99px" viewBox="-0.35 0.3 100.25 99.2"><defs><radialGradient gradientUnits="userSpaceOnUse" r="819.2" cx="0" cy="0" spreadMethod="pad" gradientTransform="matrix(0.0607757568359375,0.0,0.0,-0.0607757568359375,49.65,49.9)" id="gradient30"><stop offset="0.4235294117647059" stop-color="#ffffff" stop-opacity="0.2980392156862745"/><stop offset="1.0" stop-color="#ffffff" stop-opacity="0.16862745098039217"/></radialGradient><g id="c1"><path stroke="none" fill="url(#gradient30)" d="M43.35 0.3 L44.45 0.3 Q47.45 22.85 51.5 22.75 55.45 22.65 65.0 0.3 L65.7 0.3 Q57.95 25.0 60.8 24.75 63.55 24.55 81.4 0.3 L81.45 0.3 Q72.9 14.6 70.0 20.85 66.65 28.15 68.3 29.85 69.95 31.55 77.35 28.45 83.6 25.8 98.1 17.8 74.3 35.1 74.45 39.15 74.5 41.55 80.75 41.95 L99.65 41.25 99.65 42.05 Q86.4 45.3 80.9 47.45 74.7 49.9 74.75 52.3 74.75 54.7 81.0 58.0 86.45 60.85 99.65 65.8 L99.65 65.9 Q84.0 62.35 77.6 61.65 69.85 60.85 68.4 63.2 67.0 65.6 71.35 72.35 75.05 78.15 85.7 90.95 73.55 79.3 68.1 75.05 61.45 69.85 58.75 70.6 56.0 71.35 56.0 78.5 56.0 84.6 58.15 99.5 L57.55 99.5 Q53.8 85.6 51.45 80.0 48.7 73.55 46.1 73.6 43.5 73.65 39.9 80.15 36.85 85.65 31.15 99.5 L30.65 99.5 Q34.25 84.4 34.75 77.6 35.3 69.75 32.25 67.2 29.25 64.65 21.4 66.3 14.9 67.6 0.4 73.0 13.7 65.1 18.9 60.85 25.1 55.8 25.0 52.05 24.95 48.25 18.6 44.05 13.25 40.45 -0.35 34.35 L-0.35 34.05 Q14.2 37.75 20.2 38.4 27.3 39.15 28.5 36.45 29.7 33.75 25.5 26.35 22.05 20.2 12.1 6.3 32.35 30.3 33.55 29.35 34.7 28.35 19.55 0.3 28.45 13.85 32.25 18.75 37.15 25.1 39.45 25.25 41.8 25.4 42.65 19.25 43.35 14.0 43.35 0.3"/><path fill="#ffffff" stroke="none" d="M82.85 34.35 L89.25 48.7 89.75 54.65 92.2 59.3 92.8 52.05 91.1 41.55 94.2 39.9 98.1 47.2 99.65 60.25 99.9 60.7 99.9 82.35 Q99.9 90.15 95.1 94.7 L94.15 95.55 89.75 91.45 85.35 91.45 79.0 90.6 68.15 87.5 64.8 85.8 60.1 86.1 54.3 84.75 50.95 83.05 49.55 80.45 48.4 82.6 45.05 84.3 39.2 85.65 34.55 85.35 31.2 87.05 20.35 90.15 10.75 91.35 5.7 95.8 4.5 94.7 Q-0.1 90.1 -0.1 82.35 L-0.1 58.0 1.2 46.75 5.15 39.45 8.2 41.1 6.55 51.6 7.15 58.85 9.6 54.2 10.05 48.25 16.5 33.9 19.75 32.9 22.0 35.6 18.05 48.1 17.25 52.85 14.35 58.25 15.55 58.35 24.3 42.0 27.05 34.55 31.15 32.85 34.0 37.75 27.1 52.9 22.6 61.4 32.65 50.9 36.35 44.0 39.5 42.3 42.25 45.4 38.8 54.7 29.15 66.75 27.2 72.25 29.0 77.2 32.5 78.55 40.25 77.0 48.0 76.85 49.8 79.55 51.3 77.3 59.1 77.5 66.85 79.0 70.3 77.65 72.15 72.7 70.2 67.2 60.55 55.15 57.05 45.9 59.85 42.75 63.0 44.45 66.7 51.4 76.75 61.85 72.2 53.4 65.35 38.25 68.15 33.3 72.3 35.0 75.05 42.45 83.8 58.85 84.95 58.7 82.05 53.3 81.25 48.55 77.3 36.05 79.6 33.35 82.85 34.35"/></g></defs><g><g><use transform="matrix(1.0,0.0,0.0,1.0,0.0,0.0)" xlink:href="#c1"/></g></g></svg>