<?xml version='1.0' encoding='UTF-8'?>
<svg xmlns="http://www.w3.org/2000/svg" xmlns:xlink="http://www.w3.org/1999/xlink" version="1.1" width="100px" height="95px" viewBox="0.0 5.25 99.7 94.55"><defs><g id="c1"><path fill="#ffffff" stroke="none" d="M53.3 68.85 L53.1 69.25 Q53.2 69.8 54.65 70.65 56.1 71.55 59.85 75.3 L63.3 78.9 64.2 79.85 Q65.25 80.45 65.8 78.9 66.4 77.3 70.6 72.7 L74.7 68.4 69.55 72.15 Q64.75 75.65 64.2 75.25 L58.4 71.8 53.3 68.85 M83.8 26.45 L87.6 30.5 90.0 33.05 86.45 31.6 Q83.25 30.35 82.9 30.1 82.15 29.6 81.0 29.35 79.75 29.05 80.65 30.1 81.4 31.0 85.4 32.85 89.35 34.65 89.5 34.9 L91.85 39.8 93.85 44.25 Q95.2 43.8 95.2 42.4 95.2 41.5 92.75 35.35 L91.8 33.05 87.15 26.9 81.3 19.4 Q79.7 17.55 75.85 9.6 L77.0 12.9 78.1 16.9 Q78.1 17.5 80.55 21.4 L83.8 26.45 M36.2 81.6 L33.25 80.3 Q31.15 79.05 31.15 77.75 31.15 77.4 31.4 77.0 L36.85 73.4 34.65 73.9 Q32.35 74.6 31.65 75.7 L30.55 75.45 31.4 71.35 Q30.95 72.95 28.9 75.7 L22.45 76.75 Q16.35 77.9 17.9 78.45 L25.0 78.1 Q29.95 77.75 28.65 80.4 27.95 81.75 31.65 88.7 30.5 84.15 30.7 83.2 30.85 82.7 33.95 82.25 36.7 81.8 36.2 81.6 M41.85 29.1 L39.4 26.45 Q38.95 25.85 39.05 23.65 L39.4 20.55 39.7 15.65 Q39.95 11.55 40.5 10.75 41.1 9.9 43.05 9.3 L44.85 8.9 Q56.7 6.15 58.5 6.15 L65.45 5.5 Q71.65 5.25 74.5 7.1 L90.0 23.25 99.7 32.6 99.4 74.9 92.7 77.3 Q89.25 78.45 88.1 78.2 86.15 77.75 84.75 78.75 84.1 79.25 83.8 79.8 L88.85 79.65 Q94.9 79.2 99.7 78.0 L99.7 86.3 Q95.75 88.25 92.5 91.2 90.95 92.55 86.8 95.05 81.8 98.0 77.35 99.8 L54.4 99.8 Q59.8 96.7 60.1 96.2 L66.95 95.95 74.15 96.65 80.65 96.45 Q82.8 95.9 87.0 92.4 91.35 88.75 92.05 86.65 L87.5 91.15 Q82.35 95.65 79.05 95.5 L60.8 93.7 Q62.85 90.3 63.55 87.55 63.95 85.85 63.55 84.35 L63.1 83.2 61.6 87.2 Q60.0 91.3 59.45 91.85 L56.2 95.5 Q53.35 98.6 51.9 99.15 L50.65 99.8 19.3 99.8 Q20.2 98.0 20.1 95.4 20.0 93.0 19.1 90.5 L19.1 94.3 Q18.85 98.4 17.45 99.8 L17.25 99.8 Q9.4 99.8 4.6 94.95 0.0 90.35 0.0 82.5 L0.0 71.15 11.35 71.15 Q12.5 71.55 13.6 70.9 L16.6 68.6 Q18.95 66.85 24.3 65.15 30.3 63.3 34.35 63.6 38.7 63.95 42.75 64.95 46.65 65.95 48.25 67.05 49.2 67.65 49.25 68.55 L50.55 66.8 Q52.8 64.15 56.2 61.95 60.3 59.3 64.2 58.8 L72.05 59.15 Q75.25 59.8 77.2 60.85 78.25 61.45 78.95 62.8 79.5 63.95 80.2 64.05 81.05 64.2 81.25 63.35 L81.3 62.45 80.95 60.5 79.95 57.0 79.0 54.75 Q78.65 53.4 78.35 49.0 L77.75 41.45 Q77.55 38.7 77.65 38.3 77.9 37.6 76.6 33.6 75.25 29.35 74.0 28.3 L70.05 23.55 Q67.25 20.05 66.75 20.3 L63.8 22.7 Q61.35 24.85 60.55 25.1 L58.2 25.45 Q56.75 25.65 56.45 26.45 56.2 27.2 54.45 28.5 L52.6 30.1 52.6 31.95 Q52.7 33.45 52.15 34.0 50.7 35.45 46.2 32.6 44.1 31.25 41.85 29.1"/><path fill="#ffffff" stroke="none" d="M21.6 10.0 L21.6 18.2 29.8 18.2 29.8 27.2 21.6 27.2 21.6 35.4 12.6 35.4 12.6 27.2 4.4 27.2 4.4 18.2 12.6 18.2 12.6 10.0 21.6 10.0"/><path fill="#ffffff" stroke="none" d="M18.2 42.3 L26.4 42.3 26.4 34.15 35.4 34.15 35.4 42.3 43.6 42.3 43.6 51.35 35.4 51.35 35.4 59.55 26.4 59.55 26.4 51.35 18.2 51.35 18.2 42.3"/><path fill="#ffffff" stroke="none" d="M31.4 77.0 Q32.05 75.9 34.5 74.55 L36.85 73.4 31.4 77.0"/></g></defs><g><g><use transform="matrix(1.0,0.0,0.0,1.0,0.0,0.0)" xlink:href="#c1"/></g></g></svg>