<?xml version='1.0' encoding='UTF-8'?>
<svg xmlns="http://www.w3.org/2000/svg" xmlns:xlink="http://www.w3.org/1999/xlink" version="1.1" width="57px" height="75px" viewBox="21.3 12.1 57.45 74.7"><defs><g id="c1"><path fill="#ffffff" stroke="none" d="M45.15 62.85 L49.85 63.5 54.35 62.85 Q53.5 63.9 53.25 66.0 53.0 67.95 53.4 69.45 53.75 70.9 55.15 72.9 56.5 74.9 57.7 75.85 L58.0 76.0 Q54.4 78.35 49.35 78.35 44.75 78.35 42.4 76.35 L43.05 76.1 Q44.4 75.35 45.05 74.05 L46.25 70.9 Q47.6 67.75 46.25 64.4 45.85 63.4 45.15 62.85 M26.1 81.1 Q27.8 80.1 29.55 79.6 L31.0 79.25 Q31.0 78.4 33.1 77.55 L36.95 77.0 41.45 76.55 Q42.35 79.4 49.5 79.4 56.95 79.4 58.7 76.25 L63.8 76.85 68.15 77.45 Q69.3 77.9 69.5 78.3 L69.5 78.65 71.25 79.25 74.2 80.4 Q75.0 80.75 74.9 81.65 74.7 82.8 72.85 83.75 67.4 86.6 50.8 86.7 32.75 86.8 27.1 84.55 23.0 82.95 26.1 81.1 M43.55 38.4 Q47.5 39.8 49.85 39.8 52.15 39.8 56.55 38.4 L56.45 39.05 Q56.6 41.35 55.85 42.35 L54.75 43.35 Q54.2 44.3 54.4 48.15 54.45 50.0 55.45 51.2 L57.55 52.85 Q58.8 53.65 59.7 54.9 60.7 56.35 60.75 58.0 60.85 59.2 58.85 60.35 L55.4 62.05 50.0 62.35 43.7 62.05 41.85 61.3 Q40.1 60.65 39.55 58.7 39.15 57.15 39.6 55.15 39.9 53.75 41.85 52.8 42.8 52.35 44.8 51.85 45.65 51.6 46.0 51.2 L46.15 50.85 Q46.4 45.8 46.15 44.6 46.0 43.95 45.0 43.35 44.1 42.8 44.15 42.35 44.25 41.7 43.55 38.4 M66.8 16.4 Q67.5 16.15 67.4 14.9 67.25 13.9 68.4 14.0 69.5 14.1 71.05 15.3 73.05 16.8 72.35 18.65 71.65 20.5 71.75 21.35 71.9 22.9 73.9 23.7 L75.75 23.65 Q76.5 23.05 76.4 21.35 76.35 20.15 75.4 18.6 74.55 17.3 74.8 16.55 75.2 15.3 76.9 13.6 L78.75 13.95 78.25 21.45 Q78.0 25.45 74.45 29.5 71.9 32.45 68.55 34.5 66.5 35.75 63.2 36.65 L59.05 37.55 55.5 37.95 50.1 38.35 43.45 37.95 38.0 37.35 Q31.55 36.4 25.85 30.45 23.4 27.9 22.1 20.7 L21.3 13.95 28.9 13.1 51.3 12.1 56.7 12.15 56.1 13.6 Q55.8 15.15 57.45 15.85 L60.8 17.45 Q62.25 18.4 62.4 19.7 L61.55 22.85 Q60.9 24.95 62.05 26.45 63.2 28.0 64.95 27.85 66.5 27.75 67.4 26.5 68.05 25.55 66.6 21.1 65.25 17.0 66.8 16.4"/></g></defs><g><g><use transform="matrix(1.0,0.0,0.0,1.0,0.0,0.0)" xlink:href="#c1"/></g></g></svg>