<?xml version='1.0' encoding='UTF-8'?>
<svg xmlns="http://www.w3.org/2000/svg" xmlns:xlink="http://www.w3.org/1999/xlink" version="1.1" width="100px" height="92px" viewBox="0.0 3.0 100.0 91.75"><defs><linearGradient gradientUnits="userSpaceOnUse" x1="-819.2" x2="819.2" spreadMethod="pad" gradientTransform="matrix(-4.57763671875e-05,0.02813720703125,0.0318603515625,6.103515625e-05,69.35,26.05)" id="gradient22"><stop offset="0.0" stop-color="#ffffff" stop-opacity="0.9686274509803922"/><stop offset="1.0" stop-color="#e2e3e4" stop-opacity="0.0"/></linearGradient><linearGradient gradientUnits="userSpaceOnUse" x1="-819.2" x2="819.2" spreadMethod="pad" gradientTransform="matrix(-4.57763671875e-05,0.027923583984375,0.0316314697265625,6.103515625e-05,69.15,71.9)" id="gradient23"><stop offset="0.0" stop-color="#d5d5d7" stop-opacity="0.0"/><stop offset="1.0" stop-color="#ffffff" stop-opacity="0.9647058823529412"/><stop offset="1.0" stop-color="#e1e2e2"/></linearGradient><linearGradient gradientUnits="userSpaceOnUse" x1="-819.2" x2="819.2" spreadMethod="pad" gradientTransform="matrix(-4.57763671875e-05,0.0283355712890625,0.0320892333984375,6.103515625e-05,84.7,26.25)" id="gradient24"><stop offset="0.0" stop-color="#ffffff" stop-opacity="0.9686274509803922"/><stop offset="1.0" stop-color="#e2e3e4" stop-opacity="0.0"/></linearGradient><linearGradient gradientUnits="userSpaceOnUse" x1="-819.2" x2="819.2" spreadMethod="pad" gradientTransform="matrix(-4.57763671875e-05,0.027740478515625,0.031402587890625,6.103515625e-05,84.5,72.1)" id="gradient25"><stop offset="0.0" stop-color="#d5d5d7" stop-opacity="0.0"/><stop offset="1.0" stop-color="#ffffff" stop-opacity="0.9647058823529412"/><stop offset="1.0" stop-color="#e1e2e2"/></linearGradient><linearGradient gradientUnits="userSpaceOnUse" x1="-819.2" x2="819.2" spreadMethod="pad" gradientTransform="matrix(-3.0517578125e-05,0.01885986328125,0.0213470458984375,4.57763671875e-05,36.8,34.5)" id="gradient26"><stop offset="0.0" stop-color="#ffffff" stop-opacity="0.9686274509803922"/><stop offset="1.0" stop-color="#e2e3e4" stop-opacity="0.0"/></linearGradient><linearGradient gradientUnits="userSpaceOnUse" x1="-819.2" x2="819.2" spreadMethod="pad" gradientTransform="matrix(-3.0517578125e-05,0.018707275390625,0.02117919921875,4.57763671875e-05,36.65,65.2)" id="gradient27"><stop offset="0.0" stop-color="#d5d5d7" stop-opacity="0.0"/><stop offset="1.0" stop-color="#ffffff" stop-opacity="0.9647058823529412"/><stop offset="1.0" stop-color="#e1e2e2"/></linearGradient><linearGradient gradientUnits="userSpaceOnUse" x1="-819.2" x2="819.2" spreadMethod="pad" gradientTransform="matrix(-3.0517578125e-05,0.01898193359375,0.0214996337890625,4.57763671875e-05,47.05,34.6)" id="gradient28"><stop offset="0.0" stop-color="#ffffff" stop-opacity="0.9686274509803922"/><stop offset="1.0" stop-color="#e2e3e4" stop-opacity="0.0"/></linearGradient><linearGradient gradientUnits="userSpaceOnUse" x1="-819.2" x2="819.2" spreadMethod="pad" gradientTransform="matrix(-3.0517578125e-05,0.0185699462890625,0.0210418701171875,4.57763671875e-05,46.95,65.3)" id="gradient29"><stop offset="0.0" stop-color="#d5d5d7" stop-opacity="0.0"/><stop offset="1.0" stop-color="#ffffff" stop-opacity="0.9647058823529412"/><stop offset="1.0" stop-color="#e1e2e2"/></linearGradient><g id="c1"><path stroke="none" fill="url(#gradient22)" d="M56.7 48.95 Q58.05 31.05 59.65 24.0 63.45 7.15 72.3 3.1 74.2 3.0 76.1 3.05 L73.05 3.15 Q75.45 3.25 77.4 4.9 71.7 9.1 69.35 24.2 68.0 33.7 67.95 49.1 L56.7 48.95"/><path stroke="none" fill="url(#gradient23)" d="M75.25 94.75 L71.9 94.55 Q63.05 90.3 59.45 73.7 57.9 66.9 56.7 48.95 L67.95 49.1 Q67.9 64.8 69.15 73.7 71.4 88.65 77.0 92.95 75.05 94.5 72.65 94.55 L75.25 94.75"/><path stroke="none" fill="url(#gradient24)" d="M76.1 3.05 L79.05 3.1 82.15 3.25 Q90.55 7.45 93.95 24.45 95.4 32.2 96.4 49.5 L85.8 49.35 Q86.0 12.1 77.4 4.9 75.45 3.25 73.05 3.15 L76.1 3.05"/><path stroke="none" fill="url(#gradient25)" d="M96.4 49.5 Q95.2 66.95 93.7 74.15 90.25 90.65 81.75 94.65 L80.65 94.7 75.25 94.75 72.65 94.55 Q75.05 94.5 77.0 92.95 85.7 86.0 85.8 49.35 L96.4 49.5"/><path stroke="none" fill="url(#gradient26)" d="M28.3 49.85 Q29.2 37.6 30.3 33.1 32.75 21.8 38.75 19.15 L40.45 19.1 39.25 19.15 Q40.85 19.2 42.15 20.3 38.4 23.15 36.8 33.25 35.95 39.2 35.85 49.95 L28.3 49.85"/><path stroke="none" fill="url(#gradient27)" d="M41.1 80.5 L38.5 80.35 Q32.55 77.55 30.15 66.4 29.15 61.95 28.3 49.85 L35.85 49.95 Q35.8 60.05 36.65 66.4 38.15 76.4 41.9 79.3 40.55 80.3 38.95 80.35 L41.1 80.5"/><path stroke="none" fill="url(#gradient28)" d="M40.45 19.1 L44.35 19.15 45.35 19.2 Q51.0 22.05 53.25 33.4 54.15 38.35 54.9 50.2 L47.8 50.1 Q47.9 25.15 42.15 20.3 40.85 19.2 39.25 19.15 L40.45 19.1"/><path stroke="none" fill="url(#gradient29)" d="M54.9 50.2 Q54.1 61.9 53.1 66.7 50.8 77.7 45.1 80.45 L45.0 80.45 43.15 80.55 41.1 80.5 38.95 80.35 Q40.55 80.3 41.9 79.3 47.7 74.65 47.8 50.1 L54.9 50.2"/><path fill="#ffffff" stroke="none" d="M47.3 51.7 Q40.25 49.3 34.65 48.45 L31.45 48.15 35.6 47.7 Q50.05 45.15 68.8 34.1 89.55 21.85 99.7 12.6 L100.0 16.95 100.0 23.6 Q86.9 34.85 68.8 41.6 56.0 46.45 44.6 47.95 56.25 49.05 69.65 54.05 86.85 60.5 100.0 71.4 L100.0 81.9 Q89.95 72.45 69.65 61.6 57.7 55.25 47.3 51.7"/><path fill="#ffffff" stroke="none" d="M30.5 11.65 Q31.35 11.3 31.3 12.85 31.15 14.8 31.75 15.15 32.7 15.75 32.7 17.3 32.7 18.85 31.55 20.5 L25.9 27.6 Q25.1 28.7 27.75 27.95 30.25 27.25 32.45 25.9 37.1 23.0 37.3 25.8 37.4 27.1 36.1 28.7 L33.7 30.75 29.2 32.65 Q25.4 34.15 24.3 35.2 22.75 36.6 21.1 39.15 19.4 41.75 20.55 41.25 22.35 40.5 32.55 40.1 34.5 40.05 35.1 42.0 35.7 44.0 33.7 43.9 31.0 43.8 19.9 47.0 L18.6 47.8 Q17.05 48.95 15.95 50.55 14.8 52.25 14.85 53.45 14.85 54.15 15.5 55.4 16.15 56.5 18.2 57.3 L22.05 57.55 28.2 54.85 Q33.0 52.8 34.3 52.7 35.9 52.55 37.6 53.95 39.25 55.3 39.25 56.6 39.2 57.85 36.95 59.45 34.7 61.05 31.9 61.8 29.65 62.4 25.3 64.55 L18.5 68.0 Q16.25 69.05 14.5 70.65 L10.9 73.55 Q7.65 75.8 1.6 77.0 L0.0 78.75 0.0 48.7 4.65 40.95 Q7.85 35.0 15.35 27.15 21.65 20.55 24.2 19.05 25.5 18.3 27.65 15.1 29.75 11.95 30.5 11.65"/></g></defs><g><g><use transform="matrix(1.0,0.0,0.0,1.0,0.0,0.0)" xlink:href="#c1"/></g></g></svg>