<?xml version='1.0' encoding='UTF-8'?>
<svg xmlns="http://www.w3.org/2000/svg" xmlns:xlink="http://www.w3.org/1999/xlink" version="1.1" width="95px" height="92px" viewBox="3.05 0.1 94.95 91.7"><defs><g id="c1"><path fill="#ffffff" stroke="none" d="M93.95 39.6 Q95.45 38.35 96.55 36.25 97.6 34.3 98.0 32.3 L97.6 35.7 Q97.35 38.7 96.1 41.1 95.4 41.4 94.55 42.6 93.65 43.85 93.95 44.5 94.35 45.6 95.4 44.65 L96.65 42.9 Q96.9 43.9 94.6 46.2 93.7 47.0 92.95 47.05 L91.4 46.7 89.6 46.6 Q88.75 47.2 88.05 47.3 85.25 47.75 87.1 45.15 L87.7 44.5 Q88.55 42.45 90.5 41.5 93.35 40.15 93.95 39.6"/><path fill="#ffffff" stroke="none" d="M89.25 2.85 L88.5 4.6 87.35 6.45 86.35 8.55 85.15 10.55 Q84.05 10.85 83.85 10.3 L83.25 11.2 Q83.8 12.35 83.1 13.95 L81.9 15.3 80.55 16.35 79.5 17.7 Q78.85 18.55 78.15 18.65 77.45 18.75 76.95 18.2 76.45 17.65 76.6 16.9 L77.2 16.55 78.95 12.25 Q79.9 9.7 81.75 9.15 82.55 8.2 84.45 7.75 85.85 5.6 86.65 6.05 88.0 5.6 89.25 2.85"/><path fill="#ffffff" stroke="none" d="M40.9 36.15 L41.0 36.7 42.05 36.5 Q42.85 36.35 43.05 37.15 43.3 37.95 42.5 38.1 L40.15 38.6 Q40.15 37.95 39.6 37.75 L38.75 37.7 Q39.55 36.95 40.9 36.15"/><path fill="#ffffff" stroke="none" d="M19.65 20.55 L17.2 17.5 17.9 17.9 19.65 20.55"/><path fill="#ffffff" stroke="none" d="M71.2 90.1 Q70.6 90.65 70.75 91.4 L69.5 91.8 Q69.35 91.05 68.85 90.7 70.4 89.85 73.05 88.65 L73.65 88.35 71.2 90.1"/><path fill="#ffffff" stroke="none" d="M66.9 75.95 Q66.6 75.85 66.4 76.05 L63.1 80.05 Q63.6 80.2 63.75 80.7 L63.8 81.1 63.9 80.9 65.35 78.45 66.9 75.95 M61.15 76.5 Q60.45 76.3 60.0 76.65 56.95 78.95 55.35 81.8 53.55 83.05 52.15 84.45 52.8 84.35 53.15 84.95 53.5 85.55 53.0 86.15 L52.15 87.0 51.6 87.9 51.45 88.3 51.85 88.7 56.15 85.2 Q56.95 85.2 57.3 84.45 L57.5 84.1 62.05 80.2 62.35 80.05 63.75 76.8 63.75 76.55 61.75 79.15 61.7 79.15 61.65 79.1 Q62.65 78.2 62.05 77.15 61.75 76.65 61.15 76.5 M30.45 52.2 L30.85 52.5 Q31.85 52.85 33.35 52.0 33.8 51.7 33.7 51.25 33.2 51.0 33.2 50.4 32.8 49.8 32.1 50.15 L31.15 50.55 30.45 52.2 M61.25 55.4 Q61.05 56.2 61.85 56.4 62.65 56.65 62.85 55.85 63.2 54.9 64.1 53.95 L64.35 53.25 61.35 55.1 61.25 55.4 M64.5 33.65 L67.4 31.9 67.1 31.5 64.5 33.65 M73.2 9.15 L75.85 7.7 Q73.65 11.8 72.85 14.4 71.5 18.8 72.8 22.1 73.6 24.1 76.25 25.15 78.8 26.2 79.55 28.65 L79.9 32.05 Q80.05 34.0 81.1 34.6 82.9 35.65 84.25 33.0 85.1 31.3 84.55 28.1 84.2 25.8 83.25 23.3 85.65 24.75 86.25 30.2 86.75 34.7 85.85 38.55 85.6 39.8 84.8 41.25 L85.6 40.8 85.05 41.45 Q84.65 41.95 84.95 42.65 L84.0 43.3 Q83.45 43.8 83.6 44.35 L82.9 44.8 82.6 45.55 82.6 46.0 81.85 47.15 84.4 45.2 85.05 45.05 86.4 44.05 86.4 44.15 Q84.85 45.3 83.9 46.65 L83.9 46.7 82.55 47.7 Q81.8 48.4 82.55 49.05 L77.9 52.3 Q78.35 52.85 78.95 52.7 L83.2 52.3 Q86.2 52.05 87.3 51.45 L88.7 50.35 Q89.9 49.3 89.8 50.1 L89.2 52.6 Q88.6 56.35 85.1 59.95 82.9 62.25 78.3 65.5 77.15 66.35 76.8 67.2 76.3 68.45 78.2 68.75 79.6 69.0 81.75 68.1 L85.35 66.5 83.9 70.25 Q82.65 72.9 81.1 74.1 78.45 76.15 76.95 76.5 L75.15 77.2 Q74.15 78.15 75.3 79.4 L75.25 79.85 74.35 80.55 Q73.5 81.3 73.35 82.1 L74.75 81.05 Q75.55 80.55 76.1 81.4 76.6 82.25 75.8 82.8 L73.2 84.85 73.5 84.7 74.25 84.75 69.7 87.0 66.1 88.95 65.4 89.0 Q64.15 89.45 62.75 90.2 62.85 89.55 62.45 89.0 62.05 88.45 61.45 88.4 L61.55 88.2 Q61.8 87.85 61.7 87.25 L63.3 85.0 63.15 85.05 61.8 86.5 61.55 86.8 61.55 86.7 64.15 82.2 Q63.7 81.8 63.75 81.4 L63.5 81.65 62.5 82.5 Q62.15 81.8 61.45 81.65 60.75 81.45 60.2 82.1 L56.9 85.9 53.45 89.6 53.25 89.9 52.5 90.5 Q52.5 89.65 51.8 89.15 51.05 88.7 50.25 89.15 L48.5 90.3 48.2 89.6 48.2 89.55 Q48.4 88.95 48.0 88.35 47.6 87.75 46.95 87.65 L47.55 86.45 47.85 86.4 Q48.15 86.3 48.4 86.55 L50.0 85.5 Q49.65 85.25 49.6 84.8 49.5 84.35 49.8 83.95 L50.0 83.8 Q49.3 83.5 48.45 84.1 L48.2 84.35 48.1 84.05 49.85 82.1 49.75 82.0 Q50.3 81.1 49.55 80.2 48.85 79.35 47.95 79.75 L50.3 77.5 Q50.5 76.65 49.7 76.05 48.9 75.4 48.1 75.85 L48.35 74.95 Q49.2 74.95 49.15 74.15 L48.9 73.05 48.9 73.0 49.3 69.75 Q51.05 67.9 50.3 66.85 L50.1 66.65 50.3 65.85 50.45 65.35 51.95 60.3 52.65 60.65 52.95 63.85 54.1 67.3 54.1 70.3 53.35 72.25 Q53.2 72.8 53.65 73.15 L54.6 73.2 55.05 72.9 55.35 73.6 55.15 77.4 Q55.15 78.8 52.15 81.3 L51.85 81.95 56.1 78.85 60.5 76.05 Q61.2 75.6 61.75 76.25 L62.05 75.7 Q62.7 74.6 61.7 73.8 L59.7 73.85 58.9 74.55 58.5 73.6 59.1 70.75 59.2 68.65 61.2 66.65 Q61.75 66.1 61.25 65.55 60.7 65.0 60.1 65.4 L60.3 65.15 62.05 63.3 Q62.6 62.75 62.0 62.15 L60.85 62.1 59.35 63.55 59.45 61.05 60.15 59.2 60.0 58.45 59.4 58.15 58.3 48.9 Q58.35 47.7 58.75 46.1 L59.55 43.35 Q59.65 40.9 60.05 39.25 L60.65 39.35 60.5 39.6 Q60.2 40.3 60.75 40.65 61.1 41.2 61.65 41.05 L62.35 40.85 62.5 40.85 62.85 40.8 62.5 40.95 Q62.1 41.2 62.1 41.6 62.05 41.95 62.35 42.25 62.25 42.6 62.45 43.0 L63.0 43.4 62.6 43.95 Q62.4 44.3 62.55 44.7 62.7 45.15 63.1 45.2 L63.15 45.2 62.8 47.15 62.7 47.65 62.75 47.75 Q62.65 48.1 62.8 48.3 61.8 49.45 61.15 51.05 L61.05 51.25 Q60.9 51.7 61.2 52.0 61.5 52.3 61.95 52.25 L61.75 52.9 65.2 50.75 65.3 50.7 65.8 50.2 Q66.3 49.55 65.7 48.95 L66.8 46.7 Q66.95 46.3 66.65 45.95 66.4 45.65 66.0 45.65 L66.45 42.95 Q66.45 42.3 65.7 42.1 65.95 41.65 65.6 41.15 L65.8 41.0 Q66.1 40.8 66.05 40.45 L65.75 39.85 65.3 39.65 65.15 39.6 65.05 39.65 64.95 39.65 Q64.55 39.75 64.25 39.95 L63.0 40.7 63.15 40.5 63.25 39.8 63.3 39.8 Q64.0 39.8 64.1 39.1 64.2 38.4 63.6 38.2 L65.4 37.7 Q65.4 37.35 65.65 37.15 L67.6 35.4 63.25 36.6 62.95 36.0 62.25 35.9 61.2 36.05 62.05 35.1 62.65 34.75 62.15 34.3 61.0 35.6 59.9 35.65 Q59.25 35.05 59.8 34.45 61.2 32.75 62.95 31.1 61.35 30.25 59.55 30.25 58.75 30.15 58.75 29.4 L55.6 29.4 Q55.05 29.4 54.85 28.85 L54.1 28.85 54.1 28.55 56.05 25.35 56.05 22.45 55.5 21.75 54.1 21.7 54.6 21.4 54.95 20.7 54.7 20.1 54.6 20.15 Q53.9 20.45 53.5 19.85 L53.4 19.85 53.3 19.8 53.4 19.7 Q53.25 19.35 53.4 19.0 L49.8 19.8 49.95 19.95 48.75 20.55 Q48.2 20.85 48.35 21.35 L48.05 21.35 47.95 21.4 47.95 22.75 48.8 23.05 48.75 23.05 48.55 23.2 Q48.0 23.65 48.5 24.25 49.0 24.8 49.6 24.5 49.3 25.0 48.75 24.8 L47.95 24.5 47.95 25.05 48.8 29.2 49.05 29.7 48.9 30.2 Q48.45 30.85 47.05 31.3 L44.1 32.15 43.95 32.3 43.95 32.55 43.9 32.8 43.55 32.75 43.5 32.75 36.95 38.9 36.65 39.3 36.35 39.55 36.15 39.8 Q35.9 40.2 36.15 40.65 36.4 41.05 36.9 41.05 L36.95 41.05 34.1 43.3 Q32.7 44.7 32.35 46.3 L32.0 46.45 32.05 46.9 31.3 48.95 31.45 49.6 31.25 50.2 31.5 50.2 33.65 49.55 Q34.65 48.35 35.9 47.45 35.8 47.0 36.1 46.7 L36.2 46.6 34.75 47.3 34.35 47.25 36.45 46.35 36.65 46.15 36.9 45.45 38.45 44.25 Q37.95 43.85 37.5 44.1 L34.55 45.35 Q35.2 44.25 37.1 42.9 L39.95 40.6 40.2 39.95 39.85 39.35 44.15 37.95 Q44.95 37.75 45.15 38.55 45.35 39.3 44.6 39.55 L42.1 40.4 44.8 40.7 Q45.5 42.2 45.15 44.15 L45.2 44.35 Q44.95 46.25 45.05 46.35 45.3 46.5 45.45 48.0 L45.05 50.5 45.55 50.5 45.6 50.85 45.4 53.4 Q44.35 54.55 43.35 56.85 43.2 57.2 43.5 57.6 43.75 57.95 44.15 57.9 L44.95 57.8 44.75 59.45 Q43.05 61.45 42.75 62.3 42.55 62.75 42.95 63.1 43.3 63.4 43.75 63.3 L44.3 63.2 43.7 67.8 44.45 71.55 44.25 72.45 43.5 73.2 43.4 73.7 42.6 74.9 43.05 75.6 Q43.7 76.0 43.5 76.7 L43.0 78.1 42.75 78.4 Q42.5 78.7 42.5 79.3 L41.65 81.5 42.8 80.0 43.25 80.45 Q44.15 81.0 45.0 80.25 L44.4 81.15 44.8 81.95 44.75 82.55 47.2 80.45 43.6 84.85 39.75 87.35 Q37.45 88.8 35.75 89.65 L37.55 87.2 37.8 86.25 37.85 85.75 Q38.4 85.2 38.25 84.5 L39.35 83.05 39.15 82.9 39.75 80.85 39.35 80.6 38.65 80.55 38.15 80.0 37.65 81.9 37.7 82.55 37.85 82.9 37.45 83.1 37.25 83.3 Q36.4 82.95 35.7 83.6 L34.15 84.8 32.35 86.0 31.8 86.4 Q31.8 86.0 32.05 85.7 L32.75 85.0 31.5 85.15 Q29.0 86.6 26.4 88.8 25.95 88.25 26.55 87.7 L27.5 87.0 25.7 85.65 Q24.6 85.05 23.8 84.15 23.2 83.4 23.85 82.75 L20.65 80.85 20.25 78.9 Q20.35 77.7 19.95 77.25 L19.45 76.8 Q18.05 73.6 15.25 71.2 19.65 72.35 21.3 70.85 L21.6 70.1 Q21.8 69.75 21.45 68.95 19.25 64.35 16.3 61.25 L11.6 56.25 Q12.5 56.5 15.1 55.55 L17.85 55.45 18.4 56.4 Q18.75 57.2 21.6 55.45 24.45 53.75 24.15 52.95 L24.0 52.7 24.05 52.7 23.75 52.2 Q22.95 50.6 22.0 50.75 20.85 50.85 19.8 49.55 15.1 43.9 14.3 37.2 16.6 40.9 19.05 41.9 L19.05 40.35 19.75 37.65 14.15 31.9 13.6 31.0 12.35 29.3 12.6 28.75 17.55 33.4 18.55 33.6 20.1 35.15 Q20.05 33.8 19.55 32.45 L13.9 24.6 8.25 16.75 12.3 21.4 Q12.7 21.85 13.2 21.7 13.65 21.6 13.85 21.1 L18.0 26.95 Q18.45 26.65 18.75 27.25 L18.95 27.55 19.4 27.9 26.5 37.05 26.55 36.55 21.55 27.75 Q21.9 27.2 21.65 26.65 L20.5 24.45 Q21.75 26.05 22.4 27.45 22.6 27.9 23.05 27.95 L23.8 27.7 27.15 33.6 28.05 29.25 Q29.2 28.7 29.65 27.0 30.0 25.7 29.55 23.1 L29.0 19.15 30.9 19.4 Q30.75 18.75 30.85 17.8 L31.2 16.15 Q31.25 15.3 30.6 14.55 L29.55 13.7 Q29.05 13.4 28.75 12.4 L27.25 6.35 Q26.45 2.75 26.6 0.1 L31.15 0.1 31.75 1.75 33.4 4.3 Q34.4 5.75 34.6 7.1 34.8 8.3 34.5 10.45 34.25 12.65 34.4 13.75 34.6 15.15 35.2 15.95 L36.4 15.55 Q37.2 15.4 37.95 16.0 38.45 16.4 40.6 14.05 42.7 11.7 42.15 11.15 39.4 8.45 38.85 7.45 37.9 5.6 38.55 2.4 L39.05 0.1 43.3 0.1 43.85 1.55 44.6 2.15 45.35 2.35 47.05 2.95 49.15 4.25 Q50.1 5.25 51.0 7.1 L52.6 10.15 53.9 11.8 Q54.8 12.55 55.65 10.9 56.15 9.95 55.6 8.35 L54.95 5.85 Q54.95 4.7 55.35 2.95 L55.9 0.1 59.45 0.1 59.2 4.75 Q59.1 7.45 59.75 8.85 60.45 10.4 61.95 10.8 63.45 11.15 64.25 12.9 L65.5 16.45 Q66.25 18.6 67.25 19.4 L68.6 14.95 Q69.45 12.2 70.65 10.9 71.5 10.05 73.2 9.15"/><path fill="#ffffff" stroke="none" d="M94.65 57.6 Q95.65 57.55 97.7 56.6 96.55 58.65 94.45 60.1 L94.35 60.15 92.3 59.5 90.2 58.95 Q88.6 58.7 86.75 59.35 89.1 56.0 92.2 55.35 L93.1 55.5 93.45 56.75 Q93.9 57.7 94.65 57.6"/><path fill="#ffffff" stroke="none" d="M3.35 54.4 L3.45 54.45 Q3.75 56.95 5.35 59.05 6.8 61.0 9.0 62.15 9.65 62.45 10.4 61.8 L11.2 60.75 12.1 60.95 Q14.85 62.95 15.6 66.8 14.25 65.5 12.6 65.1 L10.45 64.75 8.3 64.55 4.25 59.95 Q3.25 57.2 3.05 55.5 L3.35 54.4"/></g></defs><g><g><use transform="matrix(1.0,0.0,0.0,1.0,0.0,0.0)" xlink:href="#c1"/></g></g></svg>