<?xml version='1.0' encoding='UTF-8'?>
<svg xmlns="http://www.w3.org/2000/svg" xmlns:xlink="http://www.w3.org/1999/xlink" version="1.1" width="88px" height="84px" viewBox="6.05 8.55 87.95 84.5"><defs><g id="c1"><path fill="#ffffff" stroke="none" d="M82.8 21.15 L85.2 26.35 85.0 28.05 Q87.7 27.75 89.5 26.7 L90.85 25.55 91.05 26.25 91.05 27.55 Q90.7 29.2 88.1 29.95 L85.25 30.45 85.8 32.0 81.0 31.4 73.1 40.25 72.2 44.4 73.9 52.05 74.05 59.25 84.4 57.85 87.85 57.9 90.6 59.5 90.2 62.45 87.55 69.05 87.55 73.55 91.55 75.7 93.85 75.8 94.0 77.2 88.0 78.75 84.6 77.25 82.0 74.35 84.0 71.05 82.3 64.55 75.8 67.65 69.6 68.95 62.5 72.1 68.1 77.0 67.7 81.8 66.0 82.7 64.8 84.95 61.95 84.85 62.6 83.4 61.2 82.5 63.5 81.1 63.9 79.1 55.35 75.05 51.0 75.4 47.95 73.75 45.5 77.45 42.75 79.15 39.1 75.75 41.4 70.9 44.65 69.35 46.65 69.15 44.45 63.75 37.8 59.8 35.4 61.25 32.65 61.8 34.4 60.0 30.85 56.7 31.85 55.8 33.5 57.25 32.5 54.95 36.9 56.4 38.25 57.5 39.35 56.8 48.1 60.4 53.0 66.1 62.7 59.3 65.65 58.55 65.75 50.3 67.6 42.9 67.55 39.75 74.3 32.25 78.25 30.15 Q74.15 29.6 69.35 28.15 64.05 26.35 59.5 24.25 L52.75 20.75 Q48.7 18.15 46.8 15.9 44.35 13.1 44.9 11.05 45.35 9.1 48.35 8.55 L55.35 8.75 Q59.75 9.45 64.95 11.55 67.9 12.7 70.4 14.2 73.2 15.85 75.0 17.55 76.85 19.4 77.05 20.7 77.35 22.05 76.3 22.8 74.35 24.15 69.25 23.2 66.6 22.6 64.25 21.75 61.15 20.7 58.65 19.1 55.6 17.2 54.95 15.6 54.25 13.95 55.85 13.35 57.05 12.9 59.6 13.3 62.95 13.95 64.45 14.85 65.65 15.6 66.45 16.75 L64.05 15.7 Q59.95 14.05 58.25 15.15 57.75 15.4 58.2 16.1 58.65 16.9 60.35 17.95 61.8 18.75 64.05 19.6 L67.65 20.5 72.1 20.3 Q73.2 19.45 71.4 17.65 69.35 15.55 64.7 13.65 60.7 11.95 56.8 11.15 L50.25 10.55 Q47.75 10.8 47.35 12.0 46.8 13.35 48.8 15.7 51.15 18.25 55.6 20.6 L58.25 21.95 58.3 21.95 Q61.0 22.95 62.75 23.85 L65.1 24.7 Q73.15 27.45 79.9 28.05 L80.95 28.15 81.35 21.15 82.8 21.15 M29.65 69.2 L28.25 68.15 Q23.2 64.9 17.75 64.95 12.65 65.0 8.15 68.55 L6.05 70.65 Q6.65 68.8 7.45 67.45 9.05 64.7 11.95 63.1 14.65 61.55 18.0 61.3 22.75 60.9 27.15 63.2 30.45 65.3 32.85 68.1 L36.15 72.65 Q37.65 76.05 37.55 79.6 37.55 83.75 35.45 87.15 33.45 90.45 30.45 91.7 27.5 93.05 24.35 92.45 20.85 91.85 18.05 89.35 16.4 87.9 15.3 85.9 14.1 83.7 13.85 81.15 13.6 78.6 14.5 76.4 15.35 74.2 16.8 72.85 19.7 70.35 23.35 71.2 25.15 71.65 26.7 72.75 28.65 74.25 29.55 76.25 30.75 78.75 30.1 81.35 29.5 83.75 27.55 85.05 26.1 86.0 24.2 85.7 L22.45 85.2 Q21.5 84.8 21.1 83.95 20.8 83.35 20.75 82.2 L20.8 81.2 22.1 82.5 Q23.3 83.55 24.8 83.4 25.9 83.3 26.85 82.6 27.5 81.95 27.6 81.0 27.85 79.65 27.15 78.35 26.6 77.2 25.15 76.25 23.9 75.5 22.7 75.25 20.1 74.85 18.55 76.35 16.95 77.9 17.1 80.5 17.2 82.0 17.95 83.45 18.7 84.9 19.9 85.95 22.15 88.05 24.95 88.8 27.75 89.55 30.3 88.8 32.75 87.95 34.05 86.0 35.7 83.6 35.6 80.25 35.6 76.7 33.5 73.3 L32.2 71.55 32.15 71.55 29.65 69.2 M51.15 27.6 L53.85 29.65 55.8 31.55 58.65 32.65 58.5 33.6 56.8 33.9 55.35 34.0 Q54.75 34.2 53.5 33.3 L52.95 32.1 51.25 31.0 49.05 31.15 48.15 29.65 46.85 29.45 45.4 28.2 43.45 28.7 41.45 28.1 37.3 29.05 36.15 30.7 36.0 37.35 36.65 38.35 42.6 39.55 44.65 41.1 51.9 42.3 52.35 43.35 54.0 46.2 53.2 49.0 Q53.0 49.3 51.65 49.4 L48.95 44.3 41.3 44.75 36.6 42.45 33.9 41.95 30.05 36.25 30.15 31.8 29.8 30.35 27.25 29.8 23.05 30.85 20.25 30.75 21.3 35.1 23.0 37.1 22.9 38.75 24.55 41.5 26.0 42.0 25.65 42.85 26.05 46.1 24.6 47.35 23.35 45.4 23.45 46.9 22.75 47.25 22.4 45.95 22.85 43.1 18.55 39.0 18.3 36.1 17.1 32.25 14.8 30.2 15.05 23.85 12.9 24.25 10.25 24.4 8.2 23.1 8.0 19.1 10.1 17.55 12.5 19.0 15.5 20.25 16.0 18.6 15.45 15.85 16.75 13.7 19.1 13.85 20.7 12.55 23.0 12.65 23.95 11.9 28.95 11.4 29.9 10.95 33.4 10.35 33.9 12.4 31.55 13.65 32.35 14.5 32.35 15.2 31.05 14.8 29.85 13.55 28.35 14.15 25.9 15.75 23.75 15.9 21.6 16.8 26.8 21.05 32.2 22.65 41.25 22.95 45.25 25.95 51.15 27.6"/></g></defs><g><g><use transform="matrix(1.0,0.0,0.0,1.0,0.0,0.0)" xlink:href="#c1"/></g></g></svg>